<svg width="411" height="620" viewBox="0 0 411 620" fill="none" xmlns="http://www.w3.org/2000/svg">
<g clip-path="url(#clip0_251_97568)">
<g clip-path="url(#clip1_251_97568)">
<path d="M324.795 103C306.652 188.047 305.998 172.303 304.271 192.615C303.495 205.995 306.885 233.455 321.306 243.49C335.727 253.525 304.443 309.345 286.998 336" stroke="#D9D9D9" stroke-width="4" stroke-linecap="round"/>
<path d="M315.416 188.348C350.941 192.953 361.616 192.46 362.514 191.637" stroke="#D9D9D9" stroke-width="3"/>
<path d="M313.398 214.254C350.269 215.57 372.495 214.802 378.999 214.254" stroke="#D9D9D9" stroke-width="3"/>
<path d="M249.816 242.628C329.209 240.325 355.562 237.831 358.814 236.871" stroke="#D9D9D9" stroke-width="3" stroke-linecap="round"/>
<path d="M278.22 169.194C278.316 168.371 277.727 167.626 276.904 167.53C276.081 167.434 275.336 168.023 275.24 168.845L276.73 169.02L278.22 169.194ZM273.029 243.038L274.528 243.109C275.873 214.654 276.77 196.391 277.345 185.123C277.632 179.489 277.839 175.605 277.98 173.07C278.051 171.803 278.106 170.875 278.146 170.235C278.166 169.915 278.183 169.67 278.195 169.492C278.202 169.403 278.207 169.333 278.212 169.28C278.214 169.254 278.216 169.233 278.217 169.218C278.218 169.21 278.219 169.204 278.219 169.2C278.219 169.195 278.22 169.193 278.22 169.194L276.73 169.02L275.24 168.845C275.12 169.873 274.22 186.11 271.531 242.967L273.029 243.038Z" fill="#D9D9D9"/>
<path d="M291.378 200.114C292.2 200.013 292.785 199.265 292.685 198.443C292.584 197.621 291.836 197.036 291.014 197.136L291.196 198.625L291.378 200.114ZM275.721 198.625L275.67 200.124C285.352 200.453 290.126 200.267 291.378 200.114L291.196 198.625L291.014 197.136C290.023 197.257 285.466 197.455 275.772 197.126L275.721 198.625Z" fill="#D9D9D9"/>
<path d="M249.816 242.626C241.742 162.439 262.936 143.523 266.973 134.888C271.01 126.252 280.093 109.393 283.457 95" stroke="#D9D9D9" stroke-width="3"/>
<path d="M253.543 696.531C264.04 585.01 265.318 573.304 264.645 581.391C265.094 563.846 263.905 525.466 255.562 512.307C247.219 499.148 265.318 425.952 275.41 390.999" stroke="#D9D9D9" stroke-width="4"/>
<path d="M323.18 595.372C243.787 597.675 217.435 600.169 214.183 601.129" stroke="#D9D9D9" stroke-width="3" stroke-linecap="round"/>
<path d="M294.776 668.806C294.68 669.629 295.269 670.374 296.092 670.47C296.915 670.566 297.66 669.977 297.756 669.155L296.266 668.98L294.776 668.806ZM299.967 594.962L298.468 594.891C297.123 623.346 296.226 641.609 295.651 652.877C295.364 658.511 295.157 662.395 295.016 664.93C294.945 666.197 294.89 667.125 294.85 667.765C294.83 668.085 294.814 668.33 294.801 668.508C294.794 668.597 294.789 668.667 294.784 668.72C294.782 668.746 294.78 668.767 294.779 668.782C294.778 668.79 294.778 668.796 294.777 668.8C294.777 668.805 294.776 668.807 294.776 668.806L296.266 668.98L297.756 669.155C297.876 668.127 298.776 651.89 301.465 595.033L299.967 594.962Z" fill="#D9D9D9"/>
<path d="M323.18 595.374C331.254 675.561 310.06 694.477 306.023 703.112C301.986 711.748 292.903 728.607 289.539 743" stroke="#D9D9D9" stroke-width="3"/>
<path d="M74.4438 265.656C74.5473 264.556 73.7397 263.581 72.64 263.478C71.5403 263.374 70.5649 264.182 70.4614 265.281L72.4526 265.469L74.4438 265.656ZM61.3511 380.609L63.3504 380.66L59.358 380.443L61.3511 380.609ZM72.4526 265.469L70.4614 265.281C65.2134 321.042 62.2701 351.846 60.723 367.698C59.9489 375.629 59.5255 379.805 59.3381 381.492C59.2902 381.923 59.2612 382.159 59.2474 382.253C59.2437 382.279 59.2452 382.265 59.2516 382.232C59.2533 382.223 59.2653 382.161 59.2889 382.08C59.2986 382.047 59.3291 381.943 59.3865 381.816C59.4187 381.749 59.5118 381.583 59.5756 381.487C59.6936 381.337 60.0875 380.987 60.3809 380.823C60.8858 380.671 61.9201 380.777 62.3784 381.025C62.6291 381.24 62.9415 381.652 63.0267 381.818C63.148 382.086 63.1782 382.318 63.1825 382.346C63.2016 382.475 63.2026 382.575 63.2027 382.582C63.2037 382.629 63.2021 382.655 63.203 382.633C63.2098 382.454 63.2582 381.809 63.3442 380.775L61.3511 380.609L59.358 380.443C59.2758 381.431 59.2169 382.189 59.2058 382.482C59.2044 382.519 59.202 382.59 59.2036 382.666C59.2041 382.687 59.2057 382.798 59.2259 382.934C59.2307 382.966 59.2615 383.201 59.3835 383.47C59.469 383.637 59.7819 384.049 60.0329 384.265C60.4917 384.513 61.5264 384.619 62.0317 384.467C62.3255 384.302 62.7199 383.952 62.8385 383.801C62.9027 383.705 62.9963 383.538 63.0291 383.469C63.0876 383.34 63.1192 383.233 63.1302 383.195C63.1564 383.105 63.1712 383.03 63.1764 383.004C63.1893 382.938 63.1991 382.875 63.2052 382.832C63.2307 382.659 63.2668 382.354 63.3136 381.934C63.5046 380.215 63.9307 376.011 64.7041 368.086C66.2519 352.227 69.1958 321.417 74.4438 265.656L72.4526 265.469ZM61.3511 380.609L59.3517 380.558C59.1258 389.393 59.3117 403.457 60.6049 416.986C61.2514 423.751 62.1782 430.419 63.4802 436.25C64.773 442.041 66.4717 447.178 68.7451 450.764L70.4342 449.693L72.1233 448.622C70.2251 445.628 68.6466 441.034 67.3841 435.379C66.1308 429.765 65.2241 423.274 64.5867 416.606C63.312 403.269 63.1277 389.37 63.3504 380.66L61.3511 380.609ZM70.4342 449.693L68.7451 450.764C69.5222 451.99 70.1211 454.174 70.3978 457.42C70.6693 460.603 70.6138 464.563 70.2772 469.137C69.6045 478.28 67.8258 489.667 65.4603 501.791C60.7316 526.029 53.7001 553.006 48.6644 570.447L50.5859 571.001L52.5074 571.556C57.5641 554.043 64.6282 526.946 69.3863 502.557C71.7642 490.369 73.5767 478.805 74.2664 469.43C74.6111 464.746 74.6797 460.555 74.3834 457.08C74.0925 453.668 73.4319 450.686 72.1233 448.622L70.4342 449.693Z" fill="#D9D9D9"/>
<path d="M68.416 312.348C103.941 316.953 114.616 316.46 115.514 315.637" stroke="#D9D9D9" stroke-width="3"/>
<path d="M66.3984 338.254C103.269 339.57 125.495 338.802 131.999 338.254" stroke="#D9D9D9" stroke-width="3"/>
<path d="M2.81641 366.628C82.2094 364.325 108.562 361.831 111.814 360.871" stroke="#D9D9D9" stroke-width="3" stroke-linecap="round"/>
<path d="M31.2197 293.194C31.3158 292.371 30.7268 291.626 29.9039 291.53C29.0811 291.434 28.3361 292.023 28.24 292.845L29.7298 293.02L31.2197 293.194ZM26.0293 367.038L27.5276 367.109C28.8732 338.654 29.7702 320.391 30.3448 309.123C30.6321 303.489 30.8387 299.605 30.9804 297.07C31.0513 295.803 31.1058 294.875 31.146 294.235C31.1662 293.915 31.1825 293.67 31.1954 293.492C31.2019 293.403 31.2073 293.333 31.2117 293.28C31.2139 293.254 31.2158 293.233 31.2173 293.218C31.218 293.21 31.2186 293.204 31.219 293.2C31.2195 293.195 31.2197 293.193 31.2197 293.194L29.7298 293.02L28.24 292.845C28.1198 293.873 27.2197 310.11 24.531 366.967L26.0293 367.038Z" fill="#D9D9D9"/>
<path d="M44.3776 324.114C45.1999 324.013 45.785 323.265 45.6845 322.443C45.584 321.621 44.8359 321.036 44.0136 321.136L44.1956 322.625L44.3776 324.114ZM28.7207 322.625L28.6698 324.124C38.3523 324.453 43.1257 324.267 44.3776 324.114L44.1956 322.625L44.0136 321.136C43.0228 321.257 38.4664 321.455 28.7716 321.126L28.7207 322.625Z" fill="#D9D9D9"/>
<path d="M37.918 219.341C38.1065 218.535 37.6055 217.728 36.7988 217.539C35.9921 217.351 35.1853 217.852 34.9967 218.659L36.4574 219L37.918 219.341ZM2.81626 366.626L4.30871 366.476C0.285578 326.519 3.56747 301.952 8.28882 286.36C10.6482 278.568 13.3746 272.992 15.7556 268.834C16.9502 266.748 18.0588 265.017 19.0131 263.51C19.9506 262.03 20.7792 260.706 21.3321 259.523L19.9732 258.888L18.6144 258.253C18.158 259.229 17.4412 260.385 16.4785 261.905C15.5326 263.399 14.3862 265.189 13.1523 267.343C10.6764 271.667 7.85205 277.451 5.41756 285.491C0.551201 301.562 -2.72692 326.546 1.32381 366.776L2.81626 366.626ZM19.9732 258.888L21.3321 259.523C25.3036 251.027 34.5069 233.935 37.918 219.341L36.4574 219L34.9967 218.659C31.6796 232.85 22.7167 249.477 18.6144 258.253L19.9732 258.888Z" fill="#D9D9D9"/>
<path d="M255.683 169.757C97.9286 150.451 81.3647 148.062 92.802 149.281C68.0181 148.711 13.8662 151.916 -4.46992 169.294C-22.8061 186.672 -126.672 151.004 -176.313 130.998" stroke="#D9D9D9" stroke-width="4"/>
<path d="M150.191 158.414C146.088 256.607 147.093 286.083 148.109 288.546" stroke="#D9D9D9" stroke-width="3"/>
<path d="M115.785 156.48C121.6 232.02 119.476 277.635 117.687 291" stroke="#D9D9D9" stroke-width="3"/>
<path d="M84.367 80.6709C89.8267 163.999 94.8554 191.612 96.6872 195.002" stroke="#D9D9D9" stroke-width="3" stroke-linecap="round"/>
<path d="M172.422 113.191C173.246 113.276 173.983 112.677 174.068 111.853C174.154 111.029 173.555 110.292 172.73 110.207L172.576 111.699L172.422 113.191ZM84.2706 108.51L84.2205 110.009C152.17 112.278 171.345 113.08 172.422 113.191L172.576 111.699L172.73 110.207C171.516 110.082 152.16 109.276 84.3207 107.01L84.2706 108.51Z" fill="#D9D9D9"/>
<path d="M136.038 129.746C136.149 130.567 136.905 131.142 137.726 131.031C138.547 130.919 139.122 130.163 139.01 129.342L137.524 129.544L136.038 129.746ZM137.262 110.988L135.762 110.959C135.534 122.576 135.838 128.274 136.038 129.746L137.524 129.544L139.01 129.342C138.846 128.13 138.533 122.647 138.761 111.018L137.262 110.988Z" fill="#D9D9D9"/>
<path d="M84.367 80.6689C179.827 69.6357 202.737 94.7305 213.101 99.4256C223.464 104.121 243.718 114.728 260.933 118.519" stroke="#D9D9D9" stroke-width="3"/>
<path d="M269.443 404.467C136.312 393.761 122.335 392.425 131.988 393.096C111.063 392.854 65.3279 394.926 49.7817 405.152C34.2355 415.378 -53.334 394.909 -95.1754 383.397" stroke="#D9D9D9" stroke-width="4"/>
<path d="M213.488 400.414C208.6 443.09 209.369 455.883 210.365 456.944" stroke="#D9D9D9" stroke-width="3"/>
<path d="M182.568 398.43C181.624 442.664 182.917 469.301 183.681 477.091" stroke="#D9D9D9" stroke-width="3"/>
<path d="M147.664 322.667C151.756 417.829 155.176 449.386 156.376 453.269" stroke="#D9D9D9" stroke-width="3" stroke-linecap="round"/>
<path d="M235.719 355.191C236.543 355.276 237.28 354.677 237.365 353.853C237.45 353.029 236.851 352.292 236.027 352.207L235.873 353.699L235.719 355.191ZM147.567 350.51L147.517 352.009C215.467 354.278 234.642 355.08 235.719 355.191L235.873 353.699L236.027 352.207C234.813 352.082 215.457 351.276 147.618 349.01L147.567 350.51Z" fill="#D9D9D9"/>
<path d="M199.335 371.746C199.446 372.567 200.202 373.142 201.023 373.031C201.844 372.919 202.419 372.163 202.307 371.342L200.821 371.544L199.335 371.746ZM200.559 352.988L199.059 352.959C198.831 364.576 199.135 370.274 199.335 371.746L200.821 371.544L202.307 371.342C202.142 370.13 201.83 364.647 202.058 353.018L200.559 352.988Z" fill="#D9D9D9"/>
<path d="M144.015 323.669C239.475 312.636 262.386 337.731 272.749 342.426C283.112 347.121 303.366 357.728 320.582 361.519" stroke="#D9D9D9" stroke-width="3"/>
<path d="M446.647 407.762C326.579 423.75 313.979 425.669 322.688 424.629C303.775 425.508 262.361 424.475 248.009 413.319C233.657 402.163 155.067 427.916 117.566 442.187" stroke="#D9D9D9" stroke-width="4"/>
<path d="M396.168 413.973C390.517 365.685 390.844 351.146 391.714 349.912" stroke="#D9D9D9" stroke-width="3"/>
<path d="M368.268 417.113C366.138 366.944 366.539 336.678 367.005 327.817" stroke="#D9D9D9" stroke-width="3"/>
<path d="M338.893 504.096C339.848 395.989 342.031 360.079 343.004 355.638" stroke="#D9D9D9" stroke-width="3" stroke-linecap="round"/>
<path d="M417.517 464.857C418.335 464.725 419.105 465.28 419.238 466.098C419.37 466.916 418.815 467.686 417.997 467.818L417.757 466.338L417.517 464.857ZM338.002 472.504L337.892 471.008C368.553 468.742 388.231 467.243 400.372 466.289C406.442 465.812 410.627 465.471 413.357 465.24C414.722 465.124 415.721 465.036 416.409 464.971C416.753 464.939 417.016 464.913 417.207 464.893C417.303 464.883 417.377 464.875 417.432 464.868C417.46 464.865 417.481 464.862 417.497 464.86C417.513 464.858 417.519 464.857 417.517 464.857L417.757 466.338L417.997 467.818C417.4 467.915 412.693 468.33 400.607 469.28C388.46 470.234 368.777 471.734 338.113 474L338.002 472.504Z" fill="#D9D9D9"/>
<path d="M384.053 446.976C384.121 446.151 384.845 445.536 385.671 445.604C386.496 445.672 387.111 446.397 387.043 447.222L385.548 447.099L384.053 446.976ZM385.846 468.164L384.347 468.225C383.807 455.047 383.919 448.608 384.053 446.976L385.548 447.099L387.043 447.222C386.926 448.647 386.804 454.914 387.344 468.103L385.846 468.164Z" fill="#D9D9D9"/>
<path d="M338.892 504.097C425.525 513.864 445.517 484.726 454.752 479.099C463.988 473.472 481.995 460.851 497.452 456.052" stroke="#D9D9D9" stroke-width="3"/>
<path d="M379 874.411V-122.67C379 -122.67 372.114 -188 304.405 -188C236.696 -188 227.515 -122.67 227.515 -122.67V6.91823C227.515 6.91823 224.073 65.8221 179.316 106.519C134.559 147.217 70.293 149.358 70.293 149.358H-64.634C-64.634 149.358 -153 146.146 -153 222.185C-153 298.225 -64.634 293.941 -64.634 293.941H219.482C219.482 293.941 291.782 293.941 291.782 366.767C291.782 439.594 228.663 440.665 228.663 440.665H23.6938C23.6938 440.665 -42.8675 446.02 -42.8675 512.42C-42.8675 578.821 23.6938 578.821 23.6938 578.821H95.1333C196.863 578.821 202.586 593.608 202.586 716.977V854.063C202.586 854.063 193.405 921.535 123.401 921.535C53.3969 921.535 46.5112 854.063 46.5112 854.063V759.817C46.5112 759.817 45.9921 708.41 -17.1265 708.41C-80.245 708.41 -80.0439 764.101 -80.0439 764.101V854.063C-80.0439 923.677 -65.8817 984.304 38.1599 1004H224.073C369.819 1004 379 874.411 379 874.411Z" stroke="url(#paint0_linear_251_97568)" stroke-width="30"/>
<rect x="99.5" y="257.5" width="212" height="30" rx="15" fill="white"/>
<rect x="99.5" y="257.5" width="212" height="30" rx="15" stroke="#BF4B17" stroke-width="3"/>
<path d="M121.702 277.692C120.507 277.692 119.595 277.468 118.966 277.02C118.337 276.572 118.022 275.895 118.022 274.988V273.516C118.022 272.897 118.198 272.412 118.55 272.06C118.902 271.697 119.361 271.516 119.926 271.516C120.491 271.516 120.95 271.671 121.302 271.98C121.654 272.279 121.83 272.695 121.83 273.228C121.83 273.761 121.654 274.183 121.302 274.492C120.95 274.791 120.491 274.94 119.926 274.94H119.766V275.132C119.766 275.516 119.883 275.82 120.118 276.044C120.353 276.257 120.71 276.364 121.19 276.364H122.214C122.694 276.364 123.051 276.257 123.286 276.044C123.521 275.82 123.638 275.516 123.638 275.132V272.092C123.638 271.388 123.414 270.839 122.966 270.444C122.529 270.039 121.921 269.836 121.142 269.836C120.769 269.836 120.433 269.879 120.134 269.964C119.835 270.039 119.563 270.145 119.318 270.284C119.083 270.423 118.875 270.583 118.694 270.764C118.523 270.945 118.374 271.137 118.246 271.34L117.19 270.38C117.521 269.868 118.022 269.431 118.694 269.068C119.377 268.705 120.257 268.524 121.334 268.524C122.625 268.524 123.622 268.833 124.326 269.452C125.03 270.071 125.382 270.929 125.382 272.028V274.988C125.382 275.895 125.067 276.572 124.438 277.02C123.809 277.468 122.897 277.692 121.702 277.692ZM120.006 274.06C120.251 274.06 120.443 273.985 120.582 273.836C120.731 273.687 120.806 273.484 120.806 273.228C120.806 272.972 120.731 272.769 120.582 272.62C120.443 272.471 120.251 272.396 120.006 272.396C119.761 272.396 119.563 272.471 119.414 272.62C119.275 272.769 119.206 272.972 119.206 273.228C119.206 273.484 119.275 273.687 119.414 273.836C119.563 273.985 119.761 274.06 120.006 274.06ZM135.391 277.692C134.879 277.692 134.452 277.564 134.111 277.308C133.78 277.052 133.588 276.684 133.535 276.204L130.815 277.5H129.151V271.948H129.023C128.468 271.948 128.015 271.799 127.663 271.5C127.322 271.191 127.151 270.769 127.151 270.236C127.151 269.703 127.322 269.287 127.663 268.988C128.015 268.679 128.468 268.524 129.023 268.524C129.578 268.524 130.026 268.679 130.367 268.988C130.719 269.287 130.895 269.703 130.895 270.236V276.124H130.975L134.207 274.588V268.716H135.951V273.468C135.951 273.585 135.94 273.708 135.919 273.836C135.908 273.964 135.866 274.097 135.791 274.236C136.239 274.311 136.596 274.497 136.863 274.796C137.13 275.084 137.263 275.468 137.263 275.948C137.263 276.492 137.087 276.919 136.735 277.228C136.394 277.537 135.946 277.692 135.391 277.692ZM135.391 276.796C135.647 276.796 135.844 276.732 135.983 276.604C136.132 276.476 136.207 276.3 136.207 276.076V275.788C136.207 275.564 136.132 275.388 135.983 275.26C135.844 275.132 135.647 275.068 135.391 275.068C135.135 275.068 134.932 275.132 134.783 275.26C134.644 275.388 134.575 275.564 134.575 275.788V276.076C134.575 276.3 134.644 276.476 134.783 276.604C134.932 276.732 135.135 276.796 135.391 276.796ZM128.975 271.052C129.21 271.052 129.396 270.977 129.535 270.828C129.674 270.679 129.743 270.481 129.743 270.236C129.743 269.991 129.674 269.793 129.535 269.644C129.396 269.495 129.21 269.42 128.975 269.42C128.74 269.42 128.554 269.495 128.415 269.644C128.276 269.793 128.207 269.991 128.207 270.236C128.207 270.481 128.276 270.679 128.415 270.828C128.554 270.977 128.74 271.052 128.975 271.052ZM134.389 281.964C133.909 281.964 133.531 281.836 133.253 281.58C132.965 281.335 132.821 280.988 132.821 280.54C132.821 280.092 132.965 279.74 133.253 279.484C133.531 279.239 133.909 279.116 134.389 279.116C134.869 279.116 135.253 279.239 135.541 279.484C135.819 279.74 135.957 280.092 135.957 280.54V283.372H134.405V281.964H134.389ZM134.357 281.132C134.731 281.132 134.917 280.935 134.917 280.54C134.917 280.145 134.731 279.948 134.357 279.948C133.984 279.948 133.797 280.145 133.797 280.54C133.797 280.935 133.984 281.132 134.357 281.132ZM144.818 273.436H142.354C141.81 273.436 141.383 273.548 141.074 273.772C140.775 273.996 140.599 274.311 140.546 274.716C140.823 274.545 141.138 274.46 141.49 274.46C141.959 274.46 142.348 274.604 142.658 274.892C142.978 275.169 143.138 275.559 143.138 276.06C143.138 276.561 142.972 276.961 142.641 277.26C142.321 277.548 141.906 277.692 141.394 277.692C140.7 277.692 140.146 277.484 139.73 277.068C139.314 276.641 139.106 275.996 139.106 275.132C139.106 274.215 139.378 273.516 139.922 273.036C140.466 272.556 141.207 272.316 142.146 272.316H144.818V271.948C144.818 271.255 144.636 270.732 144.274 270.38C143.911 270.017 143.351 269.836 142.594 269.836C141.9 269.836 141.33 269.996 140.882 270.316C140.444 270.625 140.092 271.004 139.826 271.452L138.706 270.476C139.047 269.9 139.538 269.431 140.178 269.068C140.818 268.705 141.666 268.524 142.722 268.524C143.564 268.524 144.279 268.663 144.866 268.94V267.564H146.61V268.428C146.61 269.047 146.375 269.489 145.906 269.756C146.343 270.311 146.562 271.02 146.562 271.884V277.5H144.818V273.436ZM141.41 276.876C141.623 276.876 141.799 276.807 141.938 276.668C142.076 276.519 142.146 276.321 142.146 276.076C142.146 275.831 142.076 275.639 141.938 275.5C141.799 275.351 141.623 275.276 141.41 275.276C141.196 275.276 141.02 275.351 140.882 275.5C140.743 275.639 140.674 275.831 140.674 276.076C140.674 276.321 140.743 276.519 140.882 276.668C141.02 276.807 141.196 276.876 141.41 276.876ZM153.008 277.5V271.532C153.008 270.988 152.869 270.572 152.592 270.284C152.314 269.985 151.888 269.836 151.312 269.836C150.8 269.836 150.384 269.953 150.064 270.188C149.754 270.423 149.493 270.711 149.28 271.052L148.224 270.14C148.512 269.66 148.912 269.271 149.424 268.972C149.936 268.673 150.618 268.524 151.472 268.524C152.538 268.524 153.349 268.775 153.904 269.276C154.469 269.777 154.752 270.497 154.752 271.436V277.5H153.008ZM160.975 277.692C160.42 277.692 159.967 277.543 159.615 277.244C159.274 276.935 159.103 276.513 159.103 275.98C159.103 275.447 159.274 275.031 159.615 274.732C159.967 274.423 160.42 274.268 160.975 274.268H161.103V271.548C161.103 271.004 160.959 270.583 160.671 270.284C160.394 269.985 159.956 269.836 159.359 269.836C158.847 269.836 158.431 269.953 158.111 270.188C157.791 270.423 157.524 270.711 157.311 271.052L156.255 270.14C156.543 269.66 156.943 269.271 157.455 268.972C157.978 268.673 158.671 268.524 159.535 268.524C160.623 268.524 161.444 268.78 161.999 269.292C162.564 269.804 162.847 270.529 162.847 271.468V275.98C162.847 276.513 162.671 276.935 162.319 277.244C161.978 277.543 161.53 277.692 160.975 277.692ZM160.927 276.796C161.162 276.796 161.348 276.721 161.487 276.572C161.626 276.423 161.695 276.225 161.695 275.98C161.695 275.735 161.626 275.537 161.487 275.388C161.348 275.239 161.162 275.164 160.927 275.164C160.692 275.164 160.506 275.239 160.367 275.388C160.228 275.537 160.159 275.735 160.159 275.98C160.159 276.225 160.228 276.423 160.367 276.572C160.506 276.721 160.692 276.796 160.927 276.796ZM169.709 277.692C169.144 277.692 168.685 277.543 168.333 277.244C167.981 276.935 167.805 276.508 167.805 275.964C167.805 275.42 167.981 274.999 168.333 274.7C168.685 274.391 169.144 274.236 169.709 274.236C169.73 274.236 169.752 274.241 169.773 274.252C169.805 274.252 169.837 274.252 169.869 274.252V273.852C169.869 273.553 169.805 273.34 169.677 273.212C169.549 273.084 169.304 273.004 168.941 272.972L164.989 272.668V271.836C164.989 271.313 165.08 270.849 165.261 270.444C165.442 270.028 165.698 269.681 166.029 269.404C166.37 269.116 166.776 268.897 167.245 268.748C167.714 268.599 168.237 268.524 168.813 268.524C169.666 268.524 170.376 268.652 170.941 268.908C171.506 269.153 171.96 269.484 172.301 269.9L171.421 271.004C171.144 270.641 170.802 270.348 170.397 270.124C169.992 269.9 169.496 269.788 168.909 269.788C168.205 269.788 167.65 269.932 167.245 270.22C166.85 270.508 166.653 270.94 166.653 271.516V271.564L169.261 271.74C169.634 271.761 169.965 271.809 170.253 271.884C170.552 271.959 170.797 272.076 170.989 272.236C171.192 272.396 171.346 272.609 171.453 272.876C171.56 273.143 171.613 273.484 171.613 273.9V275.964C171.613 276.508 171.437 276.935 171.085 277.244C170.733 277.543 170.274 277.692 169.709 277.692ZM169.629 275.116C169.384 275.116 169.186 275.196 169.037 275.356C168.888 275.505 168.813 275.708 168.813 275.964C168.813 276.22 168.888 276.428 169.037 276.588C169.186 276.737 169.384 276.812 169.629 276.812C169.874 276.812 170.072 276.737 170.221 276.588C170.37 276.428 170.445 276.22 170.445 275.964C170.445 275.708 170.37 275.505 170.221 275.356C170.072 275.196 169.874 275.116 169.629 275.116ZM163.995 266.588C163.995 266.129 164.08 265.719 164.251 265.356C164.411 264.983 164.64 264.668 164.939 264.412C165.237 264.145 165.6 263.943 166.027 263.804C166.453 263.655 166.923 263.58 167.435 263.58C168.096 263.58 168.661 263.703 169.131 263.948C169.589 264.183 169.931 264.508 170.155 264.924H170.219V262.86H171.739V267.084H163.995V266.588ZM167.851 264.812C167.531 264.812 167.232 264.844 166.955 264.908C166.677 264.961 166.432 265.047 166.219 265.164C165.995 265.271 165.813 265.404 165.675 265.564C165.536 265.713 165.445 265.884 165.403 266.076H170.299C170.213 265.703 169.947 265.399 169.499 265.164C169.051 264.929 168.501 264.812 167.851 264.812ZM177.347 273.74C176.973 273.761 176.675 273.895 176.451 274.14C176.237 274.375 176.131 274.663 176.131 275.004C176.131 275.409 176.264 275.74 176.531 275.996C176.808 276.241 177.213 276.364 177.747 276.364H178.371C178.915 276.364 179.336 276.225 179.635 275.948C179.933 275.671 180.083 275.287 180.083 274.796V268.716H181.827V274.636C181.827 275.649 181.496 276.412 180.835 276.924C180.173 277.436 179.245 277.692 178.051 277.692C176.909 277.692 176.013 277.489 175.363 277.084C174.723 276.679 174.403 276.103 174.403 275.356C174.403 274.887 174.531 274.519 174.787 274.252C175.053 273.985 175.384 273.793 175.779 273.676V273.612C175.277 273.463 174.915 273.217 174.691 272.876C174.477 272.524 174.371 272.103 174.371 271.612V270.764C174.371 270.06 174.563 269.511 174.947 269.116C175.341 268.721 175.859 268.524 176.499 268.524C177.011 268.524 177.427 268.663 177.747 268.94C178.067 269.217 178.227 269.607 178.227 270.108C178.227 270.609 178.067 270.999 177.747 271.276C177.427 271.553 177.011 271.692 176.499 271.692C176.264 271.692 176.056 271.655 175.875 271.58C175.875 271.911 175.939 272.156 176.067 272.316C176.195 272.465 176.477 272.54 176.915 272.54H178.035V273.74H177.347ZM176.499 270.892C176.712 270.892 176.888 270.823 177.027 270.684C177.165 270.545 177.235 270.353 177.235 270.108C177.235 269.863 177.165 269.671 177.027 269.532C176.888 269.393 176.712 269.324 176.499 269.324C176.285 269.324 176.109 269.393 175.971 269.532C175.832 269.671 175.763 269.863 175.763 270.108C175.763 270.353 175.832 270.545 175.971 270.684C176.109 270.823 176.285 270.892 176.499 270.892ZM180.09 267.212C179.557 267.212 179.125 267.063 178.794 266.764C178.453 266.465 178.282 266.06 178.282 265.548C178.282 264.94 178.48 264.487 178.874 264.188C179.258 263.889 179.808 263.74 180.522 263.74H182.65L182.89 262.732L184.426 263.02L184.234 263.804C184.16 264.113 184.037 264.364 183.866 264.556C183.685 264.748 183.376 264.844 182.938 264.844H181.85C181.765 264.844 181.69 264.844 181.626 264.844C181.552 264.844 181.477 264.839 181.402 264.828L181.386 264.86C181.536 264.967 181.648 265.095 181.722 265.244C181.786 265.383 181.818 265.537 181.818 265.708C181.818 266.135 181.664 266.492 181.354 266.78C181.045 267.068 180.624 267.212 180.09 267.212ZM180.09 266.316C180.325 266.316 180.506 266.252 180.634 266.124C180.762 265.985 180.826 265.793 180.826 265.548C180.826 265.303 180.762 265.116 180.634 264.988C180.506 264.849 180.325 264.78 180.09 264.78C179.856 264.78 179.674 264.849 179.546 264.988C179.418 265.116 179.354 265.303 179.354 265.548C179.354 265.793 179.418 265.985 179.546 266.124C179.674 266.252 179.856 266.316 180.09 266.316ZM185.729 271.948H185.601C185.047 271.948 184.593 271.799 184.241 271.5C183.9 271.191 183.729 270.769 183.729 270.236C183.729 269.703 183.9 269.287 184.241 268.988C184.593 268.679 185.047 268.524 185.601 268.524C186.156 268.524 186.604 268.679 186.945 268.988C187.297 269.287 187.473 269.703 187.473 270.236V273.356L187.393 275.868H187.473L189.361 268.972H190.385L192.273 275.868H192.353L192.273 273.356V268.716H194.017V276.54C194.017 276.828 193.943 277.063 193.793 277.244C193.644 277.415 193.415 277.5 193.105 277.5H191.729L189.905 270.876H189.841L188.017 277.5H185.729V271.948ZM185.553 271.052C185.788 271.052 185.975 270.977 186.113 270.828C186.252 270.679 186.321 270.481 186.321 270.236C186.321 269.991 186.252 269.793 186.113 269.644C185.975 269.495 185.788 269.42 185.553 269.42C185.319 269.42 185.132 269.495 184.993 269.644C184.855 269.793 184.785 269.991 184.785 270.236C184.785 270.481 184.855 270.679 184.993 270.828C185.132 270.977 185.319 271.052 185.553 271.052ZM201.084 277.692C200.519 277.692 200.06 277.543 199.708 277.244C199.356 276.935 199.18 276.508 199.18 275.964C199.18 275.42 199.356 274.999 199.708 274.7C200.06 274.391 200.519 274.236 201.084 274.236C201.105 274.236 201.127 274.241 201.148 274.252C201.18 274.252 201.212 274.252 201.244 274.252V273.852C201.244 273.553 201.18 273.34 201.052 273.212C200.924 273.084 200.679 273.004 200.316 272.972L196.364 272.668V271.836C196.364 271.313 196.455 270.849 196.636 270.444C196.817 270.028 197.073 269.681 197.404 269.404C197.745 269.116 198.151 268.897 198.62 268.748C199.089 268.599 199.612 268.524 200.188 268.524C201.041 268.524 201.751 268.652 202.316 268.908C202.881 269.153 203.335 269.484 203.676 269.9L202.796 271.004C202.519 270.641 202.177 270.348 201.772 270.124C201.367 269.9 200.871 269.788 200.284 269.788C199.58 269.788 199.025 269.932 198.62 270.22C198.225 270.508 198.028 270.94 198.028 271.516V271.564L200.636 271.74C201.009 271.761 201.34 271.809 201.628 271.884C201.927 271.959 202.172 272.076 202.364 272.236C202.567 272.396 202.721 272.609 202.828 272.876C202.935 273.143 202.988 273.484 202.988 273.9V275.964C202.988 276.508 202.812 276.935 202.46 277.244C202.108 277.543 201.649 277.692 201.084 277.692ZM201.004 275.116C200.759 275.116 200.561 275.196 200.412 275.356C200.263 275.505 200.188 275.708 200.188 275.964C200.188 276.22 200.263 276.428 200.412 276.588C200.561 276.737 200.759 276.812 201.004 276.812C201.249 276.812 201.447 276.737 201.596 276.588C201.745 276.428 201.82 276.22 201.82 275.964C201.82 275.708 201.745 275.505 201.596 275.356C201.447 275.196 201.249 275.116 201.004 275.116ZM208.578 272.78C207.543 272.78 206.759 272.604 206.226 272.252C205.692 271.9 205.426 271.372 205.426 270.668C205.426 270.124 205.58 269.708 205.89 269.42C206.21 269.132 206.62 268.988 207.122 268.988C207.612 268.988 208.002 269.127 208.29 269.404C208.588 269.671 208.738 270.017 208.738 270.444C208.738 270.721 208.674 270.961 208.546 271.164C208.418 271.367 208.252 271.495 208.05 271.548V271.58H208.85C209.426 271.58 209.852 271.42 210.13 271.1C210.407 270.769 210.546 270.236 210.546 269.5V269.308H212.274V269.5C212.274 270.684 211.948 271.527 211.298 272.028C210.658 272.529 209.751 272.78 208.578 272.78ZM208.578 277.356C207.543 277.356 206.759 277.18 206.226 276.828C205.692 276.476 205.426 275.948 205.426 275.244C205.426 274.7 205.58 274.284 205.89 273.996C206.21 273.708 206.62 273.564 207.122 273.564C207.612 273.564 208.002 273.703 208.29 273.98C208.588 274.247 208.738 274.593 208.738 275.02C208.738 275.297 208.674 275.537 208.546 275.74C208.418 275.943 208.252 276.071 208.05 276.124V276.156H208.85C209.426 276.156 209.852 275.996 210.13 275.676C210.407 275.345 210.546 274.812 210.546 274.076V273.884H212.274V274.076C212.274 275.26 211.948 276.103 211.298 276.604C210.658 277.105 209.751 277.356 208.578 277.356ZM207.122 271.372C207.346 271.372 207.516 271.308 207.634 271.18C207.751 271.041 207.81 270.855 207.81 270.62C207.81 270.385 207.751 270.204 207.634 270.076C207.516 269.937 207.346 269.868 207.122 269.868C206.898 269.868 206.727 269.937 206.61 270.076C206.492 270.204 206.434 270.385 206.434 270.62C206.434 270.855 206.492 271.041 206.61 271.18C206.727 271.308 206.898 271.372 207.122 271.372ZM207.122 275.948C207.346 275.948 207.516 275.884 207.634 275.756C207.751 275.617 207.81 275.431 207.81 275.196C207.81 274.961 207.751 274.78 207.634 274.652C207.516 274.513 207.346 274.444 207.122 274.444C206.898 274.444 206.727 274.513 206.61 274.652C206.492 274.78 206.434 274.961 206.434 275.196C206.434 275.431 206.492 275.617 206.61 275.756C206.727 275.884 206.898 275.948 207.122 275.948ZM222.047 277.692C221.535 277.692 221.109 277.564 220.767 277.308C220.437 277.052 220.245 276.684 220.191 276.204L217.471 277.5H215.807V271.948H215.679C215.125 271.948 214.671 271.799 214.319 271.5C213.978 271.191 213.807 270.769 213.807 270.236C213.807 269.703 213.978 269.287 214.319 268.988C214.671 268.679 215.125 268.524 215.679 268.524C216.234 268.524 216.682 268.679 217.023 268.988C217.375 269.287 217.551 269.703 217.551 270.236V276.124H217.631L220.863 274.588V268.716H222.607V273.468C222.607 273.585 222.597 273.708 222.575 273.836C222.565 273.964 222.522 274.097 222.447 274.236C222.895 274.311 223.253 274.497 223.519 274.796C223.786 275.084 223.919 275.468 223.919 275.948C223.919 276.492 223.743 276.919 223.391 277.228C223.05 277.537 222.602 277.692 222.047 277.692ZM222.047 276.796C222.303 276.796 222.501 276.732 222.639 276.604C222.789 276.476 222.863 276.3 222.863 276.076V275.788C222.863 275.564 222.789 275.388 222.639 275.26C222.501 275.132 222.303 275.068 222.047 275.068C221.791 275.068 221.589 275.132 221.439 275.26C221.301 275.388 221.231 275.564 221.231 275.788V276.076C221.231 276.3 221.301 276.476 221.439 276.604C221.589 276.732 221.791 276.796 222.047 276.796ZM215.631 271.052C215.866 271.052 216.053 270.977 216.191 270.828C216.33 270.679 216.399 270.481 216.399 270.236C216.399 269.991 216.33 269.793 216.191 269.644C216.053 269.495 215.866 269.42 215.631 269.42C215.397 269.42 215.21 269.495 215.071 269.644C214.933 269.793 214.863 269.991 214.863 270.236C214.863 270.481 214.933 270.679 215.071 270.828C215.21 270.977 215.397 271.052 215.631 271.052ZM229.273 277.5V271.532C229.273 270.988 229.135 270.572 228.857 270.284C228.58 269.985 228.153 269.836 227.577 269.836C227.065 269.836 226.649 269.953 226.329 270.188C226.02 270.423 225.759 270.711 225.545 271.052L224.489 270.14C224.777 269.66 225.177 269.271 225.689 268.972C226.201 268.673 226.884 268.524 227.737 268.524C228.804 268.524 229.615 268.775 230.169 269.276C230.735 269.777 231.017 270.497 231.017 271.436V277.5H229.273ZM235.784 277.5L232.936 271.196H234.712L237.016 276.252H238.152V271.948H238.024C237.469 271.948 237.016 271.799 236.664 271.5C236.322 271.191 236.152 270.769 236.152 270.236C236.152 269.703 236.322 269.287 236.664 268.988C237.016 268.679 237.469 268.524 238.024 268.524C238.578 268.524 239.026 268.679 239.368 268.988C239.72 269.287 239.896 269.703 239.896 270.236V277.5H235.784ZM237.976 271.052C238.21 271.052 238.397 270.977 238.536 270.828C238.674 270.679 238.744 270.481 238.744 270.236C238.744 269.991 238.674 269.793 238.536 269.644C238.397 269.495 238.21 269.42 237.976 269.42C237.741 269.42 237.554 269.495 237.416 269.644C237.277 269.793 237.208 269.991 237.208 270.236C237.208 270.481 237.277 270.679 237.416 270.828C237.554 270.977 237.741 271.052 237.976 271.052ZM247.49 277.692C246.764 277.692 246.172 277.511 245.714 277.148C245.266 276.785 245.042 276.289 245.042 275.66V274.988H244.818C244.252 274.988 243.794 274.839 243.442 274.54C243.09 274.231 242.914 273.809 242.914 273.276C242.914 272.743 243.09 272.327 243.442 272.028C243.794 271.719 244.252 271.564 244.818 271.564C245.383 271.564 245.842 271.719 246.194 272.028C246.546 272.327 246.722 272.743 246.722 273.276V275.612C246.722 275.879 246.791 276.081 246.93 276.22C247.068 276.348 247.244 276.412 247.458 276.412C247.671 276.412 247.847 276.348 247.986 276.22C248.124 276.081 248.194 275.879 248.194 275.612V271.98C248.194 271.287 247.975 270.759 247.538 270.396C247.111 270.023 246.519 269.836 245.762 269.836C245.068 269.836 244.482 269.975 244.002 270.252C243.522 270.519 243.127 270.887 242.818 271.356L241.73 270.38C242.124 269.804 242.652 269.351 243.314 269.02C243.975 268.689 244.844 268.524 245.922 268.524C247.223 268.524 248.215 268.823 248.898 269.42C249.591 270.007 249.938 270.801 249.938 271.804V275.66C249.938 276.289 249.708 276.785 249.25 277.148C248.802 277.511 248.215 277.692 247.49 277.692ZM244.754 274.092C244.988 274.092 245.175 274.017 245.314 273.868C245.463 273.719 245.538 273.521 245.538 273.276C245.538 273.031 245.463 272.833 245.314 272.684C245.175 272.535 244.988 272.46 244.754 272.46C244.519 272.46 244.327 272.535 244.178 272.684C244.039 272.833 243.97 273.031 243.97 273.276C243.97 273.521 244.039 273.719 244.178 273.868C244.327 274.017 244.519 274.092 244.754 274.092ZM256.226 277.5V271.532C256.226 270.988 256.088 270.572 255.81 270.284C255.533 269.985 255.106 269.836 254.53 269.836C254.018 269.836 253.602 269.953 253.282 270.188C252.973 270.423 252.712 270.711 252.498 271.052L251.442 270.14C251.73 269.66 252.13 269.271 252.642 268.972C253.154 268.673 253.837 268.524 254.69 268.524C255.757 268.524 256.568 268.775 257.122 269.276C257.688 269.777 257.97 270.497 257.97 271.436V277.5H256.226ZM261.938 277.692C261.383 277.692 260.93 277.537 260.578 277.228C260.236 276.919 260.066 276.492 260.066 275.948C260.066 275.404 260.236 274.977 260.578 274.668C260.93 274.359 261.383 274.204 261.938 274.204C262.034 274.204 262.108 274.209 262.162 274.22C262.119 274.06 262.098 273.863 262.098 273.628V271.948H261.97C261.415 271.948 260.962 271.799 260.61 271.5C260.268 271.191 260.098 270.769 260.098 270.236C260.098 269.703 260.268 269.287 260.61 268.988C260.962 268.679 261.415 268.524 261.97 268.524C262.524 268.524 262.972 268.679 263.314 268.988C263.666 269.287 263.842 269.703 263.842 270.236V274.748L266.754 276.108H266.834V268.716H268.578V277.5H266.914L263.81 276.012C263.788 276.545 263.607 276.961 263.266 277.26C262.924 277.548 262.482 277.692 261.938 277.692ZM261.938 276.796C262.194 276.796 262.391 276.732 262.53 276.604C262.679 276.476 262.754 276.3 262.754 276.076V275.788C262.754 275.564 262.679 275.388 262.53 275.26C262.391 275.132 262.194 275.068 261.938 275.068C261.682 275.068 261.479 275.132 261.33 275.26C261.191 275.388 261.122 275.564 261.122 275.788V276.076C261.122 276.3 261.191 276.476 261.33 276.604C261.479 276.732 261.682 276.796 261.938 276.796ZM261.922 271.052C262.156 271.052 262.343 270.977 262.482 270.828C262.62 270.679 262.69 270.481 262.69 270.236C262.69 269.991 262.62 269.793 262.482 269.644C262.343 269.495 262.156 269.42 261.922 269.42C261.687 269.42 261.5 269.495 261.362 269.644C261.223 269.793 261.154 269.991 261.154 270.236C261.154 270.481 261.223 270.679 261.362 270.828C261.5 270.977 261.687 271.052 261.922 271.052ZM273.422 277.692C272.867 277.692 272.414 277.543 272.062 277.244C271.72 276.935 271.55 276.513 271.55 275.98V268.716H273.294V274.268H273.422C273.976 274.268 274.424 274.423 274.766 274.732C275.118 275.031 275.294 275.447 275.294 275.98C275.294 276.513 275.118 276.935 274.766 277.244C274.424 277.543 273.976 277.692 273.422 277.692ZM273.47 276.796C273.704 276.796 273.891 276.721 274.03 276.572C274.168 276.423 274.238 276.225 274.238 275.98C274.238 275.735 274.168 275.537 274.03 275.388C273.891 275.239 273.704 275.164 273.47 275.164C273.235 275.164 273.048 275.239 272.91 275.388C272.771 275.537 272.702 275.735 272.702 275.98C272.702 276.225 272.771 276.423 272.91 276.572C273.048 276.721 273.235 276.796 273.47 276.796ZM277.573 271.948H277.445C276.89 271.948 276.437 271.799 276.085 271.5C275.744 271.191 275.573 270.769 275.573 270.236C275.573 269.703 275.744 269.287 276.085 268.988C276.437 268.679 276.89 268.524 277.445 268.524C278 268.524 278.448 268.679 278.789 268.988C279.141 269.287 279.317 269.703 279.317 270.236V270.988H279.397C279.674 270.188 280.09 269.58 280.645 269.164C281.2 268.737 281.861 268.524 282.629 268.524C283.472 268.524 284.074 268.764 284.437 269.244C284.81 269.724 284.997 270.449 284.997 271.42V277.5H283.253V271.596C283.253 270.988 283.141 270.567 282.917 270.332C282.693 270.097 282.41 269.98 282.069 269.98C281.749 269.98 281.424 270.065 281.093 270.236C280.773 270.396 280.48 270.615 280.213 270.892C279.946 271.169 279.728 271.495 279.557 271.868C279.397 272.231 279.317 272.615 279.317 273.02V277.5H277.573V271.948ZM277.397 271.052C277.632 271.052 277.818 270.977 277.957 270.828C278.096 270.679 278.165 270.481 278.165 270.236C278.165 269.991 278.096 269.793 277.957 269.644C277.818 269.495 277.632 269.42 277.397 269.42C277.162 269.42 276.976 269.495 276.837 269.644C276.698 269.793 276.629 269.991 276.629 270.236C276.629 270.481 276.698 270.679 276.837 270.828C276.976 270.977 277.162 271.052 277.397 271.052ZM291.256 277.692C290.701 277.692 290.248 277.543 289.896 277.244C289.555 276.935 289.384 276.513 289.384 275.98C289.384 275.447 289.555 275.031 289.896 274.732C290.248 274.423 290.701 274.268 291.256 274.268H291.384V271.548C291.384 271.004 291.24 270.583 290.952 270.284C290.675 269.985 290.237 269.836 289.64 269.836C289.128 269.836 288.712 269.953 288.392 270.188C288.072 270.423 287.805 270.711 287.592 271.052L286.536 270.14C286.824 269.66 287.224 269.271 287.736 268.972C288.259 268.673 288.952 268.524 289.816 268.524C290.904 268.524 291.725 268.78 292.28 269.292C292.845 269.804 293.128 270.529 293.128 271.468V275.98C293.128 276.513 292.952 276.935 292.6 277.244C292.259 277.543 291.811 277.692 291.256 277.692ZM291.208 276.796C291.443 276.796 291.629 276.721 291.768 276.572C291.907 276.423 291.976 276.225 291.976 275.98C291.976 275.735 291.907 275.537 291.768 275.388C291.629 275.239 291.443 275.164 291.208 275.164C290.973 275.164 290.787 275.239 290.648 275.388C290.509 275.537 290.44 275.735 290.44 275.98C290.44 276.225 290.509 276.423 290.648 276.572C290.787 276.721 290.973 276.796 291.208 276.796ZM285.37 266.588C285.37 266.129 285.455 265.719 285.626 265.356C285.786 264.983 286.015 264.668 286.314 264.412C286.612 264.145 286.975 263.943 287.402 263.804C287.828 263.655 288.298 263.58 288.81 263.58C289.471 263.58 290.036 263.703 290.506 263.948C290.964 264.183 291.306 264.508 291.53 264.924H291.594V262.86H293.114V267.084H285.37V266.588ZM289.226 264.812C288.906 264.812 288.607 264.844 288.33 264.908C288.052 264.961 287.807 265.047 287.594 265.164C287.37 265.271 287.188 265.404 287.05 265.564C286.911 265.713 286.82 265.884 286.778 266.076H291.674C291.588 265.703 291.322 265.399 290.874 265.164C290.426 264.929 289.876 264.812 289.226 264.812Z" fill="black"/>
<circle cx="76" cy="272" r="19" fill="#BF4B17"/>
<path d="M74.8951 269.344C75.5351 269.344 76.0045 269.216 76.3031 268.96C76.6125 268.693 76.7671 268.357 76.7671 267.952V267.84C76.7671 267.381 76.6178 267.024 76.3191 266.768C76.0311 266.501 75.6311 266.368 75.1191 266.368C74.6285 266.368 74.1911 266.485 73.8071 266.72C73.4338 266.955 73.1085 267.285 72.8311 267.712L71.4871 266.496C71.6791 266.24 71.8871 266 72.1111 265.776C72.3458 265.541 72.6125 265.344 72.9111 265.184C73.2098 265.013 73.5458 264.88 73.9191 264.784C74.2925 264.688 74.7138 264.64 75.1831 264.64C75.7485 264.64 76.2605 264.709 76.7191 264.848C77.1885 264.976 77.5885 265.168 77.9191 265.424C78.2605 265.68 78.5218 265.989 78.7031 266.352C78.8845 266.704 78.9751 267.104 78.9751 267.552C78.9751 267.915 78.9165 268.24 78.7991 268.528C78.6925 268.816 78.5378 269.067 78.3351 269.28C78.1431 269.493 77.9138 269.669 77.6471 269.808C77.3911 269.936 77.1191 270.032 76.8311 270.096V270.192C77.1511 270.256 77.4551 270.357 77.7431 270.496C78.0311 270.635 78.2765 270.821 78.4791 271.056C78.6925 271.28 78.8578 271.547 78.9751 271.856C79.1031 272.165 79.1671 272.517 79.1671 272.912C79.1671 273.403 79.0658 273.851 78.8631 274.256C78.6711 274.661 78.3938 275.008 78.0311 275.296C77.6685 275.584 77.2365 275.808 76.7351 275.968C76.2338 276.117 75.6738 276.192 75.0551 276.192C74.5111 276.192 74.0311 276.133 73.6151 276.016C73.1991 275.909 72.8311 275.76 72.5111 275.568C72.2018 275.376 71.9298 275.157 71.6951 274.912C71.4605 274.656 71.2578 274.389 71.0871 274.112L72.6391 272.928C72.7671 273.152 72.9058 273.36 73.0551 273.552C73.2045 273.733 73.3751 273.893 73.5671 274.032C73.7591 274.171 73.9778 274.277 74.2231 274.352C74.4685 274.427 74.7458 274.464 75.0551 274.464C75.6738 274.464 76.1485 274.315 76.4791 274.016C76.8098 273.717 76.9751 273.307 76.9751 272.784V272.672C76.9751 272.16 76.7938 271.771 76.4311 271.504C76.0791 271.237 75.5671 271.104 74.8951 271.104H73.7911V269.344H74.8951Z" fill="#F4F4F4"/>
<path d="M190.931 178.532C190.859 178.458 189.952 178.791 189.789 178.152C189.247 176.063 189.978 169.209 190.52 166.833C191.87 160.91 193.867 155.813 194.33 149.318C194.865 141.739 192.973 133.813 194.584 126.447C195.707 121.316 199.139 119.899 203.934 119.499C205.598 114.349 203.614 113.816 202.055 110.236C200.496 106.656 202.094 103.083 203.732 99.9216C204.547 98.3445 209.402 91.324 210.576 90.7117C212.749 89.5738 214.706 89.7801 216.481 91.477C216.937 91.9162 219.71 96.4679 219.997 97.1467C222.098 102.104 222.275 106.337 221.413 111.594C220.898 114.721 218.83 116.851 220.559 120.284C221.394 121.941 225.772 123.605 227.194 125.089C230.646 128.689 229.119 137.646 229.517 142.384C230.065 148.972 233.869 154.402 235.754 160.604C236.883 159.992 236.713 158.322 237.699 157.104C238.162 156.525 240.491 154.835 241.144 154.822C247.042 157.237 240.295 164.271 240.445 166.108C240.485 166.613 242.005 167.638 242.324 168.683C243.421 172.236 238.645 174.985 236.276 176.642L236.25 181.932C235.415 182.405 234.077 182.198 233.438 182.97C231.533 185.293 230.345 193.005 228.375 195.873C232.714 196.732 234.208 192.992 238.331 191.867C242.259 190.789 247.772 191.095 250.774 194.143C251.798 195.188 252.659 197.976 252.849 198.096C253.455 198.482 256.835 198.029 258.447 198.462C263.307 199.753 265.147 205.023 265.741 209.535C265.839 210.274 265.213 211.199 265.33 211.731C265.415 212.124 268.103 213.94 268.879 214.998C271.828 219.011 271.509 223.19 269.108 227.329C268.579 228.241 266.987 228.341 267.059 230.404C267.894 232.433 269.858 233.598 270.517 235.88C271.992 241.011 269.003 247.107 264.665 249.662C269.434 243.107 273.009 236.446 264.678 230.87C269.382 226.777 272.044 220.708 267.516 215.245C266.681 214.233 264.749 213.421 264.384 212.656C263.131 210.061 265.31 207.113 262.401 203.113C258.597 197.883 254.578 200.558 252.183 199.074C251.491 198.648 251.354 197.124 250.761 196.452C250.258 195.887 249.436 195.966 249.358 195.88C249.182 195.687 248.986 195.474 248.79 195.301C248.745 195.261 249.084 194.616 248.431 194.103C244.517 190.989 237.261 192.872 233.738 195.88C233.171 196.366 233.014 197.604 232.544 197.663C231.481 197.803 228.479 196.645 226.666 197.61C228.303 194.589 230.893 183.722 233.164 181.959C233.803 181.466 235.024 181.486 235.128 181.373C235.545 180.907 234.626 178.651 234.645 177.686C234.697 174.2 242.233 173.201 241.339 169.681C235.389 165.196 245.019 161.203 241.13 155.986C238.129 157.576 238.266 159.08 237.137 161.762C236.837 162.481 237.151 163.166 236.035 162.913C235.304 162.554 229.641 149.531 229.217 147.887C227.931 142.943 228.734 138.012 228.395 133.108C227.879 125.721 225.341 125.309 219.58 121.855L218.242 117.376C219.573 113.59 221.753 107.242 220.728 103.329C220.448 102.251 219.723 101.765 219.293 101.04C219.064 100.654 217.968 99.2096 217.59 98.7238C216.592 97.4461 216.618 96.3082 214.184 95.8291V94.6712C216.265 95.1104 214.706 92.5351 213.258 92.5018C211.555 92.4619 211.463 93.6397 210.785 94.0922C210.25 94.4449 209.532 94.8442 209.082 95.2501C208.312 95.9422 207.542 96.3614 206.811 97.2731C205.585 98.8103 202.381 105.398 202.277 107.148C202.12 109.79 205.918 112.672 206.113 115.3C206.198 116.405 204.384 118.84 205.076 120.664C202.89 120.997 199.902 121.136 198.095 122.507C192.934 126.433 196.046 141.073 195.811 146.896C195.517 154.03 193.234 160.711 191.642 167.392C190.754 171.132 191.413 174.732 190.924 178.512L198.864 176.203L200.567 201.643C196.966 200.871 198.088 197.97 193.508 197.57C189.613 197.231 187.812 199.294 186.109 199.287C184.073 199.287 182.162 197.011 178.201 197.63C176.387 197.916 174.665 199.853 173.634 199.886C172.277 199.933 170.959 198.043 169.543 197.717C166.868 197.104 161.779 197.63 159.73 199.64C159.163 200.192 159.274 200.944 159.169 201.064C158.099 202.308 157.525 202.867 156.331 203.959C156.044 204.218 155.418 203.979 154.478 205.236C151.085 209.795 152.286 214.985 151.229 220.149C151.053 220.329 150.805 220.542 150.661 220.728C145.859 223.064 146.981 231.482 148.932 235.501C149.754 237.191 152.351 238.802 152.403 239.048C152.573 239.926 151.803 241.703 151.77 242.967C151.64 247.892 152.697 249.995 157.31 251.825L257.585 251.978C260.078 251.831 262.524 250.9 264.658 249.642C264.541 249.802 264.658 250.414 264.358 250.78C263.301 252.071 259.876 253.042 258.16 253.136H158.862C154.282 253.176 150.563 249.083 150.211 244.558C150.094 242.994 151.366 239.667 151.17 239.314C151.085 239.161 149.408 238.436 148.482 237.105C145.318 232.52 145.233 225.932 147.921 221.121C148.469 220.142 150.596 218.206 150.642 218.006C151.027 216.183 150.498 213.534 150.805 211.338C151.999 202.781 161.335 193.857 170.078 196.592C171.213 196.945 172.199 198.123 173.099 198.196C174.247 198.296 175.95 196.752 177.647 196.492C181.627 195.88 183.701 197.63 186.102 197.637C187.662 197.637 189.182 196.259 190.781 195.993C194.48 195.374 196.855 196.885 199.426 199.327L197.729 177.926C195.191 177.147 194.539 178.691 193.169 179.35C190.474 180.654 191.074 178.665 190.918 178.505L190.931 178.532Z" fill="#3B2F27"/>
<path d="M207.381 100.465C207.257 100.559 206.937 100.372 206.813 100.465C205.697 101.271 206.095 101.124 205.678 102.202C205.443 102.814 205.247 103.267 205.11 103.939C204.79 105.496 203.903 108.584 205.678 109.143C205.795 110.906 206.434 111.752 206.813 113.189C206.859 113.369 206.767 113.588 206.813 113.768C206.898 114.074 207.354 114.267 207.381 114.347C207.55 114.926 207.863 115.392 207.948 116.084C208.039 116.822 207.896 117.641 207.948 118.393L206.826 117.242C205.782 118.945 207.863 120.975 205.684 121.866C205.319 121.833 204.921 121.853 204.549 121.866C204.275 121.88 203.466 122.352 202.846 122.445C201.985 122.578 200.504 122.013 200.008 123.024C196.739 123.849 197.444 128.341 197.17 130.544C197.111 131.016 196.635 131.535 196.602 132.86C196.569 134.011 196.589 135.175 196.602 136.327C196.602 136.979 197.17 137.771 197.17 138.064C197.17 144.479 197.072 150.807 196.034 157.149C196.028 157.189 195.552 157.275 195.467 157.728C195.369 158.253 195.571 158.952 195.467 159.465C195.408 159.764 195.069 160.543 194.899 161.201C194.814 161.534 194.99 162.033 194.899 162.359C194.808 162.685 194.997 163.218 194.899 163.517C194.873 163.59 194.083 163.903 193.907 164.509C192.792 168.348 191.5 170.791 192.635 175.083L193.77 172.774L194.338 175.662C194.984 175.761 195.271 174.57 195.467 174.504C196.047 174.311 197.078 175.016 197.483 174.936C198.024 174.823 198.416 172.401 200.569 173.353C199.284 177.279 200.928 180.353 200.569 184.339C204.229 181.218 210.349 170.791 210.793 166.132C211.028 163.637 209.71 161.634 210.773 159.478C208.614 158.812 208.451 161.201 207.811 161.667C207.426 161.947 206.93 161.707 206.806 161.787C205.991 163.317 205.351 165.307 203.975 166.412C203.557 165.34 205.123 162.379 205.808 161.913C206.213 161.634 206.689 161.86 206.806 161.787C208.131 159.305 208.026 159.711 209.645 157.741C210.767 156.363 210.708 156.104 209.077 156.004C208.712 155.984 208.307 155.971 207.942 156.004V154.846C210.114 155.046 209.481 153.901 210.062 153.715C210.538 153.562 211.041 153.768 211.341 153.695C212 153.522 212.952 153.123 213.044 153.116C214.316 153.01 215.947 153.01 217.193 153.249C218.864 153.569 219.542 156.257 222.113 155.425C222.367 154.207 221.643 153.036 221.552 151.958C221.434 150.627 221.637 149.243 221.552 147.906C220.671 147.779 219.516 148.085 218.714 147.906L222.119 145.596C220.39 145.723 219.216 145.683 217.585 145.011C217.454 144.958 217.461 144.485 217.298 144.439H216.45C216.358 144.771 216.554 145.45 216.45 145.59C215.83 146.395 214.551 146.941 213.611 147.327C213.983 146.262 214.368 145.397 213.044 145.011C213.683 144.146 214.44 142.615 214.747 141.544C215.477 141.038 216.052 140.24 217.011 140.393L217.565 143.587C224.964 146.961 223.196 141.125 224.39 136.739C224.573 136.061 225.454 136.413 225.525 136.34V139.235L226.373 139.82L227.222 139.235C227.169 138.083 227.3 136.912 227.222 135.768C227.137 134.523 226.719 133.944 226.654 133.452C226.289 130.704 227.13 126.797 223.248 125.932C222.902 125.852 221.239 125.839 220.978 125.932C221.382 123.623 219.353 123.73 218.139 122.465C216.567 120.822 217.82 120.203 217.591 118.812C217.559 118.599 215.588 117.92 216.437 116.104C219.686 114.314 218.975 104.638 219.275 101.071C219.705 101.803 220.43 102.289 220.71 103.36C221.728 107.273 219.555 113.621 218.224 117.408L219.562 121.886C225.323 125.347 227.861 125.759 228.376 133.139C228.716 138.044 227.913 142.968 229.199 147.919C229.623 149.563 235.286 162.585 236.017 162.945C237.139 163.204 236.819 162.512 237.119 161.794C238.248 159.112 238.111 157.608 241.112 156.017C245.001 161.235 235.371 165.227 241.321 169.712C242.215 173.226 234.679 174.224 234.627 177.718C234.614 178.683 235.534 180.939 235.11 181.405C235.012 181.518 233.785 181.491 233.146 181.99C230.869 183.754 228.279 194.614 226.647 197.642C228.461 196.683 231.456 197.835 232.526 197.695C232.996 197.635 233.146 196.397 233.72 195.911C237.243 192.904 244.505 191.02 248.413 194.135C249.066 194.654 248.727 195.293 248.772 195.332C244.303 193.396 240.538 192.777 236.212 195.539C234.947 196.344 232.963 199.225 232.617 199.252C232.206 199.279 231.182 198.194 229.831 198.24C229.492 198.254 226.236 199.259 226.086 199.385C224.383 199.651 224.905 198.72 225.193 197.608C225.832 195.12 227.398 192.018 228.357 189.556C228.964 187.999 229.316 186.582 230.06 184.931C230.549 183.84 230.641 182.582 231.489 181.471C232.213 180.533 233.329 180.653 233.459 179.734L230.627 178.57C230.412 178.769 229.779 183.421 229.492 184.352C229.062 185.717 228.311 187.467 227.789 188.977C226.928 191.493 225.577 195.931 224.514 198.074C223.842 199.425 223.705 198.726 222.687 198.227C222.596 197.156 222.256 196.317 220.991 196.497C220.325 199.724 220.266 203.092 219.855 206.326C219.347 210.318 218.224 215.076 218.72 219.049C218.746 219.249 218.681 219.455 218.72 219.628C218.772 219.841 219.092 220.061 219.288 220.207C216.932 221.438 218.055 223.035 217.311 224.286C216.998 224.812 215.934 224.759 215.882 224.839H214.747L214.427 224.313L210.773 224.839L210.258 225.178L210.206 227.154C209.971 227.108 209.116 227.114 209.07 227.154V224.839C208.588 223.9 207.146 224.293 206.232 224.26C206.304 224.08 206.154 223.814 206.232 223.681C208.855 223.534 211.563 223.88 214.173 223.681C214.544 223.654 215.001 223.754 215.308 223.681C215.595 223.608 215.712 223.315 215.875 223.102C216.313 222.523 216.711 222.423 216.443 221.372C214.329 221.531 209.233 219.621 208.62 217.492C208.013 215.383 208.464 208.475 208.503 205.76C208.64 195.745 209.514 185.71 209.631 175.695C208.281 175.375 208.712 175.928 208.366 176.447C207.354 177.957 201.424 186.482 201.267 187.107C200.536 189.982 202.083 196.89 202.317 200.29C202.402 201.574 201.691 202.739 201.691 202.872C201.313 202.872 200.934 202.865 200.556 202.872C195.865 202.952 198.168 201.381 196.021 199.691C194.097 198.174 190.482 198.201 188.42 199.472C187.376 200.11 186.959 201.648 186.639 201.741C185.314 202.127 184.779 200.157 182.972 199.405C179.827 198.094 175.475 198.447 174.451 202.293C173.773 202.766 171.124 199.751 169.864 199.179C165.571 197.216 162.929 199.332 159.145 201.142C159.249 201.015 159.145 200.27 159.706 199.718C161.754 197.708 166.843 197.182 169.519 197.795C170.941 198.121 172.252 200.011 173.609 199.964C174.647 199.931 176.363 197.994 178.177 197.708C182.137 197.083 184.042 199.358 186.084 199.365C187.794 199.365 189.588 197.309 193.483 197.648C198.063 198.041 196.941 200.949 200.543 201.721L198.84 176.281L190.9 178.59C191.389 174.803 190.73 171.21 191.617 167.47C193.209 160.789 195.493 154.108 195.786 146.974C196.028 141.151 192.909 126.511 198.07 122.585C199.877 121.214 202.859 121.068 205.051 120.742C204.353 118.918 206.167 116.483 206.089 115.378C205.893 112.743 202.096 109.868 202.252 107.226C202.357 105.476 205.56 98.8883 206.787 97.3511C207.518 96.4394 208.287 96.0202 209.057 95.3281L207.354 100.532L207.381 100.465ZM223.829 145.57C223.816 145.61 223.327 145.61 223.261 146.149C223.072 147.679 225.251 152.404 225.995 154.061C226.778 155.805 229.982 162.446 230.921 163.51C231.861 164.575 234.353 163.69 233.603 161.368C231.495 154.846 226.771 148.977 226.961 141.511L224.964 140.945C225.206 142.702 224.266 144.073 223.829 145.576V145.57ZM211.354 154.82C210.473 155.665 210.799 156.111 211.354 157.135L212.202 157.721L213.05 157.135V156.556H217.024L216.985 154.866C215.386 154.36 212.705 153.522 211.347 154.82H211.354ZM225.525 169.859C225.754 167.064 224.592 163.85 223.359 161.374C222.583 159.817 220.71 156.197 218.727 156.563L221.656 160.216C222.85 162.659 223.405 165.367 224.331 167.902C224.599 168.641 224.455 169.679 225.525 169.859ZM213.05 158.872C212.594 158.992 211.876 158.772 211.347 158.872L211.915 162.918C212.763 163.291 213.416 162.359 213.611 162.339C214.884 162.18 217.552 162.971 217.585 160.922C217.631 157.581 214.916 158.367 213.044 158.866L213.05 158.872ZM222.126 185.47C222.028 182.19 224.044 178.969 224.338 175.861C224.768 171.303 221.552 162.566 218.727 158.866C219.294 162.193 218.087 165.853 218.133 168.954C218.179 171.935 219.934 181.824 220.925 184.665C221.213 185.484 220.756 185.637 222.119 185.47H222.126ZM227.235 162.339V175.349C227.235 178.729 222.544 187.793 222.674 193.263C222.7 194.447 222.309 194.953 223.822 194.72C224.175 190.235 227.515 185.018 228.142 180.846C228.363 179.362 227.391 177.052 227.881 176.287C228.011 176.081 229.433 175.881 230.053 175.329C233.166 172.541 230.021 164.775 227.241 162.333L227.235 162.339ZM217.024 164.076H213.057C210.865 178.177 210.734 192.584 210.219 206.865L215.889 206.286L215.295 191.519L217.024 164.076ZM236.31 173.326C240.545 171.449 234.875 161.035 232.317 166.092L232.905 169.273L233.537 168.229C235.325 166.931 237.478 171.649 236.31 173.326ZM218.153 206.286L220.925 189.783L217.872 178.523L216.998 200.816L218.153 206.279V206.286ZM215.889 209.759C215.954 207.437 213.422 208.043 211.922 208.036C211.948 209.087 215.725 209.913 215.889 209.759ZM214.186 211.49L211.354 209.759V212.069L214.186 211.483V211.49ZM216.456 212.075L213.624 212.94L216.456 214.384V212.075ZM215.882 215.549L209.651 213.812V216.121C211.06 216.095 212.489 216.181 213.912 216.121C214.597 216.095 216.019 216.554 215.882 215.549ZM217.024 219.588L216.13 217.339L211.354 217.865C211.713 219.269 216.554 220.041 217.017 219.588H217.024Z" fill="#1A1612"/>
<path d="M214.186 94.6833V95.8411C213.52 95.7081 212.633 95.921 211.915 95.8411C212.717 97.3185 215.804 100.133 217.585 98.7292C217.963 99.2083 219.059 100.659 219.288 101.045C218.994 104.612 219.705 114.288 216.45 116.078C215.895 116.384 212.848 118.021 212.515 118.134C211.347 118.54 210.082 117.987 209.077 118.966C207.694 120.317 209.031 122.093 209.644 123.591C210.48 124.076 211.093 124.136 211.915 125.327C211.726 125.294 211.51 125.374 211.347 125.327C211.041 125.241 210.571 125.387 210.212 125.327L209.644 124.748C209.573 124.396 209.749 123.843 209.644 123.591C208.333 122.832 207.132 121.98 205.677 121.854C207.857 120.962 205.775 118.932 206.819 117.229L207.942 118.38C207.896 117.628 208.039 116.81 207.942 116.071C209.821 117.442 211.426 117.435 213.344 116.084L217.578 109.137L215.321 109.709C216.084 101.99 212.391 104.499 207.165 103.966C206.206 104.246 206.467 105.138 206.239 105.663C205.625 107.094 205.56 107.46 205.671 109.13C203.896 108.571 204.79 105.484 205.103 103.926C207.7 101.737 211.595 103.154 214.74 102.762C214.844 101.923 213.233 101.677 212.711 101.657C210.695 101.571 207.726 101.923 205.664 102.19C206.082 101.118 205.677 101.265 206.8 100.453C208.509 101.983 211.204 100.453 213.063 100.706C215.608 101.045 216.241 103.221 217.265 103.381C218.505 103.567 219.47 102.955 218.661 101.664C218.426 101.291 211.654 99.5876 211.054 97.5979C210.01 98.8224 208.633 99.5411 207.367 100.459L209.07 95.2555C209.52 94.8496 210.238 94.4503 210.773 94.0977C211.413 95.1225 213.109 94.5901 214.179 94.6766L214.186 94.6833Z" fill="#6C4327"/>
<path d="M214.186 95.839C216.62 96.3115 216.593 97.4494 217.592 98.7338C215.811 100.138 212.724 97.323 211.922 95.8457C212.64 95.9256 213.527 95.7126 214.192 95.8457L214.186 95.839Z" fill="#CEB07B"/>
<path d="M210.786 94.1031C211.471 93.6506 211.556 92.4728 213.259 92.5127C214.707 92.546 216.266 95.1146 214.185 94.6821C213.115 94.5956 211.419 95.1279 210.779 94.1031H210.786Z" fill="#CEB07B"/>
<path d="M223.262 127.641C223.497 129.577 224.182 134.042 226.668 133.423C226.733 133.916 227.151 134.495 227.236 135.739C225.043 134.129 225.709 136.138 225.533 136.318C225.461 136.391 224.58 136.039 224.398 136.717C223.21 141.103 224.972 146.939 217.573 143.565L217.018 140.371C216.059 140.218 215.478 141.016 214.754 141.522C212.418 143.152 210.631 145.681 208.517 147.591L209.652 148.456C207.845 151.224 206.546 151.111 203.525 152.356C202.671 152.708 201.986 152.01 202.279 153.653L210.22 150.765C210.141 150.878 210.455 151.351 209.854 151.963C209.097 152.735 206.853 153.66 205.685 153.667C205.476 154.186 207.825 154.804 207.949 154.818V155.976C207.584 156.009 207.062 155.882 206.814 155.976V154.824H205.685V156.262L206.246 156.555C204.354 158.351 199.311 167.381 200.583 169.857L202.26 170.143C202.279 170.928 200.739 172.818 200.576 173.331C198.423 172.379 198.032 174.808 197.49 174.914C197.079 175.001 196.055 174.296 195.474 174.482C195.057 171.873 196.414 172.725 198.058 173.178L198.593 172.772C199.878 168.393 200.877 163.555 194.907 163.495C195.004 163.202 194.815 162.67 194.907 162.337L199.441 163.495L199.454 160.94C199.35 160.195 195.644 160.554 194.907 161.186C195.07 160.534 195.409 159.749 195.474 159.449C197.073 158.884 198.462 158.551 200.009 159.449C200.661 154.425 202.123 149.474 202.286 144.41C205.026 144.863 204.165 142.48 205.085 141.196C205.9 140.058 209.032 138.847 209.659 136.897C209.841 136.924 210.037 136.877 210.226 136.897H210.794C210.291 137.602 209.848 139.366 208.523 140.943C208.204 141.322 207.147 141.429 207.381 142.38L208.523 142.094C208.354 142.427 208.699 143.152 207.949 144.091C207.14 145.102 203.643 146.872 203.127 147.87C202.795 148.523 202.377 150.752 203.689 150.186C205.202 149.534 211.942 142.62 213.345 140.943C214.656 139.379 215.903 137.456 217.025 135.733C217.821 134.508 218.799 133.523 219.289 131.966L218.16 131.687C217.749 129.757 219.321 129.091 219.863 128.22L223.269 127.641H223.262Z" fill="#292F20"/>
<path d="M217.024 164.074L215.295 191.518L215.889 206.284L210.219 206.863C210.734 192.582 210.858 178.175 213.057 164.074H217.024Z" fill="#2D311D"/>
<path d="M201.711 202.818C201.711 202.685 202.422 201.527 202.337 200.236C202.102 196.829 200.55 189.928 201.287 187.054C201.443 186.428 207.374 177.904 208.386 176.393C208.731 175.874 208.301 175.322 209.651 175.641C209.527 185.656 208.653 195.691 208.523 205.706L203.212 206.245C202.559 206.019 201.73 203.47 201.717 202.812L201.711 202.818Z" fill="#292F20"/>
<path d="M207.947 155.975C208.306 155.942 208.717 155.955 209.083 155.975L209.65 157.712C208.032 159.688 208.137 159.276 206.812 161.758C206.695 161.831 206.218 161.605 205.814 161.884C205.129 162.35 203.563 165.311 203.98 166.383C205.357 165.278 205.996 163.282 206.812 161.758C206.936 161.678 207.432 161.918 207.817 161.638C208.463 161.172 208.626 158.783 210.779 159.449C209.715 161.605 211.033 163.608 210.799 166.103C210.355 170.762 204.235 181.189 200.575 184.31C200.933 180.324 199.283 177.25 200.575 173.324C200.744 172.811 202.277 170.921 202.258 170.136L200.581 169.85C199.315 167.381 204.359 158.344 206.244 156.547C206.414 156.388 206.766 155.988 206.812 155.969C207.06 155.875 207.582 156.002 207.947 155.969V155.975ZM203.406 167.547H202.277V169.278L203.4 168.399V167.541L203.406 167.547Z" fill="#7A5D4F"/>
<path d="M197.169 138.051L202.193 138.71C202.33 140.593 202.33 142.529 202.271 144.413C202.108 149.477 200.646 154.428 199.994 159.452C198.454 158.553 197.058 158.886 195.459 159.452C195.564 158.939 195.361 158.241 195.459 157.715L196.027 157.136C197.064 150.794 197.162 144.472 197.162 138.051H197.169Z" fill="#CEB07B"/>
<path d="M222.127 185.468C220.763 185.634 221.22 185.481 220.933 184.663C219.935 181.821 218.186 171.933 218.14 168.952C218.088 165.851 219.302 162.191 218.734 158.863C221.559 162.557 224.776 171.294 224.345 175.859C224.052 178.967 222.029 182.194 222.133 185.468H222.127Z" fill="#7A5D4F"/>
<path d="M206.244 105.67C206.472 105.144 206.212 104.252 207.171 103.973C212.397 104.505 216.09 101.99 215.326 109.716L217.584 109.143L213.349 116.091C211.431 117.448 209.826 117.448 207.947 116.077C207.862 115.385 207.556 114.919 207.379 114.34L206.812 113.761C206.766 113.582 206.857 113.362 206.812 113.183L209.082 112.025C209.128 109.755 209.245 107.786 207.379 106.242C207.092 106.002 206.583 105.889 206.244 105.663V105.67Z" fill="#EED8A6"/>
<path d="M223.262 146.148L223.829 145.569C224.267 144.065 225.213 142.694 224.965 140.938L226.961 141.503C226.772 148.97 231.502 154.832 233.603 161.36C234.354 163.683 231.881 164.594 230.922 163.503C229.962 162.412 226.779 155.797 225.996 154.054C225.213 152.31 223.073 147.672 223.262 146.141V146.148Z" fill="#B49586"/>
<path d="M216.457 116.074C215.609 117.891 217.573 118.57 217.612 118.783C217.84 120.18 216.588 120.799 218.16 122.436L216.725 128.205C216.027 132.025 212.36 134.68 210.787 136.896H210.22C210.161 134.833 208.915 131.819 207.949 129.956C210.396 129.303 210.207 132.511 210.794 134.002C216.255 131.999 211.786 128.864 211.355 125.331C211.518 125.377 211.733 125.297 211.923 125.331C212.379 125.417 214.891 127.087 214.754 125.051L209.084 118.969C210.089 117.991 211.355 118.543 212.523 118.137C212.856 118.024 215.903 116.387 216.457 116.081V116.074ZM214.2 129.377L215.322 126.489L213.058 127.074L214.2 129.383V129.377Z" fill="#583C26"/>
<path d="M218.158 122.438C219.371 123.709 221.394 123.595 220.996 125.905C219.965 126.264 220.187 127.688 219.861 128.22C219.319 129.099 217.747 129.757 218.158 131.687C217.825 131.907 217.284 132.02 217.023 132.266C216.82 132.453 216.631 132.626 216.455 132.845C216.109 133.271 215.848 133.943 215.32 134.582L214.184 135.74V136.319C213.969 136.572 207.673 142.421 211.059 140.937C212.097 140.485 214.837 137.024 215.32 135.74C215.665 135.667 216.122 135.101 216.67 135.261L217.023 135.74C215.9 137.463 214.654 139.387 213.343 140.95C211.94 142.621 205.2 149.541 203.686 150.194C202.368 150.759 202.786 148.537 203.125 147.878C203.634 146.88 207.138 145.109 207.947 144.098C208.697 143.16 208.345 142.434 208.521 142.102C208.606 141.935 210.015 141.33 209.656 140.95H208.521C209.846 139.36 210.289 137.603 210.792 136.898C212.364 134.682 216.031 132.027 216.729 128.207L218.164 122.438H218.158Z" fill="#AA6F49"/>
<path d="M194.905 163.496C200.869 163.556 199.87 168.394 198.592 172.773L198.057 173.178C196.419 172.726 195.055 171.881 195.473 174.483C195.277 174.549 194.99 175.74 194.344 175.641L193.777 172.753L192.641 175.062C191.513 170.77 192.804 168.334 193.914 164.488C194.09 163.882 194.879 163.563 194.905 163.496Z" fill="#9A7D62"/>
<path d="M204.55 128.799L204.047 134.516C206.331 135.307 207.147 136.572 209.652 136.898C209.032 138.848 205.894 140.059 205.078 141.197C204.158 142.481 205.02 144.863 202.279 144.411C202.338 142.528 202.338 140.591 202.201 138.708L197.177 138.049C197.177 137.756 196.616 136.964 196.609 136.312C198.86 135.913 200.746 137.004 202.847 137.463C203.193 137.064 202.553 132.552 202.286 131.681C202.553 131.607 202.808 131.368 202.853 131.102C203.043 129.977 202.879 129.478 203.421 128.207H203.989L204.556 128.786L204.55 128.799Z" fill="#583C26"/>
<path d="M228.368 189.524C227.416 191.993 225.843 195.087 225.204 197.576C224.917 198.688 224.395 199.619 226.098 199.353C225.093 200.191 223.827 206.46 223.26 208.031C221.948 211.651 220.337 215.517 218.725 219.017C218.229 215.044 219.352 210.286 219.86 206.294C220.976 204.723 222.849 199.985 222.699 198.195C223.716 198.694 223.853 199.393 224.526 198.042C225.596 195.899 226.94 191.461 227.801 188.945L228.368 189.524Z" fill="#583C26"/>
<path d="M218.153 206.283L216.998 200.82L217.872 178.527L220.926 189.787L218.153 206.283Z" fill="#3B2F27"/>
<path d="M221.559 151.932C221.657 153.011 222.375 154.182 222.12 155.399C219.543 156.231 218.871 153.543 217.201 153.223C215.955 152.984 214.324 152.984 213.051 153.09L211.348 153.669C211.048 153.749 210.546 153.536 210.069 153.689C209.489 153.876 210.122 155.027 207.949 154.821C207.825 154.807 205.476 154.195 205.685 153.669C206.853 153.669 209.097 152.738 209.854 151.966C210.454 151.354 210.141 150.881 210.22 150.768C211.1 151.027 211.407 150.462 211.922 150.189C212.588 149.836 212.921 149.104 213.058 149.031C216.203 147.328 219.289 149.876 221.566 151.926L221.559 151.932Z" fill="#C7B698"/>
<path d="M202.846 123.018C203.687 123.291 204.542 125.726 205.116 126.485C204.346 126.851 203.759 127.423 203.413 128.222C202.872 129.493 203.035 129.985 202.846 131.116C202.474 131.09 202.082 131.156 201.71 131.116C201.515 131.096 201.312 131.156 201.143 131.116C200.014 130.857 198.774 130.105 197.176 130.537C197.443 128.335 196.739 123.843 200.014 123.018C200.379 122.925 202.539 122.918 202.852 123.018H202.846Z" fill="#EED8A6"/>
<path d="M205.677 121.858C207.138 121.984 208.339 122.836 209.644 123.595C209.748 123.848 209.572 124.4 209.644 124.753L210.212 125.332C210.57 125.392 211.04 125.245 211.347 125.332C211.777 128.872 216.247 132.006 210.786 134.003C210.205 132.512 210.388 129.304 207.941 129.957C207.843 129.77 207.497 129.604 207.373 129.378V128.799L207.941 128.22C207.817 128.346 208.026 128.812 208.222 128.799C208.841 128.759 208.202 127.947 207.941 128.22V127.641L207.373 127.062C206.512 125.199 205.07 123.821 204.535 121.858C204.907 121.845 205.305 121.825 205.67 121.858H205.677Z" fill="#CEB07B"/>
<path d="M202.28 131.686C202.548 132.551 203.194 137.069 202.841 137.469C200.74 137.003 198.861 135.911 196.604 136.317C196.591 135.166 196.571 134.002 196.604 132.85C197.791 132.398 198.803 132.245 200.01 131.693C200.395 131.513 200.851 131.486 201.145 131.114C201.315 131.154 201.517 131.094 201.713 131.114C201.83 131.333 202.234 131.539 202.28 131.693V131.686Z" fill="#C48D66"/>
<path d="M210.22 227.108C211.309 227.321 212.614 228.173 214.187 227.687C214.187 227.747 214.187 228.598 214.187 228.845H210.213C210.689 231.553 209.398 233.782 209.084 236.364H207.949C207.812 233.856 209.672 232.032 209.078 229.424L205.679 230.003C205.783 229.484 205.574 228.785 205.679 228.266C206.612 228.139 207.864 228.505 208.706 228.279C209.339 228.106 209.026 227.168 209.084 227.115C209.124 227.075 209.985 227.068 210.22 227.115V227.108Z" fill="#3B2F27"/>
<path d="M236.311 173.324C237.479 171.654 235.333 166.936 233.538 168.227L232.906 169.272L232.318 166.091C234.876 161.033 240.539 171.448 236.311 173.324Z" fill="#7A5D4F"/>
<path d="M217.025 145.57C217.292 145.69 217.416 145.943 217.592 146.149C217.56 146.722 217.801 146.948 218.16 147.307C218.323 147.474 218.434 147.82 218.728 147.886C219.537 148.059 220.685 147.76 221.566 147.886C221.651 149.224 221.442 150.608 221.566 151.939C219.289 149.896 216.203 147.34 213.058 149.044C212.595 148.798 212.66 148.146 212.49 147.886C212.875 147.713 213.234 147.467 213.626 147.307C214.559 146.921 215.844 146.376 216.464 145.57H217.031H217.025Z" fill="#583C26"/>
<path d="M207.382 100.467C208.648 99.5552 210.025 98.8366 211.068 97.6055C211.675 99.6018 218.448 101.299 218.676 101.671C219.485 102.962 218.519 103.581 217.28 103.388C216.255 103.235 215.623 101.053 213.078 100.713C211.212 100.467 208.524 101.991 206.814 100.46C206.938 100.367 207.258 100.553 207.382 100.46V100.467Z" fill="#BC8C39"/>
<path d="M226.667 133.426C224.181 134.045 223.496 129.58 223.261 127.643C223.196 127.077 223.307 126.479 223.261 125.906C227.143 126.771 226.302 130.671 226.667 133.426Z" fill="#B49586"/>
<path d="M213.618 162.338L213.051 158.871C214.923 158.365 217.638 157.587 217.592 160.927C217.566 162.977 214.891 162.185 213.618 162.345V162.338Z" fill="#2D311D"/>
<path d="M225.527 169.858C224.457 169.678 224.601 168.64 224.333 167.901C223.407 165.366 222.859 162.657 221.658 160.215L218.729 156.562C220.712 156.189 222.585 159.809 223.361 161.373C224.594 163.855 225.755 167.063 225.527 169.858Z" fill="#6C4327"/>
<path d="M222.694 198.191C222.844 199.974 220.971 204.712 219.855 206.289C220.267 203.055 220.325 199.688 220.991 196.46C222.263 196.287 222.596 197.119 222.687 198.191H222.694Z" fill="#94B960"/>
<path d="M214.753 224.793C215.204 226.077 214.244 227.122 214.186 227.688C212.613 228.173 211.302 227.322 210.219 227.109L210.271 225.132L210.786 224.793C211.458 224.573 213.762 224.793 214.753 224.793Z" fill="#B49586"/>
<path d="M207.382 106.248C207.48 107.865 206.951 112.237 209.085 112.031L206.814 113.189C206.442 111.751 205.797 110.906 205.679 109.143C205.568 107.473 205.633 107.107 206.247 105.676C206.58 105.902 207.095 106.015 207.382 106.255V106.248Z" fill="#D5A547"/>
<path d="M209.084 224.793V227.109C209.025 227.162 209.338 228.1 208.705 228.273C207.87 228.506 206.611 228.134 205.678 228.26C205.919 227.062 205.86 226.27 206.245 224.793H209.084Z" fill="#845331"/>
<path d="M207.381 127.063C207.479 127.283 207.772 127.462 207.949 127.642V128.221L207.381 128.8H206.813C206.109 127.602 205.932 127.569 205.11 126.484C204.536 125.726 203.682 123.283 202.84 123.017V122.438C203.453 122.345 204.269 121.873 204.543 121.859C205.078 123.822 206.52 125.2 207.381 127.063Z" fill="#6C4327"/>
<path d="M211.352 154.819C212.702 153.521 215.384 154.36 216.989 154.865L217.028 156.549H213.054C212.395 155.704 212.702 154.446 211.352 154.819Z" fill="#292F20"/>
<path d="M215.884 215.549C216.021 216.554 214.599 216.095 213.914 216.122C212.498 216.182 211.062 216.088 209.646 216.122V213.812L215.884 215.549Z" fill="#6C4327"/>
<path d="M213.051 144.992C212.783 145.351 211.929 146.01 211.348 146.728C211.185 146.935 210.956 147.101 210.78 147.307C210.702 147.401 210.01 147.181 209.645 147.886C209.567 148.039 209.73 148.332 209.645 148.465L208.51 147.6C210.624 145.684 212.411 143.162 214.747 141.531C214.441 142.609 213.69 144.14 213.044 144.998L213.051 144.992Z" fill="#6C4327"/>
<path d="M194.907 161.183C195.644 160.551 199.35 160.192 199.454 160.937L199.441 163.492L194.907 162.334C194.998 162.008 194.822 161.509 194.907 161.176V161.183Z" fill="#AA6F49"/>
<path d="M205.676 102.194C207.738 101.928 210.707 101.575 212.723 101.662C213.245 101.682 214.856 101.928 214.752 102.766C211.607 103.152 207.712 101.742 205.115 103.931C205.252 103.259 205.448 102.806 205.683 102.194H205.676Z" fill="#AA6F49"/>
<path d="M229.5 184.31C229.794 183.378 230.426 178.727 230.635 178.527L233.467 179.692C233.336 180.61 232.221 180.49 231.497 181.429C230.648 182.54 230.557 183.798 230.068 184.889L229.5 184.31Z" fill="#B49586"/>
<path d="M217.025 219.589C216.555 220.042 211.72 219.27 211.361 217.866L216.137 217.34L217.031 219.589H217.025Z" fill="#8B6873"/>
<path d="M201.143 131.117C200.849 131.489 200.392 131.516 200.007 131.696C200.138 131.569 199.962 131.223 199.72 131.123C198.174 130.511 199.068 132.594 200.007 131.696C198.807 132.248 197.796 132.401 196.602 132.853C196.634 131.529 197.11 131.01 197.169 130.538C198.774 130.105 200.014 130.857 201.136 131.117H201.143Z" fill="#6C4327"/>
<path d="M227.234 135.741C227.312 136.885 227.182 138.063 227.234 139.208H225.531V136.313C225.707 136.134 225.042 134.124 227.234 135.734V135.741Z" fill="#845331"/>
<path d="M223.261 125.905C223.307 126.477 223.196 127.076 223.261 127.642L219.855 128.221C220.182 127.695 219.96 126.264 220.991 125.905C221.252 125.812 222.909 125.825 223.261 125.905Z" fill="#583C26"/>
<path d="M217.59 144.992C219.221 145.664 220.395 145.704 222.124 145.578L218.719 147.887C218.425 147.82 218.314 147.474 218.151 147.308C218.203 146.716 217.896 146.516 217.583 146.15C217.407 145.944 217.283 145.691 217.016 145.571L217.583 144.992H217.59Z" fill="#845331"/>
<path d="M213.048 158.871L213.616 162.338C213.42 162.364 212.767 163.289 211.919 162.917L211.352 158.871C211.88 158.771 212.598 158.99 213.054 158.871H213.048Z" fill="#8B6873"/>
<path d="M213.618 147.308C213.227 147.468 212.868 147.714 212.483 147.887C212.209 147.468 211.687 147.122 211.348 146.729C211.928 146.01 212.783 145.358 213.051 144.992C214.369 145.378 213.99 146.243 213.618 147.308Z" fill="#3B2F27"/>
<path d="M216.459 212.074V214.383L213.627 212.939L216.459 212.074Z" fill="#8B6873"/>
<path d="M214.185 223.64C211.575 223.84 208.867 223.494 206.244 223.64L207.066 223.055L214.185 223.64Z" fill="#3B2F27"/>
<path d="M215.889 209.005C215.726 209.092 211.948 208.613 211.922 208.001C213.416 208.001 215.954 207.655 215.889 209.005Z" fill="#8B6873"/>
<path d="M214.183 211.488L211.352 212.067L211.358 209.758L214.183 211.488Z" fill="#583C26"/>
<path d="M211.354 154.819C212.704 154.453 212.398 155.711 213.057 156.556V157.135H211.354C210.799 156.11 210.473 155.671 211.354 154.819Z" fill="#8B6873"/>
<path d="M230.065 184.891C229.328 186.542 228.969 187.959 228.363 189.516L227.795 188.937C228.317 187.42 229.067 185.677 229.498 184.312L230.065 184.891Z" fill="#8B6873"/>
<path d="M214.754 224.791C213.756 224.791 211.453 224.572 210.787 224.791L214.441 224.266L214.761 224.791H214.754Z" fill="#3B2F27"/>
<path d="M202.846 122.438V123.017C202.539 122.918 200.38 122.924 200.008 123.017C200.497 122.006 201.978 122.571 202.846 122.438Z" fill="#EED8A6"/>
<path d="M209.084 224.793H206.246C206.298 224.6 206.187 224.367 206.246 224.214C207.153 224.247 208.595 223.855 209.084 224.793Z" fill="#3B2F27"/>
<path d="M209.082 155.977C210.713 156.07 210.772 156.336 209.65 157.713L209.082 155.977Z" fill="#3B2F27"/>
<path d="M213.048 157.133L212.2 157.718L211.352 157.133H213.048Z" fill="#322115"/>
<path d="M217.59 144.989L217.022 145.568H216.455C216.559 145.428 216.363 144.75 216.455 144.41H217.303C217.46 144.463 217.46 144.936 217.59 144.989Z" fill="#3B2F27"/>
<path d="M227.234 139.207L226.379 139.793L225.531 139.207H227.234Z" fill="#3B2F27"/>
<path d="M213.051 153.09C212.959 153.096 212.013 153.496 211.348 153.669L213.051 153.09Z" fill="#3B2F27"/>
<path d="M223.262 146.149C223.327 145.61 223.816 145.61 223.829 145.57L223.262 146.149Z" fill="#583C26"/>
<path d="M207.382 114.341C207.356 114.261 206.899 114.074 206.814 113.762L207.382 114.341Z" fill="#D5A547"/>
<path d="M215.32 223.641L215.888 223.062C215.725 223.275 215.607 223.568 215.32 223.641Z" fill="#3B2F27"/>
<path d="M195.475 157.712C195.559 157.266 196.036 157.173 196.042 157.133L195.475 157.712Z" fill="#583C26"/>
<path d="M209.083 118.973L214.753 125.055C214.89 127.091 212.378 125.421 211.922 125.334C211.1 124.15 210.493 124.083 209.651 123.598C209.038 122.094 207.7 120.324 209.083 118.973Z" fill="#AA6F49"/>
<path d="M214.184 228.844C214.204 232.703 215.176 233.289 216.455 236.363H209.082C209.402 233.781 210.687 231.552 210.211 228.844H214.184Z" fill="#BF9EAB"/>
<path d="M205.68 230.001L209.079 229.422C209.673 232.024 207.813 233.854 207.95 236.363H201.713C202.933 235.012 205.341 231.691 205.68 230.001Z" fill="#B49586"/>
<path d="M207.947 236.355H216.455C216.475 236.409 217.264 236.602 217.023 236.914L215.887 237.513C210.792 237.513 205.67 237.513 200.574 237.513C200.718 236.861 201.409 236.682 201.709 236.355H207.947Z" fill="#1A1612"/>
<path d="M205.108 126.484C205.924 127.562 206.107 127.602 206.811 128.8C206.948 129.04 207.275 129.199 207.379 129.379C207.503 129.605 207.849 129.772 207.947 129.958C208.912 131.821 210.152 134.836 210.217 136.899C210.028 136.879 209.839 136.925 209.65 136.899C207.144 136.573 206.322 135.308 204.045 134.516L204.547 128.8L203.98 128.221H203.412C203.751 127.423 204.345 126.85 205.115 126.484H205.108Z" fill="#D5A547"/>
<path d="M212.489 147.887C212.652 148.14 212.587 148.798 213.057 149.045C212.92 149.118 212.587 149.843 211.921 150.203C211.98 149.63 211.171 149.497 210.786 149.624L210.218 150.203C210.14 150.369 210.303 150.655 210.218 150.781L202.278 153.67C201.984 152.026 202.67 152.725 203.524 152.372C206.545 151.128 207.844 151.241 209.651 148.472C209.736 148.339 209.573 148.046 209.651 147.893C210.023 148.06 210.336 148.519 210.786 148.472C211.041 148.446 211.236 148.512 211.341 148.186L210.786 147.9V147.321C210.962 147.115 211.191 146.948 211.354 146.742C211.693 147.135 212.215 147.474 212.489 147.9V147.887Z" fill="#845331"/>
<path d="M214.188 136.321V135.742H214.755C214.572 135.948 214.364 136.121 214.188 136.321Z" fill="#583C26"/>
<path d="M218.16 131.686L219.288 131.966C218.799 133.523 217.827 134.508 217.024 135.732L216.672 135.253C216.124 135.093 215.667 135.659 215.322 135.732C215.139 135.772 214.937 135.706 214.754 135.732C214.995 135.466 215.08 134.861 215.322 134.574C215.85 133.936 216.111 133.263 216.457 132.838L217.024 132.259C217.285 132.019 217.827 131.899 218.16 131.68V131.686Z" fill="#583C26"/>
<path d="M208.517 140.945H209.652C210.011 141.331 208.608 141.93 208.517 142.103L207.375 142.389C207.134 141.431 208.197 141.331 208.517 140.952V140.945Z" fill="#583C26"/>
<path d="M206.245 156.554L205.684 156.262V154.824H206.812V155.975C206.773 155.989 206.414 156.395 206.251 156.554H206.245Z" fill="#1A1612"/>
<path d="M203.408 167.551V168.403L202.286 169.281L202.279 167.551H203.408Z" fill="#1A1612"/>
<path d="M209.084 112.029C206.95 112.235 207.479 107.863 207.381 106.246C209.247 107.79 209.129 109.76 209.084 112.029Z" fill="#6C4327"/>
<path d="M214.198 129.379L213.057 127.07L215.314 126.484L214.198 129.379Z" fill="#AA6F49"/>
<path d="M214.755 135.74H214.188L215.323 134.582C215.081 134.868 214.997 135.467 214.755 135.74Z" fill="#3B2F27"/>
<path d="M215.321 135.741C214.839 137.032 212.098 140.486 211.061 140.938C207.675 142.422 213.971 136.573 214.186 136.32C214.356 136.12 214.571 135.947 214.754 135.741C214.936 135.714 215.139 135.781 215.321 135.741Z" fill="#3B2F27"/>
<path d="M216.455 132.845C216.631 132.625 216.82 132.452 217.023 132.266L216.455 132.845Z" fill="#3B2F27"/>
<path d="M202.848 131.116C202.802 131.382 202.548 131.622 202.281 131.695C202.235 131.542 201.83 131.342 201.713 131.116C202.085 131.156 202.47 131.089 202.848 131.116Z" fill="#6C4327"/>
<path d="M211.92 150.194C211.405 150.467 211.098 151.032 210.217 150.773C210.302 150.653 210.139 150.36 210.217 150.194C210.237 150.154 210.746 149.628 210.785 149.615C211.17 149.489 211.979 149.615 211.92 150.194Z" fill="#1A1612"/>
<path d="M207.948 127.641C207.772 127.462 207.479 127.282 207.381 127.062L207.948 127.641Z" fill="#583C26"/>
<path d="M207.946 128.22C208.214 127.948 208.846 128.753 208.227 128.799C208.031 128.813 207.816 128.353 207.946 128.22Z" fill="#583C26"/>
<path d="M207.382 129.38C207.278 129.2 206.951 129.04 206.814 128.801H207.382V129.38Z" fill="#583C26"/>
<path d="M218.16 147.306C217.802 146.947 217.56 146.721 217.593 146.148C217.906 146.514 218.213 146.707 218.16 147.306Z" fill="#1A1612"/>
<path d="M210.788 147.305V148.463C210.337 148.509 210.024 148.05 209.652 147.884C210.018 147.178 210.709 147.398 210.788 147.305Z" fill="#3B2F27"/>
<path d="M200.008 131.687C199.068 132.585 198.174 130.502 199.721 131.115C199.969 131.214 200.138 131.567 200.008 131.687Z" fill="#583C26"/>
<path d="M210.787 148.466V147.887L211.342 148.173C211.237 148.499 211.042 148.432 210.787 148.459V148.466Z" fill="#1A1612"/>
<path d="M210.219 150.192L210.786 149.613C210.747 149.627 210.238 150.152 210.219 150.192Z" fill="#3B2F27"/>
<path d="M159.166 201.092C162.95 199.288 165.586 197.165 169.886 199.129C171.145 199.701 173.787 202.715 174.472 202.243C175.497 198.397 179.849 198.044 182.993 199.355C179.059 205.217 173.122 209.117 168.522 214.387H167.68C169.801 212.032 169.207 207.646 165.703 207.4C159.655 206.981 160.51 216.417 167.113 215.259L148.968 232.9C147.826 229.147 148.276 223.89 150.671 220.756C150.808 220.569 151.056 220.363 151.239 220.177C151.676 219.731 153.157 219.671 153.45 218.64C151.858 213.083 153.816 208.691 156.347 203.98C157.541 202.888 158.115 202.329 159.185 201.085L159.166 201.092Z" fill="#EFE7DE"/>
<path d="M264.663 249.661C262.536 250.912 260.089 251.85 257.591 251.997L157.315 251.844C152.702 250.014 151.645 247.911 151.775 242.986C151.808 241.729 152.578 239.952 152.408 239.067C152.363 238.821 149.759 237.21 148.937 235.52C146.98 231.507 145.864 223.083 150.666 220.747C148.272 223.881 147.822 229.138 148.963 232.891C149.727 235.407 151.769 238.175 154.633 238.102C152.16 242.015 151.26 247.578 156.336 249.661C156.512 249.734 156.721 250.207 156.904 250.24H258.993C267.116 249.388 273.478 233.996 262.399 231.727C261.936 231.081 265.113 227.974 265.798 227.109C266.425 226.323 267.09 226.37 267.788 224.8C269.263 221.486 268.663 218.118 266.105 215.523C265.153 214.558 263.149 213.866 263.058 213.72C261.597 211.364 265.387 207.059 259.567 202.241C258.817 201.622 259.215 201.569 257.865 201.083C256.129 200.464 253.748 199.818 252.195 201.083C251.666 200.996 251.105 201.109 250.766 200.53L249.357 195.879C249.435 195.965 250.257 195.879 250.759 196.451C251.353 197.123 251.49 198.641 252.182 199.073C254.57 200.557 258.595 197.889 262.399 203.112C265.309 207.112 263.13 210.06 264.383 212.655C264.748 213.42 266.679 214.232 267.514 215.244C272.042 220.707 269.38 226.776 264.676 230.868C273.015 236.452 269.433 243.106 264.663 249.661Z" fill="#1A1612"/>
<path d="M156.335 203.98C153.804 208.692 151.846 213.084 153.438 218.64C153.151 219.672 151.67 219.725 151.227 220.178C152.284 215.014 151.083 209.823 154.476 205.265C155.415 204.007 156.048 204.247 156.329 203.987L156.335 203.98Z" fill="#1A1612"/>
<path d="M248.783 195.308C248.979 195.481 249.175 195.694 249.351 195.887L250.76 200.539C251.093 201.118 251.66 201.004 252.189 201.091C253.885 201.364 256.078 200.898 257.859 201.091C259.209 201.577 258.811 201.63 259.562 202.249C259.894 203.846 258.792 203.367 257.78 203.586C255.399 204.099 250.388 205.47 248.359 205.583C246.774 205.669 245.214 204.784 243.407 205.144C242.206 205.383 241.874 206.488 240.536 206.847C238.474 207.406 233.842 207.792 231.487 208.025C229.131 208.258 225.575 208.577 223.266 208.025C223.833 206.461 225.099 200.186 226.104 199.347C226.254 199.221 229.51 198.216 229.849 198.203C231.199 198.156 232.224 199.248 232.635 199.214C232.981 199.188 234.964 196.306 236.23 195.501C240.556 192.739 244.32 193.358 248.79 195.295L248.783 195.308Z" fill="#94B960"/>
<path d="M200.573 202.822C201.376 206.109 201.402 209.829 201.709 213.23C191.68 215.785 182.155 221.774 173.731 227.783C172.12 228.934 168.479 232.714 167.089 233.18C165.7 233.646 164.884 232.262 162.835 233.44C159.651 235.27 161.654 237.512 161.204 239.276C160.565 241.778 155.828 245.957 156.343 249.663C151.267 247.58 152.168 242.017 154.641 238.104C151.776 238.178 149.734 235.409 148.971 232.894L167.115 215.253C160.513 216.411 159.658 206.974 165.706 207.394C169.21 207.64 169.804 212.025 167.683 214.381H168.525C173.125 209.111 179.062 205.211 182.996 199.348C184.804 200.1 185.339 202.07 186.663 201.684C186.983 201.591 187.4 200.054 188.444 199.415C190.506 198.151 194.121 198.117 196.045 199.635C198.192 201.325 195.889 202.902 200.58 202.815L200.573 202.822ZM163.781 209.264C162.366 210.175 163.312 214.667 165.954 213.549C169.699 211.959 166.261 207.673 163.781 209.264Z" fill="#94B960"/>
<path d="M259.56 202.242C265.386 207.053 261.589 211.366 263.05 213.721C263.142 213.874 265.151 214.566 266.097 215.525C268.655 218.12 269.262 221.48 267.781 224.801C267.083 226.372 266.417 226.325 265.791 227.11C259.756 221.74 254.386 218.486 246.217 217.867C241.591 217.514 236.815 217.88 232.333 219.018C232.444 220.828 234.466 221.394 234.59 223.39C234.917 228.474 226.285 228.587 227.211 222.492C222.161 221.6 220.152 226.777 215.878 227.689C215.982 226.984 215.702 225.061 215.878 224.794C215.93 224.721 216.994 224.774 217.307 224.242C218.044 222.991 216.928 221.401 219.284 220.163L218.716 219.584C218.677 219.411 218.742 219.205 218.716 219.005C220.334 215.505 221.939 211.638 223.251 208.018C225.56 208.571 229.09 208.251 231.472 208.018C233.853 207.785 238.466 207.393 240.521 206.84C241.865 206.481 242.198 205.37 243.392 205.137C245.206 204.778 246.759 205.663 248.344 205.576C250.373 205.463 255.384 204.092 257.766 203.58C258.77 203.36 259.88 203.839 259.547 202.242H259.56ZM244.084 206.375C242.276 206.887 241.8 209.482 243.829 210.494C247.698 212.424 248.201 205.21 244.084 206.375ZM229.86 221.401C227.818 222.099 229.051 226.305 231.406 225.866C233.592 225.46 233.847 220.03 229.86 221.401Z" fill="#7EA750"/>
<path d="M201.708 202.822C201.721 203.481 202.55 206.03 203.202 206.256L208.513 205.717C208.474 208.432 208.024 215.346 208.631 217.449C209.244 219.585 214.34 221.495 216.454 221.328C216.715 222.38 216.323 222.48 215.886 223.059L215.319 223.637C215.012 223.711 214.555 223.611 214.183 223.637L207.065 223.052L206.243 223.637C206.165 223.771 206.315 224.037 206.243 224.216C206.184 224.369 206.295 224.602 206.243 224.795C205.858 226.279 205.917 227.071 205.675 228.262C205.571 228.781 205.78 229.48 205.675 229.999C205.336 231.689 202.928 235.01 201.708 236.361C201.415 236.687 200.717 236.867 200.573 237.519C196.704 237.519 192.815 237.459 188.94 237.506C187.981 237.519 186.415 237.133 185.828 238.091L186.669 239.249H233.763L234.605 238.091C234.018 237.133 232.452 237.512 231.493 237.506C226.293 237.452 221.08 237.519 215.886 237.519L217.021 236.92C217.263 236.607 216.473 236.414 216.454 236.361C215.175 233.287 214.203 232.708 214.183 228.841C214.183 228.595 214.183 227.743 214.183 227.683C214.242 227.118 215.201 226.073 214.751 224.789H215.886C215.71 225.048 215.991 226.971 215.886 227.683C215.195 232.355 215.912 232.175 217.589 236.361H235.453C237.672 236.361 235.264 241.505 235.14 242.403C234.814 244.766 235.434 247.787 235.166 250.242C242.8 249.657 251.497 251.028 258.987 250.242H156.904C159.912 250.781 165.425 250.202 168.812 250.242C174.096 250.302 179.407 250.196 184.692 250.242L184.125 236.361H199.725C199.966 236.361 202.831 233.313 203.105 232.867C203.764 231.783 204.847 226.865 204.579 225.774C204.52 225.541 202.609 224.363 202.276 221.901C201.943 219.425 201.956 216.011 201.708 213.223C201.402 209.823 201.376 206.103 200.573 202.815C200.951 202.809 201.33 202.815 201.708 202.815V202.822ZM196.039 240.993C192.646 241.012 189.227 240.979 185.828 240.993V250.242C193.761 250.242 201.715 250.242 209.649 250.242C217.583 250.242 225.536 250.242 233.47 250.242V240.993C221.001 241.052 208.507 240.913 196.039 240.993Z" fill="#3E3C30"/>
<path d="M219.292 220.169C219.097 220.022 218.777 219.803 218.725 219.59L219.292 220.169Z" fill="#583C26"/>
<path d="M265.799 227.109C265.114 227.974 261.936 231.082 262.399 231.728C273.485 233.997 267.117 249.389 258.994 250.24C251.497 251.026 242.8 249.655 235.173 250.24C235.44 247.785 234.82 244.757 235.146 242.401C235.27 241.51 237.678 236.359 235.46 236.359H217.595C215.919 232.18 215.201 232.353 215.892 227.682C220.166 226.77 222.169 221.593 227.226 222.484C226.299 228.58 234.931 228.467 234.605 223.383C234.474 221.386 232.452 220.821 232.347 219.011C236.83 217.873 241.599 217.507 246.232 217.86C254.4 218.478 259.777 221.732 265.805 227.103L265.799 227.109ZM248.626 233.571C244.189 234.888 246.212 241.523 250.075 240.897C255.183 240.079 253.741 232.047 248.626 233.571Z" fill="#5F9645"/>
<path d="M201.707 213.23C201.955 216.019 201.942 219.432 202.274 221.908C198.738 223.006 194.712 223.698 191.483 225.648C190.165 226.446 188.742 228.256 188.09 228.549C183.725 230.499 182.329 230.426 178.186 234.066C173.664 238.045 168.699 243.795 168.81 250.243C165.417 250.203 159.91 250.782 156.903 250.243C156.727 250.21 156.511 249.737 156.335 249.664C155.826 245.957 160.563 241.778 161.196 239.276C161.646 237.513 159.643 235.277 162.827 233.44C164.876 232.262 165.711 233.633 167.081 233.181C168.451 232.728 172.111 228.935 173.723 227.784C182.153 221.768 191.672 215.779 201.7 213.23H201.707ZM186.178 222.52C183.993 223.745 184.058 227.039 186.609 227.651C188.795 226.426 188.729 223.132 186.178 222.52ZM163.499 234.698C161.548 235.37 162.612 239.802 165.013 239.19C167.414 238.578 167.388 233.354 163.499 234.698Z" fill="#7EA750"/>
<path d="M257.857 201.089C256.076 200.896 253.884 201.362 252.188 201.089C253.74 199.825 256.128 200.47 257.857 201.089Z" fill="#7EA750"/>
<path d="M163.782 209.262C166.261 207.672 169.699 211.957 165.954 213.548C163.312 214.666 162.359 210.174 163.782 209.262Z" fill="#EFE7DE"/>
<path d="M244.084 206.374C248.201 205.21 247.699 212.423 243.83 210.493C241.807 209.482 242.277 206.887 244.084 206.374Z" fill="#BED695"/>
<path d="M229.861 221.401C233.848 220.03 233.593 225.46 231.407 225.866C229.052 226.305 227.819 222.1 229.861 221.401Z" fill="#BED695"/>
<path d="M202.277 221.906C202.61 224.368 204.521 225.546 204.58 225.779C204.848 226.871 203.765 231.782 203.106 232.873C202.832 233.319 199.967 236.367 199.726 236.367H184.126L184.693 250.248C179.408 250.195 174.097 250.308 168.813 250.248C168.695 243.8 173.66 238.05 178.188 234.071C182.331 230.431 183.728 230.504 188.093 228.554C188.745 228.261 190.167 226.451 191.485 225.653C194.715 223.703 198.741 223.011 202.277 221.913V221.906Z" fill="#5F9645"/>
<path d="M196.039 240.99C208.507 240.91 221.001 241.05 233.47 240.99V250.24C225.536 250.24 217.583 250.24 209.649 250.24C205.988 247.319 201.428 245.835 197.663 243.093C196.861 242.507 195.973 242.268 196.039 240.99Z" fill="#AA6F49"/>
<path d="M196.039 240.992C195.974 242.269 196.861 242.509 197.664 243.094C201.428 245.843 205.989 247.32 209.649 250.241C201.715 250.241 193.762 250.241 185.828 250.241V240.992C189.221 240.978 192.64 241.011 196.039 240.992Z" fill="#B49586"/>
<path d="M234.606 238.098L233.764 239.256H186.67L185.828 238.098H234.606Z" fill="#CEB07B"/>
<path d="M200.574 237.519C205.669 237.519 210.791 237.519 215.887 237.519C221.08 237.519 226.293 237.453 231.493 237.506C232.453 237.519 234.018 237.14 234.606 238.092H185.828C186.415 237.133 187.981 237.513 188.94 237.506C192.816 237.459 196.705 237.519 200.574 237.519Z" fill="#D4BC80"/>
<path d="M248.626 233.571C253.741 232.047 255.183 240.079 250.074 240.897C246.211 241.516 244.182 234.888 248.626 233.571ZM249.63 234.835C246.799 234.835 247.21 239.267 249.63 239.267C252.051 239.267 252.462 234.835 249.63 234.835Z" fill="#7EA750"/>
<path d="M163.501 234.698C167.39 233.361 167.35 238.598 165.015 239.19C162.679 239.782 161.55 235.364 163.501 234.698Z" fill="#BED695"/>
<path d="M186.179 222.52C188.73 223.132 188.788 226.426 186.609 227.65C184.058 227.038 183.999 223.744 186.179 222.52Z" fill="#BED695"/>
<path d="M249.629 234.836C252.461 234.836 252.049 239.268 249.629 239.268C247.208 239.268 246.797 234.836 249.629 234.836Z" fill="#BED695"/>
</g>
</g>
<defs>
<linearGradient id="paint0_linear_251_97568" x1="254.5" y1="-255" x2="259.326" y2="266.488" gradientUnits="userSpaceOnUse">
<stop offset="0.332725" stop-color="#FAC768"/>
<stop offset="1" stop-color="#F58A39"/>
</linearGradient>
<clipPath id="clip0_251_97568">
<rect width="411" height="620" fill="white"/>
</clipPath>
<clipPath id="clip1_251_97568">
<rect width="411" height="620" fill="white"/>
</clipPath>
</defs>
</svg>
