<svg width="411" height="620" viewBox="0 0 411 620" fill="none" xmlns="http://www.w3.org/2000/svg">
<g clip-path="url(#clip0_251_96392)">
<g clip-path="url(#clip1_251_96392)">
<path d="M137.799 19C119.656 104.047 119.002 88.3026 117.275 108.615C116.499 121.995 119.889 149.455 134.31 159.49C148.731 169.525 117.447 225.345 100.002 252" stroke="#D9D9D9" stroke-width="4" stroke-linecap="round"/>
<path d="M128.42 104.348C163.945 108.953 174.62 108.46 175.517 107.637" stroke="#D9D9D9" stroke-width="3"/>
<path d="M126.402 130.254C163.273 131.57 185.499 130.802 192.002 130.254" stroke="#D9D9D9" stroke-width="3"/>
<path d="M62.8203 158.628C142.213 156.325 168.565 153.831 171.817 152.871" stroke="#D9D9D9" stroke-width="3" stroke-linecap="round"/>
<path d="M91.2236 85.1937C91.3197 84.3708 90.7307 83.6258 89.9078 83.5297C89.085 83.4335 88.34 84.0226 88.2439 84.8454L89.7337 85.0195L91.2236 85.1937ZM86.0332 159.038L87.5315 159.109C88.8771 130.654 89.7741 112.391 90.3487 101.123C90.636 95.4888 90.8426 91.6047 90.9843 89.0702C91.0552 87.8027 91.1097 86.8748 91.15 86.2353C91.1701 85.9153 91.1864 85.6702 91.1993 85.492C91.2058 85.4029 91.2112 85.3329 91.2156 85.2801C91.2178 85.2538 91.2197 85.2332 91.2212 85.2177C91.2219 85.21 91.2225 85.2041 91.2229 85.1998C91.2234 85.1954 91.2236 85.1935 91.2236 85.1937L89.7337 85.0195L88.2439 84.8454C88.1237 85.8732 87.2236 102.11 84.5349 158.967L86.0332 159.038Z" fill="#D9D9D9"/>
<path d="M104.382 116.114C105.204 116.013 105.789 115.265 105.688 114.443C105.588 113.621 104.84 113.036 104.018 113.136L104.2 114.625L104.382 116.114ZM88.7246 114.625L88.6737 116.124C98.3562 116.453 103.13 116.267 104.382 116.114L104.2 114.625L104.018 113.136C103.027 113.257 98.4703 113.455 88.7755 113.126L88.7246 114.625Z" fill="#D9D9D9"/>
<path d="M62.8202 158.626C54.7463 78.4393 75.9402 59.5234 79.9771 50.8879C84.0141 42.2523 93.0972 25.3925 96.4613 11" stroke="#D9D9D9" stroke-width="3"/>
<path d="M253.543 696.531C264.04 585.01 265.318 573.304 264.645 581.391C265.094 563.846 263.905 525.466 255.562 512.307C247.219 499.148 265.318 425.952 275.41 390.999" stroke="#D9D9D9" stroke-width="4"/>
<path d="M323.18 595.372C243.787 597.675 217.435 600.169 214.183 601.129" stroke="#D9D9D9" stroke-width="3" stroke-linecap="round"/>
<path d="M294.776 668.806C294.68 669.629 295.269 670.374 296.092 670.47C296.915 670.566 297.66 669.977 297.756 669.155L296.266 668.98L294.776 668.806ZM299.967 594.962L298.468 594.891C297.123 623.346 296.226 641.609 295.651 652.877C295.364 658.511 295.157 662.395 295.016 664.93C294.945 666.197 294.89 667.125 294.85 667.765C294.83 668.085 294.814 668.33 294.801 668.508C294.794 668.597 294.789 668.667 294.784 668.72C294.782 668.746 294.78 668.767 294.779 668.782C294.778 668.79 294.778 668.796 294.777 668.8C294.777 668.805 294.776 668.807 294.776 668.806L296.266 668.98L297.756 669.155C297.876 668.127 298.776 651.89 301.465 595.033L299.967 594.962Z" fill="#D9D9D9"/>
<path d="M323.18 595.374C331.254 675.561 310.06 694.477 306.023 703.112C301.986 711.748 292.903 728.607 289.539 743" stroke="#D9D9D9" stroke-width="3"/>
<path d="M68.4458 175.656C68.5493 174.556 67.7417 173.581 66.642 173.478C65.5423 173.374 64.5669 174.182 64.4634 175.281L66.4546 175.469L68.4458 175.656ZM55.353 290.609L57.3524 290.66L53.3599 290.443L55.353 290.609ZM66.4546 175.469L64.4634 175.281C59.2154 231.042 56.2721 261.846 54.7249 277.698C53.9508 285.629 53.5275 289.805 53.34 291.492C53.2922 291.923 53.2631 292.159 53.2493 292.253C53.2456 292.279 53.2472 292.265 53.2535 292.232C53.2553 292.223 53.2672 292.161 53.2908 292.08C53.3006 292.047 53.3311 291.943 53.3885 291.816C53.4207 291.749 53.5138 291.583 53.5775 291.487C53.6956 291.337 54.0895 290.987 54.3828 290.823C54.8877 290.671 55.922 290.777 56.3804 291.025C56.631 291.24 56.9435 291.652 57.0287 291.818C57.1499 292.086 57.1802 292.318 57.1844 292.346C57.2035 292.475 57.2046 292.575 57.2047 292.582C57.2057 292.629 57.2041 292.655 57.2049 292.633C57.2117 292.454 57.2601 291.809 57.3461 290.775L55.353 290.609L53.3599 290.443C53.2777 291.431 53.2189 292.189 53.2078 292.482C53.2064 292.519 53.204 292.59 53.2056 292.666C53.206 292.687 53.2077 292.798 53.2279 292.934C53.2326 292.966 53.2635 293.201 53.3854 293.47C53.471 293.637 53.7838 294.049 54.0349 294.265C54.4936 294.513 55.5283 294.619 56.0337 294.467C56.3275 294.302 56.7219 293.952 56.8404 293.801C56.9046 293.705 56.9983 293.538 57.031 293.469C57.0895 293.34 57.1212 293.233 57.1322 293.195C57.1583 293.105 57.1732 293.03 57.1783 293.004C57.1913 292.938 57.201 292.875 57.2072 292.832C57.2326 292.659 57.2688 292.354 57.3155 291.934C57.5066 290.215 57.9326 286.011 58.706 278.086C60.2539 262.227 63.1977 231.417 68.4458 175.656L66.4546 175.469ZM55.353 290.609L53.3537 290.558C53.1278 299.393 53.3136 313.457 54.6068 326.986C55.2534 333.751 56.1802 340.419 57.4822 346.25C58.775 352.041 60.4737 357.178 62.747 360.764L64.4361 359.693L66.1252 358.622C64.2271 355.628 62.6486 351.034 61.3861 345.379C60.1327 339.765 59.2261 333.274 58.5887 326.606C57.3139 313.269 57.1297 299.37 57.3524 290.66L55.353 290.609ZM64.4361 359.693L62.747 360.764C63.5241 361.99 64.123 364.174 64.3998 367.42C64.6712 370.603 64.6157 374.563 64.2792 379.137C63.6064 388.28 61.8278 399.667 59.4623 411.791C54.7336 436.029 47.702 463.006 42.6664 480.447L44.5879 481.001L46.5094 481.556C51.5661 464.043 58.6301 436.946 63.3882 412.557C65.7661 400.369 67.5787 388.805 68.2684 379.43C68.6131 374.746 68.6816 370.555 68.3853 367.08C68.0944 363.668 67.4339 360.686 66.1252 358.622L64.4361 359.693Z" fill="#D9D9D9"/>
<path d="M62.418 222.348C97.943 226.953 108.618 226.46 109.515 225.637" stroke="#D9D9D9" stroke-width="3"/>
<path d="M60.4004 248.254C97.271 249.57 119.497 248.802 126.001 248.254" stroke="#D9D9D9" stroke-width="3"/>
<path d="M-3.18164 276.628C76.2113 274.325 102.564 271.831 105.815 270.871" stroke="#D9D9D9" stroke-width="3" stroke-linecap="round"/>
<path d="M25.2216 203.194C25.3178 202.371 24.7287 201.626 23.9059 201.53C23.0831 201.434 22.3381 202.023 22.2419 202.845L23.7318 203.02L25.2216 203.194ZM20.0312 277.038L21.5296 277.109C22.8752 248.654 23.7722 230.391 24.3467 219.123C24.634 213.489 24.8407 209.605 24.9824 207.07C25.0533 205.803 25.1078 204.875 25.148 204.235C25.1681 203.915 25.1845 203.67 25.1974 203.492C25.2038 203.403 25.2093 203.333 25.2137 203.28C25.2159 203.254 25.2177 203.233 25.2192 203.218C25.2199 203.21 25.2205 203.204 25.221 203.2C25.2214 203.195 25.2216 203.193 25.2216 203.194L23.7318 203.02L22.2419 202.845C22.1218 203.873 21.2216 220.11 18.5329 276.967L20.0312 277.038Z" fill="#D9D9D9"/>
<path d="M38.3796 234.114C39.2019 234.013 39.787 233.265 39.6865 232.443C39.586 231.621 38.8379 231.036 38.0156 231.136L38.1976 232.625L38.3796 234.114ZM22.7227 232.625L22.6718 234.124C32.3542 234.453 37.1277 234.267 38.3796 234.114L38.1976 232.625L38.0156 231.136C37.0247 231.257 32.4683 231.455 22.7736 231.126L22.7227 232.625Z" fill="#D9D9D9"/>
<path d="M31.9199 129.341C32.1085 128.535 31.6074 127.728 30.8007 127.539C29.994 127.351 29.1872 127.852 28.9987 128.659L30.4593 129L31.9199 129.341ZM-3.18179 276.626L-1.68933 276.476C-5.71247 236.519 -2.43058 211.952 2.29077 196.36C4.65014 188.568 7.37655 182.992 9.7576 178.834C10.9522 176.748 12.0608 175.017 13.015 173.51C13.9525 172.03 14.7812 170.706 15.334 169.523L13.9752 168.888L12.6163 168.253C12.1599 169.229 11.4432 170.385 10.4805 171.905C9.53455 173.399 8.38817 175.189 7.15425 177.343C4.67837 181.667 1.854 187.451 -0.580486 195.491C-5.44685 211.562 -8.72497 236.546 -4.67424 276.776L-3.18179 276.626ZM13.9752 168.888L15.334 169.523C19.3056 161.027 28.5088 143.935 31.9199 129.341L30.4593 129L28.9987 128.659C25.6816 142.85 16.7186 159.477 12.6163 168.253L13.9752 168.888Z" fill="#D9D9D9"/>
<path d="M434.687 243.757C276.932 224.451 260.369 222.062 271.806 223.281C247.022 222.711 192.87 225.916 174.534 243.294C156.198 260.672 52.3317 225.004 2.6906 204.998" stroke="#D9D9D9" stroke-width="4"/>
<path d="M329.195 232.414C325.092 330.607 326.097 360.083 327.113 362.546" stroke="#D9D9D9" stroke-width="3"/>
<path d="M294.789 230.48C300.604 306.02 298.48 351.635 296.691 365" stroke="#D9D9D9" stroke-width="3"/>
<path d="M263.371 154.671C268.831 237.999 273.859 265.612 275.691 269.002" stroke="#D9D9D9" stroke-width="3" stroke-linecap="round"/>
<path d="M351.426 187.191C352.25 187.276 352.987 186.677 353.072 185.853C353.157 185.029 352.558 184.292 351.734 184.207L351.58 185.699L351.426 187.191ZM263.275 182.51L263.224 184.009C331.174 186.278 350.349 187.08 351.426 187.191L351.58 185.699L351.734 184.207C350.52 184.082 331.164 183.276 263.325 181.01L263.275 182.51Z" fill="#D9D9D9"/>
<path d="M315.042 203.746C315.153 204.567 315.909 205.142 316.73 205.031C317.551 204.919 318.126 204.163 318.014 203.342L316.528 203.544L315.042 203.746ZM316.266 184.988L314.766 184.959C314.538 196.576 314.842 202.274 315.042 203.746L316.528 203.544L318.014 203.342C317.849 202.13 317.537 196.647 317.765 185.018L316.266 184.988Z" fill="#D9D9D9"/>
<path d="M263.371 154.669C358.831 143.636 381.741 168.731 392.104 173.426C402.468 178.121 422.722 188.728 439.937 192.519" stroke="#D9D9D9" stroke-width="3"/>
<path d="M269.443 404.467C136.312 393.761 122.335 392.425 131.988 393.096C111.063 392.854 65.3279 394.926 49.7817 405.152C34.2355 415.378 -53.334 394.909 -95.1754 383.397" stroke="#D9D9D9" stroke-width="4"/>
<path d="M213.488 400.414C208.6 443.09 209.369 455.883 210.365 456.944" stroke="#D9D9D9" stroke-width="3"/>
<path d="M182.568 398.43C181.624 442.664 182.917 469.301 183.681 477.091" stroke="#D9D9D9" stroke-width="3"/>
<path d="M147.664 322.667C151.756 417.829 155.176 449.386 156.376 453.269" stroke="#D9D9D9" stroke-width="3" stroke-linecap="round"/>
<path d="M235.719 355.191C236.543 355.276 237.28 354.677 237.365 353.853C237.45 353.029 236.851 352.292 236.027 352.207L235.873 353.699L235.719 355.191ZM147.567 350.51L147.517 352.009C215.467 354.278 234.642 355.08 235.719 355.191L235.873 353.699L236.027 352.207C234.813 352.082 215.457 351.276 147.618 349.01L147.567 350.51Z" fill="#D9D9D9"/>
<path d="M199.335 371.746C199.446 372.567 200.202 373.142 201.023 373.031C201.844 372.919 202.419 372.163 202.307 371.342L200.821 371.544L199.335 371.746ZM200.559 352.988L199.059 352.959C198.831 364.576 199.135 370.274 199.335 371.746L200.821 371.544L202.307 371.342C202.142 370.13 201.83 364.647 202.058 353.018L200.559 352.988Z" fill="#D9D9D9"/>
<path d="M144.015 323.669C239.475 312.636 262.386 337.731 272.749 342.426C283.112 347.121 303.366 357.728 320.582 361.519" stroke="#D9D9D9" stroke-width="3"/>
<path d="M446.647 407.762C326.579 423.75 313.979 425.669 322.688 424.629C303.775 425.508 262.361 424.475 248.009 413.319C233.657 402.163 155.067 427.916 117.566 442.187" stroke="#D9D9D9" stroke-width="4"/>
<path d="M396.168 413.973C390.517 365.685 390.844 351.146 391.714 349.912" stroke="#D9D9D9" stroke-width="3"/>
<path d="M368.268 417.113C366.138 366.944 366.539 336.678 367.005 327.817" stroke="#D9D9D9" stroke-width="3"/>
<path d="M338.893 504.096C339.848 395.989 342.031 360.079 343.004 355.638" stroke="#D9D9D9" stroke-width="3" stroke-linecap="round"/>
<path d="M417.517 464.857C418.335 464.725 419.105 465.28 419.238 466.098C419.37 466.916 418.815 467.686 417.997 467.818L417.757 466.338L417.517 464.857ZM338.002 472.504L337.892 471.008C368.553 468.742 388.231 467.243 400.372 466.289C406.442 465.812 410.627 465.471 413.357 465.24C414.722 465.124 415.721 465.036 416.409 464.971C416.753 464.939 417.016 464.913 417.207 464.893C417.303 464.883 417.377 464.875 417.432 464.868C417.46 464.865 417.481 464.862 417.497 464.86C417.513 464.858 417.519 464.857 417.517 464.857L417.757 466.338L417.997 467.818C417.4 467.915 412.693 468.33 400.607 469.28C388.46 470.234 368.777 471.734 338.113 474L338.002 472.504Z" fill="#D9D9D9"/>
<path d="M384.053 446.976C384.121 446.151 384.845 445.536 385.671 445.604C386.496 445.672 387.111 446.397 387.043 447.222L385.548 447.099L384.053 446.976ZM385.846 468.164L384.347 468.225C383.807 455.047 383.919 448.608 384.053 446.976L385.548 447.099L387.043 447.222C386.926 448.647 386.804 454.914 387.344 468.103L385.846 468.164Z" fill="#D9D9D9"/>
<path d="M338.892 504.097C425.525 513.864 445.517 484.726 454.752 479.099C463.988 473.472 481.995 460.851 497.452 456.052" stroke="#D9D9D9" stroke-width="3"/>
<path d="M649 347.411V-649.67C649 -649.67 642.114 -715 574.405 -715C506.696 -715 497.515 -649.67 497.515 -649.67V-520.082C497.515 -520.082 494.073 -461.178 449.316 -420.481C404.559 -379.783 340.293 -377.642 340.293 -377.642H205.366C205.366 -377.642 117 -380.854 117 -304.815C117 -228.775 205.366 -233.059 205.366 -233.059H489.482C489.482 -233.059 561.782 -233.059 561.782 -160.233C561.782 -87.4061 498.663 -86.3351 498.663 -86.3351H293.694C293.694 -86.3351 227.132 -80.9803 227.132 -14.5796C227.132 51.8211 293.694 51.8211 293.694 51.8211H365.133C466.863 51.8211 472.586 66.6077 472.586 189.977V327.063C472.586 327.063 463.405 394.535 393.401 394.535C323.397 394.535 316.511 327.063 316.511 327.063V232.817C316.511 232.817 315.992 181.41 252.874 181.41C189.755 181.41 189.956 237.101 189.956 237.101V327.063C189.956 396.677 204.118 457.304 308.16 477H494.073C639.819 477 649 347.411 649 347.411Z" stroke="url(#paint0_linear_251_96392)" stroke-width="30"/>
<rect x="69.5" y="215.5" width="161" height="30" rx="15" fill="white"/>
<rect x="69.5" y="215.5" width="161" height="30" rx="15" stroke="#BF4B17" stroke-width="3"/>
<path d="M91.8108 235.692C91.2561 235.692 90.8028 235.543 90.4508 235.244C90.1095 234.935 89.9388 234.513 89.9388 233.98C89.9388 233.447 90.1095 233.031 90.4508 232.732C90.8028 232.423 91.2561 232.268 91.8108 232.268H91.9388V229.548C91.9388 229.004 91.7948 228.583 91.5068 228.284C91.2295 227.985 90.7921 227.836 90.1948 227.836C89.6828 227.836 89.2668 227.953 88.9468 228.188C88.6268 228.423 88.3601 228.711 88.1468 229.052L87.0908 228.14C87.3788 227.66 87.7788 227.271 88.2908 226.972C88.8135 226.673 89.5068 226.524 90.3708 226.524C91.4588 226.524 92.2801 226.78 92.8348 227.292C93.4001 227.804 93.6828 228.529 93.6828 229.468V233.98C93.6828 234.513 93.5068 234.935 93.1548 235.244C92.8135 235.543 92.3655 235.692 91.8108 235.692ZM91.7628 234.796C91.9975 234.796 92.1841 234.721 92.3228 234.572C92.4615 234.423 92.5308 234.225 92.5308 233.98C92.5308 233.735 92.4615 233.537 92.3228 233.388C92.1841 233.239 91.9975 233.164 91.7628 233.164C91.5281 233.164 91.3415 233.239 91.2028 233.388C91.0641 233.537 90.9948 233.735 90.9948 233.98C90.9948 234.225 91.0641 234.423 91.2028 234.572C91.3415 234.721 91.5281 234.796 91.7628 234.796ZM92.2176 225.212C91.1509 225.212 90.3509 225.041 89.8176 224.7C89.2736 224.348 89.0016 223.82 89.0016 223.116C89.0016 222.572 89.1616 222.156 89.4816 221.868C89.7909 221.569 90.1962 221.42 90.6976 221.42C91.1882 221.42 91.5829 221.559 91.8816 221.836C92.1696 222.113 92.3136 222.46 92.3136 222.876C92.3136 223.153 92.2496 223.393 92.1216 223.596C91.9936 223.799 91.8282 223.927 91.6256 223.98V224.012H92.5536C93.1616 224.012 93.6202 223.852 93.9296 223.532C94.2389 223.201 94.3936 222.668 94.3936 221.932V221.74H96.1216V221.932C96.1216 222.529 96.0362 223.036 95.8656 223.452C95.6842 223.857 95.4282 224.193 95.0976 224.46C94.7562 224.727 94.3456 224.919 93.8656 225.036C93.3856 225.153 92.8362 225.212 92.2176 225.212ZM90.6976 223.804C90.9216 223.804 91.0922 223.74 91.2096 223.612C91.3269 223.473 91.3856 223.287 91.3856 223.052C91.3856 222.817 91.3269 222.636 91.2096 222.508C91.0922 222.369 90.9216 222.3 90.6976 222.3C90.4736 222.3 90.3029 222.369 90.1856 222.508C90.0682 222.636 90.0096 222.817 90.0096 223.052C90.0096 223.287 90.0682 223.473 90.1856 223.612C90.3029 223.74 90.4736 223.804 90.6976 223.804ZM96.5888 230.108C96.5888 229.564 96.6848 229.073 96.8768 228.636C97.0795 228.188 97.3621 227.809 97.7248 227.5C98.0981 227.191 98.5461 226.951 99.0688 226.78C99.5915 226.609 100.183 226.524 100.845 226.524C101.506 226.524 102.098 226.609 102.621 226.78C103.143 226.951 103.586 227.191 103.949 227.5C104.322 227.809 104.605 228.188 104.797 228.636C104.999 229.073 105.101 229.564 105.101 230.108V235.5H103.357V230.268C103.357 229.5 103.138 228.903 102.701 228.476C102.263 228.049 101.645 227.836 100.845 227.836C100.045 227.836 99.4261 228.049 98.9888 228.476C98.5515 228.903 98.3328 229.5 98.3328 230.268V234.396H98.9888L99.9328 233.324L100.365 232.924C99.9915 232.839 99.6981 232.668 99.4848 232.412C99.2715 232.145 99.1648 231.809 99.1648 231.404C99.1648 230.924 99.3195 230.545 99.6288 230.268C99.9381 229.98 100.343 229.836 100.845 229.836C101.346 229.836 101.751 229.98 102.061 230.268C102.37 230.545 102.525 230.924 102.525 231.404C102.525 231.681 102.461 231.953 102.333 232.22C102.205 232.487 102.018 232.759 101.773 233.036L99.6288 235.5H96.5888V230.108ZM100.845 232.172C101.069 232.172 101.245 232.103 101.373 231.964C101.501 231.825 101.565 231.639 101.565 231.404C101.565 231.169 101.501 230.983 101.373 230.844C101.245 230.705 101.069 230.636 100.845 230.636C100.621 230.636 100.445 230.705 100.317 230.844C100.189 230.983 100.125 231.169 100.125 231.404C100.125 231.639 100.189 231.825 100.317 231.964C100.445 232.103 100.621 232.172 100.845 232.172ZM113.435 231.436H110.971C110.427 231.436 110 231.548 109.691 231.772C109.392 231.996 109.216 232.311 109.163 232.716C109.44 232.545 109.755 232.46 110.107 232.46C110.576 232.46 110.965 232.604 111.275 232.892C111.595 233.169 111.755 233.559 111.755 234.06C111.755 234.561 111.589 234.961 111.259 235.26C110.939 235.548 110.523 235.692 110.011 235.692C109.317 235.692 108.763 235.484 108.347 235.068C107.931 234.641 107.723 233.996 107.723 233.132C107.723 232.215 107.995 231.516 108.539 231.036C109.083 230.556 109.824 230.316 110.763 230.316H113.435V229.948C113.435 229.255 113.253 228.732 112.891 228.38C112.528 228.017 111.968 227.836 111.211 227.836C110.517 227.836 109.947 227.996 109.499 228.316C109.061 228.625 108.709 229.004 108.443 229.452L107.323 228.476C107.664 227.9 108.155 227.431 108.795 227.068C109.435 226.705 110.283 226.524 111.339 226.524C112.181 226.524 112.896 226.663 113.483 226.94V225.564H115.227V226.428C115.227 227.047 114.992 227.489 114.523 227.756C114.96 228.311 115.179 229.02 115.179 229.884V235.5H113.435V231.436ZM110.027 234.876C110.24 234.876 110.416 234.807 110.555 234.668C110.693 234.519 110.763 234.321 110.763 234.076C110.763 233.831 110.693 233.639 110.555 233.5C110.416 233.351 110.24 233.276 110.027 233.276C109.813 233.276 109.637 233.351 109.499 233.5C109.36 233.639 109.291 233.831 109.291 234.076C109.291 234.321 109.36 234.519 109.499 234.668C109.637 234.807 109.813 234.876 110.027 234.876ZM113.702 225.212C112.635 225.212 111.835 225.041 111.302 224.7C110.758 224.348 110.486 223.82 110.486 223.116C110.486 222.572 110.646 222.156 110.966 221.868C111.275 221.569 111.681 221.42 112.182 221.42C112.673 221.42 113.067 221.559 113.366 221.836C113.654 222.113 113.798 222.46 113.798 222.876C113.798 223.153 113.734 223.393 113.606 223.596C113.478 223.799 113.313 223.927 113.11 223.98V224.012H114.038C114.646 224.012 115.105 223.852 115.414 223.532C115.723 223.201 115.878 222.668 115.878 221.932V221.74H117.606V221.932C117.606 222.529 117.521 223.036 117.35 223.452C117.169 223.857 116.913 224.193 116.582 224.46C116.241 224.727 115.83 224.919 115.35 225.036C114.87 225.153 114.321 225.212 113.702 225.212ZM112.182 223.804C112.406 223.804 112.577 223.74 112.694 223.612C112.811 223.473 112.87 223.287 112.87 223.052C112.87 222.817 112.811 222.636 112.694 222.508C112.577 222.369 112.406 222.3 112.182 222.3C111.958 222.3 111.787 222.369 111.67 222.508C111.553 222.636 111.494 222.817 111.494 223.052C111.494 223.287 111.553 223.473 111.67 223.612C111.787 223.74 111.958 223.804 112.182 223.804ZM125.321 235.692C124.809 235.692 124.382 235.564 124.041 235.308C123.71 235.052 123.518 234.684 123.465 234.204L120.745 235.5H119.081V229.948H118.953C118.398 229.948 117.945 229.799 117.593 229.5C117.251 229.191 117.081 228.769 117.081 228.236C117.081 227.703 117.251 227.287 117.593 226.988C117.945 226.679 118.398 226.524 118.953 226.524C119.507 226.524 119.955 226.679 120.297 226.988C120.649 227.287 120.825 227.703 120.825 228.236V234.124H120.905L124.137 232.588V226.716H125.881V231.468C125.881 231.585 125.87 231.708 125.849 231.836C125.838 231.964 125.795 232.097 125.721 232.236C126.169 232.311 126.526 232.497 126.793 232.796C127.059 233.084 127.193 233.468 127.193 233.948C127.193 234.492 127.017 234.919 126.665 235.228C126.323 235.537 125.875 235.692 125.321 235.692ZM125.321 234.796C125.577 234.796 125.774 234.732 125.913 234.604C126.062 234.476 126.137 234.3 126.137 234.076V233.788C126.137 233.564 126.062 233.388 125.913 233.26C125.774 233.132 125.577 233.068 125.321 233.068C125.065 233.068 124.862 233.132 124.713 233.26C124.574 233.388 124.505 233.564 124.505 233.788V234.076C124.505 234.3 124.574 234.476 124.713 234.604C124.862 234.732 125.065 234.796 125.321 234.796ZM118.905 229.052C119.139 229.052 119.326 228.977 119.465 228.828C119.603 228.679 119.673 228.481 119.673 228.236C119.673 227.991 119.603 227.793 119.465 227.644C119.326 227.495 119.139 227.42 118.905 227.42C118.67 227.42 118.483 227.495 118.345 227.644C118.206 227.793 118.137 227.991 118.137 228.236C118.137 228.481 118.206 228.679 118.345 228.828C118.483 228.977 118.67 229.052 118.905 229.052ZM130.331 234.236V229.948H130.203C129.649 229.948 129.195 229.799 128.843 229.5C128.502 229.191 128.331 228.769 128.331 228.236C128.331 227.703 128.502 227.287 128.843 226.988C129.195 226.679 129.649 226.524 130.203 226.524C130.758 226.524 131.206 226.679 131.547 226.988C131.899 227.287 132.075 227.703 132.075 228.236V234.236H134.123C134.646 234.236 135.051 234.103 135.339 233.836C135.627 233.569 135.771 233.191 135.771 232.7V223.772H137.515V232.684C137.515 233.58 137.233 234.273 136.667 234.764C136.102 235.255 135.318 235.5 134.315 235.5H129.003V234.236H130.331ZM130.155 229.052C130.39 229.052 130.577 228.977 130.715 228.828C130.854 228.679 130.923 228.481 130.923 228.236C130.923 227.991 130.854 227.793 130.715 227.644C130.577 227.495 130.39 227.42 130.155 227.42C129.921 227.42 129.734 227.495 129.595 227.644C129.457 227.793 129.387 227.991 129.387 228.236C129.387 228.481 129.457 228.679 129.595 228.828C129.734 228.977 129.921 229.052 130.155 229.052ZM134.793 221.788L134.585 225.084H133.385L133.177 221.788H134.793ZM144 235.5V229.532C144 228.988 143.861 228.572 143.584 228.284C143.306 227.985 142.88 227.836 142.304 227.836C141.792 227.836 141.376 227.953 141.056 228.188C140.746 228.423 140.485 228.711 140.272 229.052L139.216 228.14C139.504 227.66 139.904 227.271 140.416 226.972C140.928 226.673 141.61 226.524 142.464 226.524C143.53 226.524 144.341 226.775 144.896 227.276C145.461 227.777 145.744 228.497 145.744 229.436V235.5H144ZM151.323 231.74C150.95 231.761 150.651 231.895 150.427 232.14C150.214 232.375 150.107 232.663 150.107 233.004C150.107 233.409 150.241 233.74 150.507 233.996C150.785 234.241 151.19 234.364 151.723 234.364H152.347C152.891 234.364 153.313 234.225 153.611 233.948C153.91 233.671 154.059 233.287 154.059 232.796V226.716H155.803V232.636C155.803 233.649 155.473 234.412 154.811 234.924C154.15 235.436 153.222 235.692 152.027 235.692C150.886 235.692 149.99 235.489 149.339 235.084C148.699 234.679 148.379 234.103 148.379 233.356C148.379 232.887 148.507 232.519 148.763 232.252C149.03 231.985 149.361 231.793 149.755 231.676V231.612C149.254 231.463 148.891 231.217 148.667 230.876C148.454 230.524 148.347 230.103 148.347 229.612V228.764C148.347 228.06 148.539 227.511 148.923 227.116C149.318 226.721 149.835 226.524 150.475 226.524C150.987 226.524 151.403 226.663 151.723 226.94C152.043 227.217 152.203 227.607 152.203 228.108C152.203 228.609 152.043 228.999 151.723 229.276C151.403 229.553 150.987 229.692 150.475 229.692C150.241 229.692 150.033 229.655 149.851 229.58C149.851 229.911 149.915 230.156 150.043 230.316C150.171 230.465 150.454 230.54 150.891 230.54H152.011V231.74H151.323ZM150.475 228.892C150.689 228.892 150.865 228.823 151.003 228.684C151.142 228.545 151.211 228.353 151.211 228.108C151.211 227.863 151.142 227.671 151.003 227.532C150.865 227.393 150.689 227.324 150.475 227.324C150.262 227.324 150.086 227.393 149.947 227.532C149.809 227.671 149.739 227.863 149.739 228.108C149.739 228.353 149.809 228.545 149.947 228.684C150.086 228.823 150.262 228.892 150.475 228.892ZM162.25 235.5V229.532C162.25 228.988 162.111 228.572 161.834 228.284C161.556 227.985 161.13 227.836 160.554 227.836C160.042 227.836 159.626 227.953 159.306 228.188C158.996 228.423 158.735 228.711 158.522 229.052L157.466 228.14C157.754 227.66 158.154 227.271 158.666 226.972C159.178 226.673 159.86 226.524 160.714 226.524C161.78 226.524 162.591 226.775 163.146 227.276C163.711 227.777 163.994 228.497 163.994 229.436V235.5H162.25ZM168.76 235.5L165.912 229.196H167.688L169.992 234.252H171.128V229.948H171C170.446 229.948 169.992 229.799 169.64 229.5C169.299 229.191 169.128 228.769 169.128 228.236C169.128 227.703 169.299 227.287 169.64 226.988C169.992 226.679 170.446 226.524 171 226.524C171.555 226.524 172.003 226.679 172.344 226.988C172.696 227.287 172.872 227.703 172.872 228.236V235.5H168.76ZM170.952 229.052C171.187 229.052 171.374 228.977 171.512 228.828C171.651 228.679 171.72 228.481 171.72 228.236C171.72 227.991 171.651 227.793 171.512 227.644C171.374 227.495 171.187 227.42 170.952 227.42C170.718 227.42 170.531 227.495 170.392 227.644C170.254 227.793 170.184 227.991 170.184 228.236C170.184 228.481 170.254 228.679 170.392 228.828C170.531 228.977 170.718 229.052 170.952 229.052ZM176.846 235.5V229.948H176.718C176.164 229.948 175.71 229.799 175.358 229.5C175.017 229.191 174.846 228.769 174.846 228.236C174.846 227.703 175.017 227.287 175.358 226.988C175.71 226.679 176.164 226.524 176.718 226.524C177.273 226.524 177.721 226.679 178.062 226.988C178.414 227.287 178.59 227.703 178.59 228.236V230.7L181.374 229.356C181.15 229.089 181.038 228.732 181.038 228.284C181.038 227.74 181.209 227.313 181.55 227.004C181.902 226.695 182.356 226.54 182.91 226.54C183.465 226.54 183.913 226.695 184.254 227.004C184.606 227.313 184.782 227.74 184.782 228.284C184.782 228.721 184.67 229.084 184.446 229.372C184.222 229.649 183.924 229.841 183.55 229.948C183.796 230.14 183.918 230.423 183.918 230.796V235.5H182.174V230.316H182.094L178.59 231.98V235.5H176.846ZM182.91 229.132C183.166 229.132 183.364 229.068 183.502 228.94C183.652 228.812 183.726 228.636 183.726 228.412V228.124C183.726 227.9 183.652 227.724 183.502 227.596C183.364 227.468 183.166 227.404 182.91 227.404C182.654 227.404 182.452 227.468 182.302 227.596C182.164 227.724 182.094 227.9 182.094 228.124V228.412C182.094 228.636 182.164 228.812 182.302 228.94C182.452 229.068 182.654 229.132 182.91 229.132ZM176.67 229.052C176.905 229.052 177.092 228.977 177.23 228.828C177.369 228.679 177.438 228.481 177.438 228.236C177.438 227.991 177.369 227.793 177.23 227.644C177.092 227.495 176.905 227.42 176.67 227.42C176.436 227.42 176.249 227.495 176.11 227.644C175.972 227.793 175.902 227.991 175.902 228.236C175.902 228.481 175.972 228.679 176.11 228.828C176.249 228.977 176.436 229.052 176.67 229.052ZM189.448 235.692C188.755 235.692 188.2 235.484 187.784 235.068C187.368 234.641 187.16 233.996 187.16 233.132C187.16 232.215 187.432 231.516 187.976 231.036C188.52 230.556 189.262 230.316 190.2 230.316H192.872V229.948C192.872 229.255 192.691 228.732 192.328 228.38C191.966 228.017 191.406 227.836 190.648 227.836C189.955 227.836 189.384 227.996 188.936 228.316C188.499 228.625 188.147 229.004 187.88 229.452L186.76 228.476C187.102 227.9 187.592 227.431 188.232 227.068C188.872 226.705 189.72 226.524 190.776 226.524C192.014 226.524 192.963 226.812 193.624 227.388C194.286 227.964 194.616 228.796 194.616 229.884V235.5H192.872V231.436H190.408C189.864 231.436 189.438 231.548 189.128 231.772C188.83 231.996 188.654 232.311 188.6 232.716C188.878 232.545 189.192 232.46 189.544 232.46C190.014 232.46 190.403 232.604 190.712 232.892C191.032 233.169 191.192 233.559 191.192 234.06C191.192 234.561 191.027 234.961 190.696 235.26C190.376 235.548 189.96 235.692 189.448 235.692ZM189.464 234.876C189.678 234.876 189.854 234.807 189.992 234.668C190.131 234.519 190.2 234.321 190.2 234.076C190.2 233.831 190.131 233.639 189.992 233.5C189.854 233.351 189.678 233.276 189.464 233.276C189.251 233.276 189.075 233.351 188.936 233.5C188.798 233.639 188.728 233.831 188.728 234.076C188.728 234.321 188.798 234.519 188.936 234.668C189.075 234.807 189.251 234.876 189.464 234.876ZM200.842 235.692C200.287 235.692 199.834 235.543 199.482 235.244C199.141 234.935 198.97 234.513 198.97 233.98C198.97 233.447 199.141 233.031 199.482 232.732C199.834 232.423 200.287 232.268 200.842 232.268H200.97V229.548C200.97 229.004 200.826 228.583 200.538 228.284C200.261 227.985 199.823 227.836 199.226 227.836C198.714 227.836 198.298 227.953 197.978 228.188C197.658 228.423 197.391 228.711 197.178 229.052L196.122 228.14C196.41 227.66 196.81 227.271 197.322 226.972C197.845 226.673 198.538 226.524 199.402 226.524C200.49 226.524 201.311 226.78 201.866 227.292C202.431 227.804 202.714 228.529 202.714 229.468V233.98C202.714 234.513 202.538 234.935 202.186 235.244C201.845 235.543 201.397 235.692 200.842 235.692ZM200.794 234.796C201.029 234.796 201.215 234.721 201.354 234.572C201.493 234.423 201.562 234.225 201.562 233.98C201.562 233.735 201.493 233.537 201.354 233.388C201.215 233.239 201.029 233.164 200.794 233.164C200.559 233.164 200.373 233.239 200.234 233.388C200.095 233.537 200.026 233.735 200.026 233.98C200.026 234.225 200.095 234.423 200.234 234.572C200.373 234.721 200.559 234.796 200.794 234.796ZM207.479 235.5L204.631 229.196H206.407L208.711 234.252H209.847V229.948H209.719C209.164 229.948 208.711 229.799 208.359 229.5C208.018 229.191 207.847 228.769 207.847 228.236C207.847 227.703 208.018 227.287 208.359 226.988C208.711 226.679 209.164 226.524 209.719 226.524C210.274 226.524 210.722 226.679 211.063 226.988C211.415 227.287 211.591 227.703 211.591 228.236V235.5H207.479ZM209.671 229.052C209.906 229.052 210.092 228.977 210.231 228.828C210.37 228.679 210.439 228.481 210.439 228.236C210.439 227.991 210.37 227.793 210.231 227.644C210.092 227.495 209.906 227.42 209.671 227.42C209.436 227.42 209.25 227.495 209.111 227.644C208.972 227.793 208.903 227.991 208.903 228.236C208.903 228.481 208.972 228.679 209.111 228.828C209.25 228.977 209.436 229.052 209.671 229.052Z" fill="black"/>
<circle cx="46" cy="230" r="19" fill="#BF4B17"/>
<path d="M45.5031 236.192C44.8525 236.192 44.2711 236.112 43.7591 235.952C43.2578 235.781 42.8311 235.552 42.4791 235.264C42.1378 234.976 41.8765 234.635 41.6951 234.24C41.5138 233.845 41.4231 233.413 41.4231 232.944C41.4231 232.219 41.6205 231.632 42.0151 231.184C42.4205 230.725 42.9591 230.405 43.6311 230.224V230.096C43.0765 229.893 42.6231 229.579 42.2711 229.152C41.9298 228.725 41.7591 228.187 41.7591 227.536C41.7591 227.109 41.8391 226.72 41.9991 226.368C42.1698 226.016 42.4151 225.712 42.7351 225.456C43.0551 225.2 43.4445 225.003 43.9031 224.864C44.3725 224.715 44.9058 224.64 45.5031 224.64C46.1005 224.64 46.6285 224.715 47.0871 224.864C47.5565 225.003 47.9511 225.2 48.2711 225.456C48.5911 225.712 48.8311 226.016 48.9911 226.368C49.1618 226.72 49.2471 227.109 49.2471 227.536C49.2471 228.187 49.0711 228.725 48.7191 229.152C48.3778 229.579 47.9298 229.893 47.3751 230.096V230.224C48.0471 230.405 48.5805 230.725 48.9751 231.184C49.3805 231.632 49.5831 232.219 49.5831 232.944C49.5831 233.413 49.4925 233.845 49.3111 234.24C49.1298 234.635 48.8631 234.976 48.5111 235.264C48.1698 235.552 47.7431 235.781 47.2311 235.952C46.7298 236.112 46.1538 236.192 45.5031 236.192ZM45.5031 234.544C46.1111 234.544 46.5751 234.405 46.8951 234.128C47.2258 233.851 47.3911 233.461 47.3911 232.96V232.624C47.3911 232.123 47.2258 231.733 46.8951 231.456C46.5751 231.179 46.1111 231.04 45.5031 231.04C44.8951 231.04 44.4258 231.179 44.0951 231.456C43.7751 231.733 43.6151 232.123 43.6151 232.624V232.96C43.6151 233.461 43.7751 233.851 44.0951 234.128C44.4258 234.405 44.8951 234.544 45.5031 234.544ZM45.5031 229.472C46.0685 229.472 46.5005 229.344 46.7991 229.088C47.0978 228.832 47.2471 228.469 47.2471 228V227.744C47.2471 227.285 47.0978 226.928 46.7991 226.672C46.5005 226.416 46.0685 226.288 45.5031 226.288C44.9378 226.288 44.5058 226.416 44.2071 226.672C43.9085 226.928 43.7591 227.285 43.7591 227.744V228C43.7591 228.469 43.9085 228.832 44.2071 229.088C44.5058 229.344 44.9378 229.472 45.5031 229.472Z" fill="#F4F4F4"/>
<path d="M178.09 121.481C178.592 119.425 180.845 117.415 182.841 118.924C182.972 122.757 184.997 126.23 181.569 129.073L183.987 129.137C184.791 130.459 183.736 131.549 184.5 132.889C185.305 134.298 195.206 141.604 195.947 140.718C194.761 138.301 199.09 133.459 200.669 135.65C200.846 135.895 202.278 140.905 202.352 141.522C203.378 149.696 197.099 146.713 194.464 151.852L204.633 156.413C203.743 153.285 210.873 149.521 211.757 152.19C211.996 152.912 211.163 160.876 210.764 161.668C209.133 164.89 204.844 164.226 203.11 165.496C202.112 166.224 200.943 169.289 199.934 170.343L201.405 171.095C199.78 167.576 207.645 163.416 207.867 166.789C206.589 169.935 208.181 174.695 206.983 177.55C205.808 180.346 200.042 179.991 199.033 184.616C197.561 191.339 199.837 202.98 198.953 210.355C198.884 210.914 198.879 211.45 198.479 211.899L90.5497 211.648C89.9508 211.165 89.9166 210.559 89.831 209.848C88.9698 202.869 91.1998 191.607 89.62 185.257C89.4489 184.581 87.9318 181.715 87.3957 181.459C82.1829 183.772 75.6526 181.447 77.8427 174.771C78.0309 174.194 80.6487 169.452 80.9224 169.306C83.6372 167.838 85.0517 172.499 84.6524 174.648L89.6086 172.627C90.812 168.735 87.8748 165.484 86.8482 161.995C83.0213 163.428 77.1697 161.715 76.4967 157.147C76.3769 156.349 75.9035 150.017 76.0176 149.661C76.8674 147.034 84.487 150.488 82.9129 153.891L90.6295 150.354C90.4299 145.513 88.16 147.855 86.0155 146.935C80.9738 144.767 83.7228 139.128 84.1448 135.161C86.1581 132.801 88.7987 135.819 89.0953 138.19C90.9888 137.071 101.34 131.438 101.546 129.865C101.837 127.634 100.171 126.573 104.717 127.564C101.865 124.499 102.333 113.919 107.933 119.844C116.882 112.003 126.726 102.949 133.678 93.0978C138.115 86.8117 138.509 85.163 140.026 77.8108C140.362 76.1795 142.9 70.9188 144.634 73.8958C145.239 74.9386 144.674 76.8845 144.914 78.1661C146.146 84.8251 153.372 94.7058 157.569 100.176C163.415 107.802 170.031 114.799 177.092 121.254L178.084 121.493L178.09 121.481ZM153.309 98.7023C149.357 91.8861 143.63 85.5883 142.649 77.4437C141.366 78.9002 142.073 81.0674 141.686 83.0424C139.878 92.2356 117.201 115.959 109.428 121.994C108.373 122.816 106.679 124.121 105.966 122.489C105.624 121.709 106.074 120.415 105.219 120.479C105.201 122.711 104.797 124.196 106.205 126.043C106.496 126.422 107.312 126.666 107.694 127.057C107.643 127.109 107.734 128.001 107.403 128.525C107.089 129.014 106.308 129.678 106.205 130.098L105.213 130.605C105.008 129.894 104.449 129.428 103.73 129.597C103.702 130.15 103.456 130.622 103.228 131.112C103.08 131.426 102.823 131.525 102.732 132.125C102.709 132.283 102.726 132.469 102.732 132.632C102.413 132.813 102.053 132.947 101.74 133.139C100.029 134.199 98.4088 135.702 96.7834 136.681C94.8157 137.87 89.6942 140.765 87.6181 140.753C85.8729 140.742 87.8748 137.252 85.8786 136.681C84.8691 141.388 83.4775 147.109 90.3329 144.272C90.4185 144.948 91.0744 145.35 91.3253 145.793C91.9926 146.958 92.3063 148.397 93.3101 149.335V151.362C91.2055 152.434 82.2684 158.4 80.6373 154.899C80.0841 153.716 81.8008 151.164 77.9453 150.861C79.394 155.464 76.5081 158.662 82.4053 159.967C82.7646 160.049 82.9813 160.614 84.065 160.486C84.4813 160.439 86.7626 159.682 87.3615 159.46C87.6524 159.548 88.1486 159.985 88.3539 159.967C88.9185 161.674 89.6485 163.369 90.3386 165.03C90.7607 166.044 91.1827 167.185 91.8272 168.065C91.8158 169.545 91.9527 171.182 91.8272 172.621C91.7816 173.163 91.5934 173.67 91.331 174.141C86.8311 176.175 80.181 181.255 82.3996 171.613C76.126 178.569 80.432 182.222 88.3539 178.703C88.4337 179.233 89.2151 179.507 89.3463 179.717C90.544 181.663 91.6048 184.028 91.8272 186.3C91.907 187.116 91.7987 188.001 91.8272 188.834C92.0781 195.732 91.4337 202.77 92.0724 209.621L92.8196 210.099C94.7986 210.116 96.7891 210.07 98.7681 210.099C106.194 210.198 113.648 210.023 121.08 210.099H122.072C122.899 210.099 123.726 210.099 124.553 210.099C124.884 210.099 125.214 210.099 125.545 210.099C126.703 210.099 127.861 210.099 129.013 210.099H155.784C156.942 210.099 158.1 210.099 159.252 210.099C159.748 210.099 160.244 210.099 160.74 210.099C161.567 210.099 162.394 210.099 163.221 210.099H164.214C172.632 210.192 181.084 209.971 189.497 210.099C191.664 210.134 191.675 210.635 194.453 210.099C194.761 210.04 195.171 210.174 195.445 210.099C195.719 210.023 196.118 210.163 196.437 210.099C196.803 203.154 195.953 195.715 196.437 188.834C196.637 185.991 196.854 183.48 198.508 181.074C200.162 178.668 201.12 178.359 203.875 177.695C206.498 177.072 204.97 170.331 205.357 168.077C202.386 169.236 204.257 172.225 202.403 173.908C201.827 174.171 199.255 172.93 198.422 172.633C197.932 172.458 197.379 172.446 196.934 172.126C196.939 171.963 196.905 171.776 196.934 171.619C197.304 169.644 201.12 163.614 203.378 163.014C205.129 163.3 207.205 162.309 208.335 160.987C210.302 158.697 208.705 156.244 209.817 153.396L207.063 154.91C207.565 155.912 206.766 158.295 206.846 158.458C205.574 158.79 204.907 158.819 203.624 158.499C199.409 157.433 195.536 154.304 191.972 152.382C192.656 149.51 194.042 148.251 196.432 146.812C201.787 146.474 200.932 141.155 198.662 137.701C197.105 139.204 198.833 141.487 198.365 142.938C198.177 143.573 197.738 143.707 197.162 143.8C194.732 144.185 186.491 138.097 184.535 136.18C183.942 135.598 183.565 134.485 182.55 134.153C182.385 133.494 181.654 132.714 182.054 131.618C181.329 131.304 180.736 132.108 180.571 132.125C180.097 132.172 179.499 131.863 179.082 131.618C178.489 130.413 177.194 129.789 176.601 128.583C176.841 128.566 179.174 127.89 179.578 127.569C180.902 127.197 181.831 125.414 181.563 124.027C181.461 123.509 181.289 123.66 181.067 123.521V120.992H180.326C179.784 121.097 180.172 122.88 180.075 123.526C179.829 125.134 179.077 125.449 177.599 124.791C172.94 120.112 167.619 115.79 163.216 110.873C163.107 110.75 163.102 110.022 162.737 109.608L153.298 98.7198L153.309 98.7023Z" fill="#322115"/>
<path d="M102.742 132.623C103.072 140.237 110.293 135.18 113.31 133.037C124.289 125.23 134.515 113.38 142.157 102.253L143.646 101.699L157.516 119.468C161.537 123.639 165.256 128.085 169.408 132.134C171.204 133.881 175.396 138.321 177.13 139.439C178.721 140.465 181.43 140.68 182.6 138.996C183.672 137.447 182.948 135.705 182.565 134.149C183.581 134.481 183.951 135.594 184.55 136.177L183.62 140.144C187.362 141.956 192.153 147.077 196.453 146.809C194.063 148.248 192.672 149.506 191.993 152.378C191.788 152.268 191.098 152.378 190.561 152.087C189.603 151.563 185.349 148.726 184.812 148.83C183.717 149.052 183.774 152.664 184.556 153.637C185.149 154.371 190.567 157.115 191.885 157.802C194.115 158.962 201.432 162.69 203.394 163.011C201.135 163.611 197.32 169.64 196.949 171.615C195.558 171.54 194.274 171.091 192.985 170.602C192.723 170.503 192.404 170.252 191.993 170.095C191.753 170.008 191.4 169.751 191.001 169.588C190.094 169.221 188.902 168.965 188.023 168.574C187.887 168.51 187.664 168.638 187.527 168.574L186.039 167.561C180.986 164.776 175.408 162.714 170.919 158.962L168.741 161.741C173.731 166.034 179.594 169 185.543 171.61C185.577 171.621 185.679 171.965 186.039 172.116C186.181 172.175 186.392 172.058 186.535 172.116C186.78 172.216 187.276 172.017 187.527 172.116C188.212 172.379 189.712 174.295 191.491 173.637C191.822 174.779 194.354 175.519 195.455 175.664C196.099 175.746 196.789 175.606 197.44 175.664C197.502 175.886 197.291 176.305 197.514 176.585C198.101 176.934 198.78 177.004 199.424 177.179C200.713 177.529 202.607 177.989 203.884 177.686C201.13 178.35 200.172 178.653 198.518 181.065C196.864 183.477 196.647 185.982 196.447 188.825C195.689 189.53 195.54 190.625 195.455 191.616C194.947 197.529 195.826 204.106 195.455 210.089C195.181 210.165 194.77 210.031 194.463 210.089L194.491 185.592L190.493 184.776V210.089H194.457C191.679 210.625 191.668 210.124 189.501 210.089V185.283H164.218V210.089H163.225C163.146 195.42 163.334 180.715 163.225 166.046C163.191 161.776 163.311 157.482 163.157 153.206L160.75 152.373C160.665 157.086 160.859 161.84 160.75 166.553C160.431 180.098 159.832 193.748 160.231 207.334C160.26 208.295 160.186 209.251 160.75 210.095C160.254 210.095 159.758 210.095 159.262 210.095V180.226C157.904 180.739 156.918 180.622 155.549 180.214L155.788 210.095H154.3V203.512C154.3 199.137 154.368 194.727 154.3 190.351C154.243 186.454 154.551 182.545 153.804 178.706C150.752 179.725 149.018 180.075 145.933 178.746L142.642 185.79L139.431 179.958C138.211 179.183 136.329 180.436 134.76 180.22C133.836 180.098 133.015 179.207 132.239 179.23C131.806 179.242 130.106 180.185 130.004 180.581C129.416 182.789 130.026 191.348 130.009 194.395C129.981 198.945 130.009 203.512 130.009 208.062V210.089H129.017V180.721L125.829 180.715L125.544 210.089C125.213 210.089 124.882 210.089 124.551 210.089C124.517 195.583 124.597 181.053 124.551 166.553C124.54 162.003 124.557 157.429 124.551 152.879H122.355C121.694 152.973 122.076 165.172 122.07 166.553C121.973 181.053 122.139 195.589 122.07 210.089H121.078V183.762H99.0174C98.3102 184.205 98.333 184.77 98.2475 185.51C97.5802 191.313 98.0707 201.193 98.2475 207.328C98.276 208.289 98.2019 209.245 98.7665 210.089C96.7874 210.06 94.797 210.107 92.8179 210.089C93.3825 209.245 93.3027 208.295 93.3369 207.328C93.4909 202.877 93.8388 194.919 93.1031 190.818C92.9662 190.043 92.6297 189.122 91.8312 188.825C91.8027 187.992 91.9111 187.106 91.8312 186.291C93.5822 186.355 93.1886 186.594 93.3198 185.05C93.508 182.819 93.0632 180.855 92.8236 178.694L89.356 179.708C89.2305 179.498 88.4492 179.224 88.3636 178.694C88.683 178.554 89.0252 178.344 89.356 178.187C99.3824 174.738 108.816 169.058 116.549 161.659C115.825 156.165 112.169 161.141 109.688 162.999C103.323 167.759 98.6068 170.852 91.3465 174.138C91.6088 173.672 91.797 173.159 91.8427 172.618C92.5385 172.827 94.8198 171.866 94.8198 171.353V157.429C90.4111 157.773 91.8769 164.543 91.8427 168.062C91.1982 167.176 90.7761 166.04 90.3541 165.026L90.8446 159.457C89.9777 159.311 89.1507 159.9 88.3693 159.964C88.164 159.981 87.6678 159.55 87.377 159.457C92.1791 157.709 96.8274 154.161 101.63 152.244C102.268 151.557 102.325 149.768 102.251 148.825C102.228 148.533 101.561 147.904 101.755 147.31C102.377 147.217 103.175 147.432 103.734 147.31L106.455 149.238C110.458 147.31 111.08 144.519 111.166 140.22C111.097 140.115 110.384 140.604 110.179 140.727C104.207 144.31 100.016 147.939 93.3198 151.359V149.332C93.3198 147.648 93.3198 145.953 93.3198 144.269L91.3408 145.784C91.0898 145.341 90.4339 144.939 90.3484 144.263C90.6221 144.146 91.221 143.541 91.8369 143.249C95.6696 141.443 99.2627 139.142 103.027 137.19L101.755 133.124C102.069 132.932 102.422 132.798 102.747 132.617L102.742 132.623ZM151.334 123.505C151.767 123.82 156.438 120.523 156.267 119.748L143.395 104.274C143.463 111.615 148.534 117.161 151.334 123.505ZM141.41 106.809L129.251 120.488C128.447 122.241 130.842 123.29 131.743 124.519L141.136 109.82L141.41 106.814V106.809ZM133.973 124.018C127.483 133.567 119.515 143.016 110.669 150.345C109.432 151.371 107.88 153.468 106.312 153.054C102.896 152.157 106.985 148.842 103.232 148.324C103.015 150.706 102.2 152.041 103.614 154.254C107.453 160.267 115.814 149.634 118.597 146.797C121.346 144.001 123.998 141.199 126.53 138.192C126.901 137.75 127.466 137.359 128.019 136.672C133.215 130.263 137.697 123.202 141.673 115.938L142.882 115.413C146.401 123.296 151.528 131.062 157.009 137.697C160.659 142.107 174.849 156.771 180.29 156.41C183.94 156.165 182.999 151.936 183.044 149.337C179.959 149.483 182.069 152.343 181.351 153.404C180.803 153.794 179.879 154.249 179.24 154.266C177.946 154.289 170.628 148.382 169.163 147.065C161.007 139.771 153.655 129.902 148.26 120.313C146.087 116.45 142.984 111.737 142.887 107.315L141.49 111.702C138.741 115.623 136.648 120.068 133.967 124.018H133.973ZM128.025 138.693C129.462 139.002 130.933 139.812 132.234 138.693C133.209 137.855 137.475 130.823 138.336 129.232C139.865 126.418 141.821 123.307 141.405 119.963L128.025 138.688V138.693ZM152.321 124.03C151.904 124.63 157.248 131.982 158.07 133.083C159.227 134.633 164.52 141.432 165.712 141.985C167.851 142.975 173.765 141.653 175.607 139.969L157.271 121.204L152.315 124.03H152.321ZM110.173 137.68C113.219 138.175 117.525 140.249 120.576 138.938C121.449 138.565 129.633 128.154 130.431 126.71C131.561 124.665 128.486 122.049 127.044 122.731L110.179 137.68H110.173ZM133.477 139.713H152.315L142.642 125.026L133.477 139.713ZM110.179 138.705C108.434 137.855 107.008 137.313 104.995 137.709C104.612 137.785 99.006 140.698 98.7722 140.966C97.6943 142.201 98.5384 145.58 98.2874 147.298C98.5269 147.578 103.774 144.094 104.39 143.663C105.057 143.197 110.493 139.165 110.185 138.705H110.179ZM118.603 140.727L112.66 139.707L111.667 147.298L116.629 143.511L118.603 140.721V140.727ZM110.179 156.416C112.272 156.503 114.491 156.486 116.384 155.42C118.175 154.412 130.22 142.032 130.009 140.989C129.89 140.4 128.84 140.202 128.275 140.173C125.104 140.01 121.135 147.525 118.375 149.349L110.185 156.416H110.179ZM188.508 148.825C188.383 147.461 188.959 145.574 188.023 144.514C187.807 144.269 182.89 141.024 182.577 140.936C181.231 140.558 179.389 142.375 177.603 141.234C178.448 142.748 187.607 149.763 188.508 148.825ZM153.804 142.241C153.843 141.915 153.148 141.228 153.062 141.228H131.743C131.658 141.228 130.962 141.909 131.002 142.241H153.809H153.804ZM176.109 141.74C174.467 142.072 172.932 142.807 171.273 143.127C170.452 143.284 167.212 142.812 167.685 144.012C168.912 145.044 174.815 150.561 175.853 150.351C177.29 150.054 175.505 143.261 176.109 141.746V141.74ZM97.2836 142.247L94.8882 143.593L94.8141 149.332L97.3064 147.98L97.2836 142.247ZM183.546 147.316L177.107 143.261C177.09 146.057 177.084 149.448 179.833 150.852C180.541 149.314 181.487 148.44 183.227 148.324L183.546 147.322V147.316ZM141.41 143.762C138.867 143.785 131.287 143.267 129.524 144.024C128.31 144.543 124.306 150.071 125.544 151.359C130.089 151.4 134.652 151.301 139.203 151.336C141.102 151.347 143.11 151.359 144.884 151.359C149.503 151.353 154.146 151.365 158.765 151.359L159.011 151.854C159.313 151.767 159.222 151.574 159.262 151.359C159.421 150.468 159.376 148.65 159.005 147.823C158.897 147.578 155.703 143.943 155.452 143.861C153.342 143.203 144.342 143.739 141.416 143.768L141.41 143.762ZM146.863 152.874C139.927 152.85 132.969 152.897 126.04 152.874V155.915C133.471 155.886 140.925 155.944 148.351 155.915C151.978 155.897 155.629 155.926 159.262 155.915V152.874C155.138 152.868 150.992 152.891 146.863 152.874ZM121.084 153.887C119.8 153.351 116.139 157.313 116.207 158.094C118.141 160.867 118.888 164.654 121.084 167.048V153.887ZM192.974 169.075V160.214L184.293 155.018C181.271 158.851 176.873 157.593 172.647 158.449C178.602 163.098 186.153 165.924 192.974 169.075ZM159.256 157.429H125.544V158.443H159.256V157.429ZM152.811 159.964C143.897 159.865 134.954 160.034 126.04 159.964V172.116L158.44 172.076C159.758 171.656 159.233 167.444 159.256 166.04C159.284 164.019 159.233 161.979 159.256 159.964C157.111 159.952 154.95 159.987 152.805 159.964H152.811ZM196.442 170.089V161.735C196.442 161.49 194.879 160.599 194.457 160.471V169.582L196.442 170.089ZM94.8084 177.68H120.587C122.247 172.076 119.624 167.858 117.359 162.993L107.162 170.806L94.8084 177.68ZM164.714 172.116C164.315 174.266 163.59 176.841 164.68 178.985C167.799 179.428 170.993 179.166 174.13 179.207C180.934 179.294 187.664 178.7 194.457 178.7L194.394 176.731C184.864 173.963 176.354 168.644 167.942 163.5C166.453 166.32 165.284 169.005 164.703 172.122L164.714 172.116ZM99.7646 168.574C98.5326 168.965 96.4909 169.373 95.8008 170.59C96.873 170.864 97.3806 170.06 98.1277 169.675C98.7037 169.378 99.8216 169.256 99.7646 168.574ZM159.256 173.124H126.285C125.104 173.917 125.276 178.968 126.006 179.486C128.179 181.036 131.087 177.674 132.234 177.686C132.861 177.692 133.705 178.688 135.199 178.752C137.002 178.828 137.549 177.989 139.083 177.721L142.887 182.743C143.133 181.403 144.929 177.488 146.19 177.255C146.72 177.156 148.191 178.239 149.589 178.239C151.146 178.239 152.235 177.173 153.062 177.197C154.311 177.226 156.792 180.442 159.262 179.207V173.13L159.256 173.124ZM97.2836 179.201H94.3065V209.577H97.2836V179.201ZM105.217 179.201C103.072 179.224 100.911 179.183 98.7665 179.201V182.242C99.9186 182.265 101.088 182.207 102.24 182.242C108.337 182.422 114.485 182.108 120.587 182.242V179.201C115.472 179.247 110.333 179.148 105.217 179.201ZM178.1 180.214C173.645 180.197 169.168 180.232 164.708 180.214V183.762C170.982 183.698 177.278 183.838 183.552 183.762C185.531 183.739 187.527 183.78 189.506 183.762V180.214C185.714 180.209 181.898 180.232 178.1 180.214Z" fill="#97541B"/>
<path d="M164.221 210.08V185.273H189.504V210.08C181.085 209.952 172.639 210.173 164.221 210.08Z" fill="#C5B9A4"/>
<path d="M98.7731 210.081C98.2085 209.236 98.2826 208.287 98.2541 207.32C98.0716 201.179 97.5811 191.304 98.2541 185.502C98.3396 184.762 98.3168 184.202 99.024 183.754H121.084V210.081C113.659 210.005 106.199 210.18 98.7731 210.081Z" fill="#CCAF7D"/>
<path d="M105.217 131.607C105.462 132.504 105.177 133.506 106.455 134.036C113.829 129.189 120.736 123.427 126.793 116.932C129.633 113.89 142.055 98.9996 142.391 95.8653C142.625 93.7039 140.948 91.1754 142.648 89.0781C143.087 89.0898 144.604 96.5236 144.952 97.3625C148.608 106.09 164.452 123.695 171.644 130.354C172.972 131.584 177.438 135.877 178.613 136.413C179.93 137.025 180.883 136.576 181.522 135.306L180.575 132.12C180.74 132.102 181.339 131.292 182.058 131.613C181.659 132.708 182.394 133.489 182.554 134.147C182.936 135.703 183.66 137.444 182.588 138.994C181.425 140.678 178.71 140.462 177.119 139.437C175.391 138.324 171.193 133.885 169.396 132.131C165.244 128.088 161.526 123.637 157.505 119.466L143.634 101.697L142.146 102.25C134.503 113.378 124.277 125.228 113.299 133.034C110.281 135.178 103.061 140.235 102.73 132.621C102.725 132.463 102.707 132.271 102.73 132.114H103.226L105.211 131.607H105.217Z" fill="#F1BD2D"/>
<path d="M144.389 88.0694C151.735 103.094 163.256 115.381 174.85 127.079C175.854 127.773 177.394 127.668 178.597 127.557C178.917 127.528 179.333 127.627 179.59 127.557C179.191 127.878 176.858 128.553 176.613 128.571C173.527 128.781 172.849 126.549 170.67 125.029C171.839 129.893 176.356 132.62 179.841 135.655C180.132 134.985 179.333 132.095 179.094 131.606C179.51 131.851 180.109 132.16 180.582 132.113L181.529 135.3C180.89 136.57 179.938 137.018 178.62 136.407C177.451 135.865 172.98 131.577 171.651 130.348C164.465 123.689 148.615 106.083 144.959 97.3558C144.611 96.5227 143.094 89.0831 142.655 89.0714C140.956 91.1687 142.632 93.6972 142.398 95.8586C142.062 98.9929 129.634 113.884 126.8 116.925C120.743 123.421 113.836 129.183 106.462 134.03C105.184 133.499 105.475 132.492 105.224 131.6C105.144 131.315 105.304 130.866 105.224 130.587L106.217 130.08C106.103 130.546 106.074 132.206 106.462 132.608C111.213 129.684 114.891 126.549 117.121 121.219C116.602 120.368 116.038 121.446 115.638 121.731C113.477 123.263 111.755 125.099 109.45 126.573C108.789 126.998 107.768 126.98 107.705 127.044C107.323 126.654 106.507 126.415 106.217 126.031C107.329 126.211 107.968 126.031 108.954 125.541C111.891 124.067 121.576 115.131 124.325 112.375C130.193 106.491 135.691 99.0278 139.883 91.8096C140.374 90.9648 140.203 89.8637 140.573 89.2229C140.665 89.0598 142.975 86.5838 143.157 86.5488C144.315 86.2925 144.178 87.7956 144.389 88.0635V88.0694ZM141.412 93.6389C140.516 93.4583 140.18 94.0875 139.712 94.6817C138.976 95.608 133.655 103.555 133.57 104.114C133.427 105.023 133.513 105.221 134.231 105.774C135.537 104.085 142.809 95.2818 141.417 93.6389H141.412ZM145.381 93.6389C145.974 97.0995 148.986 101.947 151.21 104.638C152.265 105.914 153.161 106.613 153.064 104.265L145.376 93.6389H145.381ZM119.106 119.954C119.694 119.954 120.315 120.473 120.857 120.438C122.015 120.368 130.279 111.181 131.482 109.567C132.081 108.763 133.421 107.417 132.737 106.287C132.309 105.576 131.699 105.541 131.271 106.316C128.437 109.94 125.077 113.191 121.838 116.43C120.697 117.572 118.764 117.962 119.106 119.949V119.954ZM154.786 106.299C154.056 106.153 153.235 106.677 153.349 107.504C153.412 107.936 157.78 113.511 158.505 114.408C160.056 116.313 164.704 121.947 166.438 123.054C167.236 123.561 167.852 122.926 168.679 123.001L154.786 106.304V106.299Z" fill="#97541B"/>
<path d="M153.308 98.7019V99.2088C150.336 95.486 147.291 91.8565 144.382 88.0697C144.171 87.7959 144.308 86.2986 143.15 86.555C142.968 86.5958 140.658 89.0718 140.567 89.2291C140.196 89.8699 140.367 90.9768 139.876 91.8157C135.684 99.034 130.186 106.497 124.318 112.381C121.569 115.137 111.885 124.068 108.947 125.548C107.961 126.043 107.322 126.217 106.21 126.037C104.801 124.19 105.206 122.699 105.223 120.473C106.079 120.415 105.628 121.702 105.97 122.483C106.683 124.109 108.377 122.804 109.432 121.988C117.2 115.952 139.876 92.2294 141.69 83.0362C142.078 81.0612 141.371 78.894 142.654 77.4375C143.635 85.5879 149.355 91.8856 153.313 98.6961L153.308 98.7019Z" fill="#EED8A6"/>
<path d="M163.227 166.037C163.335 180.707 163.147 195.411 163.227 210.081C162.4 210.081 161.573 210.081 160.746 210.081C160.182 209.236 160.256 208.286 160.227 207.319C159.828 193.733 160.421 180.089 160.746 166.538L163.227 166.031V166.037Z" fill="#F8F3CB"/>
<path d="M155.79 210.08L155.551 180.199C156.92 180.607 157.901 180.724 159.258 180.211V210.08C158.106 210.08 156.948 210.08 155.79 210.08Z" fill="#C1AC8C"/>
<path d="M191.983 152.366C195.548 154.288 199.42 157.417 203.635 158.483C204.918 158.809 205.586 158.774 206.858 158.442C206.932 158.588 208.637 158.943 208.346 160.976C207.211 162.293 205.141 163.289 203.39 163.004C201.428 162.683 194.111 158.955 191.881 157.795C190.563 157.114 185.151 154.37 184.552 153.63C183.771 152.657 183.714 149.045 184.809 148.823C185.339 148.713 189.599 151.556 190.558 152.08C191.094 152.371 191.784 152.261 191.989 152.371L191.983 152.366Z" fill="#F1BD2D"/>
<path d="M124.551 166.547C124.597 181.053 124.517 195.583 124.551 210.084C123.724 210.084 122.897 210.084 122.07 210.084C122.139 195.577 121.973 181.047 122.07 166.547H124.551Z" fill="#F9F3CB"/>
<path d="M154.302 203.5V210.083H130.012V208.056L154.302 203.5Z" fill="#47433B"/>
<path d="M125.545 210.081L125.83 180.707H129.018V210.081C127.86 210.081 126.703 210.081 125.551 210.081H125.545Z" fill="#CEB07B"/>
<path d="M89.3579 178.186C89.0271 178.343 88.6849 178.553 88.3655 178.693C80.4436 182.218 76.1376 178.559 82.4113 171.603C80.1927 181.245 86.8428 176.17 91.3427 174.131C98.6087 170.845 103.325 167.752 109.685 162.992C109.485 164.32 108.15 165.468 107.209 166.29C103.16 169.832 94.143 175.867 89.3579 178.18V178.186Z" fill="#EED8A6"/>
<path d="M184.547 136.168C186.503 138.085 194.744 144.173 197.174 143.788C197.756 143.695 198.189 143.561 198.377 142.926C198.845 141.475 197.117 139.192 198.674 137.689C200.944 141.143 201.799 146.462 196.444 146.8C192.149 147.074 187.353 141.947 183.611 140.135L184.541 136.168H184.547Z" fill="#D5A547"/>
<path d="M102.248 148.824C102.323 149.768 102.266 151.557 101.627 152.244C96.8246 154.161 92.1764 157.709 87.3742 159.456C86.7753 159.672 84.494 160.429 84.0776 160.482C82.994 160.61 82.7773 160.045 82.418 159.963C82.8628 158.763 84.1461 158.513 84.9274 157.697C85.3666 157.237 85.1499 156.281 85.743 155.903C87.2715 154.936 92.5756 153.881 94.663 152.984C97.0755 151.947 99.8131 149.989 102.248 148.83V148.824Z" fill="#F1BD2D"/>
<path d="M103.73 147.3C103.171 147.428 102.367 147.207 101.751 147.3C101.552 147.894 102.225 148.523 102.247 148.815C99.8122 149.974 97.0746 151.932 94.6621 152.969C92.5689 153.872 87.2706 154.92 85.7421 155.887C85.1432 156.266 85.3656 157.221 84.9265 157.682C84.1508 158.503 82.8619 158.748 82.417 159.948C76.5198 158.643 79.4057 155.439 77.957 150.842C81.8182 151.145 80.1015 153.697 80.649 154.879C82.2801 158.381 91.223 152.421 93.3218 151.343C100.012 147.923 104.209 144.294 110.181 140.711C109.924 142.558 105.19 146.962 103.736 147.294L103.73 147.3Z" fill="#EED8A6"/>
<path d="M91.8323 168.058C91.8608 164.539 90.395 157.77 94.8094 157.426V171.35C94.8094 171.862 92.5281 172.824 91.8323 172.614C91.9577 171.175 91.8208 169.538 91.8323 168.058Z" fill="#BC8C39"/>
<path d="M90.3448 144.267C83.4894 147.104 84.881 141.383 85.8905 136.676C87.8866 137.247 85.8848 140.736 87.63 140.748C89.706 140.76 94.8276 137.864 96.7952 136.676C95.1356 138.884 92.8656 140.567 91.839 143.259C91.2288 143.55 90.6299 144.156 90.3505 144.273L90.3448 144.267Z" fill="#EED8A6"/>
<path d="M107.7 127.053C107.763 126.989 108.784 127.001 109.445 126.581C111.749 125.107 113.472 123.272 115.633 121.74C116.033 121.454 116.597 120.376 117.116 121.227C114.886 126.558 111.208 129.698 106.457 132.617C106.069 132.215 106.097 130.554 106.212 130.088C106.314 129.675 107.096 129.01 107.409 128.515C107.74 127.997 107.649 127.105 107.7 127.047V127.053Z" fill="#F1BD2D"/>
<path d="M91.8338 143.254C92.8661 140.569 95.1303 138.885 96.79 136.671C98.4212 135.686 100.035 134.189 101.746 133.129L103.018 137.195C99.2538 139.153 95.6608 141.448 91.8281 143.254H91.8338Z" fill="#F1BD2D"/>
<path d="M203.88 177.677C202.597 177.98 200.709 177.52 199.42 177.17L198.428 172.614C199.266 172.912 201.838 174.152 202.409 173.89C204.262 172.207 202.392 169.218 205.363 168.059C204.975 170.313 206.504 177.054 203.88 177.677Z" fill="#F1BD2D"/>
<path d="M92.8249 210.081L92.0777 209.603C91.4447 202.752 92.0892 195.714 91.8325 188.816C92.631 189.114 92.9675 190.034 93.1043 190.809C93.8401 194.91 93.4922 202.868 93.3382 207.319C93.304 208.281 93.3895 209.236 92.8192 210.081H92.8249Z" fill="#C7B698"/>
<path d="M180.08 123.507H180.576L181.568 124.014C181.842 125.401 180.907 127.183 179.584 127.556C179.333 127.626 178.916 127.527 178.591 127.556C173.048 122.249 167.783 116.644 162.725 110.848H163.221C167.624 115.771 172.945 120.087 177.605 124.766C179.076 125.424 179.829 125.109 180.08 123.501V123.507Z" fill="#EED8A6"/>
<path d="M176.613 128.573C177.206 129.779 178.501 130.403 179.094 131.609C179.333 132.092 180.132 134.982 179.841 135.658C176.356 132.617 171.839 129.89 170.67 125.031C172.849 126.552 173.527 128.789 176.613 128.573Z" fill="#D5A547"/>
<path d="M196.444 188.816C195.959 195.703 196.803 203.136 196.444 210.081C196.13 210.139 195.72 210.005 195.452 210.081C195.822 204.098 194.944 197.52 195.452 191.607C195.537 190.617 195.685 189.521 196.444 188.816Z" fill="#C7B698"/>
<path d="M89.3573 179.705L92.8249 178.691C93.0644 180.853 93.5093 182.816 93.3211 185.047C93.1899 186.591 93.5834 186.352 91.8325 186.288C91.6101 184.022 90.5493 181.651 89.3516 179.705H89.3573Z" fill="#E57C05"/>
<path d="M196.94 171.607C196.912 171.765 196.946 171.951 196.94 172.114C196.9 173.052 197.18 174.748 197.436 175.656C196.786 175.598 196.096 175.738 195.452 175.656C195.828 174.13 193.935 174.66 193.239 173.617C192.936 173.169 192.224 170.838 192.971 170.594C194.265 171.077 195.543 171.532 196.934 171.607H196.94Z" fill="#F1BD2D"/>
<path d="M208.341 160.976C208.637 158.943 206.926 158.587 206.852 158.442C206.767 158.278 207.571 155.896 207.069 154.894L209.824 153.379C208.711 156.228 210.308 158.68 208.341 160.97V160.976Z" fill="#BC8C39"/>
<path d="M88.3633 159.959C89.1503 159.901 89.9716 159.307 90.8385 159.453L90.348 165.022C89.6579 163.362 88.9336 161.666 88.3633 159.959Z" fill="#E57C05"/>
<path d="M198.428 172.614L199.42 177.17C198.776 176.995 198.097 176.925 197.51 176.576C197.287 176.29 197.498 175.877 197.436 175.655C197.179 174.741 196.899 173.051 196.939 172.113C197.384 172.434 197.937 172.445 198.428 172.62V172.614Z" fill="#E49C1E"/>
<path d="M91.3377 145.788L93.3168 144.273C93.3168 145.957 93.3168 147.652 93.3168 149.336C92.313 148.398 91.9993 146.959 91.332 145.794L91.3377 145.788Z" fill="#E57C05"/>
<path d="M163.227 110.856H162.73C159.417 107.057 156.428 103.119 153.309 99.21V98.7031L162.748 109.592C163.113 110.005 163.113 110.734 163.227 110.856Z" fill="#CDC9C5"/>
<path d="M105.217 130.601C105.297 130.881 105.137 131.329 105.217 131.615L103.232 132.122V131.108C103.461 130.619 103.706 130.147 103.734 129.593C104.453 129.424 105.012 129.89 105.217 130.601Z" fill="#EED8A6"/>
<path d="M180.08 123.511C180.177 122.864 179.794 121.081 180.33 120.977H181.066V123.511C180.964 123.447 180.735 123.552 180.57 123.511H180.074H180.08Z" fill="#BC8C39"/>
<path d="M103.24 132.115H102.744C102.835 131.515 103.092 131.416 103.24 131.102V132.115Z" fill="#97541B"/>
<path d="M181.569 124.013L180.576 123.506C180.742 123.546 180.97 123.442 181.072 123.506C181.295 123.646 181.466 123.494 181.569 124.013Z" fill="#C48D66"/>
<path d="M152.812 159.962C153.793 162.426 157.033 164.657 159.257 166.038C159.234 167.442 159.759 171.654 158.442 172.074L126.041 172.114V159.962C134.955 160.032 143.898 159.863 152.812 159.962Z" fill="#C1A57A"/>
<path d="M154.301 190.336C154.37 194.711 154.301 199.121 154.301 203.497L130.011 208.052C130.011 203.502 129.982 198.929 130.011 194.385L154.301 190.336Z" fill="#261C16"/>
<path d="M130.01 194.388C130.027 191.341 129.416 182.783 130.004 180.575C130.112 180.179 131.812 179.235 132.24 179.224C133.015 179.2 133.842 180.092 134.761 180.214C136.329 180.424 138.211 179.171 139.432 179.952L142.642 185.783L145.933 178.74C149.019 180.068 150.747 179.719 153.804 178.699C154.551 182.538 154.243 186.448 154.3 190.345L130.01 194.394V194.388Z" fill="#1A1612"/>
<path d="M164.715 172.114C165.297 168.998 166.466 166.318 167.954 163.492C176.367 168.642 184.876 173.955 194.406 176.723L194.469 178.692C187.676 178.692 180.946 179.286 174.142 179.199C174.393 178.051 173.515 178.133 172.916 177.696C170.281 175.761 167.715 173.408 164.726 172.114H164.715Z" fill="#562C21"/>
<path d="M133.976 124.015C136.662 120.065 138.75 115.62 141.499 111.699L142.896 107.312C142.993 111.729 146.096 116.447 148.269 120.31C153.664 129.899 161.01 139.768 169.171 147.062C170.643 148.379 177.96 154.286 179.249 154.263C179.888 154.252 180.812 153.791 181.359 153.401C182.078 152.335 179.968 149.48 183.053 149.334C183.013 151.933 183.954 156.162 180.298 156.407C174.863 156.768 160.668 142.105 157.017 137.694C151.531 131.065 146.409 123.299 142.89 115.41L141.681 115.935C137.706 123.2 133.223 130.261 128.027 136.669H127.531C129.744 132.573 132.67 128.565 133.976 124.009V124.015Z" fill="#F1BD2D"/>
<path d="M152.32 124.029L157.276 121.203L175.612 139.968C173.77 141.646 167.85 142.974 165.717 141.984C164.531 141.431 159.233 134.632 158.075 133.082C157.253 131.981 151.909 124.635 152.326 124.029H152.32Z" fill="#4A4041"/>
<path d="M159.257 173.123V179.199C156.793 180.434 154.312 177.224 153.063 177.189C152.236 177.166 151.153 178.232 149.59 178.232C148.193 178.232 146.721 177.149 146.191 177.248C144.93 177.487 143.134 181.402 142.889 182.736L139.084 177.714C137.55 177.976 137.003 178.821 135.201 178.745C133.706 178.681 132.862 177.685 132.235 177.679C131.088 177.667 128.18 181.029 126.007 179.479C125.282 178.961 125.106 173.91 126.286 173.117H159.257V173.123Z" fill="#CE9E3E"/>
<path d="M94.8105 177.679L107.164 170.805L117.361 162.992C119.626 167.857 122.249 172.075 120.59 177.679H94.8105Z" fill="#9E3B1E"/>
<path d="M110.176 137.677L127.04 122.728C128.483 122.046 131.557 124.662 130.428 126.707C129.63 128.151 121.451 138.562 120.573 138.935C117.522 140.246 113.221 138.166 110.17 137.677H110.176Z" fill="#583C26"/>
<path d="M133.479 139.71L142.644 125.023L152.317 139.71H133.479Z" fill="#692C1C"/>
<path d="M192.975 169.073C186.148 165.922 178.603 163.096 172.648 158.447C176.869 157.585 181.272 158.849 184.295 155.016L192.975 160.212V169.073Z" fill="#562C21"/>
<path d="M141.412 143.761C141.263 146.668 143.858 148.818 144.879 151.358C143.106 151.358 141.098 151.352 139.199 151.335C134.647 151.3 130.085 151.399 125.539 151.358C124.302 150.07 128.305 144.548 129.52 144.023C131.283 143.266 138.868 143.784 141.406 143.761H141.412Z" fill="#88361C"/>
<path d="M159.257 151.358H158.76C154.141 151.363 149.498 151.352 144.878 151.358C143.858 148.817 141.257 146.668 141.411 143.761C144.337 143.731 153.342 143.196 155.447 143.854C155.698 143.93 158.892 147.571 159 147.815C159.365 148.643 159.416 150.46 159.257 151.352V151.358Z" fill="#682E1B"/>
<path d="M194.458 210.083H190.494V184.77L194.492 185.585L194.458 210.083Z" fill="#C49F56"/>
<path d="M97.2916 179.199H94.3145V209.575H97.2916V179.199Z" fill="#D5A547"/>
<path d="M151.336 123.505C148.535 117.16 143.465 111.614 143.396 104.273L156.269 119.747C156.44 120.528 151.775 123.825 151.336 123.505Z" fill="#4A4041"/>
<path d="M186.036 167.552L186.533 172.108C186.39 172.05 186.179 172.166 186.036 172.108L185.54 171.601C179.592 168.991 173.723 166.026 168.738 161.732L170.917 158.953C175.405 162.705 180.989 164.767 186.036 167.552Z" fill="#F1BD2D"/>
<path d="M110.181 156.413L118.371 149.346C121.126 147.523 125.101 140.007 128.272 140.171C128.837 140.2 129.886 140.404 130.006 140.986C130.217 142.029 118.172 154.403 116.381 155.417C114.487 156.483 112.269 156.5 110.176 156.413H110.181Z" fill="#BC8C39"/>
<path d="M127.531 136.671C127.394 136.922 126.327 137.248 126.539 138.192C124.012 141.204 121.36 144 118.605 146.797C116.552 147.443 115.052 149.104 113.147 150.077C112.628 150.345 111.043 151.219 110.672 150.339C119.518 143.01 127.485 133.56 133.976 124.012C132.67 128.562 129.744 132.576 127.531 136.671Z" fill="#EED8A6"/>
<path d="M109.684 162.996C112.165 161.137 115.826 156.162 116.545 161.656C108.811 169.055 99.3837 174.735 89.3516 178.184C94.1424 175.865 103.159 169.835 107.203 166.293C108.144 165.472 109.479 164.324 109.678 162.996H109.684Z" fill="#F1BD2D"/>
<path d="M146.864 152.872L148.352 155.907C140.921 155.942 133.467 155.878 126.041 155.907V152.866C132.976 152.889 139.934 152.843 146.864 152.866V152.872Z" fill="#D5A547"/>
<path d="M141.412 106.807L141.138 109.813L131.745 124.511C130.838 123.282 128.443 122.234 129.252 120.48L141.412 106.801V106.807Z" fill="#583C26"/>
<path d="M128.027 138.689L141.407 119.965C141.829 123.303 139.867 126.414 138.339 129.234C137.478 130.818 133.212 137.85 132.236 138.695C130.936 139.814 129.459 139.004 128.027 138.695V138.689Z" fill="#CA772C"/>
<path d="M110.182 138.703C110.49 139.163 105.055 143.194 104.387 143.66C103.771 144.092 98.5244 147.575 98.2849 147.296C98.5358 145.577 97.6918 142.198 98.7697 140.963C99.0035 140.695 104.616 137.782 104.992 137.706C107.011 137.31 108.431 137.852 110.176 138.703H110.182Z" fill="#6C4327"/>
<path d="M178.102 180.21C178.473 182.319 182.271 182.424 183.555 183.752C177.281 183.834 170.985 183.694 164.711 183.752V180.204C169.165 180.222 173.642 180.187 178.102 180.204V180.21Z" fill="#BE9C50"/>
<path d="M105.219 179.198C110.335 179.14 115.474 179.244 120.59 179.198V182.239C114.487 182.099 108.339 182.414 102.242 182.239C102.898 180.718 105.259 181.085 105.219 179.204V179.198Z" fill="#D5A547"/>
<path d="M118.604 146.797C115.821 149.628 107.46 160.26 103.621 154.254C102.207 152.034 103.017 150.7 103.239 148.323C106.992 148.848 102.897 152.157 106.319 153.054C107.887 153.467 109.439 151.37 110.676 150.345C111.047 151.225 112.633 150.345 113.152 150.083C115.056 149.11 116.556 147.444 118.61 146.803L118.604 146.797Z" fill="#F1BD2D"/>
<path d="M164.716 172.115C167.704 173.409 170.271 175.762 172.906 177.696C173.504 178.133 174.388 178.058 174.132 179.199C170.995 179.159 167.801 179.421 164.681 178.978C163.586 176.834 164.311 174.259 164.716 172.109V172.115Z" fill="#6C4327"/>
<path d="M176.11 141.74C175.505 143.255 177.29 150.054 175.853 150.345C174.815 150.555 168.918 145.038 167.686 144.006C167.212 142.812 170.446 143.284 171.273 143.121C172.933 142.801 174.461 142.066 176.11 141.734V141.74Z" fill="#733D2F"/>
<path d="M188.51 148.82C187.609 149.764 178.45 142.749 177.605 141.229C179.391 142.371 181.233 140.553 182.579 140.932C182.892 141.019 187.809 144.264 188.025 144.509C188.961 145.569 188.385 147.457 188.51 148.82Z" fill="#49342D"/>
<path d="M121.084 153.883V167.043C118.889 164.649 118.141 160.862 116.208 158.089C116.14 157.303 119.801 153.341 121.084 153.883Z" fill="#E57C05"/>
<path d="M146.865 152.87C150.989 152.888 155.135 152.858 159.264 152.87V155.911C155.637 155.917 151.987 155.894 148.354 155.911L146.865 152.876V152.87Z" fill="#CA8323"/>
<path d="M159.257 157.426H125.545V158.439H159.257V157.426Z" fill="#BC8C39"/>
<path d="M163.228 166.037L160.747 166.543C160.861 161.83 160.661 157.082 160.747 152.363L163.153 153.196C163.313 157.473 163.193 161.76 163.222 166.037H163.228Z" fill="#CA772C"/>
<path d="M122.077 166.542C122.089 165.168 121.701 152.962 122.362 152.863H124.558C124.564 157.419 124.541 161.992 124.558 166.542H122.077Z" fill="#E49C1E"/>
<path d="M178.102 180.214C181.894 180.231 185.71 180.202 189.508 180.214V183.762C187.529 183.779 185.533 183.733 183.554 183.762C182.271 182.428 178.472 182.323 178.102 180.22V180.214Z" fill="#9B733A"/>
<path d="M118.603 140.725L116.63 143.515L111.668 147.302L112.66 139.711L118.603 140.725Z" fill="#6C4327"/>
<path d="M103.73 147.303C105.185 146.971 109.919 142.572 110.175 140.719C110.381 140.597 111.093 140.113 111.162 140.212C111.076 144.512 110.46 147.303 106.451 149.231L103.73 147.303Z" fill="#BC8C39"/>
<path d="M183.548 147.315L183.229 148.317C181.489 148.439 180.543 149.307 179.835 150.845C177.086 149.447 177.086 146.05 177.109 143.254L183.548 147.309V147.315Z" fill="#F1BD2D"/>
<path d="M152.812 159.962C154.957 159.985 157.119 159.944 159.263 159.962C159.24 161.983 159.291 164.022 159.263 166.038C157.039 164.663 153.799 162.426 152.818 159.962H152.812Z" fill="#BE9050"/>
<path d="M153.803 142.24H130.996C130.956 141.914 131.652 141.227 131.737 141.227H153.056C153.142 141.227 153.838 141.908 153.798 142.24H153.803Z" fill="#CA772C"/>
<path d="M196.444 170.087L194.459 169.58V160.469C194.881 160.603 196.444 161.488 196.444 161.733V170.087Z" fill="#AA6F49"/>
<path d="M105.218 179.195C105.264 181.083 102.897 180.71 102.241 182.231C101.089 182.196 99.9196 182.26 98.7676 182.231V179.19C100.912 179.178 103.074 179.219 105.218 179.19V179.195Z" fill="#BC8C39"/>
<path d="M190.991 169.58V170.087L191.487 173.629C189.708 174.293 188.202 172.371 187.523 172.109V169.073L188.02 168.566C188.898 168.957 190.09 169.213 190.997 169.58H190.991Z" fill="#F1BD2D"/>
<path d="M97.284 142.246L97.3068 147.979L94.8145 149.33L94.8886 143.592L97.284 142.246Z" fill="#BC8C39"/>
<path d="M191.983 170.086C192.388 170.237 192.713 170.494 192.975 170.593C192.228 170.837 192.941 173.162 193.243 173.616C193.939 174.659 195.833 174.129 195.456 175.655C194.35 175.51 191.817 174.77 191.492 173.628L190.996 170.086H191.988H191.983Z" fill="#E49C1E"/>
<path d="M187.518 168.564V172.107C187.267 172.008 186.771 172.206 186.525 172.107L186.029 167.551L187.518 168.564Z" fill="#E49C1E"/>
<path d="M114.241 158.066C114.298 158.748 103.315 167.821 95.511 171.333C95.121 171.509 95.901 162.359 95.511 161.578C96.2011 160.361 113.009 158.457 114.241 158.066Z" fill="#AD3E1E"/>
<path d="M128.027 136.672C127.474 137.354 126.915 137.75 126.539 138.192C126.322 137.249 127.394 136.922 127.531 136.672H128.027Z" fill="#D5A547"/>
<path d="M191.983 170.089H190.99V169.582C191.389 169.745 191.743 170.001 191.983 170.089Z" fill="#BC8C39"/>
<path d="M187.518 169.072V168.565C187.654 168.629 187.877 168.501 188.014 168.565L187.518 169.072Z" fill="#BC8C39"/>
<path d="M186.035 172.112C185.676 171.961 185.573 171.623 185.539 171.605L186.035 172.112Z" fill="#E49C1E"/>
<path d="M158.768 151.355H159.264C159.224 151.571 159.309 151.769 159.013 151.851L158.768 151.355Z" fill="#8E4721"/>
<path d="M144.389 88.0703C147.292 91.8571 150.343 95.4866 153.314 99.2094C156.434 103.113 159.423 107.057 162.736 110.855C167.789 116.652 173.059 122.251 178.603 127.564C177.399 127.675 175.86 127.779 174.856 127.086C163.267 115.388 151.74 103.101 144.394 88.0761L144.389 88.0703Z" fill="#D5A547"/>
<path d="M119.106 119.956C118.764 117.963 120.698 117.573 121.838 116.437C125.078 113.198 128.431 109.953 131.272 106.323C131.694 105.554 132.31 105.583 132.737 106.294C133.416 107.424 132.081 108.764 131.483 109.574C130.279 111.188 122.015 120.37 120.857 120.445C120.321 120.48 119.694 119.962 119.106 119.962V119.956Z" fill="#845331"/>
<path d="M154.787 106.3L168.68 122.997C167.853 122.921 167.237 123.556 166.439 123.049C164.711 121.942 160.057 116.308 158.505 114.403C157.781 113.512 153.412 107.931 153.35 107.5C153.23 106.672 154.051 106.148 154.787 106.294V106.3Z" fill="#6C4327"/>
<path d="M141.413 93.637C142.805 95.2799 135.533 104.089 134.227 105.772C133.508 105.219 133.428 105.021 133.565 104.112C133.651 103.553 138.978 95.6061 139.708 94.6798C140.175 94.0856 140.512 93.4564 141.407 93.637H141.413Z" fill="#6C4327"/>
<path d="M145.381 93.6406L153.069 104.267C153.166 106.615 152.27 105.916 151.215 104.64C148.991 101.948 145.98 97.1012 145.387 93.6406H145.381Z" fill="#6C4327"/>
</g>
</g>
<defs>
<linearGradient id="paint0_linear_251_96392" x1="524.5" y1="-782" x2="529.326" y2="-260.512" gradientUnits="userSpaceOnUse">
<stop offset="0.332725" stop-color="#FAC768"/>
<stop offset="1" stop-color="#F58A39"/>
</linearGradient>
<clipPath id="clip0_251_96392">
<rect width="411" height="620" fill="white"/>
</clipPath>
<clipPath id="clip1_251_96392">
<rect width="411" height="620" fill="white"/>
</clipPath>
</defs>
</svg>
