<svg width="411" height="620" viewBox="0 0 411 620" fill="none" xmlns="http://www.w3.org/2000/svg">
<g clip-path="url(#clip0_251_95677)">
<g clip-path="url(#clip1_251_95677)">
<path d="M137.799 19C119.656 104.047 119.002 88.3026 117.275 108.615C116.499 121.995 119.889 149.455 134.31 159.49C148.731 169.525 117.447 225.345 100.002 252" stroke="#D9D9D9" stroke-width="4" stroke-linecap="round"/>
<path d="M128.42 104.348C163.945 108.953 174.62 108.46 175.517 107.637" stroke="#D9D9D9" stroke-width="3"/>
<path d="M126.402 130.254C163.273 131.57 185.499 130.802 192.002 130.254" stroke="#D9D9D9" stroke-width="3"/>
<path d="M62.8203 158.628C142.213 156.325 168.565 153.831 171.817 152.871" stroke="#D9D9D9" stroke-width="3" stroke-linecap="round"/>
<path d="M91.2236 85.1937C91.3197 84.3708 90.7307 83.6258 89.9078 83.5297C89.085 83.4335 88.34 84.0226 88.2439 84.8454L89.7337 85.0195L91.2236 85.1937ZM86.0332 159.038L87.5315 159.109C88.8771 130.654 89.7741 112.391 90.3487 101.123C90.636 95.4888 90.8426 91.6047 90.9843 89.0702C91.0552 87.8027 91.1097 86.8748 91.15 86.2353C91.1701 85.9153 91.1864 85.6702 91.1993 85.492C91.2058 85.4029 91.2112 85.3329 91.2156 85.2801C91.2178 85.2538 91.2197 85.2332 91.2212 85.2177C91.2219 85.21 91.2225 85.2041 91.2229 85.1998C91.2234 85.1954 91.2236 85.1935 91.2236 85.1937L89.7337 85.0195L88.2439 84.8454C88.1237 85.8732 87.2236 102.11 84.5349 158.967L86.0332 159.038Z" fill="#D9D9D9"/>
<path d="M104.382 116.114C105.204 116.013 105.789 115.265 105.688 114.443C105.588 113.621 104.84 113.036 104.018 113.136L104.2 114.625L104.382 116.114ZM88.7246 114.625L88.6737 116.124C98.3562 116.453 103.13 116.267 104.382 116.114L104.2 114.625L104.018 113.136C103.027 113.257 98.4703 113.455 88.7755 113.126L88.7246 114.625Z" fill="#D9D9D9"/>
<path d="M62.8202 158.626C54.7463 78.4393 75.9402 59.5234 79.9771 50.8879C84.0141 42.2523 93.0972 25.3925 96.4613 11" stroke="#D9D9D9" stroke-width="3"/>
<path d="M253.543 696.531C264.04 585.01 265.318 573.304 264.645 581.391C265.094 563.846 263.905 525.466 255.562 512.307C247.219 499.148 265.318 425.952 275.41 390.999" stroke="#D9D9D9" stroke-width="4"/>
<path d="M323.18 595.372C243.787 597.675 217.435 600.169 214.183 601.129" stroke="#D9D9D9" stroke-width="3" stroke-linecap="round"/>
<path d="M294.776 668.806C294.68 669.629 295.269 670.374 296.092 670.47C296.915 670.566 297.66 669.977 297.756 669.155L296.266 668.98L294.776 668.806ZM299.967 594.962L298.468 594.891C297.123 623.346 296.226 641.609 295.651 652.877C295.364 658.511 295.157 662.395 295.016 664.93C294.945 666.197 294.89 667.125 294.85 667.765C294.83 668.085 294.814 668.33 294.801 668.508C294.794 668.597 294.789 668.667 294.784 668.72C294.782 668.746 294.78 668.767 294.779 668.782C294.778 668.79 294.778 668.796 294.777 668.8C294.777 668.805 294.776 668.807 294.776 668.806L296.266 668.98L297.756 669.155C297.876 668.127 298.776 651.89 301.465 595.033L299.967 594.962Z" fill="#D9D9D9"/>
<path d="M323.18 595.374C331.254 675.561 310.06 694.477 306.023 703.112C301.986 711.748 292.903 728.607 289.539 743" stroke="#D9D9D9" stroke-width="3"/>
<path d="M68.4477 175.656C68.5512 174.556 67.7436 173.581 66.6439 173.478C65.5442 173.374 64.5688 174.182 64.4653 175.281L66.4565 175.469L68.4477 175.656ZM55.355 290.609L57.3543 290.66L53.3619 290.443L55.355 290.609ZM66.4565 175.469L64.4653 175.281C59.2173 231.042 56.274 261.846 54.7269 277.698C53.9528 285.629 53.5294 289.805 53.342 291.492C53.2941 291.923 53.2651 292.159 53.2513 292.253C53.2476 292.279 53.2491 292.265 53.2555 292.232C53.2573 292.223 53.2692 292.161 53.2928 292.08C53.3025 292.047 53.333 291.943 53.3904 291.816C53.4226 291.749 53.5157 291.583 53.5795 291.487C53.6975 291.337 54.0914 290.987 54.3848 290.823C54.8897 290.671 55.924 290.777 56.3823 291.025C56.633 291.24 56.9454 291.652 57.0307 291.818C57.1519 292.086 57.1821 292.318 57.1864 292.346C57.2055 292.475 57.2065 292.575 57.2066 292.582C57.2076 292.629 57.206 292.655 57.2069 292.633C57.2137 292.454 57.2621 291.809 57.3481 290.775L55.355 290.609L53.3619 290.443C53.2797 291.431 53.2208 292.189 53.2097 292.482C53.2083 292.519 53.2059 292.59 53.2075 292.666C53.208 292.687 53.2097 292.798 53.2298 292.934C53.2346 292.966 53.2655 293.201 53.3874 293.47C53.473 293.637 53.7858 294.049 54.0368 294.265C54.4956 294.513 55.5303 294.619 56.0356 294.467C56.3294 294.302 56.7238 293.952 56.8424 293.801C56.9066 293.705 57.0002 293.538 57.033 293.469C57.0915 293.34 57.1231 293.233 57.1341 293.195C57.1603 293.105 57.1751 293.03 57.1803 293.004C57.1932 292.938 57.203 292.875 57.2091 292.832C57.2346 292.659 57.2708 292.354 57.3175 291.934C57.5085 290.215 57.9346 286.011 58.708 278.086C60.2558 262.227 63.1997 231.417 68.4477 175.656L66.4565 175.469ZM55.355 290.609L53.3556 290.558C53.1298 299.393 53.3156 313.457 54.6088 326.986C55.2553 333.751 56.1821 340.419 57.4841 346.25C58.7769 352.041 60.4756 357.178 62.749 360.764L64.4381 359.693L66.1272 358.622C64.229 355.628 62.6505 351.034 61.388 345.379C60.1347 339.765 59.228 333.274 58.5906 326.606C57.3159 313.269 57.1316 299.37 57.3543 290.66L55.355 290.609ZM64.4381 359.693L62.749 360.764C63.5261 361.99 64.125 364.174 64.4018 367.42C64.6732 370.603 64.6177 374.563 64.2811 379.137C63.6084 388.28 61.8297 399.667 59.4642 411.791C54.7355 436.029 47.704 463.006 42.6683 480.447L44.5898 481.001L46.5113 481.556C51.568 464.043 58.6321 436.946 63.3902 412.557C65.7681 400.369 67.5806 388.805 68.2703 379.43C68.615 374.746 68.6836 370.555 68.3873 367.08C68.0964 363.668 67.4358 360.686 66.1272 358.622L64.4381 359.693Z" fill="#D9D9D9"/>
<path d="M62.4199 222.348C97.9449 226.953 108.62 226.46 109.517 225.637" stroke="#D9D9D9" stroke-width="3"/>
<path d="M60.4023 248.254C97.273 249.57 119.499 248.802 126.002 248.254" stroke="#D9D9D9" stroke-width="3"/>
<path d="M-3.17969 276.628C76.2133 274.325 102.565 271.831 105.817 270.871" stroke="#D9D9D9" stroke-width="3" stroke-linecap="round"/>
<path d="M25.2236 203.194C25.3197 202.371 24.7307 201.626 23.9078 201.53C23.085 201.434 22.34 202.023 22.2439 202.845L23.7337 203.02L25.2236 203.194ZM20.0332 277.038L21.5315 277.109C22.8771 248.654 23.7741 230.391 24.3487 219.123C24.636 213.489 24.8426 209.605 24.9843 207.07C25.0552 205.803 25.1097 204.875 25.15 204.235C25.1701 203.915 25.1864 203.67 25.1993 203.492C25.2058 203.403 25.2112 203.333 25.2156 203.28C25.2178 203.254 25.2197 203.233 25.2212 203.218C25.2219 203.21 25.2225 203.204 25.2229 203.2C25.2234 203.195 25.2236 203.193 25.2236 203.194L23.7337 203.02L22.2439 202.845C22.1237 203.873 21.2236 220.11 18.5349 276.967L20.0332 277.038Z" fill="#D9D9D9"/>
<path d="M38.3815 234.114C39.2038 234.013 39.7889 233.265 39.6884 232.443C39.5879 231.621 38.8398 231.036 38.0175 231.136L38.1995 232.625L38.3815 234.114ZM22.7246 232.625L22.6737 234.124C32.3562 234.453 37.1296 234.267 38.3815 234.114L38.1995 232.625L38.0175 231.136C37.0267 231.257 32.4703 231.455 22.7755 231.126L22.7246 232.625Z" fill="#D9D9D9"/>
<path d="M31.9219 129.341C32.1105 128.535 31.6094 127.728 30.8027 127.539C29.996 127.351 29.1892 127.852 29.0006 128.659L30.4613 129L31.9219 129.341ZM-3.17983 276.626L-1.68738 276.476C-5.71052 236.519 -2.42863 211.952 2.29272 196.36C4.65209 188.568 7.3785 182.992 9.75955 178.834C10.9541 176.748 12.0627 175.017 13.017 173.51C13.9545 172.03 14.7831 170.706 15.336 169.523L13.9771 168.888L12.6183 168.253C12.1619 169.229 11.4451 170.385 10.4825 171.905C9.5365 173.399 8.39012 175.189 7.15621 177.343C4.68032 181.667 1.85595 187.451 -0.578533 195.491C-5.44489 211.562 -8.72301 236.546 -4.67229 276.776L-3.17983 276.626ZM13.9771 168.888L15.336 169.523C19.3075 161.027 28.5108 143.935 31.9219 129.341L30.4613 129L29.0006 128.659C25.6835 142.85 16.7206 159.477 12.6183 168.253L13.9771 168.888Z" fill="#D9D9D9"/>
<path d="M445.687 143.757C287.932 124.451 271.369 122.062 282.806 123.281C258.022 122.711 203.87 125.916 185.534 143.294C167.198 160.672 63.3317 125.004 13.6906 104.998" stroke="#D9D9D9" stroke-width="4"/>
<path d="M340.195 132.414C336.092 230.607 337.097 260.083 338.113 262.546" stroke="#D9D9D9" stroke-width="3"/>
<path d="M305.789 130.48C311.604 206.02 309.48 251.635 307.691 265" stroke="#D9D9D9" stroke-width="3"/>
<path d="M274.371 54.6709C279.831 137.999 284.859 165.612 286.691 169.002" stroke="#D9D9D9" stroke-width="3" stroke-linecap="round"/>
<path d="M362.426 87.1911C363.25 87.2762 363.987 86.6771 364.072 85.8531C364.157 85.029 363.558 84.292 362.734 84.207L362.58 85.699L362.426 87.1911ZM274.275 82.5095L274.224 84.0087C342.174 86.2782 361.349 87.0799 362.426 87.1911L362.58 85.699L362.734 84.207C361.52 84.0816 342.164 83.2762 274.325 81.0104L274.275 82.5095Z" fill="#D9D9D9"/>
<path d="M326.042 103.746C326.153 104.567 326.909 105.142 327.73 105.031C328.551 104.919 329.126 104.163 329.014 103.342L327.528 103.544L326.042 103.746ZM327.266 84.9883L325.766 84.9589C325.538 96.576 325.842 102.274 326.042 103.746L327.528 103.544L329.014 103.342C328.849 102.13 328.537 96.6471 328.765 85.0177L327.266 84.9883Z" fill="#D9D9D9"/>
<path d="M274.371 54.6689C369.831 43.6357 392.741 68.7305 403.104 73.4256C413.468 78.1208 433.722 88.7281 450.937 92.5194" stroke="#D9D9D9" stroke-width="3"/>
<path d="M269.443 404.467C136.312 393.761 122.335 392.425 131.988 393.096C111.063 392.854 65.3279 394.926 49.7817 405.152C34.2355 415.378 -53.334 394.909 -95.1754 383.397" stroke="#D9D9D9" stroke-width="4"/>
<path d="M213.488 400.414C208.6 443.09 209.369 455.883 210.365 456.944" stroke="#D9D9D9" stroke-width="3"/>
<path d="M182.568 398.43C181.624 442.664 182.917 469.301 183.681 477.091" stroke="#D9D9D9" stroke-width="3"/>
<path d="M147.664 322.667C151.756 417.829 155.176 449.386 156.376 453.269" stroke="#D9D9D9" stroke-width="3" stroke-linecap="round"/>
<path d="M235.719 355.191C236.543 355.276 237.28 354.677 237.365 353.853C237.45 353.029 236.851 352.292 236.027 352.207L235.873 353.699L235.719 355.191ZM147.567 350.51L147.517 352.009C215.467 354.278 234.642 355.08 235.719 355.191L235.873 353.699L236.027 352.207C234.813 352.082 215.457 351.276 147.618 349.01L147.567 350.51Z" fill="#D9D9D9"/>
<path d="M199.335 371.746C199.446 372.567 200.202 373.142 201.023 373.031C201.844 372.919 202.419 372.163 202.307 371.342L200.821 371.544L199.335 371.746ZM200.559 352.988L199.059 352.959C198.831 364.576 199.135 370.274 199.335 371.746L200.821 371.544L202.307 371.342C202.142 370.13 201.83 364.647 202.058 353.018L200.559 352.988Z" fill="#D9D9D9"/>
<path d="M144.015 323.669C239.475 312.636 262.386 337.731 272.749 342.426C283.112 347.121 303.366 357.728 320.582 361.519" stroke="#D9D9D9" stroke-width="3"/>
<path d="M446.647 407.762C326.579 423.75 313.979 425.669 322.688 424.629C303.775 425.508 262.361 424.475 248.009 413.319C233.657 402.163 155.067 427.916 117.566 442.187" stroke="#D9D9D9" stroke-width="4"/>
<path d="M396.168 413.973C390.517 365.685 390.844 351.146 391.714 349.912" stroke="#D9D9D9" stroke-width="3"/>
<path d="M368.268 417.113C366.138 366.944 366.539 336.678 367.005 327.817" stroke="#D9D9D9" stroke-width="3"/>
<path d="M338.893 504.096C339.848 395.989 342.031 360.079 343.004 355.638" stroke="#D9D9D9" stroke-width="3" stroke-linecap="round"/>
<path d="M417.517 464.857C418.335 464.725 419.105 465.28 419.238 466.098C419.37 466.916 418.815 467.686 417.997 467.818L417.757 466.338L417.517 464.857ZM338.002 472.504L337.892 471.008C368.553 468.742 388.231 467.243 400.372 466.289C406.442 465.812 410.627 465.471 413.357 465.24C414.722 465.124 415.721 465.036 416.409 464.971C416.753 464.939 417.016 464.913 417.207 464.893C417.303 464.883 417.377 464.875 417.432 464.868C417.46 464.865 417.481 464.862 417.497 464.86C417.513 464.858 417.519 464.857 417.517 464.857L417.757 466.338L417.997 467.818C417.4 467.915 412.693 468.33 400.607 469.28C388.46 470.234 368.777 471.734 338.113 474L338.002 472.504Z" fill="#D9D9D9"/>
<path d="M384.053 446.976C384.121 446.151 384.845 445.536 385.671 445.604C386.496 445.672 387.111 446.397 387.043 447.222L385.548 447.099L384.053 446.976ZM385.846 468.164L384.347 468.225C383.807 455.047 383.919 448.608 384.053 446.976L385.548 447.099L387.043 447.222C386.926 448.647 386.804 454.914 387.344 468.103L385.846 468.164Z" fill="#D9D9D9"/>
<path d="M338.892 504.097C425.525 513.864 445.517 484.726 454.752 479.099C463.988 473.472 481.995 460.851 497.452 456.052" stroke="#D9D9D9" stroke-width="3"/>
<path d="M598 200.935V-707.48C598 -707.48 591.723 -767 529.996 -767C468.268 -767 459.898 -707.48 459.898 -707.48V-589.415C459.898 -589.415 456.76 -535.749 415.957 -498.671C375.154 -461.593 316.566 -459.642 316.566 -459.642H193.559C193.559 -459.642 113 -462.569 113 -393.291C113 -324.013 193.559 -327.916 193.559 -327.916H452.575C452.575 -327.916 518.487 -327.916 518.487 -261.566C518.487 -195.216 460.945 -194.24 460.945 -194.24H274.084C274.084 -194.24 213.403 -189.361 213.403 -128.865C213.403 -68.3693 274.084 -68.3693 274.084 -68.3693H339.212C431.954 -68.3693 437.172 -54.8976 437.172 57.5013V182.396C437.172 182.396 428.802 243.868 364.982 243.868C301.163 243.868 294.885 182.396 294.885 182.396V96.531C294.885 96.531 294.412 49.6954 236.87 49.6954C179.327 49.6954 179.511 100.434 179.511 100.434V182.396C179.511 244.432 191.863 298.634 281.162 317.769C285.187 318.631 289.324 319 293.44 319H456.76C589.63 319 598 200.935 598 200.935Z" stroke="url(#paint0_linear_251_95677)" stroke-width="30"/>
<rect x="71.5" y="319.5" width="134" height="30" rx="15" fill="white"/>
<rect x="71.5" y="319.5" width="134" height="30" rx="15" stroke="#BF4B17" stroke-width="3"/>
<path d="M99.7876 334.652L98.3796 334.076C98.4223 333.553 98.5556 333.073 98.7796 332.636C99.0143 332.199 99.3236 331.825 99.7076 331.516C100.092 331.196 100.545 330.951 101.068 330.78C101.601 330.609 102.182 330.524 102.812 330.524C103.452 330.524 104.022 330.609 104.524 330.78C105.036 330.94 105.473 331.18 105.836 331.5C106.198 331.809 106.476 332.188 106.668 332.636C106.86 333.073 106.956 333.564 106.956 334.108V339.5H105.212V334.332C105.212 333.553 104.988 332.935 104.54 332.476C104.092 332.017 103.468 331.788 102.668 331.788C102.017 331.788 101.452 331.937 100.972 332.236C100.492 332.524 100.166 332.908 99.9956 333.388L100.732 333.66C101.02 333.777 101.222 333.916 101.34 334.076C101.468 334.225 101.532 334.449 101.532 334.748V339.5H99.7876V334.652ZM102.141 343.964C101.661 343.964 101.283 343.836 101.005 343.58C100.717 343.335 100.573 342.988 100.573 342.54C100.573 342.092 100.717 341.74 101.005 341.484C101.283 341.239 101.661 341.116 102.141 341.116C102.621 341.116 103.005 341.239 103.293 341.484C103.571 341.74 103.709 342.092 103.709 342.54V344.108H104.637C104.915 344.108 105.117 344.044 105.245 343.916C105.363 343.799 105.421 343.607 105.421 343.34V341.244H106.957V343.228C106.957 343.868 106.803 344.385 106.493 344.78C106.184 345.175 105.715 345.372 105.086 345.372H103.485C103.037 345.372 102.717 345.276 102.525 345.084C102.333 344.892 102.237 344.641 102.237 344.332V343.964H102.141ZM102.109 343.132C102.483 343.132 102.669 342.935 102.669 342.54C102.669 342.145 102.483 341.948 102.109 341.948C101.736 341.948 101.549 342.145 101.549 342.54C101.549 342.935 101.736 343.132 102.109 343.132ZM106.895 325.788L106.687 329.084H105.487L105.279 325.788H106.895ZM113.798 339.692C113.286 339.692 112.822 339.628 112.406 339.5C111.99 339.383 111.638 339.207 111.35 338.972C111.062 338.737 110.838 338.46 110.678 338.14C110.518 337.82 110.438 337.457 110.438 337.052C110.438 336.561 110.54 336.14 110.742 335.788C110.945 335.436 111.238 335.052 111.622 334.636C111.942 334.295 112.182 333.996 112.342 333.74C112.513 333.484 112.598 333.175 112.598 332.812C112.598 332.407 112.465 332.087 112.198 331.852C111.942 331.617 111.558 331.5 111.046 331.5C110.769 331.5 110.534 331.532 110.342 331.596L110.358 331.676C110.401 331.676 110.438 331.676 110.47 331.676C110.502 331.665 110.54 331.66 110.582 331.66C110.934 331.66 111.228 331.767 111.462 331.98C111.708 332.193 111.83 332.492 111.83 332.876C111.83 333.281 111.692 333.623 111.414 333.9C111.148 334.167 110.774 334.3 110.294 334.3C109.825 334.3 109.452 334.156 109.174 333.868C108.897 333.58 108.758 333.185 108.758 332.684C108.758 332.385 108.817 332.108 108.934 331.852C109.052 331.585 109.222 331.356 109.446 331.164C109.67 330.961 109.942 330.807 110.262 330.7C110.593 330.583 110.961 330.524 111.366 330.524C112.209 330.524 112.865 330.721 113.334 331.116C113.804 331.511 114.038 332.055 114.038 332.748C114.038 333.175 113.964 333.553 113.814 333.884C113.676 334.215 113.441 334.567 113.11 334.94C112.79 335.313 112.556 335.628 112.406 335.884C112.257 336.14 112.182 336.423 112.182 336.732V336.908C112.182 337.335 112.316 337.687 112.582 337.964C112.86 338.231 113.265 338.364 113.798 338.364C114.342 338.364 114.769 338.236 115.078 337.98C115.388 337.713 115.542 337.292 115.542 336.716V335.5C115.542 334.327 115.201 333.74 114.518 333.74H114.358V332.54H114.518C114.881 332.54 115.169 332.455 115.382 332.284C115.606 332.103 115.718 331.788 115.718 331.34V330.396H117.43V331.148C117.43 331.66 117.27 332.049 116.95 332.316C116.641 332.583 116.225 332.753 115.702 332.828V332.924C116.31 333.073 116.742 333.441 116.998 334.028C117.254 334.604 117.382 335.297 117.382 336.108C117.382 336.727 117.292 337.26 117.11 337.708C116.929 338.156 116.678 338.529 116.358 338.828C116.038 339.116 115.66 339.335 115.222 339.484C114.785 339.623 114.31 339.692 113.798 339.692ZM110.31 333.516C110.524 333.516 110.689 333.457 110.806 333.34C110.924 333.212 110.982 333.036 110.982 332.812C110.982 332.588 110.924 332.417 110.806 332.3C110.689 332.172 110.524 332.108 110.31 332.108C110.097 332.108 109.932 332.172 109.814 332.3C109.697 332.417 109.638 332.588 109.638 332.812C109.638 333.036 109.697 333.212 109.814 333.34C109.932 333.457 110.097 333.516 110.31 333.516ZM113.595 328.492L114.507 327.964L114.491 327.948C114.15 327.895 113.883 327.756 113.691 327.532C113.499 327.308 113.403 327.025 113.403 326.684C113.403 326.247 113.547 325.9 113.835 325.644C114.123 325.388 114.513 325.26 115.003 325.26C115.494 325.26 115.883 325.388 116.171 325.644C116.459 325.9 116.603 326.247 116.603 326.684C116.603 326.961 116.529 327.212 116.379 327.436C116.23 327.649 115.974 327.836 115.611 327.996V328.108H117.547L118.251 326.076H119.707L118.939 327.852C118.843 328.076 118.747 328.268 118.651 328.428C118.545 328.577 118.427 328.705 118.299 328.812C118.171 328.908 118.027 328.977 117.867 329.02C117.697 329.063 117.494 329.084 117.259 329.084H113.595V328.492ZM115.003 327.372C115.206 327.372 115.366 327.313 115.484 327.196C115.601 327.079 115.659 326.913 115.659 326.7C115.659 326.487 115.601 326.321 115.484 326.204C115.366 326.087 115.206 326.028 115.003 326.028C114.801 326.028 114.641 326.087 114.523 326.204C114.406 326.321 114.347 326.487 114.347 326.7C114.347 326.913 114.406 327.079 114.523 327.196C114.641 327.313 114.801 327.372 115.003 327.372ZM123.601 339.5V333.532C123.601 332.988 123.463 332.572 123.185 332.284C122.908 331.985 122.481 331.836 121.905 331.836C121.393 331.836 120.977 331.953 120.657 332.188C120.348 332.423 120.087 332.711 119.873 333.052L118.817 332.14C119.105 331.66 119.505 331.271 120.017 330.972C120.529 330.673 121.212 330.524 122.065 330.524C123.132 330.524 123.943 330.775 124.497 331.276C125.063 331.777 125.345 332.497 125.345 333.436V339.5H123.601ZM130.112 339.5L127.264 333.196H129.04L131.344 338.252H132.48V333.948H132.352C131.797 333.948 131.344 333.799 130.992 333.5C130.651 333.191 130.48 332.769 130.48 332.236C130.48 331.703 130.651 331.287 130.992 330.988C131.344 330.679 131.797 330.524 132.352 330.524C132.907 330.524 133.355 330.679 133.696 330.988C134.048 331.287 134.224 331.703 134.224 332.236V339.5H130.112ZM132.304 333.052C132.539 333.052 132.725 332.977 132.864 332.828C133.003 332.679 133.072 332.481 133.072 332.236C133.072 331.991 133.003 331.793 132.864 331.644C132.725 331.495 132.539 331.42 132.304 331.42C132.069 331.42 131.883 331.495 131.744 331.644C131.605 331.793 131.536 331.991 131.536 332.236C131.536 332.481 131.605 332.679 131.744 332.828C131.883 332.977 132.069 333.052 132.304 333.052ZM140.523 335.516V333.74H144.955V335.516H140.523ZM152.006 334.652L150.598 334.076C150.641 333.553 150.774 333.073 150.998 332.636C151.233 332.199 151.542 331.825 151.926 331.516C152.31 331.196 152.764 330.951 153.286 330.78C153.82 330.609 154.401 330.524 155.03 330.524C155.67 330.524 156.241 330.609 156.742 330.78C157.254 330.94 157.692 331.18 158.054 331.5C158.417 331.809 158.694 332.188 158.886 332.636C159.078 333.073 159.174 333.564 159.174 334.108V339.5H157.43V334.332C157.43 333.553 157.206 332.935 156.758 332.476C156.31 332.017 155.686 331.788 154.886 331.788C154.236 331.788 153.67 331.937 153.19 332.236C152.71 332.524 152.385 332.908 152.214 333.388L152.95 333.66C153.238 333.777 153.441 333.916 153.558 334.076C153.686 334.225 153.75 334.449 153.75 334.748V339.5H152.006V334.652ZM154.36 343.964C153.88 343.964 153.502 343.836 153.224 343.58C152.936 343.335 152.792 342.988 152.792 342.54C152.792 342.092 152.936 341.74 153.224 341.484C153.502 341.239 153.88 341.116 154.36 341.116C154.84 341.116 155.224 341.239 155.512 341.484C155.79 341.74 155.928 342.092 155.928 342.54V344.108H156.856C157.134 344.108 157.336 344.044 157.464 343.916C157.582 343.799 157.64 343.607 157.64 343.34V341.244H159.176V343.228C159.176 343.868 159.022 344.385 158.712 344.78C158.403 345.175 157.934 345.372 157.304 345.372H155.704C155.256 345.372 154.936 345.276 154.744 345.084C154.552 344.892 154.456 344.641 154.456 344.332V343.964H154.36ZM154.328 343.132C154.702 343.132 154.888 342.935 154.888 342.54C154.888 342.145 154.702 341.948 154.328 341.948C153.955 341.948 153.768 342.145 153.768 342.54C153.768 342.935 153.955 343.132 154.328 343.132ZM159.114 325.788L158.906 329.084H157.706L157.498 325.788H159.114ZM163.141 339.692C162.586 339.692 162.133 339.537 161.781 339.228C161.439 338.919 161.269 338.492 161.269 337.948C161.269 337.404 161.439 336.977 161.781 336.668C162.133 336.359 162.586 336.204 163.141 336.204C163.237 336.204 163.311 336.209 163.365 336.22C163.322 336.06 163.301 335.863 163.301 335.628V333.948H163.173C162.618 333.948 162.165 333.799 161.813 333.5C161.471 333.191 161.301 332.769 161.301 332.236C161.301 331.703 161.471 331.287 161.813 330.988C162.165 330.679 162.618 330.524 163.173 330.524C163.727 330.524 164.175 330.679 164.517 330.988C164.869 331.287 165.045 331.703 165.045 332.236V336.748L167.957 338.108H168.037V330.716H169.781V339.5H168.117L165.013 338.012C164.991 338.545 164.81 338.961 164.469 339.26C164.127 339.548 163.685 339.692 163.141 339.692ZM163.141 338.796C163.397 338.796 163.594 338.732 163.733 338.604C163.882 338.476 163.957 338.3 163.957 338.076V337.788C163.957 337.564 163.882 337.388 163.733 337.26C163.594 337.132 163.397 337.068 163.141 337.068C162.885 337.068 162.682 337.132 162.533 337.26C162.394 337.388 162.325 337.564 162.325 337.788V338.076C162.325 338.3 162.394 338.476 162.533 338.604C162.682 338.732 162.885 338.796 163.141 338.796ZM163.125 333.052C163.359 333.052 163.546 332.977 163.685 332.828C163.823 332.679 163.893 332.481 163.893 332.236C163.893 331.991 163.823 331.793 163.685 331.644C163.546 331.495 163.359 331.42 163.125 331.42C162.89 331.42 162.703 331.495 162.565 331.644C162.426 331.793 162.357 331.991 162.357 332.236C162.357 332.481 162.426 332.679 162.565 332.828C162.703 332.977 162.89 333.052 163.125 333.052ZM166.095 328.492L167.007 327.964L166.991 327.948C166.65 327.895 166.383 327.756 166.191 327.532C165.999 327.308 165.903 327.025 165.903 326.684C165.903 326.247 166.047 325.9 166.335 325.644C166.623 325.388 167.013 325.26 167.503 325.26C167.994 325.26 168.383 325.388 168.671 325.644C168.959 325.9 169.103 326.247 169.103 326.684C169.103 326.961 169.029 327.212 168.879 327.436C168.73 327.649 168.474 327.836 168.111 327.996V328.108H170.047L170.751 326.076H172.207L171.439 327.852C171.343 328.076 171.247 328.268 171.151 328.428C171.045 328.577 170.927 328.705 170.799 328.812C170.671 328.908 170.527 328.977 170.367 329.02C170.197 329.063 169.994 329.084 169.759 329.084H166.095V328.492ZM167.503 327.372C167.706 327.372 167.866 327.313 167.984 327.196C168.101 327.079 168.159 326.913 168.159 326.7C168.159 326.487 168.101 326.321 167.984 326.204C167.866 326.087 167.706 326.028 167.503 326.028C167.301 326.028 167.141 326.087 167.023 326.204C166.906 326.321 166.847 326.487 166.847 326.7C166.847 326.913 166.906 327.079 167.023 327.196C167.141 327.313 167.301 327.372 167.503 327.372ZM176.289 339.5V333.532C176.289 332.988 176.15 332.572 175.873 332.284C175.596 331.985 175.169 331.836 174.593 331.836C174.081 331.836 173.665 331.953 173.345 332.188C173.036 332.423 172.774 332.711 172.561 333.052L171.505 332.14C171.793 331.66 172.193 331.271 172.705 330.972C173.217 330.673 173.9 330.524 174.753 330.524C175.82 330.524 176.63 330.775 177.185 331.276C177.75 331.777 178.033 332.497 178.033 333.436V339.5H176.289Z" fill="black"/>
<circle cx="46" cy="335" r="19" fill="#BF4B17"/>
<path d="M49.0191 334.024C49.0191 334.824 48.8965 335.581 48.6511 336.296C48.4165 337 48.1071 337.651 47.7231 338.248C47.3391 338.835 46.9071 339.363 46.4271 339.832C45.9578 340.291 45.4885 340.68 45.0191 341H42.1711C42.8218 340.531 43.4085 340.077 43.9311 339.64C44.4538 339.203 44.9071 338.76 45.2911 338.312C45.6858 337.864 46.0058 337.4 46.2511 336.92C46.5071 336.429 46.6991 335.901 46.8271 335.336L46.6991 335.304C46.5925 335.517 46.4645 335.725 46.3151 335.928C46.1765 336.131 46.0058 336.307 45.8031 336.456C45.6005 336.605 45.3658 336.728 45.0991 336.824C44.8325 336.909 44.5231 336.952 44.1711 336.952C43.7018 336.952 43.2698 336.872 42.8751 336.712C42.4805 336.552 42.1338 336.323 41.8351 336.024C41.5471 335.715 41.3178 335.352 41.1471 334.936C40.9871 334.509 40.9071 334.029 40.9071 333.496C40.9071 332.931 41.0031 332.413 41.1951 331.944C41.3871 331.475 41.6591 331.069 42.0111 330.728C42.3631 330.387 42.7845 330.12 43.2751 329.928C43.7765 329.736 44.3365 329.64 44.9551 329.64C45.5951 329.64 46.1658 329.747 46.6671 329.96C47.1685 330.163 47.5951 330.456 47.9471 330.84C48.2991 331.213 48.5658 331.672 48.7471 332.216C48.9285 332.749 49.0191 333.352 49.0191 334.024ZM44.9551 335.32C45.5525 335.32 46.0165 335.16 46.3471 334.84C46.6778 334.509 46.8431 334.04 46.8431 333.432V333.192C46.8431 332.584 46.6778 332.12 46.3471 331.8C46.0165 331.469 45.5525 331.304 44.9551 331.304C44.3685 331.304 43.9045 331.469 43.5631 331.8C43.2325 332.12 43.0671 332.584 43.0671 333.192V333.432C43.0671 334.04 43.2325 334.509 43.5631 334.84C43.9045 335.16 44.3685 335.32 44.9551 335.32Z" fill="#F4F4F4"/>
<path d="M157.929 210.855C159.263 218.424 157.78 227.021 157.929 234.836L154.15 240.914L151.459 243.768L155.438 244.02V245.547C153.68 245.793 151.052 245.077 149.472 245.811C147.891 246.545 145.961 250.509 143.494 250.661L143.768 251.677L145.48 252.687C144.135 252.775 142.686 252.487 141.358 252.799C140.27 253.051 137.847 255.241 137.269 255.241H129.556V256.768L134.034 256.774L131.549 258.811H157.929C158.427 253.627 157.265 247.22 157.901 242.2C158.038 241.102 158.399 240.773 158.926 239.933H159.424C158.989 242.699 159.017 254.196 159.401 257.056C159.784 259.915 160.998 261.254 160.918 264.942C160.89 266.322 159.905 268.747 160.42 270.555C164.434 269.651 168.54 270.279 172.605 270.039C173.768 269.968 178.755 269.534 179.322 269.269C181.401 268.301 183.794 263.057 186.801 262.898C186.812 262.992 187.207 263.215 187.299 263.409C184.63 264.049 182.071 269.387 179.431 270.397C175.474 271.906 168.683 270.714 164.217 271.131C160.306 271.495 157.231 273.245 153.463 273.885C150.159 276.697 148.286 281.495 148.475 285.869H150.462C149.334 281.213 150.525 275.723 155.444 274.131V274.642L154.946 282.299C154.757 283.151 155.158 284.566 154.946 285.358C154.625 286.574 152.077 287.93 151.613 288.576C151.184 289.175 151.138 290.438 150.56 291.324C148.149 295.006 146.099 296.233 147.485 301.172H150.468C148.441 299.046 150.102 296.392 151.378 294.202C153.354 290.819 156.543 289.216 158.685 285.875C159.813 285.664 159.372 286.38 159.424 287.138C159.527 288.57 159.063 291.465 159.676 292.499C160.099 293.215 164.251 296.398 165.396 297.86C166.249 298.946 166.415 300.197 167.228 301.195L169.382 300.925C168.116 298.042 163.627 293.785 163.919 290.767C164.079 289.122 166.518 285.717 168.156 285.376C169.679 285.059 177.438 284.325 178.131 285.323C178.921 290.602 173.55 295.893 176.11 301.172L179.586 290.966L182.661 285.928C184.167 285.769 185.506 286.345 187.052 286.427C188.478 286.503 190.282 285.253 191.038 286.891C192.469 289.986 187.184 293.45 189.538 296.58C190.385 294.548 194.731 288.917 194.731 287.138C194.731 286.404 192.756 283.374 192.263 283.074C191.072 282.358 188.541 282.939 187.522 281.272C188.782 276.498 185.587 271.671 189.543 268.013C191.381 270.15 192.578 272.728 192.28 275.658L194.697 275.582C195.974 272.845 195.877 269.962 195.762 266.979H196.26C197.583 271.313 196.97 279.152 190.998 276.181C191.393 273.744 191.353 271.923 189.543 270.05C187.614 270.039 189.291 279.598 188.822 281.242C190.792 281.342 192.899 281.759 194.273 283.303C194.336 283.374 195.235 284.748 195.27 284.836C197.01 289.023 191.238 294.389 190.036 298.611C185.398 295.775 189.738 291.213 190.288 287.39L182.872 286.915C180.845 289.933 182.895 290.678 183.273 293.297C183.582 295.423 182.844 299.175 183.382 300.837C183.766 302.005 185.358 301.677 186.302 301.671C186.623 301.671 187.024 301.729 187.299 301.671C191.548 303.902 194.021 307.296 193.769 312.387C193.483 312.346 192.338 312.34 192.275 312.387C192.447 306.245 189.2 303.374 183.502 302.757C169.009 301.189 149.117 302.651 134.034 302.692C122.662 302.728 105.621 301.254 95.0043 302.739C91.5915 303.215 90.4978 304.425 89.238 307.29C88.7799 308.329 88.4764 308.095 88.2417 309.844C88.1672 310.396 88.1901 311.312 88.2417 311.888C87.5774 311.888 86.9132 311.882 86.249 311.888C86.0314 309.322 88.8944 305.687 89.1349 303.867C89.3754 302.046 87.6347 297.701 87.7091 294.777C87.8065 291.248 90.7612 286.457 88.2474 283.556C85.1381 279.968 84.9548 284.219 83.7581 285.353C83.3515 285.734 82.756 285.723 82.2635 285.863C82.1605 285.893 81.7138 285.194 81.0095 285.811C80.3052 286.427 78.0434 289.721 78.3068 290.661C80.3968 293.344 80.9351 289.428 82.4296 290.021C87.2052 293.174 80.4483 297.138 77.2818 296.075C76.8122 295.916 75.4093 294.29 75.2891 293.52C77.82 294.613 78.8851 295.675 81.6108 294.125C83.4145 293.098 83.8497 292.434 82.0059 290.966C79.6753 294.56 75.4608 291.336 78.3697 287.737L82.2578 282.287C82.7274 282.792 82.6987 283.949 83.0022 283.814L85.0465 280.714C85.6534 280.585 87.7435 281.407 88.2302 281.777C92.5878 285.047 88.6196 291.565 88.694 295.816C88.7112 296.926 89.593 302 90.2 302.487L92.1412 302.105C92.1412 298.647 92.0381 295.259 94.4603 292.499C95.5826 292.287 95.1532 292.998 95.199 293.761C95.3593 296.227 95.0787 298.699 95.72 301.142L98.6862 301.172C98.6003 298.94 98.3255 290.86 100.937 290.42C102.128 290.22 105.059 291.841 106.623 292.264C109.091 292.933 110.975 291.771 112.853 294.554C114.147 296.474 114.238 298.917 114.118 301.166H116.609V293.767L117.605 293.25L118.596 301.166H122.083C122.69 300.549 121.562 294.067 121.614 292.781C121.688 290.978 123.217 287.196 123.572 284.325C124.185 279.375 124.271 274.249 119.249 271.659C113.763 268.829 108.718 271.559 104.046 269.898C100.301 268.565 101.194 264.372 95.4509 264.372C94.2026 264.372 93.0746 264.918 92.0152 264.883C90.8356 264.848 89.3239 263.885 88.2359 263.908L87.7378 262.892C88.0527 262.822 88.4936 262.975 88.7341 262.892C91.2765 264.337 93.63 263.304 96.201 263.403C98.6919 263.503 100.009 264.073 101.675 265.958C102.214 266.562 103.095 269.017 104.412 269.017H114.118V258.811C114.118 258.647 115 259.704 115.115 256.257C115.229 252.81 115.115 249.44 115.115 246.052V237.379C115.601 237.314 116.117 237.42 116.609 237.379C116.724 244.343 116.523 251.337 116.609 258.301L116.861 258.8C117.193 258.829 117.525 258.829 117.857 258.829C118.608 258.829 118.854 259.029 119.1 258.301C119.518 257.085 118.648 255.312 118.602 254.22C121.35 254.954 125.364 250.65 126.063 248.342C126.538 246.762 122.473 248.001 122.083 247.584V246.058C123.778 245.864 125.971 246.469 127.552 245.788C128.875 245.218 135.735 234.954 135.024 234.32C134.2 234.337 130.701 234.731 131.045 233.051C131.331 231.648 135.517 232.617 136.685 232.2C137.326 231.971 137.624 230.838 138.506 230.239C140.722 228.724 143.448 229.299 145.973 229.217V227.179H143.482C142.171 225.899 149.38 221.096 149.964 219.798L157.918 210.855H157.929ZM156.44 233.31H149.964V234.836H156.44V233.31ZM145.486 245.553H139.01V247.079H145.486V245.553ZM115.618 262.393C115.601 262.734 115.63 263.075 115.618 263.415C115.596 264.09 115.607 264.777 115.618 265.459C115.63 265.969 115.596 266.48 115.618 266.991C115.63 267.326 115.584 267.678 115.618 268.013C115.664 268.506 115.51 269.029 115.653 269.516C116.088 269.704 116.798 269.422 117.113 269.545C118.613 270.121 119.844 271.107 121.591 271.589C125.571 272.681 131.635 272.053 136.027 272.1C139.004 272.129 142.01 272.147 144.988 272.1C149.89 272.029 154.705 272.622 159.424 271.078V259.851C155.616 259.839 151.785 259.868 147.977 259.851C144.501 259.833 141.003 259.851 137.527 259.851C136.038 259.851 134.538 259.845 133.049 259.851C127.248 259.874 121.425 259.833 115.624 259.851C115.59 260.696 115.676 261.56 115.624 262.405L115.618 262.393ZM126.069 278.717C126.555 279.07 126.487 279.164 127.26 279.258C130.558 279.651 135.517 279.269 139.01 279.228C142.045 279.193 145.103 279.334 148.137 279.146L151.951 273.62C147.479 273.597 142.984 273.632 138.512 273.62C135.036 273.609 131.537 273.585 128.061 273.62C126.407 273.638 124.74 273.603 123.085 273.62C124.036 274.789 125.038 277.972 126.074 278.717H126.069ZM154.442 276.169C153.869 275.564 151.35 278.118 151.957 279.222L153.909 279.187L154.442 276.169ZM124.082 288.923C128.577 289.58 125.994 282.998 125.565 280.256L124.082 288.923ZM147.971 280.25H126.567L127.558 288.929L150.176 288.958C150.405 286.838 151.43 287.496 152.432 286.621C154.453 284.853 153.927 282.716 153.938 280.244L151.167 280.726L150.88 286.045C150.6 287.279 147.313 287.279 147.032 286.081L147.966 280.25H147.971ZM165.894 288.923H172.863L172.605 285.852C169.845 286.492 167.326 285.875 165.894 288.923ZM177.341 285.863H173.854V288.923L176.774 288.846L177.347 285.858L177.341 285.863ZM123.085 291.219V300.913L123.83 301.677H146.477C146.654 299.692 145.578 297.96 146.099 295.934C146.397 294.777 150.21 291.154 149.46 290.449C145.967 291.178 129.001 289.439 127.162 290.555C126.876 290.731 126.79 291.724 126.315 291.976L125.817 290.426L123.085 291.213V291.219ZM152.701 301.682C155.662 302.546 162.47 301.042 165.894 301.682C165.826 300.532 165.058 299.269 164.4 298.365C162.378 295.599 157.964 293.978 158.427 290.449C155.221 289.175 149.998 296.961 150.537 299.281C150.623 299.645 152.489 301.618 152.701 301.682ZM176.345 290.455H165.396C164.703 293.28 166.289 293.685 167.303 295.388C168.42 297.273 171.099 303.503 173.894 301.459C174.627 300.925 174.615 294.847 174.959 293.368C175.239 292.158 176.396 291.683 176.35 290.455H176.345ZM100.438 301.682H112.383L113.053 300.837C113.66 293.121 109.806 294.278 104.556 292.869C103.313 292.534 102.345 291.459 100.982 291.448C99.9746 291.624 98.7721 301.154 100.438 301.682ZM182.317 301.682V293.773C182.317 293.297 181.132 290.86 180.33 291.477C179.923 295.012 177.49 298.024 177.833 301.682H182.317ZM94.7122 301.682L93.7273 295.564L93.2234 301.688H94.7122V301.682Z" fill="#AE7442"/>
<path d="M145.487 194.526L146.484 203.968L143.993 216.98H136.028V219.024H142.996L138.519 230.251C137.637 230.85 137.339 231.983 136.698 232.212C135.53 232.629 131.344 231.66 131.057 233.063C130.714 234.743 134.207 234.355 135.037 234.332C135.747 234.966 128.887 245.23 127.564 245.799C125.984 246.481 123.791 245.87 122.096 246.07V247.596C122.485 248.013 126.551 246.774 126.076 248.354C125.377 250.661 121.363 254.966 118.614 254.232C118.208 243.856 118.139 231.413 118.614 221.061C119.181 208.748 126.024 196.27 138.026 192.488C140.975 192.641 142.876 193.381 145.493 194.532L145.487 194.526ZM126.076 226.675H120.097V228.712H126.076V226.675Z" fill="#EDBA75"/>
<path d="M157.93 210.855L149.976 219.798C149.398 221.102 142.183 225.905 143.494 227.179H145.985V229.223C143.46 229.305 140.734 228.729 138.518 230.244L142.996 219.017H136.027V216.974H143.992L146.483 203.962L145.487 194.52C152.055 197.397 156.642 203.551 157.93 210.849V210.855Z" fill="#BF8141"/>
<path d="M157.93 234.836C157.958 236.421 157.878 238.019 157.924 239.61L158.926 239.939C158.399 240.784 158.039 241.107 157.901 242.205C157.266 247.226 158.428 253.632 157.93 258.817H131.549L134.035 256.779H129.557V255.241H137.27C137.842 255.241 140.265 253.045 141.358 252.798C142.687 252.493 144.135 252.775 145.481 252.687L143.769 251.677L143.494 250.661C145.962 250.514 147.926 246.533 149.472 245.811C151.018 245.088 153.681 245.787 155.439 245.546V244.02L151.459 243.767L154.151 240.913L157.93 234.836Z" fill="#684A2C"/>
<path d="M138.02 192.482C126.018 196.27 119.175 208.742 118.608 221.055C115.745 221.272 118.957 226.751 116.117 226.669C116.037 218.683 115.43 210.409 119.392 203.24C123.137 196.463 130.324 192.083 138.02 192.482Z" fill="#EFE7DE"/>
<path d="M118.606 221.059C118.131 231.411 118.2 243.853 118.606 254.229C118.646 255.321 119.522 257.095 119.104 258.31H116.613C116.528 251.346 116.728 244.353 116.613 237.388C116.556 233.836 116.15 229.972 116.115 226.672C118.955 226.754 115.737 221.276 118.606 221.059Z" fill="#FCE8BF"/>
<path d="M115.12 237.383V237.894H113.625C114.198 237.676 114.209 237.5 115.12 237.383Z" fill="#5F9645"/>
<path d="M147.971 280.248L147.038 286.079C147.318 287.283 150.605 287.277 150.886 286.044L151.172 280.724L153.943 280.242C153.932 282.714 154.459 284.852 152.437 286.619C151.435 287.494 150.41 286.83 150.181 288.956L127.563 288.927L126.572 280.248H147.977H147.971Z" fill="#9CADC3"/>
<path d="M147.97 259.839C151.778 259.856 155.609 259.827 159.416 259.839V271.066C154.698 272.604 149.888 272.011 144.981 272.088C144.185 267.249 146.315 264.031 147.97 259.839Z" fill="#90818B"/>
<path d="M137.522 259.84C137.156 264.062 135.358 267.679 136.028 272.089C131.636 272.042 125.572 272.676 121.592 271.578L125.074 269.54H117.108C116.794 269.417 116.083 269.693 115.648 269.505C115.505 269.018 115.66 268.495 115.614 268.002C117.486 267.749 127.622 268.642 128.063 267.233C128.28 265.988 127.095 266.516 126.322 266.475C122.961 266.299 118.843 266.199 115.614 266.986C115.591 266.475 115.625 265.964 115.614 265.453C119.548 264.584 124.816 266.223 128.79 265.442C129.62 265.277 130.519 264.655 130.548 263.674L115.608 263.416C115.62 263.075 115.591 262.735 115.608 262.394L131.275 261.872L133.033 259.846C134.522 259.84 136.022 259.846 137.511 259.846L137.522 259.84Z" fill="#B0A5AC"/>
<path d="M147.972 259.84C146.317 264.032 144.192 267.244 144.983 272.089C142.005 272.136 138.999 272.118 136.021 272.089C135.351 267.685 137.149 264.062 137.516 259.84C140.992 259.84 144.49 259.822 147.966 259.84H147.972Z" fill="#A598A0"/>
<path d="M138.518 273.611C142.99 273.629 147.485 273.594 151.957 273.611L148.143 279.137C145.108 279.325 142.051 279.184 139.016 279.219L138.518 273.605V273.611Z" fill="#75717B"/>
<path d="M138.517 273.616L139.015 279.23C135.517 279.271 130.558 279.653 127.265 279.259C126.492 279.165 126.561 279.071 126.074 278.719H128.067V273.616C131.543 273.581 135.041 273.605 138.517 273.616Z" fill="#9A929A"/>
<path d="M133.037 259.84L131.279 261.866L115.613 262.388C115.658 261.543 115.572 260.68 115.613 259.834C121.413 259.822 127.237 259.864 133.037 259.834V259.84Z" fill="#EFE7DE"/>
<path d="M115.617 263.412L130.556 263.67C130.528 264.651 129.629 265.274 128.799 265.438C124.825 266.219 119.556 264.581 115.623 265.45C115.611 264.774 115.6 264.087 115.623 263.406L115.617 263.412Z" fill="#EFE7DE"/>
<path d="M115.618 266.986C118.842 266.199 122.965 266.299 126.326 266.475C127.099 266.516 128.285 265.987 128.067 267.232C127.626 268.642 117.497 267.755 115.618 268.002C115.584 267.667 115.63 267.32 115.618 266.98V266.986Z" fill="#EFE7DE"/>
<path d="M128.062 273.616V278.718H126.069C125.038 277.973 124.036 274.79 123.08 273.622C124.735 273.598 126.401 273.633 128.056 273.622L128.062 273.616Z" fill="#EFE7DE"/>
<path d="M124.082 288.925L125.565 280.258C125.995 283 128.577 289.582 124.082 288.925Z" fill="#9CADC3"/>
<path d="M145.486 245.551H139.01V247.077H145.486V245.551Z" fill="#6C4327"/>
<path d="M156.441 233.312H149.965V234.839H156.441V233.312Z" fill="#6C4327"/>
<path d="M117.113 269.535H125.078L121.597 271.579C119.845 271.097 118.619 270.116 117.119 269.535H117.113Z" fill="#EFE7DE"/>
<path d="M154.442 276.17L153.91 279.188L151.957 279.223C151.35 278.119 153.87 275.565 154.442 276.17Z" fill="#BF9EAB"/>
<path d="M119.098 258.305C118.846 259.027 118.606 258.833 117.856 258.833C117.524 258.833 117.191 258.833 116.859 258.804L116.607 258.305H119.098Z" fill="#EABF68"/>
<path d="M155.439 274.636V274.125L155.926 274.383L155.439 274.636Z" fill="#C7B698"/>
<path d="M126.074 226.676H120.096V228.713H126.074V226.676Z" fill="#AA6F49"/>
<path d="M160.42 235.853C163.506 234.978 167.784 235.595 170.36 237.656C171.145 238.284 171.46 239.599 172.199 239.852C173.292 240.234 174.363 239.811 176.024 240.527C180.376 242.406 181.967 248.237 181.326 252.694C186.13 252.406 188.53 256.446 189.394 260.762C192.286 261.942 194.771 260.668 197.68 260.932C198.545 262.03 197.709 263.451 198.006 264.408C198.728 266.745 200.881 267.99 201.127 271.989C201.219 273.516 200.48 275.342 200.801 276.334C201.059 277.133 203.297 277.826 204.231 278.971C206.922 282.253 206.275 286.886 205.187 290.632C212.602 295.171 211.721 305.201 205.96 310.861C202.146 314.613 197.228 314.273 192.549 315.999H88.9629C84.3877 314.149 79.446 314.396 75.3404 311.078C70.9656 307.538 68.7667 301.167 70.7136 295.712C71.1946 294.355 73.1072 292.141 73.2217 291.631C73.3763 290.944 72.8209 290.116 72.9354 289.317C73.4393 285.712 75.0941 283.991 76.1764 280.897C79.1769 272.312 79.5319 260.48 91.1618 260.286C91.9062 255.812 94.5402 252.394 99.1727 252.165C98.7089 246.687 100.41 241.76 105.649 239.67C106.594 239.294 107.688 239.594 108.638 239.165C109.863 238.619 111.558 235.466 113.895 235.372C115.16 220.539 110.304 205.689 123.343 195.049C135.047 185.496 151.865 190.123 158.198 203.687C162.802 213.546 159.532 225.266 160.42 235.853ZM116.116 226.675C116.151 229.975 116.557 233.839 116.615 237.392C116.128 237.433 115.607 237.327 115.12 237.392C114.21 237.509 114.198 237.685 113.626 237.902C111.61 238.672 110.098 239.464 110.138 241.983C102.385 239.623 99.8885 248.466 101.675 254.737C96.0348 252.876 92.7938 257.386 93.2118 262.905C91.242 262.259 90.6121 262.236 88.7339 262.905C88.4934 262.993 88.0525 262.841 87.7375 262.905L88.2357 263.921C80.786 264.074 79.5835 279.805 76.7891 284.843C75.1629 287.233 74.8594 290.673 75.2946 293.515L74.3097 293.762C71.584 296.698 71.4008 300.562 72.8037 304.226C74.4814 308.6 79.4632 312.2 84.0442 312.411C85.2467 312.464 86.0827 311.883 86.243 311.877C86.9072 311.871 87.5715 311.877 88.2357 311.877C88.2815 312.347 87.9609 313.333 88.5278 313.415L191.559 313.451C191.782 313.468 192 313.433 192.172 313.28C192.401 313.075 192.212 312.429 192.269 312.388C192.326 312.341 193.471 312.347 193.763 312.388C194.399 312.476 194.765 312.916 195.916 312.863C207.506 312.294 213.811 297.15 202.261 291.161C203.366 288.918 203.675 287.855 203.721 285.342C203.796 281.184 202.822 278.56 198.241 278.706C198.722 274.49 199.885 269.194 196.5 265.953L196.254 266.968H195.756C195.727 266.264 194.794 264.919 195.756 263.398C194.72 263.304 193.746 263.627 192.773 263.903C191.839 263.193 188.432 263.122 187.299 263.392C187.207 263.199 186.812 262.976 186.8 262.882C186.491 260.092 187.373 258.119 184.653 255.9C182.477 254.127 181.567 255.113 179.562 255.16C179.179 255.166 178.887 254.714 178.835 254.72C180.662 248.542 177.805 240.14 170.378 242.477C170.904 237.556 160.03 236.029 159.424 239.922H158.925L157.923 239.594C157.877 238.002 157.958 236.405 157.929 234.82C157.78 226.998 159.263 218.408 157.929 210.839C156.641 203.546 152.054 197.392 145.486 194.509C142.869 193.364 140.968 192.618 138.019 192.465C130.323 192.066 123.137 196.447 119.392 203.223C115.429 210.398 116.036 218.666 116.116 226.652V226.675Z" fill="#322115"/>
<path d="M192.276 312.403C192.225 312.444 192.408 313.09 192.179 313.296C192.007 313.448 191.79 313.489 191.566 313.466L88.5352 313.431C87.9626 313.348 88.289 312.362 88.2431 311.892C101.66 311.857 115.191 312.139 128.555 311.628L130.056 309.855H88.2431C88.4779 308.099 88.7814 308.34 89.2395 307.3H131.802C133.423 306.995 134.133 304.147 134.041 302.708C149.124 302.667 169.017 301.199 183.509 302.773C189.207 303.39 192.454 306.261 192.282 312.403H192.276Z" fill="#583C26"/>
<path d="M192.772 263.922C193.745 263.64 194.719 263.317 195.755 263.417C194.793 264.938 195.732 266.282 195.755 266.987C195.87 269.97 195.967 272.853 194.69 275.589L192.274 275.666C192.572 272.736 191.375 270.158 189.537 268.021C185.586 271.679 188.775 276.5 187.515 281.279C188.535 282.947 191.066 282.366 192.257 283.082C192.749 283.376 194.725 286.411 194.725 287.145C194.725 288.925 190.384 294.55 189.531 296.587C187.177 293.458 192.457 289.993 191.031 286.899C190.275 285.266 188.472 286.511 187.046 286.435C185.5 286.353 184.16 285.771 182.654 285.936L179.579 290.974L176.103 301.179C173.543 295.9 178.915 290.61 178.124 285.331C177.426 284.327 169.673 285.067 168.149 285.384C166.512 285.724 164.067 289.13 163.912 290.774C163.62 293.792 168.109 298.055 169.375 300.933L167.222 301.203C166.414 300.205 166.243 298.954 165.389 297.868C164.244 296.405 160.093 293.223 159.669 292.506C159.056 291.467 159.52 288.572 159.417 287.145C159.365 286.388 159.801 285.666 158.678 285.883C156.537 289.224 153.342 290.833 151.372 294.209C150.095 296.4 148.434 299.054 150.461 301.179H147.478C146.092 296.241 148.142 295.014 150.553 291.332C151.131 290.445 151.177 289.183 151.606 288.584C152.07 287.938 154.613 286.588 154.939 285.366C161.06 285.319 167.645 281.732 172.822 278.437C174.408 277.427 177.254 275.959 177.838 274.139C181.365 273.611 182.39 270.88 184.543 269.019C186.696 267.157 189.972 264.732 192.772 263.928V263.922Z" fill="#E89816"/>
<path d="M203.721 285.352C203.675 287.865 203.366 288.928 202.261 291.171C213.811 297.16 207.506 312.304 195.916 312.873C194.771 312.932 194.399 312.486 193.763 312.398C194.015 307.307 191.541 303.913 187.293 301.682C190.866 300.959 189.28 297.195 185.844 299.18L186.296 301.682C185.351 301.682 183.76 302.01 183.376 300.848C182.832 299.186 183.571 295.434 183.267 293.308C182.889 290.683 180.839 289.944 182.866 286.925L190.282 287.401C189.726 291.224 185.392 295.786 190.03 298.622C191.232 294.4 197.004 289.033 195.263 284.847C195.739 284.9 196.477 284.336 196.758 284.336C198.751 284.336 201.562 285.587 203.727 285.358L203.721 285.352ZM199.993 303.214C198.671 303.619 198.985 306.878 200.978 306.268C202.301 305.862 201.986 302.603 199.993 303.214Z" fill="#5D9745"/>
<path d="M159.423 239.94C160.03 236.047 170.904 237.574 170.377 242.495C177.804 240.158 180.667 248.56 178.835 254.738C176.493 255.014 166.678 260.257 165.894 262.395L163.409 261.884V264.438C162.67 264.456 161.748 265.025 160.918 264.949C160.998 261.267 159.767 259.817 159.4 257.063C159.034 254.309 158.994 242.712 159.423 239.94ZM167.211 254.796C165.23 255.472 166.003 258.895 168.07 258.278C169.61 257.82 170.103 253.81 167.211 254.796Z" fill="#9AB867"/>
<path d="M86.2499 311.888C86.0895 311.888 85.2535 312.475 84.051 312.422C79.4701 312.211 74.4883 308.605 72.8105 304.236C74.8662 302.087 75.874 298.717 77.2884 296.074C80.4493 297.137 87.2119 293.174 82.4362 290.021C80.9417 289.433 80.3977 293.344 78.3134 290.661C78.0557 289.727 80.2947 286.445 81.0162 285.81C81.7377 285.176 82.1671 285.893 82.2702 285.863L82.5279 288.417C85.4368 288.911 86.3873 286.803 83.7647 285.352C84.9615 284.219 85.1447 279.968 88.254 283.556C90.7736 286.456 87.8131 291.248 87.7158 294.777C87.6356 297.701 89.3764 302.111 89.1416 303.867C88.9068 305.622 86.038 309.322 86.2556 311.888H86.2499ZM85.2134 300.707C84.2514 299.31 81.1421 301.212 82.4992 303.232C83.6846 304.994 86.1067 302.005 85.2134 300.707Z" fill="#5E9846"/>
<path d="M178.834 254.738C178.886 254.732 179.178 255.185 179.562 255.179C181.566 255.132 182.476 254.145 184.652 255.919C187.372 258.138 186.49 260.111 186.8 262.9C183.793 263.059 181.4 268.302 179.321 269.271C178.754 269.536 173.767 269.97 172.604 270.041C168.539 270.281 164.427 269.653 160.419 270.557C159.904 268.749 160.883 266.324 160.917 264.944C161.748 265.026 162.669 264.451 163.408 264.433C163.752 264.421 164.593 265.367 165.424 264.732C166.203 264.139 165.71 262.889 165.893 262.395C166.678 260.264 176.492 255.02 178.834 254.738ZM172.868 264.427C176.945 266.535 176.55 260.739 173.853 262.131C173.062 262.536 172.713 263.546 172.868 264.427Z" fill="#78A553"/>
<path d="M113.626 237.896H115.121V246.058C114.548 246.81 112.641 247.256 112.269 247.732C110.402 250.116 107.946 250.556 105.163 252.94C103.668 254.22 101.784 256.287 100.433 257.785C99.0416 259.329 97.1405 261.543 96.2072 263.404C93.6361 263.304 91.2827 264.338 88.7402 262.893C90.6127 262.218 91.2483 262.247 93.2181 262.893C92.8001 257.374 96.0411 252.87 101.681 254.725C99.8948 248.454 102.391 239.617 110.145 241.972C110.105 239.447 111.616 238.66 113.632 237.891L113.626 237.896Z" fill="#E1E4B4"/>
<path d="M88.2413 263.922C89.335 263.899 90.841 264.868 92.0206 264.897C93.0742 264.926 94.2079 264.386 95.4563 264.386C101.205 264.386 100.306 268.579 104.051 269.912C108.724 271.573 113.769 268.843 119.254 271.673C124.276 274.263 124.184 279.389 123.577 284.339C122.238 282.407 122.215 279.841 121.339 277.71C118.418 270.61 111.346 273.253 105.66 272.607C104.595 272.484 100.976 271.474 100.192 270.816C98.3652 269.283 100.186 265.872 95.588 266.582C92.7077 267.023 93.0112 267.046 89.9878 266.964C82.4636 266.758 82.6525 276.13 79.7723 281.286C79.0565 282.572 77.4303 283.91 76.7832 284.856C79.5776 279.818 80.7858 264.093 88.2298 263.934L88.2413 263.922Z" fill="#FDE8B7"/>
<path d="M192.773 263.92C189.973 264.725 186.755 267.097 184.545 269.011C182.335 270.925 181.367 273.603 177.84 274.131C174.736 274.595 169.027 273.298 165.128 273.603C157.981 274.155 156.51 275.282 154.941 282.299L155.439 274.642L155.926 274.39L155.439 274.137C150.52 275.729 149.329 281.219 150.457 285.869H148.47C148.281 281.507 150.154 276.703 153.458 273.891C157.225 273.257 160.306 271.501 164.211 271.137C168.678 270.72 175.469 271.912 179.426 270.403C182.066 269.393 184.625 264.055 187.294 263.415C188.427 263.145 191.84 263.216 192.768 263.926L192.773 263.92Z" fill="#FDE8B7"/>
<path d="M196.254 266.988L196.5 265.973C199.884 269.214 198.722 274.51 198.241 278.726C202.822 278.58 203.795 281.204 203.721 285.362C201.556 285.591 198.745 284.346 196.752 284.34C197.743 281.974 194.347 280.952 194.261 283.318C192.887 281.768 190.78 281.357 188.81 281.257C189.279 279.613 187.601 270.048 189.531 270.065C191.341 271.939 191.381 273.759 190.986 276.196C196.958 279.167 197.571 271.328 196.248 266.994L196.254 266.988Z" fill="#7EA750"/>
<path d="M82.2698 282.295L78.3818 287.744C75.4729 291.344 79.6873 294.567 82.0179 290.974C83.8617 292.436 83.4208 293.105 81.6228 294.133C78.9029 295.683 77.8378 294.62 75.3011 293.528C74.8602 290.68 75.1694 287.245 76.7956 284.855C77.437 283.91 79.0632 282.571 79.7847 281.285C80.5749 281.737 81.5999 281.585 82.2756 282.307L82.2698 282.295Z" fill="#E49C1E"/>
<path d="M75.2999 293.523C75.4201 294.293 76.8231 295.919 77.2926 296.078C75.8782 298.726 74.8647 302.091 72.8147 304.24C71.4061 300.576 71.5951 296.706 74.3207 293.776L75.3056 293.529L75.2999 293.523Z" fill="#D6DEAF"/>
<path d="M105.661 272.598C111.347 273.244 118.419 270.607 121.339 277.7C122.215 279.838 122.238 282.404 123.578 284.33C123.223 287.201 121.694 290.983 121.62 292.785C121.568 294.065 122.696 300.554 122.089 301.17H118.602L117.612 293.255L116.615 293.772V301.17H114.124C114.25 298.916 114.159 296.479 112.859 294.559C110.981 291.775 109.097 292.944 106.629 292.269C105.066 291.846 102.134 290.219 100.943 290.425C98.3373 290.865 98.6122 298.939 98.6923 301.176L95.7262 301.147C95.0848 298.704 95.3654 296.232 95.2051 293.766C95.1535 293.003 95.5887 292.292 94.4664 292.503C92.0442 295.263 92.153 298.651 92.1473 302.11L90.2061 302.492C89.5992 302.004 88.7173 296.931 88.7001 295.821C88.6314 291.57 92.5939 285.052 88.2363 281.781C92.3993 281.411 96.608 279.556 100.193 277.454C102.048 276.362 105.1 274.8 105.661 272.598Z" fill="#E89816"/>
<path d="M123.084 291.218L125.815 290.431L126.314 291.981C126.789 291.735 126.875 290.736 127.161 290.56C128.999 289.439 145.966 291.177 149.459 290.455C150.209 291.159 146.395 294.782 146.097 295.939C145.576 297.965 146.653 299.697 146.475 301.682H123.828L123.084 300.918V291.224V291.218Z" fill="#322115"/>
<path d="M105.66 272.598C105.104 274.8 102.046 276.368 100.191 277.454C96.6064 279.556 92.3977 281.412 88.2348 281.782C87.748 281.418 85.6637 280.595 85.051 280.719L83.0068 283.819C82.7033 283.948 82.7319 282.792 82.2624 282.292C81.5867 281.57 80.5674 281.729 79.7715 281.271C82.646 276.115 82.4628 266.744 89.987 266.949C93.0047 267.031 92.7012 267.014 95.5872 266.567C100.185 265.863 98.3644 269.269 100.191 270.801C100.976 271.459 104.594 272.475 105.66 272.592V272.598Z" fill="#EEAD21"/>
<path d="M134.032 302.708C134.124 304.146 133.414 306.994 131.793 307.305H89.2363C90.4961 304.44 91.5898 303.23 95.0026 302.755C105.619 301.269 122.66 302.743 134.032 302.708Z" fill="#845331"/>
<path d="M115.119 256.268C114.122 256.139 113.521 256.65 112.759 257.16C112.296 257.472 109.318 259.721 109.186 259.908C108.957 260.243 110.572 262.709 108.642 263.702C107.635 264.26 106.856 262.809 105.985 262.974C105.115 263.138 103.449 266.268 101.679 265.962C100.007 264.083 98.696 263.508 96.2051 263.408C97.1384 261.547 99.0395 259.333 100.431 257.789C101.782 256.286 103.666 254.219 105.161 252.944C107.944 250.56 110.4 250.12 112.267 247.736C112.639 247.26 114.546 246.808 115.119 246.062C115.119 249.451 115.227 252.886 115.119 256.268Z" fill="#94B960"/>
<path d="M177.838 274.125C177.248 275.939 174.408 277.413 172.822 278.423C167.645 281.717 161.066 285.305 154.939 285.352C155.151 284.553 154.75 283.138 154.939 282.293C156.508 275.276 157.98 274.148 165.126 273.596C169.025 273.297 174.734 274.589 177.838 274.125Z" fill="#EEAD21"/>
<path d="M100.44 301.684C98.7741 301.156 99.9766 291.625 100.984 291.449C102.353 291.461 103.315 292.536 104.558 292.87C109.808 294.279 113.662 293.123 113.055 300.838L112.385 301.684H100.44Z" fill="#322115"/>
<path d="M152.702 301.685C152.49 301.621 150.623 299.648 150.537 299.284C149.993 296.964 155.221 289.178 158.428 290.452C157.964 293.981 162.379 295.596 164.4 298.368C165.059 299.266 165.826 300.535 165.895 301.685C162.471 301.045 155.662 302.549 152.702 301.685Z" fill="#322115"/>
<path d="M115.119 256.268C115.004 259.715 114.123 258.658 114.123 258.823V269.028H104.417C103.1 269.028 102.218 266.574 101.68 265.969C103.449 266.274 105.081 263.15 105.986 262.98C106.891 262.81 107.641 264.266 108.643 263.708C110.572 262.716 108.958 260.249 109.187 259.915C109.313 259.727 112.29 257.478 112.76 257.167C113.521 256.656 114.123 256.145 115.119 256.274V256.268Z" fill="#7EA750"/>
<path d="M88.2429 309.844H130.055L128.555 311.623C115.196 312.134 101.665 311.858 88.2429 311.887C88.1914 311.318 88.1685 310.396 88.2429 309.844Z" fill="#845331"/>
<path d="M176.345 290.457C176.39 291.684 175.234 292.16 174.953 293.37C174.61 294.849 174.621 300.927 173.888 301.461C171.094 303.499 168.42 297.274 167.297 295.389C166.284 293.681 164.698 293.281 165.39 290.457H176.339H176.345Z" fill="#322115"/>
<path d="M182.316 301.684H177.832C177.488 298.031 179.922 295.013 180.329 291.478C181.13 290.862 182.316 293.299 182.316 293.774V301.684Z" fill="#322115"/>
<path d="M165.895 288.923C167.326 285.875 169.846 286.492 172.606 285.852L172.863 288.923H165.895Z" fill="#9CADC3"/>
<path d="M177.341 285.863L176.774 288.852L173.854 288.928V285.863H177.341Z" fill="#5F9645"/>
<path d="M187.298 301.685C187.023 301.743 186.623 301.685 186.302 301.685L185.85 299.183C189.285 297.193 190.866 300.962 187.298 301.685Z" fill="#BCD38E"/>
<path d="M83.7641 285.355C86.3867 286.812 85.4361 288.92 82.5272 288.421L82.2695 285.866C82.762 285.731 83.3575 285.737 83.7641 285.355Z" fill="#BCD38E"/>
<path d="M94.7115 301.685H93.2227L93.7208 295.566L94.7115 301.685Z" fill="#3B2F27"/>
<path d="M194.266 283.308C194.346 280.935 197.747 281.963 196.757 284.329C196.476 284.329 195.737 284.893 195.262 284.84C195.228 284.758 194.329 283.378 194.266 283.308Z" fill="#BCD38E"/>
<path d="M199.994 303.217C201.987 302.606 202.302 305.865 200.979 306.27C198.986 306.881 198.671 303.622 199.994 303.217Z" fill="#BCD38E"/>
<path d="M167.211 254.796C170.103 253.81 169.61 257.815 168.07 258.278C166.003 258.895 165.235 255.477 167.211 254.796Z" fill="#BCD38E"/>
<path d="M165.895 262.396C165.712 262.889 166.205 264.14 165.426 264.733C164.595 265.367 163.748 264.427 163.41 264.433V261.879L165.901 262.39L165.895 262.396Z" fill="#BCD38E"/>
<path d="M85.2119 300.71C86.1052 302.008 83.683 304.997 82.4977 303.235C81.1406 301.215 84.2499 299.313 85.2119 300.71Z" fill="#BCD38E"/>
<path d="M172.87 264.425C172.715 263.544 173.064 262.534 173.855 262.129C176.552 260.737 176.953 266.533 172.87 264.425Z" fill="#BCD38E"/>
<line x1="137.967" y1="205.035" x2="145.603" y2="205.035" stroke="#E1A65C" stroke-width="2"/>
<line x1="125.748" y1="211.145" x2="131.093" y2="211.145" stroke="#E1A65C" stroke-width="2"/>
<line x1="131.094" y1="222.602" x2="136.439" y2="222.602" stroke="#E1A65C" stroke-width="2"/>
<line x1="122.693" y1="232.527" x2="128.039" y2="232.527" stroke="#E1A65C" stroke-width="2"/>
<line x1="126.512" y1="238.637" x2="131.857" y2="238.637" stroke="#E1A65C" stroke-width="2"/>
<line x1="121.93" y1="217.254" x2="127.275" y2="217.254" stroke="#E1A65C" stroke-width="2"/>
<line x1="143.311" y1="211.145" x2="148.656" y2="211.145" stroke="#E1A65C" stroke-width="2"/>
<line x1="131.094" y1="232.789" x2="137.966" y2="232.789" stroke="#AE7442" stroke-width="3"/>
<line x1="121.168" y1="246.535" x2="128.041" y2="246.535" stroke="#AE7442" stroke-width="3"/>
<line x1="149.42" y1="244.246" x2="156.293" y2="244.246" stroke="#AE7442" stroke-width="3"/>
<line x1="140.256" y1="251.117" x2="147.129" y2="251.117" stroke="#AE7442" stroke-width="3"/>
<line x1="140.256" y1="228.211" x2="147.129" y2="228.211" stroke="#BF8141" stroke-width="3"/>
<line x1="151.713" y1="222.602" x2="157.058" y2="222.602" stroke="#BD8B51" stroke-width="2"/>
<line x1="134.912" y1="240.164" x2="141.785" y2="240.164" stroke="#BD8B51" stroke-width="2"/>
<line x1="127.277" y1="250.09" x2="134.15" y2="250.09" stroke="#BD8B51" stroke-width="2"/>
</g>
</g>
<defs>
<linearGradient id="paint0_linear_251_95677" x1="484.499" y1="-828.042" x2="488.893" y2="-352.928" gradientUnits="userSpaceOnUse">
<stop offset="0.332725" stop-color="#FAC768"/>
<stop offset="1" stop-color="#F58A39"/>
</linearGradient>
<clipPath id="clip0_251_95677">
<rect width="411" height="620" fill="white"/>
</clipPath>
<clipPath id="clip1_251_95677">
<rect width="411" height="620" fill="white"/>
</clipPath>
</defs>
</svg>
