<svg width="411" height="620" viewBox="0 0 411 620" fill="none" xmlns="http://www.w3.org/2000/svg">
<g clip-path="url(#clip0_251_102093)">
<g clip-path="url(#clip1_251_102093)">
<path d="M118.797 -25C100.654 60.0466 100 44.3026 98.2727 64.6154C97.4974 77.9954 100.887 105.455 115.308 115.49C129.729 125.525 98.4446 181.345 81 208" stroke="#D9D9D9" stroke-width="4" stroke-linecap="round"/>
<path d="M109.418 60.3477C144.943 64.9533 155.618 64.4598 156.515 63.6374" stroke="#D9D9D9" stroke-width="3"/>
<path d="M107.4 86.2539C144.271 87.5698 166.497 86.8022 173.001 86.2539" stroke="#D9D9D9" stroke-width="3"/>
<path d="M43.8184 114.628C123.211 112.325 149.564 109.831 152.815 108.871" stroke="#D9D9D9" stroke-width="3" stroke-linecap="round"/>
<path d="M72.2216 41.1937C72.3178 40.3708 71.7287 39.6258 70.9059 39.5297C70.0831 39.4335 69.3381 40.0226 69.2419 40.8454L70.7318 41.0195L72.2216 41.1937ZM67.0312 115.038L68.5296 115.109C69.8752 86.6539 70.7722 68.3911 71.3467 57.123C71.634 51.4888 71.8407 47.6047 71.9824 45.0702C72.0533 43.8027 72.1078 42.8748 72.148 42.2353C72.1681 41.9153 72.1845 41.6702 72.1974 41.492C72.2038 41.4029 72.2093 41.3329 72.2137 41.2801C72.2159 41.2538 72.2177 41.2332 72.2192 41.2177C72.2199 41.21 72.2205 41.2041 72.221 41.1998C72.2214 41.1954 72.2216 41.1935 72.2216 41.1937L70.7318 41.0195L69.2419 40.8454C69.1218 41.8732 68.2216 58.1099 65.5329 114.967L67.0312 115.038Z" fill="#D9D9D9"/>
<path d="M85.3796 72.1139C86.2019 72.0134 86.787 71.2653 86.6865 70.443C86.586 69.6207 85.8379 69.0356 85.0156 69.1361L85.1976 70.625L85.3796 72.1139ZM69.7227 70.625L69.6718 72.1241C79.3542 72.4529 84.1277 72.2669 85.3796 72.1139L85.1976 70.625L85.0156 69.1361C84.0247 69.2572 79.4683 69.455 69.7736 69.1259L69.7227 70.625Z" fill="#D9D9D9"/>
<path d="M43.8182 114.626C35.7444 34.4393 56.9382 15.5234 60.9752 6.88785C65.0121 -1.74766 74.0952 -18.6075 77.4593 -33" stroke="#D9D9D9" stroke-width="3"/>
<path d="M225.543 601.531C236.04 490.01 237.318 478.304 236.645 486.391C237.094 468.846 235.905 430.466 227.562 417.307C219.219 404.148 237.318 330.952 247.41 295.999" stroke="#D9D9D9" stroke-width="4"/>
<path d="M229.582 554.652C194.057 550.047 183.382 550.54 182.485 551.363" stroke="#D9D9D9" stroke-width="3"/>
<path d="M231.602 528.746C194.731 527.43 172.505 528.198 166.001 528.746" stroke="#D9D9D9" stroke-width="3"/>
<path d="M295.184 500.372C215.791 502.675 189.438 505.169 186.186 506.129" stroke="#D9D9D9" stroke-width="3" stroke-linecap="round"/>
<path d="M266.778 573.806C266.682 574.629 267.271 575.374 268.094 575.47C268.917 575.566 269.662 574.977 269.758 574.155L268.268 573.98L266.778 573.806ZM271.969 499.962L270.47 499.891C269.125 528.346 268.228 546.609 267.653 557.877C267.366 563.511 267.159 567.395 267.018 569.93C266.947 571.197 266.892 572.125 266.852 572.765C266.832 573.085 266.816 573.33 266.803 573.508C266.796 573.597 266.791 573.667 266.786 573.72C266.784 573.746 266.782 573.767 266.781 573.782C266.78 573.79 266.779 573.796 266.779 573.8C266.779 573.805 266.778 573.807 266.778 573.806L268.268 573.98L269.758 574.155C269.878 573.127 270.778 556.89 273.467 500.033L271.969 499.962Z" fill="#D9D9D9"/>
<path d="M253.62 542.886C252.798 542.987 252.213 543.735 252.314 544.557C252.414 545.379 253.162 545.964 253.984 545.864L253.802 544.375L253.62 542.886ZM269.277 544.375L269.328 542.876C259.646 542.547 254.872 542.733 253.62 542.886L253.802 544.375L253.984 545.864C254.975 545.743 259.532 545.545 269.226 545.874L269.277 544.375Z" fill="#D9D9D9"/>
<path d="M295.182 500.374C303.256 580.561 282.062 599.477 278.025 608.112C273.988 616.748 264.905 633.607 261.541 648" stroke="#D9D9D9" stroke-width="3"/>
<path d="M40.4458 80.6562C40.5493 79.5564 39.7417 78.5811 38.642 78.4775C37.5423 78.374 36.5669 79.1816 36.4634 80.2813L38.4546 80.4688L40.4458 80.6562ZM27.353 195.609L29.3524 195.66L25.3599 195.443L27.353 195.609ZM38.4546 80.4688L36.4634 80.2813C31.2154 136.042 28.2721 166.846 26.7249 182.698C25.9508 190.629 25.5275 194.805 25.34 196.492C25.2922 196.923 25.2631 197.159 25.2493 197.253C25.2456 197.279 25.2472 197.265 25.2535 197.232C25.2553 197.223 25.2672 197.161 25.2908 197.08C25.3006 197.047 25.3311 196.943 25.3885 196.816C25.4207 196.749 25.5138 196.583 25.5775 196.487C25.6956 196.337 26.0895 195.987 26.3828 195.823C26.8877 195.671 27.922 195.777 28.3804 196.025C28.631 196.24 28.9435 196.652 29.0287 196.818C29.1499 197.086 29.1802 197.318 29.1844 197.346C29.2035 197.475 29.2046 197.575 29.2047 197.582C29.2057 197.629 29.2041 197.655 29.2049 197.633C29.2117 197.454 29.2601 196.809 29.3461 195.775L27.353 195.609L25.3599 195.443C25.2777 196.431 25.2189 197.189 25.2078 197.482C25.2064 197.519 25.204 197.59 25.2056 197.666C25.206 197.687 25.2077 197.798 25.2279 197.934C25.2326 197.966 25.2635 198.201 25.3854 198.47C25.471 198.637 25.7838 199.049 26.0349 199.265C26.4936 199.513 27.5283 199.619 28.0337 199.467C28.3275 199.302 28.7219 198.952 28.8404 198.801C28.9046 198.705 28.9983 198.538 29.031 198.469C29.0895 198.34 29.1212 198.233 29.1322 198.195C29.1583 198.105 29.1732 198.03 29.1783 198.004C29.1913 197.938 29.201 197.875 29.2072 197.832C29.2326 197.659 29.2688 197.354 29.3155 196.934C29.5066 195.215 29.9326 191.011 30.706 183.086C32.2539 167.227 35.1977 136.417 40.4458 80.6562L38.4546 80.4688ZM27.353 195.609L25.3537 195.558C25.1278 204.393 25.3136 218.457 26.6068 231.986C27.2534 238.751 28.1802 245.419 29.4822 251.25C30.775 257.041 32.4737 262.178 34.747 265.764L36.4361 264.693L38.1252 263.622C36.2271 260.628 34.6486 256.034 33.3861 250.379C32.1327 244.765 31.2261 238.274 30.5887 231.606C29.3139 218.269 29.1297 204.37 29.3524 195.66L27.353 195.609ZM36.4361 264.693L34.747 265.764C35.5241 266.99 36.123 269.174 36.3998 272.42C36.6712 275.603 36.6157 279.563 36.2792 284.137C35.6064 293.28 33.8278 304.667 31.4623 316.791C26.7336 341.029 19.702 368.006 14.6664 385.447L16.5879 386.001L18.5094 386.556C23.5661 369.043 30.6301 341.946 35.3882 317.557C37.7661 305.369 39.5787 293.805 40.2684 284.43C40.6131 279.746 40.6816 275.555 40.3853 272.08C40.0944 268.668 39.4339 265.686 38.1252 263.622L36.4361 264.693Z" fill="#D9D9D9"/>
<path d="M34.418 127.348C69.943 131.953 80.6184 131.46 81.5155 130.637" stroke="#D9D9D9" stroke-width="3"/>
<path d="M32.4004 153.254C69.271 154.57 91.4966 153.802 98.0005 153.254" stroke="#D9D9D9" stroke-width="3"/>
<path d="M-31.1816 181.628C48.2113 179.325 74.5635 176.831 77.8155 175.871" stroke="#D9D9D9" stroke-width="3" stroke-linecap="round"/>
<path d="M10.3796 139.114C11.2019 139.013 11.787 138.265 11.6865 137.443C11.586 136.621 10.8379 136.036 10.0156 136.136L10.1976 137.625L10.3796 139.114ZM-5.27734 137.625L-5.32825 139.124C4.35423 139.453 9.12766 139.267 10.3796 139.114L10.1976 137.625L10.0156 136.136C9.02472 136.257 4.46834 136.455 -5.22644 136.126L-5.27734 137.625Z" fill="#D9D9D9"/>
<path d="M3.91995 34.3414C4.1085 33.5347 3.60741 32.7279 2.80072 32.5394C1.99404 32.3508 1.18724 32.8519 0.998688 33.6586L2.45932 34L3.91995 34.3414ZM-31.1818 181.626L-29.6893 181.476C-33.7125 141.519 -30.4306 116.952 -25.7092 101.36C-23.3499 93.5681 -20.6234 87.9921 -18.2424 83.8342C-17.0478 81.7482 -15.9392 80.017 -14.985 78.5102C-14.0475 77.0298 -13.2188 75.7057 -12.666 74.5231L-14.0248 73.8879L-15.3837 73.2526C-15.8401 74.2289 -16.5568 75.3849 -17.5195 76.9051C-18.4655 78.3989 -19.6118 80.1887 -20.8457 82.3434C-23.3216 86.6668 -26.146 92.4506 -28.5805 100.491C-33.4468 116.562 -36.725 141.546 -32.6742 181.776L-31.1818 181.626ZM-14.0248 73.8879L-12.666 74.5231C-8.69441 66.0274 0.508831 48.935 3.91995 34.3414L2.45932 34L0.998688 33.6586C-2.31841 47.85 -11.2814 64.4773 -15.3837 73.2526L-14.0248 73.8879Z" fill="#D9D9D9"/>
<path d="M411.689 33.7569C253.934 14.4513 237.371 12.0625 248.808 13.2813C224.024 12.7114 169.872 15.9161 151.536 33.2941C133.2 50.6721 29.3336 15.0043 -20.3074 -5.00178" stroke="#D9D9D9" stroke-width="4"/>
<path d="M306.195 22.4141C302.092 120.607 303.097 150.083 304.113 152.546" stroke="#D9D9D9" stroke-width="3"/>
<path d="M271.789 20.4805C277.604 96.02 275.48 141.635 273.691 155" stroke="#D9D9D9" stroke-width="3"/>
<path d="M240.373 -55.3291C245.833 27.9987 250.861 55.6115 252.693 59.0019" stroke="#D9D9D9" stroke-width="3" stroke-linecap="round"/>
<path d="M256.449 295.467C123.318 284.761 109.341 283.425 118.994 284.096C98.0692 283.854 52.3337 285.926 36.7875 296.152C21.2413 306.378 -66.3281 285.909 -108.17 274.397" stroke="#D9D9D9" stroke-width="4"/>
<path d="M200.492 291.414C195.604 334.09 196.373 346.883 197.369 347.944" stroke="#D9D9D9" stroke-width="3"/>
<path d="M169.572 289.43C168.628 333.664 169.92 360.301 170.685 368.091" stroke="#D9D9D9" stroke-width="3"/>
<path d="M134.668 213.667C138.759 308.829 142.18 340.386 143.379 344.269" stroke="#D9D9D9" stroke-width="3" stroke-linecap="round"/>
<path d="M222.725 246.191C223.549 246.276 224.286 245.677 224.371 244.853C224.456 244.029 223.857 243.292 223.033 243.207L222.879 244.699L222.725 246.191ZM134.573 241.51L134.523 243.009C202.473 245.278 221.648 246.08 222.725 246.191L222.879 244.699L223.033 243.207C221.819 243.082 202.463 242.276 134.623 240.01L134.573 241.51Z" fill="#D9D9D9"/>
<path d="M186.339 262.746C186.45 263.567 187.206 264.142 188.027 264.031C188.848 263.919 189.423 263.163 189.311 262.342L187.825 262.544L186.339 262.746ZM187.562 243.988L186.063 243.959C185.835 255.576 186.138 261.274 186.339 262.746L187.825 262.544L189.311 262.342C189.146 261.13 188.834 255.647 189.062 244.018L187.562 243.988Z" fill="#D9D9D9"/>
<path d="M131.019 214.669C226.479 203.636 249.389 228.731 259.753 233.426C270.116 238.121 290.37 248.728 307.586 252.519" stroke="#D9D9D9" stroke-width="3"/>
<path d="M434.649 208.762C314.581 224.75 301.981 226.669 310.69 225.629C291.777 226.508 250.363 225.475 236.011 214.319C221.659 203.163 143.069 228.916 105.568 243.187" stroke="#D9D9D9" stroke-width="4"/>
<path d="M384.172 214.973C378.521 166.685 378.848 152.146 379.717 150.912" stroke="#D9D9D9" stroke-width="3"/>
<path d="M356.27 218.113C354.14 167.944 354.541 137.678 355.007 128.817" stroke="#D9D9D9" stroke-width="3"/>
<path d="M326.893 305.096C327.848 196.989 330.031 161.079 331.004 156.638" stroke="#D9D9D9" stroke-width="3" stroke-linecap="round"/>
<path d="M405.517 265.857C406.335 265.725 407.105 266.28 407.238 267.098C407.37 267.916 406.815 268.686 405.997 268.818L405.757 267.338L405.517 265.857ZM326.002 273.504L325.892 272.008C356.553 269.742 376.231 268.243 388.372 267.289C394.442 266.812 398.627 266.471 401.357 266.24C402.722 266.124 403.721 266.036 404.409 265.971C404.753 265.939 405.016 265.913 405.207 265.893C405.303 265.883 405.377 265.875 405.432 265.868C405.46 265.865 405.481 265.862 405.497 265.86C405.513 265.858 405.519 265.857 405.517 265.857L405.757 267.338L405.997 268.818C405.4 268.915 400.693 269.33 388.607 270.28C376.46 271.234 356.777 272.734 326.113 275L326.002 273.504Z" fill="#D9D9D9"/>
<path d="M372.055 247.976C372.123 247.151 372.847 246.536 373.673 246.604C374.498 246.672 375.113 247.397 375.045 248.222L373.55 248.099L372.055 247.976ZM373.848 269.164L372.349 269.225C371.809 256.047 371.921 249.608 372.055 247.976L373.55 248.099L375.045 248.222C374.928 249.647 374.806 255.914 375.346 269.103L373.848 269.164Z" fill="#D9D9D9"/>
<path d="M326.894 305.097C413.527 314.864 433.519 285.726 442.754 280.099C451.99 274.472 469.997 261.851 485.454 257.052" stroke="#D9D9D9" stroke-width="3"/>
<path d="M164 456.411V-540.67C164 -540.67 157.114 -606 89.4054 -606C21.6964 -606 12.5155 -540.67 12.5155 -540.67V-411.082C12.5155 -411.082 9.07272 -352.178 -35.6841 -311.481C-80.4409 -270.783 -144.707 -268.642 -144.707 -268.642H-279.634C-279.634 -268.642 -368 -271.854 -368 -195.815C-368 -119.775 -279.634 -124.059 -279.634 -124.059H4.48212C4.48212 -124.059 76.7816 -124.059 76.7816 -51.2327C76.7816 21.5939 13.6631 22.6649 13.6631 22.6649H-191.306C-191.306 22.6649 -257.868 28.0197 -257.868 94.4204C-257.868 160.821 -191.306 160.821 -191.306 160.821H-119.867C-18.1366 160.821 -12.4139 175.608 -12.4139 298.977V436.063C-12.4139 436.063 -21.5946 503.535 -91.5989 503.535C-161.603 503.535 -168.489 436.063 -168.489 436.063V341.817C-168.489 341.817 -169.008 290.41 -232.126 290.41C-295.245 290.41 -295.044 346.101 -295.044 346.101V436.063C-295.044 505.677 -280.882 566.304 -176.84 586H9.07263C154.819 586 164 456.411 164 456.411Z" stroke="url(#paint0_linear_251_102093)" stroke-width="30"/>
<rect x="159.5" y="207.5" width="154" height="30" rx="15" fill="white"/>
<rect x="159.5" y="207.5" width="154" height="30" rx="15" stroke="#BF4B17" stroke-width="3"/>
<path d="M173.412 215.196H187.652V216.236H173.412V215.196ZM177.124 214.06H178.308V217.196H177.124V214.06ZM182.676 214.06H183.876V217.212H182.676V214.06ZM181.652 218.764H187.028V219.788H181.652V218.764ZM173.236 227.308H187.796V228.348H173.236V227.308ZM175.012 223.708H186.1V227.66H184.932V224.684H182.676V227.66H181.636V224.684H179.396V227.66H178.356V224.684H176.132V227.66H175.012V223.708ZM181.78 217.324L182.916 217.564C182.671 218.492 182.351 219.388 181.956 220.252C181.572 221.105 181.14 221.825 180.66 222.412C180.596 222.348 180.505 222.279 180.388 222.204C180.271 222.119 180.148 222.039 180.02 221.964C179.903 221.879 179.796 221.809 179.7 221.756C180.169 221.201 180.58 220.535 180.932 219.756C181.295 218.977 181.577 218.167 181.78 217.324ZM182.932 220.508L183.844 220.028C184.1 220.295 184.351 220.593 184.596 220.924C184.841 221.255 185.06 221.58 185.252 221.9C185.444 222.22 185.593 222.513 185.7 222.78L184.708 223.324C184.612 223.057 184.468 222.759 184.276 222.428C184.095 222.097 183.887 221.767 183.652 221.436C183.417 221.095 183.177 220.785 182.932 220.508ZM177.556 217.644H178.74V223.164H177.556V217.644ZM174.58 218.204H175.716V222.764H174.58V218.204ZM192.452 219.884H200.484V220.956H192.452V219.884ZM195.924 218.204H197.076V223.02H195.924V218.204ZM189.332 223.724H203.684V224.844H189.332V223.724ZM198.964 221.868H200.164V228.78H198.964V221.868ZM192.836 221.884H193.988V223.5C193.988 223.959 193.951 224.428 193.876 224.908C193.801 225.377 193.647 225.841 193.412 226.3C193.188 226.759 192.847 227.201 192.388 227.628C191.94 228.055 191.332 228.444 190.564 228.796C190.511 228.7 190.431 228.599 190.324 228.492C190.228 228.385 190.127 228.279 190.02 228.172C189.924 228.065 189.828 227.98 189.732 227.916C190.447 227.607 191.007 227.276 191.412 226.924C191.828 226.561 192.137 226.188 192.34 225.804C192.543 225.409 192.676 225.015 192.74 224.62C192.804 224.225 192.836 223.841 192.836 223.468V221.884ZM189.588 216.22H203.428V217.34H189.588V216.22ZM198.724 216.556C199.087 217.1 199.545 217.623 200.1 218.124C200.655 218.615 201.268 219.057 201.94 219.452C202.623 219.836 203.311 220.14 204.004 220.364C203.908 220.439 203.807 220.535 203.7 220.652C203.604 220.769 203.508 220.892 203.412 221.02C203.316 221.137 203.236 221.249 203.172 221.356C202.468 221.079 201.775 220.716 201.092 220.268C200.409 219.82 199.775 219.308 199.188 218.732C198.612 218.156 198.127 217.548 197.732 216.908L198.724 216.556ZM195.716 214.06L196.996 214.268C196.644 215.175 196.153 216.071 195.524 216.956C194.895 217.841 194.111 218.668 193.172 219.436C192.244 220.193 191.145 220.86 189.876 221.436C189.833 221.34 189.764 221.233 189.668 221.116C189.583 220.999 189.492 220.887 189.396 220.78C189.3 220.673 189.204 220.588 189.108 220.524C190.335 220.001 191.391 219.388 192.276 218.684C193.161 217.969 193.887 217.217 194.452 216.428C195.028 215.628 195.449 214.839 195.716 214.06ZM206.116 227.148C206.713 226.956 207.444 226.711 208.308 226.412C209.172 226.113 210.047 225.804 210.932 225.484L211.124 226.412C210.356 226.721 209.583 227.031 208.804 227.34C208.025 227.649 207.316 227.921 206.676 228.156L206.116 227.148ZM211.86 221.724H213.028V227.596C213.028 227.895 212.985 228.119 212.9 228.268C212.825 228.428 212.671 228.551 212.436 228.636C212.223 228.711 211.935 228.753 211.572 228.764C211.209 228.785 210.745 228.796 210.18 228.796C210.159 228.657 210.111 228.492 210.036 228.3C209.961 228.119 209.881 227.959 209.796 227.82C210.201 227.831 210.569 227.836 210.9 227.836C211.241 227.836 211.465 227.836 211.572 227.836C211.764 227.836 211.86 227.745 211.86 227.564V221.724ZM213.444 226.14L214.068 225.26C214.601 225.463 215.161 225.703 215.748 225.98C216.345 226.247 216.911 226.513 217.444 226.78C217.988 227.047 218.441 227.287 218.804 227.5L218.164 228.476C217.801 228.252 217.348 227.996 216.804 227.708C216.271 227.431 215.711 227.153 215.124 226.876C214.537 226.588 213.977 226.343 213.444 226.14ZM208.004 223.196L208.74 222.492C209.124 222.748 209.519 223.047 209.924 223.388C210.329 223.729 210.639 224.033 210.852 224.3L210.084 225.084C209.945 224.903 209.759 224.7 209.524 224.476C209.3 224.252 209.055 224.028 208.788 223.804C208.521 223.58 208.26 223.377 208.004 223.196ZM216.116 222.348L217.044 223.036C216.703 223.367 216.329 223.703 215.924 224.044C215.519 224.375 215.145 224.652 214.804 224.876L214.036 224.268C214.249 224.108 214.484 223.916 214.74 223.692C214.996 223.468 215.247 223.239 215.492 223.004C215.737 222.759 215.945 222.54 216.116 222.348ZM205.332 220.332H219.684V221.356H205.332V220.332ZM207.012 217.9H218.292V218.876H207.012V217.9ZM206.18 215.58H218.932V216.572H206.18V215.58ZM214.484 218.172C214.847 218.919 215.311 219.633 215.876 220.316C216.441 220.988 217.076 221.591 217.78 222.124C218.484 222.657 219.225 223.084 220.004 223.404C219.908 223.468 219.807 223.559 219.7 223.676C219.593 223.793 219.492 223.916 219.396 224.044C219.311 224.161 219.236 224.273 219.172 224.38C218.383 224.007 217.625 223.527 216.9 222.94C216.175 222.343 215.519 221.665 214.932 220.908C214.345 220.151 213.849 219.351 213.444 218.508L214.484 218.172ZM211.636 214.076L212.9 214.188C212.74 215.137 212.489 216.092 212.148 217.052C211.807 218.012 211.353 218.945 210.788 219.852C210.233 220.759 209.556 221.607 208.756 222.396C207.967 223.175 207.039 223.863 205.972 224.46C205.908 224.364 205.823 224.263 205.716 224.156C205.609 224.049 205.497 223.948 205.38 223.852C205.273 223.756 205.167 223.681 205.06 223.628C206.116 223.084 207.028 222.444 207.796 221.708C208.575 220.972 209.225 220.183 209.748 219.34C210.281 218.487 210.703 217.612 211.012 216.716C211.321 215.82 211.529 214.94 211.636 214.076ZM222.212 221.036C222.191 220.961 222.159 220.855 222.116 220.716C222.073 220.577 222.025 220.439 221.972 220.3C221.919 220.151 221.871 220.028 221.828 219.932C221.977 219.9 222.127 219.793 222.276 219.612C222.436 219.42 222.612 219.18 222.804 218.892C222.911 218.753 223.055 218.524 223.236 218.204C223.428 217.884 223.641 217.505 223.876 217.068C224.121 216.631 224.361 216.161 224.596 215.66C224.841 215.148 225.055 214.636 225.236 214.124L226.372 214.572C226.063 215.276 225.716 215.98 225.332 216.684C224.959 217.377 224.575 218.044 224.18 218.684C223.785 219.313 223.385 219.884 222.98 220.396V220.412C222.98 220.412 222.943 220.433 222.868 220.476C222.793 220.519 222.703 220.577 222.596 220.652C222.489 220.716 222.399 220.785 222.324 220.86C222.249 220.924 222.212 220.983 222.212 221.036ZM222.212 221.036V220.156L222.836 219.788L226.436 219.628C226.351 219.788 226.265 219.969 226.18 220.172C226.095 220.375 226.031 220.54 225.988 220.668C225.231 220.711 224.623 220.748 224.164 220.78C223.705 220.812 223.343 220.844 223.076 220.876C222.82 220.908 222.628 220.935 222.5 220.956C222.383 220.977 222.287 221.004 222.212 221.036ZM222.404 225.228C222.393 225.143 222.361 225.031 222.308 224.892C222.265 224.753 222.217 224.615 222.164 224.476C222.111 224.327 222.057 224.204 222.004 224.108C222.196 224.055 222.404 223.921 222.628 223.708C222.863 223.495 223.124 223.217 223.412 222.876C223.572 222.716 223.807 222.444 224.116 222.06C224.436 221.665 224.793 221.201 225.188 220.668C225.583 220.124 225.983 219.543 226.388 218.924C226.793 218.305 227.161 217.681 227.492 217.052L228.564 217.612C228.041 218.487 227.481 219.345 226.884 220.188C226.297 221.02 225.689 221.809 225.06 222.556C224.431 223.292 223.807 223.964 223.188 224.572V224.604C223.188 224.604 223.151 224.625 223.076 224.668C223.001 224.711 222.911 224.764 222.804 224.828C222.697 224.881 222.601 224.945 222.516 225.02C222.441 225.095 222.404 225.164 222.404 225.228ZM222.404 225.228V224.284L223.092 223.884L228.084 223.628C228.052 223.788 228.025 223.975 228.004 224.188C227.993 224.401 227.993 224.572 228.004 224.7C226.852 224.775 225.924 224.839 225.22 224.892C224.527 224.945 223.988 224.988 223.604 225.02C223.231 225.052 222.959 225.084 222.788 225.116C222.628 225.148 222.5 225.185 222.404 225.228ZM228.788 220.94C228.767 220.855 228.735 220.748 228.692 220.62C228.649 220.481 228.601 220.343 228.548 220.204C228.495 220.055 228.447 219.932 228.404 219.836C228.553 219.804 228.708 219.697 228.868 219.516C229.028 219.335 229.209 219.1 229.412 218.812C229.508 218.673 229.652 218.449 229.844 218.14C230.036 217.82 230.255 217.447 230.5 217.02C230.745 216.583 230.991 216.113 231.236 215.612C231.481 215.111 231.7 214.609 231.892 214.108L233.028 214.556C232.708 215.26 232.356 215.959 231.972 216.652C231.588 217.335 231.193 217.991 230.788 218.62C230.383 219.239 229.972 219.799 229.556 220.3V220.332C229.556 220.332 229.519 220.353 229.444 220.396C229.369 220.439 229.279 220.492 229.172 220.556C229.065 220.609 228.975 220.673 228.9 220.748C228.825 220.823 228.788 220.887 228.788 220.94ZM228.788 220.94V220.06L229.412 219.692L232.996 219.548C232.921 219.697 232.841 219.873 232.756 220.076C232.671 220.279 232.607 220.444 232.564 220.572C231.817 220.625 231.209 220.668 230.74 220.7C230.281 220.732 229.919 220.764 229.652 220.796C229.396 220.817 229.204 220.839 229.076 220.86C228.959 220.881 228.863 220.908 228.788 220.94ZM228.948 225.132C228.927 225.057 228.895 224.951 228.852 224.812C228.809 224.673 228.761 224.535 228.708 224.396C228.655 224.247 228.607 224.124 228.564 224.028C228.745 223.975 228.953 223.847 229.188 223.644C229.423 223.431 229.695 223.164 230.004 222.844C230.175 222.684 230.42 222.417 230.74 222.044C231.071 221.66 231.439 221.207 231.844 220.684C232.249 220.161 232.66 219.596 233.076 218.988C233.492 218.38 233.881 217.767 234.244 217.148L235.316 217.724C234.761 218.577 234.175 219.415 233.556 220.236C232.937 221.057 232.303 221.831 231.652 222.556C231.012 223.271 230.372 223.921 229.732 224.508V224.54C229.732 224.54 229.695 224.561 229.62 224.604C229.545 224.636 229.449 224.684 229.332 224.748C229.225 224.801 229.135 224.865 229.06 224.94C228.985 225.004 228.948 225.068 228.948 225.132ZM228.948 225.132L228.932 224.204L229.652 223.804L235.14 223.564C235.119 223.724 235.097 223.911 235.076 224.124C235.055 224.337 235.044 224.508 235.044 224.636C234.041 224.689 233.199 224.737 232.516 224.78C231.833 224.823 231.273 224.86 230.836 224.892C230.409 224.913 230.068 224.94 229.812 224.972C229.567 224.993 229.38 225.02 229.252 225.052C229.135 225.084 229.033 225.111 228.948 225.132ZM221.332 226.716H235.636V227.852H221.332V226.716ZM240.148 219.468H248.084V220.524H240.148V219.468ZM237.46 223.1H251.62V224.236H237.46V223.1ZM243.908 221.948H245.124V227.34C245.124 227.703 245.065 227.98 244.948 228.172C244.841 228.364 244.639 228.508 244.34 228.604C244.052 228.689 243.668 228.743 243.188 228.764C242.719 228.785 242.116 228.796 241.38 228.796C241.337 228.625 241.263 228.428 241.156 228.204C241.06 227.98 240.959 227.788 240.852 227.628C241.268 227.639 241.657 227.644 242.02 227.644C242.383 227.655 242.692 227.66 242.948 227.66C243.215 227.66 243.401 227.655 243.508 227.644C243.668 227.633 243.775 227.601 243.828 227.548C243.881 227.505 243.908 227.431 243.908 227.324V221.948ZM247.716 219.468H248.004L248.26 219.404L249.044 219.98C248.681 220.343 248.26 220.705 247.78 221.068C247.311 221.42 246.815 221.751 246.292 222.06C245.769 222.369 245.257 222.636 244.756 222.86C244.671 222.743 244.559 222.62 244.42 222.492C244.292 222.353 244.18 222.241 244.084 222.156C244.532 221.953 244.985 221.713 245.444 221.436C245.913 221.159 246.345 220.871 246.74 220.572C247.135 220.263 247.46 219.969 247.716 219.692V219.468ZM237.78 216.716H251.348V220.3H250.148V217.804H238.932V220.3H237.78V216.716ZM249.22 214.156L250.484 214.588C250.143 215.079 249.769 215.575 249.364 216.076C248.969 216.577 248.607 217.004 248.276 217.356L247.316 216.94C247.529 216.695 247.753 216.412 247.988 216.092C248.233 215.761 248.463 215.431 248.676 215.1C248.9 214.759 249.081 214.444 249.22 214.156ZM238.884 214.716L239.892 214.252C240.201 214.583 240.5 214.956 240.788 215.372C241.087 215.777 241.3 216.14 241.428 216.46L240.372 216.988C240.244 216.679 240.036 216.311 239.748 215.884C239.46 215.457 239.172 215.068 238.884 214.716ZM242.996 214.38L244.036 213.98C244.303 214.364 244.559 214.791 244.804 215.26C245.06 215.719 245.241 216.113 245.348 216.444L244.228 216.892C244.143 216.551 243.977 216.145 243.732 215.676C243.497 215.196 243.252 214.764 242.996 214.38ZM254.404 215.228H265.94V216.364H254.404V215.228ZM256.196 218.492L257.012 217.708C257.481 218.017 257.983 218.369 258.516 218.764C259.06 219.148 259.577 219.532 260.068 219.916C260.559 220.289 260.964 220.625 261.284 220.924L260.436 221.836C260.137 221.537 259.743 221.191 259.252 220.796C258.772 220.401 258.26 220.001 257.716 219.596C257.183 219.191 256.676 218.823 256.196 218.492ZM265.508 215.228H266.708C266.708 215.228 266.708 215.271 266.708 215.356C266.708 215.441 266.708 215.543 266.708 215.66C266.708 215.767 266.708 215.852 266.708 215.916C266.687 218.017 266.655 219.788 266.612 221.228C266.58 222.657 266.537 223.825 266.484 224.732C266.431 225.628 266.351 226.321 266.244 226.812C266.148 227.303 266.025 227.649 265.876 227.852C265.695 228.119 265.497 228.305 265.284 228.412C265.081 228.519 264.831 228.583 264.532 228.604C264.223 228.636 263.828 228.647 263.348 228.636C262.879 228.636 262.409 228.62 261.94 228.588C261.929 228.417 261.892 228.22 261.828 227.996C261.764 227.783 261.673 227.596 261.556 227.436C262.111 227.479 262.617 227.5 263.076 227.5C263.545 227.511 263.887 227.516 264.1 227.516C264.249 227.527 264.372 227.516 264.468 227.484C264.575 227.441 264.665 227.367 264.74 227.26C264.868 227.111 264.975 226.796 265.06 226.316C265.156 225.825 265.231 225.116 265.284 224.188C265.337 223.26 265.38 222.087 265.412 220.668C265.455 219.239 265.487 217.516 265.508 215.5V215.228ZM254.148 225.356C254.927 225.111 255.839 224.817 256.884 224.476C257.929 224.135 259.044 223.767 260.228 223.372C261.412 222.967 262.585 222.567 263.748 222.172L263.972 223.292C262.873 223.687 261.753 224.081 260.612 224.476C259.481 224.871 258.399 225.249 257.364 225.612C256.329 225.964 255.401 226.279 254.58 226.556L254.148 225.356ZM270.036 216.924H282.932V224.444H281.7V218.092H271.236V224.524H270.036V216.924ZM270.676 222.348H282.42V223.532H270.676V222.348ZM275.828 214.06H277.092V228.764H275.828V214.06ZM289.38 218.524H290.612V226.572C290.612 226.945 290.676 227.185 290.804 227.292C290.943 227.399 291.231 227.452 291.668 227.452C291.775 227.452 291.961 227.452 292.228 227.452C292.495 227.452 292.788 227.452 293.108 227.452C293.428 227.452 293.727 227.452 294.004 227.452C294.281 227.452 294.489 227.452 294.628 227.452C294.948 227.452 295.188 227.367 295.348 227.196C295.508 227.025 295.62 226.7 295.684 226.22C295.759 225.729 295.817 225.025 295.86 224.108C296.009 224.215 296.191 224.321 296.404 224.428C296.628 224.535 296.825 224.609 296.996 224.652C296.932 225.655 296.831 226.444 296.692 227.02C296.564 227.585 296.345 227.985 296.036 228.22C295.727 228.455 295.279 228.572 294.692 228.572C294.617 228.572 294.473 228.572 294.26 228.572C294.047 228.572 293.801 228.572 293.524 228.572C293.257 228.572 292.985 228.572 292.708 228.572C292.431 228.572 292.191 228.572 291.988 228.572C291.785 228.572 291.647 228.572 291.572 228.572C291.007 228.572 290.564 228.513 290.244 228.396C289.924 228.279 289.7 228.071 289.572 227.772C289.444 227.484 289.38 227.079 289.38 226.556V218.524ZM289.508 215.052L290.26 214.124C290.9 214.348 291.567 214.615 292.26 214.924C292.953 215.233 293.604 215.553 294.212 215.884C294.831 216.204 295.353 216.508 295.78 216.796L294.996 217.852C294.591 217.543 294.079 217.217 293.46 216.876C292.852 216.535 292.201 216.204 291.508 215.884C290.825 215.553 290.159 215.276 289.508 215.052ZM286.692 219.82L287.86 220.06C287.785 220.775 287.668 221.516 287.508 222.284C287.359 223.052 287.161 223.783 286.916 224.476C286.671 225.169 286.356 225.772 285.972 226.284L284.884 225.644C285.247 225.164 285.545 224.604 285.78 223.964C286.025 223.324 286.223 222.647 286.372 221.932C286.521 221.217 286.628 220.513 286.692 219.82ZM296.036 219.82L297.108 219.292C297.588 219.9 298.031 220.556 298.436 221.26C298.852 221.964 299.204 222.663 299.492 223.356C299.791 224.039 300.004 224.668 300.132 225.244L298.948 225.804C298.831 225.239 298.628 224.609 298.34 223.916C298.052 223.223 297.705 222.519 297.3 221.804C296.905 221.089 296.484 220.428 296.036 219.82Z" fill="black"/>
<circle cx="134" cy="223" r="19" fill="#BF4B17"/>
<path d="M124.862 229V227.288H127.934V219.352H127.79L125.358 222.232L124.046 221.128L126.814 217.832H129.998V227.288H132.558V229H124.862ZM134.456 229V227.288H137.528V219.352H137.384L134.952 222.232L133.64 221.128L136.408 217.832H139.592V227.288H142.152V229H134.456Z" fill="#F4F4F4"/>
<path d="M161.897 132.78V132.193C163.548 129.782 165.509 123.645 164.661 120.87C164.449 120.168 162.003 118.048 163.05 116.941C163.541 116.421 164.78 117.123 165.291 117.879C167.054 120.472 165.105 128.148 163.806 130.91C163.342 131.895 163.395 132.874 161.891 132.78H161.897Z" fill="#E0785B"/>
<path d="M183.79 92.8846L274.531 93.472C276.83 93.3977 275.644 97.2595 275.969 97.5836L293.254 98.7516C293.42 99.8454 293.3 101.668 293.254 102.857C293.254 102.911 292.737 102.796 292.697 103.727C292.598 105.976 292.724 108.244 292.684 110.486H293.837C293.811 111.262 293.857 112.045 293.837 112.828C293.771 115.887 293.691 117.73 293.837 121.045C293.857 121.437 293.817 121.828 293.837 122.22H292.684L292.677 124.238L293.837 124.562C293.857 124.954 293.817 125.346 293.837 125.737C292.83 127.715 293.188 130.875 293.261 133.096C293.3 134.224 292.671 135.453 294.414 135.122C294.467 136.486 294.361 137.863 294.414 139.227C293.426 141.988 293.738 145.938 293.837 148.935C293.877 150.063 293.247 151.292 294.991 150.961C295.017 152.324 294.971 153.702 294.991 155.066C294.049 155.66 294.063 158.029 294.991 158.583C294.991 158.975 294.991 159.366 294.991 159.758C292.485 159.906 293.705 165.47 293.844 167.11C293.937 168.224 293.188 169.473 294.991 169.142C294.984 173.632 295.017 178.149 294.991 182.639C293.247 182.314 293.884 183.536 293.837 184.664C293.638 189.842 293.983 195.068 293.837 200.24C290.669 200.456 287.156 199.929 284.041 200.24C283.783 200.267 283.524 200.55 283.465 200.827H279.435C278.839 199.855 277.248 200.24 276.274 200.233C265.649 200.098 254.647 200.24 244.288 200.246C242.757 200.246 241.213 200.246 239.682 200.246C239.079 199.274 237.494 199.659 236.52 199.652C231.854 199.591 208.836 198.937 206.397 200.091C205.562 200.489 204.992 201.86 204.535 202.008C203.713 202.279 201.903 201.772 200.869 202.542C200.107 203.109 200.326 206.62 197.33 204.358L196.124 201.448C194.712 200.955 193.976 202.117 193.015 202.589C192.803 202.697 192.631 203.082 192.439 203.177C191.816 203.48 190.523 204.223 190.132 204.351C187.263 205.296 184.061 205.121 181.211 206.748C179.667 206.822 180.144 204.972 179.375 204.311C179.09 204.068 173.351 200.516 173 200.388C172.396 200.172 164.92 198.626 164.483 198.673C163.787 198.748 163.117 200.658 161.626 200.246C160.175 199.335 161.162 197.343 160.466 196.141C160.102 195.507 157.305 193.468 156.244 191.638C155.608 190.551 154.588 187.142 154.283 186.885C153.11 185.893 148.636 185.096 145.773 182.645C145.262 182.206 143.526 181.018 143.466 180.883C143.3 180.519 143.672 179.195 143.148 178.594L140.013 173.841C139.98 173.463 140 173.051 140.013 172.667C140.013 172.606 140.934 171.971 140.576 171.532C140.47 171.404 138.489 170.601 137.753 169.973C133.127 166.03 131.702 164.025 129.793 158.104C129.481 157.132 130.217 155.876 128.487 156.234C128.487 155.842 128.481 155.45 128.487 155.059C128.693 146.518 132.63 136.648 140.583 132.765C140.815 132.651 140.994 132.246 141.16 132.178C144.533 130.787 149.941 130.146 153.573 130.396C156.768 130.612 158.882 131.847 161.905 132.178V132.765C162.309 133.859 165.45 134.615 166.319 135.311C167.426 136.188 168.632 138.97 169.964 139.807C169.918 137.363 170.05 134.899 169.964 132.448C169.924 131.321 170.554 130.092 168.811 130.423C168.831 128.472 168.824 126.507 168.811 124.556L170.269 109.574C169.076 106.259 168.645 100.716 170.249 97.5701H181.775C182.073 97.5701 183.08 96.8477 183.703 96.895C184.061 96.4696 183.684 94.3429 183.79 93.4585C183.816 93.2694 183.77 93.0669 183.79 92.8711V92.8846ZM184.943 95.2274C185.095 96.5034 184.724 98.144 184.943 99.3322C184.585 99.2647 184.081 99.4268 183.79 99.3322C180.993 98.414 181.172 99.2647 178.885 99.3322C176.108 99.4133 173.311 99.2782 170.541 99.339C170.382 100.284 171.044 101.182 171.058 102.04C171.276 114.969 171.25 128.391 171.687 141.583C171.72 142.562 171.667 143.541 171.687 144.52C171.429 144.283 170.859 144.175 170.534 143.932C169.288 141.191 165.517 137.424 163.045 135.716C145.143 123.374 122.423 143.284 133.776 162.877C134.883 164.788 136.6 167.427 138.847 167.981C139.589 168.886 140.735 169.811 141.73 170.331C141.73 170.979 142.167 171.546 142.306 172.093C143.174 175.441 143.89 177.224 146.336 179.722C148.855 182.281 152.579 184.198 156.132 184.414C156.284 184.813 156.582 185.191 156.708 185.589C156.921 186.244 156.993 186.622 157.285 187.351C159.114 191.962 161.116 194.487 165.928 196.155C168.466 197.033 170.653 197.674 173.417 197.33C174.497 197.012 174.955 197.553 175.724 197.917C174.438 200.084 179.137 201.522 180.906 202.022C186.732 203.669 191.372 201.603 194.944 196.938C195.15 196.675 195.852 196.796 195.885 196.742H197.038C196.866 197.168 196.323 198.923 196.462 199.085C200.564 200.597 205.449 199.2 207.988 195.568C208.949 195.541 209.91 195.601 210.871 195.568L212.859 197.357C231.993 197.215 251.095 197.742 270.216 197.91C277.533 197.978 284.817 198.018 292.114 198.498C291.902 191.24 292.624 184.043 292.684 176.785C292.711 173.632 293.115 168.791 292.717 165.902C292.035 160.933 292.439 161.169 292.684 156.254C292.876 152.446 293.022 147.571 292.107 143.932C292.035 136.026 291.783 127.972 291.557 120.194C291.358 113.423 291.226 106.698 290.954 99.9264C289.423 99.8994 287.872 99.9669 286.341 99.9264C283.77 99.8656 276.506 99.0487 275.969 101.101H274.239C274.14 99.1567 274.312 97.1718 274.239 95.2341H184.943V95.2274ZM163.051 199.072L162.766 197.316L161.905 198.201V199.072H163.051ZM199.345 203.771C199.491 202.677 200.229 201.499 199.082 201.188L198.654 203.177L199.345 203.771Z" fill="#322115"/>
<path d="M183.789 92.8844L184.339 92L273.967 92.2836C277.201 92.6616 277.393 93.8634 277.122 96.9893L293.008 97.5565C293.267 97.8738 293.201 98.3666 293.26 98.7515L275.975 97.5835C275.65 97.2594 276.843 93.3976 274.537 93.4718L183.796 92.8844H183.789Z" fill="#6C4327"/>
<path d="M183.789 93.4727C183.683 94.3571 184.061 96.4838 183.703 96.9092C183.08 96.8619 182.073 97.5843 181.774 97.5843H170.249C168.645 100.73 169.069 106.273 170.269 109.588L168.81 124.57C168.791 121.579 168.864 118.467 168.837 115.503C168.804 112.248 167.564 99.0764 168.764 97.375C170.646 95.4238 182.006 97.0239 182.616 96.3893L183.796 93.4794L183.789 93.4727Z" fill="#6C4327"/>
<path d="M294.415 135.127C292.672 135.458 293.302 134.229 293.262 133.101C293.189 130.88 292.831 127.72 293.838 125.742C293.971 128.834 294.289 131.981 294.415 135.127Z" fill="#6C4327"/>
<path d="M292.508 120.771C292.362 117.456 292.442 115.62 292.508 112.555C293.138 115.059 293.708 118.428 292.508 120.771Z" fill="#6C4327"/>
<path d="M293.84 122.219C293.879 122.995 293.806 123.785 293.84 124.568L292.68 124.244V122.219H293.84Z" fill="#6C4327"/>
<path d="M284.041 200.841H283.465C283.524 200.564 283.776 200.281 284.041 200.254V200.841Z" fill="#845331"/>
<path d="M286.349 99.9255L286.309 104.591L284.626 105.205L286.859 106.157L287.502 116.946H273.385L263.304 118.701L288.079 118.121V120.463C284.838 120.734 281.193 120.72 277.998 121.058C277.176 121.145 274.525 121.328 274.247 122.226H288.072V137.477L285.759 137.767L288.072 138.058V160.351C279.575 160.257 271.112 160.142 262.728 161.533L270.482 162.728L288.079 162.707V165.05L277.13 165.638L271.947 166.806H288.079C288.099 167.98 288.046 169.162 288.079 170.33C283.254 169.749 276.739 177.81 273.1 177.959C273.034 177.959 272.683 177.318 271.834 177.459C270.747 177.642 267.228 179.633 266.174 178.897L265.061 175.069C265.783 175.069 274.074 172.301 272.523 170.931L263.337 173.24C262.867 170.958 261.654 166.178 258.691 167.703L261.004 174.441L235.878 177.912L232.2 177.385L232.531 179.194L235.938 179.782L261.78 176.17L263.264 179.451C262.96 180.092 262.409 180.106 261.859 180.322C254.357 183.191 243.878 184.069 235.912 183.866C233.645 183.812 231.723 182.59 229.31 183.846L230.238 185.48C235.54 185.197 240.975 186.02 246.297 185.588C250.499 185.251 260.242 181.72 263.006 182.044C265.319 182.314 263.331 185.014 266.187 185.595C265.869 187.681 264.08 189.227 264.457 191.462C254.841 191.624 244.667 191.766 235.076 191.462C235.037 191.462 234.911 190.888 234.5 190.874C230.099 190.726 225.652 190.989 221.251 190.874C224.724 185.129 219.057 178.155 212.966 178.587C210.918 178.729 208.592 180.909 207.717 180.909C206.842 180.909 203.601 178.222 201.308 178.006C199.015 177.79 196.171 179.525 194.773 178.884C194.157 178.6 193.348 177.291 192.268 176.696C190.246 175.582 186.733 174.975 185.567 174.131C184.4 173.287 182.598 169.85 180.921 168.885C182.452 168.001 185.163 169.594 186.104 167.42H177.753C177.216 167.42 174.79 165.773 173.498 166.178C173.829 164.294 172.272 162.876 171.934 161.56C171.821 161.128 173.378 154.997 173.425 152.756C177.587 152.722 181.789 158.116 185.375 159.068C186.892 159.473 190.412 158.265 190.133 160.385C188.662 160.223 187.025 160.493 185.527 160.385C185.434 160.385 185.096 159.825 183.797 159.798C182.611 159.777 182.498 159.575 182.644 160.966C190.75 161.722 198.962 163.477 207.107 163.929C207.724 163.963 212.668 164.125 210.872 162.734C207.823 162.707 204.675 162.485 201.659 162.147C201.427 159.899 201.633 160.729 203.005 160.317C204.986 159.723 214.431 156.381 215.22 155.132C215.597 154.531 215.518 154.011 215.485 153.357L211.455 152.776L220.668 152.182C220.853 152.148 221.065 151.655 221.244 151.594C224.035 150.582 225.075 148.401 226.434 147.787C227.587 147.267 229.105 147.895 229.887 146.895L230.411 146.558C230.583 145.7 230.411 144.816 230.464 143.959L235.07 142.196C235.116 144.789 234.566 151.014 235.163 152.958C235.342 153.532 235.865 154.072 236.501 153.93C236.78 153.573 237.953 152.648 237.953 152.465V133.399C243.679 133.46 249.571 135.938 253.82 139.867C254.29 141.015 251.348 147.233 250.897 149.218C250.413 151.378 248.856 158.42 251.586 159.129C254.317 159.838 252.806 155.72 252.998 153.714C253.369 149.92 254.953 145.957 256.365 142.446C257.412 141.683 260.878 144.796 262.124 145.444C263.132 145.964 264.537 146.558 265.611 146.889C266.148 147.051 266.26 147.334 267.341 147.476C267.526 147.503 267.725 147.463 267.917 147.476C269.766 148.475 273.677 148.455 275.407 147.476C275.784 147.449 276.189 147.523 276.56 147.476C277.647 147.334 277.686 147.098 278.29 146.889C281.385 145.829 285.699 143.567 282.319 140.11C280.715 139.341 279.609 141.19 278.117 141.731C275.479 142.683 273.034 143.013 270.224 142.777C271.94 140.13 274.346 137.032 274.306 133.683C274.273 130.746 273.04 129.801 271.867 133.014C270.853 135.783 270.031 138.564 268.182 140.995C266.075 143.756 261.077 138.611 258.777 137.227C259.533 135.371 264.391 127.917 262.39 126.317C261.892 125.919 260.593 125.507 260.129 126.344L256.968 135.161C251.891 132.684 247.875 129.956 242.208 128.775C241.187 128.558 240.08 128.829 239.119 128.714C239.08 128.714 238.921 128.16 238.543 128.126C238.351 128.106 238.158 128.14 237.966 128.126L237.33 124.67L234.513 124.609C234.586 124.609 235.163 124.021 235.905 124.001C240.803 123.853 245.741 124.163 250.639 124.021C250.771 122.995 249.333 123.468 248.63 123.441C247 123.373 245.35 123.454 243.726 123.441L241.645 115.191C232.816 115.083 223.962 115.44 215.14 115.272C214.1 115.251 213.291 114.644 213.192 114.644H275.996V101.148C276.533 99.0951 283.797 99.912 286.369 99.9728L286.349 99.9255ZM281.166 128.667H275.977V131.603H281.166V128.667ZM281.743 135.715H277.13V137.47H281.743V135.715ZM246.596 136.296H240.253V140.995H246.596V136.296ZM246.596 145.1H240.253V148.036H246.596V145.1ZM259.268 149.204V151.554L264.451 152.135L263.874 151.554V149.204C262.966 148.219 260.149 148.225 259.268 149.204ZM243.136 157.421H226.427V165.05H243.136V157.421ZM212.595 168.568L186.674 167.393C186.395 169.202 187.131 168.325 188.112 168.541C191.969 169.391 195.243 168.952 199.048 169.155C203.17 169.378 207.531 170.283 211.74 169.736C212.582 169.628 213.53 169.29 212.588 168.561L212.595 168.568ZM246.019 167.393H228.157V174.435H246.019V167.393ZM221.244 172.679H217.208V174.435H221.244V172.679ZM197.908 175.022C202.004 175.285 206.199 174.826 210.295 175.022L209.44 173.847L191.287 173.267C189.259 174.84 195.681 174.367 196.205 174.414C196.96 174.489 197.649 175.009 197.914 175.022H197.908Z" fill="url(#paint1_linear_251_102093)"/>
<path d="M213.178 114.59C213.277 114.59 214.079 115.198 215.126 115.218C223.955 115.387 232.809 115.036 241.631 115.137L243.712 123.387C233.518 123.306 223.345 123.34 213.178 123.981C213.045 125.008 214.483 124.535 215.186 124.562C221.39 124.819 228.269 124.724 234.493 124.562L237.31 124.623L237.946 128.079C225.658 127.236 214.676 131.732 202.838 133.926C200.413 129.437 206.868 126.628 206.775 122.489C206.742 121.105 205.211 118.884 203.674 119.276C201.771 119.768 203.978 122.125 203.839 122.982C203.435 125.413 196.907 129.956 199.916 134.527C196.436 134.338 192.718 134.804 189.271 134.527C186.295 134.284 182.12 132.65 179.462 132.731C176.42 132.826 176.732 136.357 179.429 137.511C184.844 139.834 195.992 139.895 201.871 139.159C209.228 138.234 216.167 135.405 223.444 134.136C225.055 133.852 233.359 132.576 234.128 132.819C235.706 133.319 235.043 140.273 235.076 142.163L230.47 143.925C230.569 142.183 230.397 140.394 230.47 138.646H220.097V146.862H229.893C229.118 147.855 227.6 147.233 226.44 147.753C225.081 148.368 224.041 150.548 221.25 151.561L220.919 148.617H214.914V152.148C216.697 151.932 218.997 152.446 220.68 152.148L211.468 152.743L215.497 153.323C215.531 153.978 215.61 154.498 215.232 155.099C214.444 156.355 204.999 159.69 203.017 160.284C201.645 160.696 201.44 159.865 201.672 162.114C197.861 161.682 193.778 160.75 190.146 160.351C190.425 158.232 186.905 159.44 185.387 159.035C181.802 158.083 177.6 152.689 173.438 152.722C173.484 150.481 173.557 148.442 172.854 146.275L174.584 145.687C172.516 146.14 172.636 145.356 171.708 144.506C171.688 143.527 171.741 142.548 171.708 141.569C174.206 137.248 172.251 130.692 172.861 125.73C176.652 125.777 180.682 125.46 184.387 124.555V131.01H189C188.715 127.222 190.769 121.119 184.764 122.786C184.155 122.955 184.44 123.934 184.387 123.968C184.069 124.177 178.243 124.339 176.897 124.555C176.606 123.178 177.567 123.306 178.402 122.894C181.848 121.18 188.257 118.702 188.993 114.583C197.039 114.772 205.138 114.442 213.191 114.583L213.178 114.59ZM195.893 127.492H191.856V131.016H195.893V127.492ZM215.484 140.988H209.718V145.687H215.484V140.988ZM186.965 149.792C191.876 150.211 197.271 149.488 202.235 149.792L201.38 148.617L182.074 148.037C181.146 148.752 182.074 149.104 182.929 149.205C184.241 149.36 185.931 149.704 186.972 149.792H186.965ZM204.535 154.491L181.49 152.729C181.159 154.073 182.06 154.14 183.061 154.322C185.136 154.707 188.695 154.89 191.001 155.065C195.19 155.389 199.485 154.95 203.674 155.666L204.529 154.491H204.535ZM210.295 153.316H208.571V153.89H210.295V153.316Z" fill="#D7AD89"/>
<path d="M221.82 95.2262C222.51 97.7445 224.06 99.4999 226.466 100.283C226.267 103.355 226.393 106.562 227.871 109.317C230.986 109.701 228.455 106.71 228.216 105.434C227.779 103.051 227.454 100.6 227.586 98.1564C224.862 98.6627 224.219 97.758 223.55 95.2262C232.246 95.26 240.968 95.2262 249.67 95.1992C250.399 95.3748 250.386 96.9546 250.631 97.569L247.848 98.0483L246.88 96.401C244.925 96.1714 246.774 98.7842 247.523 99.2771C248.272 99.77 249.697 99.743 249.949 100.033C250.638 100.81 250.432 106.67 251.784 108.135C249.544 108.263 249.564 111.139 249.478 112.827C246.389 112.881 242.585 113.415 239.974 113.415H219.235C217.452 113.415 214.404 112.868 212.031 112.827L212.601 108.722C210.361 108.041 212.389 111.666 210.593 111.072C210.328 110.984 208.876 105.576 206.848 110.478L209.725 112.827C206.457 112.767 185.692 113.293 184.95 112.233C184.976 109.715 186.594 105.178 186.521 103.031C186.487 101.951 185.135 100.324 184.95 99.3311C184.731 98.1361 185.102 96.5023 184.95 95.2262C197.231 95.26 209.539 95.1857 221.82 95.2262ZM197.046 96.4077C191.969 95.1385 193.546 101.215 196.509 99.0881L197.046 96.4077ZM213.171 99.9185H211.448L212.018 104.618L209.526 102.963L206.848 105.205C208.193 102.612 204.117 99.3514 203.388 102.572C203.057 104.03 205.39 103.841 205.609 104.104C206.092 104.685 205.045 107.379 206.563 108.128C208.651 108.594 208.326 101.276 211.826 106.886C215.212 107.838 212.979 101.539 213.178 99.9117L213.171 99.9185ZM217.711 100.587C213.993 99.4391 212.78 103.774 217.174 103.477C217.472 109.087 217.618 106.9 220.415 107.014C221.833 107.075 222.96 109.573 224.445 108.182L225.28 106.089L222.423 105.171L222.397 101.086H220.674C220.296 101.458 221.681 106.17 218.944 105.779L217.711 100.58V100.587ZM246.588 100.506C244.905 98.2171 245.627 105.569 245.435 105.786C241.651 105.988 243.162 100.634 239.682 101.093L239.337 103.47L241.405 104.03L240.232 106.076L241.134 107.554C243.599 105.151 244.719 108.473 246.906 106.987L246.595 100.506H246.588ZM197.039 108.135C197.218 106.454 196.429 102.639 195.07 101.64C193.195 100.256 188.993 101.235 189.556 104.03C191.021 104.293 191.392 102.248 192.724 102.254C194.056 102.261 196.601 105.563 194.554 105.117C192.194 104.604 190.477 103.747 190.656 107.264C190.762 109.371 192.088 110.201 193.586 108.425L192.718 105.806L197.039 108.135ZM201.082 108.722C203.779 109.006 202.527 104.199 201.91 102.889C200.929 100.81 197.205 99.959 197.052 102.855L199.584 102.369C201.625 103.774 201.029 106.575 201.082 108.722ZM238.522 109.89C239.086 106.636 236.753 104.422 236.269 101.343C234.877 100.283 233.611 102.052 233.048 102.052C232.69 102.052 232.199 101.255 231.431 101.235C229.561 101.168 229.628 103.004 229.966 104.543C233.366 104.584 231.543 107.622 232.723 108.479C235.003 110.14 236.289 105.988 236.792 106.386C237.396 107.372 236.66 110.35 238.522 109.904V109.89Z" fill="url(#paint2_linear_251_102093)"/>
<path d="M286.349 99.9251C287.88 99.9589 289.431 99.8981 290.962 99.9251C291.234 106.697 291.366 113.421 291.565 120.193C291.791 127.971 292.042 136.025 292.115 143.931C292.148 147.901 291.605 152.499 292.692 156.253C292.447 161.168 292.036 160.931 292.725 165.9C293.123 168.79 292.725 173.631 292.692 176.784L288.086 177.959C288.112 175.433 288.159 172.854 288.086 170.329C288.053 169.161 288.106 167.98 288.086 166.812L277.137 165.637L288.086 165.05V162.707L270.489 162.727L262.734 161.532C271.125 160.141 279.589 160.263 288.079 160.351V138.057L285.766 137.767L288.079 137.477V122.225H274.253C274.525 121.327 277.183 121.145 278.005 121.057C281.193 120.72 284.845 120.733 288.086 120.463V118.12L263.311 118.701L273.392 116.946H287.509L286.866 106.157L284.633 105.205L286.316 104.59L286.356 99.9251H286.349Z" fill="#845331"/>
<path d="M184.943 95.2273H274.246C274.312 97.165 274.14 99.1566 274.246 101.094C274.352 103.147 275.479 111.721 274.286 112.572C266.034 113.152 257.736 112.68 249.478 112.828C249.564 111.14 249.544 108.258 251.785 108.136C251.977 108.123 252.169 108.143 252.361 108.136C252.467 108.136 253.117 109.284 253.514 108.136L254.595 106.165C254.316 104.713 252.096 104.801 251.864 104.538C251.632 104.274 251.486 99.7845 250.631 97.5768C250.393 96.9557 250.406 95.3826 249.67 95.207C240.968 95.2273 232.246 95.2678 223.55 95.234C222.974 95.234 222.397 95.234 221.82 95.234C209.539 95.1935 197.231 95.2678 184.95 95.234L184.943 95.2273ZM257.624 102.802L255.509 99.9263C253.919 99.582 253.932 102.532 254.078 103.444L256.457 103.781L256.968 107.549C258.472 107.819 257.862 107.333 258.167 106.712C258.929 105.179 258.644 102.85 260.997 103.437C261.183 103.619 260.507 110.33 262.15 108.129C262.29 103.687 262.946 101.007 257.63 102.802H257.624ZM265.604 104.031C267.048 101.547 265.265 97.9211 263.728 101.263C262.568 103.775 264.503 103.633 264.921 105.037C265.716 107.744 264.086 109.682 269.269 108.19C270.316 107.407 270.581 101.682 269.938 100.507C268.387 97.6646 268.566 105.071 268.52 105.53C268.202 108.555 266.107 107.636 266.425 106.347L267.34 104.038H265.61L265.604 104.031Z" fill="#93A6C7"/>
<path d="M271.938 192.625L270.208 197.905C251.087 197.736 231.986 197.203 212.852 197.351L210.863 195.562C215.927 195.373 219.009 193.543 223.801 193.192C239.608 192.031 256.018 192.956 271.932 192.632L271.938 192.625Z" fill="#785641"/>
<path d="M292.683 176.784C292.623 184.035 291.894 191.232 292.113 198.497C284.816 198.017 277.532 197.97 270.215 197.909L271.945 192.63C273.476 192.596 275.027 192.657 276.558 192.63V190.868C280.382 190.733 284.252 190.962 288.077 190.868L287.533 186.425L281.151 185.878L288.07 185.588C288.097 183.833 288.024 182.057 288.07 180.302C288.077 179.91 288.07 179.518 288.07 179.127C288.07 178.735 288.07 178.344 288.07 177.952L292.676 176.777L292.683 176.784Z" fill="#6C4327"/>
<path d="M184.943 99.3373C185.122 100.323 186.474 101.95 186.514 103.037C186.587 105.184 184.969 109.728 184.943 112.239C185.692 113.299 206.457 112.773 209.718 112.833C210.486 112.847 211.255 112.82 212.024 112.833C214.397 112.874 217.446 113.421 219.228 113.421H239.967C242.578 113.421 246.382 112.887 249.471 112.833C257.729 112.685 266.027 113.158 274.279 112.577C275.478 111.726 274.345 103.152 274.239 101.099H275.969V114.596H213.171C205.118 114.454 197.019 114.785 188.973 114.596C187.17 114.555 184.983 115.041 183.452 114.035C183.074 113.502 184.207 107.223 184.366 105.792C184.386 105.596 184.346 105.4 184.366 105.204C184.711 101.667 184.353 103.429 183.79 101.687C183.65 101.261 183.882 100.451 183.79 99.9247V99.3373C184.081 99.4318 184.585 99.2698 184.943 99.3373Z" fill="#845331"/>
<path d="M183.789 99.3365V99.9239C179.7 98.9584 177.155 101.754 173.417 101.686C173.039 102.584 173.967 103.225 173.993 103.441C174.066 103.988 173.96 104.63 173.993 105.204C174.013 105.595 173.987 105.987 173.993 106.378C174.099 112.664 173.099 118.862 173.417 125.154L172.84 125.741C172.23 130.704 174.186 137.259 171.687 141.58C171.243 128.388 171.269 114.966 171.057 102.037C171.044 101.186 170.381 100.282 170.54 99.3365C173.311 99.2757 176.108 99.4108 178.885 99.3298C181.171 99.2622 180.992 98.4116 183.789 99.3298V99.3365Z" fill="#EED8A6"/>
<path d="M292.685 156.247C291.598 152.493 292.148 147.896 292.108 143.926C293.023 147.565 292.877 152.439 292.685 156.247Z" fill="#6C4327"/>
<path d="M235.069 142.161C235.035 140.271 235.698 133.317 234.121 132.817C233.352 132.574 225.047 133.85 223.437 134.133C216.159 135.403 209.227 138.232 201.863 139.157C195.991 139.899 184.843 139.838 179.422 137.509C176.724 136.355 176.419 132.817 179.455 132.729C182.113 132.648 186.295 134.289 189.264 134.525C192.717 134.809 196.429 134.343 199.908 134.525C196.899 129.961 203.427 125.411 203.832 122.98C203.978 122.123 201.764 119.766 203.666 119.274C205.204 118.875 206.735 121.103 206.768 122.487C206.861 126.619 200.405 129.428 202.831 133.924C214.668 131.73 225.65 127.233 237.938 128.077C238.131 128.091 238.323 128.057 238.515 128.077L239.092 128.665C240.059 128.78 241.159 128.516 242.18 128.726C247.847 129.907 251.863 132.635 256.94 135.112L260.102 126.295C260.566 125.458 261.865 125.87 262.362 126.268C264.363 127.868 259.505 135.322 258.75 137.178C261.049 138.562 266.04 143.707 268.154 140.946C270.01 138.515 270.832 135.74 271.839 132.965C273.013 129.759 274.245 130.704 274.278 133.634C274.318 136.983 271.912 140.082 270.196 142.728C273.006 142.964 275.452 142.627 278.089 141.682C279.581 141.141 280.688 139.292 282.291 140.061C285.672 143.518 281.357 145.78 278.262 146.84L276.532 147.427C276.161 147.474 275.756 147.4 275.379 147.427C273.185 147.582 270.07 147.609 267.889 147.427C267.697 147.414 267.498 147.454 267.313 147.427L265.583 146.84C264.516 146.509 263.104 145.922 262.097 145.395C260.844 144.747 257.384 141.634 256.337 142.397C254.932 145.908 253.341 149.871 252.97 153.665C252.771 155.671 254.355 159.809 251.558 159.08C248.762 158.351 250.385 151.329 250.869 149.169C251.32 147.184 254.256 140.966 253.792 139.818C249.544 135.889 243.658 133.404 237.925 133.35V152.416C237.925 152.592 236.752 153.524 236.474 153.882C235.837 154.023 235.314 153.483 235.135 152.909C234.538 150.972 235.088 144.747 235.042 142.147L235.069 142.161Z" fill="#EEEEF3"/>
<path d="M269.062 180.303C271.726 181.896 275.252 180.39 277.97 180.276C281.324 180.141 284.724 180.424 288.077 180.303C288.037 182.058 288.11 183.834 288.077 185.589L281.158 185.879L287.54 186.426L288.084 190.869C284.253 190.963 280.382 190.734 276.558 190.869C272.502 191.01 268.532 191.389 264.462 191.456C264.085 189.221 265.868 187.675 266.192 185.589C266.51 185.657 266.974 185.589 267.346 185.589L268.181 186.19C269.824 186.21 271.475 186.143 273.112 186.176C275.213 186.217 277.34 186.149 279.448 186.176V185.603C278.878 185.569 278.295 185.623 277.725 185.603C274.504 184.036 270.752 185.657 267.352 185.603L266.769 180.917C267.544 180.769 268.32 180.546 269.075 180.323L269.062 180.303Z" fill="#947970"/>
<path d="M266.182 185.581C263.325 185 265.32 182.3 263 182.03C260.237 181.705 250.5 185.23 246.292 185.574C240.97 186.006 235.535 185.182 230.233 185.466L229.305 183.832C231.717 182.576 233.639 183.792 235.906 183.852C243.873 184.055 254.351 183.177 261.854 180.308C262.404 180.099 262.954 180.078 263.259 179.437L261.774 176.156L235.932 179.768L232.526 179.18L232.194 177.371L235.873 177.898L260.999 174.427L258.686 167.689C261.648 166.164 262.861 170.944 263.332 173.226L272.518 170.917C274.069 172.287 265.771 175.049 265.055 175.055L266.168 178.883C267.229 179.626 270.742 177.628 271.829 177.445C272.677 177.304 273.028 177.952 273.094 177.945V179.12C272.882 179.12 269.781 180.085 269.065 180.294C268.303 180.517 267.534 180.74 266.758 180.889L267.342 185.574C266.97 185.574 266.506 185.642 266.188 185.574L266.182 185.581Z" fill="#EEEEF3"/>
<path d="M243.134 157.422H226.426V165.051H243.134V157.422Z" fill="#EEEEF3"/>
<path d="M246.018 167.395H228.156V174.436H246.018V167.395Z" fill="#EEEEF3"/>
<path d="M229.886 146.861H220.09V138.645H230.462C230.389 140.393 230.562 142.182 230.462 143.924C230.416 144.782 230.582 145.659 230.409 146.523L229.886 146.861Z" fill="#EEEEF3"/>
<path d="M288.073 170.33C288.145 172.855 288.099 175.427 288.073 177.959C288.073 178.351 288.073 178.742 288.073 179.134C283.871 178.702 279.775 179.465 275.672 179.769C274.572 179.85 273.478 179.12 273.094 179.134V177.959C276.732 177.811 283.248 169.756 288.073 170.33Z" fill="#947970"/>
<path d="M183.789 159.772L185.519 160.359C187.017 160.467 188.661 160.197 190.125 160.359C193.751 160.757 197.834 161.689 201.651 162.121C204.673 162.465 207.822 162.688 210.864 162.709C212.66 164.099 207.709 163.937 207.099 163.904C198.954 163.451 190.742 161.696 182.636 160.94C182.49 159.549 182.603 159.751 183.789 159.772Z" fill="#EEEEF3"/>
<path d="M212.593 168.566C213.528 169.289 212.58 169.626 211.745 169.741C207.543 170.288 203.175 169.383 199.053 169.161C195.242 168.958 191.968 169.404 188.117 168.546C187.136 168.33 186.394 169.208 186.679 167.398L212.6 168.573L212.593 168.566Z" fill="#EEEEF3"/>
<path d="M243.712 123.394C245.336 123.408 246.986 123.327 248.616 123.394C249.319 123.421 250.757 122.949 250.625 123.975C245.727 124.123 240.789 123.806 235.891 123.954C235.149 123.975 234.572 124.562 234.499 124.562C228.276 124.724 221.396 124.819 215.193 124.562C214.49 124.535 213.052 125.008 213.184 123.982C223.351 123.34 233.518 123.306 243.719 123.387L243.712 123.394Z" fill="#C48D66"/>
<path d="M246.593 136.297H240.25V140.996H246.593V136.297Z" fill="#EEEEF3"/>
<path d="M197.907 175.021C197.648 175.001 196.952 174.488 196.197 174.413C195.68 174.359 189.251 174.839 191.279 173.266L209.433 173.846L210.288 175.021C206.192 174.825 201.996 175.284 197.9 175.021H197.907Z" fill="#EEEEF3"/>
<path d="M220.665 152.14C218.981 152.437 216.688 151.924 214.898 152.14V148.616L220.903 148.609L221.235 151.553C221.062 151.614 220.844 152.107 220.658 152.14H220.665Z" fill="#EEEEF3"/>
<path d="M246.593 145.102H240.25V148.038H246.593V145.102Z" fill="#EEEEF3"/>
<path d="M281.166 128.668H275.977V131.605H281.166V128.668Z" fill="#EEEEF3"/>
<path d="M263.872 149.203H259.266V151.553H263.872V149.203Z" fill="#EEEEF3"/>
<path d="M277.128 165.637L288.071 166.805L271.945 166.798L277.128 165.637Z" fill="#947970"/>
<path d="M281.734 135.715H277.121V137.47H281.734V135.715Z" fill="#EEEEF3"/>
<path d="M221.243 172.68H217.207V174.435H221.243V172.68Z" fill="#EEEEF3"/>
<path d="M275.4 147.449C273.67 148.428 269.759 148.448 267.91 147.449C270.091 147.632 273.206 147.605 275.4 147.449Z" fill="#C7B698"/>
<path d="M263.872 151.555L264.449 152.135L259.266 151.555H263.872Z" fill="#C7B698"/>
<path d="M263.872 149.206H259.266C260.147 148.227 262.964 148.22 263.872 149.206Z" fill="#C7B698"/>
<path d="M267.331 147.451C266.251 147.309 266.138 147.025 265.602 146.863L267.331 147.451Z" fill="#C7B698"/>
<path d="M278.281 146.863C277.678 147.066 277.638 147.309 276.551 147.451L278.281 146.863Z" fill="#C7B698"/>
<path d="M185.519 160.353L183.789 159.766C185.088 159.793 185.426 160.346 185.519 160.353Z" fill="#C7B698"/>
<path d="M235.069 191.451L234.492 190.863C234.903 190.877 235.029 191.451 235.069 191.451Z" fill="#8B6873"/>
<path d="M239.104 128.673L238.527 128.086C238.905 128.12 239.064 128.667 239.104 128.673Z" fill="#C7B698"/>
<path d="M184.365 105.793C184.206 107.224 183.073 113.496 183.451 114.037C184.982 115.042 187.169 114.556 188.972 114.597C188.236 118.715 181.82 121.193 178.381 122.908C177.545 123.327 176.584 123.191 176.876 124.569C175.729 124.751 174.53 124.67 173.416 125.156C173.092 118.864 174.099 112.666 173.993 106.38L184.365 105.793Z" fill="#F0BD8A"/>
<path d="M184.365 123.983C184.418 123.95 184.133 122.971 184.743 122.802C190.748 121.134 188.693 127.238 188.978 131.025H184.365V124.571V123.983Z" fill="#EEEEF3"/>
<path d="M204.534 154.493L203.679 155.667C199.49 154.952 195.195 155.391 191.007 155.066C188.707 154.891 185.148 154.709 183.066 154.324C182.066 154.135 181.164 154.074 181.496 152.73L204.54 154.493H204.534Z" fill="#EEEEF3"/>
<path d="M186.964 149.794C185.93 149.707 184.24 149.362 182.921 149.207C182.066 149.106 181.138 148.755 182.066 148.039L201.373 148.62L202.228 149.794C197.263 149.491 191.868 150.213 186.957 149.794H186.964Z" fill="#EEEEF3"/>
<path d="M215.485 140.988H209.719V145.687H215.485V140.988Z" fill="#EEEEF3"/>
<path d="M195.892 127.492H191.855V131.016H195.892V127.492Z" fill="#EEEEF3"/>
<path d="M184.366 123.98V124.568C180.667 125.473 176.631 125.79 172.84 125.743L173.416 125.155C174.53 124.669 175.73 124.75 176.876 124.568C178.222 124.352 184.047 124.19 184.366 123.98Z" fill="#C48D66"/>
<path d="M210.294 153.316H208.57V153.89H210.294V153.316Z" fill="#B49586"/>
<path d="M238.524 109.891C236.662 110.337 237.398 107.366 236.794 106.374C236.291 105.982 235.005 110.134 232.725 108.467C231.545 107.609 233.368 104.571 229.968 104.531C229.63 102.991 229.564 101.162 231.433 101.223C232.201 101.25 232.692 102.039 233.05 102.039C233.613 102.039 234.879 100.271 236.271 101.331C236.755 104.416 239.094 106.63 238.524 109.878V109.891Z" fill="#EFE7DE"/>
<path d="M217.709 100.586L218.942 105.784C221.679 106.169 220.294 101.457 220.671 101.092H222.395L222.421 105.177L225.278 106.095L224.443 108.188C222.958 109.579 221.831 107.074 220.413 107.02C217.616 106.905 217.47 109.092 217.172 103.482C212.778 103.779 213.991 99.4446 217.709 100.592V100.586Z" fill="#EFE7DE"/>
<path d="M213.171 99.918C212.972 101.545 215.206 107.837 211.819 106.892C208.319 101.282 208.644 108.6 206.556 108.135C205.039 107.378 206.086 104.691 205.602 104.111C205.383 103.847 203.05 104.03 203.382 102.578C204.111 99.3576 208.187 102.612 206.841 105.211L209.519 102.97L212.011 104.624L211.441 99.9315H213.164L213.171 99.918Z" fill="#EFE7DE"/>
<path d="M197.038 108.137L192.717 105.807L193.585 108.427C192.081 110.202 190.762 109.372 190.656 107.266C190.477 103.741 192.193 104.606 194.553 105.119C196.594 105.564 194.056 102.256 192.724 102.256C191.391 102.256 191.027 104.302 189.555 104.032C188.992 101.243 193.194 100.264 195.07 101.642C196.428 102.641 197.217 106.455 197.038 108.137Z" fill="#EFE7DE"/>
<path d="M246.589 100.508L246.901 106.989C244.714 108.474 243.594 105.153 241.128 107.556L240.227 106.077L241.4 104.032L239.332 103.471L239.677 101.095C243.156 100.629 241.645 105.983 245.43 105.787C245.622 105.571 244.899 98.2188 246.583 100.508H246.589Z" fill="#EFE7DE"/>
<path d="M251.776 108.135C250.424 106.67 250.623 100.81 249.94 100.033C249.689 99.7496 248.244 99.7564 247.515 99.277C246.786 98.7977 244.91 96.1714 246.872 96.4009L247.839 98.0483L250.623 97.5689C251.478 99.7766 251.624 104.266 251.856 104.53C252.088 104.793 254.302 104.705 254.587 106.157L253.506 108.128H252.353C252.161 108.135 251.969 108.115 251.776 108.128V108.135Z" fill="#EFE7DE"/>
<path d="M223.55 95.2266C224.22 97.7584 224.862 98.6631 227.586 98.1567C227.454 100.594 227.779 103.052 228.216 105.435C228.448 106.711 230.987 109.702 227.871 109.317C226.393 106.556 226.274 103.355 226.466 100.283C224.061 99.5002 222.51 97.7449 221.82 95.2266C222.397 95.2266 222.974 95.2266 223.55 95.2266Z" fill="#EFE7DE"/>
<path d="M201.08 108.722C201.027 106.575 201.624 103.773 199.583 102.369L197.051 102.855C197.203 99.965 200.935 100.816 201.909 102.888C202.525 104.191 203.778 108.998 201.08 108.722Z" fill="#EFE7DE"/>
<path d="M209.716 112.827L206.84 110.478C208.875 105.576 210.319 110.984 210.585 111.072C212.381 111.666 210.353 108.04 212.593 108.722L212.023 112.827C211.254 112.814 210.485 112.841 209.716 112.827Z" fill="#EFE7DE"/>
<path d="M197.046 96.4104L196.509 99.0908C193.546 101.224 191.969 95.1411 197.046 96.4104Z" fill="#EFE7DE"/>
<path d="M265.604 104.03H267.333L266.419 106.345C266.101 107.635 268.195 108.553 268.513 105.529C268.56 105.069 268.381 97.6563 269.932 100.505C270.574 101.687 270.316 107.412 269.262 108.189C264.079 109.674 265.71 107.743 264.914 105.036C264.503 103.631 262.568 103.773 263.721 101.262C265.259 97.9264 267.035 101.552 265.597 104.03H265.604Z" fill="#EFE7DE"/>
<path d="M257.622 102.802C262.938 101.013 262.281 103.693 262.142 108.129C260.499 110.323 261.175 103.619 260.989 103.437C258.636 102.843 258.928 105.179 258.159 106.711C257.847 107.333 258.464 107.819 256.959 107.549L256.449 103.781L254.07 103.444C253.924 102.539 253.91 99.5819 255.501 99.9262L257.615 102.802H257.622Z" fill="#EFE7DE"/>
<path d="M253.509 108.137C253.111 109.284 252.462 108.137 252.355 108.137H253.509Z" fill="#CDC9C5"/>
<path d="M288.07 179.126C288.07 179.517 288.076 179.909 288.07 180.3C284.716 180.422 281.316 180.138 277.962 180.273C275.245 180.381 271.719 181.894 269.055 180.3C269.77 180.091 272.879 179.132 273.084 179.126C273.469 179.112 274.556 179.841 275.663 179.76C279.765 179.456 283.861 178.693 288.063 179.126H288.07Z" fill="#845331"/>
<path d="M183.791 101.683C184.354 103.424 184.712 101.669 184.367 105.2H173.995C173.962 104.626 174.068 103.992 173.995 103.438L183.791 101.676V101.683Z" fill="#F0BD8A"/>
<path d="M183.789 99.9267C183.882 100.453 183.65 101.264 183.789 101.689L173.994 103.451C173.96 103.235 173.039 102.587 173.417 101.696C177.155 101.763 179.7 98.968 183.789 99.9335V99.9267Z" fill="#DF7943"/>
<path d="M184.366 105.207C184.346 105.403 184.386 105.599 184.366 105.794L173.993 106.382C173.987 105.99 174.013 105.599 173.993 105.207H184.366Z" fill="#DF7943"/>
<path d="M277.705 185.583C276.319 185.515 274.006 185.184 273.098 186.17C271.461 186.136 269.811 186.204 268.167 186.184L267.332 185.583C270.732 185.637 274.483 184.016 277.705 185.583Z" fill="#845331"/>
<path d="M277.707 185.583C278.283 185.61 278.86 185.556 279.43 185.583V186.157C277.329 186.137 275.201 186.204 273.094 186.157C274.002 185.171 276.315 185.509 277.7 185.57L277.707 185.583Z" fill="#6C4327"/>
<path d="M128.48 155.069C126.843 149.499 129.646 142.187 133.099 137.772C134.876 135.503 137.58 134.194 138.852 131.885C138.938 131.027 137.083 125.025 136.605 124.33C136.055 123.533 133.026 124.39 132.171 121.649C131.389 119.145 133.079 117.457 135.545 118.213C139.091 119.293 141.729 127.516 142.312 131.014C148.204 128.293 155.031 128.813 160.982 130.966C162.169 130.663 163.978 122.966 163.521 121.46C163.282 120.677 162.255 120.245 162.01 119.455C160.823 115.62 164.601 113.608 166.397 116.755C168.909 121.163 165.443 128.381 164.866 132.938L168.81 136.293C168.83 134.342 168.797 132.377 168.81 130.426C170.546 130.095 169.923 131.324 169.963 132.452C170.043 134.896 169.91 137.367 169.963 139.811C168.631 138.98 167.425 136.199 166.318 135.314C165.45 134.626 162.308 133.87 161.904 132.769C163.402 132.87 163.355 131.885 163.819 130.899C165.118 128.131 167.073 120.461 165.304 117.869C164.787 117.112 163.554 116.41 163.064 116.93C162.016 118.037 164.455 120.157 164.674 120.859C165.522 123.634 163.561 129.778 161.91 132.182C158.888 131.844 156.78 130.615 153.579 130.399C149.947 130.149 144.545 130.798 141.165 132.182C140.953 129.096 138.11 120.853 135.399 119.57C133.199 118.523 132.258 121.008 133.908 122.264C135.008 123.101 136.612 122.419 137.189 123.162C138.846 125.282 139.396 130.291 140.582 132.776C132.622 136.665 128.692 146.529 128.48 155.069Z" fill="#6C4327"/>
<path d="M128.48 156.246C130.21 155.888 129.475 157.144 129.786 158.116C131.695 164.037 133.12 166.036 137.746 169.985C138.482 170.613 140.464 171.417 140.57 171.545C140.927 171.977 140.006 172.612 140.006 172.679C135.347 168.48 128.533 163.328 128.48 156.253V156.246Z" fill="#6C4327"/>
<path d="M140.007 173.844L143.142 178.597C143.665 179.198 143.294 180.521 143.46 180.886L142.306 182.648C142.32 182.263 142.333 181.858 142.306 181.473C142.068 177.726 140.219 176.281 140 173.844H140.007Z" fill="#6C4327"/>
<path d="M141.737 184.994C141.631 184.792 141.803 184.191 141.737 183.819V183.232C141.756 183.029 141.697 182.813 141.737 182.645H142.313C142.287 183.414 142.611 184.582 141.737 184.994Z" fill="#6C4327"/>
<path d="M163.05 135.714C165.523 137.415 169.294 141.189 170.54 143.93C178.473 161.383 158.689 179.166 141.735 170.335C140.741 169.815 139.595 168.897 138.852 167.986C136.274 164.826 134.703 160.903 134.246 156.839C144.042 159.972 142.902 149.46 134.246 153.902C134.538 151.728 134.697 151.627 135.399 149.797C137.62 151.384 137.739 152.599 140.582 151.559C144.632 150.081 142.75 143.464 140.582 142.175C145.825 134.552 154.779 134.411 163.05 135.72V135.714ZM153.831 145.686C154.441 148.602 155.601 150.985 159.014 150.965C165.085 150.931 162.759 138.205 155.568 141.297C155.084 141.506 153.487 143.241 153.321 143.775C152.936 145.017 153.752 145.321 153.831 145.679V145.686ZM168.664 150.526C167.233 149.115 163.581 150.445 162.255 151.505C159.783 153.47 167.405 156.265 169.135 152.714C169.466 152.059 169.128 150.979 168.664 150.526ZM143.465 156.832C143.18 164.644 150.053 163.921 155.375 161.626C156.489 161.146 157.629 159.769 158.451 159.445C158.988 159.236 160.499 161.146 160.744 159.458C160.93 158.162 156.893 155.428 156.721 155.651C156.615 157.041 157.702 157.717 156.728 158.858C154.772 161.146 147.634 162.881 145.5 160.329C144.307 158.905 145.421 156.582 143.472 156.825L143.465 156.832Z" fill="#FEB476"/>
<path d="M171.693 144.511C172.621 145.355 172.502 146.145 174.57 145.692L172.84 146.28C173.542 148.447 173.469 150.492 173.423 152.727C173.377 154.962 171.819 161.099 171.932 161.531C172.263 162.848 173.821 164.265 173.496 166.149C174.782 165.744 177.214 167.391 177.751 167.391H186.102C185.161 169.565 182.45 167.972 180.919 168.856C182.596 169.822 184.365 173.238 185.565 174.102C186.765 174.967 190.238 175.554 192.266 176.668C193.346 177.262 194.155 178.572 194.771 178.855C196.17 179.497 199.106 177.768 201.306 177.978C203.507 178.187 206.847 180.881 207.715 180.881C208.583 180.881 210.923 178.707 212.964 178.558C219.062 178.133 224.729 185.107 221.249 190.846C225.65 190.968 230.097 190.704 234.498 190.846L235.075 191.433C244.665 191.737 254.839 191.595 264.456 191.433C268.525 191.366 272.502 190.988 276.551 190.846V192.608C275.02 192.635 273.476 192.574 271.945 192.608C256.032 192.932 239.621 192.007 223.814 193.169C219.016 193.52 215.934 195.349 210.877 195.538C209.922 195.572 208.955 195.511 207.994 195.538C208.855 194.303 208.875 192.757 209.147 191.433C209.306 190.67 209.776 190.198 209.723 189.084C209.697 188.557 209.153 188.537 209.147 188.496C207.854 181.434 203.52 178.552 196.474 180.287C198.165 183.197 199.662 187.409 199.358 190.839C199.185 192.77 198.093 196.362 196.94 197.332L193.086 199.045C193.902 197.81 197.608 191.285 197.628 189.664C197.714 182.974 193.2 177.755 186.964 176.175C187.401 180.199 188.415 183.183 187.262 187.315C185.592 193.283 178.904 194.613 179.772 200.811C178.168 199.555 177.638 198.772 175.743 197.874C174.974 197.516 174.517 196.97 173.436 197.287C179.322 196.551 184.273 191.278 185.532 185.553C186.466 181.299 186.228 179.585 184.379 175.581C182.808 172.178 178.785 168.141 174.881 167.932C173.43 167.857 174.139 168.654 174.006 169.714C173.469 174.082 173.019 176.864 169.977 180.273C167.617 182.913 164.396 182.9 165.94 187.308L163.859 184.999L156.721 185.546C156.595 185.148 156.297 184.77 156.144 184.371C164.118 184.864 171.706 179.206 172.276 170.875C172.449 168.397 172.555 165.143 170.838 163.26C170.049 163.57 170.162 164.785 169.977 165.008C163.76 172.482 154.719 175.79 145.202 173.812C144.91 172.745 143.187 172.448 142.319 172.05C142.18 171.51 141.749 170.936 141.742 170.288C158.696 179.125 178.48 161.335 170.547 143.883C170.871 144.126 171.435 144.234 171.7 144.47L171.693 144.511ZM210.87 189.104C211.188 191.879 209.657 193.756 213.461 193.85C216.915 193.938 219.181 192.453 220.089 189.104C221.793 182.832 215.377 178.39 210.459 181.353C207.656 183.048 210.234 184.425 210.744 186.62C210.956 187.524 210.784 188.314 210.87 189.104Z" fill="#8E4721"/>
<path d="M172.269 170.914C171.699 179.238 164.11 184.903 156.137 184.41C152.584 184.194 148.859 182.277 146.341 179.718L146.904 179.434C145.108 177.78 145.638 175.491 145.188 173.851C154.705 175.836 163.745 172.527 169.962 165.047C170.89 166.924 170.651 169.476 172.269 170.914Z" fill="#B76833"/>
<path d="M169.963 180.301C169.34 183.15 172.183 181.719 174.026 182.326C175.086 182.677 176.253 183.886 177.711 184.439C180.196 185.378 182.874 185.769 185.518 185.587C184.259 191.312 179.302 196.585 173.423 197.321C170.659 197.666 168.472 197.024 165.933 196.146L161.532 190.948C160.525 190.023 160.452 187.012 159.624 186.438C158.974 185.992 156.847 185.513 157.297 187.343C157.006 186.613 156.933 186.235 156.721 185.58L163.859 185.034L165.94 187.343C164.396 182.927 167.617 182.941 169.976 180.308L169.963 180.301Z" fill="#C58D63"/>
<path d="M163.051 135.715C154.78 134.405 145.825 134.547 140.583 142.169C139.118 141.291 136.248 142.041 135.128 143.364C134.664 143.918 133.206 147.003 135.102 146.868C135.778 144.512 136.003 143.202 138.853 143.351C138.184 144.275 137.7 145.308 137.123 146.281C136.122 147.962 136.109 147.915 135.393 149.798C134.678 151.682 134.532 151.729 134.24 153.903C134.194 154.234 133.736 154.68 133.736 155.368C133.736 156.057 134.207 156.529 134.24 156.833C134.697 160.898 136.268 164.82 138.846 167.98C136.6 167.426 134.883 164.786 133.776 162.876C122.423 143.276 145.136 123.373 163.044 135.715H163.051Z" fill="#FDE4AF"/>
<path d="M197.621 189.685C197.601 191.306 196.706 195.492 195.891 196.727C195.851 196.781 195.155 196.66 194.95 196.923C191.378 201.588 186.738 203.654 180.912 202.007C180.747 201.345 180.21 201.183 179.759 200.832C178.891 194.634 185.578 193.304 187.248 187.336C188.892 187.721 191.629 190.725 192.756 190.887C194.592 191.144 195.712 189.24 197.614 189.685H197.621Z" fill="#89522B"/>
<path d="M209.139 191.447C208.867 192.77 208.854 194.316 207.986 195.552C205.447 199.184 200.563 200.581 196.46 199.069C196.321 198.907 196.864 197.152 197.037 196.726C197.693 195.147 199.164 192.79 199.343 190.859C202.922 193.411 205.262 192.905 209.139 191.447Z" fill="#CC895F"/>
<path d="M157.291 187.341C156.847 185.511 158.974 185.99 159.617 186.436C160.446 187.01 160.519 190.021 161.526 190.946L165.927 196.145C161.115 194.477 159.114 191.959 157.284 187.341H157.291Z" fill="#FDE3AF"/>
<path d="M141.159 132.187C140.993 132.255 140.814 132.66 140.582 132.775C139.396 130.297 138.846 125.281 137.189 123.161C136.612 122.418 135.001 123.1 133.908 122.263C132.258 121.007 133.199 118.529 135.399 119.569C138.11 120.852 140.953 129.102 141.165 132.181L141.159 132.187Z" fill="#E0785B"/>
<path d="M145.189 173.844C145.633 175.485 145.109 177.774 146.906 179.428L146.342 179.711C143.89 177.22 143.181 175.431 142.312 172.082C143.181 172.48 144.904 172.777 145.196 173.844H145.189Z" fill="#C7B698"/>
<path d="M179.759 200.836C180.21 201.187 180.747 201.349 180.913 202.011C179.143 201.512 174.444 200.073 175.73 197.906C177.625 198.797 178.162 199.587 179.759 200.843V200.836Z" fill="#CEB07B"/>
<path d="M163.051 199.069H161.904V198.205L162.766 197.32L163.051 199.069Z" fill="#C48D66"/>
<path d="M159.02 150.964C156.541 148.392 155.289 145.563 157.29 142.167C156.395 141.404 153.95 144.8 153.83 145.684C153.758 145.326 152.942 145.023 153.32 143.78C153.486 143.24 155.083 141.512 155.567 141.303C162.758 138.204 165.084 150.93 159.013 150.971L159.02 150.964ZM159.59 145.097V143.342H159.027V145.097H159.59Z" fill="#322115"/>
<path d="M140.582 142.159C142.75 143.456 144.632 150.065 140.582 151.544C138.09 151.267 137.64 148.296 137.123 146.264C137.699 145.292 138.183 144.259 138.853 143.334C136.003 143.185 135.777 144.495 135.101 146.852C133.206 146.987 134.664 143.901 135.128 143.347C136.248 142.024 139.111 141.275 140.582 142.152V142.159ZM141.152 145.096C137.593 144.475 140.437 147.635 141.152 146.852V145.096Z" fill="#322115"/>
<path d="M143.464 156.832C145.413 156.589 144.3 158.905 145.493 160.336C147.627 162.888 154.771 161.153 156.72 158.864C157.694 157.723 156.607 157.055 156.713 155.657C156.886 155.435 160.929 158.162 160.736 159.465C160.491 161.153 158.987 159.242 158.443 159.452C157.621 159.776 156.481 161.153 155.368 161.632C150.039 163.928 143.173 164.65 143.458 156.839L143.464 156.832Z" fill="#7E4021"/>
<path d="M134.246 156.83C134.213 156.526 133.742 156.053 133.742 155.365C133.742 154.676 134.2 154.224 134.246 153.9C142.902 149.451 144.042 159.969 134.246 156.837V156.83Z" fill="#EE8E94"/>
<path d="M168.665 150.527C169.123 150.979 169.467 152.059 169.136 152.714C167.406 156.259 159.784 153.47 162.256 151.506C163.589 150.446 167.24 149.122 168.665 150.527Z" fill="#EE8E94"/>
<path d="M153.83 145.685C153.949 144.807 156.388 141.411 157.29 142.168C155.288 145.564 156.541 148.392 159.02 150.965C155.606 150.985 154.446 148.602 153.837 145.685H153.83Z" fill="white"/>
<path d="M140.583 151.553C137.74 152.593 137.614 151.384 135.4 149.791C136.116 147.907 136.129 147.955 137.13 146.273C137.641 148.306 138.098 151.276 140.59 151.553H140.583Z" fill="white"/>
<path d="M184.365 175.608C186.214 179.612 186.452 181.327 185.518 185.58C182.873 185.762 180.196 185.371 177.71 184.432C176.246 183.879 175.086 182.67 174.025 182.319C172.183 181.711 169.34 183.143 169.963 180.294C173.011 176.884 173.455 174.096 173.992 169.734C178.4 169.944 180.355 174.825 184.365 175.601V175.608Z" fill="#FEB476"/>
<path d="M209.14 188.514L209.717 189.101C209.77 190.215 209.299 190.688 209.14 191.451C205.263 192.909 202.923 193.415 199.344 190.863C199.656 187.434 198.151 183.221 196.461 180.311C203.513 178.569 207.841 181.459 209.133 188.521L209.14 188.514Z" fill="#FEB476"/>
<path d="M197.621 189.685C195.719 189.239 194.599 191.143 192.763 190.886C191.63 190.731 188.892 187.72 187.255 187.335C188.409 183.203 187.394 180.219 186.957 176.195C193.194 177.768 197.714 182.994 197.621 189.685Z" fill="#BA6B35"/>
<path d="M220.088 189.101C217.616 190.006 212.744 191.694 210.869 189.101C210.776 188.311 210.948 187.521 210.743 186.617C210.233 184.422 207.654 183.038 210.458 181.35C215.376 178.386 221.791 182.829 220.088 189.101Z" fill="#C86F38"/>
<path d="M210.867 189.102C212.743 191.694 217.615 190.006 220.087 189.102C219.179 192.444 216.912 193.929 213.459 193.848C209.655 193.753 211.192 191.876 210.867 189.102Z" fill="#B15C2D"/>
<path d="M184.365 175.607C180.355 174.831 178.4 169.95 173.993 169.74C174.125 168.687 173.416 167.884 174.868 167.958C178.778 168.16 182.795 172.198 184.365 175.607Z" fill="#FDE3AF"/>
<path d="M172.269 170.916C170.652 169.478 170.891 166.926 169.963 165.049C170.148 164.827 170.036 163.611 170.825 163.301C172.541 165.184 172.435 168.439 172.263 170.916H172.269Z" fill="#FDE3AF"/>
<path d="M209.717 189.103L209.141 188.516C209.147 188.556 209.691 188.576 209.717 189.103Z" fill="#AA6F49"/>
<path d="M159.583 143.34H159.02V145.095H159.583V143.34Z" fill="#CDC9C5"/>
<path d="M141.152 145.097V146.852C140.436 147.642 137.593 144.476 141.152 145.097Z" fill="#FFF4E9"/>
</g>
</g>
<defs>
<linearGradient id="paint0_linear_251_102093" x1="39.5" y1="-673" x2="44.3262" y2="-151.512" gradientUnits="userSpaceOnUse">
<stop offset="0.332725" stop-color="#FAC768"/>
<stop offset="1" stop-color="#F58A39"/>
</linearGradient>
<linearGradient id="paint1_linear_251_102093" x1="209.787" y1="118.975" x2="268.449" y2="191.339" gradientUnits="userSpaceOnUse">
<stop stop-color="#C89E7E"/>
<stop offset="1" stop-color="#A58A81"/>
</linearGradient>
<linearGradient id="paint2_linear_251_102093" x1="184.879" y1="104.307" x2="251.784" y2="104.307" gradientUnits="userSpaceOnUse">
<stop stop-color="#E9C6C9"/>
<stop offset="1" stop-color="#B8B2C8"/>
</linearGradient>
<clipPath id="clip0_251_102093">
<rect width="411" height="620" fill="white"/>
</clipPath>
<clipPath id="clip1_251_102093">
<rect width="411" height="620" fill="white"/>
</clipPath>
</defs>
</svg>
