<svg width="411" height="620" viewBox="0 0 411 620" fill="none" xmlns="http://www.w3.org/2000/svg">
<g clip-path="url(#clip0_251_101868)">
<g clip-path="url(#clip1_251_101868)">
<path d="M166.799 49C148.656 134.047 148.002 118.303 146.275 138.615C145.499 151.995 148.889 179.455 163.31 189.49C177.731 199.525 146.447 255.345 129.002 282" stroke="#D9D9D9" stroke-width="4" stroke-linecap="round"/>
<path d="M157.42 134.348C192.945 138.953 203.62 138.46 204.517 137.637" stroke="#D9D9D9" stroke-width="3"/>
<path d="M155.402 160.254C192.273 161.57 214.499 160.802 221.002 160.254" stroke="#D9D9D9" stroke-width="3"/>
<path d="M91.8203 188.628C171.213 186.325 197.565 183.831 200.817 182.871" stroke="#D9D9D9" stroke-width="3" stroke-linecap="round"/>
<path d="M120.224 115.194C120.32 114.371 119.731 113.626 118.908 113.53C118.085 113.434 117.34 114.023 117.244 114.845L118.734 115.02L120.224 115.194ZM115.033 189.038L116.532 189.109C117.877 160.654 118.774 142.391 119.349 131.123C119.636 125.489 119.843 121.605 119.984 119.07C120.055 117.803 120.11 116.875 120.15 116.235C120.17 115.915 120.186 115.67 120.199 115.492C120.206 115.403 120.211 115.333 120.216 115.28C120.218 115.254 120.22 115.233 120.221 115.218C120.222 115.21 120.222 115.204 120.223 115.2C120.223 115.195 120.224 115.193 120.224 115.194L118.734 115.02L117.244 114.845C117.124 115.873 116.224 132.11 113.535 188.967L115.033 189.038Z" fill="#D9D9D9"/>
<path d="M133.382 146.114C134.204 146.013 134.789 145.265 134.688 144.443C134.588 143.621 133.84 143.036 133.018 143.136L133.2 144.625L133.382 146.114ZM117.725 144.625L117.674 146.124C127.356 146.453 132.13 146.267 133.382 146.114L133.2 144.625L133.018 143.136C132.027 143.257 127.47 143.455 117.776 143.126L117.725 144.625Z" fill="#D9D9D9"/>
<path d="M91.8202 188.626C83.7463 108.439 104.94 89.5234 108.977 80.8879C113.014 72.2523 122.097 55.3925 125.461 41" stroke="#D9D9D9" stroke-width="3"/>
<path d="M309.545 528.531C320.041 417.01 321.32 405.304 320.647 413.391C321.096 395.846 319.907 357.466 311.564 344.307C303.221 331.148 321.32 257.952 331.412 222.999" stroke="#D9D9D9" stroke-width="4"/>
<path d="M313.582 481.652C278.057 477.047 267.382 477.54 266.485 478.363" stroke="#D9D9D9" stroke-width="3"/>
<path d="M315.6 455.746C278.729 454.43 256.503 455.198 249.999 455.746" stroke="#D9D9D9" stroke-width="3"/>
<path d="M379.182 427.372C299.789 429.675 273.436 432.169 270.185 433.129" stroke="#D9D9D9" stroke-width="3" stroke-linecap="round"/>
<path d="M350.778 500.806C350.682 501.629 351.271 502.374 352.094 502.47C352.917 502.566 353.662 501.977 353.758 501.155L352.268 500.98L350.778 500.806ZM355.969 426.962L354.47 426.891C353.125 455.346 352.228 473.609 351.653 484.877C351.366 490.511 351.159 494.395 351.018 496.93C350.947 498.197 350.892 499.125 350.852 499.765C350.832 500.085 350.816 500.33 350.803 500.508C350.796 500.597 350.791 500.667 350.786 500.72C350.784 500.746 350.782 500.767 350.781 500.782C350.78 500.79 350.779 500.796 350.779 500.8C350.779 500.805 350.778 500.807 350.778 500.806L352.268 500.98L353.758 501.155C353.878 500.127 354.778 483.89 357.467 427.033L355.969 426.962Z" fill="#D9D9D9"/>
<path d="M337.62 469.886C336.798 469.987 336.213 470.735 336.314 471.557C336.414 472.379 337.162 472.964 337.984 472.864L337.802 471.375L337.62 469.886ZM353.277 471.375L353.328 469.876C343.646 469.547 338.872 469.733 337.62 469.886L337.802 471.375L337.984 472.864C338.975 472.743 343.532 472.545 353.226 472.874L353.277 471.375Z" fill="#D9D9D9"/>
<path d="M379.182 427.374C387.256 507.561 366.062 526.477 362.025 535.112C357.988 543.748 348.905 560.607 345.541 575" stroke="#D9D9D9" stroke-width="3"/>
<path d="M41.4458 246.656C41.5493 245.556 40.7417 244.581 39.642 244.478C38.5423 244.374 37.5669 245.182 37.4634 246.281L39.4546 246.469L41.4458 246.656ZM28.353 361.609L30.3524 361.66L26.3599 361.443L28.353 361.609ZM39.4546 246.469L37.4634 246.281C32.2154 302.042 29.2721 332.846 27.7249 348.698C26.9508 356.629 26.5275 360.805 26.34 362.492C26.2922 362.923 26.2631 363.159 26.2493 363.253C26.2456 363.279 26.2472 363.265 26.2535 363.232C26.2553 363.223 26.2672 363.161 26.2908 363.08C26.3006 363.047 26.3311 362.943 26.3885 362.816C26.4207 362.749 26.5138 362.583 26.5775 362.487C26.6956 362.337 27.0895 361.987 27.3828 361.823C27.8877 361.671 28.922 361.777 29.3804 362.025C29.631 362.24 29.9435 362.652 30.0287 362.818C30.1499 363.086 30.1802 363.318 30.1844 363.346C30.2035 363.475 30.2046 363.575 30.2047 363.582C30.2057 363.629 30.2041 363.655 30.2049 363.633C30.2117 363.454 30.2601 362.809 30.3461 361.775L28.353 361.609L26.3599 361.443C26.2777 362.431 26.2189 363.189 26.2078 363.482C26.2064 363.519 26.204 363.59 26.2056 363.666C26.206 363.687 26.2077 363.798 26.2279 363.934C26.2326 363.966 26.2635 364.201 26.3854 364.47C26.471 364.637 26.7838 365.049 27.0349 365.265C27.4936 365.513 28.5283 365.619 29.0337 365.467C29.3275 365.302 29.7219 364.952 29.8404 364.801C29.9046 364.705 29.9983 364.538 30.031 364.469C30.0895 364.34 30.1212 364.233 30.1322 364.195C30.1583 364.105 30.1732 364.03 30.1783 364.004C30.1913 363.938 30.201 363.875 30.2072 363.832C30.2326 363.659 30.2688 363.354 30.3155 362.934C30.5066 361.215 30.9326 357.011 31.706 349.086C33.2539 333.227 36.1977 302.417 41.4458 246.656L39.4546 246.469ZM28.353 361.609L26.3537 361.558C26.1278 370.393 26.3136 384.457 27.6068 397.986C28.2534 404.751 29.1802 411.419 30.4822 417.25C31.775 423.041 33.4737 428.178 35.747 431.764L37.4361 430.693L39.1252 429.622C37.2271 426.628 35.6486 422.034 34.3861 416.379C33.1327 410.765 32.2261 404.274 31.5887 397.606C30.3139 384.269 30.1297 370.37 30.3524 361.66L28.353 361.609ZM37.4361 430.693L35.747 431.764C36.5241 432.99 37.123 435.174 37.3998 438.42C37.6712 441.603 37.6157 445.563 37.2792 450.137C36.6064 459.28 34.8278 470.667 32.4623 482.791C27.7336 507.029 20.702 534.006 15.6664 551.447L17.5879 552.001L19.5094 552.556C24.5661 535.043 31.6301 507.946 36.3882 483.557C38.7661 471.369 40.5787 459.805 41.2684 450.43C41.6131 445.746 41.6816 441.555 41.3853 438.08C41.0944 434.668 40.4339 431.686 39.1252 429.622L37.4361 430.693Z" fill="#D9D9D9"/>
<path d="M35.418 293.348C70.943 297.953 81.6184 297.46 82.5155 296.637" stroke="#D9D9D9" stroke-width="3"/>
<path d="M33.4004 319.254C70.271 320.57 92.4966 319.802 99.0005 319.254" stroke="#D9D9D9" stroke-width="3"/>
<path d="M-30.1816 347.628C49.2113 345.325 75.5635 342.831 78.8155 341.871" stroke="#D9D9D9" stroke-width="3" stroke-linecap="round"/>
<path d="M11.3796 305.114C12.2019 305.013 12.787 304.265 12.6865 303.443C12.586 302.621 11.8379 302.036 11.0156 302.136L11.1976 303.625L11.3796 305.114ZM-4.27734 303.625L-4.32825 305.124C5.35423 305.453 10.1277 305.267 11.3796 305.114L11.1976 303.625L11.0156 302.136C10.0247 302.257 5.46834 302.455 -4.22644 302.126L-4.27734 303.625Z" fill="#D9D9D9"/>
<path d="M4.91995 200.341C5.1085 199.535 4.60741 198.728 3.80072 198.539C2.99404 198.351 2.18724 198.852 1.99869 199.659L3.45932 200L4.91995 200.341ZM-30.1818 347.626L-28.6893 347.476C-32.7125 307.519 -29.4306 282.952 -24.7092 267.36C-22.3499 259.568 -19.6234 253.992 -17.2424 249.834C-16.0478 247.748 -14.9392 246.017 -13.985 244.51C-13.0475 243.03 -12.2188 241.706 -11.666 240.523L-13.0248 239.888L-14.3837 239.253C-14.8401 240.229 -15.5568 241.385 -16.5195 242.905C-17.4655 244.399 -18.6118 246.189 -19.8457 248.343C-22.3216 252.667 -25.146 258.451 -27.5805 266.491C-32.4468 282.562 -35.725 307.546 -31.6742 347.776L-30.1818 347.626ZM-13.0248 239.888L-11.666 240.523C-7.69441 232.027 1.50883 214.935 4.91995 200.341L3.45932 200L1.99869 199.659C-1.31841 213.85 -10.2814 230.477 -14.3837 239.253L-13.0248 239.888Z" fill="#D9D9D9"/>
<path d="M480.687 162.757C322.932 143.451 306.369 141.062 317.806 142.281C293.022 141.711 238.87 144.916 220.534 162.294C202.198 179.672 98.3317 144.004 48.6906 123.998" stroke="#D9D9D9" stroke-width="4"/>
<path d="M375.195 151.414C371.092 249.607 372.097 279.083 373.113 281.546" stroke="#D9D9D9" stroke-width="3"/>
<path d="M340.789 149.48C346.604 225.02 344.48 270.635 342.691 284" stroke="#D9D9D9" stroke-width="3"/>
<path d="M309.371 73.6709C314.831 156.999 319.859 184.612 321.691 188.002" stroke="#D9D9D9" stroke-width="3" stroke-linecap="round"/>
<path d="M397.426 106.191C398.25 106.276 398.987 105.677 399.072 104.853C399.157 104.029 398.558 103.292 397.734 103.207L397.58 104.699L397.426 106.191ZM309.275 101.51L309.224 103.009C377.174 105.278 396.349 106.08 397.426 106.191L397.58 104.699L397.734 103.207C396.52 103.082 377.164 102.276 309.325 100.01L309.275 101.51Z" fill="#D9D9D9"/>
<path d="M361.042 122.746C361.153 123.567 361.909 124.142 362.73 124.031C363.551 123.919 364.126 123.163 364.014 122.342L362.528 122.544L361.042 122.746ZM362.266 103.988L360.766 103.959C360.538 115.576 360.842 121.274 361.042 122.746L362.528 122.544L364.014 122.342C363.849 121.13 363.537 115.647 363.765 104.018L362.266 103.988Z" fill="#D9D9D9"/>
<path d="M309.371 73.6689C404.831 62.6357 427.741 87.7305 438.104 92.4256C448.468 97.1208 468.722 107.728 485.937 111.519" stroke="#D9D9D9" stroke-width="3"/>
<path d="M271.445 433.467C138.314 422.761 124.337 421.425 133.99 422.096C113.065 421.854 67.3298 423.926 51.7836 434.152C36.2374 444.378 -51.332 423.909 -93.1735 412.397" stroke="#D9D9D9" stroke-width="4"/>
<path d="M215.49 429.414C210.602 472.09 211.371 484.883 212.367 485.944" stroke="#D9D9D9" stroke-width="3"/>
<path d="M184.57 427.43C183.626 471.664 184.919 498.301 185.683 506.091" stroke="#D9D9D9" stroke-width="3"/>
<path d="M149.666 351.667C153.757 446.829 157.178 478.386 158.377 482.269" stroke="#D9D9D9" stroke-width="3" stroke-linecap="round"/>
<path d="M237.721 384.191C238.545 384.276 239.282 383.677 239.367 382.853C239.452 382.029 238.853 381.292 238.029 381.207L237.875 382.699L237.721 384.191ZM149.569 379.51L149.519 381.009C217.469 383.278 236.644 384.08 237.721 384.191L237.875 382.699L238.029 381.207C236.815 381.082 217.459 380.276 149.62 378.01L149.569 379.51Z" fill="#D9D9D9"/>
<path d="M201.337 400.746C201.448 401.567 202.204 402.142 203.025 402.031C203.846 401.919 204.421 401.163 204.309 400.342L202.823 400.544L201.337 400.746ZM202.561 381.988L201.061 381.959C200.833 393.576 201.137 399.274 201.337 400.746L202.823 400.544L204.309 400.342C204.144 399.13 203.832 393.647 204.06 382.018L202.561 381.988Z" fill="#D9D9D9"/>
<path d="M146.017 352.669C241.477 341.636 264.387 366.731 274.751 371.426C285.114 376.121 305.368 386.728 322.584 390.519" stroke="#D9D9D9" stroke-width="3"/>
<path d="M466.649 320.762C346.581 336.75 333.981 338.669 342.69 337.629C323.777 338.508 282.363 337.475 268.011 326.319C253.659 315.163 175.069 340.916 137.568 355.187" stroke="#D9D9D9" stroke-width="4"/>
<path d="M416.17 326.973C410.519 278.685 410.846 264.146 411.716 262.912" stroke="#D9D9D9" stroke-width="3"/>
<path d="M388.27 330.113C386.14 279.944 386.541 249.678 387.007 240.817" stroke="#D9D9D9" stroke-width="3"/>
<path d="M358.895 417.096C359.85 308.989 362.033 273.079 363.005 268.638" stroke="#D9D9D9" stroke-width="3" stroke-linecap="round"/>
<path d="M437.519 377.857C438.337 377.725 439.107 378.28 439.24 379.098C439.372 379.916 438.816 380.686 437.999 380.818L437.759 379.338L437.519 377.857ZM358.004 385.504L357.894 384.008C388.555 381.742 408.233 380.243 420.374 379.289C426.444 378.812 430.629 378.471 433.359 378.24C434.724 378.124 435.723 378.036 436.411 377.971C436.755 377.939 437.018 377.913 437.209 377.893C437.305 377.883 437.379 377.875 437.434 377.868C437.462 377.865 437.483 377.862 437.499 377.86C437.515 377.858 437.521 377.857 437.519 377.857L437.759 379.338L437.999 380.818C437.402 380.915 432.695 381.33 420.609 382.28C408.462 383.234 388.779 384.734 358.115 387L358.004 385.504Z" fill="#D9D9D9"/>
<path d="M404.055 359.976C404.123 359.151 404.847 358.536 405.673 358.604C406.498 358.672 407.113 359.397 407.045 360.222L405.55 360.099L404.055 359.976ZM405.848 381.164L404.349 381.225C403.809 368.047 403.921 361.608 404.055 359.976L405.55 360.099L407.045 360.222C406.928 361.647 406.806 367.914 407.346 381.103L405.848 381.164Z" fill="#D9D9D9"/>
<path d="M358.894 417.097C445.527 426.864 465.519 397.726 474.754 392.099C483.99 386.472 501.997 373.851 517.454 369.052" stroke="#D9D9D9" stroke-width="3"/>
<path d="M195 156.935V-751.48C195 -751.48 188.736 -811 127.136 -811C65.5358 -811 57.1832 -751.48 57.1832 -751.48V-633.415C57.1832 -633.415 54.0511 -579.749 13.3325 -542.671C-27.3861 -505.593 -85.8538 -503.642 -85.8538 -503.642H-208.607C-208.607 -503.642 -289 -506.569 -289 -437.291C-289 -368.013 -208.607 -371.916 -208.607 -371.916H49.8747C49.8747 -371.916 115.651 -371.916 115.651 -305.566C115.651 -239.216 58.2273 -238.24 58.2273 -238.24H-128.248C-128.248 -238.24 -188.804 -233.361 -188.804 -172.865C-188.804 -112.369 -128.248 -112.369 -128.248 -112.369H-63.2547C29.2968 -112.369 34.5031 -98.8976 34.5031 13.5013V138.396C34.5031 138.396 26.1507 199.868 -37.5374 199.868C-101.225 199.868 -107.49 138.396 -107.49 138.396V52.531C-107.49 52.531 -107.962 5.69537 -165.386 5.69537C-222.809 5.69537 -222.626 56.434 -222.626 56.434V138.396C-222.626 201.819 -209.742 257.055 -115.088 275H54.051C186.648 275 195 156.935 195 156.935Z" stroke="url(#paint0_linear_251_101868)" stroke-width="30"/>
<rect x="143.5" y="323.5" width="181" height="30" rx="15" fill="white"/>
<rect x="143.5" y="323.5" width="181" height="30" rx="15" stroke="#BF4B17" stroke-width="3"/>
<path d="M155.534 331.9H160.798V332.988H155.534V331.9ZM160.462 331.9H160.654L160.862 331.852L161.598 332.092C161.353 333.969 160.964 335.66 160.43 337.164C159.897 338.657 159.246 339.953 158.478 341.052C157.721 342.151 156.878 343.036 155.95 343.708C155.865 343.569 155.737 343.409 155.566 343.228C155.406 343.036 155.262 342.892 155.134 342.796C155.785 342.369 156.393 341.809 156.958 341.116C157.534 340.423 158.052 339.617 158.51 338.7C158.98 337.783 159.38 336.775 159.71 335.676C160.052 334.577 160.302 333.409 160.462 332.172V331.9ZM155.582 334.7L156.43 334.044C156.889 334.631 157.358 335.26 157.838 335.932C158.318 336.593 158.782 337.26 159.23 337.932C159.678 338.604 160.078 339.249 160.43 339.868C160.793 340.487 161.081 341.041 161.294 341.532L160.334 342.332C160.121 341.82 159.838 341.249 159.486 340.62C159.134 339.991 158.745 339.335 158.318 338.652C157.892 337.959 157.438 337.276 156.958 336.604C156.489 335.932 156.03 335.297 155.582 334.7ZM163.518 332.476H168.958V333.58H163.518V332.476ZM163.486 330.076L164.638 330.236C164.446 331.527 164.18 332.743 163.838 333.884C163.497 335.015 163.065 335.975 162.542 336.764C162.478 336.7 162.388 336.625 162.27 336.54C162.153 336.444 162.03 336.359 161.902 336.284C161.774 336.199 161.662 336.129 161.566 336.076C161.908 335.596 162.201 335.041 162.446 334.412C162.702 333.772 162.91 333.084 163.07 332.348C163.241 331.612 163.38 330.855 163.486 330.076ZM168.702 332.476H168.894L169.086 332.444L169.886 332.668C169.748 333.276 169.577 333.911 169.374 334.572C169.182 335.223 168.99 335.767 168.798 336.204L167.838 335.9C167.945 335.623 168.052 335.303 168.158 334.94C168.265 334.577 168.366 334.199 168.462 333.804C168.558 333.409 168.638 333.036 168.702 332.684V332.476ZM165.854 336.156C166.046 337.329 166.318 338.423 166.67 339.436C167.033 340.439 167.508 341.313 168.094 342.06C168.681 342.807 169.406 343.377 170.27 343.772C170.174 343.847 170.073 343.943 169.966 344.06C169.87 344.177 169.774 344.3 169.678 344.428C169.593 344.567 169.518 344.684 169.454 344.78C168.548 344.3 167.79 343.655 167.182 342.844C166.574 342.023 166.084 341.063 165.71 339.964C165.348 338.855 165.06 337.633 164.846 336.3L165.854 336.156ZM164.846 334.54H165.982V335.676C165.982 336.348 165.934 337.073 165.838 337.852C165.753 338.62 165.556 339.409 165.246 340.22C164.948 341.031 164.484 341.831 163.854 342.62C163.225 343.409 162.372 344.14 161.294 344.812C161.241 344.727 161.161 344.631 161.054 344.524C160.958 344.417 160.857 344.316 160.75 344.22C160.644 344.124 160.542 344.044 160.446 343.98C161.47 343.351 162.276 342.679 162.862 341.964C163.46 341.239 163.897 340.508 164.174 339.772C164.462 339.025 164.644 338.305 164.718 337.612C164.804 336.908 164.846 336.257 164.846 335.66V334.54ZM178.446 333.244H179.662V343.212C179.662 343.596 179.609 343.884 179.502 344.076C179.406 344.279 179.23 344.428 178.974 344.524C178.718 344.62 178.372 344.679 177.934 344.7C177.497 344.732 176.937 344.748 176.254 344.748C176.222 344.577 176.164 344.375 176.078 344.14C176.004 343.916 175.918 343.719 175.822 343.548C176.164 343.559 176.484 343.564 176.782 343.564C177.092 343.564 177.358 343.564 177.582 343.564C177.806 343.564 177.966 343.564 178.062 343.564C178.201 343.553 178.297 343.527 178.35 343.484C178.414 343.431 178.446 343.34 178.446 343.212V333.244ZM184.046 330.236L184.734 331.292C184.041 331.473 183.252 331.628 182.366 331.756C181.492 331.873 180.558 331.975 179.566 332.06C178.585 332.145 177.598 332.215 176.606 332.268C175.625 332.311 174.676 332.337 173.758 332.348C173.748 332.199 173.71 332.017 173.646 331.804C173.593 331.591 173.534 331.415 173.47 331.276C174.377 331.244 175.321 331.207 176.302 331.164C177.284 331.111 178.249 331.041 179.198 330.956C180.148 330.871 181.038 330.769 181.87 330.652C182.702 330.535 183.428 330.396 184.046 330.236ZM174.51 339.052L175.678 339.436C175.38 339.948 175.038 340.471 174.654 341.004C174.281 341.527 173.892 342.028 173.486 342.508C173.092 342.977 172.708 343.399 172.334 343.772C172.27 343.697 172.174 343.612 172.046 343.516C171.929 343.42 171.806 343.324 171.678 343.228C171.55 343.132 171.438 343.052 171.342 342.988C171.726 342.657 172.11 342.279 172.494 341.852C172.889 341.415 173.257 340.956 173.598 340.476C173.95 339.996 174.254 339.521 174.51 339.052ZM181.806 339.548L182.846 339.068C183.23 339.484 183.63 339.943 184.046 340.444C184.473 340.935 184.868 341.42 185.23 341.9C185.593 342.369 185.881 342.785 186.094 343.148L184.99 343.724C184.777 343.351 184.494 342.924 184.142 342.444C183.79 341.953 183.412 341.457 183.006 340.956C182.601 340.444 182.201 339.975 181.806 339.548ZM172.798 337.884C172.777 337.799 172.74 337.687 172.686 337.548C172.644 337.399 172.596 337.255 172.542 337.116C172.489 336.967 172.441 336.844 172.398 336.748C172.505 336.705 172.596 336.599 172.67 336.428C172.745 336.247 172.82 336.012 172.894 335.724C172.937 335.543 173.001 335.223 173.086 334.764C173.172 334.295 173.252 333.751 173.326 333.132C173.412 332.513 173.46 331.895 173.47 331.276L174.702 331.548C174.681 332.188 174.622 332.844 174.526 333.516C174.43 334.177 174.313 334.823 174.174 335.452C174.046 336.071 173.913 336.631 173.774 337.132V337.148C173.774 337.148 173.721 337.175 173.614 337.228C173.518 337.271 173.406 337.335 173.278 337.42C173.15 337.495 173.038 337.575 172.942 337.66C172.846 337.745 172.798 337.82 172.798 337.884ZM172.798 337.884V336.892L173.63 336.46H185.534L185.518 337.676H174.686C174.334 337.676 174.025 337.687 173.758 337.708C173.492 337.719 173.278 337.74 173.118 337.772C172.958 337.804 172.852 337.841 172.798 337.884ZM192.526 336.588H193.614C193.582 337.377 193.513 338.081 193.406 338.7C193.31 339.319 193.145 339.868 192.91 340.348C192.676 340.817 192.345 341.228 191.918 341.58C191.502 341.932 190.958 342.231 190.286 342.476C190.233 342.348 190.137 342.193 189.998 342.012C189.87 341.831 189.748 341.692 189.63 341.596C190.43 341.319 191.028 340.967 191.422 340.54C191.828 340.103 192.105 339.564 192.254 338.924C192.404 338.273 192.494 337.495 192.526 336.588ZM195.438 336.588H196.494V340.572C196.494 340.753 196.521 340.871 196.574 340.924C196.628 340.977 196.75 341.004 196.942 341.004C196.985 341.004 197.065 341.004 197.182 341.004C197.3 341.004 197.428 341.004 197.566 341.004C197.716 341.004 197.854 341.004 197.982 341.004C198.11 341.004 198.201 341.004 198.254 341.004C198.382 341.004 198.473 340.967 198.526 340.892C198.59 340.817 198.633 340.668 198.654 340.444C198.686 340.209 198.708 339.857 198.718 339.388C198.825 339.473 198.969 339.559 199.15 339.644C199.342 339.719 199.513 339.772 199.662 339.804C199.63 340.38 199.572 340.828 199.486 341.148C199.401 341.457 199.273 341.676 199.102 341.804C198.932 341.932 198.692 341.996 198.382 341.996C198.318 341.996 198.212 341.996 198.062 341.996C197.924 341.996 197.764 341.996 197.582 341.996C197.401 341.996 197.236 341.996 197.086 341.996C196.948 341.996 196.852 341.996 196.798 341.996C196.436 341.996 196.153 341.953 195.95 341.868C195.758 341.783 195.625 341.639 195.55 341.436C195.476 341.233 195.438 340.951 195.438 340.588V336.588ZM189.886 336.284H199.502V337.308H189.886V336.284ZM190.926 333.532H198.574V334.54H190.926V333.532ZM188.046 330.812H201.454V344.78H200.222V331.932H189.23V344.78H188.046V330.812ZM188.75 342.924H200.718V344.044H188.75V342.924ZM207.524 338.524C207.524 337.745 207.593 336.999 207.732 336.284C207.881 335.569 208.084 334.903 208.34 334.284C208.596 333.665 208.894 333.105 209.236 332.604C209.588 332.103 209.966 331.681 210.372 331.34H212.02C211.582 331.745 211.188 332.199 210.836 332.7C210.484 333.201 210.185 333.735 209.94 334.3C209.694 334.865 209.502 335.452 209.364 336.06C209.236 336.668 209.172 337.276 209.172 337.884V339.164C209.172 339.772 209.236 340.38 209.364 340.988C209.502 341.596 209.694 342.183 209.94 342.748C210.185 343.313 210.484 343.847 210.836 344.348C211.188 344.86 211.582 345.313 212.02 345.708H210.372C209.966 345.367 209.588 344.945 209.236 344.444C208.894 343.943 208.596 343.383 208.34 342.764C208.084 342.145 207.881 341.479 207.732 340.764C207.593 340.049 207.524 339.303 207.524 338.524ZM214.835 330.092L215.923 330.412C215.709 330.999 215.453 331.58 215.155 332.156C214.856 332.732 214.525 333.271 214.163 333.772C213.8 334.273 213.421 334.711 213.027 335.084C212.995 334.999 212.941 334.887 212.867 334.748C212.792 334.609 212.712 334.465 212.627 334.316C212.541 334.167 212.467 334.049 212.403 333.964C212.904 333.495 213.368 332.919 213.795 332.236C214.232 331.553 214.579 330.839 214.835 330.092ZM214.387 331.852H218.771V333.004H214.163L214.387 331.852ZM215.107 344.7L214.963 343.628L215.379 343.164L218.563 341.548C218.584 341.708 218.621 341.889 218.675 342.092C218.728 342.284 218.771 342.444 218.803 342.572C218.067 342.967 217.464 343.287 216.995 343.532C216.536 343.788 216.179 343.985 215.923 344.124C215.677 344.273 215.496 344.391 215.379 344.476C215.261 344.561 215.171 344.636 215.107 344.7ZM213.635 334.748H218.355V335.836H213.635V334.748ZM212.835 337.996H218.755V339.1H212.835V337.996ZM219.043 337.212H227.139V338.364H219.043V337.212ZM220.387 332.94H226.755V334.044H220.051L220.387 332.94ZM220.115 330.7L221.251 330.876C221.101 331.911 220.893 332.908 220.627 333.868C220.36 334.817 220.035 335.633 219.651 336.316C219.576 336.252 219.475 336.183 219.347 336.108C219.229 336.033 219.107 335.959 218.979 335.884C218.861 335.809 218.755 335.756 218.659 335.724C219.032 335.095 219.336 334.337 219.571 333.452C219.816 332.567 219.997 331.649 220.115 330.7ZM222.483 330.14H223.667V335.052C223.667 335.66 223.64 336.305 223.587 336.988C223.544 337.66 223.443 338.343 223.283 339.036C223.133 339.719 222.899 340.401 222.579 341.084C222.259 341.756 221.827 342.407 221.283 343.036C220.749 343.655 220.077 344.231 219.267 344.764C219.213 344.679 219.133 344.577 219.027 344.46C218.931 344.353 218.824 344.247 218.707 344.14C218.6 344.044 218.499 343.959 218.403 343.884C219.192 343.415 219.843 342.897 220.355 342.332C220.867 341.756 221.267 341.159 221.555 340.54C221.843 339.921 222.051 339.297 222.179 338.668C222.317 338.028 222.403 337.404 222.435 336.796C222.467 336.177 222.483 335.596 222.483 335.052V330.14ZM223.619 337.692C223.8 338.588 224.056 339.431 224.387 340.22C224.717 341.009 225.128 341.708 225.619 342.316C226.109 342.913 226.68 343.383 227.331 343.724C227.245 343.799 227.149 343.895 227.043 344.012C226.936 344.129 226.835 344.247 226.739 344.364C226.653 344.492 226.579 344.609 226.515 344.716C225.469 344.108 224.632 343.207 224.003 342.012C223.373 340.807 222.904 339.441 222.595 337.916L223.619 337.692ZM215.107 344.7C215.075 344.593 215.027 344.471 214.963 344.332C214.899 344.204 214.824 344.076 214.739 343.948C214.664 343.82 214.589 343.713 214.515 343.628C214.664 343.543 214.824 343.404 214.995 343.212C215.176 343.009 215.267 342.743 215.267 342.412V335.068H216.419V343.484C216.419 343.484 216.371 343.511 216.275 343.564C216.189 343.617 216.083 343.687 215.955 343.772C215.827 343.868 215.699 343.969 215.571 344.076C215.443 344.183 215.331 344.289 215.235 344.396C215.149 344.513 215.107 344.615 215.107 344.7ZM236.371 343.1H241.651V344.156H236.371V343.1ZM237.155 331.692H241.379V332.748H237.155V331.692ZM235.907 338.972H242.195V344.7H241.059V340.012H237.027V344.748H235.907V338.972ZM240.947 331.692H241.171L241.395 331.644L242.147 331.98C241.848 332.961 241.448 333.863 240.947 334.684C240.445 335.495 239.875 336.231 239.235 336.892C238.595 337.543 237.907 338.113 237.171 338.604C236.445 339.095 235.704 339.505 234.947 339.836C234.872 339.697 234.765 339.537 234.627 339.356C234.499 339.164 234.371 339.015 234.243 338.908C234.957 338.641 235.656 338.284 236.339 337.836C237.021 337.388 237.667 336.865 238.275 336.268C238.883 335.66 239.416 334.993 239.875 334.268C240.333 333.532 240.691 332.743 240.947 331.9V331.692ZM237.443 330.044L238.579 330.332C238.344 331.047 238.056 331.745 237.715 332.428C237.384 333.111 237.016 333.745 236.611 334.332C236.216 334.908 235.8 335.42 235.363 335.868C235.299 335.793 235.208 335.708 235.091 335.612C234.973 335.516 234.851 335.42 234.723 335.324C234.605 335.217 234.504 335.137 234.419 335.084C235.08 334.497 235.672 333.761 236.195 332.876C236.717 331.98 237.133 331.036 237.443 330.044ZM237.123 332.364C237.347 332.94 237.651 333.532 238.035 334.14C238.429 334.737 238.888 335.324 239.411 335.9C239.944 336.465 240.547 336.988 241.219 337.468C241.901 337.937 242.648 338.327 243.459 338.636C243.384 338.711 243.299 338.807 243.203 338.924C243.107 339.041 243.016 339.164 242.931 339.292C242.845 339.42 242.771 339.537 242.707 339.644C241.885 339.281 241.133 338.844 240.451 338.332C239.779 337.82 239.181 337.265 238.659 336.668C238.136 336.06 237.677 335.447 237.283 334.828C236.899 334.199 236.584 333.596 236.339 333.02L237.123 332.364ZM229.315 337.164H230.339V342.956H229.315V337.164ZM230.387 331.788V334.604H233.411V331.788H230.387ZM229.315 330.732H234.515V335.66H229.315V330.732ZM231.587 335.132H232.675V342.444H231.587V335.132ZM228.499 342.828C229.021 342.732 229.624 342.609 230.307 342.46C230.989 342.3 231.715 342.129 232.483 341.948C233.251 341.767 234.019 341.585 234.787 341.404L234.899 342.476C233.8 342.753 232.707 343.025 231.619 343.292C230.531 343.559 229.56 343.793 228.707 343.996L228.499 342.828ZM231.971 337.964H234.675V339.036H231.971V337.964ZM247.539 335.468H255.475V336.524H247.539V335.468ZM244.851 339.1H259.011V340.236H244.851V339.1ZM251.299 337.948H252.515V343.34C252.515 343.703 252.456 343.98 252.339 344.172C252.232 344.364 252.029 344.508 251.731 344.604C251.443 344.689 251.059 344.743 250.579 344.764C250.109 344.785 249.507 344.796 248.771 344.796C248.728 344.625 248.653 344.428 248.547 344.204C248.451 343.98 248.349 343.788 248.243 343.628C248.659 343.639 249.048 343.644 249.411 343.644C249.773 343.655 250.083 343.66 250.339 343.66C250.605 343.66 250.792 343.655 250.899 343.644C251.059 343.633 251.165 343.601 251.219 343.548C251.272 343.505 251.299 343.431 251.299 343.324V337.948ZM255.107 335.468H255.395L255.651 335.404L256.435 335.98C256.072 336.343 255.651 336.705 255.171 337.068C254.701 337.42 254.205 337.751 253.683 338.06C253.16 338.369 252.648 338.636 252.147 338.86C252.061 338.743 251.949 338.62 251.811 338.492C251.683 338.353 251.571 338.241 251.475 338.156C251.923 337.953 252.376 337.713 252.835 337.436C253.304 337.159 253.736 336.871 254.131 336.572C254.525 336.263 254.851 335.969 255.107 335.692V335.468ZM245.171 332.716H258.739V336.3H257.539V333.804H246.323V336.3H245.171V332.716ZM256.611 330.156L257.875 330.588C257.533 331.079 257.16 331.575 256.755 332.076C256.36 332.577 255.997 333.004 255.667 333.356L254.707 332.94C254.92 332.695 255.144 332.412 255.379 332.092C255.624 331.761 255.853 331.431 256.067 331.1C256.291 330.759 256.472 330.444 256.611 330.156ZM246.275 330.716L247.283 330.252C247.592 330.583 247.891 330.956 248.179 331.372C248.477 331.777 248.691 332.14 248.819 332.46L247.763 332.988C247.635 332.679 247.427 332.311 247.139 331.884C246.851 331.457 246.563 331.068 246.275 330.716ZM250.387 330.38L251.427 329.98C251.693 330.364 251.949 330.791 252.195 331.26C252.451 331.719 252.632 332.113 252.739 332.444L251.619 332.892C251.533 332.551 251.368 332.145 251.123 331.676C250.888 331.196 250.643 330.764 250.387 330.38ZM261.795 331.228H273.331V332.364H261.795V331.228ZM263.587 334.492L264.403 333.708C264.872 334.017 265.373 334.369 265.907 334.764C266.451 335.148 266.968 335.532 267.459 335.916C267.949 336.289 268.355 336.625 268.675 336.924L267.827 337.836C267.528 337.537 267.133 337.191 266.643 336.796C266.163 336.401 265.651 336.001 265.107 335.596C264.573 335.191 264.067 334.823 263.587 334.492ZM272.899 331.228H274.099C274.099 331.228 274.099 331.271 274.099 331.356C274.099 331.441 274.099 331.543 274.099 331.66C274.099 331.767 274.099 331.852 274.099 331.916C274.077 334.017 274.045 335.788 274.003 337.228C273.971 338.657 273.928 339.825 273.875 340.732C273.821 341.628 273.741 342.321 273.635 342.812C273.539 343.303 273.416 343.649 273.267 343.852C273.085 344.119 272.888 344.305 272.675 344.412C272.472 344.519 272.221 344.583 271.923 344.604C271.613 344.636 271.219 344.647 270.739 344.636C270.269 344.636 269.8 344.62 269.331 344.588C269.32 344.417 269.283 344.22 269.219 343.996C269.155 343.783 269.064 343.596 268.947 343.436C269.501 343.479 270.008 343.5 270.467 343.5C270.936 343.511 271.277 343.516 271.491 343.516C271.64 343.527 271.763 343.516 271.859 343.484C271.965 343.441 272.056 343.367 272.131 343.26C272.259 343.111 272.365 342.796 272.451 342.316C272.547 341.825 272.621 341.116 272.675 340.188C272.728 339.26 272.771 338.087 272.803 336.668C272.845 335.239 272.877 333.516 272.899 331.5V331.228ZM261.539 341.356C262.317 341.111 263.229 340.817 264.275 340.476C265.32 340.135 266.435 339.767 267.619 339.372C268.803 338.967 269.976 338.567 271.139 338.172L271.363 339.292C270.264 339.687 269.144 340.081 268.003 340.476C266.872 340.871 265.789 341.249 264.755 341.612C263.72 341.964 262.792 342.279 261.971 342.556L261.539 341.356ZM277.427 332.924H290.323V340.444H289.091V334.092H278.627V340.524H277.427V332.924ZM278.067 338.348H289.811V339.532H278.067V338.348ZM283.219 330.06H284.483V344.764H283.219V330.06ZM296.771 334.524H298.003V342.572C298.003 342.945 298.067 343.185 298.195 343.292C298.333 343.399 298.621 343.452 299.059 343.452C299.165 343.452 299.352 343.452 299.619 343.452C299.885 343.452 300.179 343.452 300.499 343.452C300.819 343.452 301.117 343.452 301.395 343.452C301.672 343.452 301.88 343.452 302.019 343.452C302.339 343.452 302.579 343.367 302.739 343.196C302.899 343.025 303.011 342.7 303.075 342.22C303.149 341.729 303.208 341.025 303.251 340.108C303.4 340.215 303.581 340.321 303.795 340.428C304.019 340.535 304.216 340.609 304.387 340.652C304.323 341.655 304.221 342.444 304.083 343.02C303.955 343.585 303.736 343.985 303.427 344.22C303.117 344.455 302.669 344.572 302.083 344.572C302.008 344.572 301.864 344.572 301.651 344.572C301.437 344.572 301.192 344.572 300.915 344.572C300.648 344.572 300.376 344.572 300.099 344.572C299.821 344.572 299.581 344.572 299.379 344.572C299.176 344.572 299.037 344.572 298.963 344.572C298.397 344.572 297.955 344.513 297.635 344.396C297.315 344.279 297.091 344.071 296.963 343.772C296.835 343.484 296.771 343.079 296.771 342.556V334.524ZM296.899 331.052L297.651 330.124C298.291 330.348 298.957 330.615 299.651 330.924C300.344 331.233 300.995 331.553 301.603 331.884C302.221 332.204 302.744 332.508 303.171 332.796L302.387 333.852C301.981 333.543 301.469 333.217 300.851 332.876C300.243 332.535 299.592 332.204 298.899 331.884C298.216 331.553 297.549 331.276 296.899 331.052ZM294.083 335.82L295.251 336.06C295.176 336.775 295.059 337.516 294.899 338.284C294.749 339.052 294.552 339.783 294.307 340.476C294.061 341.169 293.747 341.772 293.363 342.284L292.275 341.644C292.637 341.164 292.936 340.604 293.171 339.964C293.416 339.324 293.613 338.647 293.763 337.932C293.912 337.217 294.019 336.513 294.083 335.82ZM303.427 335.82L304.499 335.292C304.979 335.9 305.421 336.556 305.827 337.26C306.243 337.964 306.595 338.663 306.883 339.356C307.181 340.039 307.395 340.668 307.523 341.244L306.339 341.804C306.221 341.239 306.019 340.609 305.731 339.916C305.443 339.223 305.096 338.519 304.691 337.804C304.296 337.089 303.875 336.428 303.427 335.82ZM312.259 338.524C312.259 339.303 312.184 340.049 312.035 340.764C311.896 341.479 311.699 342.145 311.443 342.764C311.187 343.383 310.883 343.943 310.531 344.444C310.189 344.945 309.816 345.367 309.411 345.708H307.763C308.2 345.313 308.595 344.86 308.947 344.348C309.299 343.847 309.597 343.313 309.843 342.748C310.088 342.183 310.275 341.596 310.403 340.988C310.541 340.38 310.611 339.772 310.611 339.164V337.884C310.611 337.276 310.541 336.668 310.403 336.06C310.275 335.452 310.088 334.865 309.843 334.3C309.597 333.735 309.299 333.201 308.947 332.7C308.595 332.199 308.2 331.745 307.763 331.34H309.411C309.816 331.681 310.189 332.103 310.531 332.604C310.883 333.105 311.187 333.665 311.443 334.284C311.699 334.903 311.896 335.569 312.035 336.284C312.184 336.999 312.259 337.745 312.259 338.524Z" fill="black"/>
<circle cx="120" cy="338" r="19" fill="#BF4B17"/>
<path d="M110.862 344V342.288H113.934V334.352H113.79L111.358 337.232L110.046 336.128L112.814 332.832H115.998V342.288H118.558V344H110.862ZM123.8 344.192C123.085 344.192 122.467 344.064 121.944 343.808C121.421 343.541 120.989 343.163 120.648 342.672C120.307 342.181 120.051 341.579 119.88 340.864C119.72 340.149 119.64 339.333 119.64 338.416C119.64 337.509 119.72 336.699 119.88 335.984C120.051 335.259 120.307 334.651 120.648 334.16C120.989 333.669 121.421 333.296 121.944 333.04C122.467 332.773 123.085 332.64 123.8 332.64C125.219 332.64 126.264 333.147 126.936 334.16C127.619 335.173 127.96 336.592 127.96 338.416C127.96 340.24 127.619 341.659 126.936 342.672C126.264 343.685 125.219 344.192 123.8 344.192ZM123.8 342.416C124.515 342.416 125.011 342.149 125.288 341.616C125.576 341.072 125.72 340.341 125.72 339.424V337.408C125.72 336.491 125.576 335.765 125.288 335.232C125.011 334.688 124.515 334.416 123.8 334.416C123.085 334.416 122.584 334.688 122.296 335.232C122.019 335.765 121.88 336.491 121.88 337.408V339.424C121.88 340.341 122.019 341.072 122.296 341.616C122.584 342.149 123.085 342.416 123.8 342.416Z" fill="#F4F4F4"/>
<path d="M181.755 246.553C181.741 250.008 181.713 253.492 181.755 256.947C181.782 259.185 181.734 261.437 181.755 263.675C181.817 264.519 182.647 264.238 183.24 264.315C186.567 264.731 194.414 264.625 197.86 264.315C198.446 264.259 199.276 264.477 199.339 263.675C199.36 263.471 199.311 263.26 199.339 263.063C199.625 260.937 199.318 257.996 199.339 255.723H201.159C201.11 258.77 201.194 261.852 201.159 264.899H180.541C178.999 263.295 180.443 251.951 179.927 248.995L173.266 249.607L172.966 249.009L172.666 249.607V269.79L173.273 270.403C175.895 270.424 178.532 270.374 181.155 270.403C189.636 270.501 198.146 270.325 206.621 270.403C206.935 270.072 207.025 262.556 207.221 261.226C207.465 261.564 208.392 262.211 208.434 262.45C209.257 267.215 208.406 276.631 208.434 282.021C208.434 282.633 208.434 283.246 208.434 283.858C208.455 286.49 208.309 289.185 208.434 291.81C208.455 292.218 208.399 292.626 208.434 293.035C215.298 293.056 222.189 293.014 229.053 293.035C237.939 293.063 246.853 293.014 255.732 293.035C255.711 287.538 255.746 282.014 255.732 276.518C255.711 271.43 255.746 266.314 255.732 261.226C240.938 260.466 225.167 262.239 210.485 261.275C209.278 261.198 209.104 260.825 208.434 260.621L238.748 259.396C243.665 259.396 249.783 258.911 254.512 259.396C254.742 260.037 255.307 259.861 255.725 260.008C256.255 260.191 257.441 260.48 257.567 261.029L257.546 269.79L315.146 270.403C315.125 270.804 315.195 271.233 315.146 271.627L257.909 271.613C257.246 271.543 257.602 272.401 257.546 272.845C257.378 274.182 257.664 275.744 257.546 277.123L258.153 277.735L259.603 278.383C276.12 277.672 293.251 279.213 309.692 278.348C310.284 278.32 310.975 278.439 311.512 278.348C311.477 278.749 311.568 279.178 311.512 279.572C310.759 279.319 309.447 280.199 309.085 280.184C308.959 280.184 308.108 279.551 307.034 279.53C290.552 279.199 274.021 279.868 257.546 279.572V285.082H306.664C306.657 285.758 306.239 286.314 306.058 286.912L299.445 286.975L296.962 293.633H302.417L303.023 295.477C284.846 295.364 266.634 295.561 248.457 295.477L249.971 297.306H318.18C318.257 297.665 318.124 298.144 318.18 298.531H316.36C311.519 298.531 306.65 298.531 301.81 298.531L315.146 305.251L317.573 307.088V308.313H315.753C293.328 308.313 270.875 308.313 248.45 308.313V318.102C248.053 318.123 247.641 318.102 247.244 318.102V317.489C247.244 314.646 247.244 311.775 247.244 308.925V307.7C247.244 307.292 247.244 306.884 247.244 306.476C247.216 302.612 247.258 298.721 247.244 294.85H243.596C243.631 299.53 243.554 304.238 243.596 308.918C243.624 311.761 243.575 314.632 243.596 317.482H241.775V308.306H221.764C221.743 309.115 221.785 309.938 221.764 310.755C221.757 311.163 221.778 311.571 221.764 311.979C221.708 313.436 221.582 315.505 221.764 316.87H220.55C221.017 314.681 220.529 309.713 220.55 307.088C220.585 303.021 220.522 298.925 220.55 294.857H216.909L216.302 295.47C216.33 299.945 216.267 304.449 216.302 308.925C216.323 311.367 215.988 314.611 216.302 316.877H214.482C214.83 314.259 214.224 311.022 214.482 308.313C205.191 308.299 195.872 308.341 186.588 308.313C174.27 308.284 161.917 308.313 149.599 308.313H147.172C147.172 307.658 147.779 306.8 147.779 306.476C148.56 306.398 149.118 305.491 149.599 305.251C153.959 303.105 158.5 301.113 162.936 299.129C163.082 298.066 161.555 298.552 160.822 298.524C157.502 298.404 154.133 298.524 150.813 298.524H147.172C147.186 298.116 147.158 297.707 147.172 297.299H214.475V295.47H160.536C161.541 294.885 161.694 294.759 161.75 293.633H167.204L166.514 286.687L165.607 285.772L160.536 285.688C160.467 285.413 159.902 284.949 159.929 284.463C175.191 285.357 191.276 283.795 206.621 284.463V278.953H149.62H149.013L148.407 277.728C166.688 277.545 185.005 277.968 203.287 277.743C204.312 277.728 205.979 278.137 206.614 277.123V272.232L144.766 271.62C145.589 271.001 146.475 271.057 147.193 270.396C147.395 270.403 147.598 270.396 147.8 270.396C155.172 270.586 162.58 270.241 169.96 270.41L170.838 269.783V248.376C172.61 248.038 179.278 249.108 179.934 247.764C180.053 247.524 179.857 246.905 179.934 246.539H181.755V246.553ZM174.18 293.64H182.968C182.752 290.987 181.873 288.946 182.968 286.307L169.018 286.004C168.872 287.947 172.303 293.239 174.18 293.64ZM198.732 286.3H185.396C185.814 289.115 187.39 291.648 189.336 293.64H198.732V286.3ZM206.621 286.3H201.166C201.585 289.797 203.21 291.662 206.321 293.028L206.621 286.3ZM296.962 286.912H281.198L280.592 293.64H289.987C290.475 293.64 297.911 287.743 296.962 286.912ZM186.602 293.64C186.818 293.443 185.019 288.932 184.189 288.756C183.645 289.889 184.663 295.441 186.602 293.64ZM170.838 293.64C171.055 293.443 169.095 289.509 168.425 289.368L168.858 292.894C168.809 293.978 170.685 293.788 170.845 293.64H170.838ZM203.587 293.633L199.953 289.361L200.615 293.576L203.58 293.64L203.587 293.633ZM262.4 293.64C265.002 294.069 265.539 291.395 265.421 289.361L262.4 293.64ZM241.782 295.477H221.771V297.313H241.782V295.477ZM165.384 299.755C160.669 301.564 156.421 304.006 152.048 306.483C151.79 306.631 150.088 306.18 151.141 307.095L184.175 306.779L192.071 298.538L168.097 298.517C166.8 298.137 165.928 299.551 165.391 299.755H165.384ZM214.496 298.531H194.791L186.602 307.095H214.189C216.163 304.85 214.775 301.191 214.489 298.531H214.496ZM231.473 298.531H221.771C222.147 301.247 220.822 304.977 222.677 307.095H231.466V298.531H231.473ZM241.782 298.531H233.293V307.095H241.782V298.531ZM272.096 302.817C270.994 301.613 270.317 299.558 268.762 298.538H248.45C248.806 300.339 247.537 306.384 249.448 307.011L275.737 307.095C276.079 305.948 275.256 306.075 275.137 305.878C274.147 304.28 273.093 303.9 272.103 302.817H272.096ZM274.523 302.204C275.723 303.506 277.327 306.131 279.085 306.469L313.326 307.088C313.186 306.173 312.182 305.948 311.519 305.554C309.336 304.238 299.627 299.066 297.729 298.672C294.263 297.954 287.497 298.503 283.619 298.531C279.587 298.559 275.528 298.503 271.496 298.531C270.568 299.361 274.105 301.74 274.523 302.197V302.204Z" fill="#583C26"/>
<path d="M315.752 308.32L316.359 317.497C294.122 318.855 270.993 316.828 248.449 318.109V308.32C270.874 308.32 293.327 308.32 315.752 308.32ZM257.545 310.769H256.338V313.211H257.545V310.769ZM261.179 315.653C261.095 313.852 261.967 310.727 259.365 310.769C259.449 312.571 258.577 315.695 261.179 315.653ZM264.82 315.653C264.701 314.077 265.503 311.536 263.613 310.762C264.004 312.099 262.497 316.139 264.82 315.653ZM282.404 310.762C281.072 309.052 280.165 314.964 283.011 314.429L282.404 310.762ZM289.679 314.436C289.707 313.049 290.007 311.649 288.772 310.776C287.538 311.642 287.838 313.049 287.865 314.436H289.679ZM308.477 310.762H306.663L307.277 315.041C309.509 315.548 308.149 312.05 308.477 310.762ZM312.725 315.041C315.103 315.139 315.131 311.895 313.624 310.769L312.725 315.041ZM286.645 311.382H285.438V315.048H286.645V311.382ZM311.504 311.382H310.297V313.823H311.504V311.382Z" fill="#5F9645"/>
<path d="M186.61 308.32C188.165 309.84 197.547 308.334 198.133 308.926V317.49C196.117 317.532 194.08 317.448 192.064 317.49C178.212 317.771 163.522 319.179 149.621 318.102V317.49C158.563 317.49 167.526 317.49 176.475 317.497C178.477 315.154 180.235 312.789 179.063 309.496L149.621 308.926V308.313C161.939 308.313 174.292 308.285 186.61 308.313V308.32Z" fill="url(#paint1_linear_251_101868)"/>
<path d="M221.771 310.761C221.792 309.945 221.75 309.122 221.771 308.312H241.79V317.489H221.778C221.757 317.285 221.806 317.074 221.778 316.877C221.597 315.512 221.722 313.443 221.778 311.986L223.306 315.04C224.945 315.99 224.484 309.389 221.778 310.769L221.771 310.761ZM227.226 315.04L225.412 310.769C225.482 312.035 225.084 315.42 227.226 315.04ZM229.653 311.381L227.937 312.352L229.353 316.258L229.653 311.381Z" fill="#5F9645"/>
<path d="M186.609 308.32C195.9 308.341 205.212 308.306 214.503 308.32C214.245 311.029 214.852 314.266 214.503 316.884C214.475 317.081 214.524 317.292 214.503 317.496C209.055 317.581 203.573 317.384 198.132 317.496V308.932C197.546 308.341 188.165 309.84 186.609 308.327V308.32Z" fill="url(#paint2_linear_251_101868)"/>
<path d="M303.022 295.478C304.236 295.485 305.449 295.471 306.663 295.478C306.865 295.478 307.068 295.478 307.27 295.478C310.297 297.695 314.649 296.35 318.186 296.702C318.2 296.913 318.144 297.139 318.186 297.315H249.976L248.463 295.485C266.64 295.562 284.852 295.365 303.029 295.485L303.022 295.478Z" fill="#8E4721"/>
<path d="M157.503 295.476C158.514 295.469 159.526 295.476 160.537 295.476H214.503V297.305H147.194C147.194 297.108 147.18 296.897 147.194 296.693C149.928 296.194 154.58 297.946 156.289 295.469C156.694 295.469 157.098 295.469 157.503 295.469V295.476Z" fill="#8E4721"/>
<path d="M220.562 307.093C220.542 309.725 221.03 314.693 220.562 316.875C220.556 316.917 220.06 317.403 219.956 317.487H216.315C216.252 317.353 216.343 317.093 216.315 316.875C216.001 314.609 216.336 311.365 216.315 308.923C218.205 309.317 218.805 307.241 220.556 307.086L220.562 307.093Z" fill="white"/>
<path d="M318.18 298.531C318.522 300.994 320.077 305.336 317.573 307.096L315.146 305.259C315.048 302.838 314.909 300.593 316.36 298.531H318.18Z" fill="#CDC9C5"/>
<path d="M317.572 308.32C320.181 308.588 318.172 315.097 318.786 317.497C317.984 317.539 317.161 317.448 316.359 317.497L315.752 308.32H317.572Z" fill="#EFE7DE"/>
<path d="M149.62 308.32V317.497H147.193C147.179 314.45 147.214 311.375 147.193 308.32H149.62Z" fill="#EFE7DE"/>
<path d="M150.835 298.531C149.028 300.389 149.698 302.887 149.621 305.259C149.147 305.491 148.582 306.399 147.8 306.483C147.793 304.386 147.082 301.381 147.194 298.531H150.835Z" fill="#EFE7DE"/>
<path d="M198.126 317.489C203.566 317.376 209.049 317.573 214.496 317.489C214.434 318.291 213.604 318.073 213.018 318.129C207.758 318.601 200.832 318.179 195.392 318.108C194.366 318.094 192.692 318.502 192.064 317.489C194.08 317.447 196.11 317.531 198.126 317.489Z" fill="#583C26"/>
<path d="M318.18 295.478C318.201 295.879 318.145 296.294 318.18 296.702C314.65 296.357 310.298 297.694 307.264 295.478C310.891 295.513 314.546 295.456 318.18 295.478Z" fill="#EED8A6"/>
<path d="M241.176 317.488C240.548 318.502 238.874 318.101 237.849 318.108C233.329 318.164 227.61 318.516 223.25 318.129C222.664 318.072 221.834 318.291 221.771 317.488H241.176Z" fill="#583C26"/>
<path d="M152.048 295.475C153.262 295.447 154.475 295.489 155.689 295.475C155.891 295.475 156.093 295.475 156.296 295.475C154.587 297.952 149.934 296.2 147.2 296.699C147.235 296.298 147.179 295.883 147.2 295.475C148.811 295.447 150.437 295.51 152.048 295.475Z" fill="#EFE7DE"/>
<path d="M318.181 295.479C314.554 295.458 310.899 295.514 307.265 295.479C307.063 295.479 306.86 295.479 306.658 295.479C309.957 294.451 314.924 294.458 318.181 295.479Z" fill="#583C26"/>
<path d="M152.047 295.479C150.436 295.514 148.803 295.451 147.199 295.479C148.155 294.451 151.119 294.458 152.047 295.479Z" fill="#583C26"/>
<path d="M219.957 317.488C219.065 318.22 216.916 318.741 216.316 317.488H219.957Z" fill="#BF9EAB"/>
<path d="M247.235 317.488V318.101C246.14 318.101 245.038 318.192 243.936 318.051L243.594 317.495H247.235V317.488Z" fill="#CDC9C5"/>
<path d="M149.619 317.488V318.101C148.942 318.051 148.231 318.227 147.547 318.044L147.191 317.488H149.619Z" fill="#C48D66"/>
<path d="M157.502 295.477C157.098 295.477 156.693 295.477 156.288 295.477C156.086 295.477 155.884 295.477 155.682 295.477C155.765 294.555 157.418 294.555 157.502 295.477Z" fill="#583C26"/>
<path d="M283.619 298.532C287.497 298.504 294.263 297.955 297.73 298.673C299.634 299.067 309.336 304.239 311.519 305.555C312.182 305.949 313.186 306.174 313.326 307.089L279.085 306.47C277.327 306.132 275.723 303.5 274.523 302.205L283.619 298.539V298.532Z" fill="#C29BB1"/>
<path d="M214.496 298.664C214.775 301.324 216.17 304.977 214.196 307.228H186.609L194.798 298.664H214.503H214.496Z" fill="#9A6982"/>
<path d="M272.097 302.818L266.921 304.021L261.794 306.484C266.091 306.125 271.036 307.279 275.131 305.879C275.256 306.076 276.072 305.949 275.731 307.096L249.442 307.012C247.53 306.386 248.8 300.334 248.444 298.539H268.756C270.311 299.559 270.988 301.614 272.09 302.818H272.097Z" fill="#9A6982"/>
<path d="M165.384 299.891C165.928 299.687 166.793 298.265 168.09 298.652L192.063 298.673L184.168 306.914L151.134 307.231C150.08 306.309 151.782 306.759 152.04 306.619H181.14L176.907 303.248L165.377 299.891H165.384Z" fill="#9A6982"/>
<path d="M165.383 299.754L176.913 303.111L181.147 306.475H152.047C156.42 304.004 160.668 301.562 165.383 299.754Z" fill="#C29BB1"/>
<path d="M231.474 298.664V307.228H222.686C220.83 305.11 222.156 301.38 221.779 298.664H231.481H231.474Z" fill="#9A6982"/>
<path d="M241.782 298.531H233.293V307.096H241.782V298.531Z" fill="#9A6982"/>
<path d="M216.923 294.863H220.564C220.536 298.931 220.592 303.027 220.564 307.094C218.813 307.242 218.207 309.325 216.323 308.931C216.288 304.455 216.351 299.951 216.323 295.476L216.93 294.863H216.923Z" fill="#CDC9C5"/>
<path d="M316.361 298.531C314.91 300.593 315.049 302.838 315.147 305.259L301.811 298.538C306.651 298.524 311.52 298.538 316.361 298.538V298.531Z" fill="#C29BB1"/>
<path d="M150.835 298.532C154.155 298.532 157.524 298.412 160.844 298.532C161.577 298.56 163.097 298.075 162.958 299.137C158.522 301.129 153.981 303.113 149.622 305.26C149.691 302.888 149.029 300.39 150.835 298.532Z" fill="#C29BB1"/>
<path d="M243.603 308.931C243.561 304.251 243.638 299.543 243.603 294.863H247.251C247.265 298.727 247.223 302.618 247.251 306.489C245.758 306.777 244.454 307.692 243.61 308.938L243.603 308.931Z" fill="#CDC9C5"/>
<path d="M241.783 295.477H221.771V297.313H241.783V295.477Z" fill="#8E4721"/>
<path d="M247.236 306.484C247.236 306.892 247.236 307.3 247.236 307.708L246.636 308.616L247.236 308.926C247.236 311.769 247.236 314.64 247.236 317.49H243.595C243.574 314.647 243.623 311.776 243.595 308.926C244.439 307.687 245.744 306.772 247.236 306.477V306.484Z" fill="white"/>
<path d="M272.097 302.816C273.088 303.893 274.141 304.273 275.131 305.878C271.037 307.278 266.092 306.124 261.795 306.483L266.922 304.02L272.097 302.816Z" fill="#C29BB1"/>
<path d="M283.619 298.532L274.523 302.198C274.105 301.741 270.569 299.362 271.496 298.532C275.528 298.503 279.587 298.56 283.619 298.532Z" fill="#9A6982"/>
<path d="M221.771 310.761C224.47 309.381 224.931 315.982 223.299 315.032L221.771 311.978C221.785 311.57 221.764 311.162 221.771 310.754V310.761Z" fill="#BED691"/>
<path d="M186.603 293.642C184.657 295.436 183.645 289.891 184.189 288.758C185.026 288.934 186.819 293.445 186.603 293.642Z" fill="#1A1612"/>
<path d="M170.838 293.639C170.678 293.787 168.802 293.977 168.85 292.893L168.418 289.367C169.088 289.515 171.055 293.442 170.831 293.639H170.838Z" fill="#1A1612"/>
<path d="M247.237 308.932L246.637 308.615L247.237 307.707V308.932Z" fill="#CDC9C5"/>
<path d="M261.18 315.654C258.578 315.696 259.45 312.572 259.367 310.77C261.968 310.728 261.096 313.852 261.18 315.654Z" fill="#BED691"/>
<path d="M312.727 315.041L313.626 310.77C315.133 311.896 315.105 315.14 312.727 315.041Z" fill="#BED691"/>
<path d="M308.478 310.762C308.15 312.057 309.51 315.547 307.278 315.04L306.664 310.762H308.478Z" fill="#BED691"/>
<path d="M289.68 314.433H287.866C287.838 313.046 287.538 311.646 288.773 310.773C290.008 311.639 289.708 313.046 289.68 314.433Z" fill="#BED691"/>
<path d="M264.822 315.653C262.499 316.138 264.013 312.099 263.615 310.762C265.505 311.536 264.696 314.069 264.822 315.653Z" fill="#B9D38E"/>
<path d="M282.407 310.763L283.013 314.43C280.168 314.957 281.067 309.046 282.407 310.763Z" fill="#B9D38E"/>
<path d="M286.646 311.379H285.439V315.045H286.646V311.379Z" fill="#B9D38E"/>
<path d="M257.547 310.77H256.34V313.211H257.547V310.77Z" fill="#B9D38E"/>
<path d="M311.506 311.379H310.299V313.821H311.506V311.379Z" fill="#B9D38E"/>
<path d="M149.621 308.934L179.063 309.504C180.235 312.79 178.477 315.155 176.475 317.505C167.526 317.491 158.563 317.498 149.621 317.498V308.934Z" fill="#BDCC72"/>
<path d="M229.651 311.379L229.351 316.256L227.936 312.35L229.651 311.379Z" fill="#B9D38E"/>
<path d="M227.226 315.041C225.084 315.414 225.482 312.036 225.412 310.77L227.226 315.041Z" fill="#BED691"/>
<path d="M307.264 292.418H320.301L321.207 293.946C320.363 301.532 322.582 309.808 321.849 317.218C321.758 318.126 321.382 320.547 320.294 320.547H144.773C144.494 319.428 144.229 318.393 144.138 317.211C143.908 314.262 143.824 295.064 144.48 293.643C144.612 293.354 145.575 292.411 145.686 292.411H158.723L158.116 286.901C155.982 286.62 152.773 287.471 150.848 286.585C149.976 286.183 145.4 281.124 144.633 280.012C138.642 271.278 141.215 264.459 144.152 255.395C147.381 245.437 151.636 232.468 155.661 222.967C160.202 212.256 170.943 215.796 179.585 214.684C181.385 214.452 183.317 213.354 185.27 213.08C207.555 209.976 229.757 213.931 251.777 209.23C254.435 209.484 253.975 212.869 253.905 214.734C257.797 214.325 262.61 215.268 266.369 214.762C268.804 214.438 269.857 211.919 272.068 210.722C276.546 208.294 283.333 208.555 287.874 210.743C289.973 211.757 291.828 214.818 293.14 215.212C300.24 217.337 312.328 211.088 315.334 223.403C316.82 229.484 315.997 238.083 316.332 244.417C316.813 253.601 319.443 270.145 315.858 278.14C313.577 283.228 308.478 286.775 307.257 292.397L307.264 292.418ZM270.282 215.979C269.961 216.556 269.759 217.154 269.676 217.816C264.026 217.851 258.348 217.781 252.698 217.816C252.294 217.816 251.889 217.816 251.484 217.816L250.871 212.313C242.766 214.67 234.312 214.199 226.018 214.755C225.07 213.84 223.856 214.149 222.705 214.128C211.566 213.91 197.309 213.495 186.484 215.55C184.963 215.838 181.217 216.366 180.541 217.816C180.485 217.935 180.555 218.21 180.541 218.428C180.52 218.836 180.555 219.244 180.541 219.653C178.658 220.363 178.33 217.978 177.688 217.802C176.293 217.429 167.588 217.661 165.83 217.957C161.722 218.653 159.148 221.152 158.109 225.149C158.074 225.282 157.565 225.487 157.523 226.05C157.495 226.521 158.039 226.781 158.109 226.978C158.207 227.288 158.039 227.823 158.109 228.203C157.649 228.245 157.091 227.943 156.84 228.569L143.705 265.353L143.559 270.406C144.766 270.441 145.993 270.356 147.2 270.406C146.482 271.06 145.596 271.011 144.773 271.63C144.556 271.792 144.215 271.806 144.166 272.242C144.584 274.107 144.898 276.043 146.593 277.133C147.2 277.527 147.479 277.971 148.414 277.746L149.02 278.97L147.884 279.019L147.814 279.878C148.455 280.8 149.404 281.342 150.234 282.024C150.792 282.482 151.085 283.495 151.852 283.741C153.54 284.29 156.498 283.671 158.465 283.833C159.239 283.896 159.853 284.466 159.929 284.466C159.902 284.952 160.467 285.416 160.536 285.691C161.018 287.499 161.827 291.891 161.75 293.643C161.701 294.776 161.548 294.896 160.536 295.48C159.525 295.48 158.514 295.473 157.502 295.48C157.418 294.558 155.765 294.558 155.682 295.48C154.468 295.494 153.254 295.452 152.041 295.48C151.113 294.459 148.149 294.452 147.193 295.48C147.172 295.881 147.228 296.296 147.193 296.704C147.179 296.908 147.193 297.112 147.193 297.316C147.179 297.725 147.207 298.133 147.193 298.541C147.081 301.384 147.793 304.396 147.8 306.493C147.8 306.817 147.186 307.675 147.193 308.33C147.214 311.377 147.179 314.452 147.193 317.506L147.549 318.062C148.232 318.238 148.937 318.062 149.62 318.119C163.522 319.195 178.211 317.788 192.064 317.506C192.691 318.52 194.366 318.119 195.391 318.126C200.831 318.196 207.765 318.618 213.017 318.147C213.603 318.091 214.433 318.309 214.496 317.506C214.517 317.302 214.468 317.091 214.496 316.894H216.316C216.344 317.112 216.253 317.373 216.316 317.506C216.916 318.759 219.064 318.238 219.957 317.506C220.062 317.422 220.557 316.936 220.564 316.894H221.778C221.805 317.091 221.757 317.302 221.778 317.506C221.84 318.309 222.67 318.091 223.256 318.147C227.616 318.541 233.335 318.182 237.855 318.126C238.881 318.112 240.555 318.52 241.182 317.506H243.61L243.951 318.062C245.046 318.21 246.149 318.112 247.251 318.112C247.655 318.112 248.06 318.133 248.464 318.112C271.008 316.831 294.137 318.858 316.374 317.499C317.176 317.45 317.999 317.542 318.801 317.499C318.187 315.1 320.196 308.59 317.587 308.323V307.098C320.091 305.339 318.536 300.997 318.194 298.534C318.138 298.14 318.271 297.661 318.194 297.309C318.152 297.133 318.208 296.908 318.194 296.697C318.159 296.296 318.215 295.881 318.194 295.473C314.937 294.452 309.978 294.445 306.671 295.473C305.458 295.466 304.244 295.48 303.03 295.473L302.424 293.636C304.823 292.32 305.332 289.301 306.065 286.908C306.246 286.31 306.664 285.747 306.671 285.071C307.278 285.177 307.564 284.642 307.885 284.459C309.378 283.629 311.275 281.292 311.526 279.568C311.582 279.181 311.491 278.745 311.526 278.344C312.279 278.21 312.231 278.168 312.74 277.732C314.246 276.444 314.156 274.565 314.56 272.841C314.609 272.615 315.09 272.228 315.167 271.616C315.216 271.229 315.146 270.793 315.167 270.392C315.174 270.188 315.167 269.983 315.167 269.779C315.111 265.297 314.916 259.223 314.553 254.811C314.449 253.523 314.149 251.215 313.354 250.209L312.747 249.596L301.224 248.372C304.439 248.273 307.711 248.506 310.926 248.372C311.931 248.33 312.949 248.407 313.953 248.372C314.365 247.471 313.354 246.683 313.347 246.542C313.326 246.141 313.333 245.726 313.347 245.318C313.36 244.987 315.237 243.291 312.74 243.481C312.782 243.087 312.67 242.629 312.74 242.256C313.619 237.499 312.914 236.028 312.74 231.862C312.712 231.109 313.312 230.42 313.347 230.026C313.381 229.632 313.326 229.209 313.347 228.801L312.74 228.189H312.133C312.203 227.816 312.028 227.253 312.133 226.964C312.21 226.76 312.733 226.514 312.74 226.352C312.963 222.679 311.979 221.426 309.099 219.624C304.23 216.577 295.644 217.858 289.694 217.788C289.589 217.253 289.847 216.359 289.694 215.951C288.983 214.044 286.513 213.488 284.846 212.89C280.054 211.18 273.177 210.743 270.296 215.951L270.282 215.979Z" fill="#322115"/>
<path d="M269.676 217.81C276.331 217.768 283.034 217.732 289.688 217.81C295.638 217.88 304.224 216.599 309.093 219.647L310.376 226.311L312.734 226.374C312.727 226.536 312.204 226.782 312.127 226.987H213.283L214.497 220.259C210.556 220.104 206.566 220.449 202.625 220.28C201.844 220.245 201.237 219.647 201.16 219.647H251.213L252.699 217.81C258.349 217.775 264.027 217.845 269.676 217.81Z" fill="#C7B698"/>
<path d="M312.12 228.211H312.727L313.334 228.823C313.313 229.224 313.369 229.647 313.334 230.048C309.895 230.498 305.264 228.999 302.418 230.963V243.496H312.727C315.224 243.299 313.341 244.995 313.334 245.333H301.204C301.288 242.785 300.59 240.583 300.597 237.993C300.597 237.887 301.183 237.001 301.246 235.924C301.316 234.735 301.553 230.963 300.597 230.653C299.969 229.64 298.295 230.041 297.27 230.034C293.511 229.991 288.97 229.569 285.44 230.653C283.299 232.518 284.806 234.967 284.834 236.768C284.875 239.252 284.527 242.391 284.834 244.72H282.406V237.381H281.193C281.311 235.769 281.074 234.101 281.193 232.49C281.193 232.391 281.764 231.849 281.799 231.265L282.392 230.963L281.799 230.66H281.193C277.447 229.576 272.718 229.998 268.756 230.041C267.731 230.055 266.057 229.654 265.429 230.66C265.234 230.688 265.024 230.639 264.822 230.66L264.215 231.272V244.728H208.435V244.115L220.781 244.031C222.127 243.573 221.695 242.117 221.779 241.054C223.237 241.124 223.341 240.174 223.92 239.238C224.548 238.232 230.1 229.217 229.654 228.823H172.66L312.113 228.211H312.12ZM261.188 230.653C260.595 230.85 259.87 230.041 259.674 230.041H247.545L246.638 230.955V243.186L247.545 244.101H260.274L261.181 243.186V230.653H261.188ZM233.12 231.399C229.542 232.469 229.779 238.394 233.462 239.977C240.528 243.024 242.432 228.605 233.12 231.399Z" fill="#DDDCD7"/>
<path d="M164.778 226.984H312.119C312.015 227.273 312.189 227.829 312.119 228.209L172.666 228.821V244.725H179.948C180.423 241.932 179.042 231.566 180.548 230.046H200.56C202.031 234.444 200.56 239.701 201.167 244.113C201.194 244.31 201.146 244.521 201.167 244.725H264.228V231.27L264.835 230.658C265.037 230.637 265.247 230.686 265.442 230.658C270.171 229.975 276.302 231.158 281.206 230.658H281.812V231.27C281.778 231.854 281.213 232.396 281.206 232.495L266.042 231.882C266.07 236.97 266.014 242.086 266.042 247.174C266.049 248.596 266.014 250.032 266.042 251.453H264.221C264.2 250.841 264.249 250.229 264.221 249.616H201.16C201.139 251.643 201.194 253.698 201.16 255.732H199.339C199.409 247.59 199.283 239.412 199.339 231.27C198.711 230.257 197.037 230.658 196.012 230.651C191.429 230.602 186.135 230.193 181.755 231.27C181.741 236.358 181.776 241.474 181.755 246.562H179.934C178.058 246.562 171.941 247.034 171.125 245.943C170.727 245.408 170.93 244.113 170.839 244.113H160.23C158.284 241.249 159.769 236.576 159.323 233.107C159.511 232.762 159.051 231.587 159.916 230.946C160.509 230.51 161.569 230.792 161.75 230.658H170.846V228.216C168.425 228.202 165.984 228.223 163.564 228.216C161.82 228.209 159.797 228.054 158.109 228.216C158.04 227.836 158.207 227.301 158.109 226.991H164.778V226.984ZM201.16 246.555L201.515 248.399H263.859L264.221 246.555C258.774 246.527 253.298 246.583 247.844 246.555H201.16Z" fill="url(#paint3_linear_251_101868)"/>
<path d="M300.596 237.991C300.596 240.58 301.28 242.783 301.203 245.331H313.333C313.319 245.732 313.312 246.147 313.333 246.548H310.905C307.676 246.548 304.425 246.548 301.203 246.548V248.378L312.726 249.602L301.775 249.87C300.254 250.939 302.179 257.575 300.603 259.384C296.16 258.814 289.938 260.158 285.746 259.384C285.07 259.257 284.609 259.074 284.233 258.469V249.602H282.412V258.469C281.882 259.342 281.205 259.314 280.32 259.419C275.709 259.968 269.962 259.032 265.218 259.3C263.558 258.751 264.277 253.248 264.221 251.432H266.042C266.076 253.466 266.014 255.521 266.042 257.547H272.284C274.502 253.346 280.173 252.044 280.592 247.146C281.164 247.069 281.889 247.259 282.412 247.146V248.371H284.226V246.534C284.644 246.393 285.028 246.091 285.439 245.922C285.453 245.999 285.955 246.548 286.074 247.392C286.283 248.821 285.879 250.552 286.046 252.037C287.099 253.149 297.618 245.978 299.076 244.697C299.145 242.551 299.864 239.947 299.989 237.977H300.596V237.991Z" fill="#583C26"/>
<path d="M312.727 249.609L313.333 250.222C312.406 250.482 311.018 249.377 310.906 251.122C310.718 253.965 310.801 257.47 310.906 260.348C310.941 261.27 311.492 262.051 311.513 262.46C307.453 262.403 303.729 268.885 300.757 269.652C297.577 270.468 289.855 269.757 286.047 269.799V260.011C288.67 259.56 299.313 260.883 300.597 259.405C302.173 257.59 300.255 250.954 301.769 249.891L312.72 249.623L312.727 249.609Z" fill="#D0C3CA"/>
<path d="M149.621 278.965H206.622V284.475C191.276 283.807 175.192 285.362 159.93 284.475C159.847 284.475 159.24 283.905 158.466 283.842C156.499 283.68 153.541 284.299 151.853 283.75C151.086 283.504 150.786 282.491 150.235 282.033L149.628 278.972L149.621 278.965Z" fill="#3B2C32"/>
<path d="M309.085 280.187L307.871 284.465C307.55 284.648 307.264 285.176 306.658 285.078H257.539V279.567C274.014 279.863 290.545 279.201 307.027 279.525C308.101 279.546 308.952 280.173 309.078 280.18L309.085 280.187Z" fill="#3B2C32"/>
<path d="M226.019 214.754C234.312 214.199 242.773 214.67 250.871 212.312L251.485 217.816C251.38 217.816 250.557 218.463 249.434 218.47C226.472 218.597 203.497 218.28 180.542 218.428C180.555 218.21 180.486 217.935 180.542 217.816C188.228 218.569 195.698 216.542 203.287 215.986C210.813 215.437 218.465 215.268 226.019 214.754Z" fill="#AE6B4C"/>
<path d="M206.613 272.244L164.77 272.546C170.259 273.799 176.551 276.48 182.117 277.071C189.887 277.894 198.724 276.593 206.606 277.134C205.978 278.148 204.304 277.747 203.279 277.754C184.99 277.979 166.681 277.564 148.399 277.74C147.471 277.965 147.185 277.521 146.579 277.127C150.108 277.831 147.443 273.876 147.764 272.265L144.158 272.229C144.207 271.793 144.549 271.779 144.765 271.617L206.613 272.229V272.244Z" fill="#C89E6C"/>
<path d="M315.146 271.629C315.069 272.241 314.595 272.628 314.539 272.853L311.505 272.234C312.474 274.965 307.801 278.504 312.718 277.744C312.209 278.181 312.258 278.223 311.505 278.357C310.968 278.448 310.277 278.328 309.684 278.357C309.056 277.343 307.382 277.744 306.357 277.737C298.175 277.632 289.966 277.751 281.791 277.751C281.442 276.119 282.6 276.541 283.597 276.245C286.129 275.492 288.703 275.021 291.2 274.099C292.121 273.761 294.234 273.247 294.52 272.262L257.538 272.867C257.594 272.424 257.238 271.566 257.901 271.636L315.139 271.65L315.146 271.629Z" fill="#D3AC68"/>
<path d="M158.109 228.21C159.797 228.048 161.82 228.203 163.563 228.21C163.047 228.759 162.196 230.336 161.743 230.659C161.562 230.786 160.501 230.504 159.908 230.948C159.044 231.588 159.504 232.763 159.316 233.108C154.573 241.743 151.922 250.35 149.613 260.019C149.188 261.813 148.148 263.559 147.869 265.902C147.688 267.401 147.814 268.914 147.793 270.413C147.59 270.413 147.388 270.42 147.186 270.413C145.979 270.364 144.752 270.455 143.545 270.413L143.691 265.36L156.839 228.569C157.091 227.943 157.649 228.252 158.109 228.203V228.21Z" fill="#FEF3DA"/>
<path d="M158.109 225.149C159.155 221.152 161.729 218.647 165.83 217.957C167.588 217.662 176.3 217.429 177.688 217.802C178.33 217.971 178.657 220.357 180.541 219.653H181.147C178.455 219.956 173.886 221.666 171.424 222.996C170.378 223.559 167.776 224.924 167.804 226.381C165.279 226.374 162.726 226.465 160.194 226.381C159.022 226.339 157.76 227.007 158.102 225.156L158.109 225.149Z" fill="#FEF3DA"/>
<path d="M313.332 230.039C313.297 230.434 312.697 231.123 312.725 231.876C306.378 231.37 309.851 233.115 310.27 235.88C310.535 237.626 310.172 239.582 310.298 241.377C310.423 243.171 311.798 242.017 312.725 242.277C312.655 242.65 312.767 243.108 312.725 243.502H302.416V230.968C305.262 229.005 309.893 230.504 313.332 230.054V230.039Z" fill="#583C26"/>
<path d="M252.697 217.809L251.212 219.645H201.158C195.418 219.448 186.629 219.019 181.147 219.645H180.54C180.554 219.237 180.519 218.829 180.54 218.421C203.495 218.273 226.471 218.597 249.433 218.463C250.556 218.463 251.372 217.809 251.484 217.809C251.888 217.809 252.293 217.809 252.697 217.809Z" fill="#845331"/>
<path d="M226.019 214.755C218.465 215.262 210.813 215.438 203.287 215.986C195.698 216.542 188.235 218.562 180.541 217.816C181.211 216.366 184.963 215.839 186.484 215.55C197.309 213.495 211.566 213.903 222.705 214.129C223.856 214.15 225.063 213.84 226.019 214.755Z" fill="#FDE9CF"/>
<path d="M311.512 262.453C311.672 264.873 311.393 267.372 311.512 269.793H315.153C315.153 269.99 315.16 270.201 315.153 270.398L257.553 269.786C267.039 269.708 276.56 269.891 286.053 269.786C289.861 269.743 297.583 270.454 300.763 269.638C303.735 268.871 307.459 262.396 311.519 262.446L311.512 262.453Z" fill="#B89AA0"/>
<path d="M313.332 250.221C314.128 251.228 314.428 253.536 314.532 254.824C314.895 259.236 315.097 265.316 315.146 269.792H311.505C311.393 267.371 311.672 264.873 311.505 262.452C311.477 262.044 310.926 261.263 310.898 260.341C310.794 257.463 310.703 253.958 310.898 251.115C311.017 249.37 312.398 250.475 313.325 250.214L313.332 250.221Z" fill="#EFE7DE"/>
<path d="M160.537 285.691L165.608 285.776L166.515 286.691L167.205 293.637H161.751C161.828 291.891 161.018 287.493 160.537 285.691Z" fill="#96543B"/>
<path d="M306.051 286.914C305.318 289.307 304.816 292.326 302.41 293.642H296.955L299.438 286.977L306.051 286.914Z" fill="#845331"/>
<path d="M284.832 212.918C286.506 213.516 288.968 214.072 289.68 215.979H272.096C275.569 213.164 280.501 212.714 284.825 212.918H284.832Z" fill="#CC9DAD"/>
<path d="M272.095 215.98H289.679C289.833 216.389 289.575 217.282 289.679 217.817C283.025 217.74 276.322 217.775 269.668 217.817C269.752 217.163 269.954 216.558 270.275 215.98H272.095Z" fill="#845331"/>
<path d="M312.726 231.876C312.9 236.049 313.605 237.52 312.726 242.27C311.791 242.009 310.417 243.114 310.298 241.369C310.18 239.624 310.536 237.618 310.271 235.873C309.852 233.107 306.378 231.362 312.726 231.869V231.876Z" fill="#CDC9C5"/>
<path d="M158.11 225.148C157.769 226.992 159.038 226.331 160.203 226.373C162.728 226.457 165.288 226.359 167.813 226.373C180.235 226.422 192.686 226.204 205.109 226.359C206.134 226.373 207.808 225.965 208.436 226.978H158.11C158.048 226.781 157.497 226.514 157.524 226.049C157.559 225.479 158.075 225.282 158.11 225.148Z" fill="#C7B698"/>
<path d="M284.831 212.918C280.5 212.707 275.575 213.164 272.102 215.979H270.281C273.162 210.778 280.039 211.215 284.831 212.918Z" fill="#F8EBD9"/>
<path d="M310.905 246.555V248.391C307.69 248.525 304.426 248.293 301.203 248.391V246.562C304.426 246.562 307.676 246.562 310.905 246.562V246.555Z" fill="#F4CF45"/>
<path d="M314.539 272.85C314.141 274.574 314.225 276.46 312.719 277.741C307.801 278.501 312.474 274.961 311.505 272.23L314.539 272.85Z" fill="#EED8A6"/>
<path d="M144.165 272.242L147.771 272.277C147.45 273.889 150.122 277.844 146.586 277.14C144.898 276.042 144.577 274.114 144.158 272.249L144.165 272.242Z" fill="#EFE7DE"/>
<path d="M312.727 226.372L310.369 226.309L309.086 219.645C311.96 221.446 312.943 222.699 312.727 226.372Z" fill="#EFE7DE"/>
<path d="M311.512 279.577C311.268 281.301 309.371 283.638 307.871 284.468L309.085 280.189C309.447 280.203 310.752 279.324 311.512 279.577Z" fill="#C7B698"/>
<path d="M313.332 246.554C313.332 246.695 314.344 247.483 313.939 248.384C312.935 248.419 311.917 248.341 310.912 248.384V246.547H313.339L313.332 246.554Z" fill="#EED8A6"/>
<path d="M149.013 278.965H149.62L150.227 282.026C149.397 281.336 148.448 280.802 147.807 279.88L147.876 279.021L149.013 278.972V278.965Z" fill="#F8EBD1"/>
<path d="M201.159 255.725C201.194 253.691 201.131 251.636 201.159 249.609H264.221C264.242 250.222 264.2 250.834 264.221 251.446C264.277 253.255 263.558 258.765 265.218 259.314C269.968 259.039 275.709 259.975 280.319 259.433C281.205 259.328 281.882 259.356 282.412 258.483V249.616H284.232V258.483C284.616 259.089 285.069 259.272 285.746 259.398C289.938 260.172 296.16 258.828 300.603 259.398C299.32 260.883 288.676 259.56 286.046 260.003V269.792C276.56 269.898 267.039 269.715 257.553 269.792L257.574 261.031C257.448 260.475 256.262 260.194 255.732 260.011C255.418 259.616 255.007 259.448 254.519 259.398C249.789 258.913 243.672 259.398 238.755 259.398C229.917 259.384 218.429 258.512 209.948 259.384C209.013 259.483 207.625 259.623 207.227 260.616C207.172 260.764 207.262 261.01 207.227 261.228C207.032 262.558 206.941 270.074 206.628 270.405C198.146 270.327 189.636 270.503 181.162 270.405L182.403 265.837C182.34 265.373 181.168 265.542 180.555 264.901H201.173C201.208 261.854 201.117 258.779 201.173 255.725H201.159Z" fill="url(#paint4_linear_251_101868)"/>
<path d="M159.323 233.102C159.769 236.571 158.283 241.244 160.229 244.108H170.838C170.929 244.108 170.72 245.403 171.124 245.938C171.941 247.028 178.058 246.557 179.934 246.557C179.857 246.923 180.053 247.542 179.934 247.781L170.838 248.394V269.801L158.527 269.675C155.145 266.93 151.28 264.263 149.613 260.012C151.922 250.343 154.573 241.736 159.316 233.102H159.323Z" fill="#FCE153"/>
<path d="M199.34 231.266C199.284 239.408 199.409 247.585 199.34 255.727C199.319 258 199.626 260.942 199.34 263.067L198.733 263.68H181.755C181.734 261.442 181.783 259.19 181.755 256.952C184.817 257.283 188.535 252.195 190.146 249.823C193.641 244.679 197.087 237.388 198.126 231.273C198.53 231.294 198.935 231.259 199.34 231.273V231.266Z" fill="#D1D9D7"/>
<path d="M198.125 231.263C197.086 237.379 193.64 244.677 190.146 249.814C188.534 252.185 184.817 257.273 181.755 256.943C181.713 253.487 181.741 250.004 181.755 246.548C181.775 241.46 181.741 236.344 181.755 231.256C187.181 231.467 192.705 230.968 198.125 231.256V231.263Z" fill="#E9E0D5"/>
<path d="M257.544 272.847L294.526 272.242C294.24 273.234 292.12 273.741 291.206 274.079C288.716 275.001 286.135 275.472 283.603 276.225C282.599 276.521 281.448 276.106 281.797 277.731C274.668 277.731 264.896 278.541 258.151 277.731C258.04 277.717 257.774 277.232 257.544 277.119C257.663 275.74 257.377 274.17 257.544 272.84V272.847Z" fill="#F9DB83"/>
<path d="M206.614 272.242V277.133C198.725 276.591 189.895 277.893 182.124 277.07C176.558 276.479 170.26 273.804 164.777 272.545L206.621 272.242H206.614Z" fill="#EDD794"/>
<path d="M180.542 264.9C181.163 265.541 182.335 265.372 182.39 265.836L181.149 270.404C178.526 270.375 175.89 270.425 173.267 270.404L172.66 269.791V249.608H173.267L179.928 248.996C180.444 251.952 179.001 263.296 180.542 264.893V264.9Z" fill="#C4C8D3"/>
<path d="M174.18 293.643C172.303 293.242 168.872 287.95 169.018 286.008L182.968 286.31C181.873 288.949 182.752 290.99 182.968 293.643H174.18Z" fill="#845331"/>
<path d="M296.962 286.914C297.911 287.737 290.475 293.642 289.987 293.642H280.592L281.199 286.914H296.962Z" fill="#6C4327"/>
<path d="M198.733 286.305V293.645H189.337C187.391 291.653 185.815 289.12 185.396 286.305H198.733Z" fill="#845331"/>
<path d="M170.837 269.794L169.959 270.42C162.579 270.251 155.164 270.596 147.799 270.406C147.813 268.907 147.694 267.394 147.875 265.895C148.154 263.551 149.194 261.799 149.619 260.012C151.286 264.262 155.15 266.929 158.533 269.674L170.844 269.801L170.837 269.794Z" fill="#CC9E3B"/>
<path d="M281.8 277.744C289.975 277.744 298.184 277.631 306.366 277.73C307.391 277.744 309.065 277.336 309.693 278.349C293.26 279.215 276.122 277.673 259.605 278.384L258.154 277.737C264.906 278.546 274.671 277.737 281.8 277.737V277.744Z" fill="#AA6F49"/>
<path d="M206.621 286.305L206.321 293.032C203.21 291.674 201.585 289.802 201.166 286.312H206.621V286.305Z" fill="#845331"/>
<path d="M238.748 259.397L208.434 260.622C208.12 260.523 207.604 260.685 207.221 260.622C207.618 259.63 209.006 259.482 209.941 259.39C218.423 258.511 229.911 259.39 238.748 259.405V259.397Z" fill="#845331"/>
<path d="M198.733 263.68H199.34C199.277 264.482 198.447 264.264 197.861 264.32C194.416 264.63 186.569 264.735 183.242 264.32C182.649 264.25 181.826 264.524 181.756 263.68H198.733Z" fill="#6C4327"/>
<path d="M203.587 293.635L200.616 293.579L199.953 289.363L203.587 293.635Z" fill="#1A1612"/>
<path d="M262.4 293.642L265.421 289.363C265.532 291.397 265.002 294.071 262.4 293.642Z" fill="#1A1612"/>
<path d="M179.933 247.781C179.285 249.125 172.61 248.056 170.838 248.393L179.933 247.781Z" fill="#6C4327"/>
<path d="M255.725 260.011C255.307 259.863 254.742 260.039 254.512 259.398C255 259.448 255.411 259.617 255.725 260.011Z" fill="#845331"/>
<path d="M173.267 249.61H172.66L172.967 249.012L173.267 249.61Z" fill="#6C4327"/>
<path d="M258.154 277.745L257.547 277.133C257.777 277.245 258.042 277.731 258.154 277.745Z" fill="#C48D66"/>
<path d="M199.337 263.679H198.73L199.337 263.066C199.309 263.263 199.358 263.475 199.337 263.679Z" fill="#845331"/>
<path d="M201.159 219.646C201.235 219.646 201.842 220.251 202.623 220.279C206.564 220.441 210.554 220.103 214.495 220.258L213.281 226.985H208.434C207.806 225.972 206.132 226.373 205.107 226.366C192.684 226.211 180.226 226.43 167.811 226.38C167.783 224.924 170.378 223.558 171.431 222.995C173.893 221.665 178.462 219.962 181.154 219.653C186.637 219.033 195.425 219.456 201.166 219.653L201.159 219.646Z" fill="#EED8A6"/>
<path d="M172.66 228.82H229.654C230.093 229.221 224.541 238.236 223.92 239.236C223.341 240.164 223.237 241.122 221.779 241.051C222.009 237.891 222.302 232.62 220.872 230.045H207.836L208.442 244.112V244.725H202.381L201.167 244.112C200.554 239.7 202.032 234.45 200.561 230.045C200.351 229.292 199.703 229.468 199.103 229.397C195.148 228.947 186.694 229.067 182.621 229.397C181.637 229.475 181.358 229.228 180.549 230.045C179.042 231.565 180.416 241.931 179.949 244.725H172.667V228.82H172.66Z" fill="#EFE7DE"/>
<path d="M281.191 232.487C281.073 234.099 281.31 235.767 281.191 237.378C281.184 237.491 280.654 238.23 280.584 239.215C275.702 241.636 271.998 247.357 266.034 247.167C265.999 242.079 266.062 236.963 266.034 231.875L281.198 232.487H281.191Z" fill="#322115"/>
<path d="M286.046 235.55C285.956 238.189 286.109 240.863 286.046 243.502C291.654 243.488 295.023 237.809 299.99 236.162C299.969 236.775 300.031 237.394 299.99 237.999C299.864 239.969 299.146 242.573 299.076 244.72C297.618 246 287.1 253.171 286.046 252.06C285.879 250.575 286.283 248.844 286.074 247.415C285.949 246.57 285.446 246.029 285.439 245.944C285.356 245.353 284.847 244.846 284.833 244.72C284.526 242.397 284.874 239.252 284.833 236.767L286.046 235.543V235.55Z" fill="#3B2F27"/>
<path d="M221.77 241.053C221.694 242.116 222.126 243.573 220.773 244.03L208.427 244.114L207.82 230.047H220.857C222.294 232.623 222.001 237.893 221.764 241.053H221.77ZM219.957 231.877H209.648V242.883H219.957V231.877Z" fill="#845331"/>
<path d="M261.188 230.651V243.185L260.281 244.1H247.551L246.645 243.185V230.954L247.551 230.039H259.681C259.883 230.039 260.602 230.848 261.195 230.651H261.188ZM259.367 232.488C257.902 231.01 250.306 232.319 247.844 231.876V242.889C248.849 242.924 249.874 242.84 250.878 242.889C253.892 243.03 256.961 242.791 259.974 242.889C259.555 240.539 260.804 233.945 259.367 232.488Z" fill="#845331"/>
<path d="M233.119 231.399C242.424 228.612 240.526 243.025 233.461 239.977C229.778 238.387 229.541 232.469 233.119 231.399ZM235.114 233.102C234.43 232.94 233.956 232.194 232.84 233.25C231.57 235.375 231.577 238.26 234.514 238.605C238.469 239.07 239.975 234.256 235.121 233.102H235.114Z" fill="#845331"/>
<path d="M300.596 230.652C301.551 230.969 301.314 234.734 301.244 235.923C301.182 236.993 300.596 237.88 300.596 237.992H299.989C300.031 237.387 299.968 236.768 299.989 236.156C300.038 234.734 299.961 233.291 299.989 231.87H286.039C286.004 233.087 286.088 234.326 286.039 235.543L284.825 236.768C284.79 234.966 283.284 232.517 285.432 230.652H300.589H300.596Z" fill="#6C4327"/>
<path d="M281.19 237.379H282.404V244.719C282.439 245.662 284.183 245.662 284.224 244.719H284.831C284.845 244.846 285.354 245.352 285.438 245.943C285.027 246.112 284.643 246.415 284.224 246.556C283.757 246.71 282.683 247.104 282.404 247.168C281.888 247.28 281.155 247.09 280.583 247.168C280.807 244.557 280.402 241.834 280.583 239.216C280.653 238.23 281.183 237.499 281.19 237.379Z" fill="#6C4327"/>
<path d="M281.191 230.651C276.288 231.151 270.157 229.968 265.428 230.651C266.055 229.638 267.73 230.039 268.755 230.032C272.724 229.989 277.453 229.574 281.191 230.651Z" fill="#845331"/>
<path d="M300.596 230.653H285.439C288.969 229.57 293.51 229.992 297.269 230.034C298.295 230.048 299.969 229.647 300.596 230.653Z" fill="#845331"/>
<path d="M284.227 244.719C284.192 245.662 282.448 245.662 282.406 244.719H284.227Z" fill="#845331"/>
<path d="M281.799 231.265V230.652L282.399 230.962L281.799 231.265Z" fill="#845331"/>
<path d="M280.584 239.215C280.403 241.833 280.808 244.556 280.584 247.167C280.166 252.065 274.495 253.367 272.277 257.575H266.034C266.014 255.534 266.076 253.479 266.034 251.446C266.007 250.024 266.041 248.589 266.034 247.167C271.998 247.357 275.702 241.636 280.584 239.215Z" fill="#3B2F27"/>
<path d="M247.844 246.556C253.292 246.591 258.767 246.528 264.222 246.556L263.859 248.4H201.516L201.16 246.556C216.715 246.627 232.297 246.465 247.844 246.556Z" fill="#E4B74C"/>
<path d="M247.844 246.556C232.29 246.465 216.708 246.627 201.16 246.556H247.844Z" fill="#845331"/>
<path d="M163.564 228.21C165.984 228.224 168.425 228.196 170.846 228.21V230.652H161.75C162.203 230.328 163.054 228.752 163.57 228.203L163.564 228.21Z" fill="#EABF68"/>
<path d="M200.553 230.04H180.541C181.35 229.223 181.622 229.47 182.613 229.392C186.686 229.062 195.14 228.942 199.095 229.392C199.695 229.463 200.343 229.287 200.553 230.04Z" fill="#845331"/>
<path d="M199.34 231.263C198.935 231.249 198.531 231.284 198.126 231.263C192.707 230.975 187.182 231.474 181.756 231.263C186.136 230.186 191.43 230.595 196.013 230.644C197.038 230.658 198.712 230.257 199.34 231.263Z" fill="#845331"/>
<path d="M202.373 244.718H201.16C201.139 244.514 201.188 244.303 201.16 244.105L202.373 244.718Z" fill="#CDC9C5"/>
<path d="M284.226 246.555V248.391H282.412V247.167C282.691 247.104 283.758 246.71 284.226 246.555Z" fill="#EDC343"/>
<path d="M286.047 235.548C286.089 234.331 286.012 233.092 286.047 231.875H299.997C299.962 233.297 300.046 234.739 299.997 236.161C295.031 237.807 291.662 243.487 286.054 243.501C286.117 240.862 285.956 238.187 286.054 235.548H286.047Z" fill="#322115"/>
<path d="M219.958 231.875H209.648V242.881H219.958V231.875Z" fill="#3B2F27"/>
<path d="M259.367 232.488C256.172 235.359 252.97 239.117 250.878 242.882C249.874 242.833 248.848 242.924 247.844 242.882V231.868C250.306 232.312 257.902 231.003 259.367 232.481V232.488Z" fill="#583C26"/>
<path d="M259.366 232.488C260.809 233.945 259.561 240.539 259.972 242.889C256.952 242.784 253.89 243.023 250.877 242.889C252.969 239.124 256.171 235.367 259.366 232.495V232.488Z" fill="#3B2F27"/>
<path d="M234.508 238.605C232.806 236.733 232.617 234.242 235.114 233.102C239.969 234.256 238.462 239.069 234.508 238.605Z" fill="#C63E31"/>
<path d="M235.113 233.1C232.616 234.24 232.804 236.732 234.506 238.603C231.577 238.259 231.563 235.373 232.832 233.248C233.955 232.192 234.43 232.931 235.106 233.1H235.113Z" fill="#F6DCC6"/>
<path d="M208.432 262.452L241.787 261.84V263.67L213.894 264.282C213.552 264.317 213.091 264.127 212.791 264.366C212.338 265.183 212.178 266.097 212.08 267.026C211.578 271.699 211.606 281.917 212.045 286.639C212.199 288.265 212.157 289.243 213.9 289.968L213.573 291.84L208.446 291.798C208.32 289.173 208.467 286.477 208.446 283.846H209.66V282.318L208.446 282.009C208.418 276.625 209.269 267.209 208.446 262.438L208.432 262.452Z" fill="white"/>
<path d="M255.725 276.52C255.746 282.016 255.711 287.54 255.725 293.036C246.838 293.008 237.924 293.057 229.045 293.036V290.587C227.322 291.206 225.264 290.073 224.197 289.975L252.091 289.672C254.058 288.708 253.311 279.116 253.297 276.52H255.725Z" fill="#A8AAAA"/>
<path d="M208.433 260.615C209.102 260.819 209.277 261.192 210.483 261.269C225.166 262.233 240.937 260.46 255.731 261.22C255.738 266.308 255.71 271.424 255.731 276.512H253.303C253.289 273.514 253.785 268.433 253.303 265.808C253.178 265.112 253.094 264.57 252.306 264.366C239.96 265.062 226.038 263.134 213.887 264.281L241.781 263.669V261.839L208.426 262.451C208.384 262.212 207.456 261.565 207.212 261.227C207.247 261.009 207.156 260.762 207.212 260.615C207.589 260.678 208.112 260.516 208.426 260.615H208.433Z" fill="#CDC9C5"/>
<path d="M224.196 289.974C225.263 290.072 227.32 291.206 229.05 290.586V293.035C222.187 293.014 215.288 293.049 208.425 293.035C208.397 292.634 208.446 292.219 208.425 291.811L213.552 291.853L213.879 289.981C217.227 290.199 220.882 289.685 224.189 289.981L224.196 289.974Z" fill="#CDC9C5"/>
<path d="M208.432 282.023L209.645 282.332V283.852H208.432C208.432 283.24 208.432 282.628 208.432 282.016V282.023Z" fill="white"/>
<path d="M213.887 264.287C226.038 263.14 239.96 265.068 252.306 264.372C253.094 264.576 253.171 265.118 253.303 265.814C253.785 268.439 253.289 273.52 253.303 276.518C253.31 279.108 254.064 288.707 252.097 289.671L224.203 289.974C220.904 289.678 217.242 290.192 213.894 289.974C212.15 289.249 212.192 288.271 212.039 286.645C211.599 281.93 211.571 271.705 212.074 267.032C212.171 266.103 212.332 265.188 212.785 264.372C213.092 264.133 213.545 264.315 213.887 264.287ZM227.837 288.749C235.712 288.834 243.65 288.911 251.525 288.482C252.487 287.806 252.146 273.992 252.09 271.627C252.041 269.615 252.711 266.912 251.183 265.512H213.894V287.834C214.278 288.439 214.731 288.622 215.408 288.749C218.47 289.312 224.35 288.714 227.837 288.749Z" fill="#583C26"/>
<path d="M252.09 271.629L245.422 273.465C244.899 273.726 244.306 274.746 244.208 275.302C243.699 275.19 242.723 275.464 242.388 275.302C241.369 274.817 242.102 274.197 239.354 274.078C239.102 274.064 238.482 274.676 238.14 274.69C238.056 274.69 237.484 273.867 236.933 274.078L236.626 277.744C235.81 276.611 235.078 276.456 233.899 277.146C234.422 273.233 230.628 272.748 230.83 276.801C230.963 277.491 231.848 276.998 232.079 277.139C232.197 277.209 232.671 277.695 232.685 277.751C232.943 278.567 232.218 280.024 233.592 280.798L234.506 278.363L236.926 280.812C236.564 281.185 234.89 282.522 234.499 282.649C233.927 282.832 232.469 282.368 232.113 282.705C231.827 282.966 232.225 284.169 232.079 284.486C231.946 284.767 227.391 286.766 227.838 288.765C224.35 288.729 218.47 289.328 215.408 288.765C214.732 288.638 214.271 288.455 213.895 287.85V265.527H251.183C252.711 266.928 252.041 269.63 252.09 271.643V271.629ZM221.79 270.418C221.218 271.15 221.895 274.05 223.89 273.451C226.443 272.684 223.297 268.483 221.79 270.418ZM227.698 274.824L224.811 274.69V276.513L226.624 275.9C226.826 277.702 225.92 280.045 227.538 281.389C229.358 279.722 228.256 276.815 227.698 274.817V274.824ZM222.844 275.443C221.33 274.366 219.691 274.655 218.393 275.907C218.735 278.765 217.096 283.135 221.358 282.002C221.909 281.854 221.49 280.327 223.199 281.263L224.176 280.439L222.844 275.436V275.443Z" fill="#1A1612"/>
<path d="M252.09 271.628C252.146 273.993 252.487 287.807 251.525 288.483C243.657 288.912 235.712 288.834 227.837 288.75C227.391 286.744 231.946 284.753 232.078 284.471L233.996 286.801L235.656 286.85L236.933 283.247L235.105 284.07L234.513 282.634C234.903 282.508 236.577 281.178 236.94 280.798C238.956 278.715 238.021 277.427 238.154 274.682C238.495 274.668 239.109 274.063 239.367 274.07C239.214 276.35 238.935 276.343 241.23 276.85L241.188 281.403L244.487 280.143C245.087 280.186 244.996 282.304 246.328 282.015C248.56 281.537 246.328 278.497 246.196 277.877C245.889 276.385 246.266 274.809 245.429 273.458L252.097 271.621L252.09 271.628Z" fill="#132229"/>
<path d="M245.42 273.457C246.264 274.815 245.888 276.385 246.188 277.876C246.313 278.496 248.545 281.536 246.32 282.014C244.988 282.303 245.079 280.178 244.479 280.142L241.18 281.402L241.221 276.849C238.927 276.342 239.206 276.349 239.359 274.069C242.107 274.189 241.375 274.808 242.393 275.294V279.572C245.316 278.932 243.844 277.349 244.214 275.294C244.311 274.738 244.904 273.717 245.427 273.457H245.42Z" fill="#EEEFF0"/>
<path d="M222.842 275.444L224.174 280.448L223.198 281.271C221.489 280.335 221.907 281.862 221.356 282.01C217.095 283.143 218.734 278.773 218.392 275.916C219.689 274.656 221.328 274.374 222.842 275.451V275.444ZM221.768 275.909L219.348 277.738L222.375 278.351L221.768 275.909ZM220.554 279.582H219.348V280.8H220.554V279.582Z" fill="#EEEFF0"/>
<path d="M232.079 277.133C231.855 276.993 230.963 277.485 230.83 276.796C230.628 272.742 234.422 273.228 233.899 277.141C235.078 276.451 235.81 276.606 236.626 277.739L236.933 274.072C237.484 273.854 238.063 274.684 238.14 274.684C238.007 277.429 238.942 278.717 236.926 280.8L234.506 278.351L233.592 280.786C232.211 280.019 232.937 278.555 232.685 277.739V276.514L232.079 277.126V277.133Z" fill="#EEEFF0"/>
<path d="M227.699 274.822C228.257 276.821 229.352 279.727 227.539 281.395C225.92 280.044 226.827 277.707 226.625 275.906L224.818 276.518V274.695L227.706 274.829L227.699 274.822Z" fill="#DEDFE0"/>
<path d="M234.506 282.633L235.098 284.068L236.926 283.245L235.649 286.848L233.989 286.799L232.071 284.469C232.225 284.153 231.827 282.949 232.106 282.689C232.469 282.358 233.927 282.823 234.492 282.633H234.506Z" fill="#EEEFF0"/>
<path d="M221.79 270.419C223.296 268.483 226.442 272.685 223.889 273.452C221.901 274.05 221.225 271.151 221.79 270.419Z" fill="#DEDFE0"/>
<path d="M244.208 275.294C243.838 277.349 245.31 278.939 242.395 279.572V275.294C242.722 275.455 243.699 275.181 244.208 275.294Z" fill="#1A1612"/>
<path d="M232.685 277.744C232.671 277.688 232.197 277.202 232.078 277.132L232.678 276.52V277.744H232.685Z" fill="#3B2F27"/>
<path d="M221.77 275.906L222.377 278.355L219.35 277.736L221.77 275.906Z" fill="#3B2F27"/>
<path d="M220.556 279.578H219.35V280.796H220.556V279.578Z" fill="#6C4327"/>
</g>
</g>
<defs>
<linearGradient id="paint0_linear_251_101868" x1="81.7331" y1="-872.042" x2="86.1364" y2="-396.928" gradientUnits="userSpaceOnUse">
<stop offset="0.332725" stop-color="#FAC768"/>
<stop offset="1" stop-color="#F58A39"/>
</linearGradient>
<linearGradient id="paint1_linear_251_101868" x1="149.621" y1="313.401" x2="198.133" y2="313.401" gradientUnits="userSpaceOnUse">
<stop offset="0.645" stop-color="#ADBE67"/>
<stop offset="1" stop-color="#7CA251"/>
</linearGradient>
<linearGradient id="paint2_linear_251_101868" x1="186.609" y1="312.917" x2="214.614" y2="312.917" gradientUnits="userSpaceOnUse">
<stop stop-color="#8DA856"/>
<stop offset="1" stop-color="#6E9E4D"/>
</linearGradient>
<linearGradient id="paint3_linear_251_101868" x1="158.092" y1="241.358" x2="312.136" y2="241.358" gradientUnits="userSpaceOnUse">
<stop stop-color="#604946"/>
<stop offset="1" stop-color="#845331"/>
</linearGradient>
<linearGradient id="paint4_linear_251_101868" x1="180.555" y1="260.022" x2="300.603" y2="260.022" gradientUnits="userSpaceOnUse">
<stop stop-color="#BCC5D5"/>
<stop offset="0.395" stop-color="#859DBE"/>
<stop offset="1" stop-color="#D0C3CA"/>
</linearGradient>
<clipPath id="clip0_251_101868">
<rect width="411" height="620" fill="white"/>
</clipPath>
<clipPath id="clip1_251_101868">
<rect width="411" height="620" fill="white"/>
</clipPath>
</defs>
</svg>
