<svg width="411" height="620" viewBox="0 0 411 620" fill="none" xmlns="http://www.w3.org/2000/svg">
<g clip-path="url(#clip0_251_103615)">
<g clip-path="url(#clip1_251_103615)">
<path d="M324.795 103C306.652 188.047 305.998 172.303 304.271 192.615C303.495 205.995 306.885 233.455 321.306 243.49C335.727 253.525 304.443 309.345 286.998 336" stroke="#D9D9D9" stroke-width="4" stroke-linecap="round"/>
<path d="M315.416 188.348C350.941 192.953 361.616 192.46 362.514 191.637" stroke="#D9D9D9" stroke-width="3"/>
<path d="M313.398 214.254C350.269 215.57 372.495 214.802 378.999 214.254" stroke="#D9D9D9" stroke-width="3"/>
<path d="M249.816 242.628C329.209 240.325 355.562 237.831 358.814 236.871" stroke="#D9D9D9" stroke-width="3" stroke-linecap="round"/>
<path d="M278.22 169.194C278.316 168.371 277.727 167.626 276.904 167.53C276.081 167.434 275.336 168.023 275.24 168.845L276.73 169.02L278.22 169.194ZM273.029 243.038L274.528 243.109C275.873 214.654 276.77 196.391 277.345 185.123C277.632 179.489 277.839 175.605 277.98 173.07C278.051 171.803 278.106 170.875 278.146 170.235C278.166 169.915 278.183 169.67 278.195 169.492C278.202 169.403 278.207 169.333 278.212 169.28C278.214 169.254 278.216 169.233 278.217 169.218C278.218 169.21 278.219 169.204 278.219 169.2C278.219 169.195 278.22 169.193 278.22 169.194L276.73 169.02L275.24 168.845C275.12 169.873 274.22 186.11 271.531 242.967L273.029 243.038Z" fill="#D9D9D9"/>
<path d="M291.378 200.114C292.2 200.013 292.785 199.265 292.685 198.443C292.584 197.621 291.836 197.036 291.014 197.136L291.196 198.625L291.378 200.114ZM275.721 198.625L275.67 200.124C285.352 200.453 290.126 200.267 291.378 200.114L291.196 198.625L291.014 197.136C290.023 197.257 285.466 197.455 275.772 197.126L275.721 198.625Z" fill="#D9D9D9"/>
<path d="M249.816 242.626C241.742 162.439 262.936 143.523 266.973 134.888C271.01 126.252 280.093 109.393 283.457 95" stroke="#D9D9D9" stroke-width="3"/>
<path d="M253.543 696.531C264.04 585.01 265.318 573.304 264.645 581.391C265.094 563.846 263.905 525.466 255.562 512.307C247.219 499.148 265.318 425.952 275.41 390.999" stroke="#D9D9D9" stroke-width="4"/>
<path d="M323.18 595.372C243.787 597.675 217.435 600.169 214.183 601.129" stroke="#D9D9D9" stroke-width="3" stroke-linecap="round"/>
<path d="M294.776 668.806C294.68 669.629 295.269 670.374 296.092 670.47C296.915 670.566 297.66 669.977 297.756 669.155L296.266 668.98L294.776 668.806ZM299.967 594.962L298.468 594.891C297.123 623.346 296.226 641.609 295.651 652.877C295.364 658.511 295.157 662.395 295.016 664.93C294.945 666.197 294.89 667.125 294.85 667.765C294.83 668.085 294.814 668.33 294.801 668.508C294.794 668.597 294.789 668.667 294.784 668.72C294.782 668.746 294.78 668.767 294.779 668.782C294.778 668.79 294.778 668.796 294.777 668.8C294.777 668.805 294.776 668.807 294.776 668.806L296.266 668.98L297.756 669.155C297.876 668.127 298.776 651.89 301.465 595.033L299.967 594.962Z" fill="#D9D9D9"/>
<path d="M323.18 595.374C331.254 675.561 310.06 694.477 306.023 703.112C301.986 711.748 292.903 728.607 289.539 743" stroke="#D9D9D9" stroke-width="3"/>
<path d="M74.4438 265.656C74.5473 264.556 73.7397 263.581 72.64 263.478C71.5403 263.374 70.5649 264.182 70.4614 265.281L72.4526 265.469L74.4438 265.656ZM61.3511 380.609L63.3504 380.66L59.358 380.443L61.3511 380.609ZM72.4526 265.469L70.4614 265.281C65.2134 321.042 62.2701 351.846 60.723 367.698C59.9489 375.629 59.5255 379.805 59.3381 381.492C59.2902 381.923 59.2612 382.159 59.2474 382.253C59.2437 382.279 59.2452 382.265 59.2516 382.232C59.2533 382.223 59.2653 382.161 59.2889 382.08C59.2986 382.047 59.3291 381.943 59.3865 381.816C59.4187 381.749 59.5118 381.583 59.5756 381.487C59.6936 381.337 60.0875 380.987 60.3809 380.823C60.8858 380.671 61.9201 380.777 62.3784 381.025C62.6291 381.24 62.9415 381.652 63.0267 381.818C63.148 382.086 63.1782 382.318 63.1825 382.346C63.2016 382.475 63.2026 382.575 63.2027 382.582C63.2037 382.629 63.2021 382.655 63.203 382.633C63.2098 382.454 63.2582 381.809 63.3442 380.775L61.3511 380.609L59.358 380.443C59.2758 381.431 59.2169 382.189 59.2058 382.482C59.2044 382.519 59.202 382.59 59.2036 382.666C59.2041 382.687 59.2057 382.798 59.2259 382.934C59.2307 382.966 59.2615 383.201 59.3835 383.47C59.469 383.637 59.7819 384.049 60.0329 384.265C60.4917 384.513 61.5264 384.619 62.0317 384.467C62.3255 384.302 62.7199 383.952 62.8385 383.801C62.9027 383.705 62.9963 383.538 63.0291 383.469C63.0876 383.34 63.1192 383.233 63.1302 383.195C63.1564 383.105 63.1712 383.03 63.1764 383.004C63.1893 382.938 63.1991 382.875 63.2052 382.832C63.2307 382.659 63.2668 382.354 63.3136 381.934C63.5046 380.215 63.9307 376.011 64.7041 368.086C66.2519 352.227 69.1958 321.417 74.4438 265.656L72.4526 265.469ZM61.3511 380.609L59.3517 380.558C59.1258 389.393 59.3117 403.457 60.6049 416.986C61.2514 423.751 62.1782 430.419 63.4802 436.25C64.773 442.041 66.4717 447.178 68.7451 450.764L70.4342 449.693L72.1233 448.622C70.2251 445.628 68.6466 441.034 67.3841 435.379C66.1308 429.765 65.2241 423.274 64.5867 416.606C63.312 403.269 63.1277 389.37 63.3504 380.66L61.3511 380.609ZM70.4342 449.693L68.7451 450.764C69.5222 451.99 70.1211 454.174 70.3978 457.42C70.6693 460.603 70.6138 464.563 70.2772 469.137C69.6045 478.28 67.8258 489.667 65.4603 501.791C60.7316 526.029 53.7001 553.006 48.6644 570.447L50.5859 571.001L52.5074 571.556C57.5641 554.043 64.6282 526.946 69.3863 502.557C71.7642 490.369 73.5767 478.805 74.2664 469.43C74.6111 464.746 74.6797 460.555 74.3834 457.08C74.0925 453.668 73.4319 450.686 72.1233 448.622L70.4342 449.693Z" fill="#D9D9D9"/>
<path d="M68.416 312.348C103.941 316.953 114.616 316.46 115.514 315.637" stroke="#D9D9D9" stroke-width="3"/>
<path d="M66.3984 338.254C103.269 339.57 125.495 338.802 131.999 338.254" stroke="#D9D9D9" stroke-width="3"/>
<path d="M2.81641 366.628C82.2094 364.325 108.562 361.831 111.814 360.871" stroke="#D9D9D9" stroke-width="3" stroke-linecap="round"/>
<path d="M31.2197 293.194C31.3158 292.371 30.7268 291.626 29.9039 291.53C29.0811 291.434 28.3361 292.023 28.24 292.845L29.7298 293.02L31.2197 293.194ZM26.0293 367.038L27.5276 367.109C28.8732 338.654 29.7702 320.391 30.3448 309.123C30.6321 303.489 30.8387 299.605 30.9804 297.07C31.0513 295.803 31.1058 294.875 31.146 294.235C31.1662 293.915 31.1825 293.67 31.1954 293.492C31.2019 293.403 31.2073 293.333 31.2117 293.28C31.2139 293.254 31.2158 293.233 31.2173 293.218C31.218 293.21 31.2186 293.204 31.219 293.2C31.2195 293.195 31.2197 293.193 31.2197 293.194L29.7298 293.02L28.24 292.845C28.1198 293.873 27.2197 310.11 24.531 366.967L26.0293 367.038Z" fill="#D9D9D9"/>
<path d="M44.3776 324.114C45.1999 324.013 45.785 323.265 45.6845 322.443C45.584 321.621 44.8359 321.036 44.0136 321.136L44.1956 322.625L44.3776 324.114ZM28.7207 322.625L28.6698 324.124C38.3523 324.453 43.1257 324.267 44.3776 324.114L44.1956 322.625L44.0136 321.136C43.0228 321.257 38.4664 321.455 28.7716 321.126L28.7207 322.625Z" fill="#D9D9D9"/>
<path d="M37.918 219.341C38.1065 218.535 37.6055 217.728 36.7988 217.539C35.9921 217.351 35.1853 217.852 34.9967 218.659L36.4574 219L37.918 219.341ZM2.81626 366.626L4.30871 366.476C0.285578 326.519 3.56747 301.952 8.28882 286.36C10.6482 278.568 13.3746 272.992 15.7556 268.834C16.9502 266.748 18.0588 265.017 19.0131 263.51C19.9506 262.03 20.7792 260.706 21.3321 259.523L19.9732 258.888L18.6144 258.253C18.158 259.229 17.4412 260.385 16.4785 261.905C15.5326 263.399 14.3862 265.189 13.1523 267.343C10.6764 271.667 7.85205 277.451 5.41756 285.491C0.551201 301.562 -2.72692 326.546 1.32381 366.776L2.81626 366.626ZM19.9732 258.888L21.3321 259.523C25.3036 251.027 34.5069 233.935 37.918 219.341L36.4574 219L34.9967 218.659C31.6796 232.85 22.7167 249.477 18.6144 258.253L19.9732 258.888Z" fill="#D9D9D9"/>
<path d="M255.683 169.757C97.9286 150.451 81.3647 148.062 92.802 149.281C68.0181 148.711 13.8662 151.916 -4.46992 169.294C-22.8061 186.672 -126.672 151.004 -176.313 130.998" stroke="#D9D9D9" stroke-width="4"/>
<path d="M150.191 158.414C146.088 256.607 147.093 286.083 148.109 288.546" stroke="#D9D9D9" stroke-width="3"/>
<path d="M115.785 156.48C121.6 232.02 119.476 277.635 117.687 291" stroke="#D9D9D9" stroke-width="3"/>
<path d="M84.367 80.6709C89.8267 163.999 94.8554 191.612 96.6872 195.002" stroke="#D9D9D9" stroke-width="3" stroke-linecap="round"/>
<path d="M172.422 113.191C173.246 113.276 173.983 112.677 174.068 111.853C174.154 111.029 173.555 110.292 172.73 110.207L172.576 111.699L172.422 113.191ZM84.2706 108.51L84.2205 110.009C152.17 112.278 171.345 113.08 172.422 113.191L172.576 111.699L172.73 110.207C171.516 110.082 152.16 109.276 84.3207 107.01L84.2706 108.51Z" fill="#D9D9D9"/>
<path d="M136.038 129.746C136.149 130.567 136.905 131.142 137.726 131.031C138.547 130.919 139.122 130.163 139.01 129.342L137.524 129.544L136.038 129.746ZM137.262 110.988L135.762 110.959C135.534 122.576 135.838 128.274 136.038 129.746L137.524 129.544L139.01 129.342C138.846 128.13 138.533 122.647 138.761 111.018L137.262 110.988Z" fill="#D9D9D9"/>
<path d="M84.367 80.6689C179.827 69.6357 202.737 94.7305 213.101 99.4256C223.464 104.121 243.718 114.728 260.933 118.519" stroke="#D9D9D9" stroke-width="3"/>
<path d="M269.443 404.467C136.312 393.761 122.335 392.425 131.988 393.096C111.063 392.854 65.3279 394.926 49.7817 405.152C34.2355 415.378 -53.334 394.909 -95.1754 383.397" stroke="#D9D9D9" stroke-width="4"/>
<path d="M213.488 400.414C208.6 443.09 209.369 455.883 210.365 456.944" stroke="#D9D9D9" stroke-width="3"/>
<path d="M182.568 398.43C181.624 442.664 182.917 469.301 183.681 477.091" stroke="#D9D9D9" stroke-width="3"/>
<path d="M147.664 322.667C151.756 417.829 155.176 449.386 156.376 453.269" stroke="#D9D9D9" stroke-width="3" stroke-linecap="round"/>
<path d="M235.719 355.191C236.543 355.276 237.28 354.677 237.365 353.853C237.45 353.029 236.851 352.292 236.027 352.207L235.873 353.699L235.719 355.191ZM147.567 350.51L147.517 352.009C215.467 354.278 234.642 355.08 235.719 355.191L235.873 353.699L236.027 352.207C234.813 352.082 215.457 351.276 147.618 349.01L147.567 350.51Z" fill="#D9D9D9"/>
<path d="M199.335 371.746C199.446 372.567 200.202 373.142 201.023 373.031C201.844 372.919 202.419 372.163 202.307 371.342L200.821 371.544L199.335 371.746ZM200.559 352.988L199.059 352.959C198.831 364.576 199.135 370.274 199.335 371.746L200.821 371.544L202.307 371.342C202.142 370.13 201.83 364.647 202.058 353.018L200.559 352.988Z" fill="#D9D9D9"/>
<path d="M144.015 323.669C239.475 312.636 262.386 337.731 272.749 342.426C283.112 347.121 303.366 357.728 320.582 361.519" stroke="#D9D9D9" stroke-width="3"/>
<path d="M446.647 407.762C326.579 423.75 313.979 425.669 322.688 424.629C303.775 425.508 262.361 424.475 248.009 413.319C233.657 402.163 155.067 427.916 117.566 442.187" stroke="#D9D9D9" stroke-width="4"/>
<path d="M396.168 413.973C390.517 365.685 390.844 351.146 391.714 349.912" stroke="#D9D9D9" stroke-width="3"/>
<path d="M368.268 417.113C366.138 366.944 366.539 336.678 367.005 327.817" stroke="#D9D9D9" stroke-width="3"/>
<path d="M338.893 504.096C339.848 395.989 342.031 360.079 343.004 355.638" stroke="#D9D9D9" stroke-width="3" stroke-linecap="round"/>
<path d="M417.517 464.857C418.335 464.725 419.105 465.28 419.238 466.098C419.37 466.916 418.815 467.686 417.997 467.818L417.757 466.338L417.517 464.857ZM338.002 472.504L337.892 471.008C368.553 468.742 388.231 467.243 400.372 466.289C406.442 465.812 410.627 465.471 413.357 465.24C414.722 465.124 415.721 465.036 416.409 464.971C416.753 464.939 417.016 464.913 417.207 464.893C417.303 464.883 417.377 464.875 417.432 464.868C417.46 464.865 417.481 464.862 417.497 464.86C417.513 464.858 417.519 464.857 417.517 464.857L417.757 466.338L417.997 467.818C417.4 467.915 412.693 468.33 400.607 469.28C388.46 470.234 368.777 471.734 338.113 474L338.002 472.504Z" fill="#D9D9D9"/>
<path d="M384.053 446.976C384.121 446.151 384.845 445.536 385.671 445.604C386.496 445.672 387.111 446.397 387.043 447.222L385.548 447.099L384.053 446.976ZM385.846 468.164L384.347 468.225C383.807 455.047 383.919 448.608 384.053 446.976L385.548 447.099L387.043 447.222C386.926 448.647 386.804 454.914 387.344 468.103L385.846 468.164Z" fill="#D9D9D9"/>
<path d="M338.892 504.097C425.525 513.864 445.517 484.726 454.752 479.099C463.988 473.472 481.995 460.851 497.452 456.052" stroke="#D9D9D9" stroke-width="3"/>
<path d="M379 874.411V-122.67C379 -122.67 372.114 -188 304.405 -188C236.696 -188 227.515 -122.67 227.515 -122.67V6.91823C227.515 6.91823 224.073 65.8221 179.316 106.519C134.559 147.217 70.293 149.358 70.293 149.358H-64.634C-64.634 149.358 -153 146.146 -153 222.185C-153 298.225 -64.634 293.941 -64.634 293.941H219.482C219.482 293.941 291.782 293.941 291.782 366.767C291.782 439.594 228.663 440.665 228.663 440.665H23.6938C23.6938 440.665 -42.8675 446.02 -42.8675 512.42C-42.8675 578.821 23.6938 578.821 23.6938 578.821H95.1333C196.863 578.821 202.586 593.608 202.586 716.977V854.063C202.586 854.063 193.405 921.535 123.401 921.535C53.3969 921.535 46.5112 854.063 46.5112 854.063V759.817C46.5112 759.817 45.9921 708.41 -17.1265 708.41C-80.245 708.41 -80.0439 764.101 -80.0439 764.101V854.063C-80.0439 923.677 -65.8817 984.304 38.1599 1004H224.073C369.819 1004 379 874.411 379 874.411Z" stroke="url(#paint0_linear_251_103615)" stroke-width="30"/>
<rect x="116.5" y="257.5" width="168" height="30" rx="15" fill="white"/>
<rect x="116.5" y="257.5" width="168" height="30" rx="15" stroke="#BF4B17" stroke-width="3"/>
<path d="M133.444 264.012L134.692 264.332C134.329 265.249 133.908 266.145 133.428 267.02C132.959 267.895 132.452 268.711 131.908 269.468C131.364 270.215 130.809 270.876 130.244 271.452C130.169 271.377 130.063 271.292 129.924 271.196C129.796 271.1 129.657 271.004 129.508 270.908C129.369 270.812 129.247 270.737 129.14 270.684C129.727 270.151 130.287 269.532 130.82 268.828C131.353 268.124 131.844 267.361 132.292 266.54C132.74 265.708 133.124 264.865 133.444 264.012ZM132.836 266.78H143.572V267.964H132.26L132.836 266.78ZM134.884 267.244H136.132V278.78H134.884V267.244ZM135.636 270.332H142.66V271.468H135.636V270.332ZM135.636 273.916H142.916V275.1H135.636V273.916ZM145.316 265.02H150.58V266.14H145.316V265.02ZM145.412 269.516H150.436V270.62H145.412V269.516ZM144.996 275.068C145.455 274.94 145.972 274.796 146.548 274.636C147.135 274.465 147.753 274.284 148.404 274.092C149.065 273.889 149.721 273.692 150.372 273.5L150.516 274.604C149.599 274.881 148.676 275.164 147.748 275.452C146.831 275.74 146.004 276.001 145.268 276.236L144.996 275.068ZM147.364 265.468H148.532V274.812L147.364 275.052V265.468ZM151.86 267.26H158.884V268.236H151.86V267.26ZM151.86 269.708H158.932V270.7H151.86V269.708ZM151.268 272.22H158.948V273.292H151.268V272.22ZM154.932 265.276H156.02V272.684H154.932V265.276ZM152.724 274.572L153.572 274.444C153.668 274.924 153.743 275.441 153.796 275.996C153.86 276.54 153.887 277.009 153.876 277.404L152.964 277.564C152.985 277.159 152.969 276.679 152.916 276.124C152.873 275.569 152.809 275.052 152.724 274.572ZM154.532 274.428L155.316 274.22C155.487 274.615 155.647 275.047 155.796 275.516C155.945 275.975 156.047 276.369 156.1 276.7L155.268 276.956C155.215 276.615 155.119 276.209 154.98 275.74C154.841 275.26 154.692 274.823 154.532 274.428ZM156.244 274.076L156.932 273.788C157.156 274.076 157.369 274.401 157.572 274.764C157.785 275.116 157.945 275.42 158.052 275.676L157.316 276.012C157.22 275.756 157.071 275.447 156.868 275.084C156.665 274.721 156.457 274.385 156.244 274.076ZM150.996 274.124L151.956 274.364C151.849 275.089 151.689 275.793 151.476 276.476C151.263 277.148 150.927 277.697 150.468 278.124L149.572 277.628C149.988 277.233 150.303 276.721 150.516 276.092C150.74 275.452 150.9 274.796 150.996 274.124ZM151.268 264.732H159.444V265.788H152.404V272.764H151.268V264.732ZM158.612 272.22H159.748C159.748 272.22 159.743 272.252 159.732 272.316C159.732 272.38 159.732 272.455 159.732 272.54C159.732 272.615 159.727 272.679 159.716 272.732C159.663 273.969 159.599 274.972 159.524 275.74C159.46 276.497 159.38 277.079 159.284 277.484C159.188 277.879 159.065 278.156 158.916 278.316C158.788 278.465 158.649 278.572 158.5 278.636C158.351 278.7 158.169 278.743 157.956 278.764C157.775 278.785 157.524 278.796 157.204 278.796C156.884 278.796 156.543 278.785 156.18 278.764C156.169 278.604 156.137 278.423 156.084 278.22C156.031 278.017 155.961 277.841 155.876 277.692C156.228 277.724 156.548 277.745 156.836 277.756C157.124 277.767 157.327 277.772 157.444 277.772C157.572 277.772 157.673 277.761 157.748 277.74C157.823 277.719 157.897 277.671 157.972 277.596C158.068 277.489 158.153 277.255 158.228 276.892C158.303 276.529 158.372 275.985 158.436 275.26C158.511 274.535 158.569 273.591 158.612 272.428V272.22ZM164.948 264.06L166.02 264.428C165.7 264.887 165.311 265.329 164.852 265.756C164.404 266.172 163.929 266.561 163.428 266.924C162.927 267.276 162.436 267.585 161.956 267.852C161.892 267.788 161.807 267.703 161.7 267.596C161.604 267.489 161.503 267.383 161.396 267.276C161.3 267.169 161.204 267.084 161.108 267.02C161.833 266.668 162.543 266.236 163.236 265.724C163.94 265.201 164.511 264.647 164.948 264.06ZM165.7 265.932L175.588 265.356L175.668 266.22L165.78 266.844L165.7 265.932ZM168.036 264.092H169.108C169.204 264.679 169.428 265.207 169.78 265.676C170.132 266.145 170.559 266.551 171.06 266.892C171.561 267.223 172.095 267.473 172.66 267.644C173.236 267.815 173.796 267.895 174.34 267.884C174.585 267.884 174.751 267.804 174.836 267.644C174.921 267.484 174.98 267.18 175.012 266.732C175.14 266.828 175.279 266.913 175.428 266.988C175.588 267.063 175.743 267.121 175.892 267.164C175.839 267.623 175.748 267.98 175.62 268.236C175.503 268.492 175.337 268.668 175.124 268.764C174.911 268.86 174.639 268.908 174.308 268.908C173.636 268.908 172.953 268.796 172.26 268.572C171.567 268.348 170.921 268.028 170.324 267.612C169.737 267.196 169.236 266.695 168.82 266.108C168.415 265.511 168.153 264.839 168.036 264.092ZM170.612 264.556L171.076 263.948C171.385 264.012 171.711 264.092 172.052 264.188C172.404 264.284 172.735 264.385 173.044 264.492C173.364 264.599 173.631 264.695 173.844 264.78L173.38 265.468C173.167 265.372 172.9 265.271 172.58 265.164C172.271 265.057 171.94 264.951 171.588 264.844C171.247 264.727 170.921 264.631 170.612 264.556ZM164.164 271.372V272.348H172.884V271.372H164.164ZM164.164 269.724V270.668H172.884V269.724H164.164ZM163.028 268.988H174.052V273.084H163.028V268.988ZM162.564 273.82H174.452V274.604H162.564V273.82ZM161.38 275.436H175.636V276.236H161.38V275.436ZM167.86 269.276H169.028V275.836H167.86V269.276ZM166.036 276.812L167.124 276.748C167.209 277.036 167.284 277.351 167.348 277.692C167.423 278.044 167.471 278.332 167.492 278.556L166.356 278.684C166.324 278.439 166.281 278.14 166.228 277.788C166.185 277.436 166.121 277.111 166.036 276.812ZM169.316 276.828L170.436 276.668C170.585 276.935 170.729 277.233 170.868 277.564C171.007 277.905 171.108 278.193 171.172 278.428L170.004 278.652C169.951 278.407 169.86 278.113 169.732 277.772C169.604 277.431 169.465 277.116 169.316 276.828ZM172.436 276.78L173.556 276.428C173.908 276.727 174.276 277.068 174.66 277.452C175.044 277.836 175.343 278.177 175.556 278.476L174.372 278.844C174.244 278.652 174.073 278.433 173.86 278.188C173.647 277.953 173.417 277.713 173.172 277.468C172.927 277.223 172.681 276.993 172.436 276.78ZM163.492 276.412L164.596 276.748C164.361 277.132 164.063 277.511 163.7 277.884C163.337 278.268 162.953 278.577 162.548 278.812L161.476 278.332C161.86 278.119 162.233 277.841 162.596 277.5C162.969 277.159 163.268 276.796 163.492 276.412ZM163.636 266.188L164.468 265.356L164.756 265.468V268.7H163.636V266.188ZM185.188 267.292H191.604V268.364H185.188V278.796H184.068V268.012L184.756 267.292H185.188ZM184.676 270.444H191.124V271.516H184.676V270.444ZM184.66 273.612H191.204V274.684H184.66V273.612ZM184.468 276.892H191.924V277.98H184.468V276.892ZM187.556 267.884H188.66V277.292H187.556V267.884ZM185.316 264.044L186.468 264.364C186.223 265.068 185.919 265.799 185.556 266.556C185.204 267.303 184.809 268.028 184.372 268.732C183.945 269.425 183.487 270.044 182.996 270.588C182.943 270.503 182.868 270.412 182.772 270.316C182.676 270.209 182.58 270.108 182.484 270.012C182.388 269.905 182.303 269.82 182.228 269.756C182.676 269.255 183.097 268.679 183.492 268.028C183.897 267.377 184.255 266.705 184.564 266.012C184.873 265.319 185.124 264.663 185.316 264.044ZM188.82 264.3L190.068 264.604C189.812 265.18 189.535 265.777 189.236 266.396C188.937 267.004 188.655 267.527 188.388 267.964L187.396 267.644C187.577 267.345 187.753 266.999 187.924 266.604C188.105 266.209 188.276 265.809 188.436 265.404C188.596 264.999 188.724 264.631 188.82 264.3ZM179.636 264.06L180.692 264.46C180.5 264.855 180.287 265.265 180.052 265.692C179.828 266.119 179.599 266.535 179.364 266.94C179.14 267.335 178.927 267.681 178.724 267.98L177.892 267.612C178.095 267.303 178.303 266.94 178.516 266.524C178.74 266.108 178.948 265.681 179.14 265.244C179.343 264.807 179.508 264.412 179.636 264.06ZM181.428 265.884L182.436 266.364C182.073 266.951 181.668 267.58 181.22 268.252C180.772 268.913 180.319 269.553 179.86 270.172C179.412 270.791 178.985 271.329 178.58 271.788L177.844 271.372C178.143 271.02 178.457 270.62 178.788 270.172C179.119 269.713 179.444 269.239 179.764 268.748C180.084 268.247 180.388 267.751 180.676 267.26C180.964 266.769 181.215 266.311 181.428 265.884ZM177.092 267.404L177.716 266.636C178.004 266.892 178.292 267.175 178.58 267.484C178.879 267.793 179.151 268.097 179.396 268.396C179.641 268.695 179.833 268.967 179.972 269.212L179.3 270.108C179.161 269.852 178.969 269.564 178.724 269.244C178.489 268.924 178.228 268.604 177.94 268.284C177.652 267.964 177.369 267.671 177.092 267.404ZM180.804 269.548L181.684 269.196C181.908 269.537 182.121 269.911 182.324 270.316C182.527 270.721 182.708 271.116 182.868 271.5C183.039 271.873 183.161 272.204 183.236 272.492L182.276 272.94C182.212 272.631 182.1 272.284 181.94 271.9C181.791 271.505 181.62 271.105 181.428 270.7C181.236 270.284 181.028 269.9 180.804 269.548ZM176.948 271.132C177.641 271.1 178.463 271.063 179.412 271.02C180.372 270.967 181.353 270.913 182.356 270.86V271.868C181.417 271.932 180.484 271.996 179.556 272.06C178.639 272.113 177.817 272.161 177.092 272.204L176.948 271.132ZM181.284 273.42L182.18 273.164C182.404 273.644 182.596 274.172 182.756 274.748C182.927 275.324 183.039 275.815 183.092 276.22L182.148 276.524C182.105 276.108 181.999 275.612 181.828 275.036C181.668 274.449 181.487 273.911 181.284 273.42ZM177.924 273.212L178.932 273.372C178.825 274.129 178.676 274.876 178.484 275.612C178.303 276.337 178.089 276.956 177.844 277.468C177.78 277.425 177.689 277.377 177.572 277.324C177.455 277.26 177.337 277.201 177.22 277.148C177.103 277.095 177.001 277.052 176.916 277.02C177.183 276.529 177.396 275.948 177.556 275.276C177.716 274.593 177.839 273.905 177.924 273.212ZM179.62 271.612H180.676V278.78H179.62V271.612ZM194.148 265.132H206.852V266.316H194.148V265.132ZM194.852 270.748H206.308V271.932H194.852V270.748ZM193.332 276.876H207.684V278.06H193.332V276.876ZM199.86 265.436H201.108V277.644H199.86V265.436ZM211.524 268.492H223.908V269.644H211.524V268.492ZM214.068 276.844H221.7V277.964H214.068V276.844ZM210.884 265.292L212.42 265.596C212.399 265.713 212.287 265.788 212.084 265.82V269.804C212.084 270.455 212.057 271.164 212.004 271.932C211.961 272.689 211.871 273.473 211.732 274.284C211.593 275.084 211.38 275.873 211.092 276.652C210.804 277.42 210.425 278.135 209.956 278.796C209.903 278.711 209.817 278.615 209.7 278.508C209.593 278.401 209.476 278.3 209.348 278.204C209.231 278.108 209.119 278.039 209.012 277.996C209.439 277.388 209.775 276.737 210.02 276.044C210.276 275.34 210.463 274.625 210.58 273.9C210.708 273.175 210.788 272.465 210.82 271.772C210.863 271.068 210.884 270.407 210.884 269.788V265.292ZM221.556 264.188L222.564 265.132C221.839 265.324 221.033 265.5 220.148 265.66C219.263 265.82 218.329 265.964 217.348 266.092C216.377 266.209 215.396 266.316 214.404 266.412C213.412 266.497 212.441 266.572 211.492 266.636C211.492 266.54 211.471 266.433 211.428 266.316C211.396 266.188 211.353 266.06 211.3 265.932C211.257 265.804 211.215 265.697 211.172 265.612C212.089 265.548 213.033 265.468 214.004 265.372C214.975 265.276 215.924 265.169 216.852 265.052C217.78 264.924 218.644 264.791 219.444 264.652C220.255 264.503 220.959 264.348 221.556 264.188ZM213.492 271.932H222.5V278.764H221.284V273.052H214.644V278.796H213.492V271.932ZM232.132 264.94H239.06V271.996H237.86V266.076H232.132V264.94ZM233.14 269.948H238.404V271.068H233.14V269.948ZM232.58 269.948H233.78V276.812C233.78 277.132 233.844 277.34 233.972 277.436C234.1 277.521 234.383 277.564 234.82 277.564C234.927 277.564 235.113 277.564 235.38 277.564C235.657 277.564 235.961 277.564 236.292 277.564C236.633 277.564 236.948 277.564 237.236 277.564C237.524 277.564 237.737 277.564 237.876 277.564C238.153 277.564 238.356 277.505 238.484 277.388C238.623 277.26 238.719 277.02 238.772 276.668C238.836 276.305 238.879 275.772 238.9 275.068C238.996 275.143 239.108 275.212 239.236 275.276C239.375 275.34 239.513 275.399 239.652 275.452C239.801 275.495 239.924 275.532 240.02 275.564C239.977 276.385 239.892 277.025 239.764 277.484C239.636 277.932 239.428 278.247 239.14 278.428C238.863 278.609 238.463 278.7 237.94 278.7C237.865 278.7 237.716 278.7 237.492 278.7C237.279 278.7 237.028 278.7 236.74 278.7C236.463 278.7 236.18 278.7 235.892 278.7C235.615 278.7 235.369 278.7 235.156 278.7C234.943 278.7 234.799 278.7 234.724 278.7C234.191 278.7 233.764 278.647 233.444 278.54C233.135 278.444 232.911 278.257 232.772 277.98C232.644 277.703 232.58 277.313 232.58 276.812V269.948ZM228.084 271.612H229.236V278.78H228.084V271.612ZM227.892 264.06L229.012 264.54C228.777 264.924 228.521 265.335 228.244 265.772C227.967 266.199 227.689 266.609 227.412 267.004C227.135 267.399 226.879 267.745 226.644 268.044L225.796 267.628C226.031 267.319 226.276 266.956 226.532 266.54C226.799 266.113 227.049 265.687 227.284 265.26C227.529 264.823 227.732 264.423 227.892 264.06ZM229.972 265.868L231.028 266.38C230.601 266.967 230.132 267.601 229.62 268.284C229.119 268.956 228.607 269.601 228.084 270.22C227.561 270.839 227.071 271.377 226.612 271.836L225.844 271.388C226.185 271.036 226.543 270.631 226.916 270.172C227.289 269.713 227.663 269.233 228.036 268.732C228.409 268.231 228.761 267.735 229.092 267.244C229.423 266.753 229.716 266.295 229.972 265.868ZM225.108 267.612L225.7 266.796C225.999 267.02 226.308 267.271 226.628 267.548C226.948 267.825 227.241 268.103 227.508 268.38C227.775 268.647 227.988 268.892 228.148 269.116L227.524 270.044C227.375 269.809 227.167 269.548 226.9 269.26C226.633 268.972 226.345 268.684 226.036 268.396C225.727 268.097 225.417 267.836 225.108 267.612ZM229.444 269.548L230.356 269.116C230.612 269.468 230.868 269.847 231.124 270.252C231.391 270.647 231.625 271.036 231.828 271.42C232.031 271.804 232.191 272.145 232.308 272.444L231.332 272.94C231.225 272.631 231.071 272.284 230.868 271.9C230.665 271.505 230.441 271.105 230.196 270.7C229.951 270.284 229.7 269.9 229.444 269.548ZM225.028 271.132C225.807 271.111 226.735 271.073 227.812 271.02C228.9 270.967 230.015 270.913 231.156 270.86L231.14 271.884C230.052 271.948 228.98 272.012 227.924 272.076C226.879 272.129 225.951 272.177 225.14 272.22L225.028 271.132ZM229.892 273.468L230.836 273.132C231.028 273.452 231.209 273.799 231.38 274.172C231.551 274.535 231.705 274.897 231.844 275.26C231.983 275.623 232.084 275.943 232.148 276.22L231.14 276.604C231.076 276.327 230.975 276.007 230.836 275.644C230.708 275.281 230.559 274.908 230.388 274.524C230.228 274.14 230.063 273.788 229.892 273.468ZM226.1 273.212L227.204 273.42C227.065 274.177 226.884 274.924 226.66 275.66C226.447 276.396 226.201 277.015 225.924 277.516C225.849 277.463 225.748 277.409 225.62 277.356C225.503 277.292 225.38 277.228 225.252 277.164C225.124 277.1 225.012 277.052 224.916 277.02C225.215 276.54 225.46 275.964 225.652 275.292C225.844 274.609 225.993 273.916 226.1 273.212ZM245.396 273.884H246.58V276.972C246.58 277.185 246.633 277.324 246.74 277.388C246.847 277.452 247.092 277.484 247.476 277.484C247.572 277.484 247.732 277.484 247.956 277.484C248.191 277.484 248.452 277.484 248.74 277.484C249.028 277.484 249.295 277.484 249.54 277.484C249.796 277.484 249.983 277.484 250.1 277.484C250.324 277.484 250.495 277.441 250.612 277.356C250.729 277.271 250.809 277.089 250.852 276.812C250.895 276.524 250.927 276.097 250.948 275.532C251.033 275.596 251.14 275.66 251.268 275.724C251.396 275.777 251.529 275.831 251.668 275.884C251.807 275.927 251.929 275.959 252.036 275.98C251.993 276.673 251.908 277.207 251.78 277.58C251.663 277.953 251.481 278.209 251.236 278.348C250.991 278.497 250.644 278.572 250.196 278.572C250.132 278.572 250.004 278.572 249.812 278.572C249.62 278.572 249.401 278.572 249.156 278.572C248.911 278.572 248.665 278.572 248.42 278.572C248.175 278.572 247.956 278.572 247.764 278.572C247.572 278.572 247.444 278.572 247.38 278.572C246.857 278.572 246.452 278.524 246.164 278.428C245.876 278.343 245.673 278.183 245.556 277.948C245.449 277.713 245.396 277.388 245.396 276.972V273.884ZM246.18 272.876L246.932 272.092C247.327 272.263 247.727 272.471 248.132 272.716C248.537 272.951 248.911 273.201 249.252 273.468C249.604 273.724 249.887 273.975 250.1 274.22L249.3 275.084C249.108 274.839 248.841 274.583 248.5 274.316C248.159 274.049 247.785 273.788 247.38 273.532C246.975 273.276 246.575 273.057 246.18 272.876ZM251.748 274.268L252.74 273.66C253.156 274.023 253.561 274.423 253.956 274.86C254.361 275.297 254.724 275.735 255.044 276.172C255.375 276.609 255.625 277.02 255.796 277.404L254.708 278.06C254.548 277.697 254.313 277.292 254.004 276.844C253.695 276.396 253.343 275.948 252.948 275.5C252.564 275.041 252.164 274.631 251.748 274.268ZM243.396 273.804L244.468 274.156C244.34 274.657 244.175 275.164 243.972 275.676C243.78 276.177 243.535 276.647 243.236 277.084C242.937 277.511 242.575 277.884 242.148 278.204L241.156 277.516C241.551 277.239 241.892 276.903 242.18 276.508C242.479 276.103 242.724 275.671 242.916 275.212C243.119 274.743 243.279 274.273 243.396 273.804ZM243.284 269.676H252.372V270.716H243.284V269.676ZM245.556 267.548H251.38V268.524H245.556V267.548ZM248.404 265.132C247.956 265.665 247.38 266.209 246.676 266.764C245.983 267.308 245.215 267.825 244.372 268.316C243.529 268.796 242.671 269.217 241.796 269.58C241.743 269.473 241.679 269.361 241.604 269.244C241.529 269.116 241.449 268.993 241.364 268.876C241.279 268.748 241.193 268.641 241.108 268.556C242.004 268.215 242.873 267.804 243.716 267.324C244.569 266.833 245.343 266.311 246.036 265.756C246.729 265.191 247.295 264.631 247.732 264.076H248.948C249.535 264.705 250.207 265.297 250.964 265.852C251.732 266.407 252.537 266.903 253.38 267.34C254.233 267.767 255.065 268.113 255.876 268.38C255.748 268.529 255.615 268.705 255.476 268.908C255.348 269.111 255.236 269.292 255.14 269.452C254.553 269.228 253.945 268.956 253.316 268.636C252.687 268.316 252.068 267.969 251.46 267.596C250.863 267.223 250.297 266.828 249.764 266.412C249.241 265.985 248.788 265.559 248.404 265.132ZM252.02 269.676H252.276L252.468 269.628L253.268 270.108C253.065 270.524 252.82 270.956 252.532 271.404C252.244 271.852 251.94 272.289 251.62 272.716C251.311 273.132 251.012 273.5 250.724 273.82C250.607 273.724 250.457 273.623 250.276 273.516C250.105 273.399 249.945 273.308 249.796 273.244C250.084 272.945 250.367 272.599 250.644 272.204C250.932 271.809 251.199 271.409 251.444 271.004C251.689 270.599 251.881 270.231 252.02 269.9V269.676ZM262.884 274.476H271.86V275.58H262.884V274.476ZM266.772 264.044L268.116 264.236C267.967 264.631 267.812 265.02 267.652 265.404C267.503 265.788 267.359 266.119 267.22 266.396L266.18 266.188C266.297 265.879 266.409 265.521 266.516 265.116C266.623 264.711 266.708 264.353 266.772 264.044ZM264.692 269.228V270.828H270.132V269.228H264.692ZM264.692 266.684V268.268H270.132V266.684H264.692ZM263.62 265.692H271.268V271.82H263.62V265.692ZM267.796 272.108H268.948V278.78H267.796V272.108ZM266.836 266.188H267.876V271.356H266.836V266.188ZM264.996 272.284L266.148 272.556C265.956 272.983 265.759 273.409 265.556 273.836C265.353 274.263 265.161 274.631 264.98 274.94L264.052 274.668C264.169 274.444 264.287 274.193 264.404 273.916C264.521 273.639 264.633 273.356 264.74 273.068C264.847 272.78 264.932 272.519 264.996 272.284ZM257.236 264.924H263.14V266.028H257.236V264.924ZM258.916 269.756H262.532V276.572H258.916V275.5H261.476V270.812H258.916V269.756ZM259.204 265.468L260.34 265.628C260.191 266.737 259.999 267.815 259.764 268.86C259.529 269.905 259.241 270.881 258.9 271.788C258.559 272.684 258.153 273.484 257.684 274.188C257.641 274.092 257.572 273.98 257.476 273.852C257.391 273.713 257.3 273.58 257.204 273.452C257.108 273.313 257.023 273.201 256.948 273.116C257.364 272.508 257.716 271.799 258.004 270.988C258.292 270.177 258.532 269.303 258.724 268.364C258.916 267.425 259.076 266.46 259.204 265.468ZM258.404 269.756H259.428V277.932H258.404V269.756Z" fill="black"/>
<circle cx="93" cy="272" r="19" fill="#BF4B17"/>
<path d="M91.8951 269.344C92.5351 269.344 93.0045 269.216 93.3031 268.96C93.6125 268.693 93.7671 268.357 93.7671 267.952V267.84C93.7671 267.381 93.6178 267.024 93.3191 266.768C93.0311 266.501 92.6311 266.368 92.1191 266.368C91.6285 266.368 91.1911 266.485 90.8071 266.72C90.4338 266.955 90.1085 267.285 89.8311 267.712L88.4871 266.496C88.6791 266.24 88.8871 266 89.1111 265.776C89.3458 265.541 89.6125 265.344 89.9111 265.184C90.2098 265.013 90.5458 264.88 90.9191 264.784C91.2925 264.688 91.7138 264.64 92.1831 264.64C92.7485 264.64 93.2605 264.709 93.7191 264.848C94.1885 264.976 94.5885 265.168 94.9191 265.424C95.2605 265.68 95.5218 265.989 95.7031 266.352C95.8845 266.704 95.9751 267.104 95.9751 267.552C95.9751 267.915 95.9165 268.24 95.7991 268.528C95.6925 268.816 95.5378 269.067 95.3351 269.28C95.1431 269.493 94.9138 269.669 94.6471 269.808C94.3911 269.936 94.1191 270.032 93.8311 270.096V270.192C94.1511 270.256 94.4551 270.357 94.7431 270.496C95.0311 270.635 95.2765 270.821 95.4791 271.056C95.6925 271.28 95.8578 271.547 95.9751 271.856C96.1031 272.165 96.1671 272.517 96.1671 272.912C96.1671 273.403 96.0658 273.851 95.8631 274.256C95.6711 274.661 95.3938 275.008 95.0311 275.296C94.6685 275.584 94.2365 275.808 93.7351 275.968C93.2338 276.117 92.6738 276.192 92.0551 276.192C91.5111 276.192 91.0311 276.133 90.6151 276.016C90.1991 275.909 89.8311 275.76 89.5111 275.568C89.2018 275.376 88.9298 275.157 88.6951 274.912C88.4605 274.656 88.2578 274.389 88.0871 274.112L89.6391 272.928C89.7671 273.152 89.9058 273.36 90.0551 273.552C90.2045 273.733 90.3751 273.893 90.5671 274.032C90.7591 274.171 90.9778 274.277 91.2231 274.352C91.4685 274.427 91.7458 274.464 92.0551 274.464C92.6738 274.464 93.1485 274.315 93.4791 274.016C93.8098 273.717 93.9751 273.307 93.9751 272.784V272.672C93.9751 272.16 93.7938 271.771 93.4311 271.504C93.0791 271.237 92.5671 271.104 91.8951 271.104H90.7911V269.344H91.8951Z" fill="#F4F4F4"/>
<path d="M190.931 178.532C190.859 178.458 189.952 178.791 189.789 178.152C189.247 176.063 189.978 169.209 190.52 166.833C191.87 160.91 193.867 155.813 194.33 149.318C194.865 141.739 192.973 133.813 194.584 126.447C195.707 121.316 199.139 119.899 203.934 119.499C205.598 114.349 203.614 113.816 202.055 110.236C200.496 106.656 202.094 103.083 203.732 99.9216C204.547 98.3445 209.402 91.324 210.576 90.7117C212.749 89.5738 214.706 89.7801 216.481 91.477C216.937 91.9162 219.71 96.4679 219.997 97.1467C222.098 102.104 222.275 106.337 221.413 111.594C220.898 114.721 218.83 116.851 220.559 120.284C221.394 121.941 225.772 123.605 227.194 125.089C230.646 128.689 229.119 137.646 229.517 142.384C230.065 148.972 233.869 154.402 235.754 160.604C236.883 159.992 236.713 158.322 237.699 157.104C238.162 156.525 240.491 154.835 241.144 154.822C247.042 157.237 240.295 164.271 240.445 166.108C240.485 166.613 242.005 167.638 242.324 168.683C243.421 172.236 238.645 174.985 236.276 176.642L236.25 181.932C235.415 182.405 234.077 182.198 233.438 182.97C231.533 185.293 230.345 193.005 228.375 195.873C232.714 196.732 234.208 192.992 238.331 191.867C242.259 190.789 247.772 191.095 250.774 194.143C251.798 195.188 252.659 197.976 252.849 198.096C253.455 198.482 256.835 198.029 258.447 198.462C263.307 199.753 265.147 205.023 265.741 209.535C265.839 210.274 265.213 211.199 265.33 211.731C265.415 212.124 268.103 213.94 268.879 214.998C271.828 219.011 271.509 223.19 269.108 227.329C268.579 228.241 266.987 228.341 267.059 230.404C267.894 232.433 269.858 233.598 270.517 235.88C271.992 241.011 269.003 247.107 264.665 249.662C269.434 243.107 273.009 236.446 264.678 230.87C269.382 226.777 272.044 220.708 267.516 215.245C266.681 214.233 264.749 213.421 264.384 212.656C263.131 210.061 265.31 207.113 262.401 203.113C258.597 197.883 254.578 200.558 252.183 199.074C251.491 198.648 251.354 197.124 250.761 196.452C250.258 195.887 249.436 195.966 249.358 195.88C249.182 195.687 248.986 195.474 248.79 195.301C248.745 195.261 249.084 194.616 248.431 194.103C244.517 190.989 237.261 192.872 233.738 195.88C233.171 196.366 233.014 197.604 232.544 197.663C231.481 197.803 228.479 196.645 226.666 197.61C228.303 194.589 230.893 183.722 233.164 181.959C233.803 181.466 235.024 181.486 235.128 181.373C235.545 180.907 234.626 178.651 234.645 177.686C234.697 174.2 242.233 173.201 241.339 169.681C235.389 165.196 245.019 161.203 241.13 155.986C238.129 157.576 238.266 159.08 237.137 161.762C236.837 162.481 237.151 163.166 236.035 162.913C235.304 162.554 229.641 149.531 229.217 147.887C227.931 142.943 228.734 138.012 228.395 133.108C227.879 125.721 225.341 125.309 219.58 121.855L218.242 117.376C219.573 113.59 221.753 107.242 220.728 103.329C220.448 102.251 219.723 101.765 219.293 101.04C219.064 100.654 217.968 99.2096 217.59 98.7238C216.592 97.4461 216.618 96.3082 214.184 95.8291V94.6712C216.265 95.1104 214.706 92.5351 213.258 92.5018C211.555 92.4619 211.463 93.6397 210.785 94.0922C210.25 94.4449 209.532 94.8442 209.082 95.2501C208.312 95.9422 207.542 96.3614 206.811 97.2731C205.585 98.8103 202.381 105.398 202.277 107.148C202.12 109.79 205.918 112.672 206.113 115.3C206.198 116.405 204.384 118.84 205.076 120.664C202.89 120.997 199.902 121.136 198.095 122.507C192.934 126.433 196.046 141.073 195.811 146.896C195.517 154.03 193.234 160.711 191.642 167.392C190.754 171.132 191.413 174.732 190.924 178.512L198.864 176.203L200.567 201.643C196.966 200.871 198.088 197.97 193.508 197.57C189.613 197.231 187.812 199.294 186.109 199.287C184.073 199.287 182.162 197.011 178.201 197.63C176.387 197.916 174.665 199.853 173.634 199.886C172.277 199.933 170.959 198.043 169.543 197.717C166.868 197.104 161.779 197.63 159.73 199.64C159.163 200.192 159.274 200.944 159.169 201.064C158.099 202.308 157.525 202.867 156.331 203.959C156.044 204.218 155.418 203.979 154.478 205.236C151.085 209.795 152.286 214.985 151.229 220.149C151.053 220.329 150.805 220.542 150.661 220.728C145.859 223.064 146.981 231.482 148.932 235.501C149.754 237.191 152.351 238.802 152.403 239.048C152.573 239.926 151.803 241.703 151.77 242.967C151.64 247.892 152.697 249.995 157.31 251.825L257.585 251.978C260.078 251.831 262.524 250.9 264.658 249.642C264.541 249.802 264.658 250.414 264.358 250.78C263.301 252.071 259.876 253.042 258.16 253.136H158.862C154.282 253.176 150.563 249.083 150.211 244.558C150.094 242.994 151.366 239.667 151.17 239.314C151.085 239.161 149.408 238.436 148.482 237.105C145.318 232.52 145.233 225.932 147.921 221.121C148.469 220.142 150.596 218.206 150.642 218.006C151.027 216.183 150.498 213.534 150.805 211.338C151.999 202.781 161.335 193.857 170.078 196.592C171.213 196.945 172.199 198.123 173.099 198.196C174.247 198.296 175.95 196.752 177.647 196.492C181.627 195.88 183.701 197.63 186.102 197.637C187.662 197.637 189.182 196.259 190.781 195.993C194.48 195.374 196.855 196.885 199.426 199.327L197.729 177.926C195.191 177.147 194.539 178.691 193.169 179.35C190.474 180.654 191.074 178.665 190.918 178.505L190.931 178.532Z" fill="#3B2F27"/>
<path d="M207.381 100.465C207.257 100.559 206.937 100.372 206.813 100.465C205.697 101.271 206.095 101.124 205.678 102.202C205.443 102.814 205.247 103.267 205.11 103.939C204.79 105.496 203.903 108.584 205.678 109.143C205.795 110.906 206.434 111.752 206.813 113.189C206.859 113.369 206.767 113.588 206.813 113.768C206.898 114.074 207.354 114.267 207.381 114.347C207.55 114.926 207.863 115.392 207.948 116.084C208.039 116.822 207.896 117.641 207.948 118.393L206.826 117.242C205.782 118.945 207.863 120.975 205.684 121.866C205.319 121.833 204.921 121.853 204.549 121.866C204.275 121.88 203.466 122.352 202.846 122.445C201.985 122.578 200.504 122.013 200.008 123.024C196.739 123.849 197.444 128.341 197.17 130.544C197.111 131.016 196.635 131.535 196.602 132.86C196.569 134.011 196.589 135.175 196.602 136.327C196.602 136.979 197.17 137.771 197.17 138.064C197.17 144.479 197.072 150.807 196.034 157.149C196.028 157.189 195.552 157.275 195.467 157.728C195.369 158.253 195.571 158.952 195.467 159.465C195.408 159.764 195.069 160.543 194.899 161.201C194.814 161.534 194.99 162.033 194.899 162.359C194.808 162.685 194.997 163.218 194.899 163.517C194.873 163.59 194.083 163.903 193.907 164.509C192.792 168.348 191.5 170.791 192.635 175.083L193.77 172.774L194.338 175.662C194.984 175.761 195.271 174.57 195.467 174.504C196.047 174.311 197.078 175.016 197.483 174.936C198.024 174.823 198.416 172.401 200.569 173.353C199.284 177.279 200.928 180.353 200.569 184.339C204.229 181.218 210.349 170.791 210.793 166.132C211.028 163.637 209.71 161.634 210.773 159.478C208.614 158.812 208.451 161.201 207.811 161.667C207.426 161.947 206.93 161.707 206.806 161.787C205.991 163.317 205.351 165.307 203.975 166.412C203.557 165.34 205.123 162.379 205.808 161.913C206.213 161.634 206.689 161.86 206.806 161.787C208.131 159.305 208.026 159.711 209.645 157.741C210.767 156.363 210.708 156.104 209.077 156.004C208.712 155.984 208.307 155.971 207.942 156.004V154.846C210.114 155.046 209.481 153.901 210.062 153.715C210.538 153.562 211.041 153.768 211.341 153.695C212 153.522 212.952 153.123 213.044 153.116C214.316 153.01 215.947 153.01 217.193 153.249C218.864 153.569 219.542 156.257 222.113 155.425C222.367 154.207 221.643 153.036 221.552 151.958C221.434 150.627 221.637 149.243 221.552 147.906C220.671 147.779 219.516 148.085 218.714 147.906L222.119 145.596C220.39 145.723 219.216 145.683 217.585 145.011C217.454 144.958 217.461 144.485 217.298 144.439H216.45C216.358 144.771 216.554 145.45 216.45 145.59C215.83 146.395 214.551 146.941 213.611 147.327C213.983 146.262 214.368 145.397 213.044 145.011C213.683 144.146 214.44 142.615 214.747 141.544C215.477 141.038 216.052 140.24 217.011 140.393L217.565 143.587C224.964 146.961 223.196 141.125 224.39 136.739C224.573 136.061 225.454 136.413 225.525 136.34V139.235L226.373 139.82L227.222 139.235C227.169 138.083 227.3 136.912 227.222 135.768C227.137 134.523 226.719 133.944 226.654 133.452C226.289 130.704 227.13 126.797 223.248 125.932C222.902 125.852 221.239 125.839 220.978 125.932C221.382 123.623 219.353 123.73 218.139 122.465C216.567 120.822 217.82 120.203 217.591 118.812C217.559 118.599 215.588 117.92 216.437 116.104C219.686 114.314 218.975 104.638 219.275 101.071C219.705 101.803 220.43 102.289 220.71 103.36C221.728 107.273 219.555 113.621 218.224 117.408L219.562 121.886C225.323 125.347 227.861 125.759 228.376 133.139C228.716 138.044 227.913 142.968 229.199 147.919C229.623 149.563 235.286 162.585 236.017 162.945C237.139 163.204 236.819 162.512 237.119 161.794C238.248 159.112 238.111 157.608 241.112 156.017C245.001 161.235 235.371 165.227 241.321 169.712C242.215 173.226 234.679 174.224 234.627 177.718C234.614 178.683 235.534 180.939 235.11 181.405C235.012 181.518 233.785 181.491 233.146 181.99C230.869 183.754 228.279 194.614 226.647 197.642C228.461 196.683 231.456 197.835 232.526 197.695C232.996 197.635 233.146 196.397 233.72 195.911C237.243 192.904 244.505 191.02 248.413 194.135C249.066 194.654 248.727 195.293 248.772 195.332C244.303 193.396 240.538 192.777 236.212 195.539C234.947 196.344 232.963 199.225 232.617 199.252C232.206 199.279 231.182 198.194 229.831 198.24C229.492 198.254 226.236 199.259 226.086 199.385C224.383 199.651 224.905 198.72 225.193 197.608C225.832 195.12 227.398 192.018 228.357 189.556C228.964 187.999 229.316 186.582 230.06 184.931C230.549 183.84 230.641 182.582 231.489 181.471C232.213 180.533 233.329 180.653 233.459 179.734L230.627 178.57C230.412 178.769 229.779 183.421 229.492 184.352C229.062 185.717 228.311 187.467 227.789 188.977C226.928 191.493 225.577 195.931 224.514 198.074C223.842 199.425 223.705 198.726 222.687 198.227C222.596 197.156 222.256 196.317 220.991 196.497C220.325 199.724 220.266 203.092 219.855 206.326C219.347 210.318 218.224 215.076 218.72 219.049C218.746 219.249 218.681 219.455 218.72 219.628C218.772 219.841 219.092 220.061 219.288 220.207C216.932 221.438 218.055 223.035 217.311 224.286C216.998 224.812 215.934 224.759 215.882 224.839H214.747L214.427 224.313L210.773 224.839L210.258 225.178L210.206 227.154C209.971 227.108 209.116 227.114 209.07 227.154V224.839C208.588 223.9 207.146 224.293 206.232 224.26C206.304 224.08 206.154 223.814 206.232 223.681C208.855 223.534 211.563 223.88 214.173 223.681C214.544 223.654 215.001 223.754 215.308 223.681C215.595 223.608 215.712 223.315 215.875 223.102C216.313 222.523 216.711 222.423 216.443 221.372C214.329 221.531 209.233 219.621 208.62 217.492C208.013 215.383 208.464 208.475 208.503 205.76C208.64 195.745 209.514 185.71 209.631 175.695C208.281 175.375 208.712 175.928 208.366 176.447C207.354 177.957 201.424 186.482 201.267 187.107C200.536 189.982 202.083 196.89 202.317 200.29C202.402 201.574 201.691 202.739 201.691 202.872C201.313 202.872 200.934 202.865 200.556 202.872C195.865 202.952 198.168 201.381 196.021 199.691C194.097 198.174 190.482 198.201 188.42 199.472C187.376 200.11 186.959 201.648 186.639 201.741C185.314 202.127 184.779 200.157 182.972 199.405C179.827 198.094 175.475 198.447 174.451 202.293C173.773 202.766 171.124 199.751 169.864 199.179C165.571 197.216 162.929 199.332 159.145 201.142C159.249 201.015 159.145 200.27 159.706 199.718C161.754 197.708 166.843 197.182 169.519 197.795C170.941 198.121 172.252 200.011 173.609 199.964C174.647 199.931 176.363 197.994 178.177 197.708C182.137 197.083 184.042 199.358 186.084 199.365C187.794 199.365 189.588 197.309 193.483 197.648C198.063 198.041 196.941 200.949 200.543 201.721L198.84 176.281L190.9 178.59C191.389 174.803 190.73 171.21 191.617 167.47C193.209 160.789 195.493 154.108 195.786 146.974C196.028 141.151 192.909 126.511 198.07 122.585C199.877 121.214 202.859 121.068 205.051 120.742C204.353 118.918 206.167 116.483 206.089 115.378C205.893 112.743 202.096 109.868 202.252 107.226C202.357 105.476 205.56 98.8883 206.787 97.3511C207.518 96.4394 208.287 96.0202 209.057 95.3281L207.354 100.532L207.381 100.465ZM223.829 145.57C223.816 145.61 223.327 145.61 223.261 146.149C223.072 147.679 225.251 152.404 225.995 154.061C226.778 155.805 229.982 162.446 230.921 163.51C231.861 164.575 234.353 163.69 233.603 161.368C231.495 154.846 226.771 148.977 226.961 141.511L224.964 140.945C225.206 142.702 224.266 144.073 223.829 145.576V145.57ZM211.354 154.82C210.473 155.665 210.799 156.111 211.354 157.135L212.202 157.721L213.05 157.135V156.556H217.024L216.985 154.866C215.386 154.36 212.705 153.522 211.347 154.82H211.354ZM225.525 169.859C225.754 167.064 224.592 163.85 223.359 161.374C222.583 159.817 220.71 156.197 218.727 156.563L221.656 160.216C222.85 162.659 223.405 165.367 224.331 167.902C224.599 168.641 224.455 169.679 225.525 169.859ZM213.05 158.872C212.594 158.992 211.876 158.772 211.347 158.872L211.915 162.918C212.763 163.291 213.416 162.359 213.611 162.339C214.884 162.18 217.552 162.971 217.585 160.922C217.631 157.581 214.916 158.367 213.044 158.866L213.05 158.872ZM222.126 185.47C222.028 182.19 224.044 178.969 224.338 175.861C224.768 171.303 221.552 162.566 218.727 158.866C219.294 162.193 218.087 165.853 218.133 168.954C218.179 171.935 219.934 181.824 220.925 184.665C221.213 185.484 220.756 185.637 222.119 185.47H222.126ZM227.235 162.339V175.349C227.235 178.729 222.544 187.793 222.674 193.263C222.7 194.447 222.309 194.953 223.822 194.72C224.175 190.235 227.515 185.018 228.142 180.846C228.363 179.362 227.391 177.052 227.881 176.287C228.011 176.081 229.433 175.881 230.053 175.329C233.166 172.541 230.021 164.775 227.241 162.333L227.235 162.339ZM217.024 164.076H213.057C210.865 178.177 210.734 192.584 210.219 206.865L215.889 206.286L215.295 191.519L217.024 164.076ZM236.31 173.326C240.545 171.449 234.875 161.035 232.317 166.092L232.905 169.273L233.537 168.229C235.325 166.931 237.478 171.649 236.31 173.326ZM218.153 206.286L220.925 189.783L217.872 178.523L216.998 200.816L218.153 206.279V206.286ZM215.889 209.759C215.954 207.437 213.422 208.043 211.922 208.036C211.948 209.087 215.725 209.913 215.889 209.759ZM214.186 211.49L211.354 209.759V212.069L214.186 211.483V211.49ZM216.456 212.075L213.624 212.94L216.456 214.384V212.075ZM215.882 215.549L209.651 213.812V216.121C211.06 216.095 212.489 216.181 213.912 216.121C214.597 216.095 216.019 216.554 215.882 215.549ZM217.024 219.588L216.13 217.339L211.354 217.865C211.713 219.269 216.554 220.041 217.017 219.588H217.024Z" fill="#1A1612"/>
<path d="M214.186 94.6833V95.8411C213.52 95.7081 212.633 95.921 211.915 95.8411C212.717 97.3185 215.804 100.133 217.585 98.7292C217.963 99.2083 219.059 100.659 219.288 101.045C218.994 104.612 219.705 114.288 216.45 116.078C215.895 116.384 212.848 118.021 212.515 118.134C211.347 118.54 210.082 117.987 209.077 118.966C207.694 120.317 209.031 122.093 209.644 123.591C210.48 124.076 211.093 124.136 211.915 125.327C211.726 125.294 211.51 125.374 211.347 125.327C211.041 125.241 210.571 125.387 210.212 125.327L209.644 124.748C209.573 124.396 209.749 123.843 209.644 123.591C208.333 122.832 207.132 121.98 205.677 121.854C207.857 120.962 205.775 118.932 206.819 117.229L207.942 118.38C207.896 117.628 208.039 116.81 207.942 116.071C209.821 117.442 211.426 117.435 213.344 116.084L217.578 109.137L215.321 109.709C216.084 101.99 212.391 104.499 207.165 103.966C206.206 104.246 206.467 105.138 206.239 105.663C205.625 107.094 205.56 107.46 205.671 109.13C203.896 108.571 204.79 105.484 205.103 103.926C207.7 101.737 211.595 103.154 214.74 102.762C214.844 101.923 213.233 101.677 212.711 101.657C210.695 101.571 207.726 101.923 205.664 102.19C206.082 101.118 205.677 101.265 206.8 100.453C208.509 101.983 211.204 100.453 213.063 100.706C215.608 101.045 216.241 103.221 217.265 103.381C218.505 103.567 219.47 102.955 218.661 101.664C218.426 101.291 211.654 99.5876 211.054 97.5979C210.01 98.8224 208.633 99.5411 207.367 100.459L209.07 95.2555C209.52 94.8496 210.238 94.4503 210.773 94.0977C211.413 95.1225 213.109 94.5901 214.179 94.6766L214.186 94.6833Z" fill="#6C4327"/>
<path d="M214.186 95.839C216.62 96.3115 216.593 97.4494 217.592 98.7338C215.811 100.138 212.724 97.323 211.922 95.8457C212.64 95.9256 213.527 95.7126 214.192 95.8457L214.186 95.839Z" fill="#CEB07B"/>
<path d="M210.786 94.1031C211.471 93.6506 211.556 92.4728 213.259 92.5127C214.707 92.546 216.266 95.1146 214.185 94.6821C213.115 94.5956 211.419 95.1279 210.779 94.1031H210.786Z" fill="#CEB07B"/>
<path d="M223.262 127.641C223.497 129.577 224.182 134.042 226.668 133.423C226.733 133.916 227.151 134.495 227.236 135.739C225.043 134.129 225.709 136.138 225.533 136.318C225.461 136.391 224.58 136.039 224.398 136.717C223.21 141.103 224.972 146.939 217.573 143.565L217.018 140.371C216.059 140.218 215.478 141.016 214.754 141.522C212.418 143.152 210.631 145.681 208.517 147.591L209.652 148.456C207.845 151.224 206.546 151.111 203.525 152.356C202.671 152.708 201.986 152.01 202.279 153.653L210.22 150.765C210.141 150.878 210.455 151.351 209.854 151.963C209.097 152.735 206.853 153.66 205.685 153.667C205.476 154.186 207.825 154.804 207.949 154.818V155.976C207.584 156.009 207.062 155.882 206.814 155.976V154.824H205.685V156.262L206.246 156.555C204.354 158.351 199.311 167.381 200.583 169.857L202.26 170.143C202.279 170.928 200.739 172.818 200.576 173.331C198.423 172.379 198.032 174.808 197.49 174.914C197.079 175.001 196.055 174.296 195.474 174.482C195.057 171.873 196.414 172.725 198.058 173.178L198.593 172.772C199.878 168.393 200.877 163.555 194.907 163.495C195.004 163.202 194.815 162.67 194.907 162.337L199.441 163.495L199.454 160.94C199.35 160.195 195.644 160.554 194.907 161.186C195.07 160.534 195.409 159.749 195.474 159.449C197.073 158.884 198.462 158.551 200.009 159.449C200.661 154.425 202.123 149.474 202.286 144.41C205.026 144.863 204.165 142.48 205.085 141.196C205.9 140.058 209.032 138.847 209.659 136.897C209.841 136.924 210.037 136.877 210.226 136.897H210.794C210.291 137.602 209.848 139.366 208.523 140.943C208.204 141.322 207.147 141.429 207.381 142.38L208.523 142.094C208.354 142.427 208.699 143.152 207.949 144.091C207.14 145.102 203.643 146.872 203.127 147.87C202.795 148.523 202.377 150.752 203.689 150.186C205.202 149.534 211.942 142.62 213.345 140.943C214.656 139.379 215.903 137.456 217.025 135.733C217.821 134.508 218.799 133.523 219.289 131.966L218.16 131.687C217.749 129.757 219.321 129.091 219.863 128.22L223.269 127.641H223.262Z" fill="#292F20"/>
<path d="M217.024 164.074L215.295 191.518L215.889 206.284L210.219 206.863C210.734 192.582 210.858 178.175 213.057 164.074H217.024Z" fill="#2D311D"/>
<path d="M201.711 202.818C201.711 202.685 202.422 201.527 202.337 200.236C202.102 196.829 200.55 189.928 201.287 187.054C201.443 186.428 207.374 177.904 208.386 176.393C208.731 175.874 208.301 175.322 209.651 175.641C209.527 185.656 208.653 195.691 208.523 205.706L203.212 206.245C202.559 206.019 201.73 203.47 201.717 202.812L201.711 202.818Z" fill="#292F20"/>
<path d="M207.947 155.975C208.306 155.942 208.717 155.955 209.083 155.975L209.65 157.712C208.032 159.688 208.137 159.276 206.812 161.758C206.695 161.831 206.218 161.605 205.814 161.884C205.129 162.35 203.563 165.311 203.98 166.383C205.357 165.278 205.996 163.282 206.812 161.758C206.936 161.678 207.432 161.918 207.817 161.638C208.463 161.172 208.626 158.783 210.779 159.449C209.715 161.605 211.033 163.608 210.799 166.103C210.355 170.762 204.235 181.189 200.575 184.31C200.933 180.324 199.283 177.25 200.575 173.324C200.744 172.811 202.277 170.921 202.258 170.136L200.581 169.85C199.315 167.381 204.359 158.344 206.244 156.547C206.414 156.388 206.766 155.988 206.812 155.969C207.06 155.875 207.582 156.002 207.947 155.969V155.975ZM203.406 167.547H202.277V169.278L203.4 168.399V167.541L203.406 167.547Z" fill="#7A5D4F"/>
<path d="M197.169 138.051L202.193 138.71C202.33 140.593 202.33 142.529 202.271 144.413C202.108 149.477 200.646 154.428 199.994 159.452C198.454 158.553 197.058 158.886 195.459 159.452C195.564 158.939 195.361 158.241 195.459 157.715L196.027 157.136C197.064 150.794 197.162 144.472 197.162 138.051H197.169Z" fill="#CEB07B"/>
<path d="M222.127 185.468C220.763 185.634 221.22 185.481 220.933 184.663C219.935 181.821 218.186 171.933 218.14 168.952C218.088 165.851 219.302 162.191 218.734 158.863C221.559 162.557 224.776 171.294 224.345 175.859C224.052 178.967 222.029 182.194 222.133 185.468H222.127Z" fill="#7A5D4F"/>
<path d="M206.244 105.67C206.472 105.144 206.212 104.252 207.171 103.973C212.397 104.505 216.09 101.99 215.326 109.716L217.584 109.143L213.349 116.091C211.431 117.448 209.826 117.448 207.947 116.077C207.862 115.385 207.556 114.919 207.379 114.34L206.812 113.761C206.766 113.582 206.857 113.362 206.812 113.183L209.082 112.025C209.128 109.755 209.245 107.786 207.379 106.242C207.092 106.002 206.583 105.889 206.244 105.663V105.67Z" fill="#EED8A6"/>
<path d="M223.262 146.148L223.829 145.569C224.267 144.065 225.213 142.694 224.965 140.938L226.961 141.503C226.772 148.97 231.502 154.832 233.603 161.36C234.354 163.683 231.881 164.594 230.922 163.503C229.962 162.412 226.779 155.797 225.996 154.054C225.213 152.31 223.073 147.672 223.262 146.141V146.148Z" fill="#B49586"/>
<path d="M216.457 116.074C215.609 117.891 217.573 118.57 217.612 118.783C217.84 120.18 216.588 120.799 218.16 122.436L216.725 128.205C216.027 132.025 212.36 134.68 210.787 136.896H210.22C210.161 134.833 208.915 131.819 207.949 129.956C210.396 129.303 210.207 132.511 210.794 134.002C216.255 131.999 211.786 128.864 211.355 125.331C211.518 125.377 211.733 125.297 211.923 125.331C212.379 125.417 214.891 127.087 214.754 125.051L209.084 118.969C210.089 117.991 211.355 118.543 212.523 118.137C212.856 118.024 215.903 116.387 216.457 116.081V116.074ZM214.2 129.377L215.322 126.489L213.058 127.074L214.2 129.383V129.377Z" fill="#583C26"/>
<path d="M218.158 122.438C219.371 123.709 221.394 123.595 220.996 125.905C219.965 126.264 220.187 127.688 219.861 128.22C219.319 129.099 217.747 129.757 218.158 131.687C217.825 131.907 217.284 132.02 217.023 132.266C216.82 132.453 216.631 132.626 216.455 132.845C216.109 133.271 215.848 133.943 215.32 134.582L214.184 135.74V136.319C213.969 136.572 207.673 142.421 211.059 140.937C212.097 140.485 214.837 137.024 215.32 135.74C215.665 135.667 216.122 135.101 216.67 135.261L217.023 135.74C215.9 137.463 214.654 139.387 213.343 140.95C211.94 142.621 205.2 149.541 203.686 150.194C202.368 150.759 202.786 148.537 203.125 147.878C203.634 146.88 207.138 145.109 207.947 144.098C208.697 143.16 208.345 142.434 208.521 142.102C208.606 141.935 210.015 141.33 209.656 140.95H208.521C209.846 139.36 210.289 137.603 210.792 136.898C212.364 134.682 216.031 132.027 216.729 128.207L218.164 122.438H218.158Z" fill="#AA6F49"/>
<path d="M194.905 163.496C200.869 163.556 199.87 168.394 198.592 172.773L198.057 173.178C196.419 172.726 195.055 171.881 195.473 174.483C195.277 174.549 194.99 175.74 194.344 175.641L193.777 172.753L192.641 175.062C191.513 170.77 192.804 168.334 193.914 164.488C194.09 163.882 194.879 163.563 194.905 163.496Z" fill="#9A7D62"/>
<path d="M204.55 128.799L204.047 134.516C206.331 135.307 207.147 136.572 209.652 136.898C209.032 138.848 205.894 140.059 205.078 141.197C204.158 142.481 205.02 144.863 202.279 144.411C202.338 142.528 202.338 140.591 202.201 138.708L197.177 138.049C197.177 137.756 196.616 136.964 196.609 136.312C198.86 135.913 200.746 137.004 202.847 137.463C203.193 137.064 202.553 132.552 202.286 131.681C202.553 131.607 202.808 131.368 202.853 131.102C203.043 129.977 202.879 129.478 203.421 128.207H203.989L204.556 128.786L204.55 128.799Z" fill="#583C26"/>
<path d="M228.368 189.524C227.416 191.993 225.843 195.087 225.204 197.576C224.917 198.688 224.395 199.619 226.098 199.353C225.093 200.191 223.827 206.46 223.26 208.031C221.948 211.651 220.337 215.517 218.725 219.017C218.229 215.044 219.352 210.286 219.86 206.294C220.976 204.723 222.849 199.985 222.699 198.195C223.716 198.694 223.853 199.393 224.526 198.042C225.596 195.899 226.94 191.461 227.801 188.945L228.368 189.524Z" fill="#583C26"/>
<path d="M218.153 206.283L216.998 200.82L217.872 178.527L220.926 189.787L218.153 206.283Z" fill="#3B2F27"/>
<path d="M221.559 151.932C221.657 153.011 222.375 154.182 222.12 155.399C219.543 156.231 218.871 153.543 217.201 153.223C215.955 152.984 214.324 152.984 213.051 153.09L211.348 153.669C211.048 153.749 210.546 153.536 210.069 153.689C209.489 153.876 210.122 155.027 207.949 154.821C207.825 154.807 205.476 154.195 205.685 153.669C206.853 153.669 209.097 152.738 209.854 151.966C210.454 151.354 210.141 150.881 210.22 150.768C211.1 151.027 211.407 150.462 211.922 150.189C212.588 149.836 212.921 149.104 213.058 149.031C216.203 147.328 219.289 149.876 221.566 151.926L221.559 151.932Z" fill="#C7B698"/>
<path d="M202.846 123.018C203.687 123.291 204.542 125.726 205.116 126.485C204.346 126.851 203.759 127.423 203.413 128.222C202.872 129.493 203.035 129.985 202.846 131.116C202.474 131.09 202.082 131.156 201.71 131.116C201.515 131.096 201.312 131.156 201.143 131.116C200.014 130.857 198.774 130.105 197.176 130.537C197.443 128.335 196.739 123.843 200.014 123.018C200.379 122.925 202.539 122.918 202.852 123.018H202.846Z" fill="#EED8A6"/>
<path d="M205.677 121.858C207.138 121.984 208.339 122.836 209.644 123.595C209.748 123.848 209.572 124.4 209.644 124.753L210.212 125.332C210.57 125.392 211.04 125.245 211.347 125.332C211.777 128.872 216.247 132.006 210.786 134.003C210.205 132.512 210.388 129.304 207.941 129.957C207.843 129.77 207.497 129.604 207.373 129.378V128.799L207.941 128.22C207.817 128.346 208.026 128.812 208.222 128.799C208.841 128.759 208.202 127.947 207.941 128.22V127.641L207.373 127.062C206.512 125.199 205.07 123.821 204.535 121.858C204.907 121.845 205.305 121.825 205.67 121.858H205.677Z" fill="#CEB07B"/>
<path d="M202.28 131.686C202.548 132.551 203.194 137.069 202.841 137.469C200.74 137.003 198.861 135.911 196.604 136.317C196.591 135.166 196.571 134.002 196.604 132.85C197.791 132.398 198.803 132.245 200.01 131.693C200.395 131.513 200.851 131.486 201.145 131.114C201.315 131.154 201.517 131.094 201.713 131.114C201.83 131.333 202.234 131.539 202.28 131.693V131.686Z" fill="#C48D66"/>
<path d="M210.22 227.108C211.309 227.321 212.614 228.173 214.187 227.687C214.187 227.747 214.187 228.598 214.187 228.845H210.213C210.689 231.553 209.398 233.782 209.084 236.364H207.949C207.812 233.856 209.672 232.032 209.078 229.424L205.679 230.003C205.783 229.484 205.574 228.785 205.679 228.266C206.612 228.139 207.864 228.505 208.706 228.279C209.339 228.106 209.026 227.168 209.084 227.115C209.124 227.075 209.985 227.068 210.22 227.115V227.108Z" fill="#3B2F27"/>
<path d="M236.311 173.324C237.479 171.654 235.333 166.936 233.538 168.227L232.906 169.272L232.318 166.091C234.876 161.033 240.539 171.448 236.311 173.324Z" fill="#7A5D4F"/>
<path d="M217.025 145.57C217.292 145.69 217.416 145.943 217.592 146.149C217.56 146.722 217.801 146.948 218.16 147.307C218.323 147.474 218.434 147.82 218.728 147.886C219.537 148.059 220.685 147.76 221.566 147.886C221.651 149.224 221.442 150.608 221.566 151.939C219.289 149.896 216.203 147.34 213.058 149.044C212.595 148.798 212.66 148.146 212.49 147.886C212.875 147.713 213.234 147.467 213.626 147.307C214.559 146.921 215.844 146.376 216.464 145.57H217.031H217.025Z" fill="#583C26"/>
<path d="M207.382 100.467C208.648 99.5552 210.025 98.8366 211.068 97.6055C211.675 99.6018 218.448 101.299 218.676 101.671C219.485 102.962 218.519 103.581 217.28 103.388C216.255 103.235 215.623 101.053 213.078 100.713C211.212 100.467 208.524 101.991 206.814 100.46C206.938 100.367 207.258 100.553 207.382 100.46V100.467Z" fill="#BC8C39"/>
<path d="M226.667 133.426C224.181 134.045 223.496 129.58 223.261 127.643C223.196 127.077 223.307 126.479 223.261 125.906C227.143 126.771 226.302 130.671 226.667 133.426Z" fill="#B49586"/>
<path d="M213.618 162.338L213.051 158.871C214.923 158.365 217.638 157.587 217.592 160.927C217.566 162.977 214.891 162.185 213.618 162.345V162.338Z" fill="#2D311D"/>
<path d="M225.527 169.858C224.457 169.678 224.601 168.64 224.333 167.901C223.407 165.366 222.859 162.657 221.658 160.215L218.729 156.562C220.712 156.189 222.585 159.809 223.361 161.373C224.594 163.855 225.755 167.063 225.527 169.858Z" fill="#6C4327"/>
<path d="M222.694 198.191C222.844 199.974 220.971 204.712 219.855 206.289C220.267 203.055 220.325 199.688 220.991 196.46C222.263 196.287 222.596 197.119 222.687 198.191H222.694Z" fill="#94B960"/>
<path d="M214.753 224.793C215.204 226.077 214.244 227.122 214.186 227.688C212.613 228.173 211.302 227.322 210.219 227.109L210.271 225.132L210.786 224.793C211.458 224.573 213.762 224.793 214.753 224.793Z" fill="#B49586"/>
<path d="M207.382 106.248C207.48 107.865 206.951 112.237 209.085 112.031L206.814 113.189C206.442 111.751 205.797 110.906 205.679 109.143C205.568 107.473 205.633 107.107 206.247 105.676C206.58 105.902 207.095 106.015 207.382 106.255V106.248Z" fill="#D5A547"/>
<path d="M209.084 224.793V227.109C209.025 227.162 209.338 228.1 208.705 228.273C207.87 228.506 206.611 228.134 205.678 228.26C205.919 227.062 205.86 226.27 206.245 224.793H209.084Z" fill="#845331"/>
<path d="M207.381 127.063C207.479 127.283 207.772 127.462 207.949 127.642V128.221L207.381 128.8H206.813C206.109 127.602 205.932 127.569 205.11 126.484C204.536 125.726 203.682 123.283 202.84 123.017V122.438C203.453 122.345 204.269 121.873 204.543 121.859C205.078 123.822 206.52 125.2 207.381 127.063Z" fill="#6C4327"/>
<path d="M211.352 154.819C212.702 153.521 215.384 154.36 216.989 154.865L217.028 156.549H213.054C212.395 155.704 212.702 154.446 211.352 154.819Z" fill="#292F20"/>
<path d="M215.884 215.549C216.021 216.554 214.599 216.095 213.914 216.122C212.498 216.182 211.062 216.088 209.646 216.122V213.812L215.884 215.549Z" fill="#6C4327"/>
<path d="M213.051 144.992C212.783 145.351 211.929 146.01 211.348 146.728C211.185 146.935 210.956 147.101 210.78 147.307C210.702 147.401 210.01 147.181 209.645 147.886C209.567 148.039 209.73 148.332 209.645 148.465L208.51 147.6C210.624 145.684 212.411 143.162 214.747 141.531C214.441 142.609 213.69 144.14 213.044 144.998L213.051 144.992Z" fill="#6C4327"/>
<path d="M194.907 161.183C195.644 160.551 199.35 160.192 199.454 160.937L199.441 163.492L194.907 162.334C194.998 162.008 194.822 161.509 194.907 161.176V161.183Z" fill="#AA6F49"/>
<path d="M205.676 102.194C207.738 101.928 210.707 101.575 212.723 101.662C213.245 101.682 214.856 101.928 214.752 102.766C211.607 103.152 207.712 101.742 205.115 103.931C205.252 103.259 205.448 102.806 205.683 102.194H205.676Z" fill="#AA6F49"/>
<path d="M229.5 184.31C229.794 183.378 230.426 178.727 230.635 178.527L233.467 179.692C233.336 180.61 232.221 180.49 231.497 181.429C230.648 182.54 230.557 183.798 230.068 184.889L229.5 184.31Z" fill="#B49586"/>
<path d="M217.025 219.589C216.555 220.042 211.72 219.27 211.361 217.866L216.137 217.34L217.031 219.589H217.025Z" fill="#8B6873"/>
<path d="M201.143 131.117C200.849 131.489 200.392 131.516 200.007 131.696C200.138 131.569 199.962 131.223 199.72 131.123C198.174 130.511 199.068 132.594 200.007 131.696C198.807 132.248 197.796 132.401 196.602 132.853C196.634 131.529 197.11 131.01 197.169 130.538C198.774 130.105 200.014 130.857 201.136 131.117H201.143Z" fill="#6C4327"/>
<path d="M227.234 135.741C227.312 136.885 227.182 138.063 227.234 139.208H225.531V136.313C225.707 136.134 225.042 134.124 227.234 135.734V135.741Z" fill="#845331"/>
<path d="M223.261 125.905C223.307 126.477 223.196 127.076 223.261 127.642L219.855 128.221C220.182 127.695 219.96 126.264 220.991 125.905C221.252 125.812 222.909 125.825 223.261 125.905Z" fill="#583C26"/>
<path d="M217.59 144.992C219.221 145.664 220.395 145.704 222.124 145.578L218.719 147.887C218.425 147.82 218.314 147.474 218.151 147.308C218.203 146.716 217.896 146.516 217.583 146.15C217.407 145.944 217.283 145.691 217.016 145.571L217.583 144.992H217.59Z" fill="#845331"/>
<path d="M213.048 158.871L213.616 162.338C213.42 162.364 212.767 163.289 211.919 162.917L211.352 158.871C211.88 158.771 212.598 158.99 213.054 158.871H213.048Z" fill="#8B6873"/>
<path d="M213.618 147.308C213.227 147.468 212.868 147.714 212.483 147.887C212.209 147.468 211.687 147.122 211.348 146.729C211.928 146.01 212.783 145.358 213.051 144.992C214.369 145.378 213.99 146.243 213.618 147.308Z" fill="#3B2F27"/>
<path d="M216.459 212.074V214.383L213.627 212.939L216.459 212.074Z" fill="#8B6873"/>
<path d="M214.185 223.64C211.575 223.84 208.867 223.494 206.244 223.64L207.066 223.055L214.185 223.64Z" fill="#3B2F27"/>
<path d="M215.889 209.005C215.726 209.092 211.948 208.613 211.922 208.001C213.416 208.001 215.954 207.655 215.889 209.005Z" fill="#8B6873"/>
<path d="M214.183 211.488L211.352 212.067L211.358 209.758L214.183 211.488Z" fill="#583C26"/>
<path d="M211.354 154.819C212.704 154.453 212.398 155.711 213.057 156.556V157.135H211.354C210.799 156.11 210.473 155.671 211.354 154.819Z" fill="#8B6873"/>
<path d="M230.065 184.891C229.328 186.542 228.969 187.959 228.363 189.516L227.795 188.937C228.317 187.42 229.067 185.677 229.498 184.312L230.065 184.891Z" fill="#8B6873"/>
<path d="M214.754 224.791C213.756 224.791 211.453 224.572 210.787 224.791L214.441 224.266L214.761 224.791H214.754Z" fill="#3B2F27"/>
<path d="M202.846 122.438V123.017C202.539 122.918 200.38 122.924 200.008 123.017C200.497 122.006 201.978 122.571 202.846 122.438Z" fill="#EED8A6"/>
<path d="M209.084 224.793H206.246C206.298 224.6 206.187 224.367 206.246 224.214C207.153 224.247 208.595 223.855 209.084 224.793Z" fill="#3B2F27"/>
<path d="M209.082 155.977C210.713 156.07 210.772 156.336 209.65 157.713L209.082 155.977Z" fill="#3B2F27"/>
<path d="M213.048 157.133L212.2 157.718L211.352 157.133H213.048Z" fill="#322115"/>
<path d="M217.59 144.989L217.022 145.568H216.455C216.559 145.428 216.363 144.75 216.455 144.41H217.303C217.46 144.463 217.46 144.936 217.59 144.989Z" fill="#3B2F27"/>
<path d="M227.234 139.207L226.379 139.793L225.531 139.207H227.234Z" fill="#3B2F27"/>
<path d="M213.051 153.09C212.959 153.096 212.013 153.496 211.348 153.669L213.051 153.09Z" fill="#3B2F27"/>
<path d="M223.262 146.149C223.327 145.61 223.816 145.61 223.829 145.57L223.262 146.149Z" fill="#583C26"/>
<path d="M207.382 114.341C207.356 114.261 206.899 114.074 206.814 113.762L207.382 114.341Z" fill="#D5A547"/>
<path d="M215.32 223.641L215.888 223.062C215.725 223.275 215.607 223.568 215.32 223.641Z" fill="#3B2F27"/>
<path d="M195.475 157.712C195.559 157.266 196.036 157.173 196.042 157.133L195.475 157.712Z" fill="#583C26"/>
<path d="M209.083 118.973L214.753 125.055C214.89 127.091 212.378 125.421 211.922 125.334C211.1 124.15 210.493 124.083 209.651 123.598C209.038 122.094 207.7 120.324 209.083 118.973Z" fill="#AA6F49"/>
<path d="M214.184 228.844C214.204 232.703 215.176 233.289 216.455 236.363H209.082C209.402 233.781 210.687 231.552 210.211 228.844H214.184Z" fill="#BF9EAB"/>
<path d="M205.68 230.001L209.079 229.422C209.673 232.024 207.813 233.854 207.95 236.363H201.713C202.933 235.012 205.341 231.691 205.68 230.001Z" fill="#B49586"/>
<path d="M207.947 236.355H216.455C216.475 236.409 217.264 236.602 217.023 236.914L215.887 237.513C210.792 237.513 205.67 237.513 200.574 237.513C200.718 236.861 201.409 236.682 201.709 236.355H207.947Z" fill="#1A1612"/>
<path d="M205.108 126.484C205.924 127.562 206.107 127.602 206.811 128.8C206.948 129.04 207.275 129.199 207.379 129.379C207.503 129.605 207.849 129.772 207.947 129.958C208.912 131.821 210.152 134.836 210.217 136.899C210.028 136.879 209.839 136.925 209.65 136.899C207.144 136.573 206.322 135.308 204.045 134.516L204.547 128.8L203.98 128.221H203.412C203.751 127.423 204.345 126.85 205.115 126.484H205.108Z" fill="#D5A547"/>
<path d="M212.489 147.887C212.652 148.14 212.587 148.798 213.057 149.045C212.92 149.118 212.587 149.843 211.921 150.203C211.98 149.63 211.171 149.497 210.786 149.624L210.218 150.203C210.14 150.369 210.303 150.655 210.218 150.781L202.278 153.67C201.984 152.026 202.67 152.725 203.524 152.372C206.545 151.128 207.844 151.241 209.651 148.472C209.736 148.339 209.573 148.046 209.651 147.893C210.023 148.06 210.336 148.519 210.786 148.472C211.041 148.446 211.236 148.512 211.341 148.186L210.786 147.9V147.321C210.962 147.115 211.191 146.948 211.354 146.742C211.693 147.135 212.215 147.474 212.489 147.9V147.887Z" fill="#845331"/>
<path d="M214.188 136.321V135.742H214.755C214.572 135.948 214.364 136.121 214.188 136.321Z" fill="#583C26"/>
<path d="M218.16 131.686L219.288 131.966C218.799 133.523 217.827 134.508 217.024 135.732L216.672 135.253C216.124 135.093 215.667 135.659 215.322 135.732C215.139 135.772 214.937 135.706 214.754 135.732C214.995 135.466 215.08 134.861 215.322 134.574C215.85 133.936 216.111 133.263 216.457 132.838L217.024 132.259C217.285 132.019 217.827 131.899 218.16 131.68V131.686Z" fill="#583C26"/>
<path d="M208.517 140.945H209.652C210.011 141.331 208.608 141.93 208.517 142.103L207.375 142.389C207.134 141.431 208.197 141.331 208.517 140.952V140.945Z" fill="#583C26"/>
<path d="M206.245 156.554L205.684 156.262V154.824H206.812V155.975C206.773 155.989 206.414 156.395 206.251 156.554H206.245Z" fill="#1A1612"/>
<path d="M203.408 167.551V168.403L202.286 169.281L202.279 167.551H203.408Z" fill="#1A1612"/>
<path d="M209.084 112.029C206.95 112.235 207.479 107.863 207.381 106.246C209.247 107.79 209.129 109.76 209.084 112.029Z" fill="#6C4327"/>
<path d="M214.198 129.379L213.057 127.07L215.314 126.484L214.198 129.379Z" fill="#AA6F49"/>
<path d="M214.755 135.74H214.188L215.323 134.582C215.081 134.868 214.997 135.467 214.755 135.74Z" fill="#3B2F27"/>
<path d="M215.321 135.741C214.839 137.032 212.098 140.486 211.061 140.938C207.675 142.422 213.971 136.573 214.186 136.32C214.356 136.12 214.571 135.947 214.754 135.741C214.936 135.714 215.139 135.781 215.321 135.741Z" fill="#3B2F27"/>
<path d="M216.455 132.845C216.631 132.625 216.82 132.452 217.023 132.266L216.455 132.845Z" fill="#3B2F27"/>
<path d="M202.848 131.116C202.802 131.382 202.548 131.622 202.281 131.695C202.235 131.542 201.83 131.342 201.713 131.116C202.085 131.156 202.47 131.089 202.848 131.116Z" fill="#6C4327"/>
<path d="M211.92 150.194C211.405 150.467 211.098 151.032 210.217 150.773C210.302 150.653 210.139 150.36 210.217 150.194C210.237 150.154 210.746 149.628 210.785 149.615C211.17 149.489 211.979 149.615 211.92 150.194Z" fill="#1A1612"/>
<path d="M207.948 127.641C207.772 127.462 207.479 127.282 207.381 127.062L207.948 127.641Z" fill="#583C26"/>
<path d="M207.946 128.22C208.214 127.948 208.846 128.753 208.227 128.799C208.031 128.813 207.816 128.353 207.946 128.22Z" fill="#583C26"/>
<path d="M207.382 129.38C207.278 129.2 206.951 129.04 206.814 128.801H207.382V129.38Z" fill="#583C26"/>
<path d="M218.16 147.306C217.802 146.947 217.56 146.721 217.593 146.148C217.906 146.514 218.213 146.707 218.16 147.306Z" fill="#1A1612"/>
<path d="M210.788 147.305V148.463C210.337 148.509 210.024 148.05 209.652 147.884C210.018 147.178 210.709 147.398 210.788 147.305Z" fill="#3B2F27"/>
<path d="M200.008 131.687C199.068 132.585 198.174 130.502 199.721 131.115C199.969 131.214 200.138 131.567 200.008 131.687Z" fill="#583C26"/>
<path d="M210.787 148.466V147.887L211.342 148.173C211.237 148.499 211.042 148.432 210.787 148.459V148.466Z" fill="#1A1612"/>
<path d="M210.219 150.192L210.786 149.613C210.747 149.627 210.238 150.152 210.219 150.192Z" fill="#3B2F27"/>
<path d="M159.166 201.092C162.95 199.288 165.586 197.165 169.886 199.129C171.145 199.701 173.787 202.715 174.472 202.243C175.497 198.397 179.849 198.044 182.993 199.355C179.059 205.217 173.122 209.117 168.522 214.387H167.68C169.801 212.032 169.207 207.646 165.703 207.4C159.655 206.981 160.51 216.417 167.113 215.259L148.968 232.9C147.826 229.147 148.276 223.89 150.671 220.756C150.808 220.569 151.056 220.363 151.239 220.177C151.676 219.731 153.157 219.671 153.45 218.64C151.858 213.083 153.816 208.691 156.347 203.98C157.541 202.888 158.115 202.329 159.185 201.085L159.166 201.092Z" fill="#EFE7DE"/>
<path d="M264.663 249.661C262.536 250.912 260.089 251.85 257.591 251.997L157.315 251.844C152.702 250.014 151.645 247.911 151.775 242.986C151.808 241.729 152.578 239.952 152.408 239.067C152.363 238.821 149.759 237.21 148.937 235.52C146.98 231.507 145.864 223.083 150.666 220.747C148.272 223.881 147.822 229.138 148.963 232.891C149.727 235.407 151.769 238.175 154.633 238.102C152.16 242.015 151.26 247.578 156.336 249.661C156.512 249.734 156.721 250.207 156.904 250.24H258.993C267.116 249.388 273.478 233.996 262.399 231.727C261.936 231.081 265.113 227.974 265.798 227.109C266.425 226.323 267.09 226.37 267.788 224.8C269.263 221.486 268.663 218.118 266.105 215.523C265.153 214.558 263.149 213.866 263.058 213.72C261.597 211.364 265.387 207.059 259.567 202.241C258.817 201.622 259.215 201.569 257.865 201.083C256.129 200.464 253.748 199.818 252.195 201.083C251.666 200.996 251.105 201.109 250.766 200.53L249.357 195.879C249.435 195.965 250.257 195.879 250.759 196.451C251.353 197.123 251.49 198.641 252.182 199.073C254.57 200.557 258.595 197.889 262.399 203.112C265.309 207.112 263.13 210.06 264.383 212.655C264.748 213.42 266.679 214.232 267.514 215.244C272.042 220.707 269.38 226.776 264.676 230.868C273.015 236.452 269.433 243.106 264.663 249.661Z" fill="#1A1612"/>
<path d="M156.335 203.98C153.804 208.692 151.846 213.084 153.438 218.64C153.151 219.672 151.67 219.725 151.227 220.178C152.284 215.014 151.083 209.823 154.476 205.265C155.415 204.007 156.048 204.247 156.329 203.987L156.335 203.98Z" fill="#1A1612"/>
<path d="M248.783 195.308C248.979 195.481 249.175 195.694 249.351 195.887L250.76 200.539C251.093 201.118 251.66 201.004 252.189 201.091C253.885 201.364 256.078 200.898 257.859 201.091C259.209 201.577 258.811 201.63 259.562 202.249C259.894 203.846 258.792 203.367 257.78 203.586C255.399 204.099 250.388 205.47 248.359 205.583C246.774 205.669 245.214 204.784 243.407 205.144C242.206 205.383 241.874 206.488 240.536 206.847C238.474 207.406 233.842 207.792 231.487 208.025C229.131 208.258 225.575 208.577 223.266 208.025C223.833 206.461 225.099 200.186 226.104 199.347C226.254 199.221 229.51 198.216 229.849 198.203C231.199 198.156 232.224 199.248 232.635 199.214C232.981 199.188 234.964 196.306 236.23 195.501C240.556 192.739 244.32 193.358 248.79 195.295L248.783 195.308Z" fill="#94B960"/>
<path d="M200.573 202.822C201.376 206.109 201.402 209.829 201.709 213.23C191.68 215.785 182.155 221.774 173.731 227.783C172.12 228.934 168.479 232.714 167.089 233.18C165.7 233.646 164.884 232.262 162.835 233.44C159.651 235.27 161.654 237.512 161.204 239.276C160.565 241.778 155.828 245.957 156.343 249.663C151.267 247.58 152.168 242.017 154.641 238.104C151.776 238.178 149.734 235.409 148.971 232.894L167.115 215.253C160.513 216.411 159.658 206.974 165.706 207.394C169.21 207.64 169.804 212.025 167.683 214.381H168.525C173.125 209.111 179.062 205.211 182.996 199.348C184.804 200.1 185.339 202.07 186.663 201.684C186.983 201.591 187.4 200.054 188.444 199.415C190.506 198.151 194.121 198.117 196.045 199.635C198.192 201.325 195.889 202.902 200.58 202.815L200.573 202.822ZM163.781 209.264C162.366 210.175 163.312 214.667 165.954 213.549C169.699 211.959 166.261 207.673 163.781 209.264Z" fill="#94B960"/>
<path d="M259.56 202.242C265.386 207.053 261.589 211.366 263.05 213.721C263.142 213.874 265.151 214.566 266.097 215.525C268.655 218.12 269.262 221.48 267.781 224.801C267.083 226.372 266.417 226.325 265.791 227.11C259.756 221.74 254.386 218.486 246.217 217.867C241.591 217.514 236.815 217.88 232.333 219.018C232.444 220.828 234.466 221.394 234.59 223.39C234.917 228.474 226.285 228.587 227.211 222.492C222.161 221.6 220.152 226.777 215.878 227.689C215.982 226.984 215.702 225.061 215.878 224.794C215.93 224.721 216.994 224.774 217.307 224.242C218.044 222.991 216.928 221.401 219.284 220.163L218.716 219.584C218.677 219.411 218.742 219.205 218.716 219.005C220.334 215.505 221.939 211.638 223.251 208.018C225.56 208.571 229.09 208.251 231.472 208.018C233.853 207.785 238.466 207.393 240.521 206.84C241.865 206.481 242.198 205.37 243.392 205.137C245.206 204.778 246.759 205.663 248.344 205.576C250.373 205.463 255.384 204.092 257.766 203.58C258.77 203.36 259.88 203.839 259.547 202.242H259.56ZM244.084 206.375C242.276 206.887 241.8 209.482 243.829 210.494C247.698 212.424 248.201 205.21 244.084 206.375ZM229.86 221.401C227.818 222.099 229.051 226.305 231.406 225.866C233.592 225.46 233.847 220.03 229.86 221.401Z" fill="#7EA750"/>
<path d="M201.708 202.822C201.721 203.481 202.55 206.03 203.202 206.256L208.513 205.717C208.474 208.432 208.024 215.346 208.631 217.449C209.244 219.585 214.34 221.495 216.454 221.328C216.715 222.38 216.323 222.48 215.886 223.059L215.319 223.637C215.012 223.711 214.555 223.611 214.183 223.637L207.065 223.052L206.243 223.637C206.165 223.771 206.315 224.037 206.243 224.216C206.184 224.369 206.295 224.602 206.243 224.795C205.858 226.279 205.917 227.071 205.675 228.262C205.571 228.781 205.78 229.48 205.675 229.999C205.336 231.689 202.928 235.01 201.708 236.361C201.415 236.687 200.717 236.867 200.573 237.519C196.704 237.519 192.815 237.459 188.94 237.506C187.981 237.519 186.415 237.133 185.828 238.091L186.669 239.249H233.763L234.605 238.091C234.018 237.133 232.452 237.512 231.493 237.506C226.293 237.452 221.08 237.519 215.886 237.519L217.021 236.92C217.263 236.607 216.473 236.414 216.454 236.361C215.175 233.287 214.203 232.708 214.183 228.841C214.183 228.595 214.183 227.743 214.183 227.683C214.242 227.118 215.201 226.073 214.751 224.789H215.886C215.71 225.048 215.991 226.971 215.886 227.683C215.195 232.355 215.912 232.175 217.589 236.361H235.453C237.672 236.361 235.264 241.505 235.14 242.403C234.814 244.766 235.434 247.787 235.166 250.242C242.8 249.657 251.497 251.028 258.987 250.242H156.904C159.912 250.781 165.425 250.202 168.812 250.242C174.096 250.302 179.407 250.196 184.692 250.242L184.125 236.361H199.725C199.966 236.361 202.831 233.313 203.105 232.867C203.764 231.783 204.847 226.865 204.579 225.774C204.52 225.541 202.609 224.363 202.276 221.901C201.943 219.425 201.956 216.011 201.708 213.223C201.402 209.823 201.376 206.103 200.573 202.815C200.951 202.809 201.33 202.815 201.708 202.815V202.822ZM196.039 240.993C192.646 241.012 189.227 240.979 185.828 240.993V250.242C193.761 250.242 201.715 250.242 209.649 250.242C217.583 250.242 225.536 250.242 233.47 250.242V240.993C221.001 241.052 208.507 240.913 196.039 240.993Z" fill="#3E3C30"/>
<path d="M219.292 220.169C219.097 220.022 218.777 219.803 218.725 219.59L219.292 220.169Z" fill="#583C26"/>
<path d="M265.799 227.109C265.114 227.974 261.936 231.082 262.399 231.728C273.485 233.997 267.117 249.389 258.994 250.24C251.497 251.026 242.8 249.655 235.173 250.24C235.44 247.785 234.82 244.757 235.146 242.401C235.27 241.51 237.678 236.359 235.46 236.359H217.595C215.919 232.18 215.201 232.353 215.892 227.682C220.166 226.77 222.169 221.593 227.226 222.484C226.299 228.58 234.931 228.467 234.605 223.383C234.474 221.386 232.452 220.821 232.347 219.011C236.83 217.873 241.599 217.507 246.232 217.86C254.4 218.478 259.777 221.732 265.805 227.103L265.799 227.109ZM248.626 233.571C244.189 234.888 246.212 241.523 250.075 240.897C255.183 240.079 253.741 232.047 248.626 233.571Z" fill="#5F9645"/>
<path d="M201.707 213.23C201.955 216.019 201.942 219.432 202.274 221.908C198.738 223.006 194.712 223.698 191.483 225.648C190.165 226.446 188.742 228.256 188.09 228.549C183.725 230.499 182.329 230.426 178.186 234.066C173.664 238.045 168.699 243.795 168.81 250.243C165.417 250.203 159.91 250.782 156.903 250.243C156.727 250.21 156.511 249.737 156.335 249.664C155.826 245.957 160.563 241.778 161.196 239.276C161.646 237.513 159.643 235.277 162.827 233.44C164.876 232.262 165.711 233.633 167.081 233.181C168.451 232.728 172.111 228.935 173.723 227.784C182.153 221.768 191.672 215.779 201.7 213.23H201.707ZM186.178 222.52C183.993 223.745 184.058 227.039 186.609 227.651C188.795 226.426 188.729 223.132 186.178 222.52ZM163.499 234.698C161.548 235.37 162.612 239.802 165.013 239.19C167.414 238.578 167.388 233.354 163.499 234.698Z" fill="#7EA750"/>
<path d="M257.857 201.089C256.076 200.896 253.884 201.362 252.188 201.089C253.74 199.825 256.128 200.47 257.857 201.089Z" fill="#7EA750"/>
<path d="M163.782 209.262C166.261 207.672 169.699 211.957 165.954 213.548C163.312 214.666 162.359 210.174 163.782 209.262Z" fill="#EFE7DE"/>
<path d="M244.084 206.374C248.201 205.21 247.699 212.423 243.83 210.493C241.807 209.482 242.277 206.887 244.084 206.374Z" fill="#BED695"/>
<path d="M229.861 221.401C233.848 220.03 233.593 225.46 231.407 225.866C229.052 226.305 227.819 222.1 229.861 221.401Z" fill="#BED695"/>
<path d="M202.277 221.906C202.61 224.368 204.521 225.546 204.58 225.779C204.848 226.871 203.765 231.782 203.106 232.873C202.832 233.319 199.967 236.367 199.726 236.367H184.126L184.693 250.248C179.408 250.195 174.097 250.308 168.813 250.248C168.695 243.8 173.66 238.05 178.188 234.071C182.331 230.431 183.728 230.504 188.093 228.554C188.745 228.261 190.167 226.451 191.485 225.653C194.715 223.703 198.741 223.011 202.277 221.913V221.906Z" fill="#5F9645"/>
<path d="M196.039 240.99C208.507 240.91 221.001 241.05 233.47 240.99V250.24C225.536 250.24 217.583 250.24 209.649 250.24C205.988 247.319 201.428 245.835 197.663 243.093C196.861 242.507 195.973 242.268 196.039 240.99Z" fill="#AA6F49"/>
<path d="M196.039 240.992C195.974 242.269 196.861 242.509 197.664 243.094C201.428 245.843 205.989 247.32 209.649 250.241C201.715 250.241 193.762 250.241 185.828 250.241V240.992C189.221 240.978 192.64 241.011 196.039 240.992Z" fill="#B49586"/>
<path d="M234.606 238.098L233.764 239.256H186.67L185.828 238.098H234.606Z" fill="#CEB07B"/>
<path d="M200.574 237.519C205.669 237.519 210.791 237.519 215.887 237.519C221.08 237.519 226.293 237.453 231.493 237.506C232.453 237.519 234.018 237.14 234.606 238.092H185.828C186.415 237.133 187.981 237.513 188.94 237.506C192.816 237.459 196.705 237.519 200.574 237.519Z" fill="#D4BC80"/>
<path d="M248.626 233.571C253.741 232.047 255.183 240.079 250.074 240.897C246.211 241.516 244.182 234.888 248.626 233.571ZM249.63 234.835C246.799 234.835 247.21 239.267 249.63 239.267C252.051 239.267 252.462 234.835 249.63 234.835Z" fill="#7EA750"/>
<path d="M163.501 234.698C167.39 233.361 167.35 238.598 165.015 239.19C162.679 239.782 161.55 235.364 163.501 234.698Z" fill="#BED695"/>
<path d="M186.179 222.52C188.73 223.132 188.788 226.426 186.609 227.65C184.058 227.038 183.999 223.744 186.179 222.52Z" fill="#BED695"/>
<path d="M249.629 234.836C252.461 234.836 252.049 239.268 249.629 239.268C247.208 239.268 246.797 234.836 249.629 234.836Z" fill="#BED695"/>
</g>
</g>
<defs>
<linearGradient id="paint0_linear_251_103615" x1="254.5" y1="-255" x2="259.326" y2="266.488" gradientUnits="userSpaceOnUse">
<stop offset="0.332725" stop-color="#FAC768"/>
<stop offset="1" stop-color="#F58A39"/>
</linearGradient>
<clipPath id="clip0_251_103615">
<rect width="411" height="620" fill="white"/>
</clipPath>
<clipPath id="clip1_251_103615">
<rect width="411" height="620" fill="white"/>
</clipPath>
</defs>
</svg>
