<svg width="411" height="620" viewBox="0 0 411 620" fill="none" xmlns="http://www.w3.org/2000/svg">
<g clip-path="url(#clip0_251_102600)">
<g clip-path="url(#clip1_251_102600)">
<path d="M324.795 103C306.652 188.047 305.998 172.303 304.271 192.615C303.495 205.995 306.885 233.455 321.306 243.49C335.727 253.525 304.443 309.345 286.998 336" stroke="#D9D9D9" stroke-width="4" stroke-linecap="round"/>
<path d="M315.416 188.348C350.941 192.953 361.616 192.46 362.514 191.637" stroke="#D9D9D9" stroke-width="3"/>
<path d="M313.398 214.254C350.269 215.57 372.495 214.802 378.999 214.254" stroke="#D9D9D9" stroke-width="3"/>
<path d="M249.816 242.628C329.209 240.325 355.562 237.831 358.814 236.871" stroke="#D9D9D9" stroke-width="3" stroke-linecap="round"/>
<path d="M278.22 169.194C278.316 168.371 277.727 167.626 276.904 167.53C276.081 167.434 275.336 168.023 275.24 168.845L276.73 169.02L278.22 169.194ZM273.029 243.038L274.528 243.109C275.873 214.654 276.77 196.391 277.345 185.123C277.632 179.489 277.839 175.605 277.98 173.07C278.051 171.803 278.106 170.875 278.146 170.235C278.166 169.915 278.183 169.67 278.195 169.492C278.202 169.403 278.207 169.333 278.212 169.28C278.214 169.254 278.216 169.233 278.217 169.218C278.218 169.21 278.219 169.204 278.219 169.2C278.219 169.195 278.22 169.193 278.22 169.194L276.73 169.02L275.24 168.845C275.12 169.873 274.22 186.11 271.531 242.967L273.029 243.038Z" fill="#D9D9D9"/>
<path d="M291.378 200.114C292.2 200.013 292.785 199.265 292.685 198.443C292.584 197.621 291.836 197.036 291.014 197.136L291.196 198.625L291.378 200.114ZM275.721 198.625L275.67 200.124C285.352 200.453 290.126 200.267 291.378 200.114L291.196 198.625L291.014 197.136C290.023 197.257 285.466 197.455 275.772 197.126L275.721 198.625Z" fill="#D9D9D9"/>
<path d="M249.816 242.626C241.742 162.439 262.936 143.523 266.973 134.888C271.01 126.252 280.093 109.393 283.457 95" stroke="#D9D9D9" stroke-width="3"/>
<path d="M253.543 696.531C264.04 585.01 265.318 573.304 264.645 581.391C265.094 563.846 263.905 525.466 255.562 512.307C247.219 499.148 265.318 425.952 275.41 390.999" stroke="#D9D9D9" stroke-width="4"/>
<path d="M323.18 595.372C243.787 597.675 217.435 600.169 214.183 601.129" stroke="#D9D9D9" stroke-width="3" stroke-linecap="round"/>
<path d="M294.776 668.806C294.68 669.629 295.269 670.374 296.092 670.47C296.915 670.566 297.66 669.977 297.756 669.155L296.266 668.98L294.776 668.806ZM299.967 594.962L298.468 594.891C297.123 623.346 296.226 641.609 295.651 652.877C295.364 658.511 295.157 662.395 295.016 664.93C294.945 666.197 294.89 667.125 294.85 667.765C294.83 668.085 294.814 668.33 294.801 668.508C294.794 668.597 294.789 668.667 294.784 668.72C294.782 668.746 294.78 668.767 294.779 668.782C294.778 668.79 294.778 668.796 294.777 668.8C294.777 668.805 294.776 668.807 294.776 668.806L296.266 668.98L297.756 669.155C297.876 668.127 298.776 651.89 301.465 595.033L299.967 594.962Z" fill="#D9D9D9"/>
<path d="M323.18 595.374C331.254 675.561 310.06 694.477 306.023 703.112C301.986 711.748 292.903 728.607 289.539 743" stroke="#D9D9D9" stroke-width="3"/>
<path d="M74.4458 265.656C74.5493 264.556 73.7417 263.581 72.642 263.478C71.5423 263.374 70.5669 264.182 70.4634 265.281L72.4546 265.469L74.4458 265.656ZM61.353 380.609L63.3524 380.66L59.3599 380.443L61.353 380.609ZM72.4546 265.469L70.4634 265.281C65.2154 321.042 62.2721 351.846 60.7249 367.698C59.9508 375.629 59.5275 379.805 59.34 381.492C59.2922 381.923 59.2631 382.159 59.2493 382.253C59.2456 382.279 59.2472 382.265 59.2535 382.232C59.2553 382.223 59.2672 382.161 59.2908 382.08C59.3006 382.047 59.3311 381.943 59.3885 381.816C59.4207 381.749 59.5138 381.583 59.5775 381.487C59.6956 381.337 60.0895 380.987 60.3828 380.823C60.8877 380.671 61.922 380.777 62.3804 381.025C62.631 381.24 62.9435 381.652 63.0287 381.818C63.1499 382.086 63.1802 382.318 63.1844 382.346C63.2035 382.475 63.2046 382.575 63.2047 382.582C63.2057 382.629 63.2041 382.655 63.2049 382.633C63.2117 382.454 63.2601 381.809 63.3461 380.775L61.353 380.609L59.3599 380.443C59.2777 381.431 59.2189 382.189 59.2078 382.482C59.2064 382.519 59.204 382.59 59.2056 382.666C59.206 382.687 59.2077 382.798 59.2279 382.934C59.2326 382.966 59.2635 383.201 59.3854 383.47C59.471 383.637 59.7838 384.049 60.0349 384.265C60.4936 384.513 61.5283 384.619 62.0337 384.467C62.3275 384.302 62.7219 383.952 62.8404 383.801C62.9046 383.705 62.9983 383.538 63.031 383.469C63.0895 383.34 63.1212 383.233 63.1322 383.195C63.1583 383.105 63.1732 383.03 63.1783 383.004C63.1913 382.938 63.201 382.875 63.2072 382.832C63.2326 382.659 63.2688 382.354 63.3155 381.934C63.5066 380.215 63.9326 376.011 64.706 368.086C66.2539 352.227 69.1977 321.417 74.4458 265.656L72.4546 265.469ZM61.353 380.609L59.3537 380.558C59.1278 389.393 59.3136 403.457 60.6068 416.986C61.2534 423.751 62.1802 430.419 63.4822 436.25C64.775 442.041 66.4737 447.178 68.747 450.764L70.4361 449.693L72.1252 448.622C70.2271 445.628 68.6486 441.034 67.3861 435.379C66.1327 429.765 65.2261 423.274 64.5887 416.606C63.3139 403.269 63.1297 389.37 63.3524 380.66L61.353 380.609ZM70.4361 449.693L68.747 450.764C69.5241 451.99 70.123 454.174 70.3998 457.42C70.6712 460.603 70.6157 464.563 70.2792 469.137C69.6064 478.28 67.8278 489.667 65.4623 501.791C60.7336 526.029 53.702 553.006 48.6664 570.447L50.5879 571.001L52.5094 571.556C57.5661 554.043 64.6301 526.946 69.3882 502.557C71.7661 490.369 73.5787 478.805 74.2684 469.43C74.6131 464.746 74.6816 460.555 74.3853 457.08C74.0944 453.668 73.4339 450.686 72.1252 448.622L70.4361 449.693Z" fill="#D9D9D9"/>
<path d="M68.418 312.348C103.943 316.953 114.618 316.46 115.515 315.637" stroke="#D9D9D9" stroke-width="3"/>
<path d="M66.4004 338.254C103.271 339.57 125.497 338.802 132.001 338.254" stroke="#D9D9D9" stroke-width="3"/>
<path d="M2.81836 366.628C82.2113 364.325 108.564 361.831 111.815 360.871" stroke="#D9D9D9" stroke-width="3" stroke-linecap="round"/>
<path d="M31.2216 293.194C31.3178 292.371 30.7287 291.626 29.9059 291.53C29.0831 291.434 28.3381 292.023 28.2419 292.845L29.7318 293.02L31.2216 293.194ZM26.0312 367.038L27.5296 367.109C28.8752 338.654 29.7722 320.391 30.3467 309.123C30.634 303.489 30.8407 299.605 30.9824 297.07C31.0533 295.803 31.1078 294.875 31.148 294.235C31.1681 293.915 31.1845 293.67 31.1974 293.492C31.2038 293.403 31.2093 293.333 31.2137 293.28C31.2159 293.254 31.2177 293.233 31.2192 293.218C31.2199 293.21 31.2205 293.204 31.221 293.2C31.2214 293.195 31.2216 293.193 31.2216 293.194L29.7318 293.02L28.2419 292.845C28.1218 293.873 27.2216 310.11 24.5329 366.967L26.0312 367.038Z" fill="#D9D9D9"/>
<path d="M44.3796 324.114C45.2019 324.013 45.787 323.265 45.6865 322.443C45.586 321.621 44.8379 321.036 44.0156 321.136L44.1976 322.625L44.3796 324.114ZM28.7227 322.625L28.6718 324.124C38.3542 324.453 43.1277 324.267 44.3796 324.114L44.1976 322.625L44.0156 321.136C43.0247 321.257 38.4683 321.455 28.7736 321.126L28.7227 322.625Z" fill="#D9D9D9"/>
<path d="M37.9199 219.341C38.1085 218.535 37.6074 217.728 36.8007 217.539C35.994 217.351 35.1872 217.852 34.9987 218.659L36.4593 219L37.9199 219.341ZM2.81821 366.626L4.31067 366.476C0.287531 326.519 3.56942 301.952 8.29077 286.36C10.6501 278.568 13.3766 272.992 15.7576 268.834C16.9522 266.748 18.0608 265.017 19.015 263.51C19.9525 262.03 20.7812 260.706 21.334 259.523L19.9752 258.888L18.6163 258.253C18.1599 259.229 17.4432 260.385 16.4805 261.905C15.5345 263.399 14.3882 265.189 13.1543 267.343C10.6784 271.667 7.854 277.451 5.41951 285.491C0.553154 301.562 -2.72497 326.546 1.32576 366.776L2.81821 366.626ZM19.9752 258.888L21.334 259.523C25.3056 251.027 34.5088 233.935 37.9199 219.341L36.4593 219L34.9987 218.659C31.6816 232.85 22.7186 249.477 18.6163 258.253L19.9752 258.888Z" fill="#D9D9D9"/>
<path d="M255.683 169.757C97.9286 150.451 81.3647 148.062 92.802 149.281C68.0181 148.711 13.8662 151.916 -4.46992 169.294C-22.8061 186.672 -126.672 151.004 -176.313 130.998" stroke="#D9D9D9" stroke-width="4"/>
<path d="M150.191 158.414C146.088 256.607 147.093 286.083 148.109 288.546" stroke="#D9D9D9" stroke-width="3"/>
<path d="M115.785 156.48C121.6 232.02 119.476 277.635 117.687 291" stroke="#D9D9D9" stroke-width="3"/>
<path d="M84.367 80.6709C89.8267 163.999 94.8554 191.612 96.6872 195.002" stroke="#D9D9D9" stroke-width="3" stroke-linecap="round"/>
<path d="M172.422 113.191C173.246 113.276 173.983 112.677 174.068 111.853C174.154 111.029 173.555 110.292 172.73 110.207L172.576 111.699L172.422 113.191ZM84.2706 108.51L84.2205 110.009C152.17 112.278 171.345 113.08 172.422 113.191L172.576 111.699L172.73 110.207C171.516 110.082 152.16 109.276 84.3207 107.01L84.2706 108.51Z" fill="#D9D9D9"/>
<path d="M136.038 129.746C136.149 130.567 136.905 131.142 137.726 131.031C138.547 130.919 139.122 130.163 139.01 129.342L137.524 129.544L136.038 129.746ZM137.262 110.988L135.762 110.959C135.534 122.576 135.838 128.274 136.038 129.746L137.524 129.544L139.01 129.342C138.846 128.13 138.533 122.647 138.761 111.018L137.262 110.988Z" fill="#D9D9D9"/>
<path d="M84.367 80.6689C179.827 69.6357 202.737 94.7305 213.101 99.4256C223.464 104.121 243.718 114.728 260.933 118.519" stroke="#D9D9D9" stroke-width="3"/>
<path d="M269.443 404.467C136.312 393.761 122.335 392.425 131.988 393.096C111.063 392.854 65.3279 394.926 49.7817 405.152C34.2355 415.378 -53.334 394.909 -95.1754 383.397" stroke="#D9D9D9" stroke-width="4"/>
<path d="M213.488 400.414C208.6 443.09 209.369 455.883 210.365 456.944" stroke="#D9D9D9" stroke-width="3"/>
<path d="M182.568 398.43C181.624 442.664 182.917 469.301 183.681 477.091" stroke="#D9D9D9" stroke-width="3"/>
<path d="M147.664 322.667C151.756 417.829 155.176 449.386 156.376 453.269" stroke="#D9D9D9" stroke-width="3" stroke-linecap="round"/>
<path d="M235.719 355.191C236.543 355.276 237.28 354.677 237.365 353.853C237.45 353.029 236.851 352.292 236.027 352.207L235.873 353.699L235.719 355.191ZM147.567 350.51L147.517 352.009C215.467 354.278 234.642 355.08 235.719 355.191L235.873 353.699L236.027 352.207C234.813 352.082 215.457 351.276 147.618 349.01L147.567 350.51Z" fill="#D9D9D9"/>
<path d="M199.335 371.746C199.446 372.567 200.202 373.142 201.023 373.031C201.844 372.919 202.419 372.163 202.307 371.342L200.821 371.544L199.335 371.746ZM200.559 352.988L199.059 352.959C198.831 364.576 199.135 370.274 199.335 371.746L200.821 371.544L202.307 371.342C202.142 370.13 201.83 364.647 202.058 353.018L200.559 352.988Z" fill="#D9D9D9"/>
<path d="M144.015 323.669C239.475 312.636 262.386 337.731 272.749 342.426C283.112 347.121 303.366 357.728 320.582 361.519" stroke="#D9D9D9" stroke-width="3"/>
<path d="M470.006 459.822C300.562 485.635 282.781 488.738 295.072 487.064C268.376 488.442 209.911 486.617 189.615 468.29C169.319 449.963 58.4596 491.91 5.56678 515.175" stroke="#D9D9D9" stroke-width="4"/>
<path d="M398.766 469.836C390.634 390.693 391.048 366.869 392.272 364.851" stroke="#D9D9D9" stroke-width="3"/>
<path d="M359.391 474.898C356.224 392.683 356.692 343.09 357.321 328.57" stroke="#D9D9D9" stroke-width="3"/>
<path d="M318.203 617.335C319.204 440.191 322.171 381.356 323.529 374.081" stroke="#D9D9D9" stroke-width="3" stroke-linecap="round"/>
<path d="M429.137 554.244C429.951 554.092 430.734 554.63 430.885 555.444C431.037 556.259 430.499 557.042 429.685 557.193L429.411 555.718L429.137 554.244ZM316.845 565.566L316.72 564.071C359.996 560.457 387.771 558.063 404.907 556.539C413.475 555.777 419.382 555.232 423.236 554.862C427.144 554.486 428.856 554.296 429.137 554.244L429.411 555.718L429.685 557.193C429.236 557.276 427.333 557.481 423.523 557.848C419.659 558.22 413.744 558.765 405.172 559.527C388.029 561.052 360.249 563.447 316.97 567.061L316.845 565.566Z" fill="#D9D9D9"/>
<path d="M382.385 523.984C382.442 523.157 383.158 522.534 383.984 522.591C384.811 522.648 385.434 523.364 385.377 524.19L383.881 524.087L382.385 523.984ZM384.369 558.605L382.87 558.661C382.066 537.061 382.206 526.578 382.385 523.984L383.881 524.087L385.377 524.19C385.211 526.605 385.063 536.941 385.868 558.55L384.369 558.605Z" fill="#D9D9D9"/>
<path d="M318.202 617.333C440.529 633.617 468.657 585.934 481.676 576.743C494.695 567.553 520.075 546.929 541.88 539.115" stroke="#D9D9D9" stroke-width="3"/>
<path d="M363 256.411V-740.67C363 -740.67 356.114 -806 288.405 -806C220.696 -806 211.515 -740.67 211.515 -740.67V-611.082C211.515 -611.082 208.073 -552.178 163.316 -511.481C118.559 -470.783 54.293 -468.642 54.293 -468.642H-80.634C-80.634 -468.642 -169 -471.854 -169 -395.815C-169 -319.775 -80.634 -324.059 -80.634 -324.059H203.482C203.482 -324.059 275.782 -324.059 275.782 -251.233C275.782 -178.406 212.663 -177.335 212.663 -177.335H7.69382C7.69382 -177.335 -58.8675 -171.98 -58.8675 -105.58C-58.8675 -39.1789 7.69382 -39.1789 7.69382 -39.1789H79.1333C180.863 -39.1789 186.586 -24.3923 186.586 98.9775V236.063C186.586 236.063 177.405 303.535 107.401 303.535C37.3969 303.535 30.5112 236.063 30.5112 236.063V141.817C30.5112 141.817 29.9921 90.4096 -33.1265 90.4096C-96.245 90.4096 -96.0439 146.101 -96.0439 146.101V236.063C-96.0439 305.677 -81.8817 366.304 22.1599 386H208.073C353.819 386 363 256.411 363 256.411Z" stroke="url(#paint0_linear_251_102600)" stroke-width="30"/>
<rect x="159.5" y="268.5" width="160" height="30" rx="15" fill="white"/>
<rect x="159.5" y="268.5" width="160" height="30" rx="15" stroke="#BF4B17" stroke-width="3"/>
<path d="M207.82 287.78H213.436V288.916H207.82V287.78ZM207.82 282.836H213.436V283.908H207.82V282.836ZM207.34 277.972H213.996V289.684H212.86V279.092H208.444V289.78H207.34V277.972ZM210.156 275.028L211.388 275.22C211.239 275.796 211.079 276.388 210.908 276.996C210.737 277.604 210.572 278.121 210.412 278.548L209.356 278.356C209.452 278.047 209.553 277.7 209.66 277.316C209.767 276.921 209.863 276.527 209.948 276.132C210.044 275.727 210.113 275.359 210.156 275.028ZM202.828 275.076H203.948V289.78H202.828V275.076ZM200.572 278.1H205.852V279.172H201.532V286.5H200.572V278.1ZM205.34 278.1H206.3V285.22C206.3 285.455 206.273 285.657 206.22 285.828C206.177 285.988 206.081 286.121 205.932 286.228C205.783 286.324 205.601 286.383 205.388 286.404C205.175 286.425 204.908 286.436 204.588 286.436C204.577 286.297 204.54 286.121 204.476 285.908C204.423 285.695 204.364 285.513 204.3 285.364C204.513 285.375 204.695 285.38 204.844 285.38C205.004 285.38 205.116 285.375 205.18 285.364C205.287 285.364 205.34 285.311 205.34 285.204V278.1ZM219.66 279.716H230.092V280.804H219.66V279.716ZM219.212 286.196H230.764V287.316H219.212V286.196ZM224.988 281.588H226.172V289.764H224.988V281.588ZM220.7 284.58C220.679 284.495 220.641 284.383 220.588 284.244C220.545 284.095 220.497 283.945 220.444 283.796C220.391 283.647 220.337 283.519 220.284 283.412C220.433 283.38 220.577 283.284 220.716 283.124C220.855 282.953 221.004 282.735 221.164 282.468C221.249 282.351 221.372 282.148 221.532 281.86C221.703 281.561 221.889 281.215 222.092 280.82C222.295 280.415 222.492 279.983 222.684 279.524C222.887 279.065 223.063 278.601 223.212 278.132L224.444 278.564C224.177 279.204 223.879 279.849 223.548 280.5C223.228 281.14 222.892 281.753 222.54 282.34C222.188 282.916 221.841 283.439 221.5 283.908V283.924C221.5 283.924 221.457 283.945 221.372 283.988C221.297 284.031 221.207 284.089 221.1 284.164C220.993 284.228 220.897 284.297 220.812 284.372C220.737 284.447 220.7 284.516 220.7 284.58ZM220.7 284.58V283.636L221.388 283.268H229.708V284.356H222.204C221.799 284.356 221.463 284.377 221.196 284.42C220.94 284.463 220.775 284.516 220.7 284.58ZM218.028 276.676H230.732V277.812H218.028V276.676ZM217.436 276.676H218.62V281.3C218.62 281.919 218.599 282.596 218.556 283.332C218.524 284.068 218.455 284.825 218.348 285.604C218.241 286.372 218.081 287.119 217.868 287.844C217.655 288.569 217.372 289.241 217.02 289.86C216.956 289.785 216.86 289.7 216.732 289.604C216.604 289.519 216.476 289.433 216.348 289.348C216.22 289.263 216.103 289.204 215.996 289.172C216.327 288.596 216.588 287.977 216.78 287.316C216.972 286.644 217.116 285.956 217.212 285.252C217.308 284.548 217.367 283.86 217.388 283.188C217.42 282.505 217.436 281.876 217.436 281.3V276.676ZM223.004 275.364L224.172 275.06C224.385 275.337 224.588 275.657 224.78 276.02C224.972 276.372 225.111 276.676 225.196 276.932L223.964 277.3C223.889 277.044 223.761 276.735 223.58 276.372C223.409 275.999 223.217 275.663 223.004 275.364ZM234.668 284.324H244.348V289.764H243.132V285.22H235.836V289.812H234.668V284.324ZM235.212 286.34H243.724V287.172H235.212V286.34ZM236.124 276.068H241.356V276.916H236.124V276.068ZM235.196 288.372H243.724V289.252H235.196V288.372ZM235.292 280.34V281.3H243.692V280.34H235.292ZM235.292 278.66V279.588H243.692V278.66H235.292ZM234.172 277.844H244.844V282.1H234.172V277.844ZM238.892 278.228H239.996V281.716H238.892V278.228ZM236.636 275.012L237.852 275.252C237.308 276.041 236.62 276.831 235.788 277.62C234.967 278.409 233.98 279.119 232.828 279.748C232.785 279.652 232.721 279.556 232.636 279.46C232.551 279.353 232.46 279.252 232.364 279.156C232.268 279.06 232.177 278.98 232.092 278.916C233.159 278.361 234.076 277.732 234.844 277.028C235.623 276.324 236.22 275.652 236.636 275.012ZM241.052 276.068H241.212L241.42 276.004L242.22 276.468C241.996 276.884 241.708 277.279 241.356 277.652C241.004 278.015 240.679 278.324 240.38 278.58C240.316 278.516 240.231 278.452 240.124 278.388C240.017 278.313 239.911 278.244 239.804 278.18C239.697 278.105 239.601 278.047 239.516 278.004C239.697 277.865 239.884 277.7 240.076 277.508C240.279 277.316 240.465 277.113 240.636 276.9C240.807 276.676 240.945 276.473 241.052 276.292V276.068ZM232.652 282.772H246.284V283.62H232.652V282.772ZM249.916 287.604H261.244V288.724H249.916V287.604ZM249.148 279.588H261.932V289.668H260.732V280.692H250.3V289.716H249.148V279.588ZM256.508 280.084H257.66V283.476C257.66 283.657 257.687 283.775 257.74 283.828C257.804 283.871 257.932 283.892 258.124 283.892C258.188 283.892 258.305 283.892 258.476 283.892C258.657 283.892 258.839 283.892 259.02 283.892C259.212 283.892 259.345 283.892 259.42 283.892C259.537 283.892 259.623 283.865 259.676 283.812C259.74 283.748 259.788 283.631 259.82 283.46C259.852 283.289 259.873 283.023 259.884 282.66C259.959 282.713 260.055 282.772 260.172 282.836C260.289 282.889 260.412 282.937 260.54 282.98C260.679 283.023 260.796 283.06 260.892 283.092C260.86 283.583 260.796 283.967 260.7 284.244C260.604 284.521 260.465 284.713 260.284 284.82C260.103 284.916 259.863 284.964 259.564 284.964C259.5 284.964 259.393 284.964 259.244 284.964C259.095 284.964 258.935 284.964 258.764 284.964C258.593 284.964 258.433 284.964 258.284 284.964C258.135 284.964 258.033 284.964 257.98 284.964C257.585 284.964 257.281 284.921 257.068 284.836C256.855 284.751 256.705 284.601 256.62 284.388C256.545 284.175 256.508 283.876 256.508 283.492V280.084ZM248.444 276.1H262.524V277.268H248.444V276.1ZM252.972 276.9H254.156V280.228H252.972V276.9ZM256.508 276.9H257.708V280.228H256.508V276.9ZM253.02 279.892H254.156V281.46C254.156 281.961 254.076 282.484 253.916 283.028C253.767 283.561 253.484 284.079 253.068 284.58C252.663 285.081 252.065 285.524 251.276 285.908C251.233 285.833 251.159 285.743 251.052 285.636C250.945 285.529 250.839 285.428 250.732 285.332C250.625 285.236 250.529 285.161 250.444 285.108C251.169 284.756 251.713 284.377 252.076 283.972C252.449 283.556 252.7 283.129 252.828 282.692C252.956 282.255 253.02 281.833 253.02 281.428V279.892ZM265.692 276.996H277.516V278.132H265.692V276.996ZM264.668 283.444H278.428V284.58H264.668V283.444ZM264.316 280.228H278.684V281.364H264.316V280.228ZM270.812 275.044H272.06V280.596H270.812V275.044ZM273.74 281.252H274.972V288.276C274.972 288.649 274.919 288.932 274.812 289.124C274.705 289.327 274.513 289.476 274.236 289.572C273.959 289.668 273.58 289.721 273.1 289.732C272.62 289.753 272.023 289.764 271.308 289.764C271.287 289.593 271.233 289.396 271.148 289.172C271.063 288.948 270.972 288.751 270.876 288.58C271.26 288.591 271.617 288.596 271.948 288.596C272.289 288.596 272.583 288.596 272.828 288.596C273.073 288.596 273.244 288.596 273.34 288.596C273.5 288.585 273.607 288.559 273.66 288.516C273.713 288.473 273.74 288.388 273.74 288.26V281.252ZM266.716 285.54L267.756 284.884C268.076 285.151 268.396 285.444 268.716 285.764C269.047 286.084 269.345 286.409 269.612 286.74C269.889 287.06 270.103 287.359 270.252 287.636L269.148 288.356C269.009 288.079 268.807 287.775 268.54 287.444C268.284 287.113 267.996 286.783 267.676 286.452C267.356 286.111 267.036 285.807 266.716 285.54Z" fill="black"/>
<circle cx="136" cy="283" r="19" fill="#BF4B17"/>
<path d="M133.407 287L137.295 277.544H133.439V279.592H131.647V275.832H139.391V277.64L135.615 287H133.407Z" fill="#F4F4F4"/>
<path d="M240.982 99.3351C241.965 100.001 241.928 113.844 242.114 116.075C242.682 122.883 244.129 128.385 245.995 134.679C247.275 139.002 252.961 143.844 252.881 148.002C252.819 151.108 250.656 151.647 250.711 151.875C251.379 154.531 254.055 155.463 254.846 157.003C255.502 158.271 255.384 159.684 255.811 160.42C256.052 160.838 259.705 162.86 260.91 164.559C261.967 166.048 262.622 169.034 263.197 169.655C263.413 169.889 267.672 172.247 267.895 171.987C267.993 169.94 267.691 167.829 268.024 165.788C268.358 163.747 270.423 161.503 270.491 160.61C270.54 159.995 269.458 158.981 269.446 157.409C269.421 155.013 270.219 148.389 270.726 145.955C270.874 145.232 270.923 144.244 271.918 144.408C272.611 144.427 273.019 144.484 273.544 144.992C274.947 146.342 274.539 155.621 275.825 158.074C272.951 161.288 275.986 163.037 276.424 166.821C276.826 170.27 275.986 174.504 276.511 177.749C276.832 179.727 279.262 182.211 280.121 184.512C281.703 188.746 282.197 195.212 282.414 199.788C283.186 216.047 281.802 232.945 282.383 249.267C282.445 249.501 285.82 251.992 286.172 252.113C287.686 252.645 289.973 251.942 290.721 253.507C291.395 254.921 291.413 264.055 289.918 264.803L190.317 264.999L189.525 264.156L189 253.888L189.655 252.905C191.621 252.442 196.009 249.844 196.405 247.708C197.468 229.833 195.02 210.323 196.423 192.645C197.004 185.336 201.041 181.755 201.764 177.736C202.234 175.119 201.585 171.379 201.857 168.469C202.091 165.985 204.249 161.072 203.94 159.684C203.841 159.234 202.833 159.513 202.802 158.505C202.679 154.842 204.663 149.302 204.57 145.366L205.33 144.478C209.379 144.034 207.945 149.2 208.235 151.869C208.415 153.511 209.336 156.629 209.249 157.967C209.187 158.886 208.112 159.469 208.204 160.648C208.334 162.188 212.197 167.297 210.918 170.327C214.62 169.655 214.552 165.852 216.604 163.221C217.575 161.979 219.985 160.508 220.307 159.862C220.857 158.759 220.455 157.396 221.395 156.021C222.439 154.506 224.263 154.791 225.357 153.473C227.409 151.007 225.246 150.652 224.98 149.017C224.85 148.218 225.493 145.442 225.833 144.586C227.291 140.884 231.093 137.626 233.219 133.43C236.285 127.364 237.385 122.547 237.774 115.517C238.003 111.366 237.274 106.301 237.83 102.359C238.053 100.787 239.066 98.0547 240.952 99.3287L240.982 99.3351ZM238.343 129.025C236.087 129.602 236.124 132.929 235.654 133.982C234.758 135.984 233.751 137.385 232.966 139.49C232.861 139.775 232.403 140.124 232.428 140.593C231.847 140.745 230.747 141.746 230.277 142.247C229.671 142.887 229.585 143.198 229.201 143.901C228.868 144.516 228.305 145.486 228.126 146.107C228.046 146.392 228.175 146.855 228.126 147.21C227.699 150.367 228.861 149.105 229.201 149.967C229.412 150.506 229.053 151.983 229.201 152.725C228.633 152.851 227.749 153.796 227.588 154.379C227.471 154.81 227.668 155.526 227.588 156.033C227.261 156.103 226.871 156.477 226.513 156.585C225.06 157.028 224.374 156.483 223.286 158.239C222.847 158.943 223.299 158.619 223.286 158.791C223.261 159.152 223.28 159.532 223.286 159.893C223.299 160.445 223.28 160.996 223.286 161.548C219.639 162.911 218.131 165.123 216.839 168.71C216.685 169.135 216.054 169.585 216.302 170.365C214.645 171.056 210.201 173.414 209.855 175.321C208.563 174.707 208.452 176.576 208.242 173.667C208.112 171.854 208.378 169.972 208.242 168.159C208.081 166.01 208.062 164.305 206.362 162.663C204.885 164.121 204.638 166.2 204.483 168.159C204.292 170.58 204.483 173.388 204.483 175.873V178.079C201.949 182.313 200.719 184.785 199.65 189.647C199.638 189.704 199.273 189.862 199.112 190.749C199.05 191.092 199.168 191.504 199.112 191.852C199.007 192.524 199.186 193.348 199.112 194.058C199.069 194.445 198.649 195.098 198.574 196.264C198.55 196.632 198.593 196.999 198.574 197.367C198.556 197.734 198.587 198.102 198.574 198.47C198.568 198.654 198.574 198.837 198.574 199.021C198.556 199.573 198.587 200.124 198.574 200.676C198.296 212.028 198.655 223.463 198.574 234.828C198.544 239.239 199.05 244.963 198.574 249.146C198.506 249.736 198.34 250.294 198.037 250.801L197.499 251.352C195.991 251.2 195.422 253.14 194.81 253.558C194.52 253.754 193.283 254.617 193.197 254.661C192.931 254.794 192.084 254.471 191.639 254.693C191.565 256.322 191.528 257.989 191.584 259.618C191.602 260.169 191.565 260.721 191.584 261.272C191.602 261.823 191.559 262.375 191.584 262.926C201.789 262.939 212.012 262.901 222.211 262.926C223.286 262.926 224.362 262.926 225.437 262.926C240.469 262.952 255.539 262.983 270.571 262.926C276.474 262.907 282.401 262.939 288.304 262.926C288.329 262.375 288.28 261.823 288.304 261.272C288.329 260.721 288.286 260.169 288.304 259.618C288.36 257.97 288.267 256.303 288.304 254.655C287.056 254.629 285.789 254.693 284.54 254.655C284.348 253.907 283.73 253.862 283.465 253.552C282.729 252.683 281.295 251.029 280.238 250.794C279.966 250.287 279.744 249.73 279.7 249.14C278.779 235.785 279.941 220.87 279.7 207.28C279.626 202.957 279.503 198.755 279.163 194.61C278.6 187.732 277.951 185.799 274.867 179.739C274.718 179.454 274.391 179.302 274.329 179.188C274.255 179.042 274.403 178.782 274.329 178.636C274.057 178.091 273.964 177.274 273.791 176.982C275.071 175.093 274.119 163.627 272.444 163.215C269.23 165.218 270.299 171.436 270.033 174.783C269.341 175.195 267.993 175.81 267.882 175.886C266.133 174.041 263.172 171.962 260.898 170.929C260.873 170.32 260.552 169.82 260.36 169.274C259.087 165.649 257.127 163.272 253.375 162.112C253.388 161.516 252.937 160.939 252.838 160.458C252.516 158.879 252.257 156.578 250.149 156.052C249.939 155.723 249.834 155.254 249.611 154.949C248.721 153.745 247.868 153.745 247.46 153.295C246.861 152.636 246.959 151.393 246.922 150.538C247.924 150.741 248.295 150.512 249.073 149.986C250.198 149.219 250.069 149.162 250.149 147.78C250.167 147.451 250.211 146.956 250.149 146.678C249.79 145.011 248.48 144.649 247.998 143.92C247.843 143.686 247.744 142.805 247.46 142.266C247.194 141.765 246.91 141.398 246.385 141.163C246.372 140.827 243.82 136.295 243.412 135.122C242.744 133.24 243.294 131.123 241.551 129.044L239.678 120.778L238.331 129.044L238.343 129.025ZM273.266 157.662L272.203 154.366L271.665 157.662H273.272H273.266ZM206.641 154.918H205.571V157.117H206.641V154.918Z" fill="#322115"/>
<path d="M242.645 167.032C242.781 168.059 242.33 169.365 242.905 170.341C243.177 170.803 249.006 173.611 250.421 174.752C255.489 178.841 258.382 185.224 258.228 191.809L260.465 185.572C261.028 184.412 265.515 177.7 266.281 176.939C266.349 176.869 267.579 176.052 267.895 175.836C268 175.76 269.353 175.152 270.046 174.733C270.398 174.524 270.701 174.207 271.158 174.41C272.017 174.651 272.246 175.329 272.734 175.836C272.778 176.191 272.673 176.603 272.734 176.939C271.628 176.102 271.467 176.438 270.565 177.186C269.452 178.105 266.393 182.219 265.534 183.601C263.549 186.783 262.122 190.294 261.454 194.009L265.163 193.958C265.515 192.209 265.979 190.294 266.733 188.684C267.277 187.518 270.998 181.148 271.925 181.351C275.658 184.85 276.326 188.621 277.494 193.299C277.846 194.712 277.259 194.75 279.187 194.567C279.527 198.712 279.651 202.914 279.725 207.237H279.187C279.157 205.222 279.212 203.187 279.187 201.178H277.58C277.315 201.438 277.772 207.427 277.617 208.651C277.488 209.703 276.585 209.177 276.455 210.229C275.306 219.521 277.036 231.881 276.517 241.687C276.406 243.754 275.59 245.807 275.955 248L273.241 246.555C273.303 236.845 273.112 227.102 272.734 217.404C272.691 216.346 273.285 215.192 271.659 215.503C271.548 206.109 272.388 196.449 269.502 187.41C266.764 190.034 265.731 195.758 265.75 199.53C265.75 199.91 266.288 200.043 266.288 200.081C266.257 208.885 266.257 217.715 266.288 226.519C266.288 226.887 266.288 227.254 266.288 227.622C264.668 227.933 265.249 226.779 265.212 225.72C264.946 217.544 264.606 209.361 264.681 201.184H260.379V235.336C262.146 234.341 262.826 232.034 263.982 230.525C264.328 230.075 263.957 229.517 265.212 229.828V248.279L264.322 249.021C262.289 248.241 261.269 250.149 261.083 250.194C252.757 252.266 235.722 250.073 226.253 250.194C225.345 250.206 223.861 249.839 223.305 250.751C222.229 250.751 221.154 250.751 220.078 250.751C219.571 249.864 217.396 249.851 216.852 250.751H215.239V248.546H217.927V200.626H213.625C213.31 211.706 214.058 222.893 213.625 233.973C213.582 235.038 214.175 236.185 212.55 235.875C212.537 234.747 212.012 233.783 212.012 233.669C211.919 225.784 212.012 217.867 212.012 209.982C212.012 204.486 213.106 196.766 211.74 191.803C211.586 191.232 209.503 186.092 208.792 186.846C206.227 195.72 207.432 204.981 207.197 214.134C207.148 216.149 206.672 218.152 206.635 220.447C206.591 223.559 206.653 226.697 206.635 229.809C205.015 229.498 205.596 230.652 205.559 231.71C205.405 236.458 205.646 241.244 205.596 245.991L201.801 247.981C201.622 241.846 202.036 235.647 201.801 229.505C201.758 228.446 202.351 227.292 200.726 227.603C200.763 219.223 201.276 209.659 200.726 201.419C200.62 199.847 199.397 200.842 198.575 200.607C198.587 200.056 198.556 199.504 198.575 198.953L200.732 198.68L198.575 198.408C198.587 198.04 198.556 197.672 198.575 197.305H200.719V196.487L198.568 196.208C198.643 195.048 199.063 194.389 199.106 194.002H200.719C200.837 193.337 200.565 192.38 200.719 191.797C201.764 187.835 203.81 183.911 206.369 180.78C207.543 180.476 209.861 185.255 210.386 186.288C211.617 188.697 212.748 190.586 213.143 193.375L216.833 193.445C216.833 190.504 215.375 188.171 214.151 185.737C212.284 182.042 209.96 178.708 206.882 175.83L204.477 178.023V175.817C205.843 175.05 206.437 173.32 208.235 173.611C208.439 176.521 208.557 174.651 209.849 175.266C210.479 175.564 212.519 177.421 213.075 178.023C214.293 179.341 216.16 182.625 217.464 184.266L220.054 190.687C220.808 182.428 223.651 177.313 230.314 172.832C231.866 171.786 233.893 171.222 235.327 170.239C236.025 169.758 236.124 168.794 236.248 168.705C236.464 168.547 237.156 169.244 237.262 169.206L237.799 168.655C237.972 168.623 238.158 168.674 238.337 168.655L241.557 169.758C241.588 169.396 241.533 169.022 241.557 168.655C241.656 167.387 241.489 166.075 241.557 164.801C242.478 165.872 242.392 165.187 242.633 167.007L242.645 167.032ZM235.661 171.989C226.315 176.603 221.209 181.224 221.685 192.925H226.525C226.364 182.897 231.6 180.831 238.881 176.945C246.298 179.354 251.787 184.406 251.781 192.919H256.614C257.832 180.419 249.104 174.657 239.419 170.005C238.034 169.656 236.773 171.444 235.661 171.995V171.989ZM228.138 235.887C228.145 237.035 227.897 245.173 228.447 245.262L235.123 245.249V243.05C227.99 243.779 229.443 241.592 229.745 235.887C230.092 229.39 232.138 217.715 231.396 211.89C231.272 210.926 230.45 211.123 230.326 210.666C228.732 204.638 229.189 196.246 236.674 195.619C237.478 193.388 234.412 191.118 234.56 189.375C234.641 188.45 236.909 185.281 237.478 184.045C238.09 182.701 238.102 181.021 238.881 179.696L241.032 180.248C241.032 183.423 243.406 186.96 245.247 189.42L242.138 195.321C243.776 197.501 246.545 195.923 247.949 198.775C248.647 200.195 249.018 203.878 249.092 205.589C249.265 209.589 248.857 218.64 246.941 221.011V220.459C246.737 216.086 249.203 201.279 245.866 198.706C244.512 197.66 243.511 198.046 242.107 197.875C240.939 197.736 240.908 197.894 240.494 197.875C237.96 197.767 235.704 197.02 233.096 198.243C232.477 198.534 231.359 201 231.359 201.45V209.988C233.602 209.684 239.592 206.534 240.253 204.518C240.735 203.054 240.927 200.525 238.881 200.626C238.881 205.019 235.03 205.203 232.434 207.782C232.125 207.364 233.924 201.729 234.307 201.735C235.945 201.761 233.701 204.081 235.383 203.929C238.04 203.688 236.94 202.388 237.503 200.601C238.349 197.932 240.241 199.27 242.101 200.068C242.225 203.872 241.471 205.729 238.875 208.327H243.177C243.257 206.464 242.96 204.543 243.325 202.68C243.523 201.666 243.572 200.861 244.784 201.178C245.303 207.63 246.304 213.994 245.322 220.453L246.935 221.005C244.969 223.439 248.326 239.336 248.041 243.253L242.633 244.14V245.788H249.624C249.852 232.401 249.302 218.957 249.624 205.577C249.784 198.756 252.368 190.054 247.757 184.083C246.082 181.915 243.77 180.799 241.57 179.69C241.119 179.462 240.754 178.879 239.957 178.587C239.326 178.353 239.32 177.979 238.393 178.308C237.466 178.638 232.397 181.699 231.637 182.447C230.357 183.709 228.559 187.125 228.268 188.906C228.107 204.556 228.039 220.225 228.138 235.868V235.887ZM202.345 193.47C202.172 195.904 202.32 198.699 202.345 201.184C202.37 203.669 202.042 206.882 202.345 209.183C202.592 211.097 205.306 208.511 205.485 207.985C205.973 206.534 205.485 202.566 205.571 200.639C205.701 197.945 205.67 195.65 206.109 192.925C206.505 190.485 208.711 185.464 207.661 183.905C206.035 181.503 203.711 186.929 203.173 188.532C202.567 190.339 202.481 191.613 202.351 193.476L202.345 193.47ZM218.459 192.367C218.187 189.198 217 185.249 214.707 183.005L218.459 192.367ZM241.57 187.41C241.044 185.876 238.776 185.895 237.812 187.144L241.57 187.41ZM238.726 188.608C236.575 189.261 236.693 193.134 239.184 193.489C243.436 194.097 242.998 187.315 238.726 188.608ZM258.759 198.433L258.234 193.476C258.759 195.08 256.818 197.628 258.759 198.433ZM241.032 195.131H238.349V196.227H241.032V195.131ZM226.525 198.978H221.154V240.838C222.922 240.635 225.246 241.522 226.525 240.014V198.978ZM251.243 225.974C251.255 230.924 251.237 235.9 251.243 240.851H257.158C257.158 234.062 257.146 227.254 257.158 220.466C257.164 213.493 257.152 206.502 257.158 199.53H251.243C251.268 208.334 251.218 217.17 251.243 225.974ZM220.078 200.633H219.003V249.103H220.078V200.633ZM259.303 241.396V201.184L258.203 208.042L258.228 240.578L259.303 241.396ZM234.047 227.071C234.097 231.108 233.757 235.178 234.628 239.139C236.297 239.139 241.978 240.648 242.942 239.222C243.43 231.508 244.011 223.794 243.715 216.054C243.634 213.981 243.504 212.042 243.177 209.995H235.117C233.726 215.572 233.973 221.334 234.041 227.071H234.047ZM232.972 221.562C231.717 221.493 232.02 221.372 231.896 222.38C231.173 228.269 231.754 234.658 230.778 240.578L231.476 241.567L235.123 241.941C235.345 240.534 233.961 240.229 232.978 240.293V221.562H232.972ZM244.796 227.071V237.814C244.796 238.283 243.919 239.824 244.191 240.806L242.651 240.851V242.499L246.953 242.22L244.796 227.077V227.071ZM238.343 240.844H236.198C235.457 247.449 239.079 247.474 238.343 240.844ZM241.57 240.838H239.425V245.249H241.57V240.838ZM221.154 249.103H250.44C250.532 249.103 251.391 248.229 251.243 248.013C249.926 247.512 249.308 247.024 247.788 246.866C239.357 245.997 229.764 248.381 221.154 247.455V249.103Z" fill="#97541B"/>
<path d="M223.298 250.756C223.854 249.843 225.338 250.204 226.246 250.198C235.716 250.078 252.75 252.264 261.076 250.198C261.262 250.154 262.282 248.246 264.315 249.025L265.205 248.284V229.832C263.95 229.522 264.321 230.08 263.975 230.53C262.813 232.038 262.133 234.345 260.372 235.34V201.188H264.674C264.606 209.365 264.939 217.548 265.205 225.725C265.242 226.783 264.655 227.937 266.281 227.626C266.305 233.864 266.262 240.12 266.281 246.357H271.658V219.912C271.658 219.361 271.658 218.81 271.658 218.258C271.652 217.339 271.671 216.42 271.658 215.501C273.284 215.197 272.69 216.344 272.734 217.402C273.111 227.1 273.302 236.843 273.241 246.553L275.954 247.999C275.589 245.805 276.411 243.752 276.517 241.685C277.036 231.886 275.305 219.526 276.455 210.227C276.585 209.175 277.487 209.701 277.617 208.649C277.771 207.419 277.314 201.429 277.58 201.176H279.187C279.218 203.191 279.162 205.226 279.187 207.235C279.385 220.749 276.702 235.125 277.567 248.29C277.672 249.862 278.896 248.867 279.718 249.101C279.762 249.685 279.978 250.249 280.256 250.756C277.073 250.052 271.732 251.288 268.265 250.737L267.362 252.955L283.476 253.507C283.736 253.817 284.36 253.862 284.552 254.61C280.806 254.502 277.017 254.622 273.271 254.61C259.129 254.572 244.962 254.61 230.826 254.61C219.194 254.61 207.536 254.61 195.904 254.61H193.215C193.301 254.565 194.538 253.71 194.828 253.507H196.979C208.556 253.507 221.895 254.362 233.243 253.507C235.92 253.304 239.437 253.101 241.037 250.762C235.135 250.743 229.213 250.768 223.31 250.762L223.298 250.756Z" fill="#D86807"/>
<path d="M241.57 129.026C243.313 131.105 242.763 133.222 243.43 135.105C243.844 136.271 246.397 140.803 246.403 141.145C246.403 141.215 245.575 141.101 245.872 142.242H247.479C247.763 142.781 247.862 143.662 248.016 143.896C247.51 143.827 246.861 144.004 246.403 143.896C244.691 143.497 243.616 142.863 241.57 142.793C241.118 142.781 240.08 142.559 239.956 143.072V144.993C240.494 145.031 241.038 144.968 241.57 144.993C243.171 145.075 244.839 145.246 246.403 145.544C247.547 145.766 249.018 146.28 250.161 146.647C250.223 146.926 250.18 147.421 250.161 147.75C249.302 147.655 248.288 147.883 247.473 147.75C245.736 147.465 244.147 146.685 242.101 146.647C241.563 146.635 241.026 146.635 240.488 146.647V148.853L240.803 149.354C241.223 149.512 241.718 149.335 242.101 149.398C242.274 149.43 242.466 149.367 242.639 149.398C244.042 149.633 245.519 149.848 246.935 149.95C246.922 150.127 246.929 150.317 246.935 150.501C246.972 151.35 246.873 152.599 247.473 153.258H246.403V154.355L249.624 154.913C249.846 155.211 249.951 155.68 250.161 156.016C249.314 155.806 247.918 156.149 246.935 156.016C246.014 155.895 245.006 155.521 244.246 155.464C242.831 155.363 241.366 155.534 239.944 155.464C239.888 157.093 239.629 157.854 241.02 158.767C241.52 159.096 241.514 159.255 242.305 159.35C244.054 159.565 247.12 159.508 248.542 159.318L252.838 160.421C252.937 160.896 253.388 161.479 253.375 162.075C252.955 161.949 252.22 162.196 251.762 162.075C248.437 161.207 245.006 160.32 241.551 160.427L242.732 165.289C243.276 165.264 243.949 165.878 244.234 165.929L243.696 167.032H242.62C242.379 165.213 242.466 165.897 241.545 164.826C239.357 162.284 236.458 163.311 236.656 166.969C235.611 167.178 234.536 166.95 233.485 167.026L235.63 166.468V165.929L232.749 165.91L232.409 167.026C227.798 167.457 222.823 168.281 218.44 169.783C217.76 170.017 216.932 170.068 216.289 170.334C216.042 169.561 216.672 169.105 216.827 168.68C217.983 168.604 219.021 167.862 220.053 167.577C224.949 166.214 230.53 165.574 235.58 165.314L236.174 160.415L236.711 159.869L234.023 160.415C232.786 160.415 231.482 160.32 230.265 160.415L228.114 160.966C227.434 161.055 226.612 160.852 225.963 160.966C225.079 161.125 224.949 161.505 224.887 161.517C224.559 161.587 224.102 161.429 223.812 161.517C223.638 161.568 223.428 161.46 223.274 161.517C223.268 160.966 223.286 160.415 223.274 159.863C223.774 159.787 224.442 159.977 224.887 159.863C225.332 159.749 225.388 159.318 225.425 159.312C225.604 159.293 225.783 159.331 225.963 159.312C229.838 158.868 233.85 158.76 237.756 158.729L238.318 155.458C234.727 155.458 231.105 155.261 227.576 156.003C227.656 155.496 227.458 154.78 227.576 154.349C229.313 154.095 236.186 154.108 236.989 153.258C237.373 152.853 237.478 152.213 236.977 152.149C234.777 152.396 231.216 152.238 229.189 152.701C229.041 151.965 229.399 150.482 229.189 149.943C232.069 149.538 234.832 148.504 237.787 148.847V146.089L228.114 147.192C228.163 146.837 228.033 146.375 228.114 146.089C230.617 144.283 239.202 146.654 238.046 142.781L229.183 143.884C229.566 143.18 229.653 142.87 230.258 142.229L242.076 141.12C240.76 139.257 234.375 140.049 232.403 140.575C232.378 140.112 232.836 139.764 232.941 139.472L242.07 138.914C243.665 132.671 240.5 133.165 235.63 133.964C236.099 132.912 236.062 129.584 238.318 129.007C239.165 128.792 240.581 129.159 241.545 129.007L241.57 129.026ZM237.268 149.962C235.5 150.343 233.652 150.406 231.884 150.774C231.309 150.894 230.147 150.812 230.289 151.604C232.174 151.065 234.023 151.179 235.939 151.059C237.014 150.989 237.49 151.49 237.268 149.962ZM244.252 152.713H241.032V153.81H244.252V152.713ZM241.032 162.627C241.205 161.315 240.272 158.817 238.621 159.331L237.805 162.633H241.032V162.627Z" fill="#CA772C"/>
<path d="M212.556 235.888C214.181 236.192 213.588 235.045 213.631 233.986C214.058 222.906 213.316 211.719 213.631 200.633H217.933V248.558H215.244V250.764C209.521 250.764 203.772 250.764 198.049 250.764C198.352 250.257 198.519 249.699 198.587 249.11C199.786 249.192 200.478 249.135 200.738 247.734C201.387 244.204 200.713 236.661 200.738 232.585C200.744 230.937 200.731 229.277 200.738 227.629C202.363 227.324 201.77 228.472 201.813 229.53C202.048 235.672 201.634 241.865 201.813 248.007L205.608 246.017C205.664 241.269 205.417 236.484 205.571 231.736C205.608 230.677 205.021 229.524 206.647 229.834C206.64 230.937 206.647 232.04 206.647 233.137C206.665 237.536 206.634 241.96 206.647 246.359L212.018 245.801C212.191 242.467 212.605 239.254 212.556 235.888ZM203.42 249.104H212.018V247.456C209.267 247.899 204.891 246.131 203.42 249.104Z" fill="#D86807"/>
<path d="M193.747 259.574H288.31C288.291 260.126 288.329 260.677 288.31 261.229H270.577C256.206 261.229 241.668 261.286 227.297 261.78C226.259 261.818 225.14 261.216 225.443 262.883C224.367 262.883 223.292 262.883 222.216 262.883C222.284 260.956 222.55 261.362 220.9 261.229C211.461 260.468 201.12 261.799 191.589 261.229C191.571 260.677 191.608 260.126 191.589 259.574H193.74H193.747Z" fill="#CA772C"/>
<path d="M215.245 250.755H216.859C217.934 250.755 219.01 250.755 220.085 250.755C221.161 250.755 222.236 250.755 223.312 250.755C229.215 250.768 235.136 250.742 241.039 250.755C239.438 253.094 235.921 253.297 233.245 253.499C221.896 254.355 208.564 253.499 196.98 253.499L197.518 251.294L198.056 250.742C203.78 250.742 209.528 250.742 215.252 250.742L215.245 250.755Z" fill="#EF9C20"/>
<path d="M272.736 176.943C272.909 177.855 273.311 178.914 274.349 178.597C274.423 178.743 274.275 179.003 274.349 179.148L274.887 179.7C277.971 185.76 278.626 187.693 279.183 194.57C277.254 194.754 277.841 194.71 277.489 193.302C276.321 188.625 275.653 184.853 271.92 181.354C270.993 181.151 267.272 187.522 266.728 188.688C265.98 190.298 265.516 192.218 265.158 193.962L261.449 194.012C262.117 190.292 263.545 186.78 265.529 183.604C266.388 182.223 269.447 178.103 270.56 177.19C271.462 176.448 271.629 176.112 272.73 176.943H272.736Z" fill="#CA772C"/>
<path d="M214.17 185.763C213.41 186.808 211.587 186.181 210.412 186.314C209.881 185.281 207.569 180.508 206.395 180.806C203.829 183.931 201.783 187.854 200.745 191.822H199.132C199.187 191.474 199.07 191.062 199.132 190.719L199.67 189.616C200.745 184.755 201.969 182.283 204.503 178.049L206.908 175.855C209.979 178.727 212.31 182.067 214.176 185.763H214.17Z" fill="#EABF68"/>
<path d="M198.586 200.629C199.414 200.864 200.638 199.869 200.737 201.441C201.281 209.681 200.774 219.239 200.737 227.625C200.731 229.273 200.743 230.934 200.737 232.582L198.586 234.788C198.666 223.423 198.308 211.994 198.586 200.636V200.629Z" fill="#FEEABC"/>
<path d="M270.584 261.223V262.877C255.552 262.934 240.483 262.902 225.451 262.877C225.148 261.216 226.273 261.812 227.305 261.774C241.67 261.28 256.207 261.223 270.584 261.223Z" fill="#B49586"/>
<path d="M279.72 249.104C278.892 248.87 277.668 249.865 277.569 248.293C276.698 235.134 279.38 220.758 279.189 207.238H279.726C279.967 220.834 278.805 235.743 279.726 249.098L279.72 249.104Z" fill="#9CADC3"/>
<path d="M191.603 261.223C201.134 261.787 211.475 260.462 220.913 261.223C222.564 261.356 222.298 260.95 222.23 262.877C212.025 262.852 201.802 262.896 191.603 262.877C191.578 262.326 191.628 261.774 191.603 261.223Z" fill="#EABF68"/>
<path d="M273.809 176.946C273.395 176.255 273.098 176.229 272.734 175.843C272.252 175.329 272.017 174.657 271.158 174.416C270.7 174.214 270.397 174.531 270.045 174.74C270.311 171.399 269.241 165.181 272.456 163.172C274.137 163.584 275.089 175.057 273.803 176.939L273.809 176.946Z" fill="#E49C1E"/>
<path d="M235.661 133.983C240.532 133.184 243.697 132.69 242.102 138.933L232.973 139.491C233.751 137.387 234.765 135.986 235.661 133.983Z" fill="#F9DB83"/>
<path d="M227.602 156.013C231.131 155.271 234.753 155.461 238.344 155.468L237.782 158.738C233.875 158.77 229.87 158.878 225.988 159.322L226.526 156.564C226.885 156.457 227.274 156.083 227.602 156.013Z" fill="#F9DB83"/>
<path d="M280.257 250.756C281.307 250.99 282.748 252.645 283.483 253.513L267.369 252.962L268.272 250.743C271.739 251.295 277.08 250.059 280.263 250.762L280.257 250.756Z" fill="#AA6F49"/>
<path d="M284.553 254.61C285.801 254.648 287.069 254.578 288.317 254.61C288.274 256.258 288.367 257.925 288.317 259.573H277.568L284.225 255.77L284.553 254.616V254.61Z" fill="#CDC9C5"/>
<path d="M198.587 249.103C199.063 244.919 198.556 239.196 198.587 234.784L200.738 232.578C200.714 236.654 201.393 244.197 200.738 247.727C200.479 249.128 199.78 249.185 198.587 249.103Z" fill="#CEB07B"/>
<path d="M288.317 261.223C288.299 261.774 288.342 262.326 288.317 262.877C282.414 262.89 276.487 262.852 270.584 262.877V261.223H288.317Z" fill="#9CADC3"/>
<path d="M218.465 169.789L213.094 178.055C212.537 177.452 210.498 175.602 209.867 175.297C210.213 173.389 214.657 171.031 216.314 170.341C216.951 170.074 217.785 170.024 218.465 169.789Z" fill="#EED8A6"/>
<path d="M228.138 147.204L237.811 146.102V148.859C234.857 148.517 232.094 149.556 229.213 149.955C228.873 149.093 227.711 150.355 228.138 147.198V147.204Z" fill="#F9DB83"/>
<path d="M253.388 162.072C257.14 163.232 259.1 165.603 260.373 169.235C258.698 169.026 257.091 167.999 255.539 167.581L251.781 162.072C252.232 162.193 252.974 161.946 253.394 162.072H253.388Z" fill="#9CADC3"/>
<path d="M208.253 168.133C208.389 169.946 208.124 171.828 208.253 173.641C206.455 173.349 205.861 175.08 204.495 175.847C204.495 173.362 204.304 170.56 204.495 168.133H208.253Z" fill="#EED8A6"/>
<path d="M255.538 167.584C257.089 167.996 258.702 169.023 260.371 169.238C260.563 169.784 260.884 170.284 260.909 170.893C259.704 170.348 258.3 170.17 257.151 169.79C253.275 168.528 248.856 167.324 244.795 167.033V165.93C248.213 166.608 252.014 166.64 255.544 167.584H255.538Z" fill="#CA772C"/>
<path d="M229.214 143.896L238.077 142.793C239.233 146.666 230.642 144.289 228.145 146.102C228.318 145.487 228.88 144.517 229.22 143.896H229.214Z" fill="#EED8A6"/>
<path d="M220.078 167.581C219.052 167.866 218.007 168.608 216.852 168.684C218.143 165.096 219.652 162.884 223.298 161.521C223.453 161.464 223.663 161.572 223.836 161.521L220.078 167.581Z" fill="#EED8A6"/>
<path d="M250.168 156.015C252.275 156.541 252.535 158.842 252.856 160.42L248.561 159.317L246.947 156.015C247.924 156.148 249.327 155.806 250.174 156.015H250.168Z" fill="#CDC9C5"/>
<path d="M193.21 254.611H195.899L193.748 259.568H191.597C191.541 257.939 191.572 256.272 191.652 254.643C192.097 254.421 192.944 254.744 193.21 254.611Z" fill="#EED8A6"/>
<path d="M208.254 168.132H204.496C204.651 166.167 204.898 164.088 206.375 162.637C208.075 164.278 208.093 165.983 208.254 168.132Z" fill="#CEB07B"/>
<path d="M238.342 129.023L239.69 120.758L241.562 129.023C240.604 129.175 239.189 128.808 238.336 129.023H238.342Z" fill="#EABF68"/>
<path d="M229.213 152.712C231.24 152.249 234.801 152.401 237.001 152.16C237.495 152.23 237.397 152.864 237.013 153.269C236.21 154.119 229.336 154.112 227.6 154.36C227.76 153.776 228.644 152.838 229.213 152.705V152.712Z" fill="#EABF68"/>
<path d="M232.434 140.591C234.406 140.065 240.791 139.272 242.107 141.136L230.289 142.245C230.759 141.751 231.859 140.749 232.44 140.591H232.434Z" fill="#EABF68"/>
<path d="M260.91 170.884C263.185 171.917 266.146 173.996 267.895 175.841C267.58 176.056 266.35 176.874 266.282 176.944C266.177 174.085 264.353 174.446 262.876 173.527C262.177 173.09 262.134 172.203 261.572 172C260.509 171.619 257.06 172.006 257.146 169.781C258.302 170.155 259.699 170.339 260.904 170.884H260.91Z" fill="#9CADC3"/>
<path d="M226.526 156.566L225.988 159.324C225.809 159.343 225.63 159.305 225.451 159.324L224.913 159.875C224.474 159.989 223.8 159.799 223.3 159.875C223.293 159.514 223.275 159.134 223.3 158.772V158.221C224.387 156.465 225.067 157.01 226.526 156.566Z" fill="#EED8A6"/>
<path d="M250.168 147.754C250.088 149.13 250.217 149.193 249.092 149.96C248.382 149.922 247.652 150.011 246.941 149.96C246.991 149.168 247.022 148.439 247.479 147.754C248.295 147.887 249.309 147.659 250.168 147.754Z" fill="#CDC9C5"/>
<path d="M248.017 143.896C248.499 144.625 249.804 144.986 250.168 146.653C249.019 146.285 247.554 145.772 246.41 145.55V143.896C246.868 144.003 247.517 143.826 248.023 143.896H248.017Z" fill="#9CADC3"/>
<path d="M197.513 251.309L196.975 253.515H194.824C195.43 253.097 196.005 251.157 197.513 251.309Z" fill="#EED8A6"/>
<path d="M247.479 153.266C247.887 153.709 248.74 153.716 249.63 154.92L246.41 154.362V153.272H247.486L247.479 153.266Z" fill="#9CADC3"/>
<path d="M273.267 157.663H271.66L272.204 154.367L273.267 157.663Z" fill="#845331"/>
<path d="M200.731 191.82C200.577 192.397 200.849 193.354 200.731 194.026H199.118C199.192 193.316 199.013 192.492 199.118 191.82H200.731Z" fill="#EED8A6"/>
<path d="M273.81 176.943C273.983 177.228 274.076 178.046 274.348 178.597C273.31 178.914 272.908 177.855 272.735 176.943C272.673 176.607 272.778 176.195 272.735 175.84C273.1 176.226 273.396 176.252 273.81 176.943Z" fill="#8E4721"/>
<path d="M198.586 196.225L200.737 196.504V197.322H198.586C198.605 196.954 198.561 196.586 198.586 196.219V196.225Z" fill="#C48D66"/>
<path d="M206.64 154.918H205.57V157.117H206.64V154.918Z" fill="#BC8C39"/>
<path d="M247.477 142.247H245.87C245.58 141.1 246.408 141.214 246.402 141.145C246.927 141.379 247.212 141.74 247.477 142.247Z" fill="#CDC9C5"/>
<path d="M198.587 198.432L200.744 198.705L198.587 198.977C198.587 198.793 198.581 198.61 198.587 198.426V198.432Z" fill="#CEB07B"/>
<path d="M249.092 149.955C248.313 150.481 247.942 150.709 246.941 150.507C246.935 150.329 246.928 150.133 246.941 149.955C247.652 150.006 248.375 149.917 249.092 149.955Z" fill="#8B6873"/>
<path d="M199.123 190.716C199.284 189.829 199.648 189.677 199.661 189.613L199.123 190.716Z" fill="#845331"/>
<path d="M274.885 179.7L274.348 179.148C274.409 179.263 274.737 179.415 274.885 179.7Z" fill="#8E4721"/>
<path d="M223.3 158.77C223.312 158.605 222.861 158.929 223.3 158.219V158.77Z" fill="#8B6873"/>
<path d="M233.51 167.033C234.561 166.957 235.637 167.185 236.681 166.976C236.483 163.318 239.382 162.291 241.57 164.833C241.502 166.107 241.669 167.419 241.57 168.687C240.155 168.009 239.191 168.592 238.344 168.687C238.165 168.706 237.979 168.655 237.806 168.687C237.602 168.725 237.398 169.194 237.268 169.238C237.163 169.27 236.471 168.579 236.255 168.738C236.131 168.826 236.032 169.79 235.334 170.272C233.9 171.254 231.879 171.818 230.321 172.864C223.664 177.345 220.821 182.461 220.06 190.72L217.471 184.299C216.166 182.657 214.3 179.374 213.082 178.055L218.453 169.79C222.836 168.294 227.811 167.464 232.422 167.033C232.775 167.001 233.139 167.058 233.498 167.033H233.51Z" fill="#F9DB83"/>
<path d="M226.526 198.977V240.012C225.246 241.521 222.922 240.633 221.154 240.836V198.977H226.526Z" fill="#D86807"/>
<path d="M239.956 178.597C239.666 178.977 239.103 179.32 238.881 179.7C238.108 181.025 238.096 182.711 237.478 184.048C236.915 185.284 234.641 188.453 234.56 189.379C234.412 191.122 237.484 193.391 236.674 195.622C229.183 196.25 228.732 204.642 230.326 210.67C230.45 211.126 231.272 210.923 231.396 211.893C232.137 217.712 230.091 229.388 229.745 235.891H228.132C228.033 220.247 228.101 204.572 228.262 188.929C228.552 187.148 230.351 183.725 231.631 182.47C232.391 181.722 237.428 178.673 238.386 178.331C239.344 177.988 239.32 178.375 239.95 178.61L239.956 178.597Z" fill="#CDC9C5"/>
<path d="M243.72 167.031C244.078 167.031 244.443 167.005 244.795 167.031C248.856 167.322 253.276 168.52 257.151 169.788C257.059 172.013 260.514 171.626 261.577 172.007C262.145 172.209 262.183 173.097 262.881 173.534C264.358 174.46 266.182 174.092 266.287 176.951C265.52 177.711 261.033 184.424 260.47 185.584L258.233 191.821C258.387 185.235 255.495 178.852 250.426 174.764C249.011 173.623 243.182 170.809 242.91 170.352C242.335 169.37 242.78 168.07 242.651 167.043H243.726L243.72 167.031Z" fill="#DEA23F"/>
<path d="M271.657 215.5C271.67 216.419 271.651 217.338 271.657 218.257L271.12 219.912C268.944 220.336 268.548 225.116 266.286 226.523C266.255 217.719 266.255 208.889 266.286 200.085L265.748 199.533C265.73 195.762 266.762 190.038 269.5 187.414C272.387 196.453 271.54 206.113 271.657 215.506V215.5Z" fill="#CDC9C5"/>
<path d="M243.72 216.052C244.017 223.798 243.436 231.505 242.948 239.219C241.977 240.646 236.297 239.137 234.634 239.137C233.763 235.175 234.097 231.106 234.053 227.068C235.246 227.106 235.493 226.333 236.105 225.592C238.182 223.069 240.092 220.033 242.089 217.377C242.577 216.724 242.571 215.78 243.72 216.052Z" fill="#E49C1E"/>
<path d="M235.66 171.988C236.773 171.437 238.04 169.649 239.418 169.998C249.104 174.65 257.831 180.412 256.614 192.918H251.78C251.78 184.405 246.298 179.347 238.88 176.939C239.338 176.698 240.438 176.336 240.518 176.032L240.494 171.424C239.696 170.587 235.957 175.386 235.66 171.975V171.988Z" fill="#DC6E0C"/>
<path d="M235.661 171.989C235.958 175.392 239.697 170.594 240.494 171.437L240.519 176.045C240.439 176.35 239.339 176.705 238.881 176.952C231.6 180.831 226.365 182.897 226.525 192.931H221.686C221.203 181.23 226.315 176.609 235.661 171.995V171.989Z" fill="#E49027"/>
<path d="M251.244 225.972C251.219 217.167 251.263 208.332 251.244 199.527H257.159C257.147 206.5 257.166 213.491 257.159 220.464L254.879 221.712L251.244 225.972Z" fill="#CA772C"/>
<path d="M212.018 209.992C210.572 212.933 209.694 216.096 208.155 219.006C207.753 219.773 207.951 220.749 206.641 220.457C206.672 218.163 207.147 216.16 207.203 214.144C207.438 204.991 206.233 195.731 208.798 186.857C209.509 186.102 211.592 191.243 211.746 191.813C213.106 196.77 212.012 204.497 212.018 209.992Z" fill="#DEDAD1"/>
<path d="M271.121 219.914H271.659V246.358H266.282C266.263 240.121 266.313 233.865 266.282 227.628C266.282 227.26 266.282 226.893 266.282 226.525C268.55 225.124 268.939 220.339 271.115 219.914H271.121Z" fill="#ABA19C"/>
<path d="M241.571 179.702C243.772 180.811 246.09 181.933 247.758 184.094C252.376 190.065 249.792 198.768 249.625 205.588H249.087C249.013 203.877 248.642 200.194 247.944 198.774C246.541 195.922 243.772 197.5 242.134 195.32L245.243 189.419C243.401 186.966 241.027 183.429 241.027 180.247C241.027 179.987 241.281 179.695 241.565 179.695L241.571 179.702Z" fill="#CDC9C5"/>
<path d="M234.047 227.068C233.979 221.332 233.732 215.57 235.123 209.992H243.183C243.51 212.04 243.64 213.973 243.72 216.052C242.571 215.779 242.577 216.73 242.089 217.377C240.092 220.032 238.182 223.069 236.105 225.591C235.494 226.333 235.246 227.1 234.053 227.068H234.047Z" fill="#EFB81B"/>
<path d="M257.154 220.465C257.147 227.253 257.154 234.061 257.154 240.85H251.238C251.238 235.899 251.257 230.923 251.238 225.973L254.873 221.714L257.154 220.465Z" fill="#E49C1E"/>
<path d="M212.018 233.681L206.647 233.129C206.647 232.026 206.64 230.924 206.647 229.827C206.665 226.715 206.603 223.577 206.647 220.465C207.957 220.756 207.753 219.78 208.161 219.013C209.7 216.098 210.578 212.941 212.024 210C212.024 217.885 211.931 225.802 212.024 233.687L212.018 233.681Z" fill="#C7B698"/>
<path d="M249.629 205.586C249.314 218.967 249.864 232.417 249.629 245.798H242.639V244.143L248.047 243.256C248.331 239.345 244.975 223.448 246.941 221.008C248.906 218.567 249.265 209.586 249.092 205.586H249.629Z" fill="#BF9EAB"/>
<path d="M240.495 197.882H242.108C242.126 198.611 242.083 199.353 242.108 200.088C240.247 199.29 238.356 197.952 237.509 200.621C236.941 202.408 238.041 203.707 235.389 203.948C233.708 204.1 235.952 201.781 234.314 201.755C233.93 201.755 232.132 207.384 232.441 207.802C235.043 205.216 238.894 205.032 238.888 200.646C240.927 200.545 240.742 203.074 240.26 204.538C239.592 206.56 233.603 209.704 231.365 210.008V201.47C231.365 201.02 232.484 198.554 233.102 198.263C235.71 197.039 237.967 197.787 240.501 197.895L240.495 197.882Z" fill="#F5D268"/>
<path d="M212.017 233.682C212.017 233.796 212.542 234.753 212.555 235.888C212.598 239.247 212.19 242.467 212.017 245.801L206.646 246.359C206.633 241.96 206.664 237.536 206.646 233.137L212.017 233.688V233.682Z" fill="#B49586"/>
<path d="M246.941 220.463H245.328C246.31 213.998 245.309 207.64 244.79 201.188C243.572 200.871 243.523 201.682 243.331 202.69C242.973 204.553 243.263 206.474 243.183 208.35H238.881C241.477 205.745 242.231 203.888 242.107 200.085C242.083 199.349 242.126 198.614 242.107 197.879C243.51 198.05 244.512 197.663 245.865 198.709C249.203 201.283 246.737 216.09 246.941 220.463Z" fill="#EFB81B"/>
<path d="M221.154 249.102V247.454C229.764 248.379 239.351 245.989 247.788 246.864C249.315 247.023 249.927 247.511 251.244 248.011C251.386 248.227 250.533 249.102 250.44 249.102H221.154Z" fill="#CA772C"/>
<path d="M220.077 200.633H219.002V249.104H220.077V200.633Z" fill="#CA772C"/>
<path d="M259.303 241.395L258.228 240.578L258.203 208.042L259.303 201.184V241.395Z" fill="#BC8C39"/>
<path d="M206.11 192.925L202.352 193.476C202.481 191.619 202.568 190.345 203.174 188.532C203.711 186.929 206.042 181.503 207.661 183.905C208.712 185.465 206.505 190.485 206.11 192.925Z" fill="#D5A547"/>
<path d="M232.972 221.56V240.291C233.955 240.227 235.339 240.532 235.117 241.939L231.47 241.565L230.771 240.576C231.748 234.656 231.173 228.266 231.89 222.378C232.014 221.37 231.717 221.491 232.966 221.56H232.972Z" fill="#E49C1E"/>
<path d="M214.17 185.762C215.401 188.196 216.859 190.528 216.853 193.469L213.163 193.4C212.767 190.604 211.636 188.722 210.406 186.313C211.581 186.18 213.404 186.808 214.164 185.762H214.17Z" fill="#D5A547"/>
<path d="M205.572 200.631C205.479 202.558 205.974 206.526 205.485 207.978C205.306 208.504 202.599 211.09 202.345 209.176C202.049 206.875 202.37 203.642 202.345 201.176L205.572 200.625V200.631Z" fill="#CA772C"/>
<path d="M229.753 235.887C229.45 241.591 227.997 243.778 235.13 243.049V245.249L228.455 245.261C227.905 245.179 228.152 237.034 228.146 235.887H229.759H229.753Z" fill="#B49586"/>
<path d="M206.109 192.922C205.67 195.647 205.701 197.936 205.571 200.636L202.344 201.187C202.32 198.709 202.171 195.907 202.344 193.473L206.102 192.922H206.109Z" fill="#BC8C39"/>
<path d="M244.797 227.069L246.955 242.212L242.646 242.49V240.842L244.192 240.798C243.92 239.822 244.797 238.275 244.797 237.806V227.062V227.069Z" fill="#BC8C39"/>
<path d="M238.726 188.606C242.997 187.313 243.436 194.089 239.183 193.487C236.692 193.132 236.575 189.259 238.726 188.606Z" fill="#F5D268"/>
<path d="M238.344 240.844C239.079 247.474 235.463 247.449 236.199 240.844H238.344Z" fill="#CA772C"/>
<path d="M241.571 240.836H239.426V245.248H241.571V240.836Z" fill="#CA772C"/>
<path d="M241.569 187.409L237.811 187.143C238.775 185.894 241.043 185.875 241.569 187.409Z" fill="#BC8C39"/>
<path d="M258.759 198.433C256.818 197.635 258.759 195.08 258.233 193.477L258.759 198.433Z" fill="#BC8C39"/>
<path d="M241.032 195.129H238.35V196.225H241.032V195.129Z" fill="#D5A547"/>
<path d="M241.57 179.701C241.285 179.701 241.032 179.992 241.032 180.252L238.881 179.701C239.103 179.32 239.666 178.978 239.956 178.598C240.748 178.889 241.118 179.472 241.57 179.701Z" fill="#C7B698"/>
<path d="M218.459 192.366L214.707 183.004C217 185.248 218.187 189.197 218.459 192.366Z" fill="#CA772C"/>
<path d="M220.078 250.756C219.003 250.756 217.927 250.756 216.852 250.756C217.395 249.856 219.565 249.869 220.078 250.756Z" fill="#CA772C"/>
<path d="M241.57 168.687C241.539 169.048 241.595 169.422 241.57 169.79L238.35 168.687C239.196 168.592 240.161 168.009 241.576 168.687H241.57Z" fill="#CA772C"/>
<path d="M246.941 220.465V221.01L245.334 220.465H246.941Z" fill="#CA772C"/>
<path d="M242.107 197.882H240.494C240.908 197.901 240.939 197.743 242.107 197.882Z" fill="#BC8C39"/>
<path d="M237.275 169.235C237.405 169.191 237.609 168.722 237.813 168.684L237.275 169.235Z" fill="#CA772C"/>
<path d="M266.288 200.079C266.288 200.041 265.75 199.908 265.75 199.527L266.288 200.079Z" fill="#AA6F49"/>
<path d="M273.271 254.611L271.658 259.567H227.6C228.502 257.723 231.055 256.937 230.826 254.611C244.968 254.611 259.135 254.573 273.271 254.611Z" fill="#BC8C39"/>
<path d="M230.822 254.609C231.057 256.936 228.498 257.722 227.595 259.566H193.748L195.899 254.609C207.532 254.609 219.189 254.609 230.822 254.609Z" fill="#EFBB2B"/>
<path d="M284.554 254.612L284.226 255.765L277.569 259.568H271.66L273.273 254.612C277.019 254.624 280.814 254.504 284.554 254.612Z" fill="#C48D66"/>
<path d="M271.659 219.912H271.121L271.659 218.258C271.659 218.809 271.659 219.361 271.659 219.912Z" fill="#B49586"/>
<path d="M234.047 160.421H236.198L235.605 165.321C230.555 165.581 224.973 166.221 220.078 167.584L223.836 161.524C224.127 161.435 224.584 161.594 224.912 161.524L225.987 160.973C226.636 160.859 227.458 161.061 228.138 160.973C229.004 160.859 230.104 160.434 230.289 160.421C231.507 160.326 232.817 160.421 234.047 160.421Z" fill="#F9DB83"/>
<path d="M251.781 162.075L255.539 167.583C252.01 166.639 248.209 166.607 244.791 165.929C244.618 165.897 244.426 165.96 244.253 165.929C243.969 165.872 243.295 165.263 242.751 165.289L241.57 160.427C245.026 160.319 248.456 161.2 251.781 162.075Z" fill="#E49C1E"/>
<path d="M246.94 156.015L248.554 159.317C247.132 159.507 244.066 159.564 242.317 159.349C241.526 159.254 241.532 159.095 241.031 158.766L243.64 158.69L244.258 155.457C245.012 155.514 246.026 155.888 246.946 156.008L246.94 156.015Z" fill="#E49C1E"/>
<path d="M244.258 155.463L243.64 158.696L241.031 158.772C239.64 157.859 239.9 157.098 239.956 155.469C241.377 155.539 242.842 155.362 244.258 155.469V155.463Z" fill="#F1BD2D"/>
<path d="M247.479 147.755C247.021 148.433 246.99 149.169 246.941 149.961C245.526 149.86 244.042 149.644 242.645 149.41L242.107 146.652C244.153 146.69 245.742 147.47 247.479 147.755Z" fill="#E49C1E"/>
<path d="M246.404 143.896V145.55C244.84 145.252 243.165 145.081 241.57 144.999V142.793C243.622 142.863 244.692 143.497 246.404 143.896Z" fill="#D5A547"/>
<path d="M241.031 162.626H237.805L238.621 159.33C240.271 158.817 241.204 161.32 241.031 162.626Z" fill="#EABF68"/>
<path d="M242.107 146.653L242.645 149.41C242.472 149.379 242.28 149.442 242.107 149.41L240.494 148.859V146.653C241.032 146.647 241.57 146.647 242.107 146.653Z" fill="#EABF68"/>
<path d="M237.268 149.961C237.49 151.495 237.014 150.994 235.939 151.058C234.023 151.178 232.175 151.058 230.289 151.603C230.147 150.804 231.303 150.893 231.884 150.772C233.652 150.405 235.506 150.341 237.268 149.961Z" fill="#D5A547"/>
<path d="M241.568 142.798V145.004C241.031 144.979 240.493 145.036 239.955 145.004V143.083C240.079 142.57 241.117 142.792 241.568 142.805V142.798Z" fill="#F9DB83"/>
<path d="M244.259 152.711H241.039V153.808H244.259V152.711Z" fill="#F1BD2D"/>
<path d="M232.436 167.03L232.776 165.914L235.656 165.933V166.472L233.511 167.03C233.159 167.055 232.788 166.998 232.436 167.03Z" fill="#CA772C"/>
<path d="M234.047 160.42L236.736 159.875L236.198 160.42H234.047Z" fill="#BC8C39"/>
<path d="M230.29 160.418C230.11 160.431 229.004 160.855 228.139 160.969L230.29 160.418Z" fill="#BC8C39"/>
<path d="M242.107 149.404C241.724 149.341 241.23 149.512 240.809 149.36L240.494 148.859L242.107 149.411V149.404Z" fill="#D5A547"/>
<path d="M225.988 160.973L224.912 161.524C224.974 161.511 225.098 161.131 225.988 160.973Z" fill="#BC8C39"/>
<path d="M224.912 159.868L225.45 159.316C225.413 159.316 225.345 159.76 224.912 159.868Z" fill="#F9DB83"/>
<path d="M203.42 249.101C204.891 246.128 209.261 247.897 212.018 247.453V249.101H203.42Z" fill="#97541B"/>
<path d="M244.796 165.927V167.03C244.444 167.005 244.079 167.03 243.721 167.03L244.258 165.927C244.432 165.959 244.623 165.895 244.796 165.927Z" fill="#CA772C"/>
<path d="M238.568 157.414C236.593 159.123 236.398 165.978 236.548 169.192" stroke="#B76A28" stroke-width="1.5" stroke-linecap="round"/>
<line x1="238.271" y1="156.875" x2="241.008" y2="156.875" stroke="#B66521"/>
<path d="M240.391 157.376C242.442 159.171 242.296 166.027 241.966 169.23" stroke="#B76A28" stroke-width="1.5" stroke-linecap="round"/>
<line x1="270.195" y1="166.656" x2="273.844" y2="166.656" stroke="#C77027" stroke-width="1.5"/>
<path d="M238.957 171.055V176.527" stroke="#EDB019" stroke-width="1.5" stroke-linecap="round"/>
<path d="M222.953 186.477L226.414 187.472" stroke="#EDB019" stroke-width="1.5" stroke-linecap="round"/>
<path d="M251.953 187.953L255.274 186.56" stroke="#EDB019" stroke-width="1.5" stroke-linecap="round"/>
<path d="M247.393 180.023L249.901 177.44" stroke="#EDB019" stroke-width="1.5" stroke-linecap="round"/>
<path d="M230.568 181.098L228.239 178.35" stroke="#EDB019" stroke-width="1.5" stroke-linecap="round"/>
<path d="M227.438 184.207L224.591 182.001" stroke="#EDB019" stroke-width="1.5" stroke-linecap="round"/>
<path d="M253.23 182L250.128 183.829" stroke="#EDB019" stroke-width="1.5" stroke-linecap="round"/>
<path d="M234.883 177.625L233.045 174.528" stroke="#EDB019" stroke-width="1.5" stroke-linecap="round"/>
<path d="M272.02 177.441V180.178" stroke="#ECAD17" stroke-width="1.5" stroke-linecap="round"/>
<path d="M262.898 191.203L264.674 192.032" stroke="#ECAD17" stroke-width="1.5" stroke-linecap="round"/>
<path d="M266.83 186.113L266.547 183.824" stroke="#ECAD17" stroke-width="1.5" stroke-linecap="round"/>
<path d="M265.496 189.109L264.723 187.474" stroke="#ECAD17" stroke-width="1.5" stroke-linecap="round"/>
<path d="M269.314 182.758L268.372 180.177" stroke="#ECAD17" stroke-width="1.5" stroke-linecap="round"/>
<path d="M243.744 178.133L244.838 174.701" stroke="#EDB019" stroke-width="1.5" stroke-linecap="round"/>
<path d="M206.35 177.441V180.178" stroke="#FFDE8D" stroke-width="1.5" stroke-linecap="round"/>
<path d="M213.646 190.465L215.317 189.297" stroke="#FFDE8D" stroke-width="1.5" stroke-linecap="round"/>
<path d="M210.91 184.957L212.138 182.913" stroke="#FFDE8D" stroke-width="1.5" stroke-linecap="round"/>
<path d="M213.529 185.699L211.969 187.232" stroke="#FFDE8D" stroke-width="1.5" stroke-linecap="round"/>
<path d="M208.758 182.461L209.308 179.585" stroke="#FFDE8D" stroke-width="1.5" stroke-linecap="round"/>
<line x1="239.684" y1="146.43" x2="239.684" y2="156.463" stroke="#B66521"/>
</g>
</g>
<defs>
<linearGradient id="paint0_linear_251_102600" x1="238.5" y1="-873" x2="243.326" y2="-351.512" gradientUnits="userSpaceOnUse">
<stop offset="0.332725" stop-color="#FAC768"/>
<stop offset="1" stop-color="#F58A39"/>
</linearGradient>
<clipPath id="clip0_251_102600">
<rect width="411" height="620" fill="white"/>
</clipPath>
<clipPath id="clip1_251_102600">
<rect width="411" height="620" fill="white"/>
</clipPath>
</defs>
</svg>
