<svg width="5" height="21" viewBox="0 0 5 21" fill="none" xmlns="http://www.w3.org/2000/svg">
<path d="M2.296 4.144C1.60534 4.144 1.04534 3.95734 0.616005 3.584C0.205338 3.192 4.76837e-06 2.688 4.76837e-06 2.072C4.76837e-06 1.456 0.205338 0.961338 0.616005 0.588005C1.04534 0.196004 1.60534 3.8147e-06 2.296 3.8147e-06C2.98667 3.8147e-06 3.54667 0.196004 3.976 0.588005C4.424 0.961338 4.64801 1.456 4.64801 2.072C4.64801 2.688 4.424 3.192 3.976 3.584C3.54667 3.95734 2.98667 4.144 2.296 4.144ZM2.324 20.16C1.74534 20.16 1.29734 20.0107 0.980005 19.712C0.662671 19.4133 0.504005 19.0027 0.504005 18.48V7.56C0.504005 7.03734 0.662671 6.62667 0.980005 6.328C1.29734 6.02934 1.74534 5.88 2.324 5.88C2.884 5.88 3.332 6.02934 3.668 6.328C4.004 6.62667 4.172 7.03734 4.172 7.56V18.48C4.172 19.0027 4.004 19.4133 3.668 19.712C3.332 20.0107 2.884 20.16 2.324 20.16Z" fill="white"/>
</svg>
