<svg width="17" height="17" viewBox="0 0 17 17" fill="none" xmlns="http://www.w3.org/2000/svg">
<path d="M16.334 8.18951C16.334 12.4235 12.8024 15.879 8.41699 15.879C4.03156 15.879 0.5 12.4235 0.5 8.18951C0.5 3.95553 4.03156 0.5 8.41699 0.5C12.8024 0.5 16.334 3.95553 16.334 8.18951Z" fill="white" stroke="#75521F"/>
<path d="M8.36411 5.60622C8.06811 5.60622 7.82811 5.52622 7.64411 5.36622C7.46811 5.19822 7.38011 4.98222 7.38011 4.71822C7.38011 4.45422 7.46811 4.24222 7.64411 4.08222C7.82811 3.91422 8.06811 3.83022 8.36411 3.83022C8.66011 3.83022 8.90011 3.91422 9.08411 4.08222C9.27611 4.24222 9.37211 4.45422 9.37211 4.71822C9.37211 4.98222 9.27611 5.19822 9.08411 5.36622C8.90011 5.52622 8.66011 5.60622 8.36411 5.60622ZM8.37611 12.4702C8.12811 12.4702 7.93611 12.4062 7.80011 12.2782C7.66411 12.1502 7.59611 11.9742 7.59611 11.7502V7.07022C7.59611 6.84622 7.66411 6.67022 7.80011 6.54222C7.93611 6.41422 8.12811 6.35022 8.37611 6.35022C8.61611 6.35022 8.80811 6.41422 8.95211 6.54222C9.09611 6.67022 9.16811 6.84622 9.16811 7.07022V11.7502C9.16811 11.9742 9.09611 12.1502 8.95211 12.2782C8.80811 12.4062 8.61611 12.4702 8.37611 12.4702Z" fill="#8B724E"/>
</svg>
