<svg width="51" height="63" viewBox="0 0 51 63" fill="none" xmlns="http://www.w3.org/2000/svg">
<path d="M25.5 1C39.031 1 50 11.969 50 25.5C50 28.9705 48.6725 32.9753 46.7178 36.9629C44.7531 40.9706 42.1067 45.0563 39.3623 48.7168C36.6175 52.3779 33.7564 55.6384 31.3477 57.9932C30.1453 59.1686 29.0382 60.1351 28.1025 60.8154C27.6356 61.1549 27.1917 61.4379 26.7852 61.6396C26.4017 61.8299 25.9513 62 25.5 62C25.0487 62 24.5983 61.8299 24.2148 61.6396C23.8083 61.4379 23.3644 61.1549 22.8975 60.8154C21.9618 60.1351 20.8547 59.1686 19.6523 57.9932C17.2436 55.6384 14.3825 52.3779 11.6377 48.7168C8.89331 45.0563 6.24689 40.9706 4.28223 36.9629C2.32751 32.9753 1 28.9705 1 25.5C1 11.969 11.969 1 25.5 1Z" fill="white" stroke="#BF4B17" stroke-width="2"/>
<circle cx="25.5" cy="25.5" r="20.5" fill="#FF7300"/>
<rect x="15" y="34.5" width="5.2381" height="6" rx="2" fill="#252215"/>
<rect x="15.25" y="34.75" width="4.7381" height="5.5" rx="1.25" stroke="#110B07" stroke-width="0.5"/>
<rect x="15" y="36.5" width="5.2381" height="2" fill="#040302"/>
<rect x="31.7617" y="34.5" width="5.2381" height="6" rx="2" fill="#252215"/>
<rect x="32.0117" y="34.75" width="4.7381" height="5.5" rx="1.25" stroke="#110B07" stroke-width="0.5"/>
<rect x="31.7617" y="36.5" width="5.2381" height="2" fill="#040302"/>
<path d="M18.5 36.5H35.5C37.1569 36.5 38.5 35.1569 38.5 33.5V15C38.5 15 33.1343 23.3558 28.5 28C24.9674 31.5401 18.5 36.5 18.5 36.5Z" fill="url(#paint0_linear_514_9039)"/>
<path fill-rule="evenodd" clip-rule="evenodd" d="M13 15.5C13 13.8431 14.3431 12.5 16 12.5H20V11C20 10.4477 20.4477 10 21 10H29.5L26 12.5H31H36C37.3807 12.5 38.5 13.6193 38.5 15C38.5 15 33.1343 23.3558 28.5 28C24.9674 31.5401 18.5 36.5 18.5 36.5H16C14.3431 36.5 13 35.1569 13 33.5V15.5Z" fill="#FBF1D9"/>
<path d="M31 12.5V11C31 10.4477 30.5523 10 30 10H29.5L26 12.5H31Z" fill="#E1D0B6"/>
<path d="M30 10.25C30.6904 10.25 31.25 10.8096 31.25 11.5V12.25H36C37.5188 12.25 38.75 13.4812 38.75 15V33.5C38.75 35.2949 37.2949 36.75 35.5 36.75H16C14.2051 36.75 12.75 35.2949 12.75 33.5V15.5C12.75 13.7051 14.2051 12.25 16 12.25H19.75V11.5C19.75 10.8096 20.3096 10.25 21 10.25H30Z" stroke="#261E18" stroke-width="0.5"/>
<rect x="12.8" y="15.8" width="25.9" height="9.4" fill="url(#paint1_linear_514_9039)"/>
<rect x="12.8" y="15.8" width="25.9" height="9.4" stroke="#261E18" stroke-width="0.4"/>
<path d="M13 22.5H38.5V24H13V22.5Z" fill="#090702"/>
<path fill-rule="evenodd" clip-rule="evenodd" d="M37 17H31.2676C30.7153 17 30.2676 17.4477 30.2676 18V23C30.2676 23.5523 30.7153 24 31.2676 24H32L37.25 17.25L37 17Z" fill="#E2EEFF"/>
<path d="M32 24H36.5C37.0523 24 37.5 23.5523 37.5 23V17.5L37.25 17.25L32 24Z" fill="#DBE1EF"/>
<path d="M28.2341 24C28.7864 24 29.2341 23.5523 29.2341 23V17.7341C29.2341 17.3287 28.9054 17 28.5 17L23.5 24H28.2341Z" fill="#F4F1FF"/>
<path d="M23.2021 17C22.6498 17 22.2021 17.4477 22.2021 18V23C22.2021 23.5523 22.6498 24 23.2021 24H23.5L28.5 17H23.2021Z" fill="#FFFCFE"/>
<path d="M20 24C20.5523 24 21 23.5523 21 23V18C21 17.4477 20.5523 17 20 17L15 24H20Z" fill="#FFFCFE"/>
<path d="M15 17C14.4477 17 14 17.4477 14 18V23C14 23.5523 14.4477 24 15 24L20 17H15Z" fill="#FBF2FF"/>
<path d="M14.9673 16.9502H20.2651C20.707 16.9502 21.0649 17.3082 21.0649 17.75V23.25C21.0649 23.6918 20.707 24.0498 20.2651 24.0498H14.9673C14.5255 24.0498 14.1675 23.6918 14.1675 23.25V17.75C14.1675 17.3082 14.5255 16.9502 14.9673 16.9502ZM23.1694 16.9502H28.4673C28.9091 16.9502 29.2671 17.3082 29.2671 17.75V23.25C29.2671 23.6918 28.9091 24.0498 28.4673 24.0498H23.1694C22.7276 24.0498 22.3696 23.6918 22.3696 23.25V17.75C22.3696 17.3082 22.7276 16.9502 23.1694 16.9502ZM31.2349 16.9502H36.5327C36.9745 16.9502 37.3325 17.3082 37.3325 17.75V23.25C37.3325 23.6918 36.9745 24.0498 36.5327 24.0498H31.2349C30.793 24.0498 30.4351 23.6918 30.4351 23.25V17.75C30.4351 17.3082 30.793 16.9502 31.2349 16.9502Z" stroke="black" stroke-width="0.4"/>
<path d="M20 12H31V12.5H20V12Z" fill="#755E4B"/>
<path fill-rule="evenodd" clip-rule="evenodd" d="M28.5 28H22.2C22.0895 28 22 28.0895 22 28.2V33.8398L28.5 28Z" fill="#DCBB95"/>
<path d="M28.8 34.5C28.9105 34.5 29 34.4105 29 34.3V28.2C29 28.0895 28.9105 28 28.8 28H28.5L22 33.8398L22 34.3C22 34.4105 22.0895 34.5 22.2 34.5H28.8Z" fill="url(#paint2_linear_514_9039)"/>
<path d="M28.7998 27.75C29.0483 27.75 29.25 27.9517 29.25 28.2002V34.2998C29.25 34.5483 29.0483 34.75 28.7998 34.75H22.2002C21.9517 34.75 21.75 34.5483 21.75 34.2998V28.2002C21.75 27.9517 21.9517 27.75 22.2002 27.75H28.7998Z" stroke="#755E4B" stroke-width="0.5"/>
<path d="M22 28.9286H29" stroke="#755E4B" stroke-width="0.5"/>
<path d="M22 30.1286H29" stroke="#755E4B" stroke-width="0.5"/>
<path d="M22 31.3286H29" stroke="#755E4B" stroke-width="0.5"/>
<path d="M22 32.5286H29" stroke="#755E4B" stroke-width="0.5"/>
<path d="M22 33.7286H29" stroke="#755E4B" stroke-width="0.5"/>
<path d="M25.5 26.7002C26.218 26.7002 26.7998 27.282 26.7998 28C26.7998 28.718 26.218 29.2998 25.5 29.2998C24.782 29.2998 24.2002 28.718 24.2002 28C24.2002 27.282 24.782 26.7002 25.5 26.7002Z" fill="#E0D6CC" stroke="#755E4B" stroke-width="0.4"/>
<path d="M35.25 27.7002C35.8299 27.7002 36.2998 28.1701 36.2998 28.75C36.2998 29.3299 35.8299 29.7998 35.25 29.7998C34.6701 29.7998 34.2002 29.3299 34.2002 28.75C34.2002 28.1701 34.6701 27.7002 35.25 27.7002Z" fill="#E18231" stroke="#43382F" stroke-width="0.4"/>
<path d="M16.25 27.7002C16.8299 27.7002 17.2998 28.1701 17.2998 28.75C17.2998 29.3299 16.8299 29.7998 16.25 29.7998C15.6701 29.7998 15.2002 29.3299 15.2002 28.75C15.2002 28.1701 15.6701 27.7002 16.25 27.7002Z" fill="#F8B136" stroke="#755E4B" stroke-width="0.4"/>
<path d="M35.25 30.4502C35.8299 30.4502 36.2998 30.9201 36.2998 31.5C36.2998 32.0799 35.8299 32.5498 35.25 32.5498C34.6701 32.5498 34.2002 32.0799 34.2002 31.5C34.2002 30.9201 34.6701 30.4502 35.25 30.4502Z" fill="#BFAFAD" stroke="#43382F" stroke-width="0.4"/>
<path d="M16.25 30.4502C16.8299 30.4502 17.2998 30.9201 17.2998 31.5C17.2998 32.0799 16.8299 32.5498 16.25 32.5498C15.6701 32.5498 15.2002 32.0799 15.2002 31.5C15.2002 30.9201 15.6701 30.4502 16.25 30.4502Z" fill="#DED9D2" stroke="#755E4B" stroke-width="0.4"/>
<defs>
<linearGradient id="paint0_linear_514_9039" x1="25.75" y1="10" x2="25.75" y2="36.5" gradientUnits="userSpaceOnUse">
<stop offset="0.75" stop-color="#ECE0D1"/>
<stop offset="1" stop-color="#CAADA5"/>
</linearGradient>
<linearGradient id="paint1_linear_514_9039" x1="14" y1="16.5" x2="37.5" y2="25" gradientUnits="userSpaceOnUse">
<stop stop-color="#614D1E"/>
<stop offset="0.45826" stop-color="#533E16"/>
<stop offset="1" stop-color="#2B2B1A"/>
</linearGradient>
<linearGradient id="paint2_linear_514_9039" x1="25.5" y1="28" x2="25.5" y2="34.5" gradientUnits="userSpaceOnUse">
<stop stop-color="#B69280"/>
<stop offset="1" stop-color="#CFAE91"/>
</linearGradient>
</defs>
</svg>
