<svg width="22" height="18" viewBox="0 0 22 18" fill="none" xmlns="http://www.w3.org/2000/svg">
<path fill-rule="evenodd" clip-rule="evenodd" d="M1.47852 7.94942V15.8079C1.47852 16.3901 1.70355 16.9484 2.1041 17.3601C2.50466 17.7718 3.04794 18.0031 3.61441 18.0031H12.0567V10.1706H16.6064V18.0031H17.9299C18.3934 18.0031 18.8379 17.8139 19.1656 17.477C19.4934 17.1402 19.6775 16.6833 19.6775 16.207V7.94942H18.8813L18.5937 7.74321C18.2735 7.57866 17.8966 7.57866 17.5764 7.74321L17.2889 7.94942H15.9239L15.6563 7.79222C15.3261 7.59829 14.9234 7.58681 14.5833 7.76161L14.2178 7.94942H12.8529L12.621 7.81324C12.2713 7.60787 11.842 7.60787 11.4923 7.81324L11.2605 7.94942H10.0093L9.6438 7.76161C9.30365 7.58681 8.901 7.59829 8.5708 7.79222L8.30313 7.94942H6.9382L6.53693 7.74321C6.21671 7.57866 5.8398 7.57866 5.51958 7.74321L5.11831 7.94942H3.86713L3.59946 7.79222C3.26926 7.59829 2.86661 7.58681 2.52645 7.76161L2.16098 7.94942H1.47852ZM4.54959 14.8467V10.1706H9.09933V14.8467H4.54959Z" fill="white"/>
<path d="M2.16113 2.45496L0 5.37754C0 7.24799 2.50236 7.36489 2.95733 5.72825L4.436 2.33806H6.82461L6.02841 5.84515C6.02841 5.84515 6.02841 7.01418 7.56394 7.01418C9.09948 7.01418 9.09948 5.84515 9.09948 5.84515V2.33806H12.0568V5.84515C12.0568 5.84515 12.1137 7.01418 13.6492 7.01418C15.1848 7.01418 15.1279 5.84515 15.1279 5.84515L14.3317 2.33806H16.7203L18.4264 5.96206C18.4264 5.96206 18.8814 7.15447 20.1326 6.89728C21.3838 6.64009 21.27 5.37754 21.27 5.37754L18.8814 2.22116V1.67655C18.8814 1.27378 18.7364 0.884474 18.4729 0.579833C18.1545 0.211612 17.6917 0 17.2049 0H4.26847C3.71832 0 3.1887 0.208922 2.78672 0.584515C2.38766 0.957374 2.16113 1.47905 2.16113 2.0252V2.45496Z" fill="white"/>
</svg>
