<svg width="35" height="35" viewBox="0 0 35 35" fill="none" xmlns="http://www.w3.org/2000/svg">
<mask id="mask0_108_6719" style="mask-type:luminance" maskUnits="userSpaceOnUse" x="3" y="3" width="28" height="29">
<path d="M3.75 3.84146H30.8333V31.5854H3.75V3.84146Z" fill="white"/>
</mask>
<g mask="url(#mask0_108_6719)">
<path d="M24.7654 6.14486C22.6242 4.68907 20.0537 3.84146 17.2917 3.84146C14.5298 3.84146 11.9594 4.68907 9.8179 6.14486C7.91017 7.43985 6.34346 9.21768 5.27864 11.3052C4.30176 13.2203 3.75 15.4021 3.75 17.7134C3.75 20.0247 4.30176 22.2066 5.27864 24.1256C7.5386 28.5599 12.0705 31.5854 17.2917 31.5854C24.7693 31.5854 30.8333 25.3734 30.8333 17.7134C30.8333 12.8828 28.4239 8.62889 24.7654 6.14486Z" fill="#E71B24"/>
</g>
<path d="M11.1701 8.79388L11.9593 11.2424L14.476 11.2543L12.4457 12.7769L13.2118 15.2334L11.1701 13.7265L9.12841 15.2334L9.89456 12.7769L7.86426 11.2543L10.381 11.2424L11.1701 8.79388Z" fill="#F7F700"/>
<path d="M18.0731 14.111L18.2875 14.778L18.9771 14.782L18.4217 15.1981L18.6324 15.869L18.0731 15.4609L17.5175 15.869L17.7244 15.1981L17.1689 14.782L17.8585 14.778L18.0731 14.111Z" fill="#F7F700"/>
<path d="M17.4678 10.336L18.0807 10.6538L18.5673 10.1593L18.4638 10.8539L19.0767 11.1757L18.3987 11.2896L18.2875 11.9841L17.9697 11.3603L17.2915 11.4662L17.7742 10.9677L17.4678 10.336Z" fill="#F7F700"/>
<path d="M16.0622 16.4735L15.7519 17.1013L16.2383 17.6035L15.5564 17.4976L15.2423 18.1216L15.1313 17.4271L14.4531 17.3132L15.0623 16.9914L14.9589 16.2929L15.4491 16.7914L16.0622 16.4735Z" fill="#F7F700"/>
<path d="M14.6294 8.08745L15.2423 8.40134L15.7289 7.90683L15.6255 8.60157L16.2383 8.92714L15.5564 9.04102L15.4491 9.73554L15.1313 9.10776L14.4531 9.21371L14.9359 8.71523L14.6294 8.08745Z" fill="#F7F700"/>
</svg>
