<svg width="35" height="35" viewBox="0 0 35 35" fill="none" xmlns="http://www.w3.org/2000/svg">
<mask id="mask0_108_6703" style="mask-type:luminance" maskUnits="userSpaceOnUse" x="3" y="3" width="29" height="30">
<path d="M3.31348 3.3735H31.751V32.33H3.31348V3.3735Z" fill="white"/>
</mask>
<g mask="url(#mask0_108_6703)">
<mask id="mask1_108_6703" style="mask-type:luminance" maskUnits="userSpaceOnUse" x="3" y="3" width="29" height="30">
<path d="M3.31348 17.8496C3.31348 17.6128 3.31914 17.376 3.33048 17.1394C3.34201 16.9028 3.35901 16.6666 3.38187 16.4307C3.40473 16.1949 3.43307 15.9598 3.46727 15.7255C3.50146 15.4912 3.54114 15.2579 3.58667 15.0255C3.63201 14.7931 3.68303 14.5621 3.73952 14.3322C3.79601 14.1023 3.85798 13.8742 3.92561 13.6474C3.99306 13.4208 4.06618 13.1959 4.14458 12.9728C4.2228 12.7498 4.30669 12.5288 4.39567 12.3099C4.48466 12.091 4.57894 11.8745 4.6785 11.6602C4.77788 11.4461 4.88255 11.2345 4.99213 11.0256C5.1019 10.8167 5.21658 10.6107 5.33617 10.4074C5.45576 10.2042 5.58027 10.0042 5.7095 9.80719C5.83873 9.6102 5.97268 9.41649 6.11135 9.22624C6.24984 9.03599 6.39305 8.8492 6.54061 8.66607C6.68835 8.48294 6.84025 8.30365 6.9965 8.12802C7.15274 7.95259 7.31314 7.78099 7.4777 7.61344C7.64226 7.44589 7.8106 7.28257 7.98309 7.12349C8.1554 6.9644 8.33167 6.80974 8.51153 6.6595C8.69139 6.50907 8.87466 6.36345 9.06151 6.22225C9.24855 6.08125 9.43862 5.94486 9.63208 5.81309C9.82555 5.68151 10.022 5.55494 10.2217 5.43298C10.4212 5.31121 10.6236 5.19444 10.829 5.08287C11.0341 4.9711 11.2418 4.86473 11.4522 4.76335C11.6625 4.66216 11.8753 4.56617 12.0903 4.47538C12.3051 4.38477 12.5222 4.29955 12.7413 4.21972C12.9603 4.13989 13.1811 4.06564 13.4039 3.99677C13.6265 3.9281 13.8507 3.86481 14.0765 3.80729C14.3021 3.74977 14.5292 3.69783 14.7574 3.65167C14.9854 3.6055 15.2148 3.56491 15.4449 3.53028C15.675 3.49546 15.9059 3.46642 16.1375 3.44314C16.369 3.42006 16.601 3.40255 16.8334 3.39101C17.0658 3.37928 17.2983 3.3735 17.5311 3.3735C17.7637 3.3735 17.9962 3.37928 18.2286 3.39101C18.461 3.40255 18.693 3.42006 18.9246 3.44314C19.1561 3.46642 19.387 3.49546 19.6173 3.53028C19.8474 3.56491 20.0766 3.6055 20.3048 3.65167C20.533 3.69783 20.7599 3.74977 20.9857 3.80729C21.2113 3.86481 21.4355 3.9281 21.6583 3.99677C21.8809 4.06564 22.1017 4.13989 22.3209 4.21972C22.5398 4.29955 22.7569 4.38477 22.9719 4.47538C23.1869 4.56617 23.3995 4.66216 23.6099 4.76335C23.8202 4.86473 24.0281 4.9711 24.2332 5.08287C24.4384 5.19444 24.6408 5.31121 24.8405 5.43298C25.04 5.55494 25.2365 5.68151 25.4299 5.81309C25.6234 5.94486 25.8136 6.08125 26.0005 6.22225C26.1873 6.36345 26.3708 6.50907 26.5507 6.6595C26.7305 6.80974 26.9066 6.9644 27.0791 7.12349C27.2514 7.28257 27.4199 7.44589 27.5845 7.61344C27.749 7.78099 27.9094 7.95259 28.0657 8.12802C28.2219 8.30365 28.3738 8.48294 28.5214 8.66607C28.6691 8.8492 28.8122 9.03599 28.9508 9.22624C29.0893 9.41649 29.2233 9.6102 29.3525 9.80719C29.4819 10.0042 29.6062 10.2042 29.7258 10.4074C29.8456 10.6107 29.9603 10.8167 30.0699 11.0256C30.1796 11.2345 30.2841 11.4461 30.3837 11.6602C30.4831 11.8745 30.5773 12.091 30.6665 12.3099C30.7555 12.5288 30.8392 12.7498 30.9176 12.9728C30.996 13.1959 31.0689 13.4208 31.1364 13.6474C31.204 13.8742 31.266 14.1023 31.3227 14.3322C31.3792 14.5621 31.4302 14.7931 31.4755 15.0255C31.5209 15.2579 31.5607 15.4912 31.5947 15.7255C31.6289 15.9598 31.6575 16.1949 31.6803 16.4307C31.703 16.6666 31.7202 16.9028 31.7315 17.1394C31.743 17.376 31.7487 17.6128 31.7487 17.8496C31.7487 18.0866 31.743 18.3234 31.7315 18.56C31.7202 18.7966 31.703 19.0329 31.6803 19.2685C31.6575 19.5044 31.6289 19.7394 31.5947 19.9737C31.5607 20.208 31.5209 20.4414 31.4755 20.6737C31.4302 20.9061 31.3792 21.1374 31.3227 21.367C31.266 21.5969 31.204 21.8251 31.1364 22.0519C31.0689 22.2787 30.996 22.5035 30.9176 22.7265C30.8392 22.9496 30.7555 23.1705 30.6665 23.3894C30.5773 23.6083 30.4831 23.8249 30.3837 24.039C30.2841 24.2531 30.1796 24.4647 30.0699 24.6736C29.9603 24.8825 29.8456 25.0887 29.7258 25.2919C29.6062 25.495 29.4819 25.6953 29.3525 25.8923C29.2233 26.0892 29.0893 26.2828 28.9508 26.473C28.8122 26.6635 28.6691 26.85 28.5214 27.0332C28.3738 27.2163 28.2219 27.3958 28.0657 27.5712C27.9094 27.7469 27.749 27.9183 27.5845 28.0858C27.4199 28.2534 27.2514 28.4167 27.0791 28.5758C26.9066 28.7348 26.7305 28.8895 26.5507 29.0399C26.3708 29.1902 26.1873 29.3358 26.0005 29.477C25.8136 29.6182 25.6234 29.7546 25.4299 29.8862C25.2365 30.0177 25.04 30.1445 24.8405 30.2663C24.6408 30.388 24.4384 30.5048 24.2332 30.6164C24.0281 30.7281 23.8202 30.8347 23.6099 30.9359C23.3995 31.0373 23.1869 31.1333 22.9719 31.2239C22.7569 31.3145 22.5398 31.3997 22.3209 31.4795C22.1017 31.5594 21.8809 31.6336 21.6583 31.7025C21.4355 31.7712 21.2113 31.8344 20.9857 31.892C20.7599 31.9495 20.533 32.0014 20.3048 32.0476C20.0766 32.0939 19.8474 32.1343 19.6173 32.1692C19.387 32.204 19.1561 32.2328 18.9246 32.2561C18.693 32.2794 18.461 32.2967 18.2286 32.3084C17.9962 32.32 17.7637 32.3257 17.5311 32.3257C17.2983 32.3257 17.0658 32.32 16.8334 32.3084C16.601 32.2967 16.369 32.2794 16.1375 32.2561C15.9059 32.2328 15.675 32.204 15.4449 32.1692C15.2148 32.1343 14.9854 32.0939 14.7574 32.0476C14.5292 32.0014 14.3021 31.9495 14.0765 31.892C13.8507 31.8344 13.6265 31.7712 13.4039 31.7025C13.1811 31.6336 12.9603 31.5594 12.7413 31.4795C12.5222 31.3997 12.3051 31.3145 12.0903 31.2239C11.8753 31.1333 11.6625 31.0373 11.4522 30.9359C11.2418 30.8347 11.0341 30.7281 10.829 30.6164C10.6236 30.5048 10.4212 30.388 10.2217 30.2663C10.022 30.1445 9.82555 30.0177 9.63208 29.8862C9.43862 29.7546 9.24855 29.6182 9.06151 29.477C8.87466 29.3358 8.69139 29.1902 8.51153 29.0399C8.33167 28.8895 8.1554 28.7348 7.98309 28.5758C7.8106 28.4167 7.64226 28.2534 7.4777 28.0858C7.31314 27.9183 7.15274 27.7469 6.9965 27.5712C6.84025 27.3958 6.68835 27.2163 6.54061 27.0332C6.39305 26.85 6.24984 26.6635 6.11135 26.473C5.97268 26.2828 5.83873 26.0892 5.7095 25.8923C5.58027 25.6953 5.45576 25.495 5.33617 25.2919C5.21658 25.0887 5.1019 24.8825 4.99213 24.6736C4.88255 24.4647 4.77788 24.2531 4.6785 24.039C4.57894 23.8249 4.48466 23.6083 4.39567 23.3894C4.30669 23.1705 4.2228 22.9496 4.14458 22.7265C4.06618 22.5035 3.99306 22.2787 3.92561 22.0519C3.85798 21.8251 3.79601 21.5969 3.73952 21.367C3.68303 21.1374 3.63201 20.9061 3.58667 20.6737C3.54114 20.4414 3.50146 20.208 3.46727 19.9737C3.43307 19.7394 3.40473 19.5044 3.38187 19.2685C3.35901 19.0329 3.34201 18.7966 3.33048 18.56C3.31914 18.3234 3.31348 18.0866 3.31348 17.8496Z" fill="white"/>
</mask>
<g mask="url(#mask1_108_6703)">
<path d="M-2.21973 3.3735V32.33H37.2823V3.3735H-2.21973Z" fill="#012169"/>
<path d="M37.2821 6.61083L21.9477 17.8517L37.2821 29.0926V32.33H32.8657L17.5313 21.0891L2.19672 32.33H-2.21973V29.0926L13.1148 17.8517L-2.21973 6.61083V3.3735H2.19672L17.5313 14.6144L32.8659 3.3735H37.2823V6.61083H37.2821Z" fill="white"/>
<path d="M20.823 32.33H14.2394V22.6778H-2.21973V13.0257H14.2394V3.3735H20.823V13.0257H37.2821V22.6778H20.823V32.33Z" fill="white"/>
<path d="M37.2821 20.7474H19.5062V32.33H15.556V20.7474H-2.21973V14.9561H15.556V3.3735H19.5062V14.9561H37.2821V20.7474Z" fill="#C8102E"/>
<path d="M8.00332 13.0257L-2.21973 5.53185V3.3762L10.9442 13.0257H8.00332ZM24.115 13.0257L37.2821 3.3735H34.3378L21.1707 13.0257H24.115ZM24.1206 22.6778L37.2823 32.3257V30.1716L27.0593 22.6778H24.1206ZM10.9476 22.6778L-2.21973 32.33H0.724572L13.8919 22.6778H10.9476Z" fill="#C8102E"/>
</g>
</g>
</svg>
