<svg width="35" height="35" viewBox="0 0 35 35" fill="none" xmlns="http://www.w3.org/2000/svg">
<circle cx="17.5" cy="17.5" r="17.5" fill="white"/>
<mask id="mask0_84_38541" style="mask-type:luminance" maskUnits="userSpaceOnUse" x="6" y="26" width="22" height="6">
<path d="M6.92871 26.8682H27.3763V31.5333H6.92871V26.8682Z" fill="white"/>
</mask>
<g mask="url(#mask0_84_38541)">
<path d="M27.3235 26.8748C24.8258 29.7338 21.1915 31.5331 17.15 31.5331C13.3964 31.5331 9.99698 29.9816 7.52733 27.4711C7.33782 27.2771 7.15195 27.0796 6.97314 26.8748H27.3235Z" fill="#D70F17"/>
</g>
<path d="M30.0248 22.2166C29.6599 23.2762 29.1723 24.2783 28.5794 25.2051C28.2006 25.7939 27.783 26.3543 27.3235 26.875H6.97652C6.5204 26.3508 6.09941 25.7939 5.72424 25.2051C5.13129 24.2783 4.6437 23.2799 4.27881 22.2166H30.0248Z" fill="#F6F6F6"/>
<mask id="mask1_84_38541" style="mask-type:luminance" maskUnits="userSpaceOnUse" x="3" y="12" width="28" height="11">
<path d="M3.5 12.8932H30.8V22.266H3.5V12.8932Z" fill="white"/>
</mask>
<g mask="url(#mask1_84_38541)">
<path d="M30.8 17.5583C30.8 19.1925 30.5263 20.7585 30.0248 22.2167H4.27539C3.77367 20.7585 3.5 19.1925 3.5 17.5583C3.5 15.9241 3.77367 14.3584 4.27539 12.9H30.0212C30.5263 14.3584 30.8 15.9241 30.8 17.5583Z" fill="#002379"/>
</g>
<path d="M30.0248 12.9H4.27539C4.64007 11.8406 5.12766 10.8385 5.72061 9.91178C6.09942 9.32291 6.51698 8.76254 6.97652 8.24164H27.3269C27.783 8.76605 28.204 9.32291 28.5828 9.91178C29.1687 10.8385 29.6563 11.8406 30.0248 12.9Z" fill="#F6F6F6"/>
<mask id="mask2_84_38541" style="mask-type:luminance" maskUnits="userSpaceOnUse" x="6" y="3" width="22" height="6">
<path d="M6.92871 3.58331H27.3763V8.29097H6.92871V3.58331Z" fill="white"/>
</mask>
<g mask="url(#mask2_84_38541)">
<path d="M27.3235 8.24165H6.97656C7.15558 8.0371 7.33781 7.83957 7.53075 7.64554C9.99698 5.13507 13.3964 3.58331 17.15 3.58331C21.1915 3.58331 24.8258 5.3828 27.3235 8.24165Z" fill="#D70F17"/>
</g>
</svg>
