<svg width="24" height="23" viewBox="0 0 24 23" fill="none" xmlns="http://www.w3.org/2000/svg">
<mask id="mask0_3_55070" style="mask-type:luminance" maskUnits="userSpaceOnUse" x="0" y="0" width="24" height="23">
<path d="M0 0H23.4452V22.2272H0V0Z" fill="white"/>
</mask>
<g mask="url(#mask0_3_55070)">
<path d="M23.445 11.114C23.445 17.2519 18.1968 22.2275 11.7225 22.2275C5.24823 22.2275 0 17.2519 0 11.114C0 4.97623 5.24823 0.000488281 11.7225 0.000488281C18.1968 0.000488281 23.445 4.97623 23.445 11.114Z" fill="#FF8B2B"/>
</g>
<path d="M16.6397 13.6843C15.4546 13.2127 14.3349 13.0502 13.654 14.026C11.637 12.8166 9.92695 11.1954 8.65146 9.28335C9.68042 8.63782 9.50901 7.57601 9.01174 6.45275C8.50521 5.3338 7.81068 4.44261 6.60577 4.69141C5.40261 4.91984 4.45333 6.50013 5.12969 8.01299C7.01166 12.2228 10.5535 15.5805 14.9938 17.3645C16.5898 18.0059 18.2565 17.1061 18.4974 15.9653C18.76 14.8228 17.8198 14.1643 16.6397 13.6843Z" fill="white"/>
<path d="M16.6397 13.6843C15.4546 13.2127 14.3349 13.0502 13.654 14.026C11.637 12.8166 9.92695 11.1954 8.65146 9.28335C9.68042 8.63782 9.50901 7.57601 9.01174 6.45275C8.50521 5.3338 7.81068 4.44261 6.60577 4.69141C5.40261 4.91984 4.45333 6.50013 5.12969 8.01299C7.01166 12.2228 10.5535 15.5805 14.9938 17.3645C16.5898 18.0059 18.2565 17.1061 18.4974 15.9653C18.76 14.8228 17.8198 14.1643 16.6397 13.6843Z" fill="white"/>
</svg>
