<svg width="36" height="36" viewBox="0 0 36 36" fill="none" xmlns="http://www.w3.org/2000/svg">
<circle cx="18" cy="18" r="18" fill="#65AF7E"/>
<path d="M10.8959 12.3864C11.136 12.7969 11.689 12.7712 11.9355 12.7071L12.4554 11.0397L12.7803 10.5267V10.0137L12.5853 9.69304H12.2604L12.0005 9.50065V9.11588L12.4554 8.92349L12.5853 8.15395L14.0799 8.00645L14.5347 7.96156L14.8596 7.89743C14.8596 7.89743 14.7323 6.96542 14.2748 6.61486C13.9323 6.35241 13.6685 6.24452 13.2351 6.23009C12.8414 6.21697 12.5926 6.2776 12.2604 6.4866C11.8624 6.73703 11.7153 7.0571 11.5456 7.44853C11.158 8.34266 11.5617 8.98649 11.2207 9.88542C11.0616 10.305 10.794 10.6013 10.7009 11.0397C10.5803 11.6083 10.6558 11.976 10.8959 12.3864Z" fill="#292F20"/>
<path d="M14.5347 7.96156L14.0799 8.00645C14.0799 8.00645 13.9824 8.69391 14.0799 8.98762C14.1896 9.31843 14.6422 9.43652 14.6422 9.43652C14.8041 8.82995 14.5347 7.96156 14.5347 7.96156Z" fill="#D0A976"/>
<path d="M17.0039 30.2784C17.036 30.0682 15.1845 29.8936 15.1845 29.8936L15.3794 30.2142C15.3794 30.2142 14.3966 30.5084 13.8199 30.4066C13.5031 30.3507 13.1677 30.1501 13.1677 30.1501C13.1679 30.1948 13.1686 30.2394 13.1701 30.2784C13.1746 30.3952 13.1516 30.5392 13.129 30.6801C13.0785 30.9959 13.0305 31.2963 13.3001 31.2403C14.5347 30.9838 16.809 30.4066 16.809 30.4066C16.809 30.4066 16.985 30.4022 17.0039 30.2784Z" fill="#F8D4A5"/>
<path d="M12.4554 25.2763L12.8372 24.5709L11.2207 24.0579L11.0258 24.7633L12.4554 25.2763Z" fill="#CD997D"/>
<path d="M14.5347 25.7893V24.8915L13.1701 24.635V25.4687L14.5347 25.7893Z" fill="#DDAC92"/>
<path fill-rule="evenodd" clip-rule="evenodd" d="M15.6202 13.0277L15.1845 13.7973L17.9591 17.3244L18.3685 16.8755L15.6202 13.0277Z" fill="#F8D4A5"/>
<path fill-rule="evenodd" clip-rule="evenodd" d="M12.1305 15.0157L11.9355 12.7071L12.4554 11.0397L12.7803 10.5267V10.0137L13.625 10.3343L14.1448 10.1419V10.655C14.1448 10.655 14.5464 10.6977 14.7296 10.9115C15.4444 11.7452 15.8993 12.7071 15.8993 12.7071L15.5744 12.9636L15.6202 13.0277L15.1845 13.7973L17.9591 17.3244L17.7837 17.5167L16.0942 15.657V16.3624C16.0942 16.5548 16.0262 16.7472 15.8993 16.7472C15.7043 16.7472 15.0545 16.8113 15.0545 16.8113L15.8993 24.8915H14.5347L13.1701 24.635L12.8372 24.5709L11.2207 24.0579L8.81651 23.3525C8.81651 23.3525 9.44497 21.9983 9.79119 21.1079C9.9026 20.8215 10.0109 20.5753 10.1123 20.3446C10.3773 19.7419 10.5956 19.2456 10.7009 18.4145C10.726 18.2169 10.7439 18.0396 10.7612 17.8688C10.794 17.5456 10.8243 17.2456 10.8959 16.8755C11.0617 16.0172 12.1305 15.0157 12.1305 15.0157Z" fill="#DDAC92"/>
<path d="M14.2748 10.0137C14.2748 10.0137 14.4497 9.82971 14.5347 9.69304C14.5824 9.61641 14.6173 9.52954 14.6422 9.43652C14.6422 9.43652 14.1896 9.31843 14.0799 8.98762C13.9824 8.69391 14.0799 8.00645 14.0799 8.00645L12.5853 8.15395L12.4554 8.92349L12.0005 9.11588V9.50065L12.2604 9.69304H12.5853L12.7803 10.0137L13.625 10.3343L14.1448 10.1419L14.2748 10.0137Z" fill="#F8D4A5"/>
<path fill-rule="evenodd" clip-rule="evenodd" d="M13.1701 25.4687L14.5347 25.7893V29.7653L15.1845 29.8936L15.3794 30.2142C15.3794 30.2142 14.3966 30.5084 13.8199 30.4066C13.5031 30.3507 13.1677 30.1501 13.1677 30.1501C13.167 30.0223 13.1701 29.8936 13.1701 29.8936V25.4687Z" fill="#F8D4A5"/>
<path d="M11.2207 30.4066L10.1161 29.1882L12.4554 25.2763L11.0258 24.7633L11.2207 24.0579C11.2207 24.0579 10.0972 26.8912 9.07643 28.5469C8.97911 28.7047 8.80605 28.8668 8.64423 29.0183C8.36196 29.2825 8.11388 29.5148 8.36164 29.6371C9.14137 30.0219 11.0258 30.9838 11.0258 30.9838C11.0258 30.9838 11.4617 31.1926 11.6106 30.9838C11.7771 30.7503 11.2207 30.4066 11.2207 30.4066Z" fill="#DDAC92"/>
<path d="M10.1811 28.9958L9.1414 28.4827L8.81651 28.9958L8.29667 29.3164L8.23169 29.5729L9.85618 30.4707L11.2857 31.0479H11.6106V30.7273L10.1811 29.2523V28.9958Z" fill="#616161"/>
<path d="M13.1701 29.9577L14.4697 29.7653H14.6647L15.5094 29.9577L16.1592 30.086L16.809 29.9577L17.0689 30.086L16.3541 30.599L14.2098 31.2403H13.1701V29.9577Z" fill="#616161"/>
<path d="M13.3651 10.2061C12.9102 10.0778 12.7803 9.82129 12.7803 9.82129V10.7832L13.1052 11.0397L13.495 10.7832L14.1448 10.5908L14.2748 9.88542C14.2748 9.88542 13.8688 10.3481 13.3651 10.2061Z" fill="#DDAC92"/>
<path d="M8.94647 23.4166L14.4697 24.8274H15.8993L15.1195 16.7883L14.7946 16.7472C14.7946 16.7472 14.7871 16.7734 14.7724 16.8217C14.6407 17.2538 13.9348 19.4538 12.9102 20.5078C11.8011 21.6487 9.33634 22.4958 9.33634 22.4958L8.94647 23.4166Z" fill="url(#paint0_linear_139_7733)"/>
<path d="M15.1195 16.7883H15.9643L16.1592 15.5699L12.8452 15.2081L12.3146 14.9516C12.3146 14.9516 12.4951 15.3364 12.5853 16.0418C12.6915 16.872 13.236 17.0404 14.0799 17.0037C14.5617 16.9828 14.721 16.8898 14.7724 16.8217C14.8041 16.7797 14.7946 16.7472 14.7946 16.7472L15.1195 16.7883Z" fill="url(#paint1_linear_139_7733)"/>
<path fill-rule="evenodd" clip-rule="evenodd" d="M9.66124 21.598L9.33634 22.4958C9.33634 22.4958 11.8011 21.6487 12.9102 20.5078C13.9348 19.4538 14.6407 17.2538 14.7724 16.8217C14.8041 16.7797 14.7946 16.7472 14.7946 16.7472C14.7946 16.7472 14.7871 16.7734 14.7724 16.8217C14.721 16.8898 14.5617 16.9828 14.0799 17.0037C13.236 17.0404 12.6915 16.872 12.5853 16.0418C12.4951 15.3364 12.3146 14.9516 12.3146 14.9516L10.9608 16.7883L10.7659 18.3274L10.441 19.7382L9.66124 21.598Z" fill="url(#paint2_linear_139_7733)"/>
<path fill-rule="evenodd" clip-rule="evenodd" d="M14.7946 13.646L16.1592 15.5699L12.8452 15.2081L12.3146 14.9516L12.1707 13.6049L12.4554 11.8734L12.9102 10.7367L13.1701 11.0167L14.0799 10.6961H14.5347L15.9643 12.6199L14.7946 13.646Z" fill="url(#paint3_linear_139_7733)"/>
<path d="M12.7153 10.5267L12.1305 11.658L12.0655 12.6199L12.1707 13.6049L12.4554 11.8734L12.9102 10.7367L12.7153 10.5267Z" fill="url(#paint4_linear_139_7733)"/>
<path d="M11.3239 23.9994L11.3244 23.9996C11.3249 23.9998 11.3257 24 11.3266 24.0003C11.3285 24.0008 11.3312 24.0017 11.3348 24.0028C11.3421 24.005 11.353 24.0082 11.367 24.0124C11.395 24.0208 11.4359 24.0329 11.4869 24.048C11.5889 24.0782 11.7315 24.1201 11.894 24.1666C12.2197 24.2598 12.6234 24.3713 12.9404 24.4461C13.2521 24.5198 13.6558 24.5994 13.9829 24.661C14.1461 24.6916 14.2897 24.7177 14.3926 24.7361C14.444 24.7453 14.4852 24.7527 14.5135 24.7576C14.5277 24.7601 14.5386 24.762 14.546 24.7633C14.5497 24.7639 14.5525 24.7643 14.5544 24.7647C14.5553 24.7648 14.556 24.765 14.5564 24.765L14.5569 24.7652H14.5572L14.5122 25.0179L14.5121 25.0178H14.5115C14.511 25.0177 14.5103 25.0176 14.5093 25.0174C14.5074 25.0171 14.5046 25.0166 14.5008 25.0159C14.4933 25.0146 14.4822 25.0127 14.468 25.0102C14.4394 25.0051 14.3979 24.9979 14.3462 24.9886C14.2429 24.9701 14.0984 24.9438 13.9343 24.913C13.6065 24.8513 13.1979 24.7707 12.88 24.6956C12.5567 24.6193 12.1481 24.5064 11.8217 24.413C11.6582 24.3662 11.5147 24.3241 11.4121 24.2937C11.3609 24.2785 11.3198 24.2662 11.2916 24.2578C11.2774 24.2535 11.2665 24.2502 11.2591 24.248C11.2554 24.2469 11.2525 24.2461 11.2506 24.2455C11.2496 24.2452 11.2489 24.245 11.2484 24.2449L11.2479 24.2447L11.2477 24.2446L11.3239 23.9994Z" fill="#823D50"/>
<path d="M13.948 8.80577C13.9415 8.73689 13.9422 8.65134 13.9443 8.58572C13.9453 8.55238 13.9467 8.52309 13.9479 8.50211C13.9484 8.4916 13.9489 8.48307 13.9493 8.47719C13.9495 8.47431 13.9497 8.47206 13.9498 8.47048C13.9499 8.46969 13.9499 8.46902 13.9499 8.46859L13.95 8.46808L13.95 8.46783C13.9537 8.41484 14.0004 8.37489 14.0541 8.37861C14.1044 8.38211 14.1432 8.42279 14.1447 8.47153L14.1445 8.48136L14.1444 8.48175C14.1444 8.48207 14.1443 8.48259 14.1443 8.48327C14.1442 8.48462 14.1441 8.48667 14.144 8.48933C14.1436 8.49472 14.1431 8.5027 14.1426 8.51261C14.1415 8.53245 14.1401 8.56018 14.1391 8.59168C14.1371 8.65585 14.1368 8.73147 14.1421 8.78789C14.1474 8.84431 14.1619 8.91857 14.1759 8.98127C14.1828 9.01204 14.1894 9.03904 14.1942 9.05834C14.1966 9.06798 14.1986 9.07573 14.1999 9.08096C14.2006 9.08354 14.201 9.08555 14.2014 9.08686C14.2015 9.08751 14.2017 9.08802 14.2017 9.08833L14.2019 9.0887C14.2155 9.14008 14.1844 9.19271 14.1323 9.20618C14.0803 9.21964 14.0269 9.18889 14.0133 9.13752L14.0133 9.13727L14.0131 9.13678C14.013 9.13636 14.0129 9.1357 14.0127 9.13493C14.0123 9.1334 14.0116 9.13123 14.0109 9.12843C14.0094 9.12272 14.0073 9.11443 14.0048 9.10421C13.9997 9.0838 13.9929 9.05527 13.9856 9.0227C13.9713 8.95858 13.9545 8.87464 13.948 8.80577Z" fill="#A9895C"/>
<path d="M13.1842 10.913L13.196 10.9167C13.2238 10.9286 13.2402 10.9585 13.2337 10.9889C13.2272 11.0192 13.2001 11.0399 13.1699 11.0397L13.1567 11.0384H13.1564L13.1562 11.0382L13.1554 11.0381C13.1549 11.038 13.1544 11.0379 13.1538 11.0377C13.1524 11.0374 13.1508 11.0369 13.1488 11.0364C13.1449 11.0353 13.1399 11.0338 13.1337 11.0316C13.1214 11.0272 13.1046 11.0204 13.0845 11.0098C13.044 10.9886 12.9901 10.9527 12.9293 10.8927C12.8685 10.8327 12.8321 10.7794 12.8106 10.7395C12.7999 10.7196 12.7929 10.7031 12.7885 10.6909C12.7863 10.6848 12.7848 10.6798 12.7837 10.676C12.7831 10.6741 12.7826 10.6724 12.7823 10.6711C12.7821 10.6705 12.782 10.67 12.7819 10.6695L12.7818 10.6687L12.7817 10.6685V10.6682C12.7743 10.6336 12.7967 10.5995 12.8318 10.5922C12.8668 10.5849 12.9012 10.607 12.9087 10.6414V10.6409L12.9088 10.6413C12.9091 10.6424 12.9097 10.6446 12.9109 10.6478C12.9132 10.6543 12.9176 10.6651 12.9253 10.6794C12.9407 10.7079 12.9693 10.7509 13.0211 10.802C13.073 10.8531 13.1165 10.8814 13.1454 10.8966C13.1599 10.9042 13.1708 10.9085 13.1774 10.9109C13.1807 10.912 13.1829 10.9126 13.184 10.9129L13.1842 10.913Z" fill="#B787A2"/>
<path d="M12.248 14.9141V14.9139L12.2476 14.9134L12.2482 14.914C12.2495 14.9154 12.2522 14.9184 12.2566 14.9225C12.2655 14.9308 12.2815 14.9441 12.3074 14.9606C12.3592 14.9936 12.4506 15.0393 12.6032 15.0824C12.76 15.1266 12.8372 15.1414 12.8737 15.1457C12.8824 15.1468 12.8879 15.1469 12.8911 15.147C12.9044 15.1429 12.9192 15.1429 12.9333 15.1482C12.9668 15.1608 12.9836 15.1978 12.9709 15.2309L12.9102 15.2081L12.9706 15.2317L12.9704 15.2324L12.9685 15.2365C12.9676 15.2384 12.9665 15.2402 12.9654 15.2419C12.9632 15.2454 12.9607 15.2486 12.9581 15.2514C12.9528 15.2572 12.9471 15.2614 12.9418 15.2645C12.9317 15.2703 12.9217 15.2727 12.9142 15.2739C12.8994 15.2762 12.8813 15.2758 12.8583 15.2731C12.8112 15.2676 12.7259 15.2503 12.5674 15.2056C12.4048 15.1597 12.3013 15.1093 12.2369 15.0683C12.2048 15.0478 12.1823 15.0298 12.1674 15.0158C12.1599 15.0089 12.1543 15.0029 12.1503 14.9983C12.1483 14.996 12.1466 14.9941 12.1453 14.9925C12.1447 14.9917 12.1441 14.9909 12.1437 14.9903C12.1435 14.99 12.1432 14.9898 12.143 14.9895L12.1428 14.989L12.1425 14.9888C12.1217 14.9599 12.1285 14.9199 12.1578 14.8994C12.1869 14.8789 12.2271 14.8856 12.248 14.9141ZM12.8502 15.1834C12.8515 15.1803 12.853 15.1772 12.8548 15.1744C12.8537 15.1761 12.8529 15.1779 12.852 15.1797C12.8515 15.1806 12.851 15.1815 12.8506 15.1824C12.8504 15.1828 12.8503 15.1831 12.8502 15.1834ZM12.8619 15.1653C12.8602 15.167 12.8589 15.1691 12.8574 15.1712C12.8591 15.1689 12.8606 15.1665 12.8625 15.1645C12.8623 15.1647 12.8621 15.165 12.8619 15.1653Z" fill="#A3718D"/>
<path d="M15.461 12.9208C15.4851 12.8944 15.5263 12.8923 15.5529 12.916C15.5762 12.9367 15.5808 12.9703 15.5655 12.996L15.5576 13.0066L15.5575 13.0067C15.5575 13.0067 15.5572 13.0071 15.557 13.0073C15.5565 13.0078 15.5558 13.0085 15.555 13.0094C15.5532 13.0113 15.5508 13.0142 15.5475 13.0177C15.5409 13.0248 15.5313 13.0351 15.5193 13.0479C15.4954 13.0735 15.4617 13.109 15.4228 13.1488C15.3456 13.2281 15.2463 13.3263 15.1615 13.3972C15.0744 13.4701 14.9246 13.5685 14.7996 13.6471C14.7364 13.6868 14.6786 13.722 14.6365 13.7473C14.6155 13.76 14.5984 13.7702 14.5865 13.7772C14.5806 13.7808 14.5759 13.7835 14.5728 13.7854C14.5712 13.7863 14.57 13.787 14.5692 13.7875C14.5688 13.7877 14.5682 13.7881 14.5682 13.7881L14.568 13.7883C14.5371 13.8063 14.4972 13.7964 14.4789 13.766C14.4605 13.7355 14.4707 13.6961 14.5016 13.678L14.5018 13.6779C14.5018 13.6779 14.5023 13.6776 14.5026 13.6774C14.5034 13.677 14.5046 13.6762 14.5062 13.6753C14.5092 13.6735 14.5137 13.6708 14.5195 13.6674C14.5311 13.6605 14.5481 13.6503 14.5688 13.6378C14.6104 13.6128 14.6675 13.578 14.7298 13.5389C14.8555 13.4599 14.9981 13.366 15.0775 13.2995C15.157 13.233 15.2525 13.1388 15.3292 13.06C15.3673 13.0209 15.4004 12.9859 15.4239 12.9608C15.4356 12.9483 15.445 12.9382 15.4514 12.9313C15.4546 12.9279 15.457 12.9252 15.4586 12.9234C15.4595 12.9225 15.4601 12.9218 15.4605 12.9214L15.4609 12.9209L15.461 12.9208Z" fill="#DDAC92"/>
<path d="M16.0295 16.4266V15.5929L15.3546 14.6951C15.3546 14.6951 15.2854 15.1607 15.1845 15.5288C15.0589 15.9872 14.7296 16.7871 14.7296 16.7871C14.8552 16.8034 14.9249 16.8113 14.9249 16.8113L15.9645 16.6831L16.0295 16.4266Z" fill="#7E6146"/>
<path fill-rule="evenodd" clip-rule="evenodd" d="M13.4201 11.7452L13.495 16.6003C14.046 16.6946 14.4898 16.756 14.7296 16.7871C14.7296 16.7871 15.0589 15.9872 15.1845 15.5288C15.2854 15.1607 15.3546 14.6951 15.3546 14.6951L14.535 13.6049L14.34 13.7973C14.34 13.7973 14.0149 13.4125 13.8199 13.0919C13.6298 12.7792 13.495 12.3223 13.495 12.3223C13.495 12.3223 13.4279 12.0471 13.4201 11.7452Z" fill="#A47E5B"/>
<path d="M12.9755 16.2983C12.9695 16.4398 13.0942 16.5295 13.2354 16.5548C13.3242 16.5707 13.4109 16.5859 13.495 16.6003L13.4201 11.7452C13.4155 11.5663 13.4317 11.378 13.495 11.2322C13.6154 10.955 14.0149 10.7191 14.0149 10.7191C14.0149 10.7191 13.6209 10.7139 13.4301 10.8474C13.2169 10.9965 13.1138 11.1871 13.1054 11.4245C13.0744 12.3077 13.0582 13.1042 13.0427 13.8619C13.0256 14.6997 13.0095 15.4901 12.9755 16.2983Z" fill="#CC996B"/>
<path d="M14.0162 10.6229C14.0598 10.6235 14.0976 10.6525 14.109 10.694C14.1189 10.7304 14.1064 10.7686 14.078 10.7924L14.0649 10.8016C14.0649 10.8016 14.0646 10.8019 14.0643 10.802C14.0637 10.8024 14.0627 10.803 14.0614 10.8038C14.0588 10.8053 14.0549 10.8078 14.0497 10.811C14.0393 10.8175 14.0241 10.8273 14.0054 10.8398C13.9679 10.865 13.9167 10.9013 13.8621 10.9458C13.7499 11.0372 13.6352 11.1535 13.5846 11.2701C13.5098 11.4423 13.5071 11.6937 13.5282 11.9152C13.5385 12.0235 13.554 12.1202 13.5669 12.1898C13.5734 12.2245 13.5792 12.2523 13.5833 12.2713C13.5854 12.2808 13.587 12.2882 13.5881 12.293C13.5886 12.2949 13.5889 12.2964 13.5891 12.2975C13.5893 12.2982 13.5897 12.299 13.59 12.3C13.591 12.3032 13.5925 12.3081 13.5945 12.3144C13.5984 12.3271 13.6042 12.3457 13.6119 12.369C13.6271 12.4157 13.6494 12.4813 13.6776 12.5564C13.7343 12.7078 13.8131 12.8937 13.9035 13.0424C13.9981 13.198 14.1255 13.371 14.2304 13.5063C14.2754 13.5643 14.316 13.6149 14.3476 13.6537L14.4661 13.5369L14.474 13.5299C14.4931 13.5147 14.5174 13.5072 14.5421 13.5089C14.5704 13.511 14.5963 13.5251 14.6132 13.5475L16.1077 15.5355C16.1202 15.5521 16.127 15.5722 16.127 15.5929V16.4266C16.127 16.4344 16.126 16.4422 16.1241 16.4498L16.0591 16.7064C16.0494 16.7449 16.0166 16.7736 15.9766 16.7785L14.937 16.9068C14.9331 16.9072 14.9292 16.9075 14.9253 16.9075L14.9136 16.9069L14.9131 16.9068C14.9127 16.9067 14.9122 16.9067 14.9115 16.9066C14.91 16.9065 14.9079 16.9062 14.9051 16.9059C14.8995 16.9052 14.8913 16.9043 14.8805 16.903C14.8588 16.9004 14.8269 16.8965 14.7856 16.8912C14.7029 16.8808 14.5825 16.8651 14.4317 16.8439C14.1302 16.8015 13.7066 16.7372 13.2179 16.6495C13.0577 16.6207 12.8691 16.5079 12.878 16.2943C12.943 14.7518 12.9425 13.2889 13.008 11.4211C13.0174 11.1525 13.1367 10.9345 13.3736 10.7688C13.4901 10.6874 13.6574 10.6533 13.7817 10.6377C13.8463 10.6296 13.9045 10.626 13.9464 10.6243C13.9674 10.6234 13.9845 10.623 13.9965 10.6229H14.0162ZM13.6748 10.8515C13.6011 10.8686 13.5336 10.8929 13.4865 10.9259C13.2972 11.0583 13.2101 11.2216 13.2028 11.4279C13.1379 13.2796 13.1375 14.7666 13.0729 16.3023C13.0699 16.3718 13.1306 16.4382 13.2528 16.4601C13.7386 16.5473 14.1597 16.6112 14.4593 16.6534C14.609 16.6744 14.7285 16.6901 14.8103 16.7005C14.8512 16.7056 14.8827 16.7094 14.904 16.712C14.9124 16.713 14.9193 16.7138 14.9244 16.7144L15.8861 16.5958L15.9321 16.4148V15.6247L14.524 13.7517L14.409 13.8653C14.3896 13.8844 14.363 13.8946 14.3356 13.8933C14.3083 13.8921 14.2827 13.8796 14.2652 13.8589L14.2651 13.8588L14.265 13.8585C14.2648 13.8583 14.2645 13.858 14.2642 13.8576C14.2635 13.8569 14.2625 13.8557 14.2613 13.8543C14.2588 13.8513 14.2551 13.8468 14.2504 13.8411C14.2409 13.8298 14.2272 13.8133 14.2103 13.7925C14.1763 13.751 14.1291 13.6922 14.0757 13.6233C13.9694 13.4861 13.8367 13.3063 13.7364 13.1413C13.6367 12.9774 13.553 12.7784 13.4948 12.6232C13.4656 12.545 13.4422 12.4769 13.4263 12.4282C13.4183 12.4038 13.4122 12.3842 13.408 12.3707C13.4059 12.3639 13.4043 12.3586 13.4032 12.355C13.4027 12.3532 13.4022 12.3518 13.4019 12.3509L13.4014 12.3494C13.401 12.3479 13.4007 12.3463 13.4003 12.3449L13.4002 12.3446L13.4 12.3441C13.3999 12.3437 13.3998 12.343 13.3997 12.3422C13.3993 12.3407 13.3988 12.3386 13.3981 12.3358C13.3968 12.3303 13.3951 12.3221 13.3928 12.3118C13.3883 12.2911 13.382 12.2613 13.3752 12.2245C13.3615 12.1509 13.3451 12.0484 13.3342 11.9332C13.3127 11.7076 13.3101 11.414 13.4055 11.1942C13.4631 11.0615 13.5723 10.9428 13.6748 10.8515Z" fill="url(#paint5_linear_139_7733)"/>
<path d="M14.4794 8.05725L12.6106 8.24162L12.5525 8.93151C12.5484 8.97947 12.509 9.01697 12.4603 9.01943L12.4604 9.01956H12.4594L12.4366 9.02144C12.4208 9.02295 12.399 9.02551 12.3749 9.02958C12.3228 9.03837 12.2744 9.05204 12.2477 9.06878C12.195 9.10189 12.1612 9.13565 12.139 9.17224C12.1167 9.20883 12.1025 9.25417 12.0977 9.31565C12.0867 9.45653 12.1323 9.55431 12.239 9.60699C12.2687 9.62164 12.3251 9.62519 12.3903 9.61839C12.4198 9.6153 12.4465 9.61066 12.4659 9.60674C12.4755 9.60479 12.4832 9.60306 12.4882 9.60185C12.4907 9.60126 12.4927 9.60077 12.4938 9.60047L12.4951 9.6001C12.5287 9.5912 12.5646 9.60072 12.5893 9.62502L12.838 9.87052L13.212 10.055C13.2124 10.0552 13.2128 10.0554 13.2133 10.0556C13.2156 10.0566 13.2192 10.0581 13.2238 10.06C13.2332 10.064 13.2471 10.0697 13.2646 10.0764C13.2996 10.09 13.3485 10.1079 13.4042 10.1248C13.5195 10.1598 13.6487 10.1863 13.7429 10.1748C13.8209 10.1652 13.9219 10.1238 14.01 10.0794C14.0526 10.058 14.0897 10.0372 14.116 10.0218C14.1291 10.0142 14.1395 10.0078 14.1465 10.0035C14.15 10.0014 14.1526 9.99973 14.1544 9.99865L14.1566 9.99715C14.1566 9.99715 14.1573 9.99806 14.2098 10.0778L14.2629 10.1585L14.2626 10.1587C14.2626 10.1587 14.2622 10.159 14.2618 10.1592C14.2612 10.1596 14.2603 10.1602 14.2592 10.1608C14.257 10.1622 14.2538 10.1643 14.2498 10.1667C14.2417 10.1717 14.2299 10.1788 14.2154 10.1873C14.1864 10.2042 14.1456 10.2272 14.0985 10.2509C14.0072 10.2968 13.8808 10.3517 13.767 10.3656C13.629 10.3826 13.4658 10.3448 13.3468 10.3086C13.2853 10.2899 13.2315 10.2704 13.1931 10.2555C13.1739 10.2481 13.1585 10.2417 13.1477 10.2371C13.1423 10.2349 13.1379 10.233 13.135 10.2317C13.1335 10.2311 13.1324 10.2306 13.1316 10.2302C13.1312 10.2301 13.1308 10.23 13.1305 10.2299L13.1303 10.2297L13.1302 10.2296C13.129 10.2291 13.1278 10.2286 13.1266 10.228L12.8777 10.1051V10.5908C12.8777 10.6055 12.8744 10.6199 12.868 10.6329L12.8605 10.6454L12.8595 10.647C12.8587 10.648 12.8575 10.6497 12.856 10.6518C12.853 10.6562 12.8486 10.6627 12.8428 10.6711C12.8313 10.688 12.8146 10.7127 12.794 10.7436C12.7527 10.8056 12.6958 10.8927 12.6339 10.993C12.5092 11.195 12.367 11.4455 12.2864 11.6515C12.2098 11.8475 12.1461 12.1134 12.1013 12.334C12.079 12.4435 12.0616 12.5405 12.0499 12.61C12.044 12.6447 12.0394 12.6726 12.0364 12.6917C12.0349 12.7012 12.0339 12.7087 12.0331 12.7136C12.0328 12.716 12.0324 12.7179 12.0322 12.7191C12.0321 12.7197 12.032 12.7202 12.032 12.7205V12.7209C12.032 12.7209 12.0274 12.7203 11.9355 12.7071C11.8391 12.6933 11.8391 12.6932 11.8391 12.6932L11.8392 12.6927C11.8393 12.6923 11.8393 12.6917 11.8395 12.6911C11.8397 12.6897 11.8399 12.6876 11.8403 12.685C11.8411 12.6798 11.8423 12.6721 11.8439 12.6622C11.847 12.6425 11.8516 12.6139 11.8576 12.5783C11.8696 12.5072 11.8874 12.4081 11.9101 12.2961C11.9554 12.0737 12.0216 11.7944 12.1044 11.5823C12.1916 11.3594 12.3418 11.0967 12.4675 10.8929C12.5309 10.7904 12.5888 10.7014 12.631 10.6381C12.6521 10.6064 12.6693 10.581 12.6813 10.5635C12.6818 10.5628 12.6823 10.562 12.6828 10.5613V9.98938L12.4889 9.798C12.4671 9.80204 12.4403 9.80656 12.4107 9.80964C12.3418 9.81684 12.2357 9.82041 12.1519 9.77908C11.9541 9.6815 11.8882 9.49497 11.9033 9.30087C11.9098 9.21679 11.9307 9.14101 11.9718 9.07329C12.013 9.00556 12.071 8.95174 12.1432 8.90646C12.2047 8.8678 12.2862 8.84937 12.342 8.83995C12.3499 8.83863 12.3576 8.83763 12.3649 8.83657L12.4233 8.14593L12.4262 8.12915C12.4365 8.09104 12.4698 8.06229 12.5107 8.05825L14.4601 7.86587L14.4794 8.05725Z" fill="#A9895C"/>
<path d="M16.0942 16.3624V15.657L17.7837 17.5167L18.3685 16.8755L15.5744 12.9636L15.8993 12.7071L16.1348 12.5987C16.1855 12.7059 16.1553 12.8335 16.0617 12.9074L15.9276 13.0131L18.5809 16.7277C18.6508 16.8256 18.6429 16.9581 18.5617 17.0471L17.9769 17.6884C17.9276 17.7425 17.8572 17.7734 17.7835 17.7733C17.7097 17.7732 17.6395 17.7422 17.5902 17.688L16.3541 16.3273V16.3625C16.3541 16.4836 16.3334 16.618 16.2814 16.7322C16.2343 16.8355 16.1187 17.0038 15.8992 17.0038C15.8155 17.0038 15.617 17.0185 15.4263 17.0348C15.3968 17.0374 15.3678 17.04 15.34 17.0425L16.1579 24.8652C16.1654 24.9374 16.1415 25.0094 16.0923 25.0633C16.043 25.1172 15.9728 25.1481 15.8992 25.1481H14.7946V29.5494C14.8861 29.5651 15.0013 29.5849 15.1292 29.6064C15.4425 29.6591 15.8304 29.723 16.1331 29.7683C16.199 29.7781 16.284 29.7801 16.3858 29.7783C16.4737 29.7767 16.6016 29.7709 16.6929 29.7705C16.785 29.7701 16.9046 29.773 17.0045 29.8046C17.0563 29.821 17.1316 29.8537 17.1899 29.9242C17.2563 30.0045 17.2743 30.1009 17.261 30.1884C17.2387 30.3344 17.1383 30.4485 17.0886 30.5006C17.0579 30.5328 17.0286 30.5594 17.007 30.5778C16.9961 30.5871 16.9869 30.5947 16.98 30.6002C16.9766 30.6029 16.9736 30.6052 16.9714 30.6069C16.9703 30.6078 16.9694 30.6085 16.9686 30.6091L16.9671 30.6102L16.9668 30.6105C16.9505 30.6228 16.9327 30.6331 16.9139 30.6413L16.8949 30.6488L16.8942 30.6489C16.8939 30.649 16.8933 30.6493 16.8927 30.6495C16.8914 30.65 16.8894 30.6507 16.8869 30.6515C16.8817 30.6533 16.8742 30.6558 16.8644 30.6592C16.8448 30.6659 16.816 30.6756 16.7791 30.688C16.7054 30.7127 16.5994 30.7478 16.4694 30.7897C16.2096 30.8735 15.8531 30.9847 15.4675 31.094C15.0824 31.2032 14.6652 31.3114 14.2844 31.3884C13.9107 31.4639 13.5474 31.5148 13.2816 31.4961C13.201 31.4904 13.1185 31.47 13.0439 31.4243C12.9672 31.3773 12.9133 31.3123 12.8792 31.2411C12.8172 31.1119 12.8227 30.9672 12.8329 30.8656C12.8435 30.7589 12.8682 30.636 12.8844 30.5416C12.9024 30.4367 12.9129 30.3539 12.9104 30.2881C12.9073 30.2067 12.9074 30.1054 12.9081 30.0273C12.9085 29.9877 12.9089 29.9529 12.9094 29.928C12.9096 29.9155 12.9099 29.9055 12.91 29.8985C12.9101 29.8967 12.9101 29.895 12.9102 29.8936V25.0796L10.4328 29.1653C10.46 29.1982 10.4909 29.2353 10.5239 29.2753C10.6415 29.4172 10.7876 29.5935 10.9019 29.7309C11.0655 29.9278 11.3017 30.1122 11.5296 30.3245C11.6323 30.4202 11.7406 30.5292 11.8099 30.6404C11.8761 30.7465 11.9574 30.943 11.8231 31.1314C11.7347 31.2553 11.6076 31.3077 11.4976 31.3251C11.3922 31.3418 11.289 31.3295 11.2096 31.3132C11.1278 31.2965 11.0546 31.2721 11.0033 31.2527C10.9772 31.2429 10.9556 31.2338 10.9401 31.2271C10.9323 31.2237 10.926 31.2209 10.9213 31.2188C10.919 31.2177 10.9171 31.2167 10.9156 31.216C10.9148 31.2157 10.9141 31.2154 10.9136 31.2152L10.9125 31.2147L10.9124 31.2145C10.9127 31.2138 10.9186 31.2016 11.0258 30.9838C11.032 30.9867 11.4361 31.1784 11.5958 31.0021L11.6106 30.9838C11.7719 30.7576 11.0997 30.3467 10.7352 29.9336L10.701 29.8936C10.4726 29.6189 10.1172 29.1895 10.1161 29.1882L12.8769 24.6351L13.1701 24.635V29.8936C13.17 29.8977 13.1645 30.1295 13.1701 30.2784C13.1845 30.6571 12.9028 31.2122 13.3001 31.2403C14.0961 31.2964 16.1854 30.6161 16.6955 30.4451L16.809 30.4066C16.809 30.4066 16.9638 30.2899 16.9987 30.1733L17.0039 30.1502C17.035 29.9466 16.4852 30.0668 16.1282 30.0263L16.0942 30.0219C15.4837 29.9306 14.5347 29.7653 14.5347 29.7653V24.8915H15.8993L15.0545 16.8113C15.0545 16.8113 15.6257 16.7549 15.8577 16.7479L15.8993 16.7472C16.0182 16.7472 16.0855 16.5781 16.0934 16.3984L16.0942 16.3624ZM10.9124 31.2145C10.9105 31.2136 10.9084 31.2126 10.9064 31.2117L11.0258 30.9838L10.9124 31.2145ZM13.2439 5.97375C13.4816 5.98167 13.6857 6.0157 13.8819 6.08986C14.077 6.16361 14.2512 6.2721 14.4341 6.41226C14.7296 6.63863 14.895 7.02576 14.9865 7.31006C15.0345 7.45936 15.0669 7.59604 15.0874 7.69533C15.0976 7.74516 15.1049 7.78605 15.1097 7.81495C15.1121 7.82938 15.1139 7.84086 15.1151 7.84901C15.1158 7.85309 15.1162 7.85642 15.1165 7.85878C15.1167 7.85995 15.1168 7.86093 15.1169 7.86166C15.117 7.86201 15.117 7.86254 15.117 7.86254L15.1172 7.86292C15.1172 7.86292 15.1172 7.86316 14.8596 7.89743C14.8596 7.89743 14.7401 7.02274 14.3167 6.64936L14.2748 6.61486C13.9537 6.36883 13.7018 6.25861 13.3145 6.2339L13.2351 6.23009C12.8414 6.21697 12.5926 6.2776 12.2604 6.4866L12.2238 6.51033C11.8532 6.75715 11.71 7.06935 11.5456 7.44853L11.5116 7.53163C11.1825 8.38314 11.5511 9.01457 11.2207 9.88542L11.1897 9.96276C11.0288 10.3426 10.7881 10.6287 10.7009 11.0397L10.6805 11.144C10.5903 11.6544 10.6708 12.0017 10.8959 12.3864C11.136 12.7969 11.689 12.7712 11.9355 12.7071L12.1955 15.0158C12.1955 15.0158 11.1917 16.0814 11.0259 16.9396L10.9499 17.3284C10.8779 17.689 10.8124 17.9863 10.7009 18.4145L10.6492 18.6097C10.3932 19.5598 10.1701 20.1335 9.79494 21.0982L9.79119 21.1079L9.72324 21.2798C9.36891 22.1622 8.81651 23.3525 8.81651 23.3525L11.2207 24.0579C11.2148 24.0727 10.2038 26.62 9.23005 28.2904L9.15314 28.4207C9.12753 28.4634 9.10192 28.5055 9.07643 28.5469L9.04971 28.5875C8.75815 29.0088 7.98408 29.4507 8.36164 29.6371C9.14137 30.0219 11.0258 30.9838 11.0258 30.9838L10.9064 31.2117L10.9063 31.2115L10.901 31.2089C10.8974 31.2071 10.8921 31.2043 10.8851 31.2008C10.8712 31.1936 10.8505 31.1831 10.824 31.1696C10.7709 31.1425 10.6943 31.1035 10.6 31.0555C10.4112 30.9593 10.1514 30.8271 9.86728 30.6828C9.29851 30.3942 8.63368 30.0581 8.24533 29.8665C8.16368 29.8261 8.07688 29.7603 8.0306 29.6538C7.98322 29.5447 7.99816 29.439 8.02641 29.3606C8.07616 29.2225 8.19425 29.0957 8.28759 29.0022C8.33958 28.9502 8.39622 28.8969 8.45119 28.8454C8.50721 28.7929 8.56181 28.742 8.6144 28.6906C8.72208 28.5854 8.80512 28.4935 8.85439 28.4135C8.90418 28.3328 8.95437 28.2489 9.00478 28.1624C9.48578 27.3373 9.97894 26.2896 10.3535 25.4432C10.5403 25.0211 10.6967 24.6509 10.8064 24.3865C10.8313 24.3266 10.8533 24.2719 10.8732 24.2235L8.74245 23.5984C8.67029 23.5772 8.611 23.5261 8.57988 23.4585C8.54876 23.3908 8.54891 23.3132 8.58026 23.2457V23.2454C8.58026 23.2454 8.58049 23.245 8.58064 23.2447C8.58093 23.244 8.58135 23.2431 8.58191 23.2419C8.58308 23.2394 8.58492 23.2355 8.58724 23.2305C8.59188 23.2205 8.59867 23.2056 8.60754 23.1863C8.62529 23.1478 8.65116 23.0917 8.68318 23.0216C8.74726 22.8813 8.83631 22.6849 8.93612 22.4608C9.1362 22.0117 9.3777 21.4552 9.54848 21.0161L9.55229 21.0063C9.95195 19.9786 10.1745 19.406 10.4492 18.3507C10.5957 17.7878 10.6615 17.4559 10.7705 16.8915C10.8648 16.4037 11.1869 15.884 11.4616 15.5063C11.6023 15.3128 11.7374 15.1475 11.8372 15.0304C11.8704 14.9916 11.8998 14.9579 11.9243 14.9302L11.7068 12.9982C11.6001 13.0034 11.4833 12.9986 11.3654 12.9768C11.1178 12.931 10.8402 12.8044 10.6708 12.5148C10.5393 12.29 10.4463 12.0653 10.4063 11.8118C10.3664 11.5593 10.3816 11.293 10.4465 10.9872C10.5009 10.7308 10.6058 10.5207 10.7069 10.3344C10.8115 10.1418 10.9056 9.98445 10.9773 9.79555C11.1277 9.39891 11.1158 9.06102 11.1058 8.67167C11.0959 8.28354 11.089 7.8499 11.3067 7.34763C11.477 6.95493 11.6495 6.56682 12.1206 6.27035C12.3025 6.15593 12.4727 6.07519 12.6586 6.02698C12.844 5.97894 13.0318 5.96668 13.2439 5.97375ZM15.1172 7.86317C15.1355 7.99731 15.0451 8.12244 14.9106 8.14899L14.8535 8.16014C14.8792 8.27562 14.9073 8.42084 14.9271 8.57998C14.9508 8.7712 14.9637 8.9887 14.9448 9.20173C14.9261 9.41258 14.8748 9.63657 14.7562 9.82723C14.7027 9.91331 14.6267 10.006 14.5708 10.0708C14.5417 10.1047 14.5155 10.1339 14.4964 10.1546C14.4869 10.1651 14.4791 10.1735 14.4736 10.1794C14.4708 10.1824 14.4686 10.1847 14.467 10.1863C14.4662 10.1871 14.4657 10.1879 14.4652 10.1883C14.465 10.1886 14.4646 10.1888 14.4646 10.1888L14.4645 10.1891L14.4643 10.1892C14.4625 10.1912 14.4606 10.1932 14.4586 10.1951L14.4047 10.2483V10.4464C14.4178 10.45 14.4312 10.4537 14.4449 10.4579C14.5822 10.4995 14.7874 10.5818 14.9281 10.7458C15.2986 11.178 15.5996 11.6406 15.8072 11.993C15.9113 12.1697 15.9927 12.32 16.0482 12.4265C16.076 12.4797 16.0972 12.5221 16.1118 12.5515C16.1191 12.5661 16.1247 12.5776 16.1285 12.5855C16.1305 12.5895 16.1319 12.5926 16.133 12.5948C16.1335 12.5959 16.134 12.5968 16.1343 12.5974L16.1348 12.5984V12.5987C16.1345 12.5988 16.1266 12.6024 15.8993 12.7071C15.8993 12.7071 15.4724 11.8043 14.7958 10.9899L14.7296 10.9115C14.5464 10.6977 14.1448 10.655 14.1448 10.655V10.1419L14.2748 10.0137C14.2748 10.0137 14.4285 9.85197 14.5178 9.71914L14.5347 9.69304C14.892 9.11847 14.5369 7.96859 14.5347 7.96156L14.8596 7.89743L15.1172 7.86317Z" fill="#452810"/>
<path d="M15.9642 15.6571C15.9642 15.6039 15.9975 15.5562 16.0478 15.5372C16.0981 15.5182 16.1551 15.5318 16.191 15.5714L17.7839 17.3248L18.2024 16.8656L15.4682 13.0376C15.4286 12.9821 15.4396 12.9058 15.4932 12.8635L15.7365 12.6713C15.7264 12.6514 15.7149 12.6282 15.7015 12.6024C15.6485 12.5009 15.5704 12.3565 15.4701 12.1863C15.2693 11.8455 14.9812 11.4035 14.6305 10.9943C14.5634 10.9161 14.4466 10.8609 14.3303 10.8256C14.2746 10.8087 14.2237 10.7979 14.1869 10.7912C14.1686 10.7878 14.1539 10.7855 14.1441 10.7842C14.1393 10.7835 14.1356 10.7831 14.1333 10.7828C14.1323 10.7826 14.1315 10.7826 14.1311 10.7825C14.0651 10.7755 14.0148 10.7205 14.0148 10.655V10.142C14.0148 10.108 14.0285 10.0752 14.0529 10.0512L14.1816 9.92418C14.1827 9.92294 14.1846 9.92104 14.1869 9.91854C14.1916 9.91355 14.1984 9.90619 14.207 9.89687C14.224 9.8782 14.2477 9.85184 14.2738 9.82147C14.3274 9.75931 14.387 9.68542 14.424 9.62596C14.4991 9.50517 14.5406 9.34674 14.5565 9.16816C14.5722 8.99068 14.5618 8.80182 14.5401 8.62683C14.5184 8.45227 14.4859 8.29454 14.4586 8.18043C14.445 8.1235 14.4328 8.07767 14.4241 8.04629C14.4197 8.0306 14.4162 8.01847 14.4138 8.01046C14.4127 8.00649 14.4117 8.00348 14.4112 8.00157C14.4109 8.00064 14.4107 7.99998 14.4105 7.99957L14.4071 7.98604C14.401 7.95522 14.4066 7.92309 14.4231 7.89586C14.4419 7.86474 14.4733 7.84284 14.5093 7.83574L14.7097 7.79616C14.7081 7.7884 14.7069 7.78024 14.7052 7.77186C14.6868 7.68223 14.6576 7.55938 14.6149 7.42642C14.527 7.15333 14.3904 6.86585 14.195 6.71612C14.0296 6.58939 13.8894 6.5047 13.7426 6.4492C13.5963 6.39392 13.4369 6.36514 13.2307 6.35827C13.0416 6.35197 12.8945 6.36367 12.7577 6.3991C12.6213 6.43446 12.4885 6.49521 12.3303 6.59475C11.9689 6.82214 11.8345 7.10818 11.6651 7.49894C11.4833 7.91839 11.4858 8.27834 11.4956 8.6619C11.5054 9.04485 11.5229 9.45456 11.3424 9.93044C11.2589 10.1506 11.146 10.3403 11.0506 10.516C10.9535 10.6948 10.8707 10.8653 10.8281 11.066C10.7701 11.3394 10.7607 11.5575 10.7915 11.7526C10.8222 11.9473 10.894 12.1269 11.0084 12.3224C11.1037 12.4853 11.2625 12.5663 11.4373 12.5987C11.6141 12.6314 11.7943 12.6112 11.9025 12.583L11.9162 12.5803C11.9485 12.5754 11.9818 12.5828 12.0091 12.6013C12.0402 12.6224 12.0605 12.6558 12.0647 12.6929L12.3246 15.0015C12.3288 15.0386 12.3163 15.0756 12.2906 15.1029L12.2907 15.1031C12.2907 15.1031 12.2903 15.1034 12.2901 15.1036C12.2896 15.104 12.289 15.1048 12.2882 15.1057C12.2864 15.1076 12.2838 15.1104 12.2803 15.1142C12.2732 15.1219 12.2626 15.1334 12.2491 15.1484C12.222 15.1785 12.1829 15.2226 12.1354 15.2783C12.0402 15.3898 11.9117 15.5471 11.7783 15.7306C11.5081 16.1022 11.2307 16.5638 11.1534 16.9636C11.044 17.5301 10.9764 17.8715 10.8267 18.4464C10.5453 19.5279 10.3152 20.1181 9.91246 21.1538C9.73819 21.602 9.49355 22.1655 9.293 22.6157C9.19261 22.841 9.10299 23.0385 9.03854 23.1797C9.02302 23.2136 9.00882 23.2443 8.99641 23.2713L11.2577 23.9349C11.2926 23.9452 11.3216 23.9693 11.3376 24.0016C11.3515 24.0298 11.3544 24.0619 11.3461 24.0919L11.3418 24.1046L11.3415 24.1051C11.3414 24.1055 11.3412 24.1059 11.341 24.1065C11.3405 24.1078 11.3397 24.1097 11.3387 24.1122C11.3367 24.1171 11.3338 24.1246 11.33 24.1342C11.3222 24.1535 11.3108 24.1819 11.2959 24.2186C11.2662 24.2921 11.2226 24.3989 11.1673 24.5323C11.0566 24.7989 10.899 25.1718 10.7107 25.5973C10.3346 26.4471 9.83469 27.5104 9.34275 28.3543C9.29091 28.4432 9.23902 28.5299 9.18741 28.6136C9.11189 28.736 8.99977 28.8554 8.88866 28.964C8.83247 29.0189 8.77448 29.0731 8.71961 29.1245C8.66421 29.1763 8.61204 29.2254 8.56528 29.2723C8.46644 29.3713 8.41076 29.4424 8.39382 29.4895C8.39145 29.496 8.3905 29.5004 8.39014 29.503C8.39344 29.5064 8.40157 29.5134 8.41971 29.5224C8.81034 29.7152 9.47712 30.0521 10.0456 30.3407C10.3299 30.485 10.5899 30.6173 10.7788 30.7135C10.8732 30.7616 10.95 30.8007 11.003 30.8278C11.0295 30.8413 11.0502 30.8518 11.0642 30.859C11.0712 30.8625 11.0765 30.8653 11.0801 30.8671L11.0854 30.8697C11.0879 30.8709 11.0919 30.8727 11.0972 30.875C11.1078 30.8796 11.1234 30.8861 11.1428 30.8934C11.1819 30.9082 11.234 30.9253 11.2887 30.9365C11.3447 30.9479 11.3958 30.9516 11.4358 30.9452C11.4735 30.9393 11.4927 30.9263 11.5043 30.9099C11.5048 30.9093 11.5058 30.9096 11.505 30.9035C11.5037 30.8935 11.4976 30.8737 11.4779 30.8422C11.4379 30.778 11.3635 30.699 11.2619 30.6043C11.07 30.4254 10.7845 30.1963 10.6005 29.9749C10.486 29.8373 10.3398 29.6608 10.2221 29.5189C10.1633 29.4479 10.1116 29.3855 10.0747 29.3409C10.0562 29.3186 10.0414 29.3006 10.0313 29.2883C10.0262 29.2822 10.0221 29.2775 10.0195 29.2743C10.0181 29.2727 10.0172 29.2713 10.0165 29.2705C10.0162 29.2701 10.0158 29.2698 10.0156 29.2696L10.0155 29.2694C9.98088 29.2275 9.9765 29.1687 10.0046 29.1223L12.7653 24.5692L12.775 24.5554C12.7994 24.5249 12.8369 24.5068 12.8769 24.5068H13.1701C13.2418 24.5068 13.3 24.5642 13.3 24.6351V29.8991C13.3 29.9008 13.2998 29.9034 13.2998 29.9067C13.2996 29.9132 13.2995 29.923 13.2993 29.935C13.2988 29.959 13.2984 29.9926 13.298 30.0308C13.2973 30.1078 13.2973 30.2016 13.3 30.2735C13.3042 30.3826 13.2871 30.4998 13.2688 30.6059C13.2497 30.7173 13.2297 30.8145 13.2208 30.9034C13.2117 30.9948 13.2181 31.0483 13.2316 31.0765C13.2368 31.0873 13.2424 31.0931 13.2495 31.0974C13.2578 31.1025 13.2752 31.1099 13.3093 31.1123C13.5175 31.127 13.8355 31.0863 14.2061 31.0114C14.5731 30.9372 14.9797 30.8319 15.3598 30.7242C15.7396 30.6165 16.0914 30.5068 16.3482 30.424C16.4766 30.3825 16.5813 30.3479 16.6537 30.3236C16.6899 30.3115 16.7182 30.3019 16.7372 30.2954C16.7399 30.2945 16.7423 30.2936 16.7446 30.2928C16.7467 30.291 16.7492 30.2892 16.7517 30.2871C16.7661 30.2747 16.7853 30.2573 16.8047 30.237C16.8308 30.2096 16.8492 30.1848 16.8608 30.1651C16.8244 30.1583 16.7696 30.155 16.6947 30.1553C16.6001 30.1557 16.5056 30.1609 16.3929 30.1629C16.2872 30.1649 16.1749 30.1636 16.0747 30.1486C15.7683 30.1028 15.3775 30.0386 15.0637 29.9858C14.9068 29.9594 14.7689 29.9359 14.6703 29.9189C14.621 29.9105 14.5814 29.9036 14.5542 29.8989C14.5406 29.8966 14.5301 29.8947 14.523 29.8935C14.5194 29.8929 14.5167 29.8925 14.5148 29.8921C14.514 29.892 14.5133 29.8918 14.5128 29.8918L14.5123 29.8916C14.4502 29.8808 14.4047 29.8276 14.4047 29.7654V24.8916C14.4047 24.8208 14.4629 24.7634 14.5346 24.7633H15.7553L14.9253 16.8245C14.9217 16.7906 14.932 16.7566 14.9538 16.7302C14.9757 16.7038 15.0073 16.6871 15.0417 16.6837L15.0422 16.6836C15.0425 16.6836 15.043 16.6836 15.0436 16.6835C15.0448 16.6834 15.0466 16.6832 15.049 16.683C15.0539 16.6825 15.0611 16.6817 15.0702 16.6809C15.0885 16.6791 15.1147 16.6766 15.1467 16.6736C15.2109 16.6676 15.2987 16.6595 15.3926 16.6514C15.575 16.6358 15.7893 16.6194 15.8952 16.619C15.8993 16.6165 15.9109 16.607 15.9257 16.5744C15.949 16.5233 15.9642 16.4462 15.9642 16.3625V15.6571ZM16.2241 16.3625C16.2241 16.4711 16.2053 16.5865 16.1628 16.6796C16.1228 16.7673 16.0407 16.8755 15.8992 16.8755C15.8086 16.8755 15.6038 16.8909 15.415 16.9071C15.334 16.914 15.2576 16.921 15.1971 16.9266L16.0285 24.8783C16.0323 24.9144 16.0204 24.9506 15.9958 24.9775C15.9712 25.0045 15.936 25.0199 15.8992 25.0199H14.6646V29.6574C14.6799 29.6601 14.6967 29.6631 14.7149 29.6662C14.8133 29.6831 14.9508 29.7066 15.1074 29.7329C15.4208 29.7856 15.8097 29.8495 16.1137 29.895C16.191 29.9066 16.2851 29.9084 16.3882 29.9065C16.4844 29.9048 16.6011 29.8992 16.6936 29.8988C16.7864 29.8984 16.8869 29.9021 16.9649 29.9267C17.0048 29.9393 17.0533 29.9618 17.0893 30.0054C17.1293 30.0537 17.1411 30.1124 17.1324 30.1692C17.1166 30.2732 17.042 30.3623 16.994 30.4127C16.967 30.441 16.941 30.4644 16.9219 30.4808C16.9122 30.4891 16.9041 30.4957 16.8983 30.5004C16.8953 30.5027 16.8929 30.5046 16.8912 30.506C16.8903 30.5067 16.8896 30.5072 16.889 30.5076C16.8887 30.5078 16.8884 30.5082 16.8884 30.5082L16.8881 30.5084L16.888 30.5085C16.8771 30.5167 16.8649 30.5232 16.852 30.5277L16.8518 30.5278L16.8442 30.5303C16.8392 30.532 16.8317 30.5346 16.822 30.5379C16.8026 30.5446 16.774 30.5542 16.7374 30.5665C16.6641 30.591 16.5585 30.6261 16.4291 30.6678C16.1702 30.7513 15.8152 30.862 15.4315 30.9708C15.0482 31.0795 14.6344 31.1867 14.2582 31.2628C13.8856 31.3381 13.5375 31.3856 13.2909 31.3682C13.2257 31.3636 13.1649 31.3475 13.1125 31.3154C13.0589 31.2825 13.0212 31.2373 12.9967 31.1862C12.9509 31.0907 12.9524 30.9765 12.9622 30.8782C12.9723 30.7775 12.9954 30.6631 13.0126 30.563C13.0307 30.4577 13.0433 30.3634 13.0402 30.2832C13.0373 30.205 13.0374 30.1063 13.0381 30.0285C13.0384 29.9894 13.0389 29.9548 13.0394 29.9302C13.0396 29.9179 13.0398 29.9081 13.04 29.9013C13.0401 29.898 13.0401 29.8954 13.0401 29.8936V24.7633H12.9505L10.2744 29.1767C10.2749 29.1773 10.2754 29.178 10.2759 29.1786C10.3129 29.2232 10.3645 29.2855 10.4233 29.3564C10.5409 29.4984 10.6871 29.6747 10.8014 29.8122C10.9718 30.0173 11.2245 30.2166 11.4404 30.4178C11.5427 30.5132 11.6397 30.6121 11.6993 30.7076C11.7573 30.8006 11.8049 30.9342 11.7169 31.0576C11.6541 31.1457 11.5629 31.1849 11.4771 31.1985C11.3934 31.2118 11.3076 31.2024 11.236 31.1877C11.1632 31.1728 11.097 31.1507 11.0497 31.1329C11.0259 31.1239 11.0064 31.1157 10.9925 31.1097C10.9856 31.1067 10.98 31.1043 10.976 31.1024C10.974 31.1015 10.9725 31.1007 10.9713 31.1002C10.9707 31.0999 10.9703 31.0997 10.9699 31.0996L10.9691 31.0992L10.9661 31.0977L10.9647 31.0971C10.9638 31.0966 10.9624 31.0958 10.9606 31.0949C10.9571 31.0931 10.9517 31.0903 10.9448 31.0868C10.9308 31.0796 10.9101 31.0691 10.8836 31.0556C10.8306 31.0286 10.754 30.9895 10.6596 30.9415C10.4708 30.8453 10.2109 30.713 9.92668 30.5687C9.35801 30.2801 8.69256 29.9438 8.30346 29.7517C8.23829 29.7196 8.1801 29.6726 8.15002 29.6033C8.11938 29.5328 8.12778 29.4621 8.14888 29.4035C8.18769 29.2958 8.28494 29.1876 8.38011 29.0923C8.43036 29.042 8.48554 28.9901 8.54066 28.9385C8.5963 28.8864 8.65199 28.8343 8.70577 28.7818C8.81462 28.6754 8.90741 28.5743 8.96544 28.4802C9.01582 28.3985 9.06648 28.3137 9.11735 28.2264C9.60201 27.395 10.0975 26.3421 10.4725 25.4946C10.6598 25.0713 10.8167 24.7003 10.9268 24.4351C10.9775 24.3126 11.0181 24.2127 11.0473 24.1407L8.77951 23.4754C8.74343 23.4648 8.71372 23.4393 8.69816 23.4055C8.6826 23.3717 8.68274 23.3328 8.69841 23.299V23.2988C8.69841 23.2988 8.69866 23.2984 8.69879 23.2981C8.69909 23.2975 8.6996 23.2965 8.70019 23.2953C8.70138 23.2927 8.70306 23.2888 8.70539 23.2837C8.71006 23.2737 8.71693 23.2587 8.72583 23.2394C8.74363 23.2008 8.7695 23.1445 8.80159 23.0742C8.8658 22.9336 8.95504 22.7369 9.05504 22.5124C9.25527 22.063 9.49786 21.5042 9.66981 21.062C10.0721 20.0275 10.2976 19.4489 10.5751 18.3827C10.7226 17.8157 10.789 17.4806 10.8982 16.9156C10.9868 16.4571 11.294 15.9567 11.5672 15.581C11.7054 15.3909 11.8383 15.2281 11.9366 15.113C11.9858 15.0553 12.0264 15.0095 12.0549 14.9779C12.0566 14.9761 12.0582 14.9742 12.0598 14.9724L11.8219 12.8588C11.6964 12.8756 11.5433 12.8793 11.3894 12.8508C11.166 12.8094 10.9281 12.698 10.7833 12.4506C10.6576 12.2357 10.5716 12.026 10.5347 11.7922C10.4979 11.5587 10.5111 11.3085 10.5737 11.0135C10.6241 10.7757 10.7218 10.5787 10.8215 10.3949C10.923 10.208 11.0234 10.0398 11.099 9.84051C11.2595 9.41746 11.2457 9.05563 11.2358 8.66841C11.2259 8.28181 11.2204 7.87276 11.4262 7.39811C11.5961 7.00603 11.7559 6.65189 12.1906 6.37844C12.3645 6.26899 12.5222 6.19491 12.6916 6.15098C12.8607 6.10714 13.035 6.09507 13.2395 6.10188C13.4667 6.10945 13.6559 6.14184 13.8355 6.20972C14.0145 6.27739 14.1773 6.3779 14.3544 6.51358C14.6165 6.7144 14.7724 7.06821 14.8626 7.34876C14.9088 7.49262 14.9402 7.62481 14.9599 7.72088C14.9698 7.76899 14.9769 7.80834 14.9815 7.83586C14.9838 7.84959 14.9854 7.8604 14.9866 7.86793C14.9871 7.87166 14.9876 7.87463 14.9879 7.87669C14.988 7.87773 14.9881 7.87861 14.9882 7.8792C14.9883 7.87949 14.9884 7.87995 14.9884 7.87995V7.8802C14.9975 7.94726 14.9523 8.00997 14.8851 8.02324L14.6962 8.06044C14.701 8.07924 14.7063 8.09968 14.7116 8.12169C14.7403 8.24217 14.775 8.40938 14.7981 8.59564C14.8212 8.78144 14.8332 8.98942 14.8154 9.19058C14.7976 9.39067 14.7495 9.59274 14.6454 9.7601C14.5974 9.83731 14.527 9.9237 14.4718 9.98768C14.4436 10.0204 14.4182 10.0486 14.3999 10.0687C14.3907 10.0787 14.3833 10.0868 14.378 10.0924C14.3754 10.0952 14.3734 10.0974 14.3719 10.0989C14.3712 10.0997 14.3707 10.1004 14.3703 10.1008L14.3698 10.1012L14.3697 10.1014C14.3687 10.1024 14.3677 10.1035 14.3667 10.1044L14.2747 10.1952V10.5468C14.3128 10.5548 14.358 10.5657 14.4067 10.5805C14.537 10.62 14.7127 10.6932 14.8288 10.8286C15.1928 11.2531 15.4896 11.7089 15.6949 12.0575C15.7977 12.232 15.8779 12.3802 15.9326 12.4851C15.9599 12.5375 15.9808 12.5791 15.995 12.6078C16.0021 12.6222 16.0076 12.6333 16.0113 12.6409C16.0131 12.6446 16.0145 12.6475 16.0155 12.6495C16.016 12.6505 16.0164 12.6514 16.0166 12.6519C16.0167 12.6522 16.0169 12.6525 16.0169 12.6525L16.017 12.6528C16.0423 12.7064 16.0273 12.7703 15.9804 12.8072L15.751 12.9883L18.4747 16.8016C18.5096 16.8505 18.5057 16.9168 18.4651 16.9613L17.8803 17.6026C17.8557 17.6296 17.8204 17.6451 17.7835 17.6451C17.7466 17.645 17.7115 17.6294 17.6869 17.6023L16.2241 15.9921V16.3625Z" fill="url(#paint6_linear_139_7733)"/>
<path d="M28.7003 10.5267L28.943 10.6181C28.938 10.6312 28.9319 10.6439 28.9248 10.656L28.5103 11.3571C28.5132 11.4035 28.5168 11.4668 28.5192 11.5384C28.5239 11.6831 28.5246 11.8771 28.503 12.0357C28.4626 12.3335 28.4684 12.6688 28.184 13.0009C28.0402 13.1688 27.8134 13.2842 27.6555 13.3525C27.571 13.3891 27.4941 13.4172 27.4382 13.4362C27.4319 13.4383 27.4258 13.4401 27.4201 13.4421C27.4171 13.4454 27.4141 13.449 27.4109 13.4526C27.3739 13.4947 27.3202 13.5553 27.2528 13.6299C27.1181 13.7792 26.9285 13.9851 26.7089 14.2117C26.2735 14.6609 25.7061 15.2061 25.2099 15.5469C25.0397 15.6638 24.8203 15.7003 24.6769 15.7139C24.6751 15.714 24.6733 15.7141 24.6715 15.7142V17.7733C24.6715 17.9106 24.5621 18.0223 24.4246 18.029C24.4267 18.0715 24.429 18.1186 24.4317 18.1697C24.4448 18.4253 24.4638 18.7833 24.4872 19.1927C24.5342 20.0121 24.599 21.0352 24.6705 21.8556C24.7815 23.1302 24.8783 23.8546 25.0589 25.1121C25.1422 25.6929 25.2714 26.4263 25.3802 27.0166C25.4345 27.3113 25.4836 27.5695 25.5191 27.754C25.5368 27.8463 25.5512 27.92 25.5611 27.9707C25.566 27.996 25.5699 28.0156 25.5725 28.0288C25.5732 28.0327 25.5738 28.0361 25.5744 28.0389L25.7173 28.5561C25.7429 28.5571 25.7704 28.5581 25.7991 28.5588C25.9542 28.5627 26.135 28.5622 26.2687 28.5483C26.5572 28.5183 26.8147 28.4865 27.0001 28.4622C27.0928 28.4501 27.1673 28.4398 27.2185 28.4326C27.2442 28.4291 27.264 28.4263 27.2773 28.4244C27.2839 28.4234 27.2889 28.4226 27.2923 28.4221C27.2928 28.422 27.2934 28.4219 27.2938 28.4219C27.2945 28.4217 27.2954 28.4216 27.2962 28.4215C27.3014 28.4206 27.3085 28.4194 27.3172 28.418C27.3345 28.4153 27.3587 28.4118 27.3876 28.4085C27.4445 28.4019 27.5245 28.3955 27.6099 28.3978C27.6919 28.4001 27.7976 28.4106 27.8963 28.4492C27.9916 28.4864 28.107 28.5618 28.1601 28.7021L28.1699 28.731L28.1792 28.7667C28.2188 28.9457 28.161 29.1268 28.1209 29.2292C28.0964 29.2918 28.07 29.3458 28.0498 29.3839C28.0397 29.4032 28.0309 29.4189 28.0243 29.4302C28.021 29.4358 28.0183 29.4404 28.0162 29.4438C28.0152 29.4455 28.0143 29.4469 28.0137 29.4481C28.0133 29.4486 28.013 29.4492 28.0128 29.4496L28.0124 29.4501L28.0123 29.4503L28.0121 29.4504C27.9891 29.4875 27.9569 29.5183 27.9185 29.5397L24.9294 31.2071C24.9136 31.2159 24.8969 31.223 24.8797 31.2284L24.8621 31.2331L24.862 31.2333H24.8618L24.8613 31.2334C24.8609 31.2335 24.8604 31.2336 24.8599 31.2338C24.8587 31.234 24.8572 31.2344 24.8554 31.2348C24.8519 31.2356 24.8472 31.2365 24.8413 31.2378C24.8296 31.2403 24.8133 31.2436 24.7934 31.2472C24.7538 31.2543 24.6985 31.263 24.6359 31.2688C24.524 31.2792 24.3368 31.2863 24.1791 31.2195C23.7858 31.0529 23.5407 30.6553 23.6381 30.2227C23.7016 29.9406 23.7494 29.6733 23.7814 29.4762C23.7973 29.3779 23.8092 29.2973 23.8171 29.2416C23.8189 29.2296 23.8202 29.2186 23.8216 29.209L23.6428 28.6205L22.4582 24.8351L20.5482 28.2167C20.5471 28.2191 20.5456 28.2225 20.5435 28.2267C20.5385 28.2373 20.5311 28.2534 20.5223 28.2736C20.5047 28.3144 20.4825 28.3705 20.4633 28.4321C20.4438 28.4948 20.4295 28.557 20.4242 28.6115C20.4188 28.6689 20.4254 28.6984 20.4293 28.7081C20.5554 29.0191 20.6643 29.2337 20.74 29.3682C20.7714 29.4239 20.7973 29.4658 20.816 29.4952C20.8421 29.5065 20.8738 29.5207 20.9094 29.5375C21.0075 29.5838 21.1396 29.6516 21.2686 29.7359C21.3943 29.818 21.5345 29.9269 21.6328 30.0597C21.7335 30.1955 21.8126 30.3908 21.7313 30.6083C21.5924 30.9799 21.214 31.0285 20.9785 31.0265C20.8491 31.0254 20.7196 31.0094 20.6142 30.9952C20.4984 30.9796 20.4257 30.9686 20.3759 30.9672C20.2429 30.9637 20.1191 30.9183 20.0196 30.8685C19.9178 30.8176 19.8238 30.7534 19.7463 30.6937C19.6681 30.6334 19.6019 30.5741 19.5553 30.53C19.5318 30.5078 19.513 30.4891 19.4997 30.4756C19.493 30.4689 19.4877 30.4635 19.4839 30.4596C19.4821 30.4576 19.4805 30.456 19.4794 30.4548L17.9898 28.9848C17.9862 28.9812 17.9828 28.9776 17.9794 28.9739L18.1736 28.8034L19.6681 30.2784C19.6691 30.2794 20.0654 30.7024 20.3829 30.7108C20.6518 30.718 21.3148 30.9186 21.48 30.538L21.4875 30.5195C21.6473 30.0919 20.645 29.7021 20.6428 29.7012C20.6428 29.7012 20.4479 29.4447 20.1879 28.8034C20.0864 28.553 20.3179 28.098 20.3179 28.098L22.5272 24.1861L23.8918 28.5469L24.0867 29.1882C24.0865 29.1897 24.0215 29.7021 23.8918 30.2784L23.8862 30.3063C23.835 30.5943 23.9986 30.8639 24.2816 30.9838C24.4216 31.043 24.6441 31.0134 24.7465 30.9949L24.8015 30.9838L27.7905 29.3164C27.7905 29.3164 27.9817 29.0087 27.9205 28.8034C27.8529 28.5767 27.3357 28.6751 27.3357 28.6751C27.3342 28.6754 26.8777 28.7429 26.296 28.8034C25.9937 28.8348 25.5178 28.8035 25.5163 28.8034L25.3213 28.098C25.3213 28.098 25.0122 26.5354 24.835 25.3744L24.8015 25.1481C24.6433 24.0458 24.5489 23.3495 24.453 22.3343L24.4116 21.8775C24.2681 20.2302 24.1519 17.7768 24.1517 17.7733H24.4116V15.4646C24.4131 15.4647 24.8104 15.4892 25.0397 15.3504L25.0614 15.3364C26.0082 14.6862 27.2707 13.2201 27.2707 13.2201C27.2722 13.2197 27.7493 13.0836 27.9654 12.8575L27.9855 12.8353C28.1804 12.6077 28.1981 12.3986 28.2302 12.1238L28.2454 12.0017C28.2824 11.7293 28.2456 11.2982 28.2454 11.2963L28.7003 10.5267ZM20.8516 29.5484L20.8511 29.5476L20.8508 29.5474L20.8516 29.5484ZM20.058 17.9015V16.9666L19.8439 17.4853C19.8128 17.5605 19.7476 17.6163 19.6686 17.6366C19.6344 17.802 19.5855 18.0087 19.5228 18.1807C19.4182 18.4676 19.175 18.6971 18.9911 18.842C18.8947 18.9181 18.8041 18.9788 18.7377 19.0206C18.7044 19.0416 18.6767 19.058 18.657 19.0695C18.6471 19.0752 18.6391 19.0797 18.6334 19.0829C18.6305 19.0845 18.6281 19.0858 18.6264 19.0868C18.6256 19.0872 18.6249 19.0876 18.6244 19.0879L18.6233 19.0884L18.6232 19.0885L18.4985 18.8634C18.4999 18.8627 19.0819 18.5485 19.2621 18.1344L19.2782 18.0939C19.3987 17.7634 19.473 17.261 19.4732 17.2602L19.6031 17.3885L20.3179 15.657V17.9015H20.6428V22.7753L18.8883 27.2002C18.8881 27.2005 18.7588 27.3654 18.5634 27.5208L18.5112 27.5605C18.2465 27.7537 17.9355 27.8712 17.8487 28.2262C17.807 28.3966 18.1736 28.8034 18.1736 28.8034C17.9799 28.9734 17.9794 28.9739 17.9794 28.9739L17.9788 28.9732C17.9785 28.9729 17.9781 28.9724 17.9776 28.9719C17.9767 28.9708 17.9753 28.9694 17.9737 28.9676C17.9705 28.964 17.966 28.9588 17.9605 28.9524C17.9494 28.9396 17.9339 28.9215 17.9156 28.8993C17.8791 28.8553 17.8302 28.7935 17.7819 28.7249C17.7347 28.6577 17.6829 28.5764 17.6451 28.4941C17.6139 28.4261 17.5635 28.2988 17.596 28.166L17.6093 28.1174C17.6807 27.8797 17.8285 27.7257 17.9785 27.6108C18.0551 27.5521 18.1372 27.5 18.2069 27.4551C18.2802 27.4079 18.3432 27.3667 18.4004 27.3212C18.4856 27.2534 18.5575 27.1825 18.6082 27.1282C18.6307 27.1041 18.6486 27.0836 18.6613 27.0688L20.3829 22.7269V18.158H20.3179C20.1743 18.158 20.058 18.0432 20.058 17.9015ZM18.6232 19.0885C18.5549 19.1254 18.4732 19.13 18.401 19.1012L18.4985 18.8634L18.6232 19.0885ZM22.1967 4.85132C22.6212 4.56062 23.0755 4.48324 23.4637 4.50287C23.6964 4.51463 23.9033 4.54305 24.1038 4.62098C24.3062 4.69962 24.4844 4.8217 24.6725 4.99648C24.9975 5.29833 25.2177 5.8245 25.2452 6.25827C25.2696 6.64326 25.2457 6.73449 25.2457 7.06376C25.2457 7.18202 25.1637 7.28499 25.0473 7.31301L24.9464 7.33718C24.9329 7.38165 24.9166 7.43556 24.8974 7.49725C24.8392 7.68432 24.7565 7.94416 24.6582 8.23511C24.5507 8.55328 24.4471 8.79128 24.2296 9.07743C24.0281 9.34256 23.7357 9.37705 23.5789 9.425C23.5331 9.43903 23.4807 9.45117 23.4329 9.46157L23.4006 9.66298C23.4799 9.69945 23.5791 9.74997 23.6582 9.80877C23.84 9.94379 23.9604 10.1323 24.0507 10.3381C24.1405 10.5428 24.2087 10.7841 24.2739 11.0416L24.8304 13.2387L26.3869 12.1263L26.6313 11.8851L26.6872 11.3348C26.6955 11.2523 26.7439 11.1788 26.8169 11.1377L27.2455 10.8958L28.1981 10.0186L28.2172 10.0025C28.2371 9.98746 28.2592 9.97519 28.2827 9.96633L28.3754 10.2061L27.4007 11.1039L26.9458 11.3604L26.8808 12.0017L26.5559 12.3223L24.6715 13.669L24.0217 11.1039C23.8958 10.6069 23.7741 10.234 23.5263 10.0326L23.5019 10.0137C23.3663 9.91291 23.1134 9.82179 23.112 9.82129L23.2047 9.24426C23.2047 9.24426 23.3454 9.2217 23.4566 9.19278L23.5019 9.18001C23.7051 9.11781 23.8645 9.10428 23.9958 8.95518L24.0217 8.92349C24.2167 8.66698 24.3093 8.45682 24.4116 8.15395C24.6059 7.57874 24.7392 7.12594 24.7401 7.12288L24.9858 7.06376C24.9858 6.70009 25.0097 6.65302 24.9858 6.2743C24.9625 5.9074 24.7765 5.46281 24.5195 5.20741L24.4945 5.18336C24.1505 4.86379 23.8907 4.78127 23.4504 4.75901C23.1074 4.74167 22.7131 4.81005 22.345 5.06212L22.3027 5.0918C21.8742 5.402 21.7014 5.79461 21.5465 6.2743L21.5321 6.32077C21.3888 6.79831 21.4375 7.19899 21.5465 7.66835C21.6399 8.0703 21.9748 8.5148 21.9764 8.51692L21.5525 9.43652C21.5525 9.43652 21.3949 9.46748 21.2276 9.62891L21.1782 9.6775C20.1568 10.7057 20.071 12.1554 19.6031 13.5408L19.5371 13.7331C19.1839 14.7509 18.4989 16.5537 18.4985 16.5548L18.6284 16.8113C18.628 16.8119 18.3384 17.1742 18.1736 17.3244L18.1406 17.3527C17.9659 17.495 17.6545 17.6446 17.6537 17.645L17.6489 17.691C17.6409 17.7769 17.628 17.9649 17.6537 18.0939C17.7472 18.5634 18.4985 18.8634 18.4985 18.8634C18.4052 19.0908 18.4012 19.1008 18.401 19.1012H18.4006L18.4004 19.1009C18.4004 19.1009 18.3998 19.1008 18.3995 19.1007C18.3988 19.1004 18.3978 19.1 18.3968 19.0995C18.3947 19.0987 18.392 19.0976 18.3886 19.0962C18.3816 19.0933 18.372 19.0891 18.3601 19.0839C18.3364 19.0734 18.3032 19.0583 18.2634 19.0387C18.1844 18.9997 18.077 18.9419 17.9652 18.867C17.7577 18.7279 17.4667 18.4853 17.3986 18.1434C17.3751 18.0254 17.3768 17.8873 17.3812 17.793C17.3836 17.743 17.3872 17.699 17.3901 17.6674C17.3916 17.6516 17.3929 17.6387 17.3939 17.6296C17.3944 17.625 17.3949 17.6213 17.3952 17.6187C17.3954 17.6174 17.3955 17.6162 17.3956 17.6154C17.3956 17.6151 17.3956 17.6144 17.3956 17.6144L17.3957 17.6142V17.6139L17.3983 17.5979C17.4133 17.5183 17.4657 17.45 17.54 17.4143L17.5404 17.4142C17.5409 17.4139 17.5417 17.4136 17.5428 17.413C17.545 17.412 17.5484 17.4103 17.553 17.408C17.562 17.4035 17.5754 17.3968 17.5922 17.3882C17.6258 17.3711 17.6723 17.3467 17.7233 17.3181C17.8313 17.2575 17.9385 17.1894 17.9973 17.1358C18.0661 17.0732 18.1701 16.9568 18.2638 16.8466C18.2842 16.8227 18.3031 16.7993 18.3209 16.778L18.266 16.6695C18.2336 16.6057 18.2297 16.5315 18.255 16.4648L18.2552 16.4646V16.4644C18.2553 16.4641 18.2555 16.4637 18.2557 16.4633C18.2561 16.4623 18.2566 16.4608 18.2573 16.4589C18.2588 16.455 18.261 16.4492 18.2639 16.4416C18.2697 16.4264 18.2782 16.4039 18.2892 16.3749C18.3111 16.3171 18.3427 16.2333 18.3817 16.1297C18.4598 15.9225 18.5673 15.6363 18.6849 15.3201C18.9206 14.6865 19.1955 13.9364 19.3565 13.4596C19.4721 13.1174 19.5643 12.7695 19.6554 12.4173C19.7458 12.0677 19.8359 11.7117 19.945 11.3671C20.164 10.6756 20.4678 10.0034 21.0459 9.44554C21.153 9.34213 21.2594 9.27834 21.3425 9.23988C21.3489 9.2369 21.3552 9.23417 21.3614 9.23148L21.679 8.54235C21.648 8.4958 21.6108 8.43844 21.5722 8.37314C21.4721 8.20402 21.3489 7.96523 21.2932 7.72571C21.1764 7.2228 21.1174 6.75843 21.2988 6.19639C21.4636 5.6858 21.6649 5.2155 22.1967 4.85132ZM28.4631 9.91962C28.5109 9.91205 28.5751 9.90599 28.6429 9.9141C28.7051 9.92155 28.7933 9.94381 28.8691 10.0107L28.884 10.0247L28.8982 10.0395C28.966 10.1142 28.9885 10.2013 28.9961 10.2627C29.0043 10.3296 28.9982 10.393 28.9905 10.4402C28.9826 10.4891 28.9711 10.5323 28.962 10.5625C28.9573 10.5779 28.9529 10.5908 28.9496 10.6002C28.948 10.6049 28.9466 10.6089 28.9455 10.6119C28.9449 10.6133 28.9445 10.6146 28.9441 10.6156C28.9439 10.6162 28.9437 10.6167 28.9436 10.6171L28.9432 10.6179L28.7003 10.5267C28.7003 10.5267 28.79 10.2946 28.7003 10.2061C28.6107 10.1176 28.376 10.2058 28.3754 10.2061L28.2827 9.96633H28.283L28.2837 9.96596C28.2841 9.96581 28.2847 9.96565 28.2853 9.96546C28.2863 9.96507 28.2876 9.96461 28.2891 9.96408C28.2921 9.96299 28.2961 9.96157 28.3009 9.95995C28.3104 9.9567 28.3234 9.95241 28.3391 9.9478C28.3697 9.93877 28.4135 9.92746 28.4631 9.91962Z" fill="#452810"/>
<path d="M19.6031 13.5408C19.2782 14.8875 18.5634 16.8755 18.5634 16.8755L19.3432 17.1961L19.6031 17.3885L20.3179 15.657V17.9015H20.6428C20.6428 17.9015 21.7936 17.9596 22.5272 17.9015C23.1926 17.8488 24.2167 17.645 24.2167 17.645H24.4116L24.4116 15.4646C24.4116 15.4646 24.8361 15.4911 25.0614 15.3364C26.0082 14.6862 27.2707 13.2201 27.2707 13.2201C27.2707 13.2201 27.0159 13.0008 26.8808 12.8353C26.7307 12.6513 26.5559 12.3223 26.5559 12.3223L24.6715 13.669L24.0217 11.1039C23.8918 10.5908 23.7662 10.2101 23.5019 10.0137C23.3659 9.91264 23.112 9.82129 23.112 9.82129C23.112 9.82129 22.9861 9.82612 22.9171 9.88542C22.7449 10.0335 22.2688 10.0787 21.9424 9.88542C21.8237 9.81514 21.709 9.67087 21.6351 9.56478C21.5841 9.49156 21.5525 9.43652 21.5525 9.43652C21.5525 9.43652 21.3949 9.46748 21.2276 9.62891C20.1595 10.6597 19.9513 12.0976 19.6031 13.5408Z" fill="url(#paint7_linear_139_7733)"/>
<path d="M26.8808 11.2963L26.8808 12.0017L27.0108 12.0658L27.5956 11.5528L27.6606 11.2321L28.6353 10.1728C28.529 10.1482 28.3754 10.2061 28.3754 10.2061L27.4007 11.1039L26.8808 11.2963Z" fill="#EBA980"/>
<path d="M19.2782 18.0939C19.3988 17.7631 19.3432 17.1961 19.3432 17.1961L18.5634 16.8755C18.5634 16.8755 18.8413 17.2406 18.8883 17.5167C18.9306 17.7649 18.9218 17.9258 18.8234 18.158C18.6881 18.4772 18.1736 18.7692 18.1736 18.7692C18.3481 18.906 18.4985 18.9917 18.4985 18.9917C18.4985 18.9917 19.1199 18.5284 19.2782 18.0939Z" fill="#EBAA81"/>
<path fill-rule="evenodd" clip-rule="evenodd" d="M18.5634 16.8755C18.5634 16.8755 18.3385 17.1741 18.1736 17.3244C18.0086 17.4746 17.6537 17.645 17.6537 17.645C17.6537 17.645 17.6195 17.9219 17.6537 18.0939C17.7054 18.3533 17.9579 18.6002 18.1736 18.7692C18.1736 18.7692 18.6881 18.4772 18.8234 18.158C18.9218 17.9258 18.9306 17.7649 18.8883 17.5167C18.8413 17.2406 18.5634 16.8755 18.5634 16.8755ZM20.6428 17.9015V22.7753L19.0183 26.8724L18.8883 27.2002C18.8883 27.2002 18.759 27.3652 18.5634 27.5208C18.4906 27.5788 18.4125 27.629 18.3354 27.6786C18.1223 27.8158 17.9167 27.9481 17.8487 28.2262C17.807 28.3966 18.1736 28.8034 18.1736 28.8034L19.6681 30.2784C19.6681 30.2784 20.065 30.7024 20.3829 30.7108C20.4403 30.7124 20.5158 30.7227 20.6006 30.7344C20.9187 30.778 21.3678 30.8397 21.4875 30.5195C21.6475 30.0915 20.6428 29.7012 20.6428 29.7012C20.6428 29.7012 20.4479 29.4447 20.1879 28.8034C20.0864 28.553 20.3179 28.098 20.3179 28.098L22.5272 24.1861L23.8918 28.5469L23.9892 28.8675L24.0867 29.1882C24.0867 29.1882 24.0217 29.7012 23.8918 30.2784C23.8246 30.5768 23.9895 30.86 24.2816 30.9838C24.4682 31.0628 24.8015 30.9838 24.8015 30.9838L27.7905 29.3164C27.7905 29.3164 27.9817 29.0087 27.9205 28.8034C27.8529 28.5767 27.3357 28.6751 27.3357 28.6751C27.3357 28.6751 26.8786 28.7428 26.296 28.8034C25.9932 28.8349 25.5163 28.8034 25.5163 28.8034L25.4188 28.4507L25.3213 28.098C25.3213 28.098 24.9697 26.3201 24.8015 25.1481C24.6206 23.8883 24.5232 23.1588 24.4116 21.8775C24.268 20.229 24.2167 17.645 24.2167 17.645C24.2167 17.645 23.1926 17.8488 22.5272 17.9015C21.7936 17.9596 20.6428 17.9015 20.6428 17.9015ZM22.4333 8.70555L21.8019 8.33608C21.6624 8.08994 21.461 7.68983 21.4193 7.36679C21.3648 6.9448 21.3922 6.68489 21.5348 6.28347C21.7215 5.75818 21.8987 5.39554 22.4014 5.14313C22.709 4.98869 22.9238 4.9481 23.268 4.97208C23.7113 5.00296 23.9843 5.1276 24.308 5.42822C24.5619 5.66411 24.7298 5.98029 24.8279 6.3975C24.8596 6.53214 24.8681 6.6977 24.8662 6.85364C24.8662 6.85364 24.252 6.81102 24.0191 7.08171C23.8806 7.24273 23.7302 7.53784 23.7302 7.53784L23.6147 8.05099C23.6147 8.05099 23.6603 8.33662 23.788 8.45011C23.9346 8.58042 24.2799 8.56414 24.2799 8.56414C24.2477 8.66634 24.2046 8.76326 24.1346 8.84923C24.1176 8.87012 24.1014 8.89037 24.0858 8.90996C23.9631 9.06339 23.8724 9.17677 23.6724 9.24834C23.4603 9.32426 23.0947 9.24834 23.0947 9.24834L22.7481 9.04878L22.4333 8.70555ZM26.5559 12.3223C26.5559 12.3223 26.7307 12.6513 26.8808 12.8353C27.0159 13.0008 27.2707 13.2201 27.2707 13.2201L27.9855 12.8353C27.9855 12.8353 28.1995 12.3393 28.2454 12.0017C28.2825 11.7286 28.2454 11.2963 28.2454 11.2963L28.7003 10.5267C28.7003 10.5267 28.79 10.2946 28.7003 10.2061C28.6831 10.1891 28.6605 10.1786 28.6353 10.1728L27.6606 11.2321L27.5956 11.5528L27.0108 12.0658L26.8808 12.0017L26.5559 12.3223Z" fill="#FFC9A8"/>
<path d="M24.5968 7.25615H24.8279C24.8279 7.25615 24.8629 7.12475 24.8662 6.85364C24.8662 6.85364 24.252 6.81102 24.0191 7.08171C23.8806 7.24273 23.7302 7.53784 23.7302 7.53784L23.6147 8.05099C23.6147 8.05099 23.6603 8.33662 23.788 8.45011C23.9346 8.58042 24.2799 8.56414 24.2799 8.56414C24.3145 8.45387 24.3365 8.33747 24.3657 8.22204C24.4813 7.76591 24.5968 7.25615 24.5968 7.25615Z" fill="#EBA980"/>
<path fill-rule="evenodd" clip-rule="evenodd" d="M21.5525 9.43652L21.9392 8.56414C21.9392 8.56414 21.8804 8.47444 21.8019 8.33608L22.4333 8.70555L22.7481 9.04878C22.7481 9.04878 22.6752 9.32236 22.4622 9.43652C22.1749 9.5905 21.6351 9.56478 21.6351 9.56478C21.5841 9.49156 21.5525 9.43652 21.5525 9.43652Z" fill="#F1BE9E"/>
<path d="M23.112 9.82129L23.0947 9.24834L22.7481 9.04878C22.7481 9.04878 22.6752 9.32236 22.4622 9.43652C22.1749 9.5905 21.6351 9.56478 21.6351 9.56478C21.709 9.67087 21.8237 9.81514 21.9424 9.88542C22.2688 10.0787 22.7449 10.0335 22.9171 9.88542C22.9861 9.82612 23.112 9.82129 23.112 9.82129Z" fill="#EBA980"/>
<path d="M19.6681 17.1961L18.4985 16.4907L18.8234 15.657L19.6681 12.9636L20.2529 11.2963L21.0327 9.94955L20.5778 11.168L20.3829 12.5147V15.657L19.6681 17.1961Z" fill="#6B83AF"/>
<path d="M18.5841 16.6778C18.623 16.6183 18.7034 16.6011 18.7637 16.6394L19.6734 17.2165C19.7338 17.2548 19.7512 17.3342 19.7124 17.3937C19.6736 17.4533 19.5932 17.4705 19.5328 17.4322L18.6231 16.855C18.5628 16.8167 18.5453 16.7374 18.5841 16.6778Z" fill="#627AA4"/>
<path d="M24.6715 29.0599C24.471 29.119 24.1517 29.1882 24.1517 29.1882L23.9567 30.0218V30.7273L24.6715 30.9838L27.0108 29.7653L27.9205 29.1882V28.7393H27.3357L26.1661 28.8675L25.5163 28.7393C25.5163 28.7393 25.0102 28.96 24.6715 29.0599Z" fill="#616161"/>
<path d="M22.9544 9.79324C23.006 9.77815 23.0602 9.80719 23.0755 9.85812C23.0907 9.90905 23.0613 9.96251 23.0097 9.97761L23.0091 9.97786C23.0085 9.97802 23.0077 9.97827 23.0065 9.97861C23.0042 9.97931 23.0007 9.98041 22.996 9.98187C22.9867 9.98479 22.9729 9.98924 22.9558 9.99502C22.9215 10.0066 22.8741 10.0236 22.8219 10.0451C22.7143 10.0894 22.5981 10.1482 22.5287 10.2122C22.4727 10.2639 22.4136 10.35 22.3661 10.4294C22.3431 10.468 22.3239 10.503 22.3106 10.5283C22.3039 10.5409 22.2988 10.5511 22.2953 10.558C22.2936 10.5615 22.2922 10.5641 22.2914 10.5658C22.291 10.5666 22.2907 10.5673 22.2905 10.5677L22.2903 10.568C22.2671 10.616 22.209 10.6363 22.1604 10.6135C22.1118 10.5907 22.0912 10.5333 22.1143 10.4854L22.1161 10.4817C22.1172 10.4796 22.1187 10.4764 22.1207 10.4725C22.1247 10.4646 22.1303 10.4533 22.1376 10.4395C22.1521 10.412 22.1729 10.3739 22.1981 10.3317C22.2472 10.2496 22.3181 10.1433 22.3957 10.0717C22.4921 9.98274 22.6359 9.91319 22.7468 9.86751C22.8038 9.84402 22.8553 9.82563 22.8926 9.81303C22.9112 9.80673 22.9264 9.80183 22.937 9.7985C22.9423 9.79683 22.9466 9.7955 22.9496 9.79461C22.951 9.79419 22.9521 9.79385 22.9529 9.79361C22.9533 9.7935 22.9539 9.79336 22.9539 9.79336L22.9541 9.79324H22.9544Z" fill="#627AA4"/>
<path d="M19.6031 27.7773C19.3357 27.5951 18.9533 27.2643 18.9533 27.2643L18.3035 27.7773L17.8487 28.1621L18.5634 29.2523L20.1879 30.599L21.0976 30.7273L21.5525 30.3425L21.0327 29.8936L20.5128 29.6371L20.058 28.6751L20.2529 28.1621C20.2529 28.1621 19.8466 27.9433 19.6031 27.7773Z" fill="#616161"/>
<path d="M20.2529 28.3545L18.8883 27.3284L20.6428 22.8394V18.0298L24.2167 17.8374V20.5949L25.5812 28.8034C25.023 28.9787 24.645 29.1411 24.0867 29.3164L22.5922 24.2503L20.2529 28.3545Z" fill="#353E2A"/>
<path d="M21.1523 9.76017C21.1865 9.71918 21.2479 9.71329 21.2895 9.74702C21.331 9.78079 21.337 9.84141 21.3028 9.88242L21.3027 9.88254C21.3027 9.88254 21.3025 9.88282 21.3023 9.88304C21.3019 9.8835 21.3013 9.88424 21.3005 9.88517C21.299 9.88704 21.2966 9.88981 21.2937 9.89344C21.2877 9.90073 21.279 9.91145 21.2682 9.92488C21.2465 9.95179 21.2164 9.98966 21.1831 10.0332C21.1158 10.1213 21.0378 10.2293 20.9877 10.3173C20.6351 10.9359 20.6358 11.3424 20.5446 12.0774C20.4632 12.7338 20.4307 13.5954 20.4187 14.2951C20.4127 14.6445 20.4119 14.9527 20.4125 15.1735C20.4128 15.2839 20.4135 15.3724 20.4142 15.4333C20.4145 15.4637 20.4148 15.4873 20.415 15.5032C20.4151 15.5111 20.4151 15.5172 20.4152 15.5212C20.4152 15.5232 20.4153 15.5247 20.4153 15.5257V15.5272C20.4161 15.5804 20.3732 15.6241 20.3194 15.6249C20.2689 15.6257 20.2269 15.5885 20.2211 15.5401L20.2204 15.5303V15.524C20.2203 15.5199 20.2202 15.5137 20.2201 15.5057C20.2199 15.4896 20.2195 15.4658 20.2192 15.4352C20.2186 15.3739 20.2179 15.2849 20.2176 15.174C20.2169 14.9523 20.2178 14.6428 20.2238 14.2919C20.2358 13.591 20.2684 12.7211 20.3511 12.0542C20.4404 11.3338 20.442 10.8824 20.8177 10.2231C20.8746 10.1233 20.9591 10.0067 21.0274 9.91736C21.0619 9.87218 21.0931 9.83304 21.1156 9.80514C21.1268 9.7912 21.1359 9.78003 21.1423 9.77232C21.1454 9.76848 21.1479 9.76548 21.1496 9.76343C21.1505 9.7624 21.1512 9.76159 21.1516 9.76105C21.1519 9.76078 21.1522 9.76042 21.1522 9.76042L21.1523 9.76017Z" fill="#627AA4"/>
<path d="M23.0559 14.4596L23.047 14.4386C23.047 14.4386 23.0503 14.4455 23.0559 14.4596L23.3719 15.2081L23.6318 15.4005L24.3466 15.5929V17.645H24.0867V17.8374L22.2673 17.9656C22.2673 17.9656 22.6868 17.6382 22.9171 16.8755C23.3697 15.376 23.1092 14.5941 23.0559 14.4596Z" fill="#6B84AF"/>
<path d="M22.2291 11.9432C22.2977 11.9224 22.3704 11.9604 22.3915 12.0281V12.0283C22.3915 12.0283 22.3918 12.0288 22.3919 12.0292C22.3922 12.03 22.3924 12.0313 22.3929 12.0329C22.3939 12.036 22.3954 12.0407 22.3974 12.0469C22.4012 12.0593 22.407 12.0776 22.4145 12.1014C22.4294 12.1488 22.4512 12.2179 22.4786 12.3039C22.5333 12.476 22.6103 12.7162 22.6995 12.9883C22.8781 13.533 23.1049 14.204 23.2987 14.7141C23.341 14.8255 23.3898 14.9033 23.4506 14.9688C23.5128 15.0357 23.5917 15.0946 23.7019 15.1643C23.8018 15.2274 23.9599 15.2719 24.1057 15.3003C24.1763 15.314 24.2398 15.3232 24.2856 15.329C24.3084 15.3318 24.3267 15.3339 24.3391 15.3351C24.3454 15.3357 24.3501 15.3362 24.3532 15.3365C24.3547 15.3366 24.3558 15.3367 24.3565 15.3367H24.3573C24.4288 15.3426 24.4821 15.4046 24.4762 15.4751C24.4703 15.5457 24.4075 15.5983 24.336 15.5925L24.3358 15.5924H24.3353C24.335 15.5924 24.3345 15.5923 24.3339 15.5923C24.3328 15.5922 24.3313 15.5921 24.3294 15.5919C24.3254 15.5915 24.3198 15.591 24.3126 15.5902C24.2983 15.5888 24.2779 15.5866 24.2528 15.5835C24.2027 15.5772 24.1332 15.5672 24.0555 15.552C23.9048 15.5227 23.7055 15.471 23.5618 15.3802C23.4449 15.3063 23.3438 15.2333 23.259 15.142C23.1728 15.0492 23.1077 14.9422 23.0553 14.8043C22.8592 14.2884 22.6311 13.6126 22.4523 13.0672C22.3628 12.7942 22.2855 12.5534 22.2306 12.3808C22.2032 12.2945 22.1813 12.2252 22.1663 12.1775C22.1588 12.1537 22.1529 12.1352 22.149 12.1227C22.147 12.1164 22.1456 12.1116 22.1446 12.1084C22.1441 12.1068 22.1437 12.1056 22.1434 12.1048C22.1433 12.1044 22.1432 12.1039 22.1432 12.1039L22.143 12.1036C22.1219 12.0359 22.1605 11.964 22.2291 11.9432Z" fill="#627AA4"/>
<path d="M24.1398 17.6455C24.2112 17.639 24.2745 17.691 24.2811 17.7615C24.2873 17.8276 24.2415 17.8866 24.1768 17.8991L24.1636 17.901H24.1629C24.1624 17.9011 24.1616 17.9012 24.1607 17.9013C24.1588 17.9014 24.1559 17.9017 24.1522 17.902C24.1447 17.9027 24.1336 17.9037 24.1192 17.905C24.0905 17.9076 24.0486 17.9112 23.996 17.9158C23.8907 17.9249 23.7425 17.9374 23.5704 17.9511C23.2265 17.9785 22.7863 18.0108 22.4037 18.0296C22.0191 18.0486 21.6098 18.0485 21.2975 18.0438C21.1412 18.0414 21.0088 18.038 20.9154 18.035C20.8687 18.0336 20.8317 18.0322 20.8064 18.0313C20.7937 18.0308 20.7838 18.0303 20.7772 18.03C20.7739 18.0299 20.7714 18.0298 20.7697 18.0298C20.7689 18.0297 20.7682 18.0297 20.7678 18.0296H20.767C20.6953 18.0265 20.6398 17.9666 20.6429 17.8959C20.6461 17.8251 20.7068 17.7703 20.7785 17.7734H20.779C20.7793 17.7734 20.78 17.7735 20.7807 17.7735C20.7823 17.7736 20.7848 17.7736 20.788 17.7738C20.7944 17.774 20.8039 17.7744 20.8163 17.7749C20.8411 17.7758 20.8776 17.7772 20.9236 17.7786C21.0159 17.7816 21.1468 17.7851 21.3015 17.7874C21.6111 17.7921 22.0141 17.792 22.3908 17.7734C22.7694 17.7547 23.2065 17.7228 23.5495 17.6955C23.7208 17.6818 23.8685 17.6693 23.9732 17.6603C24.0256 17.6557 24.0673 17.6521 24.0958 17.6495C24.1101 17.6482 24.1211 17.6472 24.1285 17.6465C24.1322 17.6462 24.1351 17.6459 24.137 17.6457C24.1379 17.6457 24.1385 17.6457 24.139 17.6456L24.1395 17.6455H24.1398Z" fill="#627AA4"/>
<path d="M23.7618 21.9416L24.2816 19.7612L24.6715 23.6731L25.5163 28.8034L24.1517 29.2523L22.5922 24.1861L23.7618 21.9416Z" fill="#303727"/>
<path d="M24.0217 17.7733C24.0217 17.7024 24.0799 17.645 24.1517 17.645C24.2235 17.645 24.2816 17.7024 24.2816 17.7733V18.9957C24.2816 18.9966 24.2816 18.9979 24.2815 18.9996C24.2814 19.003 24.2813 19.0079 24.2811 19.0144C24.2808 19.0273 24.2802 19.0462 24.2794 19.0706C24.2777 19.1194 24.2749 19.1901 24.2705 19.2779C24.2616 19.4535 24.2459 19.6981 24.2191 19.9744C24.1658 20.5241 24.0673 21.2104 23.8845 21.7273C23.8285 21.8857 23.7457 22.0817 23.6778 22.2362C23.6437 22.3138 23.613 22.3818 23.5909 22.4304C23.5798 22.4546 23.5708 22.4741 23.5646 22.4875C23.5615 22.4941 23.5591 22.4993 23.5575 22.5029C23.5567 22.5046 23.556 22.5061 23.5556 22.507L23.5549 22.5083C23.5541 22.5101 23.5532 22.512 23.5523 22.5138L22.7075 24.117C22.6744 24.1798 22.5959 24.2043 22.5323 24.1717C22.4686 24.1391 22.4438 24.0616 22.4768 23.9987L23.3213 22.3959C23.3229 22.3925 23.3251 22.3874 23.3281 22.3809C23.3342 22.3678 23.343 22.3488 23.3539 22.325C23.3757 22.2773 23.4058 22.2104 23.4393 22.1341C23.5067 21.9807 23.5864 21.7919 23.6391 21.6429C23.811 21.1567 23.9075 20.4962 23.9604 19.95C23.9868 19.6784 24.002 19.4377 24.0108 19.265C24.0152 19.1787 24.0179 19.1095 24.0196 19.062C24.0204 19.0382 24.021 19.0198 24.0213 19.0075C24.0215 19.0013 24.0215 18.9967 24.0216 18.9936C24.0216 18.9929 24.0217 18.9922 24.0217 18.9917V17.7733Z" fill="#292F20"/>
<path d="M22.2212 7.9388L22.0996 8.53872L21.8564 8.17877L21.5525 7.33889V6.19905L21.9172 5.29918L22.5859 4.93924L23.1938 4.81925H23.984L24.5919 5.23919L24.9566 6.07907V6.91895L24.7742 7.15892L22.9506 6.49901L22.5859 7.03893H22.282L21.978 7.15892V7.57886L22.2212 7.9388Z" fill="#292F20"/>
<path d="M22.4723 8.6517C22.5168 8.62177 22.5774 8.63301 22.6077 8.67687L22.6079 8.677C22.608 8.67722 22.6083 8.67767 22.6087 8.67825C22.6096 8.67941 22.6109 8.68131 22.6127 8.68376C22.6163 8.68872 22.6218 8.69616 22.6291 8.70555C22.6436 8.72444 22.665 8.75114 22.692 8.78146C22.7466 8.84277 22.8215 8.91606 22.9061 8.97159C22.9863 9.02422 23.1189 9.0692 23.2408 9.1016C23.2999 9.11733 23.3535 9.12934 23.3923 9.13742C23.4116 9.14145 23.4272 9.14443 23.4379 9.14644C23.4432 9.14744 23.4472 9.14821 23.4499 9.14869C23.4513 9.14894 23.4523 9.14908 23.453 9.14919C23.4533 9.14925 23.4536 9.14932 23.4536 9.14932L23.4537 9.14944C23.5067 9.1586 23.5422 9.20835 23.5329 9.26067C23.5236 9.313 23.4731 9.34811 23.4201 9.33895L23.4197 9.33882C23.4197 9.33882 23.4191 9.33865 23.4187 9.33857C23.4178 9.33842 23.4165 9.33824 23.4149 9.33795C23.4117 9.33737 23.4071 9.33654 23.4013 9.33544C23.3896 9.33323 23.3727 9.32999 23.352 9.32567C23.3106 9.31706 23.2534 9.30421 23.19 9.28735C23.0667 9.25456 22.907 9.20327 22.7982 9.13191C22.6939 9.06344 22.6061 8.97645 22.5455 8.90846C22.515 8.87416 22.4907 8.84389 22.4738 8.82204C22.4654 8.8111 22.4589 8.80214 22.4543 8.79586C22.452 8.79274 22.4502 8.79025 22.449 8.78847C22.4483 8.78759 22.4478 8.78687 22.4474 8.78634C22.4473 8.78609 22.4469 8.78571 22.4469 8.78571L22.4468 8.78546L22.4467 8.78534C22.4164 8.74146 22.4279 8.68164 22.4723 8.6517ZM22.874 6.4003C22.8973 6.38896 22.9243 6.3873 22.9489 6.39567L24.8333 7.03695C24.8841 7.05428 24.9111 7.10899 24.8936 7.1592C24.876 7.20942 24.8206 7.23614 24.7697 7.21882L22.9783 6.6091L22.8146 7.09419C22.806 7.11966 22.787 7.1404 22.7622 7.15143C22.7405 7.16108 22.7161 7.16252 22.6935 7.15569L22.684 7.15231L22.6838 7.15219C22.6835 7.15207 22.6829 7.15185 22.6822 7.15156C22.6808 7.15098 22.6785 7.1501 22.6755 7.14893C22.6695 7.14656 22.6605 7.14309 22.6491 7.13903C22.6262 7.13085 22.5943 7.12026 22.5584 7.11085C22.4815 7.09074 22.4049 7.08089 22.3557 7.09294C22.2848 7.11032 22.2328 7.13304 22.1931 7.16308C22.1545 7.19233 22.1226 7.23233 22.0975 7.29259C22.0777 7.34029 22.071 7.37773 22.0717 7.41346C22.0724 7.45047 22.0812 7.49125 22.0998 7.54635C22.1186 7.60203 22.1797 7.66735 22.2524 7.72534C22.2864 7.75246 22.319 7.77489 22.3431 7.79059C22.3551 7.79841 22.3649 7.80449 22.3715 7.8085C22.3749 7.81051 22.3774 7.81207 22.379 7.81301C22.3798 7.81346 22.3804 7.81383 22.3807 7.81401L22.3809 7.81414L22.3893 7.8194C22.4294 7.8479 22.4419 7.90238 22.4167 7.94553C22.3898 7.99154 22.3302 8.00724 22.2836 7.98072L22.2831 7.98047C22.2831 7.98047 22.2825 7.98017 22.2822 7.97997C22.2815 7.97958 22.2806 7.97901 22.2794 7.97834C22.2771 7.97697 22.2737 7.97506 22.2696 7.97258C22.2614 7.96759 22.2498 7.9604 22.2358 7.95129C22.2078 7.93313 22.1699 7.9069 22.1298 7.87489C22.0542 7.81456 21.9529 7.71953 21.9149 7.60722C21.8934 7.54354 21.8781 7.48187 21.8768 7.41722C21.8756 7.35131 21.8889 7.28783 21.9172 7.2197C21.9538 7.13162 22.0055 7.06265 22.0744 7.0104C22.1424 6.95896 22.222 6.92757 22.3087 6.90632C22.4093 6.88167 22.5277 6.90386 22.6084 6.92498C22.6271 6.92989 22.6448 6.93511 22.661 6.94014L22.8246 6.45616L22.8325 6.43875C22.8421 6.42229 22.8565 6.40882 22.874 6.4003Z" fill="#D09672"/>
<path d="M23.6205 7.73401C23.6384 7.66712 23.6689 7.58704 23.6937 7.52612C23.7063 7.49517 23.7178 7.46813 23.7262 7.44882C23.7304 7.43915 23.7338 7.43131 23.7362 7.42593C23.7374 7.42328 23.7384 7.42124 23.7391 7.41979C23.7394 7.41907 23.7396 7.41844 23.7398 7.41804L23.7401 7.41759L23.7401 7.41735C23.7621 7.36888 23.8199 7.34719 23.869 7.36891C23.915 7.38929 23.9372 7.44064 23.9217 7.48692L23.9181 7.49608L23.9178 7.49641C23.9177 7.49671 23.9175 7.49718 23.9172 7.4978C23.9166 7.49904 23.9159 7.50094 23.9148 7.50339C23.9126 7.50833 23.9094 7.51566 23.9054 7.52478C23.8974 7.54304 23.8865 7.5686 23.8746 7.59784C23.8503 7.65742 23.8237 7.72831 23.809 7.78311C23.7943 7.8379 23.7821 7.91255 23.7734 7.97617C23.7691 8.0074 23.7659 8.03498 23.7637 8.05473C23.7626 8.0646 23.7617 8.07254 23.7611 8.07791C23.7609 8.08056 23.7606 8.08259 23.7604 8.08395C23.7604 8.08462 23.7603 8.08514 23.7603 8.08546L23.7603 8.08586C23.7552 8.13874 23.7076 8.17758 23.6541 8.17256C23.6005 8.16753 23.5611 8.12055 23.5662 8.06768L23.5663 8.06744L23.5663 8.06692C23.5663 8.06649 23.5664 8.06583 23.5665 8.06504C23.5667 8.06347 23.5668 8.06121 23.5671 8.05833C23.5677 8.05248 23.5686 8.04398 23.5698 8.03352C23.5722 8.01263 23.5757 7.98352 23.5802 7.95047C23.5891 7.88541 23.6026 7.8009 23.6205 7.73401Z" fill="#D09672"/>
<path d="M22.2708 4.95678C22.6672 4.6854 23.0915 4.61252 23.4571 4.631C23.6835 4.64245 23.8744 4.66973 24.0561 4.74035C24.2388 4.81134 24.4035 4.92262 24.5836 5.08992C24.881 5.36624 25.0897 5.86006 25.1155 6.26629C25.1396 6.64815 25.1157 6.7173 25.1157 7.06376C25.1157 7.12288 25.0748 7.17436 25.0166 7.18839L24.8435 7.22997C24.8426 7.23303 24.8417 7.23625 24.8407 7.23949C24.825 7.29137 24.8022 7.36653 24.7732 7.45968C24.7152 7.64602 24.6327 7.90479 24.5348 8.19453C24.43 8.50503 24.3319 8.72908 24.1257 9.0004C23.9568 9.2226 23.7271 9.24535 23.5403 9.30251C23.4767 9.32197 23.3968 9.3391 23.3359 9.35098C23.33 9.35213 23.3242 9.35305 23.3186 9.35411L23.2566 9.74013C23.2728 9.74689 23.2905 9.75428 23.309 9.76243C23.391 9.79858 23.4997 9.85154 23.5801 9.91123C23.737 10.0278 23.846 10.1942 23.9315 10.3891C24.0167 10.5834 24.0826 10.8158 24.1478 11.0728C24.3073 11.7027 24.4698 12.3439 24.5923 12.8277C24.6536 13.0696 24.705 13.2722 24.7409 13.4143C24.7444 13.428 24.7478 13.4412 24.751 13.4538L26.4713 12.2244L26.7561 11.9433L26.8165 11.3476C26.8207 11.3063 26.8448 11.2696 26.8813 11.249L27.3227 11L28.2866 10.1123C28.2989 10.1009 28.3133 10.0921 28.329 10.0862L28.3293 10.0861L28.3297 10.086C28.3297 10.086 28.3302 10.0858 28.3306 10.0857C28.3313 10.0854 28.3324 10.085 28.3336 10.0846C28.336 10.0837 28.3392 10.0826 28.3433 10.0812C28.3513 10.0784 28.3626 10.0747 28.3762 10.0707C28.4033 10.0627 28.4413 10.0529 28.4836 10.0462C28.525 10.0397 28.576 10.0352 28.6273 10.0414C28.6715 10.0467 28.7258 10.0611 28.7726 10.0981L28.7921 10.1154L28.8097 10.1347C28.8471 10.1809 28.8618 10.2345 28.8671 10.2781C28.8734 10.3287 28.8688 10.379 28.8622 10.4199C28.8554 10.4616 28.8454 10.4992 28.8373 10.5258C28.8332 10.5393 28.8296 10.5504 28.8268 10.5584C28.8254 10.5624 28.8242 10.5656 28.8234 10.5679C28.8229 10.5691 28.8225 10.5702 28.8222 10.5709C28.8221 10.5713 28.822 10.5718 28.822 10.5718L28.8218 10.5722L28.8217 10.5723C28.8192 10.5788 28.816 10.5853 28.8125 10.5913L28.3779 11.3263C28.3786 11.336 28.3795 11.3473 28.3803 11.3599C28.3833 11.4057 28.3868 11.4697 28.3892 11.5425C28.3939 11.686 28.3943 11.8711 28.3742 12.0187C28.331 12.3364 28.3383 12.622 28.0847 12.9181C27.9616 13.062 27.7588 13.1677 27.6033 13.235C27.5228 13.2699 27.4492 13.2968 27.3958 13.3149C27.376 13.3217 27.3588 13.3271 27.345 13.3315C27.3363 13.3414 27.3256 13.3538 27.3127 13.3684C27.276 13.4101 27.2227 13.4704 27.1557 13.5446C27.0218 13.6931 26.8333 13.8978 26.6149 14.1231C26.1803 14.5716 25.6204 15.1088 25.1356 15.4417C24.9942 15.5388 24.8033 15.5731 24.6644 15.5862C24.6197 15.5905 24.5779 15.5923 24.5416 15.5934V17.7733C24.5416 17.8441 24.4834 17.9015 24.4116 17.9015H24.288C24.2914 17.9701 24.2961 18.0631 24.302 18.1762C24.3151 18.432 24.334 18.7902 24.3575 19.1999C24.4046 20.0196 24.4694 21.0441 24.5411 21.8665C24.6524 23.1445 24.7495 23.8714 24.9302 25.13C25.0139 25.7134 25.1435 26.449 25.2524 27.0396C25.3068 27.3347 25.3558 27.5932 25.3914 27.778C25.4091 27.8703 25.4236 27.9442 25.4335 27.995C25.4385 28.0204 25.4423 28.04 25.4449 28.0533C25.4462 28.0599 25.4472 28.0649 25.4479 28.0683L25.6169 28.6804C25.6641 28.6827 25.7262 28.6853 25.7958 28.687C25.9519 28.691 26.1399 28.6907 26.2824 28.6759C26.5723 28.6457 26.831 28.6137 27.0173 28.5893C27.1103 28.5772 27.1852 28.5669 27.2368 28.5597C27.2626 28.556 27.2826 28.5532 27.2961 28.5513L27.3139 28.5486C27.3151 28.5484 27.3168 28.5481 27.3188 28.5478C27.3233 28.547 27.3297 28.546 27.3376 28.5448C27.3534 28.5423 27.3757 28.5389 27.4026 28.5359C27.4558 28.5298 27.5291 28.524 27.6063 28.5261C27.6817 28.5281 27.7701 28.5378 27.8484 28.5684C27.9282 28.5996 28.013 28.6594 28.0451 28.7672C28.0888 28.9136 28.0411 29.0771 27.9997 29.183C27.9774 29.24 27.9532 29.2895 27.9346 29.3246C27.9253 29.3422 27.9173 29.3565 27.9115 29.3665C27.9086 29.3715 27.9061 29.3756 27.9044 29.3784C27.9035 29.3798 27.9029 29.381 27.9024 29.3818C27.9021 29.3822 27.9019 29.3825 27.9017 29.3828L27.9015 29.3832L27.9013 29.3834C27.8898 29.402 27.8737 29.4173 27.8545 29.428L24.8654 31.0954C24.8602 31.0983 24.8547 31.101 24.8491 31.1031L24.8318 31.1085H24.8316L24.8312 31.1086C24.8309 31.1087 24.8306 31.1088 24.8302 31.1089C24.8293 31.1091 24.8281 31.1093 24.8266 31.1097C24.8236 31.1103 24.8194 31.1113 24.814 31.1124C24.8034 31.1147 24.7884 31.1177 24.7699 31.121C24.733 31.1277 24.6817 31.1357 24.6237 31.1411C24.5144 31.1512 24.3559 31.1548 24.2304 31.1016C23.8876 30.9564 23.6826 30.616 23.7649 30.2506C23.8291 29.9652 23.8774 29.6953 23.9097 29.4965C23.9258 29.3973 23.9378 29.316 23.9458 29.2596C23.9495 29.234 23.9522 29.2135 23.9542 29.1988L23.7673 28.5837L22.4927 24.5104L20.4333 28.1568C20.433 28.1574 20.4327 28.1583 20.4322 28.1592C20.4308 28.1621 20.4287 28.1665 20.4259 28.1724C20.4203 28.1841 20.4122 28.2015 20.4028 28.2232C20.3839 28.2669 20.36 28.3274 20.3391 28.3945C20.318 28.462 20.3011 28.5333 20.2948 28.5995C20.2883 28.6671 20.294 28.7197 20.3086 28.7558C20.4366 29.0716 20.548 29.2912 20.6264 29.4305C20.6656 29.5002 20.6967 29.5498 20.7174 29.5815C20.7213 29.5874 20.7249 29.5926 20.7281 29.5972C20.7309 29.5984 20.7339 29.5997 20.737 29.601C20.7655 29.6131 20.8057 29.6306 20.8533 29.6531C20.9482 29.6979 21.0746 29.7629 21.1969 29.8429C21.3175 29.9217 21.4429 30.0206 21.5279 30.1353C21.614 30.2516 21.6701 30.4016 21.6095 30.5638C21.5021 30.851 21.2089 30.9002 20.9796 30.8982C20.8592 30.8972 20.7368 30.8823 20.6319 30.8682C20.5217 30.8533 20.4385 30.8407 20.3794 30.8391C20.2732 30.8363 20.1691 30.7995 20.0784 30.7542C19.9865 30.7083 19.8998 30.6491 19.8264 30.5925C19.7525 30.5356 19.6895 30.4793 19.6451 30.4373C19.6229 30.4163 19.6051 30.3986 19.5927 30.3861C19.5865 30.3798 19.5816 30.3748 19.5782 30.3713C19.5766 30.3696 19.5752 30.3682 19.5743 30.3672L18.0817 28.8941C18.0799 28.8923 18.0781 28.8905 18.0765 28.8887L18.0764 28.8886L18.076 28.8882C18.0757 28.8879 18.0755 28.8875 18.0751 28.8871C18.0743 28.8862 18.0731 28.8848 18.0717 28.8832C18.0687 28.8799 18.0645 28.8751 18.0592 28.869C18.0487 28.8569 18.0338 28.8396 18.0162 28.8183C17.9811 28.7759 17.9344 28.7169 17.8886 28.6518C17.8434 28.5875 17.7966 28.5135 17.7635 28.4413C17.7336 28.3762 17.701 28.2839 17.7224 28.1962C17.778 27.9687 17.9118 27.8242 18.0582 27.7121C18.1297 27.6573 18.2068 27.6084 18.278 27.5625C18.3509 27.5156 18.419 27.471 18.4818 27.421C18.5733 27.3482 18.6499 27.2727 18.7037 27.2152C18.7305 27.1866 18.7514 27.1626 18.7654 27.1461C18.7689 27.1419 18.7719 27.1382 18.7745 27.135L20.5128 22.7509V18.0298H20.3179C20.2461 18.0298 20.1879 17.9723 20.1879 17.9015V16.3116L19.7234 17.4368C19.707 17.4766 19.6715 17.5057 19.6289 17.5142C19.606 17.5188 19.5828 17.5169 19.5614 17.5097C19.5572 17.5315 19.5531 17.5544 19.5483 17.578C19.5143 17.7467 19.4642 17.9628 19.4006 18.1374C19.3087 18.3894 19.0896 18.6003 18.91 18.7418C18.818 18.8144 18.7315 18.8724 18.6679 18.9124C18.636 18.9325 18.6098 18.9482 18.5912 18.9589C18.582 18.9643 18.5746 18.9684 18.5694 18.9713C18.5668 18.9727 18.5648 18.9738 18.5633 18.9745C18.5626 18.9749 18.5621 18.9753 18.5617 18.9755L18.561 18.9758L18.5609 18.9759L18.4985 18.8634L18.4496 18.9823L18.4493 18.9822C18.4493 18.9822 18.449 18.982 18.4487 18.9819C18.4482 18.9817 18.4474 18.9814 18.4466 18.9811C18.4448 18.9803 18.4424 18.9793 18.4393 18.9781C18.4331 18.9754 18.4242 18.9717 18.4131 18.9668C18.3908 18.957 18.3594 18.9426 18.3215 18.9239C18.2461 18.8867 18.1439 18.8318 18.0381 18.7609C17.8347 18.6245 17.5836 18.4069 17.5262 18.1186C17.5059 18.0166 17.5067 17.8914 17.5111 17.7989C17.5133 17.7512 17.5166 17.7093 17.5195 17.6792C17.5209 17.6641 17.5222 17.6519 17.5231 17.6434C17.5236 17.6391 17.524 17.6357 17.5243 17.6334C17.5244 17.6322 17.5245 17.6312 17.5245 17.6306C17.5246 17.6303 17.5247 17.6298 17.5247 17.6298V17.6295C17.5247 17.6295 17.5249 17.6295 17.6537 17.645L17.5247 17.6295C17.5334 17.5592 17.5982 17.5092 17.6695 17.5177C17.7407 17.5263 17.7914 17.5902 17.7827 17.6605V17.6609C17.7826 17.6613 17.7825 17.662 17.7824 17.6629C17.7822 17.6647 17.7819 17.6674 17.7815 17.6711C17.7807 17.6783 17.7796 17.6892 17.7784 17.7027C17.7758 17.7299 17.7728 17.768 17.7707 17.811C17.7665 17.8999 17.7673 17.9991 17.7813 18.0691C17.8174 18.2503 17.9887 18.4175 18.1842 18.5486C18.2779 18.6113 18.3694 18.6608 18.4377 18.6945C18.4572 18.7041 18.475 18.7121 18.4901 18.719C18.5013 18.7123 18.5142 18.7049 18.5282 18.6961C18.586 18.6597 18.6647 18.6069 18.7478 18.5414C18.9186 18.4068 19.0894 18.2329 19.1559 18.0504C19.2128 17.8943 19.2601 17.6935 19.2934 17.528C19.31 17.446 19.3228 17.3742 19.3315 17.3229C19.3359 17.2972 19.3391 17.2767 19.3413 17.2627C19.3424 17.2558 19.3433 17.2504 19.3438 17.2468C19.3441 17.2451 19.3442 17.2437 19.3443 17.2428C19.3444 17.2424 19.3445 17.2419 19.3445 17.2419L19.3446 17.2417L19.3484 17.2242C19.3603 17.1841 19.3914 17.1518 19.4323 17.1385C19.4752 17.1244 19.522 17.1337 19.5563 17.162L20.1976 15.6087C20.221 15.5519 20.2819 15.5193 20.3429 15.5311C20.4039 15.5429 20.4479 15.5957 20.4479 15.657V17.7733H20.6428C20.7146 17.7733 20.7727 17.8307 20.7727 17.9015V22.7753C20.7727 22.7913 20.7698 22.8071 20.7639 22.822L19.0094 27.2469C19.0049 27.2583 18.9987 27.2689 18.9911 27.2786L18.991 27.2787L18.9909 27.279C18.9909 27.279 18.9906 27.2794 18.9904 27.2796C18.99 27.2801 18.9896 27.2807 18.989 27.2815C18.9877 27.283 18.986 27.2851 18.9838 27.2879C18.9793 27.2933 18.9729 27.301 18.9647 27.3106C18.9484 27.3299 18.9247 27.3571 18.8947 27.3892C18.8349 27.4531 18.749 27.5379 18.6449 27.6206C18.5706 27.6798 18.4924 27.7307 18.42 27.7773C18.3459 27.8251 18.2788 27.8678 18.2175 27.9147C18.0983 28.006 18.0119 28.1051 17.9749 28.2563C17.9755 28.254 17.9732 28.2764 18.0002 28.3353C18.0241 28.3873 18.061 28.447 18.1022 28.5057C18.1429 28.5636 18.1852 28.6169 18.2176 28.6561C18.2337 28.6756 18.2472 28.6914 18.2566 28.7022C18.2612 28.7076 18.2649 28.7116 18.2674 28.7143C18.268 28.7151 18.2686 28.7158 18.2691 28.7163L19.76 30.1877L19.7635 30.1913C19.7635 30.1913 19.7639 30.1916 19.7642 30.1919C19.7647 30.1925 19.7657 30.1936 19.767 30.1949C19.7695 30.1976 19.7735 30.2018 19.7788 30.2071C19.7893 30.2178 19.8051 30.2334 19.825 30.2522C19.8649 30.29 19.9212 30.3402 19.9863 30.3903C20.0517 30.4408 20.1239 30.4894 20.1958 30.5254C20.2689 30.5619 20.3336 30.5813 20.3863 30.5827C20.4638 30.5848 20.5682 30.6006 20.667 30.6139C20.7711 30.6279 20.8793 30.6408 20.9819 30.6417C21.1987 30.6436 21.3213 30.5933 21.3656 30.475C21.3849 30.4232 21.3753 30.364 21.3181 30.2867C21.2597 30.208 21.1639 30.129 21.0534 30.0568C20.9445 29.9857 20.8297 29.9263 20.7411 29.8846C20.6972 29.8638 20.6602 29.8476 20.6344 29.8367C20.6215 29.8313 20.6114 29.827 20.6047 29.8243C20.6014 29.823 20.5988 29.822 20.5972 29.8213C20.5964 29.821 20.5958 29.8208 20.5955 29.8207L20.5952 29.8206C20.5728 29.8119 20.5533 29.7971 20.5388 29.7781L20.5386 29.7779L20.5383 29.7775C20.5381 29.7772 20.5379 29.7769 20.5376 29.7765C20.537 29.7757 20.5361 29.7747 20.5352 29.7733C20.5332 29.7707 20.5306 29.767 20.5273 29.7623C20.5206 29.7528 20.5111 29.739 20.4991 29.7207C20.4752 29.6842 20.4412 29.6296 20.3992 29.555C20.3152 29.4058 20.1991 29.1764 20.0672 28.851C20.0312 28.7619 20.0276 28.6636 20.036 28.5756C20.0446 28.486 20.0665 28.3965 20.0906 28.319C20.1149 28.2411 20.1425 28.1721 20.1638 28.1227C20.1745 28.0979 20.1838 28.0778 20.1905 28.0637C20.1938 28.0566 20.1965 28.051 20.1985 28.0471C20.1994 28.0452 20.2002 28.0436 20.2008 28.0425C20.201 28.0419 20.2012 28.0415 20.2014 28.0411L20.2016 28.0407V28.0405C20.2025 28.0388 20.2035 28.0371 20.2044 28.0355L22.4137 24.1236L22.4243 24.1078C22.4515 24.0729 22.4955 24.0539 22.5408 24.0586C22.5925 24.064 22.636 24.0993 22.6513 24.1483L24.0159 28.5091L24.0163 28.5101L24.2112 29.1513C24.2151 29.1642 24.2169 29.1775 24.2167 29.1908L24.2157 29.2041V29.2046C24.2156 29.2049 24.2155 29.2053 24.2154 29.2058C24.2153 29.2069 24.2151 29.2085 24.2149 29.2105C24.2144 29.2145 24.2135 29.2204 24.2125 29.2281C24.2104 29.2436 24.2073 29.2662 24.2032 29.2951C24.195 29.353 24.1827 29.436 24.1663 29.5371C24.1335 29.7392 24.0844 30.0144 24.0187 30.3062C23.9666 30.5375 24.0913 30.7636 24.3329 30.8659C24.394 30.8918 24.4953 30.8953 24.5993 30.8857C24.6479 30.8812 24.6916 30.8744 24.7231 30.8687C24.7359 30.8663 24.7466 30.8642 24.7547 30.8625L27.695 29.2224C27.6977 29.2174 27.701 29.2119 27.7042 29.2057C27.7196 29.1767 27.7394 29.1364 27.7573 29.0907C27.7961 28.9915 27.8134 28.8984 27.7959 28.8396C27.7942 28.8341 27.7889 28.8211 27.7529 28.807C27.7152 28.7923 27.6615 28.7842 27.5992 28.7825C27.5386 28.7808 27.4784 28.7855 27.4325 28.7907C27.4099 28.7933 27.3913 28.796 27.3786 28.798C27.3723 28.799 27.3674 28.7998 27.3642 28.8004C27.3627 28.8007 27.3615 28.8009 27.3608 28.801C27.3605 28.8011 27.3602 28.8011 27.3602 28.8011C27.3585 28.8015 27.3567 28.8018 27.355 28.802H27.3546C27.3546 28.802 27.354 28.8021 27.3536 28.8021C27.3527 28.8023 27.3513 28.8025 27.3495 28.8028C27.346 28.8033 27.3407 28.804 27.3338 28.805C27.32 28.807 27.2996 28.81 27.2735 28.8137C27.2212 28.821 27.1454 28.8314 27.0514 28.8437C26.8635 28.8683 26.6023 28.9005 26.3096 28.9309C26.1493 28.9476 25.9474 28.9474 25.7892 28.9434C25.7094 28.9414 25.6392 28.9384 25.589 28.9359C25.5638 28.9347 25.5436 28.9336 25.5296 28.9328C25.5226 28.9324 25.5172 28.932 25.5135 28.9318C25.5116 28.9317 25.5101 28.9316 25.5092 28.9315C25.5087 28.9315 25.5083 28.9314 25.508 28.9314H25.5076C25.4524 28.9278 25.4054 28.8898 25.3909 28.8371L25.1959 28.1317L25.1938 28.1225L25.1936 28.1222C25.1936 28.1222 25.1936 28.1216 25.1935 28.1213C25.1933 28.1204 25.1931 28.1191 25.1928 28.1174C25.1921 28.114 25.191 28.1088 25.1897 28.1021C25.1871 28.0888 25.1833 28.0691 25.1783 28.0436C25.1683 27.9926 25.1538 27.9184 25.136 27.8258C25.1004 27.6406 25.0512 27.3813 24.9967 27.0854C24.8877 26.4941 24.7573 25.7547 24.6728 25.1661C24.4918 23.9053 24.3941 23.1731 24.2822 21.8885C24.2102 21.0623 24.145 20.0347 24.098 19.2144C24.0745 18.8041 24.0554 18.4454 24.0423 18.1892C24.0357 18.0611 24.0306 17.9587 24.0272 17.8882C24.0255 17.853 24.0241 17.8258 24.0233 17.8073C24.0228 17.7981 24.0225 17.7911 24.0222 17.7864C24.0221 17.7841 24.022 17.7822 24.022 17.781C24.022 17.7804 24.0219 17.7799 24.0219 17.7796V17.7793C24.0202 17.7443 24.0331 17.7101 24.0576 17.6847C24.0822 17.6593 24.1162 17.645 24.1517 17.645L24.2816 17.645V15.4646C24.2816 15.4292 24.2965 15.3953 24.3226 15.3711C24.3488 15.3468 24.384 15.3344 24.4199 15.3366H24.4202C24.4208 15.3366 24.4217 15.3367 24.4229 15.3367C24.4255 15.3369 24.4295 15.3371 24.4348 15.3372C24.4456 15.3376 24.4616 15.3381 24.4817 15.3381C24.5219 15.3382 24.5776 15.3367 24.6395 15.3309C24.7692 15.3186 24.9033 15.2886 24.9872 15.231C25.4491 14.9138 25.9938 14.3929 26.4271 13.9458C26.6428 13.7233 26.8292 13.5208 26.9615 13.3741C27.0277 13.3007 27.0805 13.2413 27.1165 13.2003C27.1345 13.1799 27.1483 13.164 27.1576 13.1532C27.1623 13.1479 27.1659 13.1438 27.1683 13.1411C27.1695 13.1397 27.1703 13.1386 27.1708 13.138C27.1711 13.1377 27.1715 13.1373 27.1715 13.1373L27.1716 13.1371C27.1881 13.1179 27.2101 13.1039 27.2347 13.0969C27.2347 13.0969 27.2351 13.0967 27.2354 13.0966C27.2362 13.0964 27.2375 13.0961 27.2391 13.0956C27.2424 13.0946 27.2475 13.093 27.2541 13.091C27.2674 13.0869 27.287 13.0807 27.3112 13.0724C27.3597 13.0559 27.4264 13.0316 27.4989 13.0002C27.6495 12.935 27.8042 12.8484 27.8862 12.7526C28.0782 12.5284 28.068 12.3421 28.1166 11.9846C28.1336 11.8592 28.134 11.6916 28.1294 11.5506C28.1271 11.4812 28.1237 11.4201 28.1209 11.3763C28.1195 11.3544 28.1183 11.3369 28.1173 11.3249C28.1169 11.319 28.1164 11.3144 28.1162 11.3114C28.1161 11.3099 28.116 11.3088 28.1159 11.308V11.307C28.1137 11.2808 28.1196 11.2544 28.1331 11.2316L28.5817 10.4724C28.5834 10.4674 28.5858 10.4606 28.5883 10.4523C28.5943 10.4327 28.6011 10.4066 28.6056 10.3793C28.6102 10.3511 28.6113 10.3269 28.6091 10.309C28.6085 10.3042 28.6074 10.3007 28.6067 10.2983C28.6042 10.2976 28.6007 10.2966 28.5959 10.296C28.5779 10.2938 28.5533 10.295 28.5247 10.2995C28.497 10.3039 28.4706 10.3107 28.4507 10.3165C28.4482 10.3173 28.4458 10.3181 28.4435 10.3188L27.4894 11.1977C27.482 11.2045 27.4739 11.2103 27.4651 11.2152L27.0684 11.4389L27.0102 12.0144C27.0072 12.0439 26.9939 12.0714 26.9727 12.0924L26.6478 12.413C26.643 12.4178 26.6378 12.4222 26.6322 12.4262L24.7478 13.7729C24.7128 13.7978 24.6675 13.8041 24.627 13.7895C24.5865 13.7749 24.556 13.7414 24.5455 13.7001L24.5454 13.6998C24.5454 13.6998 24.5453 13.6995 24.5452 13.6992C24.5451 13.6986 24.5448 13.6976 24.5445 13.6963C24.5438 13.6938 24.5429 13.6901 24.5417 13.6852C24.5392 13.6753 24.5355 13.6607 24.5306 13.6416C24.521 13.6034 24.5068 13.5475 24.4888 13.4765C24.4528 13.3344 24.4014 13.1319 24.3402 12.89C24.2176 12.4061 24.0553 11.7648 23.8957 11.1349C23.8309 10.879 23.769 10.6644 23.6929 10.491C23.617 10.3181 23.5311 10.1959 23.4237 10.1161C23.3681 10.0748 23.2819 10.0314 23.203 9.99665C23.1648 9.97982 23.1306 9.96596 23.1059 9.95632C23.0936 9.95151 23.0838 9.94778 23.0771 9.9453C23.0738 9.94406 23.0713 9.94314 23.0696 9.94254C23.0688 9.94225 23.0682 9.94204 23.0678 9.94191L23.0675 9.94179C23.0091 9.92076 22.974 9.86186 22.9837 9.80126L23.0764 9.22422L23.0812 9.20431C23.0961 9.15932 23.1354 9.12542 23.1838 9.11763H23.1842C23.1845 9.11759 23.1849 9.11748 23.1855 9.11738C23.1867 9.11718 23.1887 9.11692 23.1912 9.11651C23.1962 9.11568 23.2034 9.11434 23.2125 9.11275C23.2309 9.10956 23.2565 9.105 23.2855 9.09935C23.3448 9.08779 23.4136 9.07277 23.4634 9.05751C23.7102 8.98199 23.8143 8.98276 23.9178 8.84659C24.1015 8.6049 24.1887 8.40859 24.2884 8.11337C24.3854 7.82599 24.4672 7.56917 24.5247 7.38428C24.5534 7.29186 24.5762 7.21748 24.5917 7.16622C24.5994 7.14059 24.6053 7.12075 24.6093 7.10735C24.6113 7.10068 24.6128 7.09559 24.6138 7.09219C24.6143 7.0905 24.6147 7.08915 24.6149 7.08831C24.615 7.08793 24.6152 7.08743 24.6152 7.08743L24.6153 7.08718C24.6283 7.0431 24.6642 7.00913 24.7093 6.99826L24.8566 6.96268C24.8602 6.67479 24.8775 6.62161 24.8561 6.28232C24.8338 5.93113 24.6478 5.5019 24.4054 5.27667C24.2415 5.12442 24.1042 5.03476 23.9609 4.97908C23.8168 4.92304 23.6577 4.89796 23.4438 4.88714C23.1234 4.87094 22.7589 4.93468 22.4189 5.16746C21.9955 5.45744 21.8276 5.82585 21.6703 6.31326C21.5198 6.77955 21.5628 7.1644 21.6732 7.63967C21.7156 7.82208 21.8152 8.02091 21.9087 8.179C21.9549 8.25693 21.9982 8.32288 22.03 8.36913C22.0458 8.3922 22.0587 8.41029 22.0675 8.42249C22.0719 8.42859 22.0753 8.43326 22.0775 8.43627C22.0787 8.43777 22.0796 8.43884 22.0801 8.43952L22.0806 8.44027C22.1089 8.47776 22.1143 8.5275 22.0947 8.57004L21.6708 9.48963C21.6535 9.52719 21.6189 9.55408 21.5779 9.56215L21.578 9.56228H21.5783L21.5785 9.56215L21.579 9.56203H21.5793C21.5793 9.56203 21.5785 9.56224 21.5774 9.56253C21.575 9.56311 21.5706 9.56423 21.5644 9.56616C21.552 9.57004 21.5325 9.57699 21.508 9.58833C21.459 9.61098 21.3903 9.65124 21.3185 9.72059C20.8064 10.2148 20.5274 10.8179 20.3171 11.4819C20.2118 11.8145 20.1247 12.159 20.0332 12.5124C19.9421 12.8646 19.8468 13.2247 19.7263 13.5813C19.5632 14.0644 19.2864 14.8196 19.0509 15.4527C18.9331 15.7696 18.8254 16.0563 18.7472 16.2639C18.7081 16.3676 18.6763 16.4516 18.6543 16.5096C18.649 16.5237 18.6441 16.5363 18.64 16.5473L18.7447 16.754C18.7768 16.8173 18.7507 16.8944 18.6865 16.9261C18.6224 16.9577 18.5443 16.932 18.5122 16.8687L18.3822 16.6122C18.366 16.5803 18.3641 16.5431 18.3768 16.5097L18.3769 16.5095C18.377 16.5092 18.3772 16.5088 18.3774 16.5083C18.3778 16.5074 18.3783 16.5058 18.379 16.5038C18.3805 16.4999 18.3828 16.4941 18.3856 16.4865C18.3914 16.4713 18.3999 16.4488 18.4109 16.4199C18.4328 16.362 18.4645 16.2781 18.5035 16.1744C18.5817 15.9671 18.6893 15.6807 18.807 15.3643C19.0426 14.7309 19.3181 13.9791 19.4799 13.5002C19.5971 13.1532 19.6902 12.8013 19.7813 12.4491C19.8721 12.0982 19.9612 11.7459 20.069 11.4054C20.2851 10.723 20.5807 10.0739 21.1367 9.53723C21.2321 9.44519 21.3258 9.38931 21.3975 9.35611C21.4201 9.34567 21.4406 9.33757 21.4582 9.33119L21.8273 8.53058C21.8234 8.52499 21.8191 8.51917 21.8148 8.51292C21.7806 8.46303 21.734 8.39233 21.6844 8.30851C21.5864 8.14306 21.4711 7.91752 21.4199 7.69703C21.3052 7.20333 21.2515 6.76548 21.4227 6.23535C21.585 5.73249 21.7751 5.29623 22.2708 4.95678ZM18.5608 18.976C18.5266 18.9945 18.4857 18.9967 18.4496 18.9823L18.4985 18.8634L18.5608 18.976Z" fill="#0F0A07"/>
<defs>
<linearGradient id="paint0_linear_139_7733" x1="12.5203" y1="10.7191" x2="12.5203" y2="24.8274" gradientUnits="userSpaceOnUse">
<stop stop-color="#916581"/>
<stop offset="1" stop-color="#F299AF"/>
</linearGradient>
<linearGradient id="paint1_linear_139_7733" x1="12.5203" y1="10.7191" x2="12.5203" y2="24.8274" gradientUnits="userSpaceOnUse">
<stop stop-color="#A3718D"/>
<stop offset="1" stop-color="#F299AF"/>
</linearGradient>
<linearGradient id="paint2_linear_139_7733" x1="12.5203" y1="10.7191" x2="12.5203" y2="24.8274" gradientUnits="userSpaceOnUse">
<stop stop-color="#C798B6"/>
<stop offset="1" stop-color="#F299AF"/>
</linearGradient>
<linearGradient id="paint3_linear_139_7733" x1="12.5203" y1="10.7191" x2="12.5203" y2="24.8274" gradientUnits="userSpaceOnUse">
<stop stop-color="#CD9AB6"/>
<stop offset="1" stop-color="#F299AF"/>
</linearGradient>
<linearGradient id="paint4_linear_139_7733" x1="12.5203" y1="10.7191" x2="12.5203" y2="24.8274" gradientUnits="userSpaceOnUse">
<stop stop-color="#A88099"/>
<stop offset="1" stop-color="#F299AF"/>
</linearGradient>
<linearGradient id="paint5_linear_139_7733" x1="13.625" y1="10.0778" x2="15.0823" y2="17.0115" gradientUnits="userSpaceOnUse">
<stop stop-color="#B09369"/>
<stop offset="1" stop-color="#4A3E2C"/>
</linearGradient>
<linearGradient id="paint6_linear_139_7733" x1="13.3142" y1="6.2284" x2="13.3142" y2="31.2436" gradientUnits="userSpaceOnUse">
<stop offset="0.830585" stop-color="#0F0A07"/>
<stop offset="1" stop-color="#0F0A07"/>
</linearGradient>
<linearGradient id="paint7_linear_139_7733" x1="17.6385" y1="17.9923" x2="28.7401" y2="17.9923" gradientUnits="userSpaceOnUse">
<stop stop-color="#C7DBFE"/>
<stop offset="0.365385" stop-color="#93A6C7"/>
</linearGradient>
</defs>
</svg>
