<svg width="36" height="36" viewBox="0 0 36 36" fill="none" xmlns="http://www.w3.org/2000/svg">
<circle cx="18" cy="18" r="18" fill="#FF7300"/>
<path d="M7.75918 28.396C7.75918 27.4432 8.55454 26.6709 9.53567 26.6709H10.6354C11.6165 26.6709 12.4119 27.4432 12.4119 28.396V30.121C12.4119 31.0738 11.6165 31.8461 10.6354 31.8461H9.53567C8.55454 31.8461 7.75918 31.0738 7.75918 30.121V28.396Z" fill="#252215"/>
<path d="M11.0796 31.4149V31.8461H9.0915V31.4149H11.0796ZM11.9678 30.5523V27.9647C11.9678 27.4884 11.57 27.1022 11.0796 27.1021H9.0915C8.60096 27.1021 8.20329 27.4883 8.20329 27.9647V30.5523C8.20329 31.0287 8.60096 31.4149 9.0915 31.4149V31.8461L8.95532 31.8394C8.28348 31.7732 7.75918 31.2222 7.75918 30.5523V27.9647C7.75918 27.2501 8.35568 26.6709 9.0915 26.6709H11.0796L11.2158 26.6776C11.8875 26.7439 12.4119 27.2948 12.4119 27.9647V30.5523L12.405 30.6846C12.3413 31.2935 11.8427 31.7775 11.2158 31.8394L11.0796 31.8461V31.4149C11.57 31.4148 11.9678 31.0286 11.9678 30.5523Z" fill="#110B07"/>
<path d="M7.75918 28.396H12.4119V30.121H7.75918V28.396Z" fill="#040302"/>
<path d="M22.6477 28.396C22.6477 27.4432 23.443 26.6709 24.4242 26.6709H25.5239C26.505 26.6709 27.3004 27.4432 27.3004 28.396V30.121C27.3004 31.0738 26.505 31.8461 25.5239 31.8461H24.4242C23.443 31.8461 22.6477 31.0738 22.6477 30.121V28.396Z" fill="#252215"/>
<path d="M25.9681 31.4149V31.8461H23.98V31.4149H25.9681ZM26.8563 30.5523V27.9647C26.8563 27.4884 26.4585 27.1022 25.9681 27.1021H23.98C23.4895 27.1021 23.0918 27.4883 23.0918 27.9647V30.5523C23.0918 31.0287 23.4895 31.4149 23.98 31.4149V31.8461L23.8438 31.8394C23.172 31.7732 22.6477 31.2222 22.6477 30.5523V27.9647C22.6477 27.2501 23.2442 26.6709 23.98 26.6709H25.9681L26.1042 26.6776C26.776 26.7439 27.3004 27.2948 27.3004 27.9647V30.5523L27.2934 30.6846C27.2298 31.2935 26.7312 31.7775 26.1042 31.8394L25.9681 31.8461V31.4149C26.4585 31.4148 26.8563 31.0286 26.8563 30.5523Z" fill="#110B07"/>
<path d="M22.6477 28.396H27.3004V30.121H22.6477V28.396Z" fill="#040302"/>
<path d="M10.868 28.396H25.9682C27.4399 28.396 28.6329 27.2374 28.6329 25.8083V9.85119C28.6329 9.85119 23.8669 17.0585 19.7505 21.0643C16.6127 24.1178 10.868 28.396 10.868 28.396Z" fill="url(#paint0_linear_125_7267)"/>
<path fill-rule="evenodd" clip-rule="evenodd" d="M5.9827 10.2825C5.9827 8.85335 7.17574 7.69482 8.64743 7.69482H12.2004V6.401C12.2004 5.92463 12.5981 5.53845 13.0886 5.53845H20.6387L17.5299 7.69482H21.9711H26.4123C27.6387 7.69482 28.6329 8.66026 28.6329 9.85119C28.6329 9.85119 23.8669 17.0585 19.7505 21.0643C16.6127 24.1178 10.868 28.396 10.868 28.396H8.64743C7.17574 28.396 5.9827 27.2374 5.9827 25.8083V10.2825Z" fill="#FBF1D9"/>
<path d="M21.9711 7.69482V6.401C21.9711 5.92463 21.5734 5.53845 21.0828 5.53845H20.6387L17.5299 7.69482H21.9711Z" fill="#E1D0B6"/>
<path d="M5.53857 25.8083V10.2825C5.53857 8.61516 6.93046 7.26355 8.64743 7.26355V7.69482C7.17574 7.69482 5.9827 8.85335 5.9827 10.2825V25.8083C5.9827 27.2374 7.17574 28.396 8.64743 28.396H25.9682C27.4399 28.396 28.6329 27.2374 28.6329 25.8083V9.85119C28.6329 8.66026 27.6387 7.69482 26.4123 7.69482V7.26355C27.884 7.26355 29.077 8.42207 29.077 9.85119V25.8083C29.077 27.4756 27.6852 28.8272 25.9682 28.8272H8.64743C6.93046 28.8272 5.53857 27.4756 5.53857 25.8083ZM21.9711 6.83227C21.9711 6.3559 21.5734 5.96973 21.0828 5.96973V5.53845C21.8187 5.53845 22.4152 6.11772 22.4152 6.83227V7.26355H26.4123V7.69482H21.9711V6.83227ZM11.7563 6.83227C11.7563 6.11772 12.3528 5.53845 13.0886 5.53845V5.96973C12.5981 5.96973 12.2004 6.3559 12.2004 6.83227V7.69482H8.64743V7.26355H11.7563V6.83227ZM21.0828 5.53845V5.96973H13.0886V5.53845H21.0828Z" fill="#261E18"/>
<path d="M5.9827 10.7137H28.6329V18.4767H5.9827V10.7137Z" fill="url(#paint1_linear_125_7267)"/>
<path d="M28.6329 10.7137H5.9827V18.4767H28.6329V10.7137ZM29.077 18.9079H5.53857V10.2825H29.077V18.9079Z" fill="#261E18"/>
<path d="M5.9827 16.3203H28.6329V17.6141H5.9827V16.3203Z" fill="#090702"/>
<path fill-rule="evenodd" clip-rule="evenodd" d="M27.3005 11.5763H22.2087C21.7182 11.5763 21.3205 11.9625 21.3205 12.4388V16.7516C21.3205 17.2279 21.7182 17.6141 22.2087 17.6141H22.8593L27.5226 11.7919L27.3005 11.5763Z" fill="#E2EEFF"/>
<path d="M22.8593 17.6141H26.8564C27.347 17.6141 27.7447 17.2279 27.7447 16.7516V12.0076L27.5226 11.7919L22.8593 17.6141Z" fill="#DBE1EF"/>
<path d="M19.5143 17.6141C20.0048 17.6141 20.4025 17.2279 20.4025 16.7516V12.2095C20.4025 11.8598 20.1106 11.5763 19.7505 11.5763L15.3093 17.6141H19.5143Z" fill="#F4F1FF"/>
<path d="M15.0447 11.5763C14.5541 11.5763 14.1564 11.9625 14.1564 12.4388V16.7516C14.1564 17.2279 14.5541 17.6141 15.0447 17.6141H15.3093L19.7505 11.5763H15.0447Z" fill="#FFFCFE"/>
<path d="M12.2004 17.6141C12.691 17.6141 13.0886 17.2279 13.0886 16.7516V12.4388C13.0886 11.9625 12.691 11.5763 12.2004 11.5763L7.75918 17.6141H12.2004Z" fill="#FFFCFE"/>
<path d="M7.75918 11.5763C7.26862 11.5763 6.87094 11.9625 6.87094 12.4388V16.7516C6.87094 17.2279 7.26862 17.6141 7.75918 17.6141L12.2004 11.5763H7.75918Z" fill="#FBF2FF"/>
<path d="M12.4359 17.4844V17.8298H7.73013V17.4844H12.4359ZM19.7214 17.4844V17.8298H15.0156V17.4844H19.7214ZM26.8855 17.4844V17.8298H22.1797V17.4844H26.8855ZM27.4181 16.9672V12.2232C27.4181 11.9374 27.1798 11.706 26.8855 11.706H22.1797C21.8854 11.706 21.6471 11.9374 21.6471 12.2232V16.9672C21.6471 17.253 21.8854 17.4844 22.1797 17.4844V17.8298L22.0886 17.8255C21.6708 17.7842 21.3383 17.4614 21.2958 17.0556L21.2915 16.9672V12.2232C21.2915 11.7767 21.6408 11.4091 22.0886 11.3649L22.1797 11.3606H26.8855L26.9766 11.3649C27.4244 11.4091 27.7737 11.7767 27.7737 12.2232V16.9672C27.7737 17.4137 27.4244 17.7813 26.9766 17.8255L26.8855 17.8298V17.4844C27.1798 17.4844 27.4181 17.253 27.4181 16.9672ZM20.254 16.9672V12.2232C20.254 11.9374 20.0158 11.706 19.7214 11.706H15.0156C14.7213 11.706 14.483 11.9374 14.483 12.2232V16.9672C14.483 17.253 14.7213 17.4844 15.0156 17.4844V17.8298L14.9246 17.8255C14.5067 17.7842 14.1743 17.4614 14.1317 17.0556L14.1274 16.9672V12.2232C14.1274 11.7767 14.4768 11.4091 14.9246 11.3649L15.0156 11.3606H19.7214L19.8125 11.3649C20.2603 11.4091 20.6097 11.7767 20.6097 12.2232V16.9672C20.6097 17.4137 20.2603 17.7813 19.8125 17.8255L19.7214 17.8298V17.4844C20.0158 17.4844 20.254 17.253 20.254 16.9672ZM12.9685 16.9672V12.2232C12.9685 11.9374 12.7302 11.706 12.4359 11.706H7.73013C7.43579 11.706 7.19753 11.9374 7.19753 12.2232V16.9672C7.19753 17.253 7.43579 17.4844 7.73013 17.4844V17.8298C7.2703 17.8298 6.89181 17.4905 6.84622 17.0556L6.84188 16.9672V12.2232C6.84188 11.7468 7.23956 11.3606 7.73013 11.3606H12.4359C12.9265 11.3606 13.3242 11.7468 13.3242 12.2232V16.9672C13.3242 17.4436 12.9265 17.8298 12.4359 17.8298V17.4844C12.7302 17.4844 12.9685 17.253 12.9685 16.9672Z" fill="black"/>
<path d="M12.2004 7.26355H21.9711V7.69482H12.2004V7.26355Z" fill="#755E4B"/>
<path fill-rule="evenodd" clip-rule="evenodd" d="M19.7505 21.0643H14.1545C14.0564 21.0643 13.9769 21.1415 13.9769 21.2368V26.1014L19.7505 21.0643Z" fill="#DCBB95"/>
<path d="M20.0169 26.6709C20.1151 26.6709 20.1946 26.5936 20.1946 26.4984V21.2368C20.1946 21.1415 20.1151 21.0643 20.0169 21.0643H19.7505L13.9769 26.1014V26.4984C13.9769 26.5936 14.0564 26.6709 14.1545 26.6709H20.0169Z" fill="url(#paint2_linear_125_7267)"/>
<path d="M13.9769 26.4984C13.9769 26.5819 14.038 26.6516 14.1191 26.6675L14.1545 26.6709H20.0169C20.1151 26.6709 20.1946 26.5936 20.1946 26.4984V21.2368C20.1946 21.1415 20.1151 21.0643 20.0169 21.0643L20.0168 20.633C20.3602 20.633 20.6387 20.9035 20.6387 21.237V26.4982C20.6387 26.8316 20.3602 27.1021 20.0168 27.1021H14.1547C13.8113 27.1021 13.5328 26.8316 13.5328 26.4982V21.237C13.5328 20.9035 13.8113 20.633 14.1547 20.633L14.1545 21.0643L14.1191 21.0677C14.038 21.0836 13.9769 21.1533 13.9769 21.2368V26.4984ZM20.0168 20.633L20.0169 21.0643H14.1545L14.1547 20.633H20.0168Z" fill="#755E4B"/>
<path d="M20.1946 26.221H13.9769V25.7897H20.1946V26.221Z" fill="#755E4B"/>
<path d="M20.1946 25.1857H13.9769V24.7545H20.1946V25.1857Z" fill="#755E4B"/>
<path d="M20.1946 24.1513H13.9769V23.7201H20.1946V24.1513Z" fill="#755E4B"/>
<path d="M20.1946 23.1161H13.9769V22.6848H20.1946V23.1161Z" fill="#755E4B"/>
<path d="M20.1946 22.0809H13.9769V21.6496H20.1946V22.0809Z" fill="#755E4B"/>
<path d="M18.4181 21.0643C18.4181 21.7789 17.8216 22.3581 17.0857 22.3581C16.3499 22.3581 15.7534 21.7789 15.7534 21.0643C15.7534 20.3497 16.3499 19.7705 17.0857 19.7705C17.8216 19.7705 18.4181 20.3497 18.4181 21.0643Z" fill="#E0D6CC"/>
<path d="M18.0625 21.0643C18.0625 20.5403 17.6254 20.1158 17.0857 20.1158C16.5461 20.1158 16.109 20.5403 16.109 21.0643C16.109 21.5883 16.5461 22.0128 17.0857 22.0128V22.3581C16.3499 22.3581 15.7534 21.7789 15.7534 21.0643C15.7534 20.3497 16.3499 19.7705 17.0857 19.7705C17.8216 19.7705 18.4181 20.3497 18.4181 21.0643C18.4181 21.7789 17.8216 22.3581 17.0857 22.3581V22.0128C17.6254 22.0128 18.0625 21.5883 18.0625 21.0643Z" fill="#755E4B"/>
<path d="M26.8564 21.7112C26.8564 22.3067 26.3593 22.7894 25.7461 22.7894C25.1329 22.7894 24.6358 22.3067 24.6358 21.7112C24.6358 21.1157 25.1329 20.633 25.7461 20.633C26.3593 20.633 26.8564 21.1157 26.8564 21.7112Z" fill="#E18231"/>
<path d="M26.5008 21.7112C26.5008 21.3063 26.1631 20.9784 25.7461 20.9784C25.3291 20.9784 24.9915 21.3063 24.9915 21.7112C24.9915 22.1161 25.3291 22.444 25.7461 22.444V22.7894C25.1329 22.7894 24.6358 22.3067 24.6358 21.7112C24.6358 21.1157 25.1329 20.633 25.7461 20.633C26.3593 20.633 26.8564 21.1157 26.8564 21.7112C26.8564 22.3067 26.3593 22.7894 25.7461 22.7894V22.444C26.1631 22.444 26.5008 22.1161 26.5008 21.7112Z" fill="#43382F"/>
<path d="M9.97979 21.7112C9.97979 22.3067 9.48269 22.7894 8.86949 22.7894C8.25628 22.7894 7.75918 22.3067 7.75918 21.7112C7.75918 21.1157 8.25628 20.633 8.86949 20.633C9.48269 20.633 9.97979 21.1157 9.97979 21.7112Z" fill="#F8B136"/>
<path d="M9.62415 21.7112C9.62415 21.3063 9.28647 20.9784 8.86949 20.9784C8.45251 20.9784 8.11483 21.3063 8.11483 21.7112C8.11483 22.1161 8.45251 22.444 8.86949 22.444V22.7894C8.25628 22.7894 7.75918 22.3067 7.75918 21.7112C7.75918 21.1157 8.25628 20.633 8.86949 20.633C9.48269 20.633 9.97979 21.1157 9.97979 21.7112C9.97979 22.3067 9.48269 22.7894 8.86949 22.7894V22.444C9.28647 22.444 9.62415 22.1161 9.62415 21.7112Z" fill="#755E4B"/>
<path d="M26.8564 24.0832C26.8564 24.6787 26.3593 25.1614 25.7461 25.1614C25.1329 25.1614 24.6358 24.6787 24.6358 24.0832C24.6358 23.4878 25.1329 23.005 25.7461 23.005C26.3593 23.005 26.8564 23.4878 26.8564 24.0832Z" fill="#BFAFAD"/>
<path d="M26.5008 24.0832C26.5008 23.6783 26.1631 23.3504 25.7461 23.3504C25.3291 23.3504 24.9915 23.6783 24.9915 24.0832C24.9915 24.4881 25.3291 24.816 25.7461 24.816V25.1614C25.1329 25.1614 24.6358 24.6787 24.6358 24.0832C24.6358 23.4878 25.1329 23.005 25.7461 23.005C26.3593 23.005 26.8564 23.4878 26.8564 24.0832C26.8564 24.6787 26.3593 25.1614 25.7461 25.1614V24.816C26.1631 24.816 26.5008 24.4881 26.5008 24.0832Z" fill="#43382F"/>
<path d="M9.97979 24.0832C9.97979 24.6787 9.48269 25.1614 8.86949 25.1614C8.25628 25.1614 7.75918 24.6787 7.75918 24.0832C7.75918 23.4878 8.25628 23.005 8.86949 23.005C9.48269 23.005 9.97979 23.4878 9.97979 24.0832Z" fill="#DED9D2"/>
<path d="M9.62415 24.0832C9.62415 23.6783 9.28647 23.3504 8.86949 23.3504C8.45251 23.3504 8.11483 23.6783 8.11483 24.0832C8.11483 24.4881 8.45251 24.816 8.86949 24.816V25.1614C8.25628 25.1614 7.75918 24.6787 7.75918 24.0832C7.75918 23.4878 8.25628 23.005 8.86949 23.005C9.48269 23.005 9.97979 23.4878 9.97979 24.0832C9.97979 24.6787 9.48269 25.1614 8.86949 25.1614V24.816C9.28647 24.816 9.62415 24.4881 9.62415 24.0832Z" fill="#755E4B"/>
<defs>
<linearGradient id="paint0_linear_125_7267" x1="5.9827" y1="16.9672" x2="28.6329" y2="16.9672" gradientUnits="userSpaceOnUse">
<stop offset="0.509615" stop-color="#ECE0D1"/>
<stop offset="1" stop-color="#CAADA5"/>
</linearGradient>
<linearGradient id="paint1_linear_125_7267" x1="5.9827" y1="11.145" x2="28.6572" y2="18.3466" gradientUnits="userSpaceOnUse">
<stop stop-color="#614D1E"/>
<stop offset="0.22758" stop-color="#55451D"/>
<stop offset="1" stop-color="#2B2B1A"/>
</linearGradient>
<linearGradient id="paint2_linear_125_7267" x1="13.9769" y1="23.8676" x2="20.1946" y2="23.8676" gradientUnits="userSpaceOnUse">
<stop stop-color="#B69280"/>
<stop offset="1" stop-color="#CFAE91"/>
</linearGradient>
</defs>
</svg>
