<svg width="114" height="114" viewBox="0 0 114 114" fill="none" xmlns="http://www.w3.org/2000/svg">
<path fill-rule="evenodd" clip-rule="evenodd" d="M57 114C64.4853 114 71.8974 112.526 78.813 109.661C85.7285 106.797 92.0121 102.598 97.3051 97.3051C102.598 92.0121 106.797 85.7285 109.661 78.813C112.526 71.8974 114 64.4853 114 57C114 49.5147 112.526 42.1026 109.661 35.187C106.797 28.2715 102.598 21.9879 97.3051 16.6949C92.0121 11.402 85.7285 7.20338 78.813 4.33887C71.8974 1.47435 64.4853 -1.1154e-07 57 0C41.8827 2.25266e-07 27.3845 6.00534 16.6949 16.6949C6.00534 27.3845 0 41.8827 0 57C0 72.1173 6.00534 86.6155 16.6949 97.3051C27.3845 107.995 41.8827 114 57 114ZM55.5307 80.0533L87.1973 42.0533L77.4693 33.9467L50.236 66.6203L36.1443 52.5223L27.189 61.4777L46.189 80.4777L51.091 85.3797L55.5307 80.0533Z" fill="#B4DB7E"/>
</svg>
