<svg width="217" height="105" viewBox="0 0 217 105" fill="none" xmlns="http://www.w3.org/2000/svg">
<mask id="mask0_3212_12956" style="mask-type:luminance" maskUnits="userSpaceOnUse" x="0" y="0" width="217" height="93">
<path d="M0 0H217V93H0V0Z" fill="white"/>
</mask>
<g mask="url(#mask0_3212_12956)">
<path d="M216.934 76.6746C216.934 83.9969 210.989 89.9323 203.657 89.9323C199.882 89.9323 196.455 88.3295 194.025 85.8163C189.903 88.936 184.784 90.7987 179.23 90.7987C173.069 90.7987 167.429 88.5028 163.091 84.7333C159.706 87.983 155.107 89.9323 150.074 89.9323C142.092 89.9323 135.236 84.9499 132.503 77.9308C128.858 79.0571 124.953 79.621 120.918 79.621C114.758 79.621 108.901 78.2341 103.694 75.7216C102.869 85.3398 94.7561 92.8787 84.9076 92.8787C80.8726 92.8787 77.1413 91.6217 74.0606 89.4558C69.5918 91.665 64.5157 92.8787 59.1794 92.8787C49.2433 92.8787 40.3058 88.6328 34.1452 81.8302C30.544 84.9932 25.815 86.8992 20.608 86.8992C9.19783 86.9426 0 77.7142 0 66.4059C0 55.0983 9.19783 45.8691 20.5646 45.8691C22.9946 45.8691 25.3378 46.3031 27.5067 47.0828C32.3659 34.3883 44.6878 25.3332 59.136 25.3332C67.6832 25.3332 75.4929 28.4954 81.4799 33.7385C84.4304 14.6746 100.961 0.0740356 120.876 0.0740356C138.751 0.0740356 153.849 11.8148 158.926 27.9756C165.607 30.1856 170.683 36.0344 171.681 43.1834C174.024 42.447 176.54 42.0138 179.143 42.0138C191.639 42.0138 201.922 51.3721 203.396 63.4169C203.44 63.4169 203.527 63.4169 203.57 63.4169C210.989 63.3736 216.934 69.3523 216.934 76.6746Z" fill="url(#paint0_linear_3212_12956)"/>
</g>
<mask id="mask1_3212_12956" style="mask-type:luminance" maskUnits="userSpaceOnUse" x="13" y="28" width="179" height="77">
<path d="M13 28H192V105H13V28Z" fill="white"/>
</mask>
<g mask="url(#mask1_3212_12956)">
<path d="M191.945 91.4833C191.945 97.5458 187.042 102.46 180.993 102.46C177.88 102.46 175.053 101.133 173.048 99.0522C169.648 101.635 165.425 103.177 160.844 103.177C155.762 103.177 151.11 101.276 147.531 98.1555C144.739 100.846 140.946 102.46 136.794 102.46C130.209 102.46 124.554 98.3349 122.299 92.5234C119.293 93.4559 116.072 93.9228 112.743 93.9228C107.662 93.9228 102.83 92.7744 98.5353 90.6942C97.8555 98.6577 91.1629 104.9 83.039 104.9C79.7106 104.9 76.6326 103.859 74.0914 102.066C70.4052 103.895 66.218 104.9 61.8162 104.9C53.6201 104.9 46.2476 101.384 41.1659 95.7519C38.1953 98.3707 34.2944 99.9488 29.9992 99.9488C20.5871 99.9847 13 92.344 13 82.9812C13 73.619 20.5871 65.9777 29.9634 65.9777C31.9679 65.9777 33.9008 66.337 35.6899 66.9825C39.6982 56.472 49.8623 48.9748 61.7804 48.9748C68.8308 48.9748 75.2729 51.593 80.2115 55.934C82.6454 40.1499 96.281 28.0613 112.708 28.0613C127.453 28.0613 139.907 37.7821 144.095 51.1626C149.606 52.9924 153.794 57.8349 154.617 63.754C156.549 63.1443 158.626 62.7856 160.772 62.7856C171.08 62.7856 179.562 70.5339 180.779 80.5065C180.814 80.5065 180.886 80.5065 180.922 80.5065C187.042 80.4706 191.945 85.4207 191.945 91.4833Z" fill="#FAFAFA"/>
</g>
<defs>
<linearGradient id="paint0_linear_3212_12956" x1="108.467" y1="0.0740356" x2="108.467" y2="92.8787" gradientUnits="userSpaceOnUse">
<stop stop-color="#A1D6F5"/>
<stop offset="0.0001" stop-color="#A3D6F3"/>
<stop offset="1" stop-color="#BDD6D0"/>
</linearGradient>
</defs>
</svg>
