<svg width="217" height="112" viewBox="0 0 217 112" fill="none" xmlns="http://www.w3.org/2000/svg">
<mask id="mask0_3212_12959" style="mask-type:luminance" maskUnits="userSpaceOnUse" x="0" y="0" width="217" height="93">
<path d="M0 0H217V93H0V0Z" fill="white"/>
</mask>
<g mask="url(#mask0_3212_12959)">
<path d="M216.934 76.6746C216.934 83.9969 210.989 89.9323 203.657 89.9323C199.882 89.9323 196.455 88.3295 194.025 85.8163C189.903 88.936 184.784 90.7987 179.23 90.7987C173.069 90.7987 167.429 88.5028 163.091 84.7333C159.706 87.983 155.107 89.9323 150.074 89.9323C142.092 89.9323 135.236 84.9499 132.503 77.9308C128.858 79.0571 124.953 79.621 120.918 79.621C114.758 79.621 108.901 78.2341 103.694 75.7216C102.869 85.3398 94.7561 92.8787 84.9076 92.8787C80.8726 92.8787 77.1413 91.6217 74.0606 89.4558C69.5918 91.665 64.5157 92.8787 59.1794 92.8787C49.2433 92.8787 40.3058 88.6328 34.1452 81.8302C30.544 84.9932 25.815 86.8992 20.608 86.8992C9.19783 86.9426 0 77.7142 0 66.4059C0 55.0983 9.19783 45.8691 20.5646 45.8691C22.9946 45.8691 25.3378 46.3031 27.5067 47.0828C32.3659 34.3883 44.6878 25.3332 59.136 25.3332C67.6832 25.3332 75.4929 28.4954 81.4799 33.7385C84.4304 14.6746 100.961 0.0740356 120.876 0.0740356C138.751 0.0740356 153.849 11.8148 158.926 27.9756C165.607 30.1856 170.683 36.0344 171.681 43.1834C174.024 42.447 176.54 42.0138 179.143 42.0138C191.639 42.0138 201.922 51.3721 203.396 63.4169C203.44 63.4169 203.527 63.4169 203.57 63.4169C210.989 63.3736 216.934 69.3523 216.934 76.6746Z" fill="url(#paint0_linear_3212_12959)"/>
</g>
<mask id="mask1_3212_12959" style="mask-type:luminance" maskUnits="userSpaceOnUse" x="24" y="31" width="188" height="81">
<path d="M24 31H212V112H24V31Z" fill="white"/>
</mask>
<g mask="url(#mask1_3212_12959)">
<path d="M211.943 97.7811C211.943 104.159 206.793 109.328 200.44 109.328C197.17 109.328 194.201 107.932 192.096 105.743C188.525 108.46 184.089 110.083 179.278 110.083C173.94 110.083 169.054 108.083 165.295 104.8C162.363 107.63 158.379 109.328 154.018 109.328C147.102 109.328 141.163 104.989 138.795 98.8753C135.637 99.8562 132.254 100.347 128.759 100.347C123.421 100.347 118.347 99.1394 113.836 96.9511C113.122 105.328 106.093 111.894 97.5605 111.894C94.0647 111.894 90.832 110.8 88.1631 108.913C84.2915 110.837 79.8938 111.894 75.2706 111.894C66.6624 111.894 58.9193 108.196 53.582 102.272C50.4621 105.026 46.365 106.686 41.8539 106.686C31.9686 106.724 24 98.6866 24 88.8374C24 78.9888 31.9686 70.9506 41.8163 70.9506C43.9216 70.9506 45.9516 71.3285 47.8307 72.0077C52.0405 60.9511 62.7157 53.0644 75.233 53.0644C82.6379 53.0644 89.404 55.8186 94.5909 60.3852C97.1471 43.7811 111.468 31.0645 128.722 31.0645C144.208 31.0645 157.288 41.2904 161.687 55.3659C167.475 57.2907 171.873 62.3848 172.738 68.6114C174.767 67.97 176.947 67.5927 179.202 67.5927C190.028 67.5927 198.937 75.7435 200.214 86.2341C200.252 86.2341 200.327 86.2341 200.365 86.2341C206.793 86.1964 211.943 91.4036 211.943 97.7811Z" fill="#FAFAFA"/>
</g>
<defs>
<linearGradient id="paint0_linear_3212_12959" x1="108.467" y1="0.0740356" x2="108.467" y2="92.8787" gradientUnits="userSpaceOnUse">
<stop stop-color="#A1D6F5"/>
<stop offset="0.0001" stop-color="#A3D6F3"/>
<stop offset="1" stop-color="#BDD6D0"/>
</linearGradient>
</defs>
</svg>
