<svg width="26" height="26" viewBox="0 0 26 26" fill="none" xmlns="http://www.w3.org/2000/svg">
<path fill-rule="evenodd" clip-rule="evenodd" d="M14.1436 16.1323V1.14519C14.1436 0.841964 14.0259 0.550861 13.8094 0.334362C13.5927 0.123714 13.3018 0 12.9984 0C12.695 0 12.4041 0.123714 12.1874 0.334362C11.9709 0.550861 11.8532 0.841964 11.8532 1.14519V16.1323C11.8532 16.1323 9.66795 13.9471 8.44836 12.7277C8.23165 12.511 7.94076 12.3933 7.63753 12.3933C7.3341 12.3933 7.04321 12.511 6.8265 12.7277C6.38075 13.1732 6.38075 13.8975 6.8265 14.3433L12.2308 19.7476C12.435 19.9518 12.7075 20.0634 12.9984 20.0634C13.2893 20.0634 13.5618 19.9518 13.766 19.7476L19.1703 14.3433C19.6161 13.8975 19.6161 13.1732 19.1703 12.7277C18.9536 12.511 18.6627 12.3933 18.3593 12.3933C18.056 12.3933 17.7652 12.511 17.5484 12.7277C16.3226 13.9471 14.1436 16.1323 14.1436 16.1323Z" fill="#BF4B17"/>
<path fill-rule="evenodd" clip-rule="evenodd" d="M0 23.8333C0 24.409 0.229038 24.9599 0.637587 25.3624C1.04614 25.7709 1.59721 26 2.16667 26H23.8333C24.4091 26 24.9599 25.7709 25.3624 25.3624C25.771 24.9538 26 24.4028 26 23.8333V17.2775C26 16.6462 25.4861 16.1323 24.8548 16.1323C24.5514 16.1323 24.2605 16.2562 24.0438 16.4667C23.8271 16.6834 23.7096 16.9743 23.7096 17.2775V22.6323C23.7096 23.2329 23.2267 23.7156 22.6263 23.7156H3.37371C2.77332 23.7156 2.29038 23.2329 2.29038 22.6323V17.2775C2.29038 16.9743 2.16667 16.6834 1.95623 16.4667C1.73952 16.25 1.44862 16.1323 1.14519 16.1323C0.513873 16.1323 0 16.6462 0 17.2775V23.8333Z" fill="#BF4B17"/>
</svg>
