<svg width="47" height="47" viewBox="0 0 47 47" fill="none" xmlns="http://www.w3.org/2000/svg">
<circle cx="23.5" cy="23.5" r="23.5" fill="#FBC95A"/>
<path d="M24.3258 13.9343C24.2385 13.8509 24.1225 13.8043 24.0018 13.8043C23.881 13.8043 23.765 13.8509 23.6777 13.9343L12.8906 24.2392C12.8448 24.2831 12.8084 24.3357 12.7835 24.394C12.7586 24.4523 12.7458 24.5151 12.7459 24.5785L12.7441 34.25C12.7441 34.7473 12.9417 35.2242 13.2933 35.5758C13.6449 35.9274 14.1219 36.125 14.6191 36.125H20.25C20.4986 36.125 20.7371 36.0262 20.9129 35.8504C21.0887 35.6746 21.1875 35.4361 21.1875 35.1875V27.2187C21.1875 27.0944 21.2369 26.9752 21.3248 26.8873C21.4127 26.7994 21.5319 26.75 21.6562 26.75H26.3438C26.4681 26.75 26.5873 26.7994 26.6752 26.8873C26.7631 26.9752 26.8125 27.0944 26.8125 27.2187V35.1875C26.8125 35.4361 26.9113 35.6746 27.0871 35.8504C27.2629 36.0262 27.5014 36.125 27.75 36.125H33.3785C33.8758 36.125 34.3527 35.9274 34.7043 35.5758C35.056 35.2242 35.2535 34.7473 35.2535 34.25V24.5785C35.2536 24.5151 35.2408 24.4523 35.2159 24.394C35.191 24.3357 35.1546 24.2831 35.1088 24.2392L24.3258 13.9343Z" fill="white"/>
<path d="M37.7643 22.3057L33.3815 18.1127V11.75C33.3815 11.5014 33.2827 11.2629 33.1069 11.0871C32.9311 10.9113 32.6926 10.8125 32.444 10.8125H29.6315C29.3828 10.8125 29.1444 10.9113 28.9686 11.0871C28.7927 11.2629 28.694 11.5014 28.694 11.75V13.625L25.3002 10.3801C24.9826 10.059 24.5104 9.875 24 9.875C23.4914 9.875 23.0203 10.059 22.7028 10.3807L10.2399 22.3045C9.87541 22.6561 9.82971 23.2344 10.1614 23.6152C10.2446 23.7114 10.3466 23.7896 10.4611 23.845C10.5755 23.9005 10.7001 23.9321 10.8271 23.9379C10.9542 23.9437 11.0811 23.9236 11.2001 23.8788C11.3192 23.834 11.4278 23.7655 11.5196 23.6773L23.6778 12.0594C23.765 11.9759 23.8811 11.9294 24.0018 11.9294C24.1225 11.9294 24.2386 11.9759 24.3258 12.0594L36.4852 23.6773C36.6643 23.8491 36.9042 23.9429 37.1523 23.938C37.4004 23.9332 37.6365 23.8302 37.8088 23.6516C38.1686 23.2789 38.1387 22.6637 37.7643 22.3057Z" fill="#FF8B2B"/>
</svg>
