<svg width="47" height="46" viewBox="0 0 47 46" fill="none" xmlns="http://www.w3.org/2000/svg">
<mask id="mask0_3690_5712" style="mask-type:alpha" maskUnits="userSpaceOnUse" x="0" y="0" width="47" height="46">
<ellipse cx="23.5" cy="23" rx="23.5" ry="23" fill="#D9D9D9"/>
</mask>
<g mask="url(#mask0_3690_5712)">
<ellipse cx="22.9887" cy="22.5" rx="29.1196" ry="26.5" fill="#FBC95A"/>
<ellipse cx="23.4992" cy="19" rx="12.2609" ry="12" fill="white" fill-opacity="0.5"/>
<path d="M22.9682 2.11858C22.7663 3.7142 22.2664 5.23326 21.5148 6.54063C21.3047 6.90575 21.0731 7.25044 20.8258 7.57591C20.6432 7.81627 20.9322 8.18262 21.1151 7.94195C22.0357 6.73066 22.7231 5.24577 23.1105 3.63886C23.2198 3.18589 23.3038 2.72377 23.3629 2.25615C23.3803 2.11828 23.3349 1.97766 23.2201 1.9377C23.1226 1.90384 22.9858 1.97979 22.9682 2.11858Z" fill="#FE783F"/>
<path d="M22.9599 2.15067C23.1143 2.58626 23.2689 3.02184 23.4236 3.45743C23.5732 3.87837 23.722 4.30114 23.9124 4.69586C24.097 5.07867 24.3148 5.43342 24.5257 5.79336C24.7411 6.16153 24.9443 6.54038 25.1382 6.92716C25.3626 7.37525 25.5759 7.83219 25.7892 8.28882C25.9231 8.57555 26.277 8.31536 26.1426 8.02772C25.7667 7.22243 25.3894 6.41593 24.9532 5.65976C24.7443 5.29768 24.5242 4.94537 24.3322 4.56835C24.138 4.18706 23.9843 3.77771 23.8369 3.3647C23.6617 2.87329 23.4878 2.38127 23.3131 1.88956C23.268 1.76206 23.1213 1.73156 23.0332 1.79653C22.9295 1.8734 22.9143 2.02256 22.9599 2.15067Z" fill="#FE783F"/>
<mask id="mask1_3690_5712" style="mask-type:luminance" maskUnits="userSpaceOnUse" x="15" y="30" width="17" height="11">
<path d="M15.4141 30.8118H31.7658V40.9632H15.4141V30.8118Z" fill="white"/>
</mask>
<g mask="url(#mask1_3690_5712)">
<path d="M26.874 39.559L31.7853 40.9389L30.5959 39.6233C28.5503 37.3603 27.2359 34.224 26.9036 30.8131H20.2957C19.9633 34.224 18.6489 37.3603 16.6032 39.6233L15.4141 40.9389L20.3254 39.559H26.874Z" fill="#FE783F"/>
<path d="M31.7853 40.9389L26.874 39.559H20.3254L15.4141 40.9389L16.6037 39.6227C17.2156 38.9459 17.7606 38.1921 18.2339 37.3753L18.2346 37.3743C18.4004 37.0907 18.5565 36.7994 18.7039 36.5007V36.5001C18.8409 36.2222 18.9707 35.9386 19.0921 35.6488C19.2504 35.2712 19.3941 34.8847 19.5244 34.4897C19.6031 34.2542 19.6752 34.0153 19.7428 33.7737C20.0101 32.8217 20.1963 31.8292 20.2953 30.8131H26.9039C27.0028 31.8292 27.1891 32.8217 27.4564 33.7737C27.5239 34.0153 27.5963 34.2542 27.6747 34.4897C27.9046 35.1873 28.1787 35.8593 28.4952 36.5001C28.6427 36.7994 28.7987 37.0916 28.9652 37.3762C29.4388 38.1921 29.9843 38.9468 30.5957 39.6227L31.7853 40.9389Z" fill="#FE783F"/>
</g>
<path d="M26.9037 10.6424L26.7734 10.5546L20.4384 10.5561L20.2958 10.6424L15.623 16.55V24.9048L20.2958 30.8123H26.9037L31.5762 24.9048V16.55L26.9037 10.6424Z" fill="#FF8B2B"/>
<path d="M31.5755 16.809V16.5503L31.3706 16.2913H27.6239V16.0629C27.6239 16.0266 27.6176 15.9912 27.6067 15.9595L25.7683 10.6425H25.3215L27.2144 16.1163V16.2913H19.9838V16.1163L21.8768 10.6425H21.43L19.5916 15.9595C19.5807 15.9912 19.5747 16.0266 19.5747 16.0629V16.2913H15.8276L15.623 16.5503V16.809H19.5747V24.6459H15.623V24.9045L15.8276 25.1632H19.6162L21.5699 30.8124H22.0167L20.063 25.1632H27.1353L25.1818 30.8124H25.6286L27.5821 25.1632H31.3706L31.5755 24.9045V24.6459H27.6239V16.809H31.5755ZM27.2144 24.6459H19.9838V16.809H27.2144V24.6459Z" fill="#FE783F"/>
<path d="M20.2954 10.6425L19.7793 6.44067L22.5077 9.2006H24.6907L27.4193 6.44067L26.9033 10.6425H20.2954Z" fill="#FE783F"/>
<path d="M21.877 10.6424L23.5993 5.75061L25.3217 10.6424L25.2218 10.7312L22.0191 10.7287L21.877 10.6424Z" fill="#FF8B2B"/>
<mask id="mask2_3690_5712" style="mask-type:luminance" maskUnits="userSpaceOnUse" x="19" y="30" width="9" height="16">
<path d="M19.7695 30.8118H27.4281V45.9999H19.7695V30.8118Z" fill="white"/>
</mask>
<g mask="url(#mask2_3690_5712)">
<path d="M21.4165 30.8123V31.1267C21.4165 35.0251 20.8618 38.8913 19.7793 42.5413L23.5992 45.9912L27.4193 42.5413C26.3365 38.8913 25.7821 35.0251 25.7821 31.1267V30.8123H21.4165Z" fill="#FF8B2B"/>
</g>
<path d="M23.0531 33.6075C23.0007 33.6075 22.9483 33.5821 22.9085 33.5318L22.3628 32.8418C22.2827 32.7409 22.2827 32.5771 22.3628 32.4761C22.4427 32.3748 22.5722 32.3748 22.6521 32.4761L23.1978 33.1658C23.2777 33.2667 23.2777 33.4308 23.1978 33.5318C23.1578 33.5821 23.1054 33.6075 23.0531 33.6075Z" fill="#FE783F"/>
<path d="M24.1441 33.6075C24.0917 33.6075 24.0394 33.5821 23.9993 33.5318C23.9195 33.4308 23.9195 33.2667 23.9993 33.1658L24.5451 32.4761C24.6252 32.3748 24.7545 32.3748 24.8346 32.4761C24.9144 32.5771 24.9144 32.7409 24.8346 32.8418L24.2889 33.5318C24.2488 33.5821 24.1965 33.6075 24.1441 33.6075Z" fill="#FE783F"/>
<path d="M23.0531 35.6774C23.0007 35.6774 22.9483 35.652 22.9085 35.6017L22.3628 34.9117C22.2827 34.8108 22.2827 34.6467 22.3628 34.5457C22.4427 34.4447 22.5722 34.4447 22.6521 34.5457L23.1978 35.2357C23.2777 35.3366 23.2777 35.5004 23.1978 35.6017C23.1578 35.652 23.1054 35.6774 23.0531 35.6774Z" fill="#FE783F"/>
<path d="M24.1441 35.6774C24.0917 35.6774 24.0394 35.652 23.9993 35.6017C23.9195 35.5004 23.9195 35.3366 23.9993 35.2357L24.5451 34.5457C24.6252 34.4447 24.7545 34.4447 24.8346 34.5457C24.9144 34.6467 24.9144 34.8108 24.8346 34.9117L24.2889 35.6017C24.2488 35.652 24.1965 35.6774 24.1441 35.6774Z" fill="#FE783F"/>
<path d="M23.0531 37.7472C23.0007 37.7472 22.9483 37.7219 22.9085 37.6712L22.3628 36.9813C22.2827 36.8803 22.2827 36.7165 22.3628 36.6155C22.4427 36.5146 22.5722 36.5146 22.6521 36.6155L23.1978 37.3055C23.2777 37.4065 23.2777 37.5703 23.1978 37.6712C23.1578 37.7219 23.1054 37.7472 23.0531 37.7472Z" fill="#FE783F"/>
<path d="M24.1441 37.7472C24.0917 37.7472 24.0394 37.7219 23.9993 37.6712C23.9195 37.5703 23.9195 37.4065 23.9993 37.3055L24.5451 36.6155C24.6252 36.5146 24.7545 36.5146 24.8346 36.6155C24.9144 36.7165 24.9144 36.8803 24.8346 36.9813L24.2889 37.6712C24.2488 37.7219 24.1965 37.7472 24.1441 37.7472Z" fill="#FE783F"/>
<path d="M23.0531 39.8169C23.0007 39.8169 22.9483 39.7919 22.9085 39.7413L22.3628 39.0513C22.2827 38.9503 22.2827 38.7865 22.3628 38.6856C22.4427 38.5843 22.5722 38.5843 22.6521 38.6856L23.1978 39.3756C23.2777 39.4765 23.2777 39.6403 23.1978 39.7413C23.1578 39.7919 23.1054 39.8169 23.0531 39.8169Z" fill="#FE783F"/>
<path d="M24.1441 39.8169C24.0917 39.8169 24.0394 39.7919 23.9993 39.7413C23.9195 39.6403 23.9195 39.4765 23.9993 39.3756L24.5451 38.6856C24.6252 38.5843 24.7545 38.5843 24.8346 38.6856C24.9144 38.7865 24.9144 38.9503 24.8346 39.0513L24.2889 39.7413C24.2488 39.7919 24.1965 39.8169 24.1441 39.8169Z" fill="#FE783F"/>
<path d="M23.0531 41.8868C23.0007 41.8868 22.9483 41.8615 22.9085 41.8112L22.3628 41.1212C22.2827 41.0202 22.2827 40.8561 22.3628 40.7552C22.4427 40.6542 22.5722 40.6542 22.6521 40.7552L23.1978 41.4451C23.2777 41.5461 23.2777 41.7102 23.1978 41.8112C23.1578 41.8615 23.1054 41.8868 23.0531 41.8868Z" fill="#FE783F"/>
<path d="M24.1441 41.8868C24.0917 41.8868 24.0394 41.8615 23.9993 41.8112C23.9195 41.7102 23.9195 41.5461 23.9993 41.4451L24.5451 40.7552C24.6252 40.6542 24.7545 40.6542 24.8346 40.7552C24.9144 40.8561 24.9144 41.0202 24.8346 41.1212L24.2889 41.8112C24.2488 41.8615 24.1965 41.8868 24.1441 41.8868Z" fill="#FE783F"/>
<path d="M20.9635 33.5799L19.5254 34.4889C19.604 34.2534 19.6762 34.0146 19.7437 33.773L20.7807 33.1175C20.8815 33.0537 21.0043 33.1056 21.0547 33.2331C21.1054 33.3609 21.0644 33.5162 20.9635 33.5799Z" fill="#FF8B2B"/>
<path d="M19.8708 36.3395L18.2344 37.3736C18.4001 37.0899 18.5562 36.7986 18.7036 36.5V36.4994L19.688 35.8774C19.7891 35.8137 19.9116 35.8652 19.9623 35.993C20.0127 36.1205 19.9717 36.2758 19.8708 36.3395Z" fill="#FF8B2B"/>
<path d="M27.4557 33.773L26.419 33.1175C26.3179 33.0537 26.1951 33.1056 26.1447 33.2331C26.0942 33.3609 26.135 33.5162 26.2361 33.5799L27.674 34.4889L27.4557 33.773Z" fill="#FF8B2B"/>
<path d="M28.9649 37.3754L27.3279 36.3395C27.2268 36.2758 27.186 36.1205 27.2365 35.993C27.2869 35.8652 27.4097 35.8137 27.5105 35.8774L28.4949 36.4994C28.6423 36.7986 28.7984 37.0908 28.9649 37.3754Z" fill="#FF8B2B"/>
<path d="M24.6089 20.6667L25.599 19.9438L25.7836 19.0732L25.095 18.8399L24.1049 19.5628V18.1173L23.6007 17.4797L23.0967 18.1173V19.5628L22.1065 18.8399L21.418 19.0732L21.6023 19.9438L22.5924 20.6667L21.6023 21.3893L21.418 22.2599L22.1065 22.4932L23.0967 21.7706V23.2159L23.6007 23.8534L24.1049 23.2159V21.7706L25.095 22.4932L25.7836 22.2599L25.599 21.3893L24.6089 20.6667Z" fill="white"/>
<path d="M24.1039 20.6667C24.1039 20.7085 24.1006 20.75 24.094 20.7908C24.0878 20.832 24.0781 20.8717 24.0656 20.9104C24.0528 20.9492 24.0373 20.9858 24.019 21.0205C24.0004 21.0553 23.9797 21.0876 23.9563 21.1172C23.9329 21.1468 23.9073 21.1733 23.8798 21.1965C23.8523 21.2197 23.8233 21.2392 23.7927 21.2554C23.7621 21.2713 23.7305 21.2835 23.6981 21.2917C23.6656 21.2999 23.6328 21.3039 23.5997 21.3039C23.5666 21.3039 23.5338 21.2999 23.5015 21.2917C23.4689 21.2835 23.4373 21.2713 23.4069 21.2554C23.3763 21.2392 23.3471 21.2197 23.3196 21.1965C23.2921 21.1733 23.2668 21.1468 23.2434 21.1172C23.22 21.0876 23.199 21.0553 23.1806 21.0205C23.1623 20.9858 23.1466 20.9492 23.1341 20.9104C23.1213 20.8717 23.1119 20.832 23.1054 20.7908C23.0988 20.75 23.0957 20.7085 23.0957 20.6667C23.0957 20.6246 23.0988 20.5834 23.1054 20.5422C23.1119 20.5011 23.1213 20.4614 23.1341 20.4227C23.1466 20.3839 23.1623 20.3473 23.1806 20.3125C23.199 20.2778 23.22 20.2454 23.2434 20.2159C23.2668 20.1863 23.2921 20.1597 23.3196 20.1365C23.3471 20.1134 23.3763 20.0938 23.4069 20.0777C23.4373 20.0618 23.4689 20.0496 23.5015 20.0414C23.5338 20.0334 23.5666 20.0292 23.5997 20.0292C23.6328 20.0292 23.6656 20.0334 23.6981 20.0414C23.7305 20.0496 23.7621 20.0618 23.7927 20.0777C23.8233 20.0938 23.8523 20.1134 23.8798 20.1365C23.9073 20.1597 23.9329 20.1863 23.9563 20.2159C23.9797 20.2454 24.0004 20.2778 24.019 20.3125C24.0373 20.3473 24.0528 20.3839 24.0656 20.4227C24.0781 20.4614 24.0878 20.5011 24.094 20.5422C24.1006 20.5834 24.1039 20.6246 24.1039 20.6667Z" fill="#FF8B2B"/>
</g>
</svg>
