<svg width="38" height="38" viewBox="0 0 38 38" fill="none" xmlns="http://www.w3.org/2000/svg">
<circle cx="18.5085" cy="18.5085" r="18.5085" fill="#FBC95A"/>
<mask id="mask0_616_36068" style="mask-type:luminance" maskUnits="userSpaceOnUse" x="6" y="8" width="26" height="21">
<path d="M6.23438 8.37756H31.1722V28.6728H6.23438V8.37756Z" fill="white"/>
</mask>
<g mask="url(#mask0_616_36068)">
<path fill-rule="evenodd" clip-rule="evenodd" d="M6.23438 23.6534L9.37462 8.38013L14.3805 10.0964L20.7144 8.47825L25.4256 11.1813L31.1725 9.10733L28.906 27.758L23.9484 28.668L18.9504 25.7213L11.4449 27.8921L6.23413 23.6534H6.23438Z" fill="#BF4B17"/>
</g>
<path fill-rule="evenodd" clip-rule="evenodd" d="M6.93506 23.0774L9.89898 9.41235L14.6236 10.9478L20.6014 9.49992L25.048 11.9186L30.4719 10.0631L28.3327 26.7499L23.6537 27.5642L18.9368 24.9277L11.8532 26.8698L6.93555 23.0776L6.93506 23.0774Z" fill="#FF8B2B"/>
<path fill-rule="evenodd" clip-rule="evenodd" d="M15.4779 11.9225C14.7281 11.6262 13.8751 11.617 13.0817 11.5374C12.7037 11.4997 12.3341 11.4101 12.0064 11.6636C11.5096 12.0473 11.3634 12.6867 11.0449 13.1977C10.7236 13.7123 10.196 14.1074 10.0432 14.7161C9.94626 15.102 10.1285 15.5155 10.483 15.705C10.8472 15.8999 11.3585 15.6812 11.7559 15.697C12.1465 15.7129 12.5353 15.822 12.9248 15.7456C13.3975 15.6526 13.7116 15.2985 14.1354 15.1107C14.5967 14.9066 15.1404 14.9584 15.5869 14.7379C16.3687 14.352 16.5447 13.3487 16.0284 12.681" fill="#FDE4AC"/>
<path fill-rule="evenodd" clip-rule="evenodd" d="M11.1206 16.8331C10.9526 17.7526 10.6994 18.7215 10.3673 19.5961C10.1102 20.2744 9.61473 21.0032 9.76482 21.7727C9.8249 22.0803 9.99006 22.2971 10.1919 22.5291C10.9098 23.3542 12.0189 22.9462 12.7153 22.3097C12.8705 22.1678 13.068 22.0349 13.1709 21.8446C13.6032 21.0425 12.5254 20.3431 13.1301 19.3799C13.3047 19.1014 13.5947 18.7981 13.9289 18.7416C14.6844 18.6133 16.5126 19.2121 16.4608 17.7239C16.4442 17.2374 16.1147 16.7157 15.6484 16.5501C15.1531 16.3744 14.6238 16.9487 14.1052 16.8889C13.8739 16.8622 13.6776 16.7646 13.464 16.6799C13.2772 16.6057 13.0933 16.5284 12.9099 16.4463C12.6477 16.3292 12.3437 16.2121 12.0542 16.2024C11.7334 16.1916 10.9287 16.3952 10.8631 16.7782C10.8271 16.9873 10.9355 17.1971 10.9708 17.3997C11.0036 17.5875 10.9066 17.7677 10.9363 17.9542" fill="#FDE4AC"/>
<path fill-rule="evenodd" clip-rule="evenodd" d="M11.2505 17.172C10.3775 17.3213 9.84595 18.6128 10.3569 19.3494C10.7111 19.8602 11.26 19.1413 11.3813 18.8344C11.4492 18.6633 11.4883 18.49 11.5146 18.3086C11.5515 18.0539 11.6146 17.626 11.4529 17.3921" fill="#FDE4AC"/>
<path fill-rule="evenodd" clip-rule="evenodd" d="M20.5497 12.3697C21.0503 12.2303 21.435 12.3983 21.6358 12.8729C21.8336 13.3408 21.6654 13.8291 21.7882 14.3036C21.85 14.5431 21.9682 14.762 22.0334 15.0003C22.1221 15.3246 22.1149 15.6634 22.2149 15.9866C22.3707 16.49 22.6505 16.9714 22.7331 17.4929C22.8148 18.0034 22.7833 18.7294 22.1824 18.9097C21.267 19.1844 19.9898 18.5418 20.0508 17.5113C20.0784 17.0477 20.6371 16.4709 20.2278 16.0357C19.7227 15.4991 18.7788 15.5255 18.2404 14.9959C17.7021 14.466 17.7359 13.694 18.3616 13.2315C18.6974 12.9834 19.0928 13.0187 19.4742 12.9093C19.7445 12.8318 19.9543 12.6246 20.2191 12.5426" fill="#FDE4AC"/>
<path fill-rule="evenodd" clip-rule="evenodd" d="M20.5352 12.1952C20.2401 12.1742 19.9017 12.1664 19.6421 12.3137C19.1086 12.6163 19.5759 13.0586 20.0193 13.1377C20.7542 13.2688 21.3322 12.5594 20.6212 12.2717" fill="#FDE4AC"/>
<path fill-rule="evenodd" clip-rule="evenodd" d="M18.9566 19.185C18.5505 19.0432 18.3393 18.7478 17.8713 18.8594C17.3624 18.9807 17.3376 19.7637 17.0186 19.9865C16.7253 20.1908 16.2548 20.0328 15.9358 20.203C15.7206 20.3178 15.5088 20.5862 15.689 20.8318C15.9977 21.2529 16.8454 21.112 17.2779 21.1091C17.5249 21.1073 17.7964 21.1049 18.0365 21.1698C18.2397 21.2247 18.4206 21.3437 18.6301 21.3779C18.819 21.4087 19.0135 21.369 19.2011 21.4027C19.5923 21.4732 19.9662 21.7009 20.3663 21.7398C20.7684 21.7788 21.3147 21.5776 21.3625 21.1192C21.4076 20.6877 20.8741 20.5488 20.5835 20.3843C20.3359 20.2444 20.1327 19.9949 19.9122 19.8165C19.8423 19.7597 19.8117 19.6588 19.7341 19.6112C19.4756 19.4514 19.1093 19.3961 18.9391 19.1545" fill="#FDE4AC"/>
<path fill-rule="evenodd" clip-rule="evenodd" d="M11.6582 16.9197C11.6766 16.6641 11.1979 16.7312 11.0874 16.7751C10.641 16.9521 10.2963 17.9105 10.9066 18.1136C11.4853 18.3062 12.0579 17.472 11.7545 16.9429C11.6678 16.7909 11.1873 16.5182 11.0296 16.6549" fill="#FDE4AC"/>
<path fill-rule="evenodd" clip-rule="evenodd" d="M24.5997 19.7471C24.5578 19.595 24.3731 19.5899 24.2548 19.5296C23.7586 19.2772 23.4678 19.4957 22.9474 19.5414C22.7583 19.558 22.5673 19.5437 22.3776 19.5582C22.148 19.5756 21.871 19.7136 21.9349 19.9969C22.0791 20.6349 22.9519 20.2822 23.3498 20.3154C23.5687 20.3338 23.791 20.3734 24.0104 20.394C24.2016 20.4119 24.9791 20.6691 25.178 20.7452C25.5242 20.8776 25.626 21.0859 26.0326 21.0351C26.1387 21.0218 26.381 21.0869 26.4733 21.0236C26.5625 20.9631 26.5959 20.8302 26.6328 20.7375C26.8452 20.2036 26.3845 19.9717 26.408 19.4135C26.4204 19.1165 26.808 18.6696 26.4426 18.4606C25.9889 18.201 25.4852 18.1941 25.1553 18.6254C25.0639 18.7446 25.0235 19.0621 24.9084 19.1415C24.708 19.2793 24.4911 19.1374 24.4075 19.1994" fill="#FDE4AC"/>
<path fill-rule="evenodd" clip-rule="evenodd" d="M24.2937 18.7716C24.1467 18.7827 23.9539 18.7093 23.8032 18.6982C23.4181 18.6697 23.0793 18.9754 23.5725 19.0954C23.7874 19.1479 25.1729 19.0816 24.3041 18.8086" fill="#FDE4AC"/>
<path fill-rule="evenodd" clip-rule="evenodd" d="M25.1481 19.5003C24.9258 19.1878 24.2226 19.14 24.0534 19.5209C23.9408 19.7742 24.2123 20.1148 24.4957 20.0793C24.66 20.0584 24.8318 19.9883 24.9915 19.9437" fill="#FDE4AC"/>
<path fill-rule="evenodd" clip-rule="evenodd" d="M28.5585 12.8119C28.3353 12.5536 26.7035 13.0316 26.5824 13.3254C26.5236 13.4677 26.6588 13.652 26.5587 13.7911C26.4482 13.9445 25.5719 13.7086 25.7268 14.048C26.0799 14.821 27.3497 14.0753 28.0697 14.1223C28.388 14.1433 28.7242 14.3841 29.0529 14.1667C29.4863 13.8803 28.9281 13.1313 28.5815 13.0368" fill="#FDE4AC"/>
<path fill-rule="evenodd" clip-rule="evenodd" d="M28.1242 15.9145C28.0997 15.4329 27.0483 15.308 27.1122 15.9431C27.1266 16.0877 27.3816 16.1973 27.4859 16.2419C27.788 16.3707 28.0805 16.5031 28.4165 16.4755C28.8188 16.4422 28.6314 16.0062 28.3829 15.8843C28.2553 15.822 28.1417 15.733 28.014 15.6745" fill="#FDE4AC"/>
<path fill-rule="evenodd" clip-rule="evenodd" d="M23.8686 22.7431C23.694 22.4535 23.1441 22.4278 22.8504 22.4398C22.8123 22.4413 22.4528 22.5313 22.4886 22.6091C22.5964 22.8426 23.1381 22.9202 23.3447 22.9868C23.6672 23.091 24.9161 24.2378 25.2831 23.6624C25.3264 23.5948 25.0722 23.3936 25.0317 23.3529C24.7618 23.0835 24.2028 22.6378 23.8068 22.6249" fill="#FDE4AC"/>
<path fill-rule="evenodd" clip-rule="evenodd" d="M26.806 22.1915C26.6706 22.189 26.5366 22.1557 26.401 22.1607C26.303 22.1644 25.5598 22.405 25.9719 22.5473C26.1461 22.6073 27.315 22.5719 27.3895 22.4492" fill="#FDE4AC"/>
<path fill-rule="evenodd" clip-rule="evenodd" d="M20.2327 23.1649C19.4533 22.9572 18.6232 22.4278 17.7926 22.6157C17.3457 22.7168 17.2906 23.1773 16.9451 23.3848C16.413 23.7042 15.7293 23.6868 15.1703 23.9723C15.0418 24.0379 14.8008 24.3607 14.9914 24.4885C15.2767 24.6796 15.9594 24.3667 16.2174 24.2571C16.8879 23.9721 18.0327 23.604 18.7738 23.6475C19.1695 23.6706 19.6454 23.9609 19.8574 24.2978C20.172 24.7983 20.0098 25.0618 20.6776 25.3336C20.9741 25.4541 20.6612 24.7414 20.6502 24.6885C20.6003 24.4509 20.7842 24.2119 20.7238 23.9994C20.6619 23.7834 20.3952 23.7079 20.2938 23.5337C20.2466 23.4524 20.263 23.356 20.2036 23.2872" fill="#FDE4AC"/>
<path fill-rule="evenodd" clip-rule="evenodd" d="M19.7023 23.2457C19.5641 23.1278 20.2557 22.8315 20.346 22.794C20.7144 22.6411 21.5562 22.003 21.8568 22.4625C21.9311 22.5759 21.9469 22.7842 21.8965 22.9099C21.6031 23.6458 19.8868 22.9741 19.8645 23.6845" fill="#FDE4AC"/>
<path fill-rule="evenodd" clip-rule="evenodd" d="M22.184 24.1081C22.742 24.0518 23.2462 24.8108 22.9669 24.9219C22.8008 24.9885 22.5943 24.694 22.4814 24.5987C22.204 24.3646 22.0143 24.4844 21.9883 24.1538C21.9786 24.0324 21.9028 23.9644 21.9323 23.8231" fill="#FDE4AC"/>
<path d="M14.1818 13.0611C14.1818 13.1283 14.178 13.1955 14.171 13.2623C14.1639 13.3295 14.1535 13.3959 14.1393 13.4619C14.1256 13.5279 14.1081 13.593 14.0873 13.6578C14.0665 13.7221 14.0424 13.7853 14.0149 13.8476C13.9874 13.9095 13.9566 13.9706 13.9229 14.0296C13.8888 14.0891 13.8521 14.1469 13.8122 14.2027C13.7722 14.2589 13.7298 14.3127 13.684 14.3648C13.6386 14.417 13.5903 14.4666 13.5395 14.5143C13.4888 14.5619 13.4355 14.6072 13.3801 14.6495C13.3248 14.6923 13.2669 14.7326 13.2074 14.7697C13.1474 14.8071 13.0862 14.8417 13.023 14.8735C12.9593 14.9053 12.8948 14.9342 12.8282 14.9599C12.762 14.9855 12.6946 15.0083 12.6259 15.0279C12.5572 15.0474 12.4873 15.0637 12.4169 15.0767C12.3466 15.0898 12.2758 15.0995 12.2042 15.1065C12.1326 15.113 12.061 15.1162 11.9895 15.1162C11.9174 15.1162 11.8459 15.113 11.7743 15.1065C11.7031 15.0995 11.6319 15.0898 11.5616 15.0767C11.4912 15.0637 11.4217 15.0474 11.353 15.0279C11.2843 15.0083 11.2169 14.9855 11.1503 14.9599C11.0841 14.9342 11.0192 14.9053 10.9559 14.8735C10.8927 14.8417 10.8311 14.8071 10.7715 14.7697C10.7116 14.7326 10.6542 14.6923 10.5984 14.6495C10.543 14.6072 10.4897 14.5619 10.439 14.5143C10.3882 14.4666 10.3403 14.417 10.2945 14.3648C10.2492 14.3127 10.2063 14.2589 10.1663 14.2027C10.1268 14.1469 10.0897 14.0891 10.056 14.0296C10.0219 13.9706 9.9915 13.9095 9.96403 13.8476C9.93656 13.7853 9.91242 13.7221 9.89161 13.6578C9.87038 13.593 9.85331 13.5279 9.83916 13.4619C9.82501 13.3959 9.8146 13.3295 9.80753 13.2623C9.80045 13.1955 9.79712 13.1283 9.79712 13.0611C9.79712 12.9935 9.80045 12.9267 9.80753 12.8595C9.8146 12.7927 9.82501 12.7259 9.83916 12.66C9.85331 12.594 9.87038 12.5288 9.89161 12.4645C9.91242 12.4001 9.93656 12.3366 9.96403 12.2747C9.9915 12.2124 10.0219 12.1517 10.056 12.0922C10.0897 12.0328 10.1268 11.9753 10.1663 11.9191C10.2063 11.8633 10.2492 11.8092 10.2945 11.757C10.3403 11.7053 10.3882 11.6552 10.439 11.6076C10.4897 11.5603 10.543 11.5151 10.5984 11.4724C10.6542 11.4296 10.7116 11.3897 10.7715 11.3522C10.8311 11.3147 10.8927 11.2801 10.9559 11.2484C11.0192 11.2166 11.0841 11.1881 11.1503 11.1624C11.2169 11.1364 11.2843 11.114 11.353 11.0944C11.4217 11.0749 11.4912 11.0586 11.5616 11.0451C11.6319 11.0321 11.7031 11.0223 11.7743 11.0158C11.8459 11.0093 11.9174 11.0056 11.9895 11.0056C12.061 11.0056 12.1326 11.0093 12.2042 11.0158C12.2758 11.0223 12.3466 11.0321 12.4169 11.0451C12.4873 11.0586 12.5572 11.0749 12.6259 11.0944C12.6946 11.114 12.762 11.1364 12.8282 11.1624C12.8948 11.1881 12.9593 11.2166 13.023 11.2484C13.0862 11.2801 13.1474 11.3147 13.2074 11.3522C13.2669 11.3897 13.3248 11.4296 13.3801 11.4724C13.4355 11.5151 13.4888 11.5603 13.5395 11.6076C13.5903 11.6552 13.6386 11.7053 13.684 11.757C13.7298 11.8092 13.7722 11.8633 13.8122 11.9191C13.8521 11.9753 13.8888 12.0328 13.9229 12.0922C13.9566 12.1517 13.9874 12.2124 14.0149 12.2747C14.0424 12.3366 14.0665 12.4001 14.0873 12.4645C14.1081 12.5288 14.1256 12.594 14.1393 12.66C14.1535 12.7259 14.1639 12.7927 14.171 12.8595C14.178 12.9267 14.1818 12.9935 14.1818 13.0611Z" fill="#BF4B17"/>
<path fill-rule="evenodd" clip-rule="evenodd" d="M9.79713 13.1981H14.1818C14.0436 14.9557 13.3323 16.9478 12.5886 18.953C11.2609 16.6881 9.79214 14.3008 9.79713 13.1981Z" fill="#BF4B17"/>
<path d="M13.6335 13.198C13.6335 13.3059 13.623 13.4128 13.6016 13.5187C13.5807 13.6246 13.5493 13.7274 13.5085 13.8271C13.4671 13.9273 13.4163 14.0219 13.356 14.1118C13.2963 14.2013 13.228 14.2845 13.1518 14.3606C13.0756 14.4372 12.9924 14.505 12.9028 14.5652C12.8126 14.6253 12.718 14.6757 12.6183 14.7173C12.5187 14.7584 12.4156 14.7898 12.31 14.8109C12.2039 14.8319 12.0968 14.8422 11.9892 14.8422C11.8811 14.8422 11.774 14.8319 11.6684 14.8109C11.5623 14.7898 11.4597 14.7584 11.3596 14.7173C11.26 14.6757 11.1654 14.6253 11.0757 14.5652C10.9855 14.505 10.9029 14.4372 10.8261 14.3606C10.7499 14.2845 10.6817 14.2013 10.6219 14.1118C10.5616 14.0219 10.5113 13.9273 10.47 13.8271C10.4287 13.7274 10.3973 13.6246 10.3764 13.5187C10.3554 13.4128 10.345 13.3059 10.345 13.198C10.345 13.09 10.3554 12.9831 10.3764 12.8772C10.3973 12.7714 10.4287 12.6686 10.47 12.5688C10.5113 12.4691 10.5616 12.3746 10.6219 12.2846C10.6817 12.1952 10.7499 12.1119 10.8261 12.0353C10.9029 11.9592 10.9855 11.8909 11.0757 11.8313C11.1654 11.7711 11.26 11.7202 11.3596 11.6791C11.4597 11.638 11.5623 11.6067 11.6684 11.5856C11.774 11.5645 11.8811 11.5537 11.9892 11.5537C12.0968 11.5537 12.2039 11.5645 12.31 11.5856C12.4156 11.6067 12.5187 11.638 12.6183 11.6791C12.718 11.7202 12.8126 11.7711 12.9028 11.8313C12.9924 11.8909 13.0756 11.9592 13.1518 12.0353C13.228 12.1119 13.2963 12.1952 13.356 12.2846C13.4163 12.3746 13.4671 12.4691 13.5085 12.5688C13.5493 12.6686 13.5807 12.7714 13.6016 12.8772C13.623 12.9831 13.6335 13.09 13.6335 13.198Z" fill="white"/>
</svg>
