<svg width="47" height="47" viewBox="0 0 47 47" fill="none" xmlns="http://www.w3.org/2000/svg">
<path d="M46.9995 23.6518C46.9159 36.6303 36.3269 47.0834 23.3482 46.9998C10.3697 46.9159 -0.0834182 36.3266 0.000501777 23.3482C0.0844217 10.3697 10.6737 -0.0831017 23.6518 0.000497983C36.6303 0.0844179 47.0834 10.6737 46.9995 23.6518Z" fill="#FBC95A"/>
<mask id="mask0_3690_5670" style="mask-type:alpha" maskUnits="userSpaceOnUse" x="9" y="10" width="29" height="26">
<g clip-path="url(#clip0_3690_5670)">
<path d="M10.8336 35.6473C10.7475 35.647 10.6645 35.6149 10.6006 35.5572C10.5366 35.4996 10.4962 35.4203 10.4871 35.3347L9.19442 22.2287L9.19336 22.1959C9.19336 22.003 9.34912 21.8473 9.54196 21.8473H18.2655V35.6483L10.8336 35.6473ZM14.3938 32.1877C14.3938 32.4604 14.4746 32.728 14.6261 32.9547C14.7776 33.1814 14.9929 33.358 15.2448 33.4624C15.4967 33.5667 15.7738 33.594 16.0412 33.5408C16.3086 33.4876 16.5543 33.3564 16.7471 33.1636C16.9398 32.9708 17.0711 32.7251 17.1243 32.4577C17.1775 32.1903 17.1502 31.9132 17.0459 31.6613C16.9415 31.4094 16.7649 31.1941 16.5382 31.0426C16.3115 30.8911 16.0449 30.8103 15.7723 30.8103H15.7702C15.0083 30.8103 14.3917 31.427 14.3906 32.1888L14.3938 32.1877ZM14.9024 23.7111C14.9024 23.9029 15.0581 24.0586 15.251 24.0586H16.0605C16.1527 24.0586 16.2411 24.022 16.3063 23.9568C16.3714 23.8917 16.408 23.8033 16.408 23.7111C16.408 23.6189 16.3714 23.5305 16.3063 23.4653C16.2411 23.4002 16.1527 23.3636 16.0605 23.3636H15.2446C15.1523 23.3638 15.0638 23.4006 14.9984 23.466C14.9331 23.5313 14.8963 23.6198 14.896 23.7122V23.7153L14.9024 23.7111ZM11.0773 23.7111C11.0773 23.9029 11.2331 24.0586 11.4248 24.0586H14.0791C14.1713 24.0586 14.2597 24.022 14.3248 23.9568C14.39 23.8917 14.4266 23.8033 14.4266 23.7111C14.4266 23.6189 14.39 23.5305 14.3248 23.4653C14.2597 23.4002 14.1713 23.3636 14.0791 23.3636H11.4185C11.3265 23.3641 11.2384 23.4009 11.1733 23.466C11.1083 23.531 11.0715 23.6191 11.0709 23.7111V23.7143L11.0773 23.7111ZM21.4612 33.6584C21.2745 33.5952 21.0982 33.5049 20.9378 33.3904L20.9441 33.3946L20.8382 33.3279C20.5913 33.173 20.3476 33.0133 20.107 32.8489L20 32.7737C19.8602 32.673 19.7945 32.6285 19.7224 32.6328L18.9595 32.6434V22.9429L18.9457 22.127C19.4236 21.8229 19.8644 21.5337 19.9969 21.4235C20.177 21.0611 20.355 20.758 20.5521 20.4677L20.5341 20.4963C20.6259 20.355 20.7135 20.2152 20.7968 20.0767L22.6236 17.0103C22.7097 16.8662 22.7994 16.7221 22.8927 16.578C23.0463 16.3491 23.2095 16.0757 23.3589 15.7939L23.3843 15.742C23.4667 15.5704 23.4958 15.3782 23.468 15.1899L23.4691 15.1952L23.4627 11.8893C23.5295 11.4083 23.8007 11.0014 24.1833 10.7535L24.1896 10.7492C24.5306 10.4421 24.9634 10.2559 25.4208 10.2194H25.4283L25.495 10.2184C25.8563 10.2184 26.1975 10.3042 26.5006 10.4557L26.4878 10.4494C26.6902 10.5469 26.8629 10.6507 27.0251 10.7672L27.0145 10.7598L27.1268 10.834C27.3821 10.9686 27.5729 11.1953 27.6576 11.4697L27.6597 11.4772C27.8579 12.2146 28.0391 12.8854 28.2075 13.5582L28.2775 13.8326C28.3845 14.1929 28.4767 14.6284 28.536 15.0744L28.5413 15.1189C28.3601 16.7867 28.0115 18.3083 27.5072 19.7578L27.5517 19.6116L35.703 19.5999H35.7327C35.9796 19.5999 36.2237 19.6525 36.4488 19.7541C36.6739 19.8557 36.8748 20.004 37.0381 20.1892C37.2015 20.3744 37.3235 20.5923 37.3963 20.8283C37.469 21.0642 37.4906 21.313 37.4598 21.558L37.4609 21.5495C37.4839 21.9198 37.4084 22.2895 37.242 22.621C37.0755 22.9525 36.8242 23.2339 36.5136 23.4367L36.5051 23.442C36.8026 23.8767 36.9417 24.4003 36.8993 24.9254V24.918C36.9361 25.3339 36.839 25.7508 36.6223 26.1078C36.4056 26.4648 36.0806 26.7432 35.6945 26.9026L35.6818 26.9068C35.9174 27.3299 36.0274 27.8114 35.9986 28.2948V28.2885C36.0223 28.6508 35.9475 29.0127 35.7822 29.336C35.617 29.6592 35.3674 29.9318 35.0599 30.1247L35.0514 30.13C35.2673 30.6148 35.3493 31.1487 35.2887 31.676L35.2898 31.6622V31.8614C35.2746 32.1224 35.2069 32.3776 35.0908 32.6118C34.9747 32.846 34.8125 33.0544 34.6139 33.2244C34.4154 33.3945 34.1846 33.5227 33.9353 33.6015C33.686 33.6803 33.4234 33.7079 33.1632 33.6828L33.1706 33.6839H28.4777L28.4618 33.6849L28.4449 33.6839H28.446H22.1838C22.1298 33.6839 22.0736 33.6839 22.0143 33.6924C21.9422 33.6966 21.866 33.7029 21.7875 33.7029H21.7717C21.6646 33.7034 21.558 33.6892 21.4548 33.6606L21.4633 33.6627L21.4612 33.6584ZM15.0878 32.1888C15.0879 32.0997 15.1055 32.0114 15.1397 31.9291C15.1738 31.8468 15.2239 31.772 15.287 31.7091C15.35 31.6461 15.4249 31.5962 15.5072 31.5621C15.5896 31.5281 15.6779 31.5106 15.767 31.5107C15.8561 31.5107 15.9444 31.5284 16.0267 31.5625C16.109 31.5967 16.1838 31.6468 16.2467 31.7098C16.3097 31.7729 16.3596 31.8477 16.3937 31.9301C16.4277 32.0125 16.4452 32.1007 16.4451 32.1899C16.445 32.3699 16.3734 32.5424 16.246 32.6696C16.1186 32.7968 15.9459 32.8681 15.7659 32.868C15.586 32.8679 15.4134 32.7962 15.2862 32.6688C15.159 32.5415 15.0877 32.3688 15.0878 32.1888Z" fill="white"/>
</g>
</mask>
<g mask="url(#mask0_3690_5670)">
<rect x="3.06641" y="1.02173" width="50.0652" height="45.9783" fill="white"/>
<rect x="7.15234" y="20.4347" width="11.2391" height="19.413" fill="#FF8B2B"/>
</g>
<defs>
<clipPath id="clip0_3690_5670">
<rect width="28.6087" height="25.43" fill="white" transform="translate(9.19531 10.2174)"/>
</clipPath>
</defs>
</svg>
