<svg width="47" height="47" viewBox="0 0 47 47" fill="none" xmlns="http://www.w3.org/2000/svg">
<path d="M46.9995 23.6518C46.9159 36.6303 36.3269 47.0834 23.3482 46.9998C10.3697 46.9159 -0.0834182 36.3266 0.000501777 23.3482C0.0844217 10.3697 10.6737 -0.0831017 23.6518 0.000497983C36.6303 0.0844179 47.0834 10.6737 46.9995 23.6518Z" fill="#FBC95A"/>
<path d="M23.6762 6L28.4117 8.40423L33.7733 8.79696L36.3793 13.2348L40.6646 16.2998L40.3137 21.3623L42.1623 26.1265L38.9658 30.2063L37.7907 35.1571L32.7636 36.9589L28.9379 40.5244L23.6762 39.4762L18.4145 40.5244L14.5888 36.9589L9.56167 35.1571L8.38658 30.2063L5.1901 26.1265L7.03871 21.3623L6.68773 16.2998L10.9731 13.2348L13.5791 8.79696L18.9407 8.40423L23.6762 6Z" fill="white"/>
<path d="M34.3525 23.0405L33.5884 20.5561C33.5672 20.4861 33.5431 20.4171 33.5165 20.3491C33.4896 20.281 33.4601 20.2142 33.4281 20.1484C33.396 20.0828 33.3613 20.0184 33.324 19.9556C33.2867 19.8927 33.247 19.8314 33.2048 19.7715C33.1627 19.7118 33.1181 19.6538 33.0713 19.5977C33.0245 19.5416 32.9756 19.4873 32.9243 19.4351C32.8732 19.3829 32.8201 19.3327 32.7649 19.2848C32.7097 19.2366 32.6528 19.191 32.5941 19.1475C32.5351 19.104 32.4747 19.063 32.4126 19.0244C32.3505 18.9858 32.2869 18.9498 32.222 18.9163C32.1571 18.8827 32.0909 18.8519 32.0234 18.8236C31.9559 18.7954 31.8874 18.77 31.8179 18.7473C31.7485 18.7245 31.6782 18.7046 31.6071 18.6874C31.5361 18.6703 31.4643 18.6561 31.3921 18.6447C31.3199 18.6333 31.2474 18.625 31.1744 18.6194C31.1015 18.6138 31.0286 18.6112 30.9555 18.6113H15.8669C15.7937 18.6112 15.7206 18.6138 15.6479 18.6194C15.575 18.625 15.5023 18.6333 15.4301 18.6447C15.3579 18.6561 15.2863 18.6705 15.2151 18.6876C15.144 18.7046 15.0737 18.7245 15.0043 18.7473C14.9347 18.77 14.8663 18.7956 14.7988 18.8238C14.7313 18.8521 14.6651 18.8829 14.6002 18.9164C14.5351 18.95 14.4717 18.986 14.4096 19.0246C14.3475 19.0632 14.2869 19.1042 14.2281 19.1477C14.1692 19.1911 14.1123 19.2368 14.0571 19.2849C14.0019 19.3329 13.9487 19.383 13.8976 19.4353C13.8465 19.4877 13.7975 19.5417 13.7507 19.5981C13.7039 19.6542 13.6593 19.7122 13.6172 19.7719C13.575 19.8317 13.5353 19.8929 13.498 19.9559C13.4607 20.0188 13.426 20.0831 13.3939 20.149C13.3617 20.2146 13.3324 20.2814 13.3055 20.3494C13.2787 20.4175 13.2548 20.4865 13.2335 20.5566L12.8294 21.8712C12.8145 21.9202 12.8035 21.9702 12.7968 22.0211C12.7902 22.0719 12.7878 22.123 12.7897 22.1743C12.7915 22.2255 12.7977 22.2763 12.8079 22.3266C12.8184 22.3768 12.8328 22.4258 12.8514 22.4738C12.8701 22.5215 12.8924 22.5674 12.9187 22.6116C12.945 22.6556 12.9747 22.6972 13.0081 22.7361C13.0413 22.7753 13.0774 22.8113 13.1168 22.8443C13.156 22.8773 13.1977 22.9068 13.2419 22.9329L26.7073 30.856C26.7521 30.8823 26.7985 30.9046 26.847 30.9231C26.8955 30.9414 26.9451 30.9557 26.996 30.9656C27.0469 30.9757 27.0982 30.9813 27.15 30.9826C27.2019 30.9839 27.2534 30.9807 27.3047 30.9733C27.3559 30.9658 27.4063 30.9543 27.4555 30.9382C27.505 30.9222 27.5525 30.9022 27.5984 30.8782C27.6444 30.8541 27.6879 30.8263 27.7291 30.795C27.7703 30.7635 27.8088 30.7288 27.844 30.6909L34.1457 23.9372C34.2009 23.878 34.2473 23.8128 34.2852 23.7415C34.3232 23.6703 34.3512 23.5951 34.3693 23.5164C34.3876 23.4377 34.3952 23.3581 34.3922 23.2773C34.3894 23.1966 34.3762 23.1177 34.3525 23.0405Z" fill="#1976D2"/>
<path d="M17.7752 23.4698L14.1728 21.3496C14.143 21.332 14.1124 21.3162 14.0809 21.3022C14.0492 21.2882 14.0169 21.2759 13.9841 21.2655C13.9511 21.255 13.9177 21.2464 13.8837 21.2399C13.8498 21.2332 13.8157 21.2285 13.7812 21.2257C13.7469 21.2229 13.7124 21.222 13.6777 21.2231C13.6432 21.2242 13.6089 21.2272 13.5747 21.2323C13.5404 21.2373 13.5067 21.2442 13.4733 21.253C13.4399 21.2617 13.4071 21.2724 13.3748 21.2848C13.3425 21.2973 13.3112 21.3117 13.2806 21.3277C13.25 21.3438 13.2204 21.3615 13.1918 21.3809C13.1631 21.4003 13.1357 21.4214 13.1096 21.4437C13.0833 21.4663 13.0583 21.4902 13.0348 21.5155C13.0113 21.5407 12.9893 21.5674 12.9688 21.5952C12.9483 21.623 12.9293 21.6519 12.9119 21.6817C12.8948 21.7115 12.8791 21.7425 12.8653 21.7742C12.8515 21.8057 12.8396 21.8382 12.8295 21.8712L11.0093 27.7882C10.9953 27.8335 10.985 27.8797 10.9781 27.9267C10.9714 27.9739 10.9683 28.0211 10.9688 28.0686C10.9694 28.1162 10.9735 28.1636 10.9815 28.2104C10.9893 28.2572 11.0007 28.3033 11.0158 28.3484C11.0307 28.3935 11.0492 28.4372 11.071 28.4795C11.0928 28.5216 11.1176 28.5619 11.1458 28.6003C11.1738 28.6388 11.2047 28.6747 11.2383 28.7083C11.2719 28.7419 11.308 28.7727 11.3465 28.8006C11.3849 28.8286 11.4252 28.8536 11.4675 28.8752C11.5097 28.897 11.5535 28.9153 11.5986 28.9302C11.6437 28.9452 11.6896 28.9565 11.7366 28.9644C11.7834 28.972 11.8308 28.9761 11.8782 28.9767C11.9257 28.977 11.9731 28.9739 12.0201 28.967C12.0671 28.9601 12.1133 28.9496 12.1587 28.9355C12.2042 28.9215 12.2482 28.9039 12.2909 28.8831C12.3336 28.862 12.3744 28.8379 12.4132 28.8107L17.8358 25.0139C17.8671 24.9919 17.897 24.968 17.9255 24.9425C17.9538 24.9168 17.9805 24.8893 18.0055 24.8603C18.0303 24.8313 18.0534 24.8008 18.0747 24.7689C18.0958 24.737 18.1148 24.7038 18.1318 24.6695C18.1489 24.6352 18.1636 24.5999 18.1763 24.5637C18.1888 24.5276 18.1993 24.4908 18.2071 24.4533C18.2151 24.4158 18.2209 24.3782 18.2241 24.3399C18.2274 24.3017 18.2284 24.2635 18.2269 24.2253C18.2252 24.187 18.2215 24.149 18.2151 24.1111C18.209 24.0734 18.2004 24.0362 18.1894 23.9994C18.1786 23.9627 18.1653 23.9269 18.1498 23.8918C18.1345 23.8567 18.117 23.8228 18.0974 23.7898C18.0777 23.757 18.056 23.7255 18.0325 23.6952C18.0089 23.6652 17.9835 23.6365 17.9564 23.6095C17.9292 23.5826 17.9005 23.5574 17.8701 23.5339C17.8399 23.5106 17.8082 23.4892 17.7752 23.4698Z" fill="#689F38"/>
<mask id="mask0_381_21369" style="mask-type:luminance" maskUnits="userSpaceOnUse" x="24" y="22" width="13" height="12">
<path d="M24.0835 22.374H36.5444V33.3089H24.0835V22.374Z" fill="white"/>
</mask>
<g mask="url(#mask0_381_21369)">
<path d="M36.4135 29.742L34.3516 23.0402C34.3458 23.021 34.3392 23.0022 34.3322 22.9834C34.3251 22.9647 34.3172 22.9463 34.309 22.928C34.3006 22.9099 34.2917 22.892 34.2822 22.8743C34.2727 22.8565 34.2628 22.8394 34.2522 22.8224C34.2415 22.8055 34.2303 22.7889 34.2186 22.7726C34.2068 22.7562 34.1945 22.7406 34.1818 22.7251C34.1692 22.7096 34.1559 22.6945 34.1421 22.6799C34.1283 22.6654 34.1141 22.6514 34.0996 22.6376C34.0849 22.624 34.0698 22.6109 34.0543 22.5983C34.0388 22.5856 34.023 22.5735 34.0065 22.5619C33.9903 22.5501 33.9735 22.5391 33.9566 22.5287C33.9396 22.5181 33.9222 22.5082 33.9045 22.4987C33.8868 22.4893 33.8687 22.4806 33.8506 22.4724C33.8324 22.4642 33.8137 22.4565 33.7951 22.4494C33.7762 22.4425 33.7574 22.4362 33.7382 22.4304C33.719 22.4246 33.6996 22.4196 33.6802 22.4149C33.6606 22.4105 33.641 22.4067 33.6212 22.4034C33.6015 22.4002 33.5815 22.3978 33.5616 22.3957C33.5418 22.3939 33.5217 22.3926 33.5017 22.392C33.4817 22.3914 33.4618 22.3914 33.4416 22.3922C33.4217 22.3929 33.4017 22.3942 33.3818 22.3963C33.3618 22.3983 33.3421 22.401 33.3223 22.4043C33.3025 22.4077 33.2829 22.4116 33.2635 22.4162C33.244 22.4207 33.2247 22.4259 33.2055 22.4319C33.1863 22.4377 33.1675 22.4442 33.1487 22.4513C33.13 22.4584 33.1115 22.466 33.0933 22.4744C33.0752 22.4826 33.0573 22.4916 33.0396 22.5011C33.0218 22.5106 33.0047 22.5207 32.9877 22.5313C32.9707 22.5419 32.954 22.5529 32.9377 22.5647C32.9215 22.5764 32.9057 22.5886 32.8902 22.6014C32.8749 22.6141 32.8598 22.6274 32.8452 22.6412C32.8307 22.6548 32.8165 22.6689 32.8029 22.6837L24.3313 31.763C24.3009 31.7956 24.2731 31.8301 24.2478 31.8667C24.2224 31.9032 24.2 31.9415 24.1803 31.9814C24.1603 32.0213 24.1435 32.0623 24.1297 32.1046C24.1159 32.147 24.1053 32.1901 24.0978 32.2339C24.0902 32.2777 24.0859 32.3219 24.0848 32.3665C24.0836 32.4109 24.0857 32.4552 24.0911 32.4994C24.0963 32.5436 24.1049 32.5871 24.1165 32.63C24.1282 32.6731 24.1428 32.7148 24.1605 32.7557C24.1784 32.7965 24.1989 32.8359 24.2224 32.8737C24.2457 32.9114 24.2718 32.9474 24.3005 32.9815C24.3291 33.0155 24.36 33.0472 24.3934 33.0768C24.4266 33.1063 24.4619 33.1333 24.4992 33.1578C24.5363 33.1822 24.5751 33.2036 24.6153 33.2225C24.6558 33.2413 24.6972 33.257 24.7399 33.2697C24.7824 33.2825 24.8257 33.292 24.8697 33.2986C24.9137 33.3049 24.9581 33.3083 25.0025 33.3083H33.7803C33.834 33.3083 33.8877 33.3066 33.9413 33.3034C33.9948 33.3004 34.0483 33.2958 34.1015 33.2894C34.1548 33.2831 34.208 33.2754 34.2607 33.2659C34.3135 33.2566 34.3661 33.2458 34.4183 33.2333C34.4705 33.221 34.5222 33.207 34.5737 33.1915C34.625 33.176 34.6759 33.1591 34.7264 33.1406C34.7768 33.1223 34.8266 33.1024 34.8758 33.0809C34.925 33.0597 34.9735 33.0369 35.0215 33.0127C35.0694 32.9886 35.1166 32.9631 35.163 32.936C35.2094 32.9092 35.2549 32.8808 35.2997 32.8512C35.3445 32.8217 35.3883 32.7907 35.4314 32.7587C35.4743 32.7264 35.5162 32.693 35.5573 32.6583C35.5983 32.6238 35.6382 32.588 35.6772 32.5511C35.7161 32.5142 35.7538 32.4759 35.7906 32.4368C35.8273 32.3976 35.8627 32.3575 35.897 32.3163C35.9314 32.2751 35.9646 32.2328 35.9965 32.1897C36.0283 32.1464 36.0589 32.1024 36.0882 32.0575C36.1175 32.0125 36.1455 31.9666 36.1721 31.92C36.1988 31.8734 36.224 31.8262 36.2478 31.7781C36.2717 31.73 36.2941 31.6813 36.3152 31.6319C36.3362 31.5825 36.3558 31.5325 36.3739 31.482C36.392 31.4314 36.4086 31.3805 36.4237 31.329C36.4388 31.2776 36.4524 31.2255 36.4646 31.1733C36.4765 31.1209 36.4871 31.0683 36.4961 31.0155C36.5052 30.9626 36.5127 30.9094 36.5185 30.8561C36.5244 30.8028 36.5287 30.7492 36.5315 30.6957C36.5343 30.642 36.5356 30.5885 36.5352 30.5348C36.5349 30.4811 36.533 30.4275 36.5295 30.3738C36.5259 30.3203 36.5209 30.267 36.5144 30.2136C36.5078 30.1603 36.4996 30.1073 36.4899 30.0545C36.4802 30.0018 36.469 29.9494 36.4562 29.8971C36.4435 29.8451 36.4291 29.7933 36.4135 29.742Z" fill="#689F38"/>
</g>
<mask id="mask1_381_21369" style="mask-type:luminance" maskUnits="userSpaceOnUse" x="10" y="23" width="19" height="11">
<path d="M10.2856 23.3291H28.0938V33.3092H10.2856V23.3291Z" fill="white"/>
</mask>
<g mask="url(#mask1_381_21369)">
<path d="M27.6376 29.2736L17.7748 23.4707C17.7371 23.4483 17.6979 23.4289 17.6575 23.4123C17.617 23.3957 17.5754 23.3821 17.5331 23.3715C17.4905 23.3609 17.4475 23.3532 17.404 23.3487C17.3606 23.3441 17.3169 23.3428 17.2731 23.3444C17.2293 23.3461 17.186 23.351 17.1429 23.359C17.0998 23.3668 17.0577 23.3778 17.0161 23.3918C16.9747 23.4058 16.9344 23.4226 16.8952 23.4424C16.8563 23.4621 16.8188 23.4845 16.783 23.5097L11.3604 27.3063C11.2767 27.365 11.2047 27.4357 11.1446 27.5183C11.0844 27.6009 11.0393 27.6912 11.0092 27.7889L10.408 29.7428C10.3923 29.7941 10.378 29.8457 10.3653 29.8979C10.3524 29.9502 10.3412 30.0026 10.3315 30.0553C10.3218 30.1081 10.3136 30.1611 10.3071 30.2144C10.3004 30.2677 10.2953 30.3211 10.2918 30.3746C10.2884 30.4283 10.2864 30.4818 10.2862 30.5355C10.2858 30.5893 10.2869 30.6428 10.2897 30.6965C10.2925 30.75 10.2968 30.8035 10.3028 30.8569C10.3088 30.9102 10.3162 30.9634 10.3252 31.0163C10.3341 31.0693 10.3448 31.1219 10.3569 31.1741C10.3688 31.2265 10.3824 31.2783 10.3975 31.3298C10.4126 31.3813 10.4292 31.4324 10.4473 31.4829C10.4654 31.5335 10.485 31.5834 10.5061 31.6329C10.5272 31.6823 10.5495 31.731 10.5734 31.7791C10.5973 31.827 10.6225 31.8744 10.6491 31.921C10.6758 31.9676 10.7038 32.0135 10.733 32.0584C10.7623 32.1034 10.7929 32.1474 10.8248 32.1907C10.8567 32.2337 10.8899 32.2761 10.9242 32.3173C10.9585 32.3585 10.994 32.3988 11.0307 32.4379C11.0674 32.4771 11.1053 32.5152 11.1441 32.5521C11.1831 32.589 11.223 32.6248 11.264 32.6595C11.305 32.694 11.347 32.7276 11.3899 32.7596C11.433 32.7919 11.4768 32.8227 11.5216 32.8523C11.5663 32.882 11.6118 32.9101 11.6583 32.9372C11.7047 32.964 11.7519 32.9896 11.7998 33.0138C11.8477 33.0381 11.8962 33.0608 11.9455 33.0821C11.9947 33.1035 12.0447 33.1233 12.095 33.1418C12.1454 33.1602 12.1963 33.1772 12.2476 33.1927C12.2991 33.2082 12.3509 33.222 12.4031 33.2344C12.4553 33.2469 12.5077 33.2578 12.5607 33.2671C12.6135 33.2764 12.6666 33.2842 12.7198 33.2906C12.7731 33.2967 12.8267 33.3016 12.8802 33.3046C12.9337 33.3077 12.9874 33.3094 13.0409 33.3094H25.0024C25.0654 33.3094 25.1277 33.3029 25.1895 33.2902C25.251 33.2773 25.3107 33.2583 25.3685 33.2331C25.4261 33.2082 25.4808 33.1774 25.5322 33.141C25.5837 33.1047 25.6307 33.0634 25.6738 33.0174L27.8435 30.6918C27.867 30.6667 27.8888 30.6405 27.9093 30.6129C27.9298 30.5853 27.9487 30.5568 27.9658 30.5272C27.9832 30.4975 27.9987 30.4671 28.0126 30.4358C28.0264 30.4043 28.0384 30.3724 28.0486 30.3395C28.0589 30.3069 28.0673 30.2737 28.0738 30.24C28.0803 30.2064 28.085 30.1725 28.0878 30.1383C28.0906 30.104 28.0913 30.0699 28.0902 30.0356C28.0891 30.0013 28.0861 29.9671 28.0811 29.9332C28.0762 29.8992 28.0695 29.8657 28.0608 29.8327C28.052 29.7995 28.0416 29.7668 28.0292 29.7348C28.0169 29.7029 28.0028 29.6715 27.9869 29.6411C27.9712 29.6107 27.9537 29.5813 27.9345 29.5529C27.9155 29.5244 27.8948 29.4972 27.8726 29.4711C27.8504 29.4449 27.8267 29.42 27.8019 29.3965C27.7769 29.373 27.7506 29.351 27.7232 29.3304C27.6958 29.3099 27.6673 29.2909 27.6378 29.2736H27.6376Z" fill="#1976D2"/>
</g>
<mask id="mask2_381_21369" style="mask-type:luminance" maskUnits="userSpaceOnUse" x="10" y="20" width="25" height="14">
<path d="M10.2856 20.75H34.5391V33.3081H10.2856V20.75Z" fill="white"/>
</mask>
<g mask="url(#mask2_381_21369)">
<path d="M34.5037 23.543L25.394 33.3074H22.8869L25.7153 30.276L17.3495 25.3527L10.2876 30.2945C10.3053 30.106 10.3452 29.9223 10.407 29.7434L11.1048 27.4837L15.6139 24.3238L12.6201 22.5602L13.1712 20.7598L27.001 28.8982L33.7598 21.66C33.7962 21.6156 33.8389 21.5788 33.8883 21.5497L34.5037 23.543Z" fill="#FFB300"/>
</g>
<path d="M27.8933 11.3456C27.7404 11.1953 27.5802 11.053 27.4127 10.9189C27.2454 10.7846 27.0716 10.6593 26.8915 10.5427C26.7115 10.4262 26.5259 10.3191 26.335 10.2212C26.1442 10.1235 25.9487 10.0357 25.7488 9.95771C25.5491 9.87975 25.3458 9.81206 25.1391 9.75481C24.9325 9.69737 24.7234 9.65056 24.512 9.61438C24.3005 9.5782 24.0879 9.55284 23.874 9.53829C23.6599 9.52356 23.4458 9.51983 23.2313 9.52691C23.1291 9.53064 23.0271 9.5368 22.9252 9.54538C22.8234 9.55377 22.7218 9.56477 22.6203 9.5782C22.5191 9.59163 22.418 9.60729 22.3175 9.62538C22.2168 9.64366 22.1166 9.66417 22.017 9.68692C21.9174 9.70986 21.8184 9.73504 21.7199 9.76264C21.6215 9.79024 21.5237 9.82008 21.4266 9.85215C21.3296 9.88442 21.2334 9.91892 21.1381 9.95566C21.0426 9.9924 20.948 10.0314 20.8546 10.0726C20.761 10.1138 20.6685 10.1571 20.5769 10.2028C20.4853 10.2483 20.3951 10.296 20.3057 10.3458C20.2164 10.3958 20.1284 10.4476 20.0416 10.5017C19.9547 10.5558 19.8693 10.6117 19.7852 10.6699C19.7009 10.7279 19.6183 10.788 19.537 10.8499C19.4557 10.912 19.3759 10.9758 19.2975 11.0416C19.2192 11.1072 19.1426 11.1747 19.0674 11.2443C18.9922 11.3137 18.9189 11.3847 18.8471 11.4577C18.7753 11.5304 18.7054 11.605 18.6371 11.6811C18.5689 11.7573 18.5025 11.8349 18.438 11.9144C18.3734 11.9936 18.3108 12.0744 18.2502 12.1566C18.1894 12.2389 18.1306 12.3226 18.0739 12.4076C18.017 12.4927 17.9624 12.579 17.9096 12.6667C17.857 12.7543 17.8063 12.8431 17.7578 12.9332C17.7093 13.0232 17.6631 13.1143 17.6189 13.2066C17.5747 13.2987 17.5327 13.3919 17.493 13.4861C17.4531 13.5805 17.4156 13.6756 17.3803 13.7715C17.3451 13.8675 17.3121 13.9643 17.2813 14.0618C17.2507 14.1594 17.2222 14.2574 17.1963 14.3565C17.1702 14.4553 17.1465 14.5547 17.125 14.6547C17.1038 14.7548 17.0848 14.8552 17.0682 14.956C17.0516 15.0569 17.0372 15.1582 17.0254 15.2598C17.0137 15.3615 17.0042 15.4633 16.9971 15.5653C16.9902 15.6673 16.9855 15.7693 16.9833 15.8717C16.9775 16.2203 17.0003 16.567 17.0519 16.9118C17.1034 17.2566 17.1829 17.5949 17.2903 17.9265C17.3979 18.2581 17.5318 18.5786 17.6924 18.8882C17.8529 19.1976 18.0377 19.4917 18.247 19.7707C18.3626 19.9443 21.2576 23.9707 22.1826 25.253C22.1994 25.2763 22.2169 25.299 22.2352 25.3214C22.2533 25.3438 22.2721 25.3656 22.2917 25.3867C22.3111 25.4079 22.3313 25.4286 22.352 25.4486C22.3727 25.4687 22.3939 25.4881 22.4157 25.5068C22.4376 25.5256 22.4599 25.5437 22.4829 25.5612C22.5056 25.5788 22.5291 25.5955 22.553 25.6116C22.5769 25.6276 22.6011 25.6429 22.6259 25.6576C22.6507 25.6724 22.6759 25.6862 22.7016 25.6994C22.7272 25.7127 22.7531 25.725 22.7796 25.7367C22.8059 25.7483 22.8326 25.7591 22.8594 25.7692C22.8865 25.7792 22.9137 25.7886 22.9413 25.797C22.9687 25.8055 22.9965 25.8132 23.0245 25.8201C23.0524 25.8268 23.0806 25.8328 23.1089 25.838C23.1373 25.8432 23.1658 25.8475 23.1944 25.851C23.2229 25.8546 23.2516 25.8572 23.2803 25.8591C23.3091 25.8609 23.3378 25.8619 23.3667 25.862C23.3954 25.862 23.4241 25.8613 23.453 25.8598C23.4818 25.8583 23.5105 25.8559 23.539 25.8525C23.5675 25.8494 23.5961 25.8453 23.6244 25.8402C23.6528 25.8354 23.6811 25.8296 23.7091 25.8231C23.7371 25.8164 23.7649 25.8089 23.7925 25.8007C23.8201 25.7925 23.8475 25.7835 23.8745 25.7736C23.9016 25.7638 23.9284 25.7531 23.9547 25.7418C23.9812 25.7304 24.0073 25.7181 24.033 25.7052C24.0588 25.6923 24.0841 25.6785 24.1089 25.6642C24.1339 25.6496 24.1584 25.6345 24.1824 25.6187C24.2065 25.6028 24.23 25.5862 24.2531 25.5689C24.276 25.5517 24.2986 25.5336 24.3206 25.5152C24.3426 25.4965 24.3641 25.4773 24.385 25.4574C24.4058 25.4376 24.426 25.4171 24.4457 25.396C24.4653 25.3751 24.4844 25.3535 24.5028 25.3313C24.5211 25.3091 24.5388 25.2863 24.556 25.2632C24.5912 25.2166 28.4105 19.9928 28.5593 19.8033C28.7644 19.5268 28.9465 19.2355 29.1054 18.93C29.2642 18.6243 29.3982 18.308 29.5067 17.9811C29.6154 17.6542 29.6977 17.3208 29.7534 16.9808C29.809 16.6408 29.8375 16.2986 29.8388 15.9541C29.8396 15.7399 29.8295 15.526 29.8086 15.3126C29.7879 15.0993 29.7564 14.8874 29.7143 14.6772C29.6719 14.4671 29.6193 14.2595 29.5563 14.0547C29.4931 13.8498 29.42 13.6487 29.3366 13.4512C29.2532 13.2538 29.16 13.0609 29.0572 12.8728C28.9545 12.6848 28.8424 12.5022 28.7214 12.3254C28.6001 12.1486 28.4703 11.9783 28.332 11.8146C28.1936 11.6509 28.0474 11.4946 27.8933 11.3456Z" fill="#F44336"/>
<path d="M26.1656 16.04C26.1656 16.13 26.1611 16.2201 26.1524 16.31C26.1436 16.3999 26.1304 16.489 26.1126 16.5774C26.0951 16.666 26.0731 16.7535 26.047 16.8398C26.0209 16.9262 25.9905 17.011 25.956 17.0944C25.9213 17.1777 25.8829 17.2592 25.8403 17.3389C25.7978 17.4185 25.7514 17.4959 25.7012 17.5709C25.6512 17.6458 25.5975 17.7184 25.5403 17.7881C25.483 17.8579 25.4224 17.9246 25.3586 17.9884C25.2948 18.0522 25.2281 18.1128 25.1583 18.1701C25.0886 18.2273 25.0162 18.281 24.9413 18.3312C24.8663 18.3814 24.7889 18.4276 24.7093 18.4701C24.6298 18.5126 24.5483 18.5512 24.4649 18.5857C24.3816 18.6204 24.2967 18.6506 24.2104 18.6769C24.124 18.7031 24.0366 18.7251 23.9482 18.7426C23.8596 18.7603 23.7704 18.7735 23.6807 18.7823C23.5908 18.7911 23.5009 18.7956 23.4107 18.7956C23.3204 18.7956 23.2303 18.7911 23.1406 18.7823C23.0507 18.7735 22.9616 18.7603 22.8732 18.7426C22.7846 18.7251 22.6973 18.7031 22.611 18.6769C22.5246 18.6506 22.4398 18.6204 22.3564 18.5857C22.2731 18.5512 22.1916 18.5126 22.1119 18.4701C22.0325 18.4276 21.9551 18.3814 21.8801 18.3312C21.8051 18.281 21.7326 18.2273 21.663 18.1701C21.5933 18.1128 21.5263 18.0522 21.4625 17.9884C21.3988 17.9246 21.3383 17.8579 21.2811 17.7881C21.2238 17.7184 21.1701 17.6458 21.12 17.5709C21.0698 17.4959 21.0235 17.4185 20.981 17.3389C20.9385 17.2592 20.8999 17.1777 20.8654 17.0944C20.8309 17.011 20.8005 16.9262 20.7744 16.8398C20.7481 16.7535 20.7263 16.666 20.7087 16.5774C20.691 16.489 20.6778 16.3999 20.669 16.31C20.6601 16.2201 20.6558 16.13 20.6558 16.04C20.6558 15.9497 20.6601 15.8596 20.669 15.7697C20.6778 15.68 20.691 15.5907 20.7087 15.5023C20.7263 15.4137 20.7481 15.3263 20.7744 15.2399C20.8005 15.1536 20.8309 15.0687 20.8654 14.9854C20.8999 14.902 20.9385 14.8205 20.981 14.7409C21.0235 14.6612 21.0698 14.5838 21.12 14.5089C21.1701 14.4339 21.2238 14.3614 21.2811 14.2916C21.3383 14.2219 21.3988 14.1551 21.4625 14.0913C21.5263 14.0275 21.5933 13.9669 21.663 13.9097C21.7326 13.8524 21.8051 13.7987 21.8801 13.7485C21.9551 13.6984 22.0325 13.6521 22.1119 13.6096C22.1916 13.5671 22.2731 13.5285 22.3564 13.494C22.4398 13.4595 22.5246 13.4291 22.611 13.4028C22.6973 13.3767 22.7846 13.3547 22.8732 13.3371C22.9616 13.3194 23.0507 13.3064 23.1406 13.2974C23.2303 13.2887 23.3204 13.2842 23.4107 13.2842C23.5009 13.2842 23.5908 13.2887 23.6807 13.2974C23.7704 13.3064 23.8596 13.3194 23.9482 13.3371C24.0366 13.3547 24.124 13.3767 24.2104 13.4028C24.2967 13.4291 24.3816 13.4595 24.4649 13.494C24.5483 13.5285 24.6298 13.5671 24.7093 13.6096C24.7889 13.6521 24.8663 13.6984 24.9413 13.7485C25.0162 13.7987 25.0886 13.8524 25.1583 13.9097C25.2281 13.9669 25.2948 14.0275 25.3586 14.0913C25.4224 14.1551 25.483 14.2219 25.5403 14.2916C25.5975 14.3614 25.6512 14.4339 25.7012 14.5089C25.7514 14.5838 25.7978 14.6612 25.8403 14.7409C25.8829 14.8205 25.9213 14.902 25.956 14.9854C25.9905 15.0687 26.0209 15.1536 26.047 15.2399C26.0731 15.3263 26.0951 15.4137 26.1126 15.5023C26.1304 15.5907 26.1436 15.68 26.1524 15.7697C26.1611 15.8596 26.1656 15.9497 26.1656 16.04Z" fill="#EEEEEE"/>
</svg>
