<svg width="47" height="46" viewBox="0 0 47 46" fill="none" xmlns="http://www.w3.org/2000/svg">
<mask id="mask0_3690_5780" style="mask-type:alpha" maskUnits="userSpaceOnUse" x="0" y="0" width="47" height="46">
<ellipse cx="23.5" cy="23" rx="23.5" ry="23" fill="#D9D9D9"/>
</mask>
<g mask="url(#mask0_3690_5780)">
<ellipse cx="22.9887" cy="22.5" rx="29.1196" ry="26.5" fill="#FBC95A"/>
</g>
<rect x="11" y="10" width="25" height="24" fill="#FFECC1"/>
<path d="M15 10H33V18L30 19L27 18H24C20.6805 18 18 19.5 15.5 18L15 10Z" fill="white"/>
<mask id="mask1_3690_5780" style="mask-type:alpha" maskUnits="userSpaceOnUse" x="9" y="10" width="30" height="26">
<path d="M9.52014 36C9.40842 35.9989 9.30165 35.9535 9.22305 35.8738C9.14444 35.7941 9.10035 35.6864 9.10036 35.5743V33.6427C9.10036 33.4076 9.29029 33.2169 9.52446 33.2169H10.9781V19.3936C10.9784 19.3038 10.9926 19.2146 11.0201 19.1293L11.018 19.1357C10.2288 18.9117 9.54195 18.4187 9.07554 17.7415L9.06799 17.7296C9.02388 17.6603 9.0003 17.5799 9 17.4978V10.4268C9 10.1918 9.18993 10.0011 9.4241 10H38.5759C38.8101 10 39 10.1907 39 10.4258V17.4967C38.9996 17.5793 38.9756 17.6601 38.9309 17.7296L38.932 17.7274C38.6009 18.1963 38.1677 18.5833 37.6652 18.8589C37.1627 19.1344 36.6043 19.2914 36.0324 19.3177H36.0237V33.2158H37.2011C37.4353 33.2158 37.6252 33.4065 37.6252 33.6416V35.5732C37.6252 35.6861 37.5805 35.7944 37.501 35.8742C37.4214 35.9541 37.3136 35.9989 37.2011 35.9989L9.52014 36ZM34.3295 32.7879V19.3958C34.3295 19.3192 34.3388 19.2463 34.3576 19.1769L34.3565 19.1834C33.7388 19.0262 33.1708 18.7146 32.7054 18.2778L32.7076 18.2799C31.9157 18.994 30.8793 19.3729 29.8155 19.3373H29.8219C28.7511 19.3721 27.7091 18.9848 26.9191 18.2583L26.9223 18.2615C26.1637 18.9575 25.1723 19.3422 24.1446 19.3394L24.0162 19.3373H24.0227C22.9522 19.3698 21.911 18.9828 21.1198 18.2583L21.123 18.2615C20.3641 18.9578 19.3724 19.3425 18.3442 19.3394L18.2061 19.3373H18.2126C17.1417 19.3721 16.0998 18.9848 15.3097 18.2583L15.3129 18.2615C14.594 18.929 13.6578 19.3114 12.6788 19.3373H12.6734V32.789H13.9209V27.0983C13.9209 26.8632 14.1108 26.6725 14.345 26.6725H19.364C19.5982 26.6725 19.7881 26.8632 19.7881 27.0983V32.789L34.3295 32.7879ZM29.8219 18.4858C30.2578 18.5015 30.6923 18.4296 31.1 18.2743C31.5078 18.1189 31.8804 17.8833 32.196 17.5812L32.195 17.5823C32.1886 17.5527 32.1854 17.5226 32.1853 17.4923V10.8526H27.4263V17.4967L27.4273 17.5259L27.4263 17.5563C28.0373 18.1546 28.8572 18.4883 29.7108 18.4879L29.8295 18.4858H29.8241H29.8219ZM18.2126 18.4858L18.327 18.4879C19.2162 18.4879 20.0223 18.1326 20.6126 17.5552L20.6115 17.5563L20.6104 17.527L20.6115 17.4967V10.8537H15.8115V17.4978L15.8126 17.527L15.8115 17.5573C16.4226 18.1557 17.2424 18.4894 18.096 18.489L18.2169 18.4868H18.2115L18.2126 18.4858ZM21.313 29.8553C21.2573 29.8553 21.2021 29.8443 21.1507 29.8229C21.0992 29.8015 21.0524 29.7702 21.0131 29.7306C20.9737 29.6911 20.9424 29.6442 20.9211 29.5925C20.8998 29.5409 20.8888 29.4855 20.8888 29.4296V22.0402C20.8888 21.8051 21.0788 21.6144 21.313 21.6144H33.1932C33.4273 21.6144 33.6173 21.8051 33.6173 22.0402V29.4307C33.6173 29.5436 33.5726 29.6519 33.4931 29.7317C33.4135 29.8116 33.3056 29.8564 33.1932 29.8564H33.1921L21.313 29.8553Z" fill="#FF8B2B"/>
</mask>
<g mask="url(#mask1_3690_5780)">
<rect x="8" y="8" width="32" height="29" fill="#FF8B2B"/>
<path d="M13 20H20V32.7765H13V20Z" fill="#BF4B17"/>
</g>
<path d="M29.8052 24.6667H29.0822L28.9282 23.6958C28.8971 23.5489 28.8289 23.4137 28.7309 23.3044C28.6328 23.195 28.5085 23.1158 28.3711 23.075C28.2331 23.0284 28.0894 23.0031 27.9444 23H27.0595C26.9146 23.0031 26.7709 23.0284 26.6328 23.075C26.4955 23.1158 26.3712 23.195 26.2731 23.3044C26.175 23.4137 26.1068 23.5489 26.0758 23.6958L25.9217 24.6667H25.1987C25.1676 24.6665 25.1369 24.674 25.1091 24.6887C25.0813 24.7034 25.0571 24.7248 25.0386 24.7512C25.0201 24.7776 25.0078 24.8083 25.0027 24.8406C24.9976 24.873 24.9998 24.9062 25.0091 24.9375L25.7518 27.5625C25.7896 27.6893 25.8648 27.8001 25.9664 27.8788C26.068 27.9575 26.1907 27.9999 26.3168 28H28.6872C28.8125 27.999 28.9344 27.9562 29.0352 27.8776C29.136 27.7989 29.2106 27.6886 29.2482 27.5625L29.9909 24.9375C30.0001 24.9065 30.0024 24.8737 29.9975 24.8417C29.9925 24.8096 29.9806 24.7792 29.9625 24.7529C29.9445 24.7266 29.9209 24.7051 29.8936 24.6901C29.8663 24.6752 29.836 24.6671 29.8052 24.6667ZM26.3247 24.6667L26.4669 23.7625C26.4825 23.6887 26.5187 23.6215 26.5708 23.5695C26.6228 23.5175 26.6885 23.4832 26.7592 23.4708C26.8564 23.4383 26.9576 23.4204 27.0595 23.4167H27.9444C28.048 23.4203 28.1494 23.4383 28.2486 23.4708C28.3194 23.4832 28.385 23.5175 28.4371 23.5695C28.4892 23.6215 28.5254 23.6887 28.541 23.7625L28.6793 24.6667H26.3089H26.3247Z" fill="#FBC95A"/>
</svg>
