<svg width="47" height="47" viewBox="0 0 47 47" fill="none" xmlns="http://www.w3.org/2000/svg">
<mask id="mask0_3690_5679" style="mask-type:alpha" maskUnits="userSpaceOnUse" x="0" y="0" width="47" height="47">
<circle cx="23.5" cy="23.5" r="23.5" fill="#D9D9D9"/>
</mask>
<g mask="url(#mask0_3690_5679)">
<circle cx="23.5" cy="23.5" r="23.5" fill="#FBC95A"/>
<mask id="mask1_3690_5679" style="mask-type:luminance" maskUnits="userSpaceOnUse" x="4" y="13" width="39" height="18">
<path d="M4.79297 13.2826H42.9151V30.7985H4.79297V13.2826Z" fill="white"/>
</mask>
<g mask="url(#mask1_3690_5679)">
<path d="M9.74357 30.5661C7.67306 31.1252 5.71372 30.6229 5.05244 29.6182C4.64606 29.0024 4.81502 28.3299 4.94441 27.9807C5.07745 26.8085 5.20684 25.6337 5.33987 24.4615C5.37216 24.2459 5.70304 22.2989 7.88863 21.3482C8.7298 20.9822 9.56029 20.8885 10.175 20.8798C10.5056 20.8771 11.4655 20.8572 11.8753 20.7154C12.17 20.613 12.4936 20.4599 12.7992 20.2272C13.2665 19.8725 13.511 19.4637 13.6404 19.1231C13.7698 18.7825 15.3407 17.057 15.9483 16.6314C18.1842 15.0703 21.9984 13.1093 26.8728 13.3364C31.6863 13.5633 37.4956 15.9247 37.7833 18.4193C37.8588 19.0834 37.5638 19.9008 38.2183 20.8317C38.8796 21.7682 40.0839 22.2308 40.9467 22.4692C41.3349 22.7105 42.018 23.21 42.4744 24.0188C42.7907 24.5778 42.8842 25.083 42.9094 25.4265C42.9094 26.4795 42.9094 27.5324 42.9094 28.5852C42.8017 28.957 42.5931 29.3771 42.187 29.7489C41.2091 30.6457 39.4547 30.9408 37.6719 30.5661C28.3649 30.5661 19.0542 30.5661 9.74357 30.5661Z" fill="#FF8B2B"/>
</g>
<mask id="mask2_3690_5679" style="mask-type:luminance" maskUnits="userSpaceOnUse" x="9" y="27" width="10" height="8">
<path d="M9.63867 27.0695H18.5257V34.0459H9.63867V27.0695Z" fill="white"/>
</mask>
<g mask="url(#mask2_3690_5679)">
<path d="M18.4993 30.5889C18.4993 30.6456 18.4976 30.7025 18.4942 30.7593C18.4906 30.816 18.4853 30.8727 18.4782 30.9293C18.4712 30.986 18.4624 31.0423 18.4517 31.0985C18.4413 31.1548 18.4289 31.2108 18.4148 31.2666C18.4008 31.3224 18.385 31.3777 18.3675 31.4329C18.35 31.4881 18.3309 31.5428 18.31 31.5972C18.2891 31.6516 18.2665 31.7057 18.2422 31.7591C18.218 31.8126 18.192 31.8657 18.1646 31.9182C18.1369 31.9707 18.1078 32.0227 18.0769 32.074C18.0461 32.1254 18.0138 32.1762 17.9798 32.2264C17.9458 32.2764 17.9104 32.3259 17.8735 32.3747C17.8363 32.4234 17.798 32.4715 17.7579 32.5187C17.7179 32.566 17.6764 32.6126 17.6336 32.6582C17.5907 32.7038 17.5462 32.7487 17.5006 32.7926C17.455 32.8364 17.4079 32.8796 17.3596 32.9217C17.3113 32.9639 17.2615 33.0049 17.2108 33.0452C17.1598 33.0854 17.1076 33.1245 17.0542 33.1628C17.001 33.201 16.9464 33.238 16.8908 33.2742C16.8352 33.3102 16.7784 33.3451 16.7204 33.379C16.6626 33.4129 16.6038 33.4455 16.5439 33.4771C16.4839 33.5088 16.4232 33.5392 16.3616 33.5684C16.2997 33.5977 16.237 33.6257 16.1734 33.6525C16.1101 33.6792 16.0457 33.7048 15.9807 33.7292C15.9156 33.7533 15.8498 33.7765 15.7833 33.7982C15.7168 33.82 15.6496 33.8403 15.5818 33.8595C15.5138 33.8787 15.4456 33.8965 15.3767 33.913C15.3077 33.9295 15.2383 33.9448 15.1684 33.9586C15.0987 33.9724 15.0283 33.9848 14.9577 33.996C14.887 34.0069 14.8161 34.0167 14.745 34.0251C14.6736 34.0333 14.6023 34.0402 14.5307 34.046C14.459 34.0515 14.3872 34.0556 14.3153 34.0584C14.2432 34.0613 14.1714 34.0627 14.0993 34.0627C14.0274 34.0627 13.9553 34.0613 13.8835 34.0584C13.8116 34.0556 13.7397 34.0515 13.6681 34.046C13.5965 34.0402 13.5249 34.0333 13.4538 34.0251C13.3824 34.0167 13.3115 34.0069 13.2409 33.996C13.1702 33.9848 13.1001 33.9724 13.0302 33.9586C12.9605 33.9448 12.891 33.9295 12.8221 33.913C12.7532 33.8965 12.6849 33.8787 12.617 33.8595C12.5492 33.8403 12.482 33.82 12.4155 33.7982C12.349 33.7765 12.2832 33.7533 12.2181 33.7292C12.1531 33.7048 12.0887 33.6792 12.0251 33.6525C11.9618 33.6257 11.8991 33.5977 11.8372 33.5684C11.7756 33.5392 11.7146 33.5088 11.6549 33.4771C11.5949 33.4455 11.5362 33.4129 11.4782 33.379C11.4204 33.3451 11.3636 33.3102 11.308 33.2742C11.2524 33.238 11.1978 33.201 11.1444 33.1628C11.0912 33.1245 11.039 33.0854 10.988 33.0452C10.9371 33.0049 10.8875 32.9639 10.8392 32.9217C10.7907 32.8796 10.7438 32.8364 10.6982 32.7926C10.6523 32.7487 10.6081 32.7038 10.5651 32.6582C10.5224 32.6126 10.4809 32.566 10.4409 32.5187C10.4008 32.4715 10.3624 32.4234 10.3253 32.3747C10.2884 32.3259 10.2527 32.2764 10.219 32.2264C10.185 32.1762 10.1525 32.1254 10.1219 32.074C10.091 32.0227 10.0619 31.9707 10.0342 31.9182C10.0068 31.8657 9.98082 31.8126 9.95655 31.7591C9.93227 31.7057 9.90969 31.6516 9.88882 31.5972C9.86794 31.5428 9.84876 31.4881 9.83128 31.4329C9.81356 31.3777 9.79778 31.3224 9.78394 31.2666C9.76986 31.2108 9.75748 31.1548 9.74704 31.0985C9.73636 31.0423 9.72762 30.986 9.72058 30.9293C9.71354 30.8727 9.7082 30.816 9.70456 30.7593C9.70116 30.7025 9.69922 30.6456 9.69922 30.5889C9.69922 30.532 9.70116 30.4752 9.70456 30.4183C9.7082 30.3616 9.71354 30.3049 9.72058 30.2483C9.72762 30.1918 9.73636 30.1354 9.74704 30.0791C9.75748 30.0229 9.76986 29.967 9.78394 29.9112C9.79778 29.8554 9.81356 29.7998 9.83128 29.7448C9.84876 29.6896 9.86794 29.6348 9.88882 29.5804C9.90969 29.526 9.93227 29.4721 9.95655 29.4186C9.98082 29.365 10.0068 29.3121 10.0342 29.2596C10.0619 29.207 10.091 29.1549 10.1219 29.1035C10.1525 29.0522 10.185 29.0014 10.219 28.9514C10.2527 28.9012 10.2884 28.8517 10.3253 28.803C10.3624 28.7542 10.4008 28.7062 10.4409 28.6589C10.4809 28.6116 10.5224 28.5652 10.5651 28.5196C10.6081 28.4738 10.6523 28.4291 10.6982 28.385C10.7438 28.3411 10.7907 28.2982 10.8392 28.256C10.8875 28.2139 10.9371 28.1727 10.988 28.1324C11.039 28.0924 11.0912 28.0531 11.1444 28.0149C11.1978 27.9768 11.2524 27.9396 11.308 27.9036C11.3636 27.8676 11.4204 27.8325 11.4782 27.7988C11.5362 27.7648 11.5949 27.7321 11.6549 27.7004C11.7146 27.669 11.7756 27.6385 11.8372 27.6092C11.8991 27.5801 11.9618 27.5521 12.0251 27.5253C12.0887 27.4984 12.1531 27.4729 12.2181 27.4486C12.2832 27.4243 12.349 27.4013 12.4155 27.3794C12.482 27.3577 12.5492 27.3372 12.617 27.3181C12.6849 27.2989 12.7532 27.2811 12.8221 27.2646C12.891 27.2481 12.9605 27.233 13.0302 27.2192C13.1001 27.2054 13.1702 27.1929 13.2409 27.1818C13.3115 27.1707 13.3824 27.1609 13.4538 27.1527C13.5249 27.1442 13.5965 27.1373 13.6681 27.1318C13.7397 27.1262 13.8116 27.122 13.8835 27.1193C13.9553 27.1165 14.0274 27.1151 14.0993 27.1151C14.1714 27.1151 14.2432 27.1165 14.3153 27.1193C14.3872 27.122 14.459 27.1262 14.5307 27.1318C14.6023 27.1373 14.6736 27.1442 14.745 27.1527C14.8161 27.1609 14.887 27.1707 14.9577 27.1818C15.0283 27.1929 15.0987 27.2054 15.1684 27.2192C15.2383 27.233 15.3077 27.2481 15.3767 27.2646C15.4456 27.2811 15.5138 27.2989 15.5818 27.3181C15.6496 27.3372 15.7168 27.3577 15.7833 27.3794C15.8498 27.4013 15.9156 27.4243 15.9807 27.4486C16.0457 27.4729 16.1101 27.4984 16.1734 27.5253C16.237 27.5521 16.2997 27.5801 16.3616 27.6092C16.4232 27.6385 16.4839 27.669 16.5439 27.7004C16.6038 27.7321 16.6626 27.7648 16.7204 27.7988C16.7784 27.8325 16.8352 27.8676 16.8908 27.9036C16.9464 27.9396 17.001 27.9768 17.0542 28.0149C17.1076 28.0531 17.1598 28.0924 17.2108 28.1324C17.2615 28.1727 17.3113 28.2139 17.3596 28.256C17.4079 28.298 17.455 28.3411 17.5006 28.385C17.5462 28.4291 17.5907 28.4738 17.6336 28.5196C17.6764 28.5652 17.7179 28.6116 17.7579 28.6589C17.798 28.7062 17.8363 28.7542 17.8735 28.803C17.9104 28.8517 17.9458 28.9012 17.9798 28.9514C18.0138 29.0014 18.0461 29.0522 18.0769 29.1035C18.1078 29.1549 18.1369 29.207 18.1646 29.2596C18.192 29.3121 18.218 29.365 18.2422 29.4186C18.2665 29.4721 18.2891 29.526 18.31 29.5804C18.3309 29.6348 18.35 29.6896 18.3675 29.7448C18.385 29.7998 18.4008 29.8554 18.4148 29.9112C18.4289 29.967 18.4413 30.0229 18.4517 30.0791C18.4624 30.1354 18.4712 30.1918 18.4782 30.2483C18.4853 30.3049 18.4906 30.3616 18.4942 30.4183C18.4976 30.4752 18.4993 30.532 18.4993 30.5889Z" fill="#BF4B17"/>
</g>
<mask id="mask3_3690_5679" style="mask-type:luminance" maskUnits="userSpaceOnUse" x="28" y="27" width="10" height="8">
<path d="M28.2832 27.0695H37.1702V34.0459H28.2832V27.0695Z" fill="white"/>
</mask>
<g mask="url(#mask3_3690_5679)">
<path d="M37.1263 30.5889C37.1263 30.6456 37.1243 30.7025 37.1209 30.7593C37.1173 30.816 37.112 30.8727 37.1049 30.9293C37.0979 30.986 37.0891 31.0423 37.0787 31.0985C37.068 31.1548 37.0556 31.2108 37.0416 31.2666C37.0277 31.3224 37.0119 31.3777 36.9942 31.4329C36.9767 31.4881 36.9576 31.5428 36.9367 31.5972C36.9158 31.6516 36.8932 31.7057 36.869 31.7591C36.8447 31.8126 36.8187 31.8657 36.7913 31.9182C36.7636 31.9707 36.7345 32.0227 36.7036 32.074C36.673 32.1254 36.6405 32.1762 36.6065 32.2264C36.5728 32.2764 36.5371 32.3259 36.5002 32.3747C36.4631 32.4234 36.4247 32.4715 36.3846 32.5187C36.3446 32.566 36.3031 32.6126 36.2604 32.6582C36.2174 32.7038 36.1732 32.7487 36.1273 32.7926C36.0817 32.8364 36.0348 32.8796 35.9863 32.9217C35.938 32.9639 35.8884 33.0049 35.8375 33.0452C35.7865 33.0854 35.7343 33.1245 35.6811 33.1628C35.6277 33.201 35.5731 33.238 35.5175 33.2742C35.4619 33.3102 35.4051 33.3451 35.3473 33.379C35.2893 33.4129 35.2306 33.4455 35.1706 33.4771C35.1109 33.5088 35.0499 33.5392 34.9883 33.5684C34.9264 33.5977 34.8637 33.6257 34.8004 33.6525C34.7368 33.6792 34.6724 33.7048 34.6074 33.7292C34.5423 33.7533 34.4765 33.7765 34.41 33.7982C34.3435 33.82 34.2763 33.8403 34.2085 33.8595C34.1406 33.8787 34.0723 33.8965 34.0034 33.913C33.9345 33.9295 33.865 33.9448 33.7954 33.9586C33.7254 33.9724 33.6553 33.9848 33.5846 33.996C33.514 34.0069 33.4431 34.0167 33.3717 34.0251C33.3006 34.0333 33.229 34.0402 33.1574 34.046C33.0858 34.0515 33.0139 34.0556 32.942 34.0584C32.8702 34.0613 32.7981 34.0627 32.7262 34.0627C32.6541 34.0627 32.5823 34.0613 32.5102 34.0584C32.4383 34.0556 32.3665 34.0515 32.2948 34.046C32.2232 34.0402 32.1519 34.0333 32.0805 34.0251C32.0094 34.0167 31.9385 34.0069 31.8678 33.996C31.7972 33.9848 31.7268 33.9724 31.6571 33.9586C31.5872 33.9448 31.5178 33.9295 31.4488 33.913C31.3799 33.8965 31.3117 33.8787 31.2437 33.8595C31.176 33.8403 31.1089 33.82 31.0422 33.7982C30.9757 33.7765 30.9099 33.7533 30.8448 33.7292C30.7798 33.7048 30.7154 33.6792 30.6521 33.6525C30.5885 33.6257 30.5258 33.5977 30.4639 33.5684C30.4023 33.5392 30.3416 33.5088 30.2816 33.4771C30.2217 33.4455 30.1629 33.4129 30.1051 33.379C30.0471 33.3451 29.9905 33.3102 29.9347 33.2742C29.8791 33.238 29.8245 33.201 29.7713 33.1628C29.7179 33.1245 29.6657 33.0854 29.6148 33.0452C29.564 33.0049 29.5142 32.9639 29.4659 32.9217C29.4176 32.8796 29.3705 32.8364 29.3249 32.7926C29.2793 32.7487 29.2348 32.7038 29.1919 32.6582C29.1491 32.6126 29.1076 32.566 29.0676 32.5187C29.0275 32.4715 28.9892 32.4234 28.952 32.3747C28.9151 32.3259 28.8797 32.2764 28.8457 32.2264C28.8117 32.1762 28.7794 32.1254 28.7486 32.074C28.7177 32.0227 28.6886 31.9707 28.6609 31.9182C28.6335 31.8657 28.6075 31.8126 28.5833 31.7591C28.559 31.7057 28.5364 31.6516 28.5155 31.5972C28.4946 31.5428 28.4755 31.4881 28.458 31.4329C28.4405 31.3777 28.4247 31.3224 28.4107 31.2666C28.3966 31.2108 28.3842 31.1548 28.3738 31.0985C28.3631 31.0423 28.3543 30.986 28.3473 30.9293C28.3403 30.8727 28.3349 30.816 28.3313 30.7593C28.3279 30.7025 28.3262 30.6456 28.3262 30.5889C28.3262 30.532 28.3279 30.4752 28.3313 30.4183C28.3349 30.3616 28.3403 30.3049 28.3473 30.2483C28.3543 30.1918 28.3631 30.1354 28.3738 30.0791C28.3842 30.0229 28.3966 29.967 28.4107 29.9112C28.4247 29.8554 28.4405 29.7998 28.458 29.7448C28.4755 29.6896 28.4946 29.6348 28.5155 29.5804C28.5364 29.526 28.559 29.4721 28.5833 29.4186C28.6075 29.365 28.6335 29.3121 28.6609 29.2596C28.6886 29.207 28.7177 29.1549 28.7486 29.1035C28.7794 29.0522 28.8117 29.0014 28.8457 28.9514C28.8797 28.9012 28.9151 28.8517 28.952 28.803C28.9892 28.7542 29.0275 28.7062 29.0676 28.6589C29.1076 28.6116 29.1491 28.5652 29.1919 28.5196C29.2348 28.4738 29.2793 28.4291 29.3249 28.385C29.3705 28.3411 29.4176 28.2982 29.4659 28.256C29.5142 28.2139 29.564 28.1727 29.6148 28.1324C29.6657 28.0924 29.7179 28.0531 29.7713 28.0149C29.8245 27.9768 29.8791 27.9396 29.9347 27.9036C29.9905 27.8676 30.0471 27.8325 30.1051 27.7988C30.1629 27.7648 30.2217 27.7321 30.2816 27.7004C30.3416 27.669 30.4023 27.6385 30.4639 27.6092C30.5258 27.5801 30.5885 27.5521 30.6521 27.5253C30.7154 27.4984 30.7798 27.4729 30.8448 27.4486C30.9099 27.4243 30.9757 27.4013 31.0422 27.3794C31.1089 27.3577 31.176 27.3372 31.2437 27.3181C31.3117 27.2989 31.3799 27.2811 31.4488 27.2646C31.5178 27.2481 31.5872 27.233 31.6571 27.2192C31.7268 27.2054 31.7972 27.1929 31.8678 27.1818C31.9385 27.1707 32.0094 27.1609 32.0805 27.1527C32.1519 27.1442 32.2232 27.1373 32.2948 27.1318C32.3665 27.1262 32.4383 27.122 32.5102 27.1193C32.5823 27.1165 32.6541 27.1151 32.7262 27.1151C32.7981 27.1151 32.8702 27.1165 32.942 27.1193C33.0139 27.122 33.0858 27.1262 33.1574 27.1318C33.229 27.1373 33.3006 27.1442 33.3717 27.1527C33.4431 27.1609 33.514 27.1707 33.5846 27.1818C33.6553 27.1929 33.7254 27.2054 33.7954 27.2192C33.865 27.233 33.9345 27.2481 34.0034 27.2646C34.0723 27.2811 34.1406 27.2989 34.2085 27.3181C34.2763 27.3372 34.3435 27.3577 34.41 27.3794C34.4765 27.4013 34.5423 27.4243 34.6074 27.4486C34.6724 27.4729 34.7368 27.4984 34.8004 27.5253C34.8637 27.5521 34.9264 27.5801 34.9883 27.6092C35.0499 27.6385 35.1109 27.669 35.1706 27.7004C35.2306 27.7321 35.2893 27.7648 35.3473 27.7988C35.4051 27.8325 35.4619 27.8676 35.5175 27.9036C35.5731 27.9396 35.6277 27.9768 35.6811 28.0149C35.7343 28.0531 35.7865 28.0924 35.8375 28.1324C35.8884 28.1727 35.938 28.2139 35.9863 28.256C36.0348 28.298 36.0817 28.3411 36.1273 28.385C36.1732 28.4291 36.2174 28.4738 36.2604 28.5196C36.3031 28.5652 36.3446 28.6116 36.3846 28.6589C36.4247 28.7062 36.4631 28.7542 36.5002 28.803C36.5371 28.8517 36.5728 28.9012 36.6065 28.9514C36.6405 29.0014 36.673 29.0522 36.7036 29.1035C36.7345 29.1549 36.7636 29.207 36.7913 29.2596C36.8187 29.3121 36.8447 29.365 36.869 29.4186C36.8932 29.4721 36.9158 29.526 36.9367 29.5804C36.9576 29.6348 36.9767 29.6896 36.9942 29.7448C37.0119 29.7998 37.0277 29.8554 37.0416 29.9112C37.0556 29.967 37.068 30.0229 37.0785 30.0791C37.0891 30.1354 37.0979 30.1918 37.1049 30.2483C37.112 30.3049 37.1173 30.3616 37.1209 30.4183C37.1243 30.4752 37.1263 30.532 37.1263 30.5889Z" fill="#BF4B17"/>
</g>
<path d="M23.9609 15.6752C21.8076 15.5218 18.4247 17.5453 18.4247 17.5453C16.6705 18.6238 15.7538 19.8556 15.2829 20.7182C15.1032 21.0475 15.6065 21.5157 15.6065 21.5157H24.838C24.9062 20.6956 24.9531 19.8611 24.9817 19.0182C25.0106 18.164 24.9458 17.3098 25.0106 16.4585C25.0176 16.3732 25.0356 16.1376 24.8273 15.9475C24.5719 15.7177 24.1262 15.6865 23.9609 15.6752Z" fill="white"/>
<path d="M33.4934 17.4573C33.4934 17.4573 31.3042 16.1745 27.3642 15.6097C27.0658 15.5672 26.7422 15.553 26.5483 15.6835C26.39 15.7914 26.3793 15.9587 26.3863 16.0553V21.5101C29.2334 21.5555 32.0769 21.6038 34.924 21.649C35.1289 21.6519 35.8048 21.4901 35.9378 21.3851C36.2075 21.1695 36.4556 20.8914 36.5418 20.5537C36.8329 19.4156 34.9888 18.5045 33.4934 17.4573Z" fill="white"/>
<path d="M16.2985 30.589C16.2985 30.646 16.2949 30.7027 16.2878 30.7592C16.2808 30.8158 16.2703 30.8721 16.2563 30.9279C16.2422 30.9837 16.2247 31.0387 16.2038 31.0931C16.1829 31.1475 16.1587 31.2012 16.131 31.2537C16.1033 31.3062 16.0727 31.3576 16.0387 31.4078C16.0048 31.458 15.9679 31.5067 15.9278 31.554C15.8877 31.6012 15.8448 31.647 15.7991 31.6909C15.7535 31.7348 15.7049 31.7769 15.6542 31.8172C15.6032 31.8574 15.5498 31.8956 15.4942 31.9316C15.4384 31.9676 15.3806 32.0015 15.3206 32.0332C15.2607 32.0648 15.199 32.0939 15.1354 32.1208C15.0721 32.1476 15.007 32.1719 14.9402 32.1936C14.8737 32.2154 14.806 32.2346 14.7371 32.2511C14.6681 32.2676 14.5984 32.2814 14.5275 32.2925C14.4569 32.3036 14.3858 32.312 14.3142 32.3176C14.2423 32.3231 14.1704 32.3258 14.0983 32.3258C14.0265 32.3258 13.9544 32.3231 13.8828 32.3176C13.8112 32.312 13.7398 32.3036 13.6691 32.2925C13.5985 32.2814 13.5288 32.2676 13.4599 32.2511C13.3909 32.2346 13.3232 32.2154 13.2564 32.1936C13.1899 32.1719 13.1249 32.1476 13.0613 32.1208C12.9979 32.0939 12.936 32.0648 12.8763 32.0332C12.8163 32.0015 12.7585 31.9676 12.7027 31.9316C12.6471 31.8956 12.5937 31.8574 12.5427 31.8172C12.4917 31.7769 12.4434 31.7348 12.3978 31.6909C12.3522 31.647 12.3092 31.6012 12.2691 31.554C12.2291 31.5067 12.1922 31.458 12.1582 31.4078C12.1242 31.3576 12.0934 31.3062 12.0659 31.2537C12.0383 31.2012 12.014 31.1475 11.9931 31.0931C11.9722 31.0387 11.9548 30.9837 11.9407 30.9279C11.9266 30.8721 11.9162 30.8158 11.9091 30.7592C11.9018 30.7027 11.8984 30.646 11.8984 30.589C11.8984 30.5321 11.9018 30.4754 11.9091 30.4187C11.9162 30.3621 11.9266 30.306 11.9407 30.2502C11.9548 30.1944 11.9722 30.1392 11.9931 30.0848C12.014 30.0304 12.0383 29.9769 12.0659 29.9244C12.0934 29.8717 12.1242 29.8203 12.1582 29.7703C12.1922 29.7201 12.2291 29.6714 12.2691 29.624C12.3092 29.5767 12.3522 29.5311 12.3978 29.4872C12.4434 29.4431 12.4917 29.401 12.5427 29.3609C12.5937 29.3207 12.6471 29.2825 12.7027 29.2463C12.7585 29.2103 12.8163 29.1763 12.8763 29.1449C12.936 29.1133 12.9979 29.084 13.0613 29.0571C13.1249 29.0303 13.1899 29.0061 13.2564 28.9843C13.3232 28.9624 13.3909 28.9435 13.4599 28.9268C13.5288 28.9103 13.5985 28.8965 13.6691 28.8854C13.7398 28.8743 13.8112 28.866 13.8828 28.8605C13.9544 28.8549 14.0265 28.8521 14.0983 28.8521C14.1704 28.8521 14.2423 28.8549 14.3142 28.8605C14.3858 28.866 14.4569 28.8743 14.5275 28.8854C14.5984 28.8965 14.6681 28.9103 14.7371 28.9268C14.806 28.9435 14.8737 28.9624 14.9402 28.9843C15.007 29.0061 15.0721 29.0303 15.1354 29.0571C15.199 29.084 15.2607 29.1133 15.3206 29.1449C15.3806 29.1763 15.4384 29.2103 15.4942 29.2463C15.5498 29.2825 15.6032 29.3207 15.6542 29.3609C15.7049 29.401 15.7535 29.4431 15.7991 29.4872C15.8448 29.5311 15.8877 29.5767 15.9278 29.624C15.9679 29.6714 16.0048 29.7201 16.0387 29.7703C16.0727 29.8203 16.1033 29.8717 16.131 29.9244C16.1587 29.9769 16.1829 30.0304 16.2038 30.0848C16.2247 30.1392 16.2422 30.1944 16.2563 30.2502C16.2703 30.306 16.2808 30.3621 16.2878 30.4187C16.2949 30.4754 16.2985 30.5321 16.2985 30.589Z" fill="white"/>
<path d="M35.0524 30.3459C35.0524 30.4028 35.049 30.4595 35.042 30.5161C35.0347 30.5726 35.0242 30.6289 35.0102 30.6847C34.9961 30.7405 34.9786 30.7955 34.9577 30.8499C34.9368 30.9044 34.9126 30.958 34.8849 31.0105C34.8575 31.063 34.8266 31.1144 34.7926 31.1646C34.7587 31.2148 34.7218 31.2635 34.6817 31.3109C34.6416 31.358 34.5987 31.4038 34.553 31.4477C34.5074 31.4916 34.4591 31.5338 34.4081 31.574C34.3571 31.6143 34.3037 31.6524 34.2481 31.6884C34.1923 31.7245 34.1345 31.7584 34.0748 31.79C34.0148 31.8216 33.9529 31.8508 33.8896 31.8776C33.826 31.9044 33.7609 31.9288 33.6944 31.9504C33.6276 31.9723 33.5599 31.9914 33.491 32.0079C33.422 32.0244 33.3523 32.0382 33.2817 32.0493C33.2111 32.0604 33.1397 32.0689 33.0681 32.0744C32.9965 32.08 32.9244 32.0827 32.8525 32.0827C32.7804 32.0827 32.7085 32.08 32.6367 32.0744C32.5651 32.0689 32.4939 32.0604 32.4233 32.0493C32.3526 32.0382 32.2827 32.0244 32.2138 32.0079C32.1448 31.9914 32.0771 31.9723 32.0106 31.9504C31.9438 31.9288 31.8788 31.9044 31.8154 31.8776C31.7518 31.8508 31.6902 31.8216 31.6302 31.79C31.5702 31.7584 31.5124 31.7245 31.4566 31.6884C31.401 31.6524 31.3476 31.6143 31.2966 31.574C31.2459 31.5338 31.1976 31.4916 31.1517 31.4477C31.1061 31.4038 31.0631 31.358 31.023 31.3109C30.9832 31.2635 30.9461 31.2148 30.9121 31.1646C30.8781 31.1144 30.8475 31.063 30.8198 31.0105C30.7922 30.958 30.7681 30.9044 30.747 30.8499C30.7261 30.7955 30.7087 30.7405 30.6946 30.6847C30.6805 30.6289 30.6701 30.5726 30.663 30.5161C30.656 30.4595 30.6523 30.4028 30.6523 30.3459C30.6523 30.2889 30.656 30.2322 30.663 30.1755C30.6701 30.1189 30.6805 30.0628 30.6946 30.007C30.7087 29.9512 30.7261 29.8961 30.747 29.8416C30.7681 29.7872 30.7922 29.7337 30.8198 29.6812C30.8475 29.6285 30.8781 29.5771 30.9121 29.5271C30.9461 29.4769 30.9832 29.4282 31.023 29.3809C31.0631 29.3335 31.1061 29.2879 31.1517 29.244C31.1976 29.2 31.2459 29.1578 31.2966 29.1177C31.3476 29.0775 31.401 29.0393 31.4566 29.0031C31.5124 28.9671 31.5702 28.9332 31.6302 28.9017C31.6902 28.8701 31.7518 28.8408 31.8154 28.814C31.8788 28.7871 31.9438 28.763 32.0106 28.7411C32.0771 28.7193 32.1448 28.7003 32.2138 28.6836C32.2827 28.6672 32.3526 28.6534 32.4233 28.6422C32.4939 28.6311 32.5651 28.6229 32.6367 28.6173C32.7085 28.6118 32.7804 28.6089 32.8525 28.6089C32.9244 28.6089 32.9965 28.6118 33.0681 28.6173C33.1397 28.6229 33.2111 28.6311 33.2817 28.6422C33.3523 28.6534 33.422 28.6672 33.491 28.6836C33.5599 28.7003 33.6276 28.7193 33.6944 28.7411C33.7609 28.763 33.826 28.7871 33.8896 28.814C33.9529 28.8408 34.0148 28.8701 34.0748 28.9017C34.1345 28.9332 34.1923 28.9671 34.2481 29.0031C34.3037 29.0393 34.3571 29.0775 34.4081 29.1177C34.4591 29.1578 34.5074 29.2 34.553 29.244C34.5987 29.2879 34.6416 29.3335 34.6817 29.3809C34.7218 29.4282 34.7587 29.4769 34.7926 29.5271C34.8266 29.5771 34.8575 29.6285 34.8849 29.6812C34.9126 29.7337 34.9368 29.7872 34.9577 29.8416C34.9786 29.8961 34.9961 29.9512 35.0102 30.007C35.0242 30.0628 35.0347 30.1189 35.042 30.1755C35.049 30.2322 35.0524 30.2889 35.0524 30.3459Z" fill="white"/>
<mask id="mask4_3690_5679" style="mask-type:luminance" maskUnits="userSpaceOnUse" x="4" y="26" width="3" height="4">
<path d="M4.08789 26.3826H6.78085V29.5227H4.08789V26.3826Z" fill="white"/>
</mask>
<g mask="url(#mask4_3690_5679)">
<path d="M5.16988 26.4026C4.50496 26.4707 4.08789 27.3164 4.08789 27.9493C4.08789 28.5766 4.49403 29.4279 5.16988 29.4961C5.88166 29.5699 6.70486 28.761 6.72283 27.9834C6.74443 27.1746 5.8853 26.3317 5.16988 26.4026Z" fill="#FFF800"/>
</g>
<path d="M21.4434 22.0579H24.8226V22.4948H21.4434V22.0579Z" fill="#FFF800"/>
<path d="M26.3867 22.0579H29.766V22.4948H26.3867V22.0579Z" fill="#FFF800"/>
</g>
</svg>
