<svg width="411" height="620" viewBox="0 0 411 620" fill="none" xmlns="http://www.w3.org/2000/svg">
<g clip-path="url(#clip0_251_99782)">
<g clip-path="url(#clip1_251_99782)">
<path d="M137.797 19C119.654 104.047 119 88.3026 117.273 108.615C116.497 121.995 119.887 149.455 134.308 159.49C148.729 169.525 117.445 225.345 100 252" stroke="#D9D9D9" stroke-width="4" stroke-linecap="round"/>
<path d="M128.418 104.348C163.943 108.953 174.618 108.46 175.515 107.637" stroke="#D9D9D9" stroke-width="3"/>
<path d="M126.4 130.254C163.271 131.57 185.497 130.802 192.001 130.254" stroke="#D9D9D9" stroke-width="3"/>
<path d="M62.8184 158.628C142.211 156.325 168.564 153.831 171.815 152.871" stroke="#D9D9D9" stroke-width="3" stroke-linecap="round"/>
<path d="M91.2216 85.1937C91.3178 84.3708 90.7287 83.6258 89.9059 83.5297C89.0831 83.4335 88.3381 84.0226 88.2419 84.8454L89.7318 85.0195L91.2216 85.1937ZM86.0312 159.038L87.5296 159.109C88.8752 130.654 89.7722 112.391 90.3467 101.123C90.634 95.4888 90.8407 91.6047 90.9824 89.0702C91.0533 87.8027 91.1078 86.8748 91.148 86.2353C91.1681 85.9153 91.1845 85.6702 91.1974 85.492C91.2038 85.4029 91.2093 85.3329 91.2137 85.2801C91.2159 85.2538 91.2177 85.2332 91.2192 85.2177C91.2199 85.21 91.2205 85.2041 91.221 85.1998C91.2214 85.1954 91.2216 85.1935 91.2216 85.1937L89.7318 85.0195L88.2419 84.8454C88.1218 85.8732 87.2216 102.11 84.5329 158.967L86.0312 159.038Z" fill="#D9D9D9"/>
<path d="M104.38 116.114C105.202 116.013 105.787 115.265 105.686 114.443C105.586 113.621 104.838 113.036 104.016 113.136L104.198 114.625L104.38 116.114ZM88.7227 114.625L88.6718 116.124C98.3542 116.453 103.128 116.267 104.38 116.114L104.198 114.625L104.016 113.136C103.025 113.257 98.4683 113.455 88.7736 113.126L88.7227 114.625Z" fill="#D9D9D9"/>
<path d="M62.8182 158.626C54.7444 78.4393 75.9382 59.5234 79.9752 50.8879C84.0121 42.2523 93.0952 25.3925 96.4593 11" stroke="#D9D9D9" stroke-width="3"/>
<path d="M253.543 696.531C264.04 585.01 265.318 573.304 264.645 581.391C265.094 563.846 263.905 525.466 255.562 512.307C247.219 499.148 265.318 425.952 275.41 390.999" stroke="#D9D9D9" stroke-width="4"/>
<path d="M323.18 595.372C243.787 597.675 217.435 600.169 214.183 601.129" stroke="#D9D9D9" stroke-width="3" stroke-linecap="round"/>
<path d="M294.776 668.806C294.68 669.629 295.269 670.374 296.092 670.47C296.915 670.566 297.66 669.977 297.756 669.155L296.266 668.98L294.776 668.806ZM299.967 594.962L298.468 594.891C297.123 623.346 296.226 641.609 295.651 652.877C295.364 658.511 295.157 662.395 295.016 664.93C294.945 666.197 294.89 667.125 294.85 667.765C294.83 668.085 294.814 668.33 294.801 668.508C294.794 668.597 294.789 668.667 294.784 668.72C294.782 668.746 294.78 668.767 294.779 668.782C294.778 668.79 294.778 668.796 294.777 668.8C294.777 668.805 294.776 668.807 294.776 668.806L296.266 668.98L297.756 669.155C297.876 668.127 298.776 651.89 301.465 595.033L299.967 594.962Z" fill="#D9D9D9"/>
<path d="M323.18 595.374C331.254 675.561 310.06 694.477 306.023 703.112C301.986 711.748 292.903 728.607 289.539 743" stroke="#D9D9D9" stroke-width="3"/>
<path d="M68.4458 175.656C68.5493 174.556 67.7417 173.581 66.642 173.478C65.5423 173.374 64.5669 174.182 64.4634 175.281L66.4546 175.469L68.4458 175.656ZM55.353 290.609L57.3524 290.66L53.3599 290.443L55.353 290.609ZM66.4546 175.469L64.4634 175.281C59.2154 231.042 56.2721 261.846 54.7249 277.698C53.9508 285.629 53.5275 289.805 53.34 291.492C53.2922 291.923 53.2631 292.159 53.2493 292.253C53.2456 292.279 53.2472 292.265 53.2535 292.232C53.2553 292.223 53.2672 292.161 53.2908 292.08C53.3006 292.047 53.3311 291.943 53.3885 291.816C53.4207 291.749 53.5138 291.583 53.5775 291.487C53.6956 291.337 54.0895 290.987 54.3828 290.823C54.8877 290.671 55.922 290.777 56.3804 291.025C56.631 291.24 56.9435 291.652 57.0287 291.818C57.1499 292.086 57.1802 292.318 57.1844 292.346C57.2035 292.475 57.2046 292.575 57.2047 292.582C57.2057 292.629 57.2041 292.655 57.2049 292.633C57.2117 292.454 57.2601 291.809 57.3461 290.775L55.353 290.609L53.3599 290.443C53.2777 291.431 53.2189 292.189 53.2078 292.482C53.2064 292.519 53.204 292.59 53.2056 292.666C53.206 292.687 53.2077 292.798 53.2279 292.934C53.2326 292.966 53.2635 293.201 53.3854 293.47C53.471 293.637 53.7838 294.049 54.0349 294.265C54.4936 294.513 55.5283 294.619 56.0337 294.467C56.3275 294.302 56.7219 293.952 56.8404 293.801C56.9046 293.705 56.9983 293.538 57.031 293.469C57.0895 293.34 57.1212 293.233 57.1322 293.195C57.1583 293.105 57.1732 293.03 57.1783 293.004C57.1913 292.938 57.201 292.875 57.2072 292.832C57.2326 292.659 57.2688 292.354 57.3155 291.934C57.5066 290.215 57.9326 286.011 58.706 278.086C60.2539 262.227 63.1977 231.417 68.4458 175.656L66.4546 175.469ZM55.353 290.609L53.3537 290.558C53.1278 299.393 53.3136 313.457 54.6068 326.986C55.2534 333.751 56.1802 340.419 57.4822 346.25C58.775 352.041 60.4737 357.178 62.747 360.764L64.4361 359.693L66.1252 358.622C64.2271 355.628 62.6486 351.034 61.3861 345.379C60.1327 339.765 59.2261 333.274 58.5887 326.606C57.3139 313.269 57.1297 299.37 57.3524 290.66L55.353 290.609ZM64.4361 359.693L62.747 360.764C63.5241 361.99 64.123 364.174 64.3998 367.42C64.6712 370.603 64.6157 374.563 64.2792 379.137C63.6064 388.28 61.8278 399.667 59.4623 411.791C54.7336 436.029 47.702 463.006 42.6664 480.447L44.5879 481.001L46.5094 481.556C51.5661 464.043 58.6301 436.946 63.3882 412.557C65.7661 400.369 67.5787 388.805 68.2684 379.43C68.6131 374.746 68.6816 370.555 68.3853 367.08C68.0944 363.668 67.4339 360.686 66.1252 358.622L64.4361 359.693Z" fill="#D9D9D9"/>
<path d="M62.418 222.348C97.943 226.953 108.618 226.46 109.515 225.637" stroke="#D9D9D9" stroke-width="3"/>
<path d="M60.4004 248.254C97.271 249.57 119.497 248.802 126.001 248.254" stroke="#D9D9D9" stroke-width="3"/>
<path d="M-3.18164 276.628C76.2113 274.325 102.564 271.831 105.815 270.871" stroke="#D9D9D9" stroke-width="3" stroke-linecap="round"/>
<path d="M25.2216 203.194C25.3178 202.371 24.7287 201.626 23.9059 201.53C23.0831 201.434 22.3381 202.023 22.2419 202.845L23.7318 203.02L25.2216 203.194ZM20.0312 277.038L21.5296 277.109C22.8752 248.654 23.7722 230.391 24.3467 219.123C24.634 213.489 24.8407 209.605 24.9824 207.07C25.0533 205.803 25.1078 204.875 25.148 204.235C25.1681 203.915 25.1845 203.67 25.1974 203.492C25.2038 203.403 25.2093 203.333 25.2137 203.28C25.2159 203.254 25.2177 203.233 25.2192 203.218C25.2199 203.21 25.2205 203.204 25.221 203.2C25.2214 203.195 25.2216 203.193 25.2216 203.194L23.7318 203.02L22.2419 202.845C22.1218 203.873 21.2216 220.11 18.5329 276.967L20.0312 277.038Z" fill="#D9D9D9"/>
<path d="M38.3796 234.114C39.2019 234.013 39.787 233.265 39.6865 232.443C39.586 231.621 38.8379 231.036 38.0156 231.136L38.1976 232.625L38.3796 234.114ZM22.7227 232.625L22.6718 234.124C32.3542 234.453 37.1277 234.267 38.3796 234.114L38.1976 232.625L38.0156 231.136C37.0247 231.257 32.4683 231.455 22.7736 231.126L22.7227 232.625Z" fill="#D9D9D9"/>
<path d="M31.9199 129.341C32.1085 128.535 31.6074 127.728 30.8007 127.539C29.994 127.351 29.1872 127.852 28.9987 128.659L30.4593 129L31.9199 129.341ZM-3.18179 276.626L-1.68933 276.476C-5.71247 236.519 -2.43058 211.952 2.29077 196.36C4.65014 188.568 7.37655 182.992 9.7576 178.834C10.9522 176.748 12.0608 175.017 13.015 173.51C13.9525 172.03 14.7812 170.706 15.334 169.523L13.9752 168.888L12.6163 168.253C12.1599 169.229 11.4432 170.385 10.4805 171.905C9.53455 173.399 8.38817 175.189 7.15425 177.343C4.67837 181.667 1.854 187.451 -0.580486 195.491C-5.44685 211.562 -8.72497 236.546 -4.67424 276.776L-3.18179 276.626ZM13.9752 168.888L15.334 169.523C19.3056 161.027 28.5088 143.935 31.9199 129.341L30.4593 129L28.9987 128.659C25.6816 142.85 16.7186 159.477 12.6163 168.253L13.9752 168.888Z" fill="#D9D9D9"/>
<path d="M434.687 243.757C276.932 224.451 260.369 222.062 271.806 223.281C247.022 222.711 192.87 225.916 174.534 243.294C156.198 260.672 52.3317 225.004 2.6906 204.998" stroke="#D9D9D9" stroke-width="4"/>
<path d="M329.195 232.414C325.092 330.607 326.097 360.083 327.113 362.546" stroke="#D9D9D9" stroke-width="3"/>
<path d="M294.789 230.48C300.604 306.02 298.48 351.635 296.691 365" stroke="#D9D9D9" stroke-width="3"/>
<path d="M263.371 154.671C268.831 237.999 273.859 265.612 275.691 269.002" stroke="#D9D9D9" stroke-width="3" stroke-linecap="round"/>
<path d="M351.426 187.191C352.25 187.276 352.987 186.677 353.072 185.853C353.157 185.029 352.558 184.292 351.734 184.207L351.58 185.699L351.426 187.191ZM263.275 182.51L263.224 184.009C331.174 186.278 350.349 187.08 351.426 187.191L351.58 185.699L351.734 184.207C350.52 184.082 331.164 183.276 263.325 181.01L263.275 182.51Z" fill="#D9D9D9"/>
<path d="M315.042 203.746C315.153 204.567 315.909 205.142 316.73 205.031C317.551 204.919 318.126 204.163 318.014 203.342L316.528 203.544L315.042 203.746ZM316.266 184.988L314.766 184.959C314.538 196.576 314.842 202.274 315.042 203.746L316.528 203.544L318.014 203.342C317.849 202.13 317.537 196.647 317.765 185.018L316.266 184.988Z" fill="#D9D9D9"/>
<path d="M263.371 154.669C358.831 143.636 381.741 168.731 392.104 173.426C402.468 178.121 422.722 188.728 439.937 192.519" stroke="#D9D9D9" stroke-width="3"/>
<path d="M269.443 404.467C136.312 393.761 122.335 392.425 131.988 393.096C111.063 392.854 65.3279 394.926 49.7817 405.152C34.2355 415.378 -53.334 394.909 -95.1754 383.397" stroke="#D9D9D9" stroke-width="4"/>
<path d="M213.488 400.414C208.6 443.09 209.369 455.883 210.365 456.944" stroke="#D9D9D9" stroke-width="3"/>
<path d="M182.568 398.43C181.624 442.664 182.917 469.301 183.681 477.091" stroke="#D9D9D9" stroke-width="3"/>
<path d="M147.664 322.667C151.756 417.829 155.176 449.386 156.376 453.269" stroke="#D9D9D9" stroke-width="3" stroke-linecap="round"/>
<path d="M235.719 355.191C236.543 355.276 237.28 354.677 237.365 353.853C237.45 353.029 236.851 352.292 236.027 352.207L235.873 353.699L235.719 355.191ZM147.567 350.51L147.517 352.009C215.467 354.278 234.642 355.08 235.719 355.191L235.873 353.699L236.027 352.207C234.813 352.082 215.457 351.276 147.618 349.01L147.567 350.51Z" fill="#D9D9D9"/>
<path d="M199.335 371.746C199.446 372.567 200.202 373.142 201.023 373.031C201.844 372.919 202.419 372.163 202.307 371.342L200.821 371.544L199.335 371.746ZM200.559 352.988L199.059 352.959C198.831 364.576 199.135 370.274 199.335 371.746L200.821 371.544L202.307 371.342C202.142 370.13 201.83 364.647 202.058 353.018L200.559 352.988Z" fill="#D9D9D9"/>
<path d="M144.015 323.669C239.475 312.636 262.386 337.731 272.749 342.426C283.112 347.121 303.366 357.728 320.582 361.519" stroke="#D9D9D9" stroke-width="3"/>
<path d="M446.647 407.762C326.579 423.75 313.979 425.669 322.688 424.629C303.775 425.508 262.361 424.475 248.009 413.319C233.657 402.163 155.067 427.916 117.566 442.187" stroke="#D9D9D9" stroke-width="4"/>
<path d="M396.168 413.973C390.517 365.685 390.844 351.146 391.714 349.912" stroke="#D9D9D9" stroke-width="3"/>
<path d="M368.268 417.113C366.138 366.944 366.539 336.678 367.005 327.817" stroke="#D9D9D9" stroke-width="3"/>
<path d="M338.893 504.096C339.848 395.989 342.031 360.079 343.004 355.638" stroke="#D9D9D9" stroke-width="3" stroke-linecap="round"/>
<path d="M417.517 464.857C418.335 464.725 419.105 465.28 419.238 466.098C419.37 466.916 418.815 467.686 417.997 467.818L417.757 466.338L417.517 464.857ZM338.002 472.504L337.892 471.008C368.553 468.742 388.231 467.243 400.372 466.289C406.442 465.812 410.627 465.471 413.357 465.24C414.722 465.124 415.721 465.036 416.409 464.971C416.753 464.939 417.016 464.913 417.207 464.893C417.303 464.883 417.377 464.875 417.432 464.868C417.46 464.865 417.481 464.862 417.497 464.86C417.513 464.858 417.519 464.857 417.517 464.857L417.757 466.338L417.997 467.818C417.4 467.915 412.693 468.33 400.607 469.28C388.46 470.234 368.777 471.734 338.113 474L338.002 472.504Z" fill="#D9D9D9"/>
<path d="M384.053 446.976C384.121 446.151 384.845 445.536 385.671 445.604C386.496 445.672 387.111 446.397 387.043 447.222L385.548 447.099L384.053 446.976ZM385.846 468.164L384.347 468.225C383.807 455.047 383.919 448.608 384.053 446.976L385.548 447.099L387.043 447.222C386.926 448.647 386.804 454.914 387.344 468.103L385.846 468.164Z" fill="#D9D9D9"/>
<path d="M338.892 504.097C425.525 513.864 445.517 484.726 454.752 479.099C463.988 473.472 481.995 460.851 497.452 456.052" stroke="#D9D9D9" stroke-width="3"/>
<path d="M378 565.411V-431.67C378 -431.67 371.114 -497 303.405 -497C235.696 -497 226.515 -431.67 226.515 -431.67V-302.082C226.515 -302.082 223.073 -243.178 178.316 -202.481C133.559 -161.783 69.293 -159.642 69.293 -159.642H-65.634C-65.634 -159.642 -154 -162.854 -154 -86.8149C-154 -10.7754 -65.634 -15.0593 -65.634 -15.0593H218.482C218.482 -15.0593 290.782 -15.0593 290.782 57.7673C290.782 130.594 227.663 131.665 227.663 131.665H22.6938C22.6938 131.665 -43.8675 137.02 -43.8675 203.42C-43.8675 269.821 22.6938 269.821 22.6938 269.821H94.1333C195.863 269.821 201.586 284.608 201.586 407.977V545.063C201.586 545.063 192.405 612.535 122.401 612.535C52.3969 612.535 45.5112 545.063 45.5112 545.063V450.817C45.5112 450.817 44.9921 399.41 -18.1265 399.41C-81.245 399.41 -81.0439 455.101 -81.0439 455.101V545.063C-81.0439 614.677 -66.8817 675.304 37.1599 695H223.073C368.819 695 378 565.411 378 565.411Z" stroke="url(#paint0_linear_251_99782)" stroke-width="30"/>
<rect x="189.5" y="273.5" width="134" height="30" rx="15" fill="white"/>
<rect x="189.5" y="273.5" width="134" height="30" rx="15" stroke="#BF4B17" stroke-width="3"/>
<path d="M207.844 293.5L205.204 282.332H207.044L208.18 287.708L208.964 291.42H209.012L209.908 287.708L211.236 282.332H213.252L214.564 287.708L215.444 291.404H215.492L216.308 287.708L217.476 282.332H219.252L216.5 293.5H214.468L213.044 287.724L212.212 284.332H212.18L211.332 287.724L209.876 293.5H207.844ZM226.68 293.5C226.221 293.5 225.869 293.372 225.624 293.116C225.379 292.849 225.229 292.513 225.176 292.108H225.096C224.936 292.631 224.643 293.025 224.216 293.292C223.789 293.559 223.272 293.692 222.664 293.692C221.8 293.692 221.133 293.468 220.664 293.02C220.205 292.572 219.976 291.969 219.976 291.212C219.976 290.38 220.275 289.756 220.872 289.34C221.48 288.924 222.365 288.716 223.528 288.716H225.032V288.012C225.032 287.5 224.893 287.105 224.616 286.828C224.339 286.551 223.907 286.412 223.32 286.412C222.829 286.412 222.429 286.519 222.12 286.732C221.811 286.945 221.549 287.217 221.336 287.548L220.296 286.604C220.573 286.135 220.963 285.751 221.464 285.452C221.965 285.143 222.621 284.988 223.432 284.988C224.509 284.988 225.336 285.239 225.912 285.74C226.488 286.241 226.776 286.961 226.776 287.9V292.076H227.656V293.5H226.68ZM223.16 292.364C223.704 292.364 224.152 292.247 224.504 292.012C224.856 291.767 225.032 291.441 225.032 291.036V289.836H223.56C222.355 289.836 221.752 290.209 221.752 290.956V291.244C221.752 291.617 221.875 291.9 222.12 292.092C222.376 292.273 222.723 292.364 223.16 292.364ZM231.622 293.5C231.014 293.5 230.556 293.345 230.246 293.036C229.937 292.716 229.782 292.268 229.782 291.692V286.604H228.486V285.18H229.19C229.478 285.18 229.676 285.116 229.782 284.988C229.9 284.86 229.958 284.652 229.958 284.364V282.908H231.526V285.18H233.27V286.604H231.526V292.076H233.142V293.5H231.622ZM247.615 284.956H247.535L246.655 286.764L244.207 291.228L241.759 286.764L240.879 284.956H240.799V293.5H239.071V282.332H241.215L244.207 288.012H244.303L247.295 282.332H249.343V293.5H247.615V284.956ZM258.071 293.5C257.612 293.5 257.26 293.372 257.015 293.116C256.769 292.849 256.62 292.513 256.567 292.108H256.487C256.327 292.631 256.033 293.025 255.607 293.292C255.18 293.559 254.663 293.692 254.055 293.692C253.191 293.692 252.524 293.468 252.055 293.02C251.596 292.572 251.367 291.969 251.367 291.212C251.367 290.38 251.665 289.756 252.263 289.34C252.871 288.924 253.756 288.716 254.919 288.716H256.423V288.012C256.423 287.5 256.284 287.105 256.007 286.828C255.729 286.551 255.297 286.412 254.711 286.412C254.22 286.412 253.82 286.519 253.511 286.732C253.201 286.945 252.94 287.217 252.727 287.548L251.687 286.604C251.964 286.135 252.353 285.751 252.855 285.452C253.356 285.143 254.012 284.988 254.823 284.988C255.9 284.988 256.727 285.239 257.303 285.74C257.879 286.241 258.167 286.961 258.167 287.9V292.076H259.047V293.5H258.071ZM254.551 292.364C255.095 292.364 255.543 292.247 255.895 292.012C256.247 291.767 256.423 291.441 256.423 291.036V289.836H254.951C253.745 289.836 253.143 290.209 253.143 290.956V291.244C253.143 291.617 253.265 291.9 253.511 292.092C253.767 292.273 254.113 292.364 254.551 292.364ZM260.756 281.66H262.5V286.556H262.58C262.761 286.108 263.033 285.735 263.396 285.436C263.769 285.137 264.276 284.988 264.916 284.988C265.769 284.988 266.43 285.271 266.9 285.836C267.38 286.391 267.62 287.185 267.62 288.22V293.5H265.876V288.428C265.876 287.137 265.353 286.492 264.308 286.492C264.084 286.492 263.86 286.524 263.636 286.588C263.422 286.641 263.23 286.727 263.06 286.844C262.889 286.961 262.75 287.111 262.644 287.292C262.548 287.473 262.5 287.681 262.5 287.916V293.5H260.756V281.66ZM276.133 293.5C275.674 293.5 275.322 293.372 275.077 293.116C274.832 292.849 274.682 292.513 274.629 292.108H274.549C274.389 292.631 274.096 293.025 273.669 293.292C273.242 293.559 272.725 293.692 272.117 293.692C271.253 293.692 270.586 293.468 270.117 293.02C269.658 292.572 269.429 291.969 269.429 291.212C269.429 290.38 269.728 289.756 270.325 289.34C270.933 288.924 271.818 288.716 272.981 288.716H274.485V288.012C274.485 287.5 274.346 287.105 274.069 286.828C273.792 286.551 273.36 286.412 272.773 286.412C272.282 286.412 271.882 286.519 271.573 286.732C271.264 286.945 271.002 287.217 270.789 287.548L269.749 286.604C270.026 286.135 270.416 285.751 270.917 285.452C271.418 285.143 272.074 284.988 272.885 284.988C273.962 284.988 274.789 285.239 275.365 285.74C275.941 286.241 276.229 286.961 276.229 287.9V292.076H277.109V293.5H276.133ZM272.613 292.364C273.157 292.364 273.605 292.247 273.957 292.012C274.309 291.767 274.485 291.441 274.485 291.036V289.836H273.013C271.808 289.836 271.205 290.209 271.205 290.956V291.244C271.205 291.617 271.328 291.9 271.573 292.092C271.829 292.273 272.176 292.364 272.613 292.364ZM277.924 285.18H279.62L280.468 288.668L281.22 291.82H281.268L282.132 288.668L283.14 285.18H284.708L285.732 288.668L286.612 291.82H286.66L287.396 288.668L288.26 285.18H289.876L287.636 293.5H285.668L284.58 289.708L283.908 287.372H283.876L283.22 289.708L282.116 293.5H280.196L277.924 285.18ZM297.461 293.5C297.003 293.5 296.651 293.372 296.405 293.116C296.16 292.849 296.011 292.513 295.957 292.108H295.877C295.717 292.631 295.424 293.025 294.997 293.292C294.571 293.559 294.053 293.692 293.445 293.692C292.581 293.692 291.915 293.468 291.445 293.02C290.987 292.572 290.757 291.969 290.757 291.212C290.757 290.38 291.056 289.756 291.653 289.34C292.261 288.924 293.147 288.716 294.309 288.716H295.813V288.012C295.813 287.5 295.675 287.105 295.397 286.828C295.12 286.551 294.688 286.412 294.101 286.412C293.611 286.412 293.211 286.519 292.901 286.732C292.592 286.945 292.331 287.217 292.117 287.548L291.077 286.604C291.355 286.135 291.744 285.751 292.245 285.452C292.747 285.143 293.403 284.988 294.213 284.988C295.291 284.988 296.117 285.239 296.693 285.74C297.269 286.241 297.557 286.961 297.557 287.9V292.076H298.437V293.5H297.461ZM293.941 292.364C294.485 292.364 294.933 292.247 295.285 292.012C295.637 291.767 295.813 291.441 295.813 291.036V289.836H294.341C293.136 289.836 292.533 290.209 292.533 290.956V291.244C292.533 291.617 292.656 291.9 292.901 292.092C293.157 292.273 293.504 292.364 293.941 292.364ZM300.146 293.5V285.18H301.89V286.556H301.97C302.152 286.108 302.424 285.735 302.786 285.436C303.16 285.137 303.666 284.988 304.306 284.988C305.16 284.988 305.821 285.271 306.29 285.836C306.77 286.391 307.01 287.185 307.01 288.22V293.5H305.266V288.444C305.266 287.143 304.744 286.492 303.698 286.492C303.474 286.492 303.25 286.524 303.026 286.588C302.813 286.641 302.621 286.727 302.45 286.844C302.28 286.961 302.141 287.111 302.034 287.292C301.938 287.473 301.89 287.687 301.89 287.932V293.5H300.146Z" fill="black"/>
<circle cx="166" cy="288" r="19" fill="#BF4B17"/>
<path d="M165.551 294.192C164.911 294.192 164.34 294.091 163.839 293.888C163.338 293.675 162.911 293.381 162.559 293.008C162.207 292.624 161.94 292.165 161.759 291.632C161.578 291.088 161.487 290.48 161.487 289.808C161.487 289.008 161.604 288.256 161.839 287.552C162.084 286.837 162.399 286.187 162.783 285.6C163.167 285.003 163.594 284.475 164.063 284.016C164.543 283.547 165.018 283.152 165.487 282.832H168.335C167.674 283.301 167.082 283.755 166.559 284.192C166.047 284.629 165.594 285.072 165.199 285.52C164.815 285.968 164.495 286.437 164.239 286.928C163.994 287.408 163.807 287.931 163.679 288.496L163.807 288.528C163.914 288.315 164.036 288.112 164.175 287.92C164.324 287.717 164.5 287.541 164.703 287.392C164.906 287.232 165.14 287.109 165.407 287.024C165.674 286.928 165.983 286.88 166.335 286.88C166.794 286.88 167.22 286.96 167.615 287.12C168.02 287.28 168.367 287.515 168.655 287.824C168.954 288.123 169.183 288.485 169.343 288.912C169.514 289.339 169.599 289.813 169.599 290.336C169.599 290.901 169.503 291.419 169.311 291.888C169.119 292.357 168.847 292.763 168.495 293.104C168.143 293.445 167.716 293.712 167.215 293.904C166.724 294.096 166.17 294.192 165.551 294.192ZM165.551 292.528C166.138 292.528 166.596 292.368 166.927 292.048C167.268 291.717 167.439 291.248 167.439 290.64V290.4C167.439 289.792 167.268 289.328 166.927 289.008C166.596 288.677 166.138 288.512 165.551 288.512C164.954 288.512 164.49 288.677 164.159 289.008C163.828 289.328 163.663 289.792 163.663 290.4V290.64C163.663 291.248 163.828 291.717 164.159 292.048C164.49 292.368 164.954 292.528 165.551 292.528Z" fill="#F4F4F4"/>
<path d="M290.021 195.176L290.673 192.543C291.772 192.729 293.771 195.121 293.472 196.244L292.801 196.888L291.324 196.485C291.16 198.217 292.965 197.714 291.956 199.974C291.14 201.807 288.778 201.228 287.207 201.294C286.72 201.314 286.023 201.017 286.138 201.727C291.553 205.442 296.57 209.752 301.99 213.463C305.088 215.587 310.717 219.706 313.92 221.075C314.561 221.347 315.213 221.604 315.909 221.367L318.335 216.615C320.106 217.903 323.273 222.148 318.987 220.985C318.639 221.327 320.896 223.276 319.201 224.922L314.666 226.226C319.613 227.862 326.804 232.686 331.861 233.144C334.685 233.401 334.108 231.764 335.212 230.606C335.6 230.204 336.102 230.289 336.276 230.168C336.525 229.398 336.356 227.429 337.351 227.545C339.354 228.92 341.532 232.6 337.574 231.482C337.336 232.565 338.882 232.847 338.798 233.803C338.569 236.316 334.188 237.897 332.06 238.37C327.768 239.317 323.253 238.642 318.987 239.357C318.748 239.397 317.744 239.397 317.689 239.357C317.599 239.291 318.017 238.209 317.047 238.486L316.396 239.578L316.202 269.138L315.68 269.485L199.679 269.546V235.42H184.334C183.707 235.42 178.029 233.184 177.636 232.797C176.144 231.321 177.268 229.594 177.636 227.983L175.915 228.854C175.423 226.432 176.741 225.501 178.292 224.051L178.939 226.669C178.869 226.629 178.556 226.73 178.203 226.523C177.85 226.317 178.461 224.927 176.781 226.891L178.471 227.812C178.988 229.252 177.596 230.234 177.681 230.767C177.845 231.805 181.012 232.857 181.967 233.23C183.021 233.637 182.768 233.95 184.563 234.106C185.358 234.176 186.85 234.226 187.586 234.106C189.689 233.798 192.141 235.384 194.07 234.106C194.214 234.106 194.359 234.106 194.503 234.106C196.228 234.126 197.964 234.106 199.689 234.106H200.555C200.555 234.252 200.555 234.398 200.555 234.544C200.555 234.69 200.555 234.836 200.555 234.982C200.46 241.97 200.535 248.994 200.555 255.982C200.564 260.06 200.55 264.159 200.555 268.237C201.271 268.267 202.002 268.191 202.718 268.237C203.145 268.262 203.583 268.227 204.015 268.237C204.448 268.247 204.881 268.232 205.313 268.237C205.602 268.237 205.89 268.237 206.179 268.237C207.183 268.247 208.202 268.262 209.202 268.237C209.634 268.227 210.067 268.262 210.5 268.237C210.644 268.227 210.788 268.237 210.932 268.237C211.077 268.237 211.221 268.247 211.365 268.237C211.648 268.212 211.942 268.267 212.23 268.237V247.669H224.766V268.237C225.482 268.267 226.208 268.196 226.929 268.237C227.929 268.287 228.953 268.222 229.952 268.237C230.097 268.237 230.241 268.237 230.385 268.237C230.674 268.237 230.962 268.237 231.25 268.237C231.971 268.242 232.692 268.237 233.413 268.237C235.283 268.247 237.163 268.227 239.032 268.237C241.191 268.247 243.359 268.237 245.517 268.237C246.094 268.237 246.67 268.237 247.247 268.237C247.536 268.237 247.824 268.237 248.112 268.237C253.552 268.237 259.271 267.794 264.537 267.799C264.969 267.799 265.402 267.799 265.835 267.799C265.899 267.799 266.138 268.191 266.491 268.191C266.988 268.191 267.411 267.799 267.565 267.799C269.017 267.799 270.932 268.237 272.752 268.237C274.91 268.237 277.078 268.237 279.236 268.237C279.524 268.237 279.813 268.237 280.101 268.237C280.534 268.237 280.966 268.237 281.399 268.237H284.855C286.148 268.237 287.451 268.237 288.743 268.237C289.032 268.237 289.32 268.237 289.609 268.237C290.041 268.237 290.474 268.237 290.907 268.237H303.01C303.442 268.237 303.875 268.237 304.308 268.237C304.74 268.237 305.173 268.237 305.605 268.237C307.043 268.227 308.49 268.252 309.927 268.237C310.648 268.227 311.369 268.252 312.09 268.237C312.92 268.217 313.905 268.343 314.685 268.237C314.999 268.196 315.605 268.453 315.556 267.975C315.352 259.471 315.804 250.917 315.546 242.423C315.506 241.044 315.178 239.85 315.113 238.924C315.073 238.345 315.168 237.746 315.113 237.172C316.242 237.721 316.515 236.281 316.655 236.271C318.027 236.175 319.797 238.808 320.091 235.848C323.024 237.172 324.844 237.645 328.082 237.605C329.509 237.585 329.986 237.358 331.105 237.167C332.04 237.006 332.204 237.086 333.268 236.729C334.332 236.371 335.545 235.994 336.441 235.344C339.245 233.305 334.496 231.664 338.454 229.947C337.728 228.819 337.127 229.579 336.296 230.163C335.575 232.384 334.869 233.899 332.408 234.539C329.912 233.058 323.835 231.644 320.513 230.168C318.216 229.146 315.884 227.787 313.502 226.745C312.935 226.498 312.587 225.808 312.522 225.783V225.345C312.811 225.29 313.169 224.937 313.388 224.907C314.283 224.791 314.76 224.64 315.551 224.469C316.505 224.262 318.161 224.907 318.828 223.593C319.23 222.792 317.351 221.362 318.325 220.053L319.872 219.651C317.679 217.083 317.828 222.435 314.909 222.314C312.796 222.223 304.531 216.484 302.269 214.943C296.486 211.006 291.165 206.298 285.292 202.598C284.82 201.888 284.094 201.334 283.995 200.407C284.024 200.407 284.129 199.969 284.427 199.969C284.999 199.969 285.581 199.944 286.158 199.969C286.59 199.984 287.023 199.949 287.456 199.969C288.326 200.01 290.106 201.309 291.14 199.546C292.005 198.071 289.783 198.429 290.534 196.304C290.897 195.277 292.612 196.002 292.204 194.945C291.528 193.172 290.713 195.075 290.603 195.126C290.404 195.216 290.151 195.096 290.046 195.161L290.021 195.176Z" fill="#1A1612"/>
<path d="M220.429 195.615C220.375 195.56 219.669 195.817 219.544 195.333C219.017 193.616 222.254 189.241 223.92 190.55C224.208 190.777 225.133 194.231 226.262 194.734C234.213 187.585 241.966 179.71 248.012 170.814C248.952 169.429 255.009 159.767 255.009 159.082V145.952C255.009 144.683 258.032 144.683 258.032 145.952V157.325C258.032 158.564 265.461 170.658 266.759 172.561C272.607 181.145 279.887 189.201 287.649 196.048C287.907 195.127 289.036 194.487 289.325 193.873C289.514 193.465 289.235 192.005 289.633 191.718C291.289 190.54 294.322 194.206 294.317 195.837C294.317 196.728 293.472 197.337 293.163 198.153C292.989 198.611 293.173 199.311 293.014 199.648C292.93 199.829 291.463 201.904 291.334 201.969C290.652 202.332 288.589 201.773 288.942 202.614L314.635 220.367L315.525 220.548C315.456 219.334 316.559 218.735 316.982 217.925C317.226 217.461 316.823 214.934 318.981 215.941C319.299 216.087 321.308 218.232 321.527 218.635C322.9 221.187 321.353 220.704 321.015 221.514C320.627 222.441 320.746 223.549 320.279 224.611C319.911 225.452 318.126 225.94 317.693 226.665C321.254 227.612 329.284 232.521 332.631 232.329C333.804 232.264 336.052 227.974 336.102 226.635C337.459 225.457 340.328 228.976 340.532 230.059C340.925 232.143 339.433 232.249 339.319 232.677C338.772 234.741 339.443 235.753 337.027 237.274C331.726 240.607 324.894 238.995 318.986 239.368C323.253 238.653 327.768 239.333 332.059 238.381C334.192 237.908 338.573 236.332 338.797 233.815C338.881 232.858 337.335 232.576 337.574 231.494C341.532 232.611 339.354 228.936 337.35 227.556C336.355 227.435 336.524 229.409 336.276 230.179C336.102 230.3 335.6 230.215 335.212 230.617C334.108 231.776 334.685 233.412 331.86 233.155C326.798 232.697 319.608 227.874 314.665 226.237L319.2 224.933C320.901 223.282 318.643 221.338 318.986 220.996C323.272 222.159 320.105 217.92 318.335 216.626L315.908 221.379C315.207 221.615 314.556 221.363 313.919 221.087C310.717 219.717 305.093 215.594 301.99 213.474C296.565 209.758 291.552 205.453 286.137 201.738C286.023 201.023 286.719 201.325 287.206 201.305C288.778 201.239 291.14 201.818 291.955 199.986C292.965 197.725 291.159 198.223 291.324 196.496L292.8 196.899L293.472 196.255C293.77 195.132 291.771 192.74 290.672 192.554L290.021 195.187C289.916 195.248 289.787 195.494 289.588 195.625C289.111 195.937 288.29 195.474 288.285 197.372H287.654C279.3 189.901 271.254 181.1 265.033 171.695C263.706 169.691 257.172 158.891 257.172 157.34V146.173H255.874V159.082C255.874 159.5 252.458 165.472 251.896 166.428C245.248 177.691 235.864 187.353 226.257 196.048C225.243 196.29 225.283 194.518 224.76 194.065C224.467 193.813 224.034 193.949 223.89 193.863C223.686 193.234 223.686 190.877 222.816 191.24C221.508 192.453 220.161 193.616 220.434 195.61H222.597C222.617 195.902 222.582 196.194 222.597 196.486C221.782 196.587 221.772 196.129 221.717 197.146C221.508 200.937 224.576 200.308 227.147 200.424C227.635 200.444 228.331 200.142 228.216 200.857C223.512 203.827 219.291 207.462 214.611 210.498C212.568 211.822 204.333 217.104 202.493 217.089C200.549 217.074 201.802 215.87 200.121 215.307C199.828 215.206 199.549 214.984 199.256 214.869C199.261 214.722 199.246 214.576 199.256 214.43C199.291 213.947 199.405 211.792 199.037 211.802C197.356 212.487 195.994 214.31 196.233 216.183L197.968 215.936L198.391 217.059L197.118 217.769C197.222 221.132 199.957 221.333 202.712 221.439C200.096 223.574 196.372 225.114 193.189 226.454C190.823 227.451 185.566 229.817 183.274 230.008C180.748 230.215 181.017 228.155 180.131 227.214C179.933 227.002 179.47 227.184 179.371 227.123C179.207 227.018 179.087 226.771 178.938 226.685L178.292 224.067C176.74 225.517 175.422 226.449 175.915 228.87L177.635 227.999C177.272 229.611 176.143 231.337 177.635 232.813C178.028 233.2 183.707 235.436 184.333 235.436H199.679V269.562L315.679 269.502L316.201 269.154L316.395 239.595L317.047 238.502C318.016 238.225 317.599 239.308 317.688 239.373L317.261 268.912L315.55 270.247C277.082 270.73 238.689 270.201 200.295 270.478C199.435 270.609 199.748 269.638 199.679 269.567C199.624 269.512 199.092 269.693 198.918 269.486C197.844 268.233 199.53 240.325 198.813 236.317H185.199C183.935 236.317 179.361 234.58 178.172 233.825C177.426 233.351 177.69 232.868 177.635 232.818C177.511 232.697 176.785 232.782 176.377 232.143C176.253 231.952 175.02 228.06 175.005 227.793C174.87 225.89 177.65 222.194 179.192 223.589C179.848 224.858 181.29 228.659 182.618 228.901C186.123 229.53 196.332 223.498 200.111 222.315C199.674 221.389 198.376 221.671 197.501 220.805C195.86 219.188 196.7 217.285 196.586 217.124C196.491 216.983 195.785 216.958 195.581 216.651C194.229 214.597 197.983 209.829 199.713 211.133L201.872 216.173C203.597 217.426 222.702 203.626 225.611 201.758C225.407 200.967 223.99 201.41 223.11 201.008C222.985 200.952 221.155 199.26 221.096 199.135C220.683 198.319 220.837 196.063 220.424 195.635L220.429 195.615Z" fill="#583C26"/>
<path d="M257.605 161.484C257.043 164.711 258.416 166.453 259.853 169.051C262.647 174.111 266.456 178.532 270.141 182.922C271.384 184.402 273.075 185.797 274.03 186.859C274.119 186.96 274.124 187.589 274.447 187.947C278.236 192.106 282.339 195.831 286.133 199.985C285.561 199.96 284.979 199.985 284.402 199.985C283.184 198.626 280.225 195.262 278.763 194.537C277.301 193.812 274.77 194.029 273.169 193.425L278.793 200.197C280.414 200.207 282.423 200.433 283.97 200.423C284.069 201.35 284.795 201.903 285.268 202.613C287.565 206.072 292.871 209.632 296.371 212.159C302.527 216.605 309.086 220.492 315.526 224.49C314.735 224.661 314.258 224.812 313.363 224.928C311.011 222.874 307.56 220.099 304.288 220.558L312.502 225.366V225.804C312.09 225.668 310.369 225.708 309.912 226.02C314.417 229.016 319.275 231.765 324.307 233.764C326.918 234.801 329.762 235.325 332.388 236.307C332.607 236.387 332.885 236.77 333.253 236.745C332.194 237.102 332.025 237.021 331.09 237.183C327.719 236.407 324.452 235.148 321.289 233.759C317.634 232.148 314.054 229.59 310.339 228.432C310.285 228.341 310.454 227.964 310.245 227.667C310.15 227.531 307.967 226.005 307.749 226.247C307.455 228.356 309.141 228.059 310.339 228.432C311.279 229.998 311.299 229.862 312.925 230.844C317.669 233.714 322.995 235.456 328.062 237.616C324.825 237.656 323.005 237.183 320.071 235.858C319.777 238.814 318.007 236.181 316.635 236.281C316.495 236.291 316.222 237.731 315.093 237.183C315.014 236.332 315.188 235.4 315.093 234.559C314.944 233.215 314.919 233.009 313.572 232.379H312.935C312.92 232.807 312.945 233.245 312.935 233.683C312.885 235.571 312.945 237.48 312.935 239.373C312.875 248.763 313.005 258.168 312.91 267.563L314.666 268.248C313.89 268.353 312.9 268.227 312.07 268.248V239.806C309.355 240.868 308.803 237.943 307.749 237.621L307.967 235.43C309.723 235.123 309.25 235.929 310.339 236.745C310.643 233.034 308.365 234.056 306.351 233.13C305.327 232.656 304.407 231.342 303.144 231.176C302.741 231.121 301.329 231.403 301.702 232.148C301.806 232.354 304.516 234.464 305.168 235.204C305.819 235.944 306.361 236.77 306.888 237.621C312.358 246.442 309.012 257.83 309.912 267.81C308.609 268.056 309.076 267.14 309.047 266.299C308.768 257.81 310.787 245.989 306.376 238.794C305.441 237.263 304.054 235.808 302.771 234.564L301.334 237.777C302.771 239.841 304.919 242.001 305.158 244.624H287.868C288.594 242.635 290.096 239.579 292.189 238.935C291.21 240.581 290.036 242.041 289.166 243.748H303.865L300.623 238.507L297.654 241.09C296.511 240.888 294.944 236.87 293.055 238.059C293.517 236.785 293.264 235.451 293.577 234.429C293.631 234.247 295.874 231.609 294.139 232.374C293.209 232.787 289.524 236.427 288.738 237.414C287.182 239.363 285.959 241.789 284.934 244.065L284.835 268.248H281.379L279.862 205.242L280.081 268.248C279.793 268.248 279.504 268.248 279.216 268.248C278.868 258.51 279.166 248.662 278.783 238.935C278.699 236.724 278.415 234.575 278.356 232.369C277.59 232.309 276.725 232.51 275.984 232.364C273.821 231.931 269.892 225.572 274.233 225.789C274.691 226.881 275.114 228.427 276.62 228.437C276.68 226.76 276.794 224.867 275.695 223.468C274.228 221.6 272.607 222.707 270.877 222.219C268.306 221.494 264.92 215.341 261.066 220.779C266.655 224.867 270.613 230.043 272.732 236.75V268.253C270.912 268.253 268.997 267.815 267.545 267.815L267.326 241.125H265.82V267.815C265.387 267.815 264.955 267.815 264.522 267.815V241.563H248.097V268.253C247.809 268.253 247.521 268.253 247.232 268.253L247.013 241.125H245.507V268.253C243.349 268.253 241.181 268.263 239.022 268.253C240.395 258.555 238.669 247.972 239.44 238.26C239.51 237.404 239.654 236.689 239.888 235.874C240.634 233.301 244.492 227.611 246.382 225.602C247.222 224.711 251.414 221.595 251.499 221.162C251.926 218.977 248.276 218.579 246.685 218.911C244.637 219.344 243.224 221.564 242.031 222.108C241.29 222.446 240.599 221.932 239.868 222.068C236.148 222.748 235.815 224.943 235.999 228.432C237.511 228.427 237.929 226.876 238.386 225.784L240.126 226.217C240.803 229.776 237.461 233.296 233.831 232.369C233.816 233.97 233.856 235.587 233.831 237.183L233.398 268.248C232.677 268.248 231.956 268.253 231.235 268.248C231.265 255.273 231.191 242.278 231.235 229.308C232.747 229.363 232.429 229.58 232.533 228.236C233.14 220.452 232.926 212.613 232.961 204.809C231.743 204.506 231.956 205.77 231.668 206.118C231.623 206.168 230.917 205.911 230.793 206.405C230.32 208.242 230.912 213.584 230.823 215.981C230.783 217.018 230.38 217.975 230.355 219.007C229.923 235.395 230.718 251.859 230.375 268.248C230.231 268.248 230.087 268.248 229.943 268.248C229.122 267.83 229.107 267.643 229.047 266.757C228.525 259.109 230.579 249.301 229.485 242.243C229.256 240.762 227.232 236.649 225.522 236.82C220.534 237.308 227.397 242.026 226.919 244.624H209.197L210.49 241.563L207.755 241.543C207.297 241.654 206.298 244.649 206.203 245.314C205.254 252.262 206.83 261.093 206.164 268.248C205.875 268.248 205.587 268.248 205.298 268.248L205.403 244.07C206.78 238.925 210.733 235.632 213.941 231.7C212.628 228.709 210.112 231.841 208.879 232.269C207.054 232.903 205.358 232.057 205.308 235.43C206.149 235.229 205.925 233.583 207.243 234.121C209.296 234.962 205.98 239.176 204.006 238.054V268.243C203.573 268.232 203.14 268.268 202.708 268.243C202.737 257.604 202.668 246.94 202.708 236.301C202.708 235.093 203.13 229.182 202.708 228.865L200.545 230.048C200.505 231.403 200.584 232.762 200.55 234.116H199.684V230.617C199.381 230.275 196.402 232.148 195.796 232.364C194.324 232.898 192.176 233.25 190.609 233.683C191.057 234.514 193.19 234.101 194.065 234.116C192.136 235.395 189.684 233.809 187.581 234.116C188.944 233.895 195.542 231.322 196.81 230.552C197.596 230.078 198.148 229.258 198.814 228.643L198.168 228.422L184.553 234.116C182.758 233.96 183.011 233.648 181.957 233.24C186.139 232.606 190.366 230.975 194.214 229.243C196.363 228.276 203.459 224.787 204.841 223.372C205.194 223.009 205.457 222.984 205.298 222.305H204.001C204.234 220.412 202.976 220.855 201.837 220.114C203.951 220.099 205.995 218.881 207.456 217.491L207.78 217.814C208.734 216.776 209.983 216.374 211.345 215.301C211.469 215.205 211.827 215.286 212.21 214.863C213.264 215.2 213.011 214.032 213.076 213.987C214.259 213.176 216.885 212.205 218.695 210.926C219.435 210.402 219.679 210.286 220.425 209.612C220.574 209.476 220.703 209.305 220.858 209.174C221.29 209.214 221.449 208.987 221.723 208.736C221.872 208.595 222.041 208.479 222.155 208.298L231.892 200.866L231.877 199.98C231.534 200.041 231.101 199.905 230.803 199.98V199.104C231.882 199.104 233.284 199.321 234.254 198.877L239.013 194.069C235.805 192.468 234.149 194.316 231.872 196.466C231.29 197.015 229.58 198.203 230.37 199.104C229.793 199.119 228.421 199.119 227.774 199.104C231.971 194.855 236.511 190.852 240.534 186.421C241.752 185.082 243.378 183.209 244.204 181.603C244.83 181.13 245.074 181.059 245.502 180.289C248.679 176.467 252.374 171.896 254.651 167.455C255.775 165.27 256.725 163.669 256.307 161.036C256.506 160.718 256.372 159.757 257.167 159.727C257.242 159.782 257.426 161.131 257.605 161.474V161.484ZM258.028 167.611C256.785 166.378 257.138 171.136 257.257 171.674C257.506 172.787 259.708 176.452 260.444 177.635C261.364 179.106 262.488 180.445 263.289 181.986L266.223 181.15C266.372 180.672 266.223 180.304 266.019 179.871C265.019 177.691 260.807 172.827 259.147 170.199C258.639 169.398 258.162 168.573 258.023 167.611H258.028ZM256.302 168.049C255.387 167.848 255.318 168.517 254.93 169.066C253.881 170.541 252.986 172.349 251.902 173.874C250.519 175.813 244.97 181.054 248.759 182.474C249.47 182.741 251.006 179.408 251.718 178.94C253.91 175.617 256.625 172.334 256.302 168.049ZM250.688 185.112L239.883 197.362L240.102 197.795L243.776 197.362C244.209 197.367 244.642 197.362 245.074 197.362C245.159 197.362 245.273 197.669 245.422 197.669C245.77 197.669 245.91 197.362 245.939 197.362C246.084 197.362 246.228 197.362 246.372 197.362C251.797 197.402 256.983 197.372 262.364 197.362C264.785 197.357 267.307 197.231 269.713 197.362C269.997 197.377 272.722 198.616 272.299 197.151C268.664 192.735 264.83 188.465 261.499 183.798C260.673 182.64 257.595 176.77 256.526 176.77C255.86 176.77 255.82 177.177 255.502 177.515C254.075 179.01 252.145 183.204 250.688 185.112ZM236.854 192.549C238.287 192.332 239.266 193.329 240.539 192.584C241.28 192.151 247.978 184.095 248.028 183.501C248.083 182.867 246.725 181.281 245.934 181.799L236.854 192.544V192.549ZM277.485 192.982L267.978 182.257C266.889 181.563 265.999 182.6 265.009 182.983C264.771 183.405 265.014 183.818 265.178 184.216C265.447 184.881 270.663 191.34 271.205 191.683C272.687 192.619 275.72 192.8 277.485 192.977V192.982ZM242.041 198.676C241.504 198.686 234.403 198.439 235.557 199.547C238.371 199.109 235.855 201.642 235.989 201.732C236.994 201.752 238.008 201.722 239.013 201.732C244.269 201.818 249.544 201.657 254.805 201.752L260.623 201.299H261.489L266.272 201.108L266.675 198.676C258.495 198.812 250.236 198.525 242.036 198.676H242.041ZM269.688 201.289L269.49 198.681L268.411 201.294L269.683 201.284L269.688 201.289ZM275.322 201.299C275.611 200.282 273.289 198.55 272.732 199.114C271.861 199.995 274.333 201.742 275.322 201.299ZM234.259 200.866C233.379 200.67 233.105 201.068 232.513 201.501C230.654 202.87 228.64 204.955 226.914 206.546C228.859 206.938 232.18 203.847 233.398 202.397C233.811 201.903 234.438 201.682 234.259 200.866ZM290.021 209.174L281.359 201.501L279.649 201.742C279.455 202.498 279.957 202.618 280.29 203.056C282.269 205.644 286.6 209.743 290.021 209.174ZM274.895 202.613C274.606 202.608 274.318 202.613 274.03 202.613C265.069 202.503 256.064 202.82 247.227 203.051C242.916 203.167 238.57 202.971 234.259 203.051V208.308C238.287 208.313 242.334 208.293 246.362 208.308C247.511 208.308 248.669 208.303 249.818 208.308C250.251 208.308 250.683 208.308 251.116 208.308C251.548 208.308 251.981 208.308 252.414 208.308C252.702 208.308 252.99 208.308 253.279 208.308C254.572 208.308 255.875 208.308 257.167 208.308C257.456 208.308 257.744 208.308 258.033 208.308C258.61 208.308 259.186 208.308 259.763 208.308C260.052 208.308 260.34 208.308 260.628 208.308C262.642 208.303 264.666 208.313 266.68 208.308C267.113 208.308 267.545 208.308 267.978 208.308C268.987 208.308 269.997 208.313 271.001 208.308C271.434 208.308 271.866 208.313 272.299 208.308C272.876 208.303 273.453 208.323 274.03 208.308C274.318 208.303 274.606 208.318 274.895 208.308C275.899 208.273 276.919 208.338 277.923 208.308C277.863 207.15 278.003 205.956 277.923 204.804C277.804 203.072 278.251 203.233 276.625 202.613C275.477 202.175 275.611 202.633 274.895 202.613ZM226.909 207.427L224.935 207.829L213.08 216.172C213.836 216.182 214.607 216.253 215.358 216.077C216.964 215.694 224.368 209.994 226.104 208.565C226.556 208.192 227.183 208.554 226.914 207.427H226.909ZM229.505 211.802C229.49 210.996 229.709 209.843 229.291 209.179C223.886 213.896 217.998 218.206 211.355 220.996C211.241 221.716 211.937 221.403 212.424 221.429C213.642 221.494 214.891 221.418 216.109 221.429C220.569 221.464 225.05 221.398 229.51 221.429C229.46 218.226 229.57 215.004 229.51 211.802H229.505ZM247.66 209.612H234.259V211.364H245.283C245.676 211.364 246.859 210.563 247.665 210.926V209.617L247.66 209.612ZM262.359 209.612H248.958V211.364H262.359V209.612ZM283.97 210.488C283.845 210.422 283.91 209.808 283.109 210.055V224.057C288.719 223.996 294.353 224.132 299.967 224.057C301.115 224.042 302.274 224.072 303.423 224.057C302.478 221.902 300.3 221.786 298.694 220.754C294.129 217.829 288.43 212.784 283.97 210.498V210.488ZM288.291 210.055C290.693 212.008 300.3 219.707 302.776 219.707C303.492 219.707 303.845 219.641 304.278 219.022L292.06 210.392L288.291 210.055ZM234.259 212.678C234.219 214.128 234.313 215.603 234.259 217.053C233.543 217.607 233.543 219.566 234.259 220.114C234.229 220.749 233.851 221.499 233.826 222.305C233.786 223.755 233.816 225.23 233.826 226.68C233.826 227.41 233.796 228.14 233.826 228.87C233.831 229.016 233.816 229.162 233.826 229.308C233.861 229.882 233.732 230.466 233.861 231.035C234.254 231.186 234.791 230.97 235.124 231.06C235.253 231.095 235.467 231.478 235.82 231.503C236.939 231.579 238.247 230.194 238.585 229.097L235.124 229.746C234.97 228.276 234.483 226.917 234.691 225.371C234.816 224.444 235.86 223.065 235.989 222.31C237.575 220.653 239.485 221.262 241.414 220.583C244.254 219.586 247.113 215.1 251.116 218.372C253.995 220.724 255.656 229.082 251.802 226.212C250.723 225.411 251.379 224.631 250.902 223.629C248.868 226.876 254.204 230.592 256.148 232.782C256.974 232.928 263.065 226.257 262.354 224.505C260.991 224.193 261.693 225.643 260.887 226.292C256.929 229.494 258.421 219.309 262.036 217.834C266.814 215.88 268.415 219.913 271.414 220.804C273.129 221.313 274.308 220.542 275.979 221.872C278.873 224.168 279.136 231.881 274.035 229.092C274.144 230.814 278.346 232.5 278.346 230.849V213.348C277.421 212.517 275.536 212.341 274.253 212.24C269.335 211.847 263.503 212.285 258.46 212.255C251.195 212.215 243.896 212.169 236.626 212.245C235.895 212.255 234.706 211.963 234.254 212.688L234.259 212.678ZM213.076 217.053L210.505 217.295L204.433 220.985C206.606 221.564 210.196 219.349 212.225 218.141C212.782 217.809 213.314 218.221 213.076 217.053ZM212.648 222.738C211.27 222.813 210.087 222.39 209.192 223.84C208.625 225.315 211.991 224.067 212.215 224.052C217.909 223.735 223.796 224.288 229.51 224.052V222.743C223.951 222.969 218.182 222.43 212.648 222.743V222.738ZM271.001 236.301C271.966 235.385 265.541 224.671 263.229 224.49L261.996 229.021L266.208 235.592L271.006 236.296L271.001 236.301ZM249.385 224.928C248.818 224.324 245.333 228.719 244.885 229.338C244.438 229.958 241.205 235.063 241.608 235.425C246.765 236.734 247.163 231.468 250.484 228.875L249.385 224.933V224.928ZM210.052 225.366C207.869 225.507 204.329 226.479 203.981 229.061C203.792 230.466 204.155 232.218 204.006 233.673C204.677 233.714 204.771 232.415 204.866 231.926C207.765 231.377 210.917 228.351 213.841 229.595C214.771 229.988 215.706 232.561 216.019 233.547L214.378 235.209L216.745 237.641C220.713 235.843 216.198 234.242 218.943 230.647C221.211 227.677 223.001 229.887 225.214 230.798C226.745 231.428 228.182 231.181 229.5 232.802V225.366C223.12 225.668 216.382 224.953 210.047 225.366H210.052ZM306.013 227.113C305.586 225.764 304.909 225.084 303.418 225.371C303.92 226.348 304.815 227.309 306.013 227.113ZM238.799 227.989V228.427C239.077 228.281 239.077 228.135 238.799 227.989ZM273.811 227.989V228.427C274.089 228.281 274.089 228.135 273.811 227.989ZM283.537 228.865C283.602 230.557 283.224 237.726 283.741 238.502C284.258 239.277 285.208 239 285.695 238.27L284.353 237.797C283.726 235.984 284.094 232.928 286.128 232.364C288.714 231.654 288.44 231.559 290.578 230.527C294.134 228.81 295.904 231.085 296.501 234.549C296.411 234.64 296.65 236.417 295.228 236.332L297.639 239.332L300.384 236.951L299.091 234.554C300.712 226.609 305.039 231.216 309.867 232.616L311.2 234.554C311.926 234.635 311.677 232.782 311.627 232.369C311.389 230.411 308.723 228.936 306.873 228.432C300.424 226.68 290.215 228.835 283.318 227.994C282.632 228.326 283.532 228.825 283.532 228.87L283.537 228.865ZM265.382 236.74C265.77 235.551 261.683 229.741 261.275 229.746L256.461 234.519L250.962 229.771C250.295 229.882 246.158 235.466 246.362 236.74H265.382ZM228.207 235.43C228.58 231.831 226.994 232.933 225.069 232.269C223.946 231.881 222.598 229.796 220.868 230.184L225.199 233.895C226.924 234.076 227.168 234.086 228.207 235.43ZM293.482 231.921L292.488 231.121C291.18 231.554 290.031 232.596 288.828 233.124C287.063 233.91 284.805 232.928 285.268 236.74C286.769 236.981 285.924 235.083 287.649 235.415L288.077 236.301L293.482 231.921ZM318.121 235.425L319.409 235.652L318.763 234.997H318.121V235.425ZM210.917 243.743H224.965C226.178 243.743 224.383 241.215 224.06 240.717C223.389 239.68 221.32 236.911 220.132 236.805C218.849 236.689 217.924 240.012 216.109 239.166C215.731 238.99 215.214 238.064 215.02 238.064C214.652 238.064 210.634 242.56 210.912 243.743H210.917ZM283.537 243.743C283.497 245.903 283.388 248.179 283.751 250.308C284.233 250.308 283.831 244.523 283.965 243.743C284.089 243.038 286.088 240.163 285.69 239.806L283.781 239.796C283.318 239.866 283.542 243.018 283.532 243.743H283.537Z" fill="#8E4721"/>
<path d="M284.836 268.242L284.935 244.06C285.96 241.784 287.178 239.358 288.739 237.409C289.525 236.427 293.21 232.782 294.14 232.369C295.87 231.604 293.632 234.247 293.578 234.423C293.264 235.445 293.518 236.78 293.056 238.054C292.857 238.602 292.29 238.758 292.19 238.93C290.097 239.574 288.59 242.63 287.869 244.619H305.159C304.925 241.991 302.772 239.836 301.335 237.772L302.772 234.559C304.055 235.808 305.437 237.258 306.377 238.789C310.788 245.988 308.769 257.805 309.047 266.294C309.077 267.135 308.605 268.051 309.913 267.804V268.242C308.476 268.258 307.029 268.232 305.592 268.242C305.338 261.667 305.93 254.875 305.592 248.32C305.542 247.328 305.363 247.685 304.508 247.675L304.289 268.242C303.856 268.242 303.423 268.242 302.991 268.242C303.07 265.483 302.881 262.684 302.991 259.93C303.12 256.602 303.851 252.695 303.443 249.191C303.369 248.551 303.389 248.068 302.772 247.68H290.883V268.242C290.45 268.242 290.017 268.242 289.585 268.242C289.401 261.919 289.833 255.529 289.585 249.206C289.56 248.617 289.943 247.383 288.943 247.675L288.725 268.242C287.432 268.242 286.129 268.242 284.836 268.242Z" fill="#773814"/>
<path d="M278.782 238.928C279.165 248.661 278.867 258.504 279.215 268.241C277.057 268.241 274.889 268.241 272.73 268.241V236.738L278.782 238.928Z" fill="#C7B698"/>
<path d="M239.877 235.863C239.643 236.674 239.494 237.389 239.429 238.25C238.664 247.962 240.389 258.545 239.012 268.242C237.142 268.232 235.262 268.252 233.393 268.242L233.825 237.177L239.877 235.863Z" fill="#C7B698"/>
<path d="M206.162 268.241C206.829 261.086 205.252 252.255 206.202 245.307C206.292 244.643 207.296 241.642 207.753 241.536L210.488 241.556L209.195 244.617H226.918C227.395 242.02 220.538 237.302 225.521 236.813C227.231 236.647 229.255 240.761 229.484 242.236C230.578 249.3 228.524 259.103 229.046 266.751C229.106 267.637 229.121 267.823 229.941 268.241C228.937 268.226 227.917 268.291 226.918 268.241V267.803C227.231 267.803 227.848 267.989 227.788 267.536C227.902 261.474 228.927 253.836 228.236 247.87C228.161 247.231 228.181 246.747 227.564 246.36H209.842C209.225 246.742 209.245 247.231 209.171 247.87C208.445 254.133 209.757 261.817 209.191 268.236C208.186 268.261 207.167 268.246 206.167 268.236L206.162 268.241Z" fill="#6C4327"/>
<path d="M209.191 268.244C209.753 261.824 208.445 254.136 209.171 247.878C209.246 247.238 209.226 246.755 209.842 246.367H227.565C228.181 246.75 228.161 247.238 228.236 247.878C228.927 253.844 227.903 261.477 227.788 267.544C227.848 267.997 227.226 267.811 226.918 267.811C226.361 261.703 227.669 254.272 226.918 248.331C226.839 247.691 226.59 246.971 226.053 247.686L226.043 267.549C225.988 267.997 226.605 267.811 226.918 267.811V268.249C226.202 268.213 225.471 268.279 224.755 268.249V247.681H212.224V268.249C211.941 268.274 211.642 268.218 211.359 268.249C211.066 265.711 211.926 248.2 210.926 247.686C210.504 247.465 209.847 247.586 210.056 248.331L210.494 268.249C210.066 268.274 209.628 268.239 209.196 268.249L209.191 268.244Z" fill="#8E4721"/>
<path d="M302.988 259.931C302.879 262.69 303.068 265.484 302.988 268.243H290.885V261.678C295.106 261.547 298.508 259.07 302.988 259.926V259.931Z" fill="#1A3849"/>
<path d="M205.296 268.242C204.863 268.236 204.431 268.252 203.998 268.242V238.053C205.972 239.175 209.289 234.956 207.235 234.12C205.912 233.582 206.141 235.228 205.301 235.429C205.356 232.056 207.046 232.902 208.871 232.268C210.104 231.835 212.621 228.708 213.933 231.699C210.726 235.626 206.773 238.924 205.395 244.069L205.291 268.247L205.296 268.242Z" fill="#A29B81"/>
<path d="M314.66 239.367C314.466 240.53 314.794 242.076 314.66 243.304H315.082L315.52 242.433C315.773 250.932 315.326 259.481 315.53 267.985C315.58 268.464 314.968 268.202 314.66 268.247L312.904 267.562C312.999 258.167 312.869 248.762 312.929 239.372H314.66V239.367Z" fill="#C48D66"/>
<path d="M307.743 237.617C308.797 237.939 309.354 240.865 312.069 239.802V268.244C311.348 268.259 310.627 268.234 309.906 268.244V267.806C309.001 257.827 312.348 246.438 306.883 237.617C307.151 237.662 307.524 237.547 307.748 237.617H307.743Z" fill="#A29B81"/>
<path d="M203.999 222.305H205.297C205.451 222.984 205.193 223.01 204.84 223.372C203.462 224.787 196.362 228.276 194.213 229.243C190.365 230.975 186.133 232.606 181.956 233.24C180.996 232.873 177.834 231.816 177.67 230.778C177.585 230.245 178.977 229.263 178.46 227.823L176.77 226.902C178.455 224.938 177.859 226.338 178.192 226.534C178.525 226.73 178.858 226.64 178.928 226.68C179.077 226.766 179.196 227.012 179.36 227.118C180.225 233.97 188.853 229.359 192.746 227.762C196.64 226.166 200.27 224.158 203.999 222.305Z" fill="#EFE7DE"/>
<path d="M280.08 268.244L279.861 205.238L281.378 268.244C280.945 268.244 280.513 268.244 280.08 268.244Z" fill="#EED8A6"/>
<path d="M264.516 262.551V267.802C259.25 267.802 253.532 268.235 248.092 268.24V266.926L264.516 262.551Z" fill="#1A3849"/>
<path d="M231.667 206.111C230.966 213.799 231.259 221.573 231.234 229.301C231.19 242.276 231.264 255.271 231.234 268.241C230.946 268.241 230.658 268.241 230.369 268.241C230.712 251.852 229.917 235.388 230.349 219C230.379 217.968 230.777 217.011 230.817 215.974C230.906 213.572 230.314 208.235 230.787 206.398C230.911 205.904 231.617 206.166 231.662 206.111H231.667Z" fill="#EED8A6"/>
<path d="M202.708 268.242C201.992 268.202 201.261 268.277 200.545 268.242C200.545 264.164 200.56 260.065 200.545 255.987L201.405 260.362C201.171 252.513 201.733 244.578 201.405 236.739L202.703 236.301C202.663 246.939 202.733 257.603 202.703 268.242H202.708Z" fill="#C48D66"/>
<path d="M245.502 268.241V241.113H247.014L247.232 268.241C246.656 268.241 246.079 268.241 245.502 268.241Z" fill="#AA6F49"/>
<path d="M265.812 267.803V241.113H267.324L267.543 267.803C267.394 267.803 266.971 268.196 266.469 268.196C266.116 268.196 265.877 267.803 265.812 267.803Z" fill="#AA6F49"/>
<path d="M304.287 268.243L304.506 247.676C305.361 247.686 305.535 247.328 305.59 248.32C305.923 254.876 305.336 261.668 305.59 268.243C305.157 268.243 304.725 268.243 304.292 268.243H304.287Z" fill="#AA6F49"/>
<path d="M310.341 228.426C309.143 228.053 307.457 228.35 307.75 226.241C307.969 225.999 310.152 227.525 310.247 227.661C310.456 227.963 310.287 228.335 310.341 228.426C314.051 229.584 317.631 232.142 321.291 233.753C324.453 235.147 327.72 236.401 331.092 237.176C329.973 237.368 329.496 237.594 328.068 237.614C323.001 235.455 317.676 233.707 312.932 230.843C311.306 229.861 311.286 229.997 310.346 228.431L310.341 228.426Z" fill="#583C26"/>
<path d="M201.409 236.741C201.732 244.58 201.175 252.515 201.409 260.364L200.549 255.989C200.529 249.001 200.454 241.972 200.549 234.989L200.981 234.551L201.354 234.828C201.513 235.457 201.389 236.107 201.414 236.736L201.409 236.741Z" fill="#EED8A6"/>
<path d="M288.724 268.244L288.943 247.677C289.947 247.385 289.564 248.618 289.584 249.207C289.833 255.531 289.4 261.92 289.584 268.244C289.296 268.244 289.007 268.244 288.719 268.244H288.724Z" fill="#AA6F49"/>
<path d="M210.918 247.682V268.245C210.774 268.245 210.63 268.235 210.486 268.245L210.048 248.327C209.839 247.577 210.491 247.461 210.918 247.682Z" fill="#AA6F49"/>
<path d="M184.553 234.116L198.168 228.422L198.814 228.643C198.148 229.258 197.596 230.073 196.81 230.552C195.537 231.322 188.944 233.895 187.581 234.116C186.84 234.237 185.353 234.187 184.558 234.116H184.553Z" fill="#CDC9C5"/>
<path d="M336.27 230.18C337.101 229.596 337.703 228.836 338.429 229.964C334.47 231.681 339.219 233.317 336.415 235.361C335.52 236.011 334.286 236.393 333.242 236.746C332.879 236.771 332.596 236.388 332.377 236.308L333.68 236.086C333.71 235.487 332.82 234.818 332.377 234.561C334.838 233.921 335.544 232.406 336.266 230.185L336.27 230.18Z" fill="#BC8C39"/>
<path d="M200.544 234.119C200.574 232.769 200.5 231.405 200.539 230.05L202.702 228.867C203.13 229.184 202.712 235.095 202.702 236.304L201.405 236.742C201.38 236.107 201.504 235.463 201.345 234.833L200.972 234.557H200.539C200.539 234.411 200.539 234.265 200.539 234.119H200.544Z" fill="#BC8C39"/>
<path d="M195.788 232.363C196.395 232.142 199.378 230.274 199.677 230.616V234.115C197.956 234.115 196.216 234.135 194.49 234.115L195.788 232.363Z" fill="#583C26"/>
<path d="M315.093 234.556C315.188 235.402 315.014 236.333 315.093 237.179C315.148 237.753 315.053 238.352 315.093 238.931C314.984 239.072 314.681 239.248 314.661 239.369H312.93C312.94 237.481 312.88 235.568 312.93 233.68L315.093 234.556Z" fill="#97541B"/>
<path d="M211.347 268.242C211.202 268.252 211.058 268.242 210.914 268.242V247.68C211.914 248.198 211.053 265.704 211.347 268.242Z" fill="#583C26"/>
<path d="M195.79 232.363L194.492 234.115C194.348 234.115 194.204 234.115 194.059 234.115C193.184 234.105 191.051 234.513 190.604 233.682C192.17 233.254 194.318 232.897 195.79 232.363Z" fill="#CDC9C5"/>
<path d="M315.524 242.429L315.086 243.3H314.663C314.793 242.076 314.465 240.531 314.663 239.368C314.683 239.247 314.987 239.071 315.096 238.93C315.161 239.861 315.489 241.049 315.529 242.429H315.524Z" fill="#EED8A6"/>
<path d="M200.545 234.993C200.545 234.847 200.545 234.701 200.545 234.555H200.978L200.545 234.993Z" fill="#C48D66"/>
<path d="M223.884 193.862C224.029 193.947 224.461 193.812 224.755 194.063C225.277 194.511 225.237 196.289 226.251 196.047C235.858 187.352 245.242 177.69 251.89 166.427C252.457 165.47 255.868 159.499 255.868 159.081V146.172H257.166V157.329C257.166 158.88 263.7 169.68 265.028 171.683C271.248 181.089 279.294 189.889 287.648 197.356H288.279C288.279 195.463 289.1 195.926 289.582 195.614C289.408 196.817 288.782 198.162 287.419 198.237C283.252 194.889 278.394 190.614 274.883 186.425C274.814 186.34 274.953 186.083 274.883 185.987C274.371 185.303 273.978 184.603 273.153 184.235C271.731 182.262 270.179 180.207 268.399 178.546C265.231 172.862 260.736 167.469 257.594 161.483C257.415 161.135 257.231 159.791 257.156 159.736C256.365 159.766 256.495 160.733 256.296 161.045C252.939 166.437 249.821 172.217 245.923 177.232C243.665 180.137 240.433 182.82 238.573 185.982C235.655 188.595 229.543 195.664 226.47 196.923C224.615 197.19 224.317 195.211 223.874 193.862C223.84 193.842 223.502 193.897 223.129 193.726C222.999 193.666 223.059 192.029 221.716 193.65C221.383 194.486 224.173 194.889 223.437 196.485C223.153 196.515 222.855 196.455 222.577 196.485C222.606 197.23 222.293 198.237 223.009 198.675C223.835 199.4 226.545 199.088 227.763 199.113C228.409 199.128 229.782 199.128 230.359 199.113C230.503 199.113 230.647 199.113 230.791 199.113V199.989C229.295 200.377 224.665 204.918 223.009 206.117C221.448 207.245 219.762 208.543 218.255 209.616C216.838 210.623 214.611 211.635 213.069 212.677C211.935 213.447 210.672 213.946 209.613 214.867C209.459 215.003 209.33 215.164 209.18 215.305C206.346 216.04 200.419 220.829 200.105 215.305C201.781 215.874 200.533 217.073 202.477 217.088C204.422 217.103 212.557 211.826 214.596 210.497C219.27 207.461 223.492 203.831 228.201 200.855C228.315 200.14 227.619 200.442 227.132 200.422C224.561 200.306 221.493 200.936 221.701 197.145C221.756 196.128 221.766 196.586 222.582 196.485C222.572 196.193 222.601 195.901 222.582 195.609H220.419C220.145 193.615 221.498 192.447 222.8 191.239C223.671 190.876 223.671 193.233 223.874 193.862H223.884Z" fill="#1A1612"/>
<path d="M290.02 195.179C290.125 195.118 290.378 195.239 290.577 195.143C290.682 195.093 291.502 193.195 292.179 194.962C292.581 196.02 290.871 195.289 290.508 196.322C289.757 198.446 291.985 198.084 291.114 199.564C290.08 201.326 288.295 200.027 287.43 199.987L288.733 199.765C288.747 199.066 287.927 198.638 287.43 198.24C288.787 198.164 289.419 196.815 289.593 195.617C289.792 195.486 289.921 195.244 290.025 195.179H290.02Z" fill="#C49343"/>
<path d="M198.378 217.053L197.956 215.931L196.22 216.177C195.977 214.304 197.339 212.487 199.025 211.797C199.398 211.787 199.279 213.947 199.244 214.425L198.165 213.625L197.086 214.647L198.811 215.301C198.776 215.749 199.413 216.827 199.244 217.048C199.169 217.149 198.503 216.953 198.378 217.048C198.155 217.235 197.846 218.735 198.329 219.042C199.303 219.888 200.591 220.12 201.839 220.109C202.978 220.845 204.236 220.406 204.002 222.3C200.273 224.147 196.608 226.171 192.749 227.757C188.891 229.343 180.229 233.965 179.363 227.113C179.458 227.173 179.92 226.987 180.124 227.204C181.009 228.14 180.741 230.204 183.267 229.998C185.564 229.812 190.815 227.44 193.182 226.443C196.365 225.104 200.089 223.568 202.705 221.429C199.95 221.328 197.22 221.121 197.11 217.758L198.383 217.048L198.378 217.053Z" fill="#1A1612"/>
<path d="M200.113 215.3C200.431 220.823 206.358 216.035 209.188 215.3C208.636 215.819 208.004 216.967 207.457 217.49C205.995 218.88 203.952 220.103 201.838 220.113C200.59 220.124 199.307 219.887 198.328 219.046C197.845 218.744 198.154 217.239 198.377 217.052C198.502 216.952 199.163 217.148 199.243 217.052C199.412 216.826 198.78 215.753 198.81 215.305C198.82 215.174 199.238 214.963 199.243 214.867C199.536 214.983 199.815 215.205 200.108 215.305L200.113 215.3Z" fill="#EFE7DE"/>
<path d="M199.246 214.426C199.236 214.572 199.251 214.718 199.246 214.864C199.246 214.959 198.823 215.171 198.813 215.302L197.088 214.647L198.167 213.625L199.246 214.426Z" fill="#BF9EAB"/>
<path d="M248.092 262.555V241.555H264.516V257.742C259.051 259.358 253.925 262.243 248.092 262.555Z" fill="#1A1612"/>
<path d="M258.464 212.24C258.599 213.257 258.236 213.569 257.579 214.189C256.132 215.558 252.955 217.527 251.115 218.368C247.107 215.095 244.253 219.576 241.413 220.578C239.484 221.258 237.575 220.648 235.988 222.305C236.461 219.465 236.058 215.669 236.854 212.683H234.258C234.705 211.958 235.899 212.245 236.63 212.235C243.9 212.16 251.199 212.2 258.464 212.245V212.24Z" fill="#ADA344"/>
<path d="M210.049 225.366C216.384 224.954 223.122 225.669 229.502 225.366V232.803C228.184 231.182 226.742 231.428 225.216 230.799C222.998 229.888 221.213 227.677 218.945 230.648C216.2 234.243 220.715 235.849 216.747 237.641L214.38 235.21L216.021 233.548C215.708 232.561 214.773 229.993 213.843 229.596C210.914 228.357 207.767 231.383 204.868 231.927C205.037 231.041 204.54 229.983 205.261 229.042C205.847 228.272 209.582 227.395 210.054 225.366H210.049Z" fill="#ABA746"/>
<path d="M272.732 236.741C270.614 230.035 266.656 224.859 261.066 220.771C264.915 215.333 268.307 221.486 270.877 222.211C272.608 222.699 274.229 221.587 275.696 223.459C276.795 224.859 276.68 226.752 276.621 228.429C275.109 228.424 274.691 226.873 274.234 225.781C269.893 225.569 273.826 231.923 275.984 232.356C276.725 232.507 277.59 232.306 278.356 232.361C278.421 234.566 278.699 236.716 278.784 238.927L272.732 236.736V236.741Z" fill="#A29B81"/>
<path d="M239.877 235.862L233.826 237.176C233.851 235.575 233.811 233.959 233.826 232.363C237.456 233.289 240.802 229.775 240.121 226.21L238.381 225.777C237.923 226.87 237.5 228.415 235.994 228.425C235.805 224.936 236.138 222.736 239.862 222.061C240.593 221.925 241.285 222.439 242.026 222.102C243.219 221.558 244.636 219.333 246.68 218.905C248.271 218.572 251.921 218.965 251.493 221.155C251.409 221.593 247.217 224.71 246.377 225.596C244.487 227.605 240.628 233.294 239.882 235.867L239.877 235.862Z" fill="#A29B81"/>
<path d="M274.028 202.614V208.303C273.451 208.318 272.875 208.298 272.298 208.303C271.771 206.526 271.915 204.849 272.079 203.047C270.095 203.616 271.313 206.788 271.005 208.303C269.995 208.308 268.986 208.303 267.981 208.303C267.942 207.07 268.041 205.816 267.981 204.577C267.957 204.034 268.32 202.699 267.34 203.047L266.689 208.298C264.675 208.303 262.651 208.293 260.637 208.298C260.602 207.065 260.687 205.811 260.637 204.572C260.612 203.983 260.995 202.755 259.996 203.047L259.777 208.298C259.2 208.298 258.623 208.298 258.046 208.298C258.011 207.065 258.096 205.811 258.046 204.572C258.021 203.983 258.404 202.755 257.405 203.047L257.186 208.298C255.893 208.298 254.59 208.298 253.297 208.298C253.263 207.065 253.347 205.811 253.297 204.572C253.273 203.983 253.655 202.755 252.656 203.047L252.437 208.298C252.005 208.298 251.572 208.298 251.139 208.298C251.08 206.773 251.219 205.217 251.139 203.691C251.09 202.699 250.911 203.057 250.055 203.047L249.837 208.298C248.688 208.293 247.529 208.298 246.381 208.298C245.893 206.264 247.569 204.995 247.246 203.047C256.077 202.815 265.082 202.498 274.048 202.609L274.028 202.614Z" fill="#BC8C39"/>
<path d="M283.97 210.488C288.371 216.026 294.81 219.329 299.962 224.052C294.348 224.127 288.714 223.991 283.1 224.052V210.05C283.905 209.803 283.841 210.423 283.965 210.483L283.97 210.488Z" fill="#78711E"/>
<path d="M254.144 185.112C254.899 184.146 256.511 183.139 256.744 181.613L257.639 181.895C257.664 182.781 258.599 182.993 258.897 183.36C260.056 184.77 261.125 186.844 262.373 188.375C264.83 191.381 267.828 193.954 269.703 197.362C267.296 197.231 264.775 197.357 262.353 197.362C261.816 195.53 260.22 193.254 258.907 191.879C256.933 189.815 254.626 189.332 252.846 187.298C253.159 186.885 253.8 185.545 254.144 185.107V185.112Z" fill="#949043"/>
<path d="M262.358 197.362C256.972 197.372 251.791 197.402 246.366 197.362L246.326 195.383C248.773 192.931 250.772 190.046 252.85 187.297C254.635 189.331 256.938 189.814 258.912 191.879C260.225 193.248 261.821 195.529 262.358 197.362Z" fill="#A4984A"/>
<path d="M306.88 228.428C307.998 230.134 310.022 231.177 311.633 232.365C311.683 232.778 311.932 234.631 311.206 234.55L309.873 232.612C305.04 231.217 300.718 226.605 299.097 234.55H296.502C295.905 231.086 294.135 228.81 290.579 230.527C288.441 231.559 288.715 231.65 286.129 232.365L286.069 231.534L284.881 231.464L284.185 228.438L283.538 228.861C283.538 228.815 282.638 228.312 283.324 227.985C290.226 228.83 300.43 226.67 306.88 228.423V228.428Z" fill="#937718"/>
<path d="M265.383 236.739H246.363C246.159 235.466 250.296 229.882 250.962 229.771L256.462 234.519L261.276 229.746C261.683 229.746 265.766 235.551 265.383 236.739Z" fill="#A29B81"/>
<path d="M264.516 257.738V262.552L248.092 266.927V262.552C253.925 262.239 259.051 259.354 264.516 257.738Z" fill="#261A11"/>
<path d="M242.041 198.678C250.241 198.526 258.5 198.818 266.68 198.678L266.277 201.109L261.494 201.301V199.116H260.847L260.628 201.306L254.811 201.759C249.55 201.663 244.274 201.824 239.018 201.739C239.41 200.752 240.32 200.208 241.355 200.404C241.757 200.48 241.37 201.799 242.474 201.301L242.046 198.678H242.041Z" fill="#AA6F49"/>
<path d="M247.226 203.052C247.55 205.001 245.874 206.27 246.361 208.304C242.333 208.289 238.286 208.314 234.258 208.304V203.047C238.569 202.967 242.915 203.163 247.226 203.047V203.052Z" fill="#D5A547"/>
<path d="M210.918 243.742C210.64 242.559 214.658 238.057 215.025 238.062C215.219 238.062 215.737 238.989 216.114 239.165C217.929 240.011 218.854 236.688 220.137 236.804C221.326 236.909 223.394 239.684 224.066 240.716C224.389 241.214 226.184 243.742 224.971 243.742H210.923H210.918Z" fill="#A29B81"/>
<path d="M229.503 211.801C229.562 215.003 229.458 218.225 229.503 221.427C225.042 221.397 220.562 221.463 216.102 221.427L229.503 211.801Z" fill="#998B35"/>
<path d="M254.145 185.112C253.802 185.55 253.161 186.884 252.847 187.302C250.769 190.051 248.765 192.936 246.323 195.388L246.363 197.367C246.219 197.367 246.075 197.367 245.931 197.367H245.065C244.633 197.367 244.2 197.372 243.767 197.367C242.475 197.347 241.172 197.382 239.879 197.367L250.684 185.117C251.888 185.339 253.121 184.412 254.14 185.117L254.145 185.112Z" fill="#D5A547"/>
<path d="M293.049 238.055C294.938 236.867 296.5 240.885 297.648 241.086L300.617 238.503L303.859 243.745H289.16C290.035 242.038 291.209 240.578 292.183 238.931C292.283 238.76 292.85 238.604 293.049 238.055Z" fill="#A29B81"/>
<path d="M285.268 202.614C291.14 206.315 296.461 211.023 302.244 214.96C304.507 216.501 312.771 222.245 314.884 222.331C317.803 222.452 317.654 217.1 319.847 219.667L318.301 220.07C317.326 221.374 319.206 222.809 318.803 223.61C318.141 224.924 316.486 224.279 315.526 224.486C309.086 220.483 302.527 216.601 296.371 212.155C292.871 209.628 287.565 206.068 285.268 202.609V202.614Z" fill="#BC8C39"/>
<path d="M271.001 236.303L266.202 235.598L261.99 229.027L263.223 224.496C265.536 224.677 271.96 235.391 270.996 236.308L271.001 236.303Z" fill="#6C4327"/>
<path d="M277.486 192.98C275.721 192.804 272.688 192.618 271.206 191.687C270.659 191.344 265.447 184.879 265.179 184.22C265.015 183.822 264.771 183.409 265.01 182.986C265.999 182.604 266.89 181.567 267.979 182.261L277.486 192.986V192.98Z" fill="#6C4327"/>
<path d="M244.205 181.614C243.379 183.221 241.753 185.093 240.535 186.433C236.517 190.863 231.977 194.866 227.775 199.116C226.557 199.09 223.847 199.403 223.021 198.677L223.892 196.925C225.17 197.671 225.418 197.363 226.482 196.925C229.555 195.667 235.667 188.603 238.586 185.985C240.361 184.394 242.39 182.984 244.205 181.609V181.614Z" fill="#E1BD72"/>
<path d="M258.027 167.61C258.167 168.571 258.644 169.397 259.151 170.198C260.812 172.826 265.019 177.689 266.023 179.869C266.222 180.302 266.371 180.665 266.227 181.148L263.293 181.984C262.493 180.443 261.369 179.104 260.449 177.634C259.708 176.451 257.51 172.785 257.262 171.673C257.142 171.134 256.789 166.376 258.032 167.61H258.027Z" fill="#845331"/>
<path d="M236.854 192.55L245.933 181.806C246.724 181.287 248.082 182.868 248.027 183.508C247.977 184.097 241.279 192.157 240.538 192.59C239.265 193.336 238.286 192.339 236.854 192.555V192.55Z" fill="#AA6F49"/>
<path d="M312.497 225.804C312.562 225.824 312.91 226.514 313.477 226.766C315.863 227.808 318.191 229.168 320.488 230.19C323.81 231.665 329.886 233.08 332.382 234.56C332.82 234.822 333.715 235.486 333.685 236.085L332.382 236.307C329.762 235.325 326.917 234.802 324.302 233.764C319.27 231.766 314.406 229.022 309.906 226.021C310.364 225.709 312.084 225.668 312.497 225.804Z" fill="#EED8A6"/>
<path d="M249.388 224.929L250.487 228.872C247.17 231.47 246.768 236.731 241.611 235.422C241.208 235.059 244.421 229.979 244.888 229.335C245.355 228.69 248.821 224.32 249.388 224.924V224.929Z" fill="#6C4327"/>
<path d="M256.304 168.047C256.633 172.331 253.918 175.614 251.72 178.937C251.009 179.405 249.472 182.738 248.761 182.472C244.972 181.052 250.521 175.81 251.904 173.872C252.993 172.346 253.888 170.534 254.932 169.064C255.32 168.52 255.389 167.85 256.304 168.047Z" fill="#AA6F49"/>
<path d="M229.503 211.803L216.102 221.429C214.884 221.419 213.636 221.495 212.418 221.429C211.93 221.404 211.234 221.716 211.348 220.996C217.997 218.207 223.879 213.897 229.285 209.18C229.702 209.839 229.483 210.997 229.498 211.803H229.503Z" fill="#D5A547"/>
<path d="M261.491 183.798C260.75 183.597 259.343 182.484 258.895 183.36C258.597 182.993 257.662 182.781 257.637 181.895L256.742 181.613C256.508 183.134 254.897 184.141 254.141 185.112C253.122 184.407 251.884 185.334 250.686 185.112C252.138 183.204 254.067 179.01 255.499 177.515C255.817 177.177 255.857 176.77 256.523 176.77C257.592 176.77 260.671 182.645 261.496 183.798H261.491Z" fill="#BC8C39"/>
<path d="M268.411 178.547C268.908 179.439 268.938 180.446 269.311 181.271C269.49 181.674 270.584 181.76 270.141 182.923C266.457 178.537 262.648 174.117 259.853 169.052C258.416 166.449 257.044 164.712 257.605 161.484C260.748 167.471 265.248 172.863 268.411 178.547Z" fill="#D5A547"/>
<path d="M231.666 206.113C231.955 205.766 231.741 204.502 232.959 204.804C232.919 212.608 233.138 220.447 232.531 228.231C232.427 229.575 232.745 229.359 231.234 229.304C231.258 221.575 230.965 213.801 231.666 206.113Z" fill="#AA6F49"/>
<path d="M261.491 183.801C264.823 188.468 268.657 192.738 272.292 197.154C272.714 198.619 269.989 197.38 269.706 197.365C267.831 193.956 264.833 191.379 262.376 188.378C261.128 186.852 260.059 184.773 258.9 183.363C259.348 182.487 260.75 183.6 261.496 183.801H261.491Z" fill="#D5A547"/>
<path d="M284.399 199.99C284.101 199.99 283.996 200.428 283.966 200.428C282.42 200.438 280.411 200.212 278.79 200.202L273.166 193.43C274.772 194.034 277.328 193.838 278.76 194.542C280.192 195.247 283.186 198.631 284.399 199.99Z" fill="#583C26"/>
<path d="M288.289 210.055L292.058 210.392L304.276 219.022C303.843 219.641 303.495 219.706 302.774 219.706C300.303 219.706 290.696 212.008 288.289 210.055Z" fill="#583C26"/>
<path d="M245.503 180.299C245.582 180.153 245.363 179.629 245.512 179.297C245.672 178.94 247.367 178.592 245.935 177.238C249.834 172.223 252.951 166.443 256.308 161.051C256.731 163.684 255.776 165.285 254.652 167.47C252.375 171.906 248.68 176.483 245.503 180.304V180.299Z" fill="#E1BD72"/>
<path d="M283.971 210.489C288.431 212.775 294.13 217.82 298.695 220.745C300.301 221.778 302.479 221.893 303.423 224.048C302.275 224.068 301.116 224.038 299.968 224.048C294.816 219.326 288.376 216.023 283.976 210.484L283.971 210.489Z" fill="#E49C1E"/>
<path d="M274.895 186.427C278.405 190.616 283.263 194.896 287.43 198.239C287.923 198.636 288.743 199.064 288.733 199.764L287.43 199.986C286.998 199.966 286.565 200.001 286.133 199.986C282.343 195.832 278.236 192.106 274.447 187.947C274.119 187.59 274.119 186.961 274.029 186.86L274.895 186.422V186.427Z" fill="#EED8A6"/>
<path d="M230.369 199.114C229.578 198.213 231.289 197.025 231.871 196.476C234.148 194.326 235.804 192.474 239.011 194.08L234.253 198.888C233.283 199.331 231.881 199.109 230.802 199.114C230.657 199.114 230.513 199.114 230.369 199.114Z" fill="#AA6F49"/>
<path d="M262.358 209.609H248.957V211.361H262.358V209.609Z" fill="#AA6F49"/>
<path d="M234.257 212.68H236.853C236.057 215.67 236.465 219.467 235.987 222.306C235.863 223.062 234.819 224.446 234.689 225.367H234.257C234.302 224.446 234.535 222.87 233.824 222.306C233.849 221.506 234.227 220.756 234.257 220.116C234.307 219.099 234.217 218.072 234.257 217.055C234.312 215.605 234.217 214.13 234.257 212.68Z" fill="#EABF68"/>
<path d="M290.02 209.173C286.598 209.742 282.272 205.644 280.288 203.056C279.955 202.618 279.453 202.497 279.647 201.742L281.357 201.5L290.02 209.173Z" fill="#583C26"/>
<path d="M247.659 209.614V210.923C246.858 210.561 245.675 211.361 245.282 211.361H234.258V209.609H247.659V209.614Z" fill="#AA6F49"/>
<path d="M212.647 222.737C218.182 222.425 223.95 222.963 229.51 222.737V224.046C223.796 224.282 217.908 223.734 212.215 224.046L212.647 222.732V222.737Z" fill="#97541B"/>
<path d="M306.877 237.614C306.35 236.764 305.823 235.953 305.157 235.198C304.491 234.442 301.795 232.348 301.691 232.142C301.318 231.396 302.73 231.119 303.133 231.17C304.396 231.336 305.316 232.65 306.34 233.123C308.354 234.05 310.632 233.028 310.328 236.738C309.239 235.923 309.712 235.117 307.956 235.424L307.738 237.614C307.514 237.544 307.146 237.66 306.872 237.614H306.877Z" fill="#A17E4A"/>
<path d="M226.91 207.426C227.178 208.554 226.557 208.191 226.099 208.564C224.364 209.994 216.96 215.693 215.354 216.076C214.603 216.252 213.832 216.186 213.076 216.171L224.931 207.829L226.905 207.426H226.91Z" fill="#AA6F49"/>
<path d="M230.804 199.992C231.102 199.917 231.54 200.053 231.878 199.992L231.893 200.878L222.156 208.31C222.47 207.816 222.768 206.729 223.021 206.12C224.677 204.921 229.302 200.38 230.804 199.992Z" fill="#DBB569"/>
<path d="M293.483 231.922L288.078 236.302L287.65 235.416C285.93 235.084 286.77 236.977 285.268 236.74C284.806 232.934 287.058 233.91 288.829 233.125C290.027 232.591 291.181 231.549 292.488 231.121L293.483 231.922Z" fill="#A29B81"/>
<path d="M242.039 198.676L242.466 201.299C241.357 201.797 241.75 200.478 241.347 200.403C240.313 200.211 239.403 200.755 239.01 201.737C238.006 201.722 236.991 201.752 235.987 201.737C235.858 201.646 238.369 199.114 235.554 199.552C234.401 198.444 241.501 198.691 242.039 198.681V198.676Z" fill="#CA772C"/>
<path d="M299.1 234.556L300.393 236.952L297.648 239.334L295.236 236.333C296.654 236.424 296.42 234.641 296.509 234.551H299.105L299.1 234.556Z" fill="#BC8C39"/>
<path d="M276.619 202.616L275.759 202.833L277.917 204.801C277.997 205.954 277.862 207.147 277.917 208.305C276.913 208.331 275.893 208.265 274.889 208.305V202.616C275.6 202.636 275.47 202.178 276.619 202.616Z" fill="#BC8C39"/>
<path d="M210.052 225.367C209.579 227.396 205.845 228.272 205.258 229.043C204.537 229.989 205.039 231.041 204.865 231.928C204.771 232.416 204.676 233.715 204.005 233.675C204.149 232.215 203.791 230.462 203.98 229.063C204.328 226.48 207.869 225.508 210.052 225.367Z" fill="#E49C1E"/>
<path d="M245.93 177.238C247.362 178.593 245.671 178.94 245.507 179.298C245.358 179.63 245.577 180.153 245.497 180.299C245.074 181.07 244.826 181.14 244.199 181.614C242.384 182.988 240.355 184.398 238.58 185.989C240.44 182.827 243.672 180.143 245.93 177.238Z" fill="#EED8A6"/>
<path d="M283.537 228.864L284.183 228.441L284.879 231.467L286.068 231.538L286.128 232.369C284.094 232.927 283.726 235.989 284.352 237.801L285.695 238.274C285.208 239.005 284.283 239.312 283.741 238.506C283.199 237.7 283.601 230.561 283.537 228.869V228.864Z" fill="#D5A547"/>
<path d="M273.164 184.235C273.706 184.985 273.89 186.209 274.894 185.987C274.964 186.078 274.825 186.34 274.894 186.425L274.029 186.863C273.074 185.801 271.384 184.406 270.141 182.926C270.578 181.763 269.489 181.677 269.31 181.275C268.942 180.449 268.907 179.442 268.41 178.551C270.19 180.207 271.742 182.266 273.164 184.24V184.235Z" fill="#C7B698"/>
<path d="M313.363 224.928C313.144 224.958 312.791 225.311 312.498 225.366L304.283 220.558C307.555 220.1 311.011 222.874 313.358 224.928H313.363Z" fill="#583C26"/>
<path d="M213.074 217.055C213.313 218.218 212.781 217.81 212.224 218.142C210.195 219.351 206.605 221.566 204.432 220.987L210.503 217.296L213.074 217.055Z" fill="#845331"/>
<path d="M228.207 235.43C227.167 234.08 226.919 234.075 225.198 233.894L220.867 230.183C222.603 229.801 223.945 231.88 225.069 232.268C226.998 232.933 228.585 231.835 228.207 235.43Z" fill="#A29B81"/>
<path d="M234.255 200.868C234.434 201.684 233.807 201.905 233.394 202.399C232.176 203.854 228.849 206.945 226.91 206.547C228.641 204.956 230.65 202.867 232.509 201.502C233.101 201.069 233.375 200.672 234.255 200.868Z" fill="#AA6F49"/>
<path d="M218.266 209.609C218.162 209.977 218.674 209.977 218.699 210.047C218.774 210.254 218.649 210.652 218.699 210.923C216.889 212.202 214.264 213.174 213.08 213.985C213.015 214.03 213.274 215.198 212.215 214.861C212.319 214.745 211.996 213.748 213.08 213.985V212.671C214.622 211.623 216.849 210.616 218.266 209.609Z" fill="#E1BD72"/>
<path d="M223.019 206.113C222.765 206.717 222.467 207.805 222.154 208.303C222.039 208.48 221.875 208.6 221.721 208.741C221.288 208.701 221.129 208.943 220.856 209.18C220.702 209.31 220.577 209.482 220.423 209.618L218.693 210.056C218.668 209.985 218.156 209.985 218.26 209.618C219.767 208.54 221.453 207.246 223.014 206.118L223.019 206.113Z" fill="#EED8A6"/>
<path d="M249.82 208.302L250.039 203.051C250.894 203.061 251.068 202.703 251.123 203.695C251.203 205.226 251.063 206.777 251.123 208.302C250.691 208.302 250.258 208.302 249.825 208.302H249.82Z" fill="#D5A547"/>
<path d="M266.679 208.301L267.33 203.049C268.31 202.702 267.947 204.031 267.972 204.58C268.031 205.818 267.932 207.067 267.972 208.306C267.539 208.306 267.106 208.306 266.674 208.306L266.679 208.301Z" fill="#D5A547"/>
<path d="M283.536 243.744C283.551 243.024 283.322 239.867 283.784 239.797L285.694 239.807C286.092 240.159 284.093 243.039 283.968 243.744H283.536Z" fill="#A29B81"/>
<path d="M235.124 229.742C235.169 230.17 235.095 230.624 235.124 231.057C234.791 230.971 234.254 231.187 233.861 231.031C233.737 230.462 233.861 229.878 233.827 229.304L234.249 229.088L233.827 228.871C233.797 228.146 233.827 227.411 233.827 226.681C234.393 226.47 234.234 225.845 234.259 225.367H234.692C234.478 226.913 234.97 228.272 235.124 229.742Z" fill="#F1BD2D"/>
<path d="M271.001 208.303C271.309 206.793 270.091 203.616 272.075 203.047C271.911 204.844 271.771 206.521 272.294 208.303C271.861 208.308 271.428 208.303 270.996 208.303H271.001Z" fill="#D5A547"/>
<path d="M235.123 229.739L238.583 229.09C238.245 230.187 236.933 231.567 235.819 231.496C235.466 231.471 235.252 231.089 235.123 231.053C235.093 230.62 235.167 230.167 235.123 229.739Z" fill="#BC8C39"/>
<path d="M311.637 232.367C310.025 231.179 308.002 230.136 306.883 228.43C308.733 228.933 311.403 230.408 311.637 232.367Z" fill="#E49C1E"/>
<path d="M274.895 202.612V208.301C274.606 208.311 274.318 208.296 274.029 208.301V202.612C274.318 202.612 274.606 202.607 274.895 202.612Z" fill="#D5A547"/>
<path d="M212.647 222.738L212.215 224.052C211.991 224.062 208.624 225.316 209.191 223.841C210.081 222.396 211.27 222.819 212.647 222.738Z" fill="#CA772C"/>
<path d="M259.761 208.303L259.98 203.052C260.984 202.76 260.601 203.993 260.621 204.577C260.671 205.816 260.586 207.065 260.621 208.303C260.333 208.303 260.044 208.303 259.756 208.303H259.761Z" fill="#EABF68"/>
<path d="M252.411 208.303L252.63 203.052C253.634 202.76 253.252 203.993 253.271 204.577C253.321 205.816 253.237 207.065 253.271 208.303C252.983 208.303 252.695 208.303 252.406 208.303H252.411Z" fill="#EABF68"/>
<path d="M257.171 208.303L257.39 203.052C258.394 202.76 258.011 203.993 258.031 204.577C258.081 205.816 257.996 207.065 258.031 208.303C257.743 208.303 257.454 208.303 257.166 208.303H257.171Z" fill="#EABF68"/>
<path d="M213.08 213.986C211.996 213.744 212.319 214.746 212.215 214.862C211.832 215.285 211.474 215.204 211.35 215.3L209.619 214.862C210.678 213.946 211.946 213.442 213.075 212.672V213.986H213.08Z" fill="#EED8A6"/>
<path d="M275.322 201.299C274.332 201.747 271.861 200 272.731 199.114C273.288 198.55 275.61 200.282 275.322 201.299Z" fill="#CA772C"/>
<path d="M211.35 215.301C209.987 216.374 208.739 216.777 207.784 217.814L207.461 217.491C208.008 216.973 208.639 215.82 209.191 215.301C209.341 215.16 209.47 214.999 209.624 214.863L211.354 215.301H211.35Z" fill="#E1BD72"/>
<path d="M315.094 234.552L312.931 233.676C312.941 233.238 312.921 232.8 312.931 232.367H313.567C314.915 233.002 314.945 233.208 315.089 234.552H315.094Z" fill="#D5A547"/>
<path d="M269.688 201.291L268.41 201.301L269.489 198.688L269.688 201.291Z" fill="#CA772C"/>
<path d="M283.968 243.742C283.829 244.523 284.232 250.308 283.754 250.308C283.386 248.178 283.501 245.902 283.541 243.742H283.973H283.968Z" fill="#845331"/>
<path d="M306.012 227.112C304.813 227.308 303.918 226.346 303.416 225.37C304.903 225.083 305.579 225.762 306.012 227.112Z" fill="#CA772C"/>
<path d="M276.62 202.613C278.246 203.233 277.794 203.066 277.918 204.803L275.76 202.835L276.62 202.618V202.613Z" fill="#E49C1E"/>
<path d="M260.627 201.3L260.846 199.109L261.487 199.114L261.492 201.3H260.627Z" fill="#CA772C"/>
<path d="M234.259 225.366C234.234 225.844 234.394 226.469 233.827 226.68C233.817 225.23 233.787 223.755 233.827 222.305C234.538 222.869 234.304 224.444 234.259 225.366Z" fill="#BC8C39"/>
<path d="M243.772 197.362L240.098 197.795L239.879 197.362C241.172 197.377 242.475 197.342 243.767 197.362H243.772Z" fill="#BC8C39"/>
<path d="M234.258 220.116C233.542 219.562 233.542 217.603 234.258 217.055C234.218 218.072 234.307 219.104 234.258 220.116Z" fill="#BC8C39"/>
<path d="M220.43 209.609C219.684 210.284 219.446 210.395 218.7 210.923C218.65 210.657 218.774 210.254 218.7 210.047L220.43 209.609Z" fill="#D5A547"/>
<path d="M221.723 208.743C221.449 208.994 221.29 209.216 220.857 209.181C221.131 208.944 221.285 208.702 221.723 208.743Z" fill="#D5A547"/>
<path d="M318.121 235.425V234.997L318.763 234.992L319.404 235.652L318.121 235.425Z" fill="#1A1612"/>
<path d="M245.93 197.363C245.9 197.363 245.761 197.67 245.413 197.67C245.263 197.67 245.149 197.363 245.064 197.363H245.93Z" fill="#BC8C39"/>
<path d="M238.797 227.988C239.075 228.134 239.075 228.28 238.797 228.426V227.988Z" fill="#BC8C39"/>
<path d="M273.811 227.988C274.089 228.134 274.089 228.28 273.811 228.426V227.988Z" fill="#7EA750"/>
<path d="M233.826 229.305C233.816 229.159 233.831 229.013 233.826 228.867L234.248 229.084L233.826 229.3V229.305Z" fill="#BC8C39"/>
<path d="M258.464 212.24C263.506 212.271 269.339 211.828 274.257 212.225C275.535 212.326 277.425 212.502 278.35 213.333V230.834C278.35 232.485 274.148 230.799 274.038 229.077C279.14 231.866 278.877 224.153 275.983 221.857C274.312 220.533 273.128 221.303 271.418 220.79C268.424 219.898 266.818 215.865 262.039 217.819C258.424 219.299 256.933 229.48 260.891 226.277C261.696 225.628 260.99 224.178 262.358 224.49C263.069 226.247 256.977 232.913 256.152 232.767C254.208 230.577 248.872 226.862 250.906 223.614C251.378 224.616 250.727 225.396 251.806 226.197C255.665 229.067 253.999 220.714 251.12 218.358C252.959 217.517 256.137 215.548 257.584 214.179C258.24 213.559 258.603 213.247 258.469 212.23L258.464 212.24Z" fill="#8F9434"/>
<path d="M302.988 259.929C298.508 259.074 295.106 261.551 290.885 261.682V247.68H302.774C303.391 248.062 303.371 248.551 303.446 249.19C303.853 252.694 303.122 256.606 302.993 259.929H302.988Z" fill="#1A1612"/>
<path d="M226.914 267.805C226.605 267.805 225.984 267.991 226.039 267.543L226.048 247.681C226.581 246.971 226.829 247.691 226.914 248.325C227.665 254.266 226.357 261.698 226.914 267.805Z" fill="#BC8C39"/>
<path d="M222.587 196.485C222.866 196.45 223.169 196.511 223.447 196.485C224.183 194.889 221.394 194.487 221.727 193.651C223.07 192.03 223.01 193.671 223.139 193.726C223.512 193.898 223.85 193.842 223.885 193.862C224.323 195.217 224.621 197.195 226.481 196.924C225.417 197.357 225.168 197.669 223.89 196.924L223.02 198.676C222.304 198.243 222.617 197.231 222.587 196.485Z" fill="#CDC9C5"/>
<path d="M274.893 185.987C273.893 186.208 273.704 184.99 273.162 184.234C273.988 184.602 274.38 185.302 274.893 185.987Z" fill="#AA6F49"/>
</g>
</g>
<defs>
<linearGradient id="paint0_linear_251_99782" x1="253.5" y1="-564" x2="258.326" y2="-42.5123" gradientUnits="userSpaceOnUse">
<stop offset="0.332725" stop-color="#FAC768"/>
<stop offset="1" stop-color="#F58A39"/>
</linearGradient>
<clipPath id="clip0_251_99782">
<rect width="411" height="620" fill="white"/>
</clipPath>
<clipPath id="clip1_251_99782">
<rect width="411" height="620" fill="white"/>
</clipPath>
</defs>
</svg>
