<svg width="57" height="57" viewBox="0 0 57 57" fill="none" xmlns="http://www.w3.org/2000/svg">
<rect width="57" height="57" rx="28.5" fill="#7DD4FF"/>
<rect x="15.4706" y="39.7213" width="6.35441" height="7.27869" rx="2" fill="#252215"/>
<rect x="15.9706" y="40.2213" width="5.35441" height="6.27869" rx="1" stroke="#110B07"/>
<rect x="15.4708" y="42.1476" width="6.35441" height="2.42623" fill="#040302"/>
<rect x="35.8044" y="39.7213" width="6.35441" height="7.27869" rx="2" fill="#252215"/>
<rect x="36.3044" y="40.2213" width="5.35441" height="6.27869" rx="1" stroke="#110B07"/>
<rect x="35.8044" y="42.1476" width="6.35441" height="2.42623" fill="#040302"/>
<path d="M19.7166 42.1475H40.9788C42.6357 42.1475 43.9788 40.8044 43.9788 39.1475V16.0656C43.9788 16.0656 37.4697 26.2021 31.8477 31.8361C27.5623 36.1306 19.7166 42.1475 19.7166 42.1475Z" fill="url(#paint0_linear_944_8727)"/>
<path fill-rule="evenodd" clip-rule="evenodd" d="M13.0444 16.0328C13.0444 14.3759 14.3876 13.0328 16.0444 13.0328H21.5362V11C21.5362 10.4477 21.9839 10 22.5362 10H33.0608L28.8149 13.0328H34.8805H40.9788C42.6357 13.0328 43.9788 14.3759 43.9788 16.0328V16.0656C43.9788 16.0656 37.4697 26.2021 31.8477 31.8361C27.5623 36.1306 19.7166 42.1475 19.7166 42.1475H16.0444C14.3876 42.1475 13.0444 40.8044 13.0444 39.1475V16.0328Z" fill="#FBF1D9"/>
<path d="M34.8805 13.0328V11C34.8805 10.4477 34.4328 10 33.8805 10H33.0608L28.8149 13.0328H34.8805Z" fill="#E1D0B6"/>
<path d="M33.8804 10.1066C34.7088 10.1066 35.3804 10.7782 35.3804 11.6066V12.5324H40.979C42.9118 12.5325 44.4788 14.0997 44.479 16.0324V39.1476C44.479 41.0806 42.9119 42.6476 40.979 42.6476H16.0444C14.1115 42.6476 12.5445 41.0806 12.5444 39.1476V16.0324C12.5447 14.0996 14.1116 12.5324 16.0444 12.5324H21.0366V11.6066C21.0366 10.7782 21.7082 10.1066 22.5366 10.1066H33.8804Z" stroke="#261E18"/>
<path d="M43.6995 17.1721V28.303H13.3V17.1721H43.6995Z" fill="url(#paint1_linear_944_8727)" stroke="#261E18"/>
<path d="M13.7222 23.8323H43.2312V26.5988H13.7222V23.8323Z" fill="#090702"/>
<path fill-rule="evenodd" clip-rule="evenodd" d="M42.309 18.7605C42.2293 18.4743 41.9686 18.2763 41.6715 18.2763H35.0069C34.4546 18.2763 34.0069 18.7241 34.0069 19.2763V26.0395C34.0069 26.5917 34.4546 27.0395 35.0069 27.0395H36.1085L42.309 18.7605Z" fill="#E2EEFF"/>
<path d="M36.1085 27.0395H41.7807C42.3329 27.0395 42.7807 26.5917 42.7807 26.0395V19.3701C42.7807 19.0832 42.5868 18.8326 42.309 18.7605L36.1085 27.0395Z" fill="#DBE1EF"/>
<path d="M31.8852 27.2829C32.4375 27.2829 32.8852 26.8352 32.8852 26.2829V19.1822C32.8852 18.6819 32.4796 18.2763 31.9793 18.2763L25.8092 27.2829H31.8852Z" fill="#F4F1FF"/>
<path d="M25.2076 18.2763C24.6553 18.2763 24.2076 18.7241 24.2076 19.2763V26.2829C24.2076 26.8352 24.6553 27.2829 25.2076 27.2829H25.8092L31.9793 18.2763H25.2076Z" fill="#FFFCFE"/>
<path d="M21.9657 27.1772C22.518 27.1772 22.9657 26.7295 22.9657 26.1772V19.2763C22.9657 18.7241 22.518 18.2763 21.9657 18.2763H21.5362L15.4706 27.1772H21.9657Z" fill="#FFFCFE"/>
<path d="M15.2575 18.2763C14.7052 18.2763 14.2575 18.7241 14.2575 19.2763V26.1772C14.2575 26.7295 14.7052 27.1772 15.2575 27.1772H15.4706L21.5362 18.2763H15.2575Z" fill="#FBF2FF"/>
<path d="M15.2179 18.6885H22.0714C22.3474 18.6887 22.5714 18.9125 22.5714 19.1885V26.2872C22.5713 26.5631 22.3473 26.787 22.0714 26.7872H15.2179C14.9418 26.7872 14.718 26.5632 14.7179 26.2872V19.1885C14.7179 18.9124 14.9418 18.6885 15.2179 18.6885ZM25.1681 18.6885H32.0216C32.2975 18.6888 32.5216 18.9125 32.5216 19.1885V26.2872C32.5215 26.563 32.2975 26.7869 32.0216 26.7872H25.1681C24.892 26.7872 24.6682 26.5632 24.6681 26.2872V19.1885C24.6681 18.9124 24.8919 18.6885 25.1681 18.6885ZM34.9523 18.6885H41.8058C42.0818 18.6887 42.3058 18.9125 42.3058 19.1885V26.2872C42.3056 26.5631 42.0817 26.787 41.8058 26.7872H34.9523C34.6762 26.7872 34.4524 26.5632 34.4523 26.2872V19.1885C34.4523 18.9124 34.6761 18.6886 34.9523 18.6885Z" stroke="black"/>
<path d="M21.5362 12.4263H34.8805V13.0329H21.5362V12.4263Z" fill="#755E4B"/>
<path fill-rule="evenodd" clip-rule="evenodd" d="M31.8475 31.8361H24.1622C24.0518 31.8361 23.9622 31.9257 23.9622 32.0361V38.9205L31.8475 31.8361Z" fill="#DCBB95"/>
<path d="M32.254 39.7214C32.3645 39.7214 32.454 39.6318 32.454 39.5214V32.0361C32.454 31.9257 32.3645 31.8361 32.254 31.8361H31.8475L23.9622 38.9205L23.9622 39.5214C23.9622 39.6318 24.0518 39.7214 24.1622 39.7214H32.254Z" fill="url(#paint2_linear_944_8727)"/>
<path d="M33.1517 31.3361L32.8226 31.632C32.904 31.7464 32.9544 31.8851 32.9544 32.0363V39.5217C32.9542 39.9081 32.6406 40.2208 32.2542 40.2209H24.1624C23.9267 40.2209 23.7199 40.1035 23.5931 39.925L23.4622 40.0422V32.0363C23.4622 31.6497 23.7758 31.3361 24.1624 31.3361H33.1517Z" stroke="#755E4B"/>
<path d="M32.6414 39.2231H23.8787V38.2231H32.6414V39.2231ZM32.6414 37.7631H23.8787V36.7631H32.6414V37.7631ZM32.6414 36.3022H23.8787V35.3022H32.6414V36.3022ZM32.6414 34.8422H23.8787V33.8422H32.6414V34.8422ZM32.6414 33.3813H23.8787V32.3813H32.6414V33.3813Z" fill="#755E4B"/>
<path d="M28.208 30.5164C28.9367 30.5164 29.5281 31.107 29.5283 31.8357C29.5283 32.5646 28.9368 33.156 28.208 33.156C27.4793 33.1559 26.8887 32.5644 26.8887 31.8357C26.8889 31.1072 27.4794 30.5166 28.208 30.5164Z" fill="#E0D6CC" stroke="#755E4B"/>
<path d="M40.0364 31.7295C40.5976 31.7296 41.053 32.1849 41.053 32.7461C41.0529 33.3073 40.5975 33.7626 40.0364 33.7627C39.4751 33.7627 39.0199 33.3074 39.0198 32.7461C39.0198 32.1848 39.475 31.7295 40.0364 31.7295Z" fill="#E18231" stroke="#43382F"/>
<path d="M16.9872 31.7295C17.5485 31.7296 18.0038 32.1849 18.0038 32.7461C18.0037 33.3073 17.5484 33.7626 16.9872 33.7627C16.426 33.7627 15.9708 33.3074 15.9706 32.7461C15.9706 32.1848 16.4259 31.7295 16.9872 31.7295Z" fill="#F8B136" stroke="#755E4B"/>
<path d="M40.0364 35.0656C40.5976 35.0657 41.053 35.5209 41.053 36.0822C41.0529 36.6434 40.5975 37.0987 40.0364 37.0988C39.4751 37.0988 39.0199 36.6434 39.0198 36.0822C39.0198 35.5208 39.475 35.0656 40.0364 35.0656Z" fill="#BFAFAD" stroke="#43382F"/>
<path d="M16.9872 35.0656C17.5485 35.0657 18.0038 35.5209 18.0038 36.0822C18.0037 36.6434 17.5484 37.0987 16.9872 37.0988C16.426 37.0988 15.9708 36.6434 15.9706 36.0822C15.9706 35.5208 16.4259 35.0656 16.9872 35.0656Z" fill="#DED9D2" stroke="#755E4B"/>
<defs>
<linearGradient id="paint0_linear_944_8727" x1="28.5116" y1="10" x2="28.5116" y2="42.1475" gradientUnits="userSpaceOnUse">
<stop offset="0.75" stop-color="#ECE0D1"/>
<stop offset="1" stop-color="#CAADA5"/>
</linearGradient>
<linearGradient id="paint1_linear_944_8727" x1="13.651" y1="18.4918" x2="43.9788" y2="28.8033" gradientUnits="userSpaceOnUse">
<stop stop-color="#614D1E"/>
<stop offset="1" stop-color="#2B2B1A"/>
</linearGradient>
<linearGradient id="paint2_linear_944_8727" x1="28.2081" y1="31.8361" x2="28.2081" y2="39.7214" gradientUnits="userSpaceOnUse">
<stop stop-color="#B69280"/>
<stop offset="1" stop-color="#CFAE91"/>
</linearGradient>
</defs>
</svg>
