<svg width="42" height="44" viewBox="0 0 42 44" fill="none" xmlns="http://www.w3.org/2000/svg">
<path d="M32.6429 30.3279V19.3745C32.6429 18.9602 32.6161 18.5477 32.5625 18.137L31.6071 10.7922C31.585 10.6187 31.5531 10.4474 31.5111 10.2775C31.4691 10.1077 31.4173 9.94072 31.3561 9.77702C31.2949 9.61332 31.2243 9.45361 31.1442 9.29787C31.0645 9.1425 30.9758 8.99184 30.8784 8.84661C30.781 8.70138 30.6756 8.56231 30.5622 8.42903C30.4489 8.29611 30.3279 8.17008 30.1997 8.05093C30.0718 7.93177 29.9371 7.82059 29.7962 7.71701C29.655 7.61379 29.5087 7.5189 29.3566 7.43234C29.0378 7.25379 28.7133 7.08538 28.3838 6.92748C28.0542 6.76957 27.7199 6.62253 27.3809 6.48599C27.0419 6.34909 26.699 6.22378 26.3516 6.10898C26.0047 5.99417 25.6545 5.89095 25.3006 5.7986C24.9472 5.70624 24.5908 5.62548 24.2322 5.55594C23.8733 5.48641 23.5126 5.4281 23.1501 5.38174C22.7875 5.33502 22.4239 5.30025 22.0592 5.27707C21.6945 5.25353 21.3294 5.24194 20.964 5.24194C20.5982 5.24194 20.2332 5.25353 19.8685 5.27707C19.5038 5.30025 19.1401 5.33502 18.7776 5.38174C18.4151 5.4281 18.0544 5.48641 17.6958 5.55594C17.3369 5.62548 16.9805 5.70624 16.627 5.7986C16.2732 5.89095 15.923 5.99417 15.576 6.10898C15.2291 6.22378 14.8857 6.34909 14.5467 6.48599C14.2078 6.62253 13.8735 6.76957 13.5439 6.92748C13.2143 7.08538 12.8902 7.25379 12.5711 7.43234C12.419 7.51854 12.2727 7.61379 12.1318 7.71701C11.9906 7.82059 11.8562 7.93177 11.728 8.05093C11.5998 8.16972 11.4792 8.29611 11.3655 8.42903C11.2521 8.56195 11.1467 8.70138 11.0493 8.84661C10.9522 8.99184 10.8635 9.14214 10.7834 9.29787C10.7038 9.45361 10.6331 9.61296 10.5719 9.77702C10.5104 9.94072 10.4586 10.1073 10.4166 10.2772C10.3746 10.447 10.3427 10.6187 10.3206 10.7922L9.3652 18.1366C9.31196 18.5473 9.28516 18.9598 9.28516 19.3741V30.3276C9.28516 31.7592 10.4655 32.9203 11.9214 32.9203H13.897L11.2054 42.3679C11.0652 42.8597 11.3665 43.3722 11.7961 43.3722H14.2461C14.5127 43.3722 14.7499 43.1672 14.8372 42.8619L15.3044 41.2216H26.7131L27.1806 42.8619C27.2676 43.1668 27.5048 43.3722 27.7713 43.3722H30.2214C30.6509 43.3722 30.9523 42.8597 30.8125 42.3679L28.1205 32.9207H30.0063C31.4622 32.9207 32.6429 31.7599 32.6429 30.3279ZM17.7748 8.77925C17.7751 8.71876 17.7816 8.65901 17.794 8.59997C17.8063 8.54094 17.824 8.48335 17.8476 8.42794C17.8711 8.37217 17.9001 8.31965 17.9338 8.26968C17.9678 8.2197 18.0062 8.1737 18.0493 8.13133C18.0924 8.08895 18.1391 8.05129 18.1898 8.01797C18.2401 7.98501 18.2934 7.95712 18.3492 7.93431C18.4053 7.91185 18.4629 7.89483 18.5223 7.8836C18.5813 7.87238 18.6414 7.86694 18.7015 7.86731H23.2261C23.2866 7.86694 23.3464 7.87238 23.4058 7.8836C23.4652 7.89483 23.5227 7.91185 23.5785 7.93431C23.6347 7.95712 23.6879 7.98501 23.7382 8.01797C23.7886 8.05129 23.8353 8.08895 23.8784 8.13133C23.9215 8.1737 23.9599 8.2197 23.9939 8.26968C24.028 8.31965 24.0566 8.37217 24.0801 8.42794C24.1037 8.48335 24.1218 8.54094 24.1341 8.59997C24.1464 8.65901 24.1526 8.71876 24.1533 8.77925V9.22218C24.1526 9.28266 24.1464 9.34242 24.1341 9.40145C24.1218 9.46049 24.1037 9.51807 24.0801 9.57348C24.0566 9.62926 24.028 9.68177 23.9939 9.73175C23.9599 9.78173 23.9215 9.82773 23.8784 9.8701C23.8353 9.91247 23.7886 9.95014 23.7382 9.98346C23.6879 10.0164 23.6347 10.0443 23.5785 10.0668C23.5227 10.0896 23.4652 10.1066 23.4058 10.1178C23.3464 10.1291 23.2866 10.1345 23.2261 10.1341H18.7015C18.6414 10.1345 18.5813 10.1291 18.5223 10.1178C18.4629 10.1066 18.4053 10.0896 18.3492 10.0668C18.2934 10.0443 18.2401 10.0164 18.1898 9.98346C18.1391 9.95014 18.0924 9.91247 18.0493 9.8701C18.0062 9.82773 17.9678 9.78173 17.9338 9.73175C17.9001 9.68177 17.8711 9.62926 17.8476 9.57348C17.824 9.51807 17.8063 9.46049 17.794 9.40145C17.7816 9.34242 17.7751 9.28266 17.7748 9.22218V8.77925ZM12.5592 19.5342C12.5595 19.4882 12.5621 19.4422 12.5679 19.3962L13.3874 12.7341C13.3976 12.657 13.4142 12.5817 13.4381 12.5074C13.4621 12.4335 13.4921 12.3625 13.5291 12.2941C13.5656 12.2256 13.608 12.1608 13.6565 12.1003C13.7051 12.0395 13.7587 11.9837 13.817 11.9327C13.8756 11.8816 13.9383 11.8363 14.0049 11.7965C14.0719 11.757 14.1415 11.7233 14.2146 11.6965C14.2874 11.6694 14.362 11.6494 14.4385 11.6357C14.5149 11.6223 14.592 11.6158 14.6699 11.6165H27.2578C27.3357 11.6158 27.4128 11.6223 27.4892 11.6357C27.5656 11.6491 27.6402 11.6694 27.713 11.6965C27.7858 11.7233 27.8557 11.7566 27.9227 11.7965C27.9894 11.836 28.052 11.8816 28.1107 11.9327C28.169 11.9834 28.2226 12.0395 28.2711 12.1003C28.3193 12.1608 28.362 12.2256 28.3986 12.2941C28.4356 12.3625 28.4656 12.4335 28.4895 12.5074C28.5131 12.5817 28.5301 12.657 28.5402 12.7341L29.3598 19.3966C29.3656 19.4422 29.3681 19.4882 29.3681 19.5342V20.8511C29.3678 20.9271 29.3595 21.0021 29.3442 21.0767C29.3287 21.1509 29.3062 21.223 29.2765 21.2933C29.2468 21.3632 29.2106 21.4294 29.1679 21.4921C29.1251 21.5551 29.0766 21.6131 29.0226 21.6663C28.9683 21.7195 28.9096 21.767 28.8459 21.8086C28.7825 21.8506 28.7155 21.8854 28.6449 21.914C28.5746 21.9426 28.5022 21.964 28.4276 21.9781C28.353 21.9923 28.2777 21.9991 28.2016 21.9984H13.7261C13.65 21.9991 13.5747 21.9923 13.5001 21.9781C13.4255 21.964 13.353 21.9426 13.2824 21.914C13.2122 21.8854 13.1452 21.8506 13.0814 21.8086C13.018 21.767 12.9594 21.7195 12.905 21.6663C12.8507 21.6131 12.8025 21.5551 12.7598 21.4921C12.7171 21.4294 12.6809 21.3632 12.6512 21.2933C12.6215 21.223 12.599 21.1509 12.5834 21.0767C12.5679 21.0021 12.5599 20.9271 12.5592 20.8511V19.5342ZM11.9127 26.5273C11.9116 26.4574 11.9138 26.3879 11.9196 26.3184C11.925 26.2488 11.9344 26.18 11.9467 26.1112C11.9594 26.0428 11.975 25.9747 11.9942 25.9077C12.0137 25.8407 12.0362 25.7747 12.0615 25.7099C12.0873 25.6451 12.1162 25.5817 12.1481 25.5198C12.18 25.4578 12.2151 25.3977 12.2531 25.3391C12.2908 25.2804 12.3317 25.2239 12.3752 25.1696C12.4186 25.1149 12.4646 25.0627 12.5132 25.0127C12.5617 24.9628 12.6128 24.9153 12.666 24.8704C12.7192 24.8251 12.7747 24.7831 12.8322 24.7437C12.8898 24.7042 12.9489 24.6676 13.0101 24.6339C13.0709 24.6002 13.1336 24.5694 13.1977 24.5419C13.2618 24.5148 13.327 24.4905 13.3936 24.4691C13.4602 24.4481 13.5272 24.4304 13.5957 24.4163C13.6638 24.4018 13.7326 24.3905 13.8021 24.3829C13.8713 24.3753 13.9408 24.3713 14.0104 24.3706C14.0803 24.3695 14.1498 24.3724 14.2193 24.3786C14.2889 24.3844 14.3577 24.3942 14.4261 24.4068C14.495 24.4199 14.5627 24.4362 14.6293 24.4557C14.6963 24.4753 14.7622 24.4981 14.8271 24.5242C14.8915 24.5503 14.9549 24.5792 15.0165 24.6115C15.0784 24.6437 15.1385 24.6792 15.1968 24.7172C15.2551 24.7556 15.3116 24.7965 15.3656 24.8404C15.4199 24.8842 15.4721 24.9305 15.5217 24.9794C15.5713 25.0283 15.6188 25.0794 15.6633 25.133C15.7079 25.1866 15.7499 25.242 15.789 25.2999C15.8285 25.3575 15.8647 25.4169 15.898 25.4781C15.9313 25.5393 15.9614 25.6024 15.9885 25.6665C16.0157 25.7309 16.0396 25.7961 16.0603 25.8628C16.0809 25.9294 16.0983 25.9968 16.1124 26.0652C16.1265 26.1333 16.137 26.2021 16.1443 26.2716C16.1515 26.3408 16.1551 26.4104 16.1555 26.4803C16.1562 26.5498 16.153 26.6197 16.1464 26.6889C16.1399 26.7584 16.1301 26.8272 16.1171 26.8957C16.1037 26.9641 16.0871 27.0318 16.0671 27.0988C16.0472 27.1655 16.024 27.2314 15.9976 27.2959C15.9712 27.3603 15.9415 27.4233 15.9089 27.4849C15.8763 27.5465 15.8408 27.6066 15.8024 27.6645C15.7636 27.7229 15.7223 27.7786 15.6782 27.833C15.6343 27.8869 15.5876 27.9387 15.5384 27.988C15.4891 28.0376 15.4377 28.0843 15.3841 28.1288C15.3301 28.173 15.2743 28.2147 15.2164 28.2538C15.1584 28.2925 15.0991 28.3284 15.0375 28.3614C14.9759 28.3943 14.9133 28.4244 14.8488 28.4512C14.7843 28.478 14.7188 28.5015 14.6521 28.5218C14.5855 28.5421 14.5178 28.5591 14.4493 28.5725C14.3809 28.5863 14.3121 28.5964 14.2429 28.6033C14.1733 28.6102 14.1038 28.6138 14.0339 28.6138C13.9651 28.6141 13.8963 28.6116 13.8278 28.6051C13.759 28.5989 13.6909 28.5895 13.6232 28.5765C13.5555 28.5638 13.4889 28.5475 13.4226 28.5283C13.3567 28.5088 13.2915 28.4859 13.2277 28.4602C13.1636 28.4345 13.1013 28.4055 13.0401 28.3733C12.9793 28.3414 12.9199 28.3067 12.8623 28.2686C12.8047 28.231 12.7489 28.1904 12.6953 28.1473C12.6417 28.1039 12.5903 28.0582 12.5414 28.0097C12.4922 27.9615 12.4454 27.9108 12.4013 27.8579C12.3571 27.8051 12.3158 27.75 12.277 27.6932C12.2383 27.6363 12.2024 27.5776 12.1695 27.5168C12.1365 27.4563 12.1065 27.3944 12.0797 27.331C12.0525 27.2676 12.0289 27.2031 12.0083 27.1372C11.9877 27.0713 11.9706 27.0047 11.9565 26.9373C11.9424 26.8699 11.9319 26.8019 11.9246 26.7334C11.917 26.665 11.9131 26.5961 11.9127 26.5273ZM15.8643 39.2568L16.4188 37.3102H25.5987L26.1532 39.2568H15.8643ZM25.0384 35.3454H16.9787L17.6697 32.9207H24.3478L25.0384 35.3454ZM27.8934 28.6138C27.8253 28.6127 27.7576 28.608 27.6899 28.6004C27.6221 28.5924 27.5551 28.5816 27.4885 28.5671C27.4219 28.5529 27.3563 28.5352 27.2911 28.5146C27.2263 28.4935 27.1629 28.4696 27.1002 28.4428C27.0376 28.4157 26.9767 28.3856 26.917 28.3527C26.8576 28.3197 26.7996 28.2839 26.7435 28.2455C26.6877 28.2067 26.6334 28.1654 26.5816 28.1212C26.5295 28.0774 26.4798 28.0311 26.4324 27.9822C26.3846 27.9333 26.3397 27.8826 26.2973 27.8293C26.2549 27.7761 26.2151 27.7207 26.1778 27.6638C26.1409 27.6066 26.1065 27.5479 26.0753 27.4874C26.0438 27.427 26.0155 27.365 25.9902 27.3016C25.9652 27.2386 25.9431 27.1742 25.9239 27.109C25.9051 27.0434 25.8892 26.9771 25.8768 26.9101C25.8642 26.8435 25.8551 26.7758 25.8493 26.7081C25.8432 26.6403 25.8406 26.5722 25.8413 26.5042C25.8421 26.4361 25.8464 26.3683 25.8537 26.3006C25.8609 26.2329 25.8718 26.1655 25.8859 26.0989C25.8997 26.0322 25.917 25.9667 25.9373 25.9015C25.9576 25.8367 25.9811 25.7729 26.0079 25.7103C26.0347 25.6476 26.0644 25.5864 26.097 25.5267C26.1296 25.4669 26.1651 25.4086 26.2035 25.3525C26.2419 25.2963 26.2828 25.242 26.3267 25.1895C26.3701 25.1373 26.4161 25.0873 26.4646 25.0395C26.5132 24.9917 26.5642 24.9465 26.6171 24.9037C26.67 24.861 26.725 24.8208 26.7819 24.7835C26.8388 24.7462 26.8974 24.7114 26.9576 24.6799C27.018 24.6484 27.0796 24.6194 27.143 24.5941C27.206 24.5684 27.2701 24.5459 27.3353 24.5264C27.4008 24.5072 27.4668 24.4912 27.5338 24.4782C27.6004 24.4651 27.6678 24.4557 27.7359 24.4496C27.8036 24.4431 27.8713 24.4402 27.9394 24.4405C28.0075 24.4409 28.0756 24.4449 28.1433 24.4517C28.211 24.4586 28.2784 24.4691 28.345 24.4825C28.4117 24.4963 28.4776 24.5129 28.5428 24.5332C28.608 24.5532 28.6717 24.5763 28.7347 24.6028C28.7974 24.6292 28.8586 24.6585 28.9187 24.6908C28.9785 24.723 29.0368 24.7581 29.0933 24.7962C29.1498 24.8342 29.2044 24.8751 29.257 24.9182C29.3095 24.9617 29.3595 25.0077 29.4076 25.0558C29.4558 25.104 29.5011 25.1547 29.5442 25.2072C29.5873 25.2601 29.6278 25.3148 29.6655 25.3717C29.7032 25.4282 29.7379 25.4868 29.7702 25.5469C29.802 25.6071 29.831 25.6683 29.8571 25.7313C29.8828 25.7943 29.9056 25.8584 29.9255 25.9236C29.9451 25.9888 29.9617 26.0547 29.9748 26.1217C29.9882 26.1883 29.998 26.2557 30.0048 26.3234C30.0114 26.3912 30.0146 26.4592 30.0146 26.5273C30.0143 26.5961 30.0103 26.665 30.003 26.7334C29.9954 26.8019 29.9849 26.8699 29.9708 26.9373C29.957 27.0047 29.9396 27.0713 29.919 27.1372C29.8984 27.2028 29.8748 27.2676 29.848 27.331C29.8209 27.3944 29.7912 27.4563 29.7582 27.5168C29.7252 27.5773 29.6894 27.6359 29.6506 27.6932C29.6119 27.75 29.5702 27.8051 29.5261 27.8579C29.4819 27.9108 29.4355 27.9615 29.3863 28.0097C29.337 28.0579 29.2859 28.1039 29.232 28.147C29.1784 28.1904 29.123 28.231 29.0654 28.2686C29.0078 28.3063 28.9484 28.3414 28.8875 28.3733C28.8263 28.4052 28.764 28.4342 28.6999 28.4602C28.6362 28.4859 28.571 28.5088 28.5051 28.528C28.4392 28.5475 28.3722 28.5638 28.3045 28.5765C28.2367 28.5895 28.1686 28.5989 28.0998 28.6051C28.0314 28.6113 27.9626 28.6141 27.8938 28.6138H27.8934Z" fill="#001A6E"/>
<mask id="mask0_3_53318" style="mask-type:luminance" maskUnits="userSpaceOnUse" x="0" y="0" width="42" height="37">
<path d="M0 0H42V36.7989H0V0Z" fill="white"/>
</mask>
<g mask="url(#mask0_3_53318)">
<path d="M21.0083 0C9.424 0 0 9.26863 0 20.6617C0 26.7795 2.73474 32.5485 7.50233 36.4878C7.56969 36.5432 7.6414 36.5917 7.71818 36.633C7.79496 36.6747 7.875 36.7084 7.9583 36.7341C8.04124 36.7601 8.12635 36.7779 8.2129 36.7873C8.29982 36.7967 8.38638 36.7974 8.4733 36.7902C8.56022 36.7826 8.64533 36.767 8.72936 36.7428C8.81302 36.7189 8.89378 36.687 8.97129 36.6471C9.04879 36.6077 9.12195 36.5609 9.1904 36.507C9.25921 36.453 9.32187 36.3929 9.37873 36.327C9.43486 36.2614 9.48412 36.1912 9.52613 36.1158C9.56814 36.0405 9.60255 35.9616 9.62862 35.8793C9.65506 35.7971 9.67317 35.7135 9.68259 35.6276C9.69236 35.5418 9.69309 35.456 9.68548 35.3698C9.67824 35.2839 9.66194 35.1996 9.63768 35.117C9.61305 35.034 9.58082 34.9547 9.54025 34.8783C9.50005 34.8019 9.45225 34.7305 9.39756 34.6639C9.34287 34.5969 9.28239 34.5364 9.21539 34.4817C5.05189 31.0415 2.66375 26.0044 2.66375 20.6617C2.66375 10.7137 10.8937 2.61957 21.0083 2.61957C31.123 2.61957 39.3529 10.7137 39.3529 20.6617C39.3529 26.0044 36.9648 31.0415 32.8013 34.4821C32.7343 34.5368 32.6738 34.5973 32.6191 34.6639C32.5644 34.7309 32.5166 34.8023 32.4764 34.8787C32.4358 34.9547 32.4036 35.0344 32.379 35.1173C32.3547 35.1999 32.3384 35.2843 32.3308 35.3701C32.3232 35.4563 32.3243 35.5422 32.3337 35.628C32.3435 35.7135 32.3612 35.7975 32.3877 35.8797C32.4141 35.9619 32.4485 36.0409 32.4905 36.1162C32.5325 36.1915 32.5818 36.2618 32.6379 36.3274C32.6948 36.3933 32.7575 36.4534 32.8263 36.507C32.8947 36.5609 32.9675 36.6077 33.0454 36.6475C33.1229 36.687 33.2036 36.7189 33.2873 36.7431C33.3713 36.767 33.4564 36.7826 33.5434 36.7902C33.6303 36.7974 33.7168 36.7967 33.8034 36.7873C33.8903 36.7779 33.9751 36.7601 34.0584 36.7344C34.1417 36.7084 34.2217 36.6747 34.2981 36.6334C34.3749 36.5921 34.447 36.5436 34.5143 36.4882C39.2819 32.5485 42.0167 26.7795 42.0167 20.6617C42.0167 9.26863 32.5923 0 21.0083 0Z" fill="#001A6E"/>
</g>
</svg>
