<svg width="53" height="53" viewBox="0 0 53 53" fill="none" xmlns="http://www.w3.org/2000/svg">
<mask id="mask0_3_54664" style="mask-type:luminance" maskUnits="userSpaceOnUse" x="0" y="0" width="53" height="53">
<path d="M0 0H53V53H0V0Z" fill="white"/>
</mask>
<g mask="url(#mask0_3_54664)">
<mask id="mask1_3_54664" style="mask-type:luminance" maskUnits="userSpaceOnUse" x="0" y="0" width="53" height="53">
<path d="M26.5 0C11.8644 0 0 11.8644 0 26.5C0 41.1356 11.8644 53 26.5 53C41.1356 53 53 41.1356 53 26.5C53 11.8644 41.1356 0 26.5 0Z" fill="white"/>
</mask>
<g mask="url(#mask1_3_54664)">
<path d="M0 0H53V53H0V0Z" fill="#F5BC3D"/>
</g>
</g>
<path d="M10.0391 18.4609C9.17969 18.4609 8.0625 19.5266 8.0625 20.6008V32.1422L12.5734 32.7867C13.3021 31.5234 14.6711 30.6641 16.2266 30.6641C18.0312 30.6641 19.5781 31.807 20.1711 33.4141H36.3445C36.9375 31.807 38.4844 30.6641 40.2891 30.6641C42.0938 30.6641 43.6406 31.807 44.2336 33.4141H47.9375V26.7797L45.2305 18.4609H10.0391ZM9.26562 19.6641H44.1219L46.3219 26.7109H31.4375V32.2109H23.0156V26.7109H9.26562V19.6641ZM10.8125 21.2109V25.1641H16.1406V21.2109H10.8125ZM17.6875 21.2109V25.1641H23.0156V21.2109H17.6875ZM24.5625 21.2109V30.6641H26.4531V21.2109H24.5625ZM28 21.2109V30.6641H29.8906V21.2109H28ZM31.4375 21.2109V25.1641H36.7656V21.2109H31.4375ZM38.8797 21.2109V25.1641H44.225L42.9875 21.2109H38.8797ZM16.2266 32.2109C14.7484 32.2109 13.5625 33.3969 13.5625 34.875C13.5625 36.3531 14.7484 37.5391 16.2266 37.5391C17.7047 37.5391 18.8906 36.3531 18.8906 34.875C18.8906 33.3969 17.7047 32.2109 16.2266 32.2109ZM40.2891 32.2109C38.8109 32.2109 37.625 33.3969 37.625 34.875C37.625 36.3531 38.8109 37.5391 40.2891 37.5391C41.7672 37.5391 42.9531 36.3531 42.9531 34.875C42.9531 33.3969 41.7672 32.2109 40.2891 32.2109ZM16.2266 34.1875C16.4089 34.1875 16.5838 34.2599 16.7127 34.3889C16.8416 34.5178 16.9141 34.6927 16.9141 34.875C16.9141 35.0573 16.8416 35.2322 16.7127 35.3611C16.5838 35.4901 16.4089 35.5625 16.2266 35.5625C16.0442 35.5625 15.8694 35.4901 15.7404 35.3611C15.6115 35.2322 15.5391 35.0573 15.5391 34.875C15.5391 34.6927 15.6115 34.5178 15.7404 34.3889C15.8694 34.2599 16.0442 34.1875 16.2266 34.1875ZM40.2891 34.1875C40.4714 34.1875 40.6463 34.2599 40.7752 34.3889C40.9041 34.5178 40.9766 34.6927 40.9766 34.875C40.9766 35.0573 40.9041 35.2322 40.7752 35.3611C40.6463 35.4901 40.4714 35.5625 40.2891 35.5625C40.1067 35.5625 39.9319 35.4901 39.8029 35.3611C39.674 35.2322 39.6016 35.0573 39.6016 34.875C39.6016 34.6927 39.674 34.5178 39.8029 34.3889C39.9319 34.2599 40.1067 34.1875 40.2891 34.1875Z" fill="white"/>
</svg>
