<svg width="24" height="23" viewBox="0 0 24 23" fill="none" xmlns="http://www.w3.org/2000/svg">
<path d="M23.445 11.1135C23.445 17.2515 18.1968 22.227 11.7225 22.227C5.24823 22.227 0 17.2515 0 11.1135C0 4.97575 5.24823 0 11.7225 0C18.1968 0 23.445 4.97575 23.445 11.1135Z" fill="#0E7658"/>
<path d="M16.6378 13.6838C15.4526 13.2122 14.333 13.0497 13.6521 14.0255C11.635 12.8161 9.925 11.1949 8.6495 9.28286C9.67846 8.63733 9.50706 7.57552 9.00979 6.45226C8.50326 5.33331 7.80872 4.44212 6.60382 4.69092C5.40066 4.91935 4.45137 6.49964 5.12773 8.0125C7.0097 12.2223 10.5516 15.58 14.9919 17.364C16.5878 18.0054 18.2545 17.1056 18.4955 15.9648C18.7581 14.8223 17.8179 14.1639 16.6378 13.6838Z" fill="white"/>
</svg>
