<svg width="24" height="25" viewBox="0 0 24 25" fill="none" xmlns="http://www.w3.org/2000/svg">
<path d="M22.2455 12.84V10.6401C22.2455 8.08868 20.2796 6.02033 17.8545 6.02033H2.64151L5.56307 9.09332C5.80803 9.35106 5.80803 9.76968 5.56307 10.0274C5.3181 10.2852 4.92021 10.2852 4.67525 10.0274L0.683724 5.82698C0.438759 5.56925 0.438759 5.15147 0.683724 4.89374L4.67525 0.693301C4.92021 0.435566 5.3181 0.435566 5.56307 0.693301C5.80803 0.951036 5.80803 1.36967 5.56307 1.6274L2.64151 4.70039H17.8545C20.9724 4.70039 23.5 7.3597 23.5 10.6401V12.84C23.5 13.2045 23.2192 13.5 22.8727 13.5C22.5263 13.5 22.2455 13.2045 22.2455 12.84Z" fill="white" stroke="white" stroke-linecap="square"/>
<path d="M1.75455 13.1092V15.1399C1.75455 17.4951 3.72043 19.4043 6.14547 19.4043H21.3585L18.4369 16.5677C18.192 16.3298 18.192 15.9434 18.4369 15.7055C18.6819 15.4676 19.0798 15.4676 19.3248 15.7055L23.3163 19.5828C23.5612 19.8207 23.5612 20.2063 23.3163 20.4442L19.3248 24.3216C19.0798 24.5595 18.6819 24.5595 18.4369 24.3216C18.192 24.0837 18.192 23.6972 18.4369 23.4593L21.3585 20.6227H6.14547C3.02756 20.6227 0.5 18.168 0.5 15.1399V13.1092C0.5 12.7728 0.78084 12.5 1.12727 12.5C1.47371 12.5 1.75455 12.7728 1.75455 13.1092Z" fill="white" stroke="white" stroke-linecap="square"/>
</svg>
