<svg width="53" height="53" viewBox="0 0 53 53" fill="none" xmlns="http://www.w3.org/2000/svg">
<mask id="mask0_3_54408" style="mask-type:luminance" maskUnits="userSpaceOnUse" x="0" y="0" width="53" height="53">
<path d="M0 0H53V53H0V0Z" fill="white"/>
</mask>
<g mask="url(#mask0_3_54408)">
<path d="M52.9794 26.4899C52.9794 26.9233 52.969 27.3566 52.9477 27.7896C52.9264 28.2226 52.8946 28.6549 52.8521 29.0861C52.8095 29.5177 52.7564 29.9478 52.6929 30.3765C52.6291 30.8055 52.5551 31.2324 52.4706 31.6578C52.3859 32.0829 52.291 32.5058 52.1856 32.9262C52.0802 33.3469 51.9648 33.7644 51.8388 34.1794C51.7129 34.5943 51.5772 35.0057 51.4311 35.4138C51.2849 35.8223 51.1291 36.2264 50.9631 36.6269C50.7971 37.0275 50.6217 37.4237 50.4362 37.8155C50.2508 38.2074 50.0559 38.5946 49.8517 38.9771C49.6474 39.3592 49.4338 39.7363 49.2108 40.1083C48.9878 40.48 48.7562 40.8462 48.5151 41.2067C48.2745 41.5672 48.0248 41.9215 47.7664 42.2697C47.5084 42.6179 47.2417 42.9597 46.9668 43.2949C46.6915 43.6297 46.4086 43.9581 46.1174 44.2792C45.8262 44.6004 45.5274 44.9143 45.2207 45.221C44.9143 45.5274 44.6004 45.8262 44.2792 46.1174C43.9581 46.4086 43.6297 46.6915 43.2945 46.9668C42.9597 47.2417 42.6179 47.5084 42.2697 47.7664C41.9215 48.0248 41.5672 48.2745 41.2067 48.5151C40.8462 48.7562 40.48 48.9878 40.1083 49.2108C39.7363 49.4338 39.3592 49.6474 38.9771 49.8517C38.5946 50.0559 38.2074 50.2508 37.8155 50.4362C37.4237 50.6217 37.0275 50.7971 36.6269 50.9631C36.2264 51.1291 35.8223 51.2849 35.4138 51.4311C35.0057 51.5772 34.5943 51.7129 34.1794 51.8388C33.7644 51.9648 33.3469 52.0802 32.9262 52.1856C32.5058 52.291 32.0829 52.3859 31.6578 52.4706C31.2324 52.5551 30.8055 52.6291 30.3765 52.6929C29.9478 52.7564 29.5177 52.8095 29.0861 52.8521C28.6549 52.8946 28.2226 52.9264 27.7896 52.9477C27.3566 52.969 26.9233 52.9794 26.4899 52.9794C26.0562 52.9794 25.6232 52.969 25.1902 52.9477C24.7571 52.9264 24.3249 52.8946 23.8933 52.8521C23.4621 52.8095 23.0316 52.7564 22.6029 52.6929C22.1743 52.6291 21.747 52.5551 21.322 52.4706C20.8969 52.3859 20.474 52.291 20.0533 52.1856C19.6329 52.0802 19.215 51.9648 18.8004 51.8388C18.3855 51.7129 17.9737 51.5772 17.5656 51.4311C17.1575 51.2849 16.753 51.1291 16.3525 50.9631C15.952 50.7971 15.5558 50.6217 15.1639 50.4362C14.772 50.2508 14.3848 50.0559 14.0027 49.8517C13.6202 49.6474 13.2431 49.4338 12.8715 49.2108C12.4995 48.9878 12.1332 48.7562 11.7727 48.5151C11.4126 48.2745 11.0583 48.0248 10.7101 47.7664C10.3618 47.5084 10.0201 47.2417 9.68491 46.9668C9.34969 46.6915 9.02169 46.4086 8.70054 46.1174C8.37904 45.8262 8.06547 45.5274 7.75876 45.221C7.45204 44.9143 7.15327 44.6004 6.86207 44.2792C6.57124 43.9581 6.28798 43.6297 6.01302 43.2949C5.73806 42.9597 5.4714 42.6179 5.21304 42.2697C4.95468 41.9215 4.70534 41.5672 4.4643 41.2067C4.22362 40.8462 3.9916 40.48 3.76896 40.1083C3.54596 39.7363 3.33235 39.3592 3.12811 38.9771C2.92352 38.5946 2.72866 38.2074 2.54355 37.8155C2.35808 37.4237 2.18235 37.0275 2.01637 36.6269C1.85074 36.2264 1.6945 35.8223 1.54872 35.4138C1.40258 35.0057 1.26654 34.5943 1.14061 34.1794C1.01504 33.7644 0.89921 33.3469 0.793845 32.9262C0.68848 32.5058 0.59358 32.0829 0.509144 31.6578C0.424346 31.2324 0.350374 30.8055 0.286867 30.3765C0.223359 29.9478 0.170316 29.5177 0.127737 29.0861C0.0851579 28.6549 0.0534042 28.2226 0.0321147 27.7896C0.0108251 27.3566 0 26.9233 0 26.4899C0 26.0562 0.0108251 25.6232 0.0321147 25.1902C0.0534042 24.7571 0.0851579 24.3249 0.127737 23.8933C0.170316 23.4621 0.223359 23.0316 0.286867 22.6029C0.350374 22.1743 0.424346 21.747 0.509144 21.322C0.59358 20.8969 0.68848 20.474 0.793845 20.0533C0.89921 19.6329 1.01504 19.215 1.14061 18.8004C1.26654 18.3855 1.40258 17.9737 1.54872 17.5656C1.6945 17.1575 1.85074 16.753 2.01637 16.3525C2.18235 15.952 2.35808 15.5558 2.54355 15.1639C2.72866 14.772 2.92352 14.3848 3.12811 14.0027C3.33235 13.6202 3.54596 13.2431 3.76896 12.8715C3.9916 12.4995 4.22362 12.1332 4.4643 11.7731C4.70534 11.4126 4.95468 11.0583 5.21304 10.7101C5.4714 10.3618 5.73806 10.0201 6.01302 9.68491C6.28798 9.34969 6.57124 9.02169 6.86207 8.70054C7.15327 8.37904 7.45204 8.06547 7.75876 7.75876C8.06547 7.45204 8.37904 7.15327 8.70054 6.86207C9.02169 6.57124 9.34969 6.28798 9.68491 6.01302C10.0201 5.73806 10.3618 5.4714 10.7101 5.21304C11.0583 4.95468 11.4126 4.70534 11.7727 4.4643C12.1332 4.22362 12.4995 3.9916 12.8715 3.76896C13.2431 3.54596 13.6202 3.33235 14.0027 3.12811C14.3848 2.92352 14.772 2.72866 15.1639 2.54355C15.5558 2.35808 15.952 2.18235 16.3525 2.01637C16.753 1.85074 17.1575 1.6945 17.5656 1.54872C17.9737 1.40258 18.3855 1.26654 18.8004 1.14061C19.215 1.01504 19.6329 0.89921 20.0533 0.793845C20.474 0.68848 20.8969 0.59358 21.322 0.509144C21.747 0.424346 22.1743 0.350374 22.6029 0.286867C23.0316 0.223359 23.4621 0.170316 23.8933 0.127737C24.3249 0.0851579 24.7571 0.0534042 25.1902 0.0321147C25.6232 0.0108251 26.0562 0 26.4899 0C26.9233 0 27.3566 0.0108251 27.7896 0.0321147C28.2226 0.0534042 28.6549 0.0851579 29.0861 0.127737C29.5177 0.170316 29.9478 0.223359 30.3765 0.286867C30.8055 0.350374 31.2324 0.424346 31.6578 0.509144C32.0829 0.59358 32.5058 0.68848 32.9262 0.793845C33.3469 0.89921 33.7644 1.01504 34.1794 1.14061C34.5943 1.26654 35.0057 1.40258 35.4138 1.54872C35.8223 1.6945 36.2264 1.85074 36.6269 2.01637C37.0275 2.18235 37.4237 2.35808 37.8155 2.54355C38.2074 2.72866 38.5946 2.92352 38.9771 3.12811C39.3592 3.33235 39.7363 3.54596 40.1083 3.76896C40.48 3.9916 40.8462 4.22362 41.2067 4.4643C41.5672 4.70534 41.9215 4.95468 42.2697 5.21304C42.6179 5.4714 42.9597 5.73806 43.2945 6.01302C43.6297 6.28798 43.9581 6.57124 44.2792 6.86207C44.6004 7.15327 44.9143 7.45204 45.2207 7.75876C45.5274 8.06547 45.8262 8.37904 46.1174 8.70054C46.4086 9.02169 46.6915 9.34969 46.9668 9.68491C47.2417 10.0201 47.5084 10.3618 47.7664 10.7101C48.0248 11.0583 48.2745 11.4126 48.5151 11.7731C48.7562 12.1332 48.9878 12.4995 49.2108 12.8715C49.4338 13.2431 49.6474 13.6202 49.8517 14.0027C50.0559 14.3848 50.2508 14.772 50.4362 15.1639C50.6217 15.5558 50.7971 15.952 50.9631 16.3525C51.1291 16.753 51.2849 17.1575 51.4311 17.5656C51.5772 17.9737 51.7129 18.3855 51.8388 18.8004C51.9648 19.215 52.0802 19.6329 52.1856 20.0533C52.291 20.474 52.3859 20.8969 52.4706 21.322C52.5551 21.747 52.6291 22.1743 52.6929 22.6029C52.7564 23.0316 52.8095 23.4621 52.8521 23.8933C52.8946 24.3249 52.9264 24.7571 52.9477 25.1902C52.969 25.6232 52.9794 26.0562 52.9794 26.4899Z" fill="#002379"/>
</g>
<path d="M19.6987 34.7997L16.8455 34.0528C15.9579 33.8197 15.0468 34.353 14.814 35.241C14.582 36.1283 15.1157 37.0398 16.003 37.2718L18.8569 38.0187C18.9972 38.0559 19.1383 38.0732 19.2776 38.0732C20.0162 38.0732 20.6921 37.5774 20.8884 36.8305C21.1204 35.9428 20.5874 35.0317 19.6994 34.799L19.6987 34.7997ZM20.1465 36.6371C20.0216 37.1159 19.5284 37.4032 19.0499 37.2787L16.196 36.5317C15.7168 36.4062 15.4289 35.9143 15.5541 35.4348C15.6793 34.9556 16.1719 34.6687 16.6511 34.7932L19.5046 35.5405C19.9838 35.6657 20.2717 36.1579 20.1461 36.6371H20.1465Z" fill="white"/>
<path d="M36.1339 34.0527L33.2804 34.7996C32.3924 35.0324 31.8594 35.9428 32.0914 36.8308C32.2877 37.5777 32.9636 38.0732 33.7022 38.0732C33.8408 38.0732 33.9818 38.0559 34.1229 38.0187L36.9768 37.2717C37.8641 37.039 38.3978 36.1283 38.1658 35.2406C37.9327 34.3529 37.0201 33.8196 36.1343 34.052L36.1339 34.0527ZM36.783 36.5309L33.9288 37.2779C33.4511 37.4031 32.9578 37.1155 32.8322 36.6363C32.7066 36.1571 32.9942 35.6653 33.4738 35.5397L36.3273 34.7928C36.4034 34.7733 36.4799 34.7636 36.555 34.7636C36.9534 34.7636 37.3189 35.0313 37.4246 35.4344C37.5502 35.9139 37.2619 36.4054 36.783 36.5309Z" fill="white"/>
<path d="M29.7892 36.979H23.1895C22.978 36.979 22.8066 37.1508 22.8066 37.3622C22.8066 37.5737 22.9777 37.7451 23.1895 37.7451H29.7892C30.0007 37.7451 30.1721 37.5737 30.1721 37.3622C30.1721 37.1508 30.001 36.979 29.7892 36.979Z" fill="white"/>
<path d="M29.7892 35.4324H23.1895C22.978 35.4324 22.8066 35.6041 22.8066 35.8156C22.8066 36.0267 22.9777 36.1984 23.1895 36.1984H29.7892C30.0007 36.1984 30.1721 36.0267 30.1721 35.8156C30.1721 35.6041 30.001 35.4324 29.7892 35.4324Z" fill="white"/>
<path d="M37.8335 14.6245H15.1465C14.9354 14.6245 14.7637 14.7963 14.7637 15.0077V28.5879C14.7637 29.8631 15.2266 31.0311 15.9916 31.9372C15.9981 31.9451 16.0028 31.9538 16.0096 31.9617C16.0133 31.9657 16.0194 31.9675 16.023 31.9718C16.9778 33.0821 18.389 33.7894 19.9652 33.7894H33.0156C34.591 33.7894 36.0026 33.0821 36.9574 31.9718C36.961 31.9675 36.9664 31.9657 36.9701 31.9617C36.9758 31.9549 36.9802 31.9473 36.9859 31.9404C37.752 31.0344 38.2168 29.8653 38.2168 28.5883V15.0081C38.2168 14.7966 38.0454 14.6252 37.8335 14.6252V14.6245ZM19.9258 15.3902H33.0539V16.7412C33.0539 17.486 32.4477 18.0915 31.7032 18.0915H21.2765C20.5317 18.0915 19.9258 17.4856 19.9258 16.7412V15.3902ZM16.325 18.4747C16.325 18.2632 16.4961 18.0915 16.7079 18.0915C16.92 18.0915 17.0911 18.2632 17.0911 18.4747V23.1807C17.0911 23.3922 16.92 23.5639 16.7079 23.5639C16.4961 23.5639 16.325 23.3922 16.325 23.1807V18.4747ZM16.325 24.518C16.325 24.3065 16.4961 24.1348 16.7079 24.1348C16.92 24.1348 17.0911 24.3065 17.0911 24.518V26.0876C17.0911 26.2991 16.92 26.4708 16.7079 26.4708C16.4961 26.4708 16.325 26.2991 16.325 26.0876V24.518ZM36.3945 31.454C35.5805 32.4124 34.3688 33.0233 33.0156 33.0233H19.9652C18.612 33.0233 17.401 32.4131 16.5866 31.4548C16.3441 31.1628 16.2944 30.7796 16.4574 30.4264C16.5913 30.137 16.9053 29.827 17.3855 29.827H35.5953C36.0755 29.827 36.3898 30.1366 36.5241 30.4264C36.6864 30.7793 36.6374 31.1618 36.3952 31.4537L36.3945 31.454Z" fill="white"/>
<path d="M43.3248 19.1325H40.1332V14.0804C40.1332 13.323 39.5165 12.7064 38.7587 12.7064H37.8913V12.3116C37.8913 10.7773 36.6428 9.52954 35.1085 9.52954H17.8687C16.3344 9.52954 15.0863 10.7777 15.0863 12.3116V12.7064H14.2184C13.4607 12.7064 12.844 13.323 12.844 14.0804V19.1325H9.65238C9.44129 19.1325 9.26953 19.3043 9.26953 19.5158V25.7936C9.26953 27.0281 10.2734 28.0323 11.5078 28.0323H12.8436V36.8595C12.8436 38.4407 14.0896 39.7328 15.651 39.8144V41.6666C15.651 42.6502 16.4513 43.4502 17.4346 43.4502H20.0868C21.07 43.4502 21.8707 42.6498 21.8707 41.6666V39.8223H31.1039V41.6666C31.1039 42.6502 31.9046 43.4502 32.8879 43.4502H35.54C36.5233 43.4502 37.3237 42.6498 37.3237 41.6666V39.8144C38.885 39.7328 40.131 38.4407 40.131 36.8595V28.0323H41.4668C42.7012 28.0323 43.7051 27.0281 43.7051 25.7936V19.5158C43.7051 19.3043 43.5341 19.1325 43.3219 19.1325H43.3248ZM12.8451 27.2662H11.5096C10.6974 27.2662 10.0367 26.6055 10.0367 25.7933V19.8982H12.8451V27.2662ZM34.0267 11.2875C34.0267 11.0761 34.1977 10.9043 34.4099 10.9043C34.6217 10.9043 34.7927 11.0761 34.7927 11.2875V11.7141C34.7927 11.9255 34.6217 12.0969 34.4099 12.0969C34.1977 12.0969 34.0267 11.9255 34.0267 11.7141V11.2875ZM32.0464 11.2875C32.0464 11.0761 32.2174 10.9043 32.4296 10.9043C32.6414 10.9043 32.8125 11.0761 32.8125 11.2875V11.7141C32.8125 11.9255 32.6414 12.0969 32.4296 12.0969C32.2174 12.0969 32.0464 11.9255 32.0464 11.7141V11.2875ZM30.0661 11.2875C30.0661 11.0761 30.2372 10.9043 30.449 10.9043C30.6611 10.9043 30.8322 11.0761 30.8322 11.2875V11.7141C30.8322 11.9255 30.6611 12.0969 30.449 12.0969C30.2372 12.0969 30.0661 11.9255 30.0661 11.7141V11.2875ZM28.0858 11.2875C28.0858 11.0761 28.2569 10.9043 28.4687 10.9043C28.6805 10.9043 28.8519 11.0761 28.8519 11.2875V11.7141C28.8519 11.9255 28.6805 12.0969 28.4687 12.0969C28.2569 12.0969 28.0858 11.9255 28.0858 11.7141V11.2875ZM26.1052 11.2875C26.1052 11.0761 26.2766 10.9043 26.4884 10.9043C26.7002 10.9043 26.8712 11.0761 26.8712 11.2875V11.7141C26.8712 11.9255 26.7002 12.0969 26.4884 12.0969C26.2766 12.0969 26.1052 11.9255 26.1052 11.7141V11.2875ZM24.1249 11.2875C24.1249 11.0761 24.2959 10.9043 24.5081 10.9043C24.7199 10.9043 24.891 11.0761 24.891 11.2875V11.7141C24.891 11.9255 24.7199 12.0969 24.5081 12.0969C24.2959 12.0969 24.1249 11.9255 24.1249 11.7141V11.2875ZM22.1446 11.2875C22.1446 11.0761 22.3157 10.9043 22.5275 10.9043C22.7396 10.9043 22.9107 11.0761 22.9107 11.2875V11.7141C22.9107 11.9255 22.7396 12.0969 22.5275 12.0969C22.3157 12.0969 22.1446 11.9255 22.1446 11.7141V11.2875ZM20.1643 11.2875C20.1643 11.0761 20.3354 10.9043 20.5472 10.9043C20.759 10.9043 20.9304 11.0761 20.9304 11.2875V11.7141C20.9304 11.9255 20.759 12.0969 20.5472 12.0969C20.3354 12.0969 20.1643 11.9255 20.1643 11.7141V11.2875ZM18.1837 11.2875C18.1837 11.0761 18.3551 10.9043 18.5669 10.9043C18.7787 10.9043 18.9498 11.0761 18.9498 11.2875V11.7141C18.9498 11.9255 18.7787 12.0969 18.5669 12.0969C18.3551 12.0969 18.1837 11.9255 18.1837 11.7141V11.2875ZM39.3657 19.5158V36.8591C39.3657 38.0708 38.3795 39.0563 37.1678 39.0563H15.8083C14.5966 39.0563 13.6108 38.0708 13.6108 36.8591V14.0804C13.6108 13.7452 13.8836 13.4717 14.2195 13.4717H38.7594C39.0954 13.4717 39.3682 13.7449 39.3682 14.0804V19.5158H39.3657ZM42.9394 25.7936C42.9394 26.6059 42.2787 27.2666 41.4668 27.2666H40.131V19.8986H42.9394V25.7936Z" fill="white"/>
</svg>
