<svg width="53" height="53" viewBox="0 0 53 53" fill="none" xmlns="http://www.w3.org/2000/svg">
<mask id="mask0_3_54628" style="mask-type:luminance" maskUnits="userSpaceOnUse" x="0" y="0" width="53" height="53">
<path d="M0 0H53V53H0V0Z" fill="white"/>
</mask>
<g mask="url(#mask0_3_54628)">
<mask id="mask1_3_54628" style="mask-type:luminance" maskUnits="userSpaceOnUse" x="0" y="0" width="53" height="53">
<path d="M26.5 0C11.8644 0 0 11.8644 0 26.5C0 41.1356 11.8644 53 26.5 53C41.1356 53 53 41.1356 53 26.5C53 11.8644 41.1356 0 26.5 0Z" fill="white"/>
</mask>
<g mask="url(#mask1_3_54628)">
<path d="M0 0H53V53H0V0Z" fill="#0E7658"/>
</g>
</g>
<path d="M44.6083 20.6258C42.8284 22.0238 41.0481 23.4214 39.2677 24.8197C40.1045 23.2101 40.9409 21.6004 41.7777 19.9908C41.9125 19.7311 41.5198 19.5005 41.3842 19.7614C40.4363 21.5845 39.4887 23.4084 38.5411 25.232C38.7191 23.0922 38.8972 20.9524 39.0756 18.8134C39.1004 18.5212 38.6445 18.5227 38.6205 18.8134C38.4306 21.0906 38.2407 23.3682 38.0512 25.6457C38.0324 25.8678 38.2913 25.9195 38.4273 25.8039C38.5067 25.8737 38.6371 25.8903 38.7435 25.8064C40.8061 24.1868 42.8679 22.5676 44.9305 20.948C45.1606 20.767 44.8366 20.447 44.6083 20.6258ZM37.7091 25.5696C37.7394 25.7994 37.3855 25.8718 37.285 25.6849C36.1209 23.5211 34.9568 21.3573 33.7931 19.1935C33.6538 18.9353 34.0469 18.7055 34.1862 18.9641C35.1563 20.7666 36.1261 22.5695 37.0958 24.3723C36.845 22.4686 36.5941 20.5653 36.3426 18.6612C36.3045 18.3712 36.7604 18.3749 36.7984 18.6612C37.1021 20.9639 37.4058 23.2669 37.7091 25.5696Z" fill="white"/>
<mask id="mask2_3_54628" style="mask-type:luminance" maskUnits="userSpaceOnUse" x="31" y="13" width="18" height="15">
<path d="M31.0391 13.2598H48.1861V27.7147H31.0391V13.2598Z" fill="white"/>
</mask>
<g mask="url(#mask2_3_54628)">
<path d="M48.1853 18.0164C48.2234 21.7739 44.0861 27.6576 44.0861 27.6576L43.4787 26.4429L44.8072 21.1289C44.8072 21.1289 41.657 20.6734 40.5181 19.8004C39.3791 18.9271 37.785 19.3068 37.785 19.3068H33.6853L31.0664 14.6002C31.0664 14.6002 34.9381 13.3098 35.4693 13.3098C36.001 13.3098 40.0245 13.1576 40.3658 13.3855C40.7079 13.6131 44.4655 14.7521 44.8072 15.1695C45.1489 15.587 48.1853 18.0164 48.1853 18.0164Z" fill="white"/>
</g>
<path d="M32.0677 27.202C32.0677 27.202 30.0432 27.1514 29.4864 27.0502C28.9297 26.949 28.9297 26.3416 28.9297 26.3416C28.9297 26.3416 28.9803 25.2788 29.0815 24.5196C29.1828 23.7607 29.537 23.7607 29.537 23.7607H35.0535L32.0677 27.202Z" fill="white"/>
<path d="M41.6073 35.0971L23.0332 32.8196L23.0838 31.0991L26.7785 31.3518C26.7785 31.3518 29.2076 31.8073 29.8153 28.9734C30.4223 26.139 32.2443 23.9631 34.775 23.7606C37.3052 23.5578 45.2511 24.2664 45.2511 24.2664L41.6073 35.0971Z" fill="white"/>
<path d="M20.5616 18.7399V19.1049C20.5616 19.2523 20.4408 19.3731 20.293 19.3731H18.5397C18.4192 19.6395 18.1518 19.8253 17.84 19.8253C17.4158 19.8253 17.0723 19.4817 17.0723 19.0576C17.0723 18.6335 17.4158 18.2896 17.84 18.2896C18.0291 18.2896 18.202 18.3579 18.3361 18.4717H20.293C20.4408 18.4717 20.5616 18.5925 20.5616 18.7399Z" fill="white"/>
<mask id="mask3_3_54628" style="mask-type:luminance" maskUnits="userSpaceOnUse" x="4" y="24" width="43" height="9">
<path d="M4.76172 24.3247H46.0765V32.8365H4.76172V24.3247Z" fill="white"/>
</mask>
<g mask="url(#mask3_3_54628)">
<path d="M30.0241 32.6121C30.0795 28.3702 33.5238 24.8273 37.8085 24.8273C42.0932 24.8273 45.5378 28.3698 45.5932 32.6121C45.5969 32.905 46.0524 32.9058 46.0484 32.6121C46.004 29.2033 43.9152 26.1107 40.7067 24.8971C37.4534 23.6666 33.6534 24.6866 31.449 27.3735C30.2302 28.8593 29.5933 30.6965 29.5682 32.6121C29.5645 32.9054 30.02 32.9054 30.0241 32.6121ZM5.26414 32.6121C5.26007 32.9054 4.80456 32.9054 4.80862 32.6121C4.83337 30.6965 5.47028 28.8593 6.68905 27.3735C8.89384 24.6866 12.6935 23.6666 15.9467 24.8971C19.1553 26.1107 21.2445 29.2033 21.2884 32.6121C21.2928 32.9058 20.837 32.905 20.8333 32.6121C20.7779 28.3698 17.3336 24.8273 13.0485 24.8273C8.76343 24.8273 5.31955 28.3702 5.26414 32.6121Z" fill="white"/>
</g>
<path d="M44.6687 32.2528C42.8267 32.2528 40.9854 32.2528 39.1434 32.2528C40.3286 31.7703 41.5134 31.2878 42.6981 30.8054C43.2272 30.5903 43.7558 30.375 44.2845 30.1596C44.5527 30.0506 44.4349 29.6099 44.1633 29.7203C42.3823 30.4455 40.6016 31.1707 38.8202 31.8959C39.7733 30.9428 40.7272 29.9896 41.6803 29.0365C42.0838 28.6327 42.4872 28.2289 42.891 27.8251C43.099 27.6175 42.7768 27.2953 42.5692 27.503C41.244 28.8278 39.9192 30.1529 38.5944 31.4777C39.1006 30.2349 39.6067 28.9914 40.1125 27.7486C40.3282 27.2196 40.5436 26.6909 40.759 26.1619C40.8694 25.8907 40.4287 25.7725 40.3193 26.0407C39.5746 27.8706 38.8298 29.7 38.085 31.5298C38.085 30.1249 38.085 28.7203 38.085 27.3149C38.085 26.7438 38.085 26.1734 38.085 25.6022C38.085 25.3089 37.6291 25.3085 37.6291 25.6022C37.6291 27.5296 37.6291 29.4565 37.6291 31.3839C37.1193 30.1319 36.6098 28.8795 36.0996 27.6275C35.8846 27.0984 35.6689 26.5698 35.4539 26.0407C35.3445 25.7729 34.9038 25.8904 35.0146 26.1619C35.745 27.9566 36.4761 29.7514 37.2068 31.5461C36.2471 30.5863 35.2873 29.6269 34.3275 28.6667C33.9237 28.2633 33.5199 27.8595 33.1161 27.4557C32.9088 27.2481 32.5867 27.5702 32.7943 27.7778C34.1575 29.141 35.5215 30.5046 36.8847 31.8682C35.6552 31.3676 34.4257 30.867 33.1963 30.3665C32.6676 30.1511 32.1386 29.9361 31.6099 29.7203C31.3387 29.6099 31.2205 30.0502 31.4887 30.1596C33.2025 30.8574 34.916 31.5549 36.6294 32.2528C35.2946 32.2528 33.9599 32.2528 32.6247 32.2528C32.0536 32.2528 31.4828 32.2528 30.9117 32.2528C30.6183 32.2528 30.618 32.7083 30.9117 32.7083C32.883 32.7083 34.8539 32.7083 36.8249 32.7083C35.5529 33.2263 34.2805 33.7446 33.0082 34.2625C32.4795 34.4779 31.9509 34.6929 31.4219 34.9083C31.154 35.0173 31.2711 35.458 31.543 35.3476C33.3318 34.6194 35.1206 33.8909 36.9098 33.1624C35.957 34.1148 35.005 35.0672 34.053 36.0192C33.6488 36.423 33.245 36.8268 32.8416 37.2306C32.634 37.4382 32.9561 37.7604 33.1634 37.5527C34.5517 36.1648 35.9401 34.7768 37.328 33.3884C36.8112 34.6575 36.2943 35.9268 35.7775 37.1959C35.5621 37.7245 35.3471 38.2535 35.1317 38.7822C35.0213 39.0537 35.4616 39.172 35.5706 38.9034C36.2567 37.218 36.9431 35.5334 37.6291 33.8484C37.6291 35.1141 37.6291 36.3805 37.6291 37.6462C37.6291 38.2173 37.6291 38.7881 37.6291 39.3593C37.6291 39.6522 38.085 39.653 38.085 39.3593C38.085 37.4737 38.085 35.5881 38.085 33.7025C38.5752 34.9072 39.0658 36.1123 39.5565 37.317C39.7718 37.8457 39.9869 38.3747 40.2022 38.9034C40.3112 39.1712 40.752 39.0541 40.6415 38.7822C39.9189 37.0071 39.1963 35.2319 38.4729 33.4568C39.419 34.4025 40.3648 35.3483 41.3109 36.2941C41.7143 36.6979 42.1181 37.1016 42.5219 37.5058C42.7295 37.7131 43.0517 37.3909 42.8441 37.1837C41.4941 35.8337 40.1446 34.4842 38.7951 33.1346C40.0781 33.657 41.3608 34.1794 42.6438 34.7014C43.1725 34.9168 43.7012 35.1322 44.2298 35.3476C44.5014 35.458 44.6196 35.0177 44.351 34.9083C42.55 34.175 40.7494 33.4416 38.948 32.7083C40.2839 32.7083 41.6198 32.7083 42.956 32.7083C43.5268 32.7083 44.0976 32.7083 44.6687 32.7083C44.962 32.7083 44.9624 32.2528 44.6687 32.2528ZM19.8441 32.7083C19.2733 32.7083 18.7025 32.7083 18.1314 32.7083C16.7955 32.7083 15.4596 32.7083 14.1234 32.7083C15.9248 33.4416 17.7258 34.175 19.5268 34.9083C19.795 35.0177 19.6771 35.458 19.4059 35.3476C18.8769 35.1322 18.3483 34.9168 17.8192 34.7014C16.5365 34.1794 15.2535 33.657 13.9708 33.1346C15.3207 34.4842 16.6703 35.8337 18.0195 37.1837C18.2271 37.3909 17.9049 37.7131 17.6973 37.5058C17.2939 37.1016 16.8901 36.6979 16.4863 36.2941C15.5405 35.3483 14.5948 34.4025 13.649 33.4568C14.3716 35.2319 15.0943 37.0071 15.8172 38.7822C15.9281 39.0541 15.4873 39.1712 15.378 38.9034C15.1626 38.3747 14.9472 37.8457 14.7318 37.317C14.2412 36.1123 13.751 34.9072 13.2604 33.7025C13.2604 35.5881 13.2604 37.4737 13.2604 39.3593C13.2604 39.653 12.8049 39.6522 12.8049 39.3593C12.8049 38.7881 12.8049 38.2173 12.8049 37.6462C12.8049 36.3805 12.8049 35.1141 12.8049 33.8484C12.1188 35.5334 11.4328 37.218 10.7467 38.9034C10.637 39.172 10.1967 39.0537 10.3071 38.7822C10.5225 38.2535 10.7379 37.7245 10.9529 37.1959C11.4701 35.9268 11.9866 34.6575 12.5034 33.3884C11.1154 34.7768 9.72747 36.1648 8.33913 37.5527C8.13151 37.7604 7.80973 37.4382 8.01735 37.2306C8.42077 36.8268 8.82457 36.423 9.22836 36.0192C10.1804 35.0672 11.1332 34.1148 12.0852 33.1624C10.2968 33.8909 8.50759 34.6194 6.71878 35.3476C6.44688 35.458 6.32977 35.0173 6.59798 34.9083C7.12664 34.6929 7.6553 34.4779 8.18397 34.2625C9.4563 33.7446 10.7286 33.2263 12.001 32.7083C10.0293 32.7083 8.05836 32.7083 6.08705 32.7083C5.79372 32.7083 5.79409 32.2528 6.08705 32.2528C6.6582 32.2528 7.22934 32.2528 7.80012 32.2528C9.13526 32.2528 10.4704 32.2528 11.8052 32.2528C10.0917 31.5549 8.37829 30.8574 6.66448 30.1596C6.3959 30.0502 6.51412 29.6099 6.78565 29.7203C7.31431 29.9361 7.84335 30.1511 8.37201 30.3665C9.60149 30.867 10.831 31.3676 12.0601 31.8682C10.6969 30.5046 9.33328 29.141 7.97006 27.7778C7.76244 27.5702 8.08459 27.2481 8.29221 27.4557C8.69563 27.8595 9.09943 28.2633 9.50322 28.6667C10.463 29.6269 11.4224 30.5863 12.3822 31.5461C11.6515 29.7514 10.9207 27.9566 10.19 26.1619C10.0792 25.8904 10.5199 25.7729 10.6293 26.0407C10.8446 26.5698 11.06 27.0984 11.2754 27.6275C11.7852 28.8795 12.295 30.1319 12.8049 31.3839C12.8049 29.4565 12.8049 27.5296 12.8049 25.6022C12.8049 25.3085 13.2604 25.3089 13.2604 25.6022C13.2604 26.1734 13.2604 26.7438 13.2604 27.3149C13.2604 28.7203 13.2604 30.1249 13.2604 31.5298C14.0052 29.7 14.7503 27.8706 15.4955 26.0407C15.6045 25.7725 16.0448 25.8907 15.9344 26.1619C15.719 26.6909 15.5036 27.2196 15.2886 27.7486C14.7821 28.9914 14.276 30.2349 13.7698 31.4777C15.0946 30.1529 16.4198 28.8278 17.7446 27.503C17.9522 27.2953 18.2744 27.6175 18.0667 27.8251C17.6633 28.2289 17.2595 28.6327 16.8557 29.0365C15.9026 29.9896 14.9494 30.9428 13.9959 31.8959C15.777 31.1707 17.558 30.4455 19.3387 29.7203C19.611 29.6099 19.7281 30.0506 19.4599 30.1596C18.9312 30.375 18.4026 30.5903 17.8735 30.8054C16.6887 31.2878 15.504 31.7703 14.3192 32.2528C16.1608 32.2528 18.0028 32.2528 19.8441 32.2528C20.1378 32.2528 20.1374 32.7083 19.8441 32.7083Z" fill="white"/>
<mask id="mask4_3_54628" style="mask-type:luminance" maskUnits="userSpaceOnUse" x="5" y="25" width="41" height="15">
<path d="M5.71094 25.1853H45.1308V39.7389H5.71094V25.1853Z" fill="white"/>
</mask>
<g mask="url(#mask4_3_54628)">
<path d="M37.8576 25.9816C34.2744 25.9816 31.3588 28.8968 31.3588 32.4807C31.3588 36.0642 34.2744 38.9795 37.8576 38.9795C41.4415 38.9795 44.3567 36.0642 44.3567 32.4807C44.3567 28.8968 41.4415 25.9816 37.8576 25.9816ZM37.8576 39.7387C33.8558 39.7387 30.5996 36.4828 30.5996 32.4807C30.5996 28.4783 33.8558 25.2224 37.8576 25.2224C41.86 25.2224 45.1159 28.4783 45.1159 32.4807C45.1159 36.4828 41.86 39.7387 37.8576 39.7387ZM13.0333 25.9816C9.4498 25.9816 6.53458 28.8968 6.53458 32.4807C6.53458 36.0642 9.4498 38.9795 13.0333 38.9795C16.6169 38.9795 19.5324 36.0642 19.5324 32.4807C19.5324 28.8968 16.6169 25.9816 13.0333 25.9816ZM13.0333 39.7387C9.03123 39.7387 5.77539 36.4828 5.77539 32.4807C5.77539 28.4783 9.03123 25.2224 13.0333 25.2224C17.0354 25.2224 20.2916 28.4783 20.2916 32.4807C20.2916 36.4828 17.0354 39.7387 13.0333 39.7387Z" fill="white"/>
</g>
<path d="M29.7623 21.9208C29.1867 22.1488 28.6581 22.1177 28.4334 22.837C28.3448 23.1219 28.2979 23.427 28.2332 23.7185C28.2221 23.7687 28.211 23.8194 28.2003 23.87C28.4013 23.8755 28.6023 23.881 28.8032 23.887C29.0966 23.8951 29.0966 24.351 28.8032 24.3425C28.5694 24.3358 28.3355 24.3292 28.1013 24.3225C27.904 25.2269 27.7097 26.1317 27.5169 27.0364C27.1389 28.8067 26.764 30.5774 26.3912 32.3489C26.331 32.6359 25.8921 32.5137 25.9523 32.2277C26.3679 30.2509 26.7865 28.2744 27.2095 26.299C27.3514 25.6359 27.4925 24.9724 27.6366 24.3096C23.8602 24.2025 20.0838 24.0953 16.3074 23.9886C15.2656 26.8846 14.2238 29.7813 13.182 32.6777C13.0834 32.9518 12.6434 32.8328 12.7431 32.5565C12.9367 32.0182 13.1303 31.4796 13.3243 30.941C14.6657 27.2111 16.0071 23.4817 17.3485 19.7522C17.4468 19.4777 17.8868 19.5971 17.7874 19.873C17.5938 20.412 17.3999 20.9507 17.2063 21.4893C16.961 22.172 16.7153 22.8544 16.4696 23.5375C20.2249 23.6439 23.9803 23.7503 27.7356 23.8567C27.7932 23.594 27.8523 23.3313 27.9118 23.0687C27.9916 22.7199 28.0581 22.3767 28.3045 22.0978C28.6769 21.6763 29.1605 21.6718 29.6408 21.4812C29.9141 21.3733 30.0316 21.8141 29.7623 21.9208ZM22.1552 29.2246C22.1552 29.9317 22.1552 30.6388 22.1552 31.3462C21.0111 31.119 21.0089 29.4514 22.1552 29.2246ZM23.0777 32.094C22.9222 32.0286 22.7667 31.9632 22.6111 31.8974C22.6111 30.1552 22.6111 28.4129 22.6111 26.6707C22.6111 26.3777 22.1552 26.3773 22.1552 26.6707C22.1552 27.3689 22.1552 28.0671 22.1552 28.7657C21.4064 28.8873 20.799 29.481 20.8027 30.2852C20.8061 31.0898 21.4031 31.6835 22.1552 31.8051C22.1552 31.8852 22.1552 31.9658 22.1552 32.0467C22.1552 32.1575 22.228 32.2266 22.3226 32.2661C22.5339 32.3552 22.7452 32.4446 22.9569 32.5332C23.2266 32.647 23.3445 32.2063 23.0777 32.094Z" fill="white"/>
<path d="M28.8333 21.5677C30.0018 21.5008 30.0018 22.0687 30.9701 22.369C31.9387 22.6697 32.2391 21.9685 32.7397 21.3002C33.241 20.6327 32.4393 20.3992 32.4393 20.3992C32.4393 20.3992 28.4657 20.8333 27.5975 20.9334C26.7293 21.0335 26.8298 21.434 26.8298 21.434C27.197 22.1019 27.6644 21.6342 28.8333 21.5677ZM16.8277 21.0154C16.7147 20.9648 16.6892 20.8011 16.7461 20.7036C16.8129 20.5898 16.9455 20.5717 17.0579 20.6216C17.2415 20.7043 17.4258 20.7867 17.6098 20.8691C17.7225 20.9197 17.7483 21.0834 17.6914 21.1809C17.6249 21.2947 17.4919 21.3124 17.38 21.2622C17.1957 21.1802 17.0117 21.0974 16.8277 21.0154Z" fill="white"/>
</svg>
