<svg width="365" height="153" viewBox="0 0 365 153" fill="none" xmlns="http://www.w3.org/2000/svg">
<path d="M315 1C315 3.76142 317.239 6 320 6C322.761 6 325 3.76142 325 1V0H345C356.046 5.79832e-06 365 8.95431 365 20V133C365 144.046 356.046 153 345 153H325V152C325 149.239 322.761 147 320 147C317.239 147 315 149.239 315 152V153H20C8.95431 153 5.87924e-07 144.046 0 133V20C0 8.95431 8.95431 0 20 0H315V1ZM320 141.554C319.448 141.554 319 142.001 319 142.554V145C319 145.552 319.448 146 320 146C320.552 146 321 145.552 321 145V142.554C321 142.001 320.552 141.554 320 141.554ZM320 131.768C319.448 131.768 319 132.215 319 132.768V137.661C319 138.213 319.448 138.661 320 138.661C320.552 138.661 321 138.213 321 137.661V132.768C321 132.215 320.552 131.768 320 131.768ZM320 121.982C319.448 121.982 319 122.43 319 122.982V127.875C319 128.427 319.448 128.875 320 128.875C320.552 128.875 321 128.427 321 127.875V122.982C321 122.43 320.552 121.982 320 121.982ZM320 112.196C319.448 112.196 319 112.644 319 113.196V118.089C319 118.641 319.448 119.089 320 119.089C320.552 119.089 321 118.641 321 118.089V113.196C321 112.644 320.552 112.196 320 112.196ZM320 102.411C319.448 102.411 319 102.859 319 103.411V108.304C319 108.856 319.448 109.304 320 109.304C320.552 109.304 321 108.856 321 108.304V103.411C321 102.859 320.552 102.411 320 102.411ZM320 92.625C319.448 92.625 319 93.0727 319 93.625V98.5176C319 99.0699 319.448 99.5176 320 99.5176C320.552 99.5176 321 99.0699 321 98.5176V93.625C321 93.0727 320.552 92.625 320 92.625ZM320 82.8389C319.448 82.8389 319 83.2868 319 83.8389V88.7324C319 89.2846 319.448 89.7324 320 89.7324C320.552 89.7324 321 89.2846 321 88.7324V83.8389C321 83.2868 320.552 82.8389 320 82.8389ZM320 73.0537C319.448 73.0537 319 73.5014 319 74.0537V78.9463C319 79.4986 319.448 79.9463 320 79.9463C320.552 79.9463 321 79.4986 321 78.9463V74.0537C321 73.5014 320.552 73.0537 320 73.0537ZM320 63.2676C319.448 63.2676 319 63.7154 319 64.2676V69.1611C319 69.7132 319.448 70.1611 320 70.1611C320.552 70.1611 321 69.7132 321 69.1611V64.2676C321 63.7154 320.552 63.2676 320 63.2676ZM320 53.4824C319.448 53.4824 319 53.9301 319 54.4824V59.375C319 59.9273 319.448 60.375 320 60.375C320.552 60.375 321 59.9273 321 59.375V54.4824C321 53.9301 320.552 53.4824 320 53.4824ZM320 43.6963C319.448 43.6963 319 44.1441 319 44.6963V49.5889C319 50.1412 319.448 50.5889 320 50.5889C320.552 50.5889 321 50.1412 321 49.5889V44.6963C321 44.1441 320.552 43.6963 320 43.6963ZM320 33.9111C319.448 33.9111 319 34.3588 319 34.9111V39.8037C319 40.3559 319.448 40.8037 320 40.8037C320.552 40.8037 321 40.3559 321 39.8037V34.9111C321 34.3588 320.552 33.9111 320 33.9111ZM320 24.125C319.448 24.125 319 24.5727 319 25.125V30.0176C319 30.5699 319.448 31.0176 320 31.0176C320.552 31.0176 321 30.5699 321 30.0176V25.125C321 24.5727 320.552 24.125 320 24.125ZM320 14.3389C319.448 14.3389 319 14.7868 319 15.3389V20.2324C319 20.7846 319.448 21.2324 320 21.2324C320.552 21.2324 321 20.7846 321 20.2324V15.3389C321 14.7868 320.552 14.3389 320 14.3389ZM320 7C319.448 7 319 7.44772 319 8V10.4463C319 10.9986 319.448 11.4463 320 11.4463C320.552 11.4463 321 10.9986 321 10.4463V8C321 7.44772 320.552 7 320 7Z" fill="white"/>
</svg>
